G04 #@! TF.FileFunction,Soldermask,Top*
%FSLAX46Y46*%
G04 Gerber Fmt 4.6, Leading zero omitted, Abs format (unit mm)*
G04 Created by KiCad (PCBNEW 4.0.7-e2-6376~58~ubuntu16.04.1) date Mon Nov  6 12:00:07 2017*
%MOMM*%
%LPD*%
G01*
G04 APERTURE LIST*
%ADD10C,0.100000*%
%ADD11R,1.975000X2.360000*%
%ADD12R,3.550000X2.360000*%
%ADD13R,2.600000X1.600000*%
%ADD14R,6.800000X6.200000*%
%ADD15R,3.450000X3.150000*%
%ADD16R,1.500000X1.600000*%
%ADD17R,1.600000X2.600000*%
%ADD18R,6.200000X6.800000*%
%ADD19R,3.150000X3.450000*%
%ADD20R,1.600000X1.500000*%
%ADD21R,10.400000X7.400000*%
%ADD22O,7.250000X4.450000*%
%ADD23C,3.600000*%
%ADD24R,3.194000X3.194000*%
%ADD25C,3.194000*%
%ADD26R,1.900000X1.650000*%
%ADD27R,2.900000X4.400000*%
%ADD28R,1.700000X1.900000*%
%ADD29R,1.300000X1.600000*%
%ADD30R,1.900000X1.700000*%
%ADD31R,1.960000X1.050000*%
%ADD32R,2.300000X1.200000*%
%ADD33R,3.000000X2.400000*%
%ADD34O,3.000000X2.400000*%
%ADD35R,1.200000X2.300000*%
G04 APERTURE END LIST*
D10*
D11*
X158011000Y-98124000D03*
X156438500Y-98124000D03*
X158013500Y-103044000D03*
X156438500Y-103044000D03*
D12*
X157226000Y-98124000D03*
X157226000Y-103044000D03*
D13*
X149860000Y-105664000D03*
D14*
X156160000Y-107944000D03*
D15*
X157835000Y-109469000D03*
X154485000Y-106419000D03*
X157835000Y-106419000D03*
X154485000Y-109469000D03*
D16*
X149310000Y-110224000D03*
X150410000Y-110224000D03*
D17*
X142246000Y-105038000D03*
D18*
X144526000Y-98738000D03*
D19*
X146051000Y-97063000D03*
X143001000Y-100413000D03*
X143001000Y-97063000D03*
X146051000Y-100413000D03*
D20*
X146806000Y-104488000D03*
X146806000Y-105588000D03*
D21*
X128130800Y-84683600D03*
X128130800Y-94335600D03*
D22*
X165473000Y-84709000D03*
X165473000Y-94352000D03*
D23*
X151638000Y-100838000D03*
D24*
X144627600Y-89509600D03*
D25*
X139627600Y-89509600D03*
D26*
X141124080Y-116907881D03*
X143624080Y-116907881D03*
D27*
X155448000Y-114044000D03*
X155448000Y-120144000D03*
D28*
X141224000Y-126759975D03*
X141224000Y-129459975D03*
D29*
X139318000Y-103378000D03*
X136018000Y-103378000D03*
D28*
X144018000Y-129459975D03*
X144018000Y-126759975D03*
D30*
X138644080Y-121158000D03*
X135944080Y-121158000D03*
X135944080Y-119053992D03*
X138644080Y-119053992D03*
X141024080Y-119053992D03*
X143724080Y-119053992D03*
X143724080Y-114875881D03*
X141024080Y-114875881D03*
D28*
X141224000Y-124379975D03*
X141224000Y-121679975D03*
X135890000Y-109902000D03*
X135890000Y-112602000D03*
D30*
X139018000Y-105664000D03*
X136318000Y-105664000D03*
X136318000Y-107696000D03*
X139018000Y-107696000D03*
D28*
X144018000Y-121679975D03*
X144018000Y-124379975D03*
D31*
X135944080Y-115055992D03*
X135944080Y-116005992D03*
X135944080Y-116955992D03*
X138644080Y-116955992D03*
X138644080Y-115055992D03*
X138644080Y-116005992D03*
D32*
X138200000Y-110302000D03*
X138200000Y-112202000D03*
X141200000Y-111252000D03*
D33*
X136652000Y-125476000D03*
D34*
X136652000Y-128016000D03*
D35*
X148778000Y-117118000D03*
X146878000Y-117118000D03*
X147828000Y-120118000D03*
D30*
X149178000Y-114808000D03*
X146478000Y-114808000D03*
M02*
