M48
;DRILL file {KiCad 4.0.7-e2-6376~58~ubuntu16.04.1} date Mon Nov  6 12:00:13 2017
;FORMAT={-:-/ absolute / metric / decimal}
FMAT,2
METRIC,TZ
T1C0.406
T2C0.600
T3C0.800
T4C0.813
T5C1.200
T6C1.300
T7C3.200
%
G90
G05
M71
T1
X138.644Y-122.774
X139.513Y-113.714
X139.87Y-122.584
X146.558Y-120.65
T2
X146.806Y-104.488
X146.806Y-105.588
X149.31Y-110.224
X150.41Y-110.224
T3
X143.001Y-97.063
X143.001Y-100.413
X144.526Y-98.738
X146.051Y-97.063
X146.051Y-100.413
X154.485Y-106.419
X154.485Y-109.469
X156.16Y-107.944
X156.439Y-98.124
X156.439Y-103.044
X157.835Y-106.419
X157.835Y-109.469
X158.011Y-98.124
X158.013Y-103.044
T4
X132.131Y-84.684
X132.131Y-94.336
X165.473Y-84.709
X165.473Y-94.352
T5
X136.652Y-125.476
X136.652Y-128.016
T6
X139.628Y-89.51
X144.628Y-89.51
T7
X151.638Y-100.838
T0
M30
