G04 #@! TF.FileFunction,Legend,Top*
%FSLAX46Y46*%
G04 Gerber Fmt 4.6, Leading zero omitted, Abs format (unit mm)*
G04 Created by KiCad (PCBNEW 4.0.7-e2-6376~58~ubuntu16.04.1) date Mon Nov  6 12:00:07 2017*
%MOMM*%
%LPD*%
G01*
G04 APERTURE LIST*
%ADD10C,0.100000*%
%ADD11C,0.300000*%
%ADD12C,0.150000*%
%ADD13C,0.200000*%
%ADD14C,0.250000*%
%ADD15C,0.120000*%
%ADD16C,0.010000*%
%ADD17R,1.975000X2.360000*%
%ADD18R,3.550000X2.360000*%
%ADD19R,2.600000X1.600000*%
%ADD20R,6.800000X6.200000*%
%ADD21R,3.450000X3.150000*%
%ADD22R,1.500000X1.600000*%
%ADD23R,1.600000X2.600000*%
%ADD24R,6.200000X6.800000*%
%ADD25R,3.150000X3.450000*%
%ADD26R,1.600000X1.500000*%
%ADD27R,10.400000X7.400000*%
%ADD28O,7.250000X4.450000*%
%ADD29C,3.600000*%
%ADD30R,3.194000X3.194000*%
%ADD31C,3.194000*%
%ADD32R,1.900000X1.650000*%
%ADD33R,2.900000X4.400000*%
%ADD34R,1.700000X1.900000*%
%ADD35R,1.300000X1.600000*%
%ADD36R,1.900000X1.700000*%
%ADD37R,1.960000X1.050000*%
%ADD38R,2.300000X1.200000*%
%ADD39R,3.000000X2.400000*%
%ADD40O,3.000000X2.400000*%
%ADD41R,1.200000X2.300000*%
G04 APERTURE END LIST*
D10*
D11*
X150552571Y-93054857D02*
X151766857Y-93054857D01*
X151909714Y-92983429D01*
X151981143Y-92912000D01*
X152052571Y-92769143D01*
X152052571Y-92483429D01*
X151981143Y-92340571D01*
X151909714Y-92269143D01*
X151766857Y-92197714D01*
X150552571Y-92197714D01*
X151981143Y-91554857D02*
X152052571Y-91340571D01*
X152052571Y-90983428D01*
X151981143Y-90840571D01*
X151909714Y-90769142D01*
X151766857Y-90697714D01*
X151624000Y-90697714D01*
X151481143Y-90769142D01*
X151409714Y-90840571D01*
X151338286Y-90983428D01*
X151266857Y-91269142D01*
X151195429Y-91412000D01*
X151124000Y-91483428D01*
X150981143Y-91554857D01*
X150838286Y-91554857D01*
X150695429Y-91483428D01*
X150624000Y-91412000D01*
X150552571Y-91269142D01*
X150552571Y-90912000D01*
X150624000Y-90697714D01*
X151266857Y-89554857D02*
X151338286Y-89340571D01*
X151409714Y-89269143D01*
X151552571Y-89197714D01*
X151766857Y-89197714D01*
X151909714Y-89269143D01*
X151981143Y-89340571D01*
X152052571Y-89483429D01*
X152052571Y-90054857D01*
X150552571Y-90054857D01*
X150552571Y-89554857D01*
X150624000Y-89412000D01*
X150695429Y-89340571D01*
X150838286Y-89269143D01*
X150981143Y-89269143D01*
X151124000Y-89340571D01*
X151195429Y-89412000D01*
X151266857Y-89554857D01*
X151266857Y-90054857D01*
X152052571Y-88554857D02*
X150552571Y-88554857D01*
X150552571Y-87983429D01*
X150624000Y-87840571D01*
X150695429Y-87769143D01*
X150838286Y-87697714D01*
X151052571Y-87697714D01*
X151195429Y-87769143D01*
X151266857Y-87840571D01*
X151338286Y-87983429D01*
X151338286Y-88554857D01*
X152052571Y-87054857D02*
X150552571Y-87054857D01*
X150552571Y-86697714D01*
X150624000Y-86483429D01*
X150766857Y-86340571D01*
X150909714Y-86269143D01*
X151195429Y-86197714D01*
X151409714Y-86197714D01*
X151695429Y-86269143D01*
X151838286Y-86340571D01*
X151981143Y-86483429D01*
X152052571Y-86697714D01*
X152052571Y-87054857D01*
X154602571Y-95983428D02*
X153102571Y-95983428D01*
X153102571Y-95412000D01*
X153174000Y-95269142D01*
X153245429Y-95197714D01*
X153388286Y-95126285D01*
X153602571Y-95126285D01*
X153745429Y-95197714D01*
X153816857Y-95269142D01*
X153888286Y-95412000D01*
X153888286Y-95983428D01*
X154602571Y-94269142D02*
X154531143Y-94412000D01*
X154459714Y-94483428D01*
X154316857Y-94554857D01*
X153888286Y-94554857D01*
X153745429Y-94483428D01*
X153674000Y-94412000D01*
X153602571Y-94269142D01*
X153602571Y-94054857D01*
X153674000Y-93912000D01*
X153745429Y-93840571D01*
X153888286Y-93769142D01*
X154316857Y-93769142D01*
X154459714Y-93840571D01*
X154531143Y-93912000D01*
X154602571Y-94054857D01*
X154602571Y-94269142D01*
X153602571Y-93269142D02*
X154602571Y-92983428D01*
X153888286Y-92697714D01*
X154602571Y-92411999D01*
X153602571Y-92126285D01*
X154531143Y-90983428D02*
X154602571Y-91126285D01*
X154602571Y-91411999D01*
X154531143Y-91554856D01*
X154388286Y-91626285D01*
X153816857Y-91626285D01*
X153674000Y-91554856D01*
X153602571Y-91411999D01*
X153602571Y-91126285D01*
X153674000Y-90983428D01*
X153816857Y-90911999D01*
X153959714Y-90911999D01*
X154102571Y-91626285D01*
X154602571Y-90269142D02*
X153602571Y-90269142D01*
X153888286Y-90269142D02*
X153745429Y-90197714D01*
X153674000Y-90126285D01*
X153602571Y-89983428D01*
X153602571Y-89840571D01*
X153174000Y-87412000D02*
X153102571Y-87554857D01*
X153102571Y-87769143D01*
X153174000Y-87983428D01*
X153316857Y-88126286D01*
X153459714Y-88197714D01*
X153745429Y-88269143D01*
X153959714Y-88269143D01*
X154245429Y-88197714D01*
X154388286Y-88126286D01*
X154531143Y-87983428D01*
X154602571Y-87769143D01*
X154602571Y-87626286D01*
X154531143Y-87412000D01*
X154459714Y-87340571D01*
X153959714Y-87340571D01*
X153959714Y-87626286D01*
X154602571Y-86483428D02*
X154531143Y-86626286D01*
X154459714Y-86697714D01*
X154316857Y-86769143D01*
X153888286Y-86769143D01*
X153745429Y-86697714D01*
X153674000Y-86626286D01*
X153602571Y-86483428D01*
X153602571Y-86269143D01*
X153674000Y-86126286D01*
X153745429Y-86054857D01*
X153888286Y-85983428D01*
X154316857Y-85983428D01*
X154459714Y-86054857D01*
X154531143Y-86126286D01*
X154602571Y-86269143D01*
X154602571Y-86483428D01*
X154602571Y-85126285D02*
X154531143Y-85269143D01*
X154459714Y-85340571D01*
X154316857Y-85412000D01*
X153888286Y-85412000D01*
X153745429Y-85340571D01*
X153674000Y-85269143D01*
X153602571Y-85126285D01*
X153602571Y-84912000D01*
X153674000Y-84769143D01*
X153745429Y-84697714D01*
X153888286Y-84626285D01*
X154316857Y-84626285D01*
X154459714Y-84697714D01*
X154531143Y-84769143D01*
X154602571Y-84912000D01*
X154602571Y-85126285D01*
X154602571Y-83340571D02*
X153102571Y-83340571D01*
X154531143Y-83340571D02*
X154602571Y-83483428D01*
X154602571Y-83769142D01*
X154531143Y-83912000D01*
X154459714Y-83983428D01*
X154316857Y-84054857D01*
X153888286Y-84054857D01*
X153745429Y-83983428D01*
X153674000Y-83912000D01*
X153602571Y-83769142D01*
X153602571Y-83483428D01*
X153674000Y-83340571D01*
X157152571Y-93447714D02*
X155652571Y-93447714D01*
X156724000Y-92947714D01*
X155652571Y-92447714D01*
X157152571Y-92447714D01*
X157152571Y-91519142D02*
X157081143Y-91662000D01*
X157009714Y-91733428D01*
X156866857Y-91804857D01*
X156438286Y-91804857D01*
X156295429Y-91733428D01*
X156224000Y-91662000D01*
X156152571Y-91519142D01*
X156152571Y-91304857D01*
X156224000Y-91162000D01*
X156295429Y-91090571D01*
X156438286Y-91019142D01*
X156866857Y-91019142D01*
X157009714Y-91090571D01*
X157081143Y-91162000D01*
X157152571Y-91304857D01*
X157152571Y-91519142D01*
X156152571Y-90376285D02*
X157152571Y-90376285D01*
X156295429Y-90376285D02*
X156224000Y-90304857D01*
X156152571Y-90161999D01*
X156152571Y-89947714D01*
X156224000Y-89804857D01*
X156366857Y-89733428D01*
X157152571Y-89733428D01*
X157152571Y-89019142D02*
X156152571Y-89019142D01*
X155652571Y-89019142D02*
X155724000Y-89090571D01*
X155795429Y-89019142D01*
X155724000Y-88947714D01*
X155652571Y-89019142D01*
X155795429Y-89019142D01*
X156152571Y-88519142D02*
X156152571Y-87947713D01*
X155652571Y-88304856D02*
X156938286Y-88304856D01*
X157081143Y-88233428D01*
X157152571Y-88090570D01*
X157152571Y-87947713D01*
X157152571Y-87233427D02*
X157081143Y-87376285D01*
X157009714Y-87447713D01*
X156866857Y-87519142D01*
X156438286Y-87519142D01*
X156295429Y-87447713D01*
X156224000Y-87376285D01*
X156152571Y-87233427D01*
X156152571Y-87019142D01*
X156224000Y-86876285D01*
X156295429Y-86804856D01*
X156438286Y-86733427D01*
X156866857Y-86733427D01*
X157009714Y-86804856D01*
X157081143Y-86876285D01*
X157152571Y-87019142D01*
X157152571Y-87233427D01*
X157152571Y-86090570D02*
X156152571Y-86090570D01*
X156438286Y-86090570D02*
X156295429Y-86019142D01*
X156224000Y-85947713D01*
X156152571Y-85804856D01*
X156152571Y-85661999D01*
D12*
X162675715Y-99254571D02*
X163175715Y-100754571D01*
X163675715Y-99254571D01*
X164747143Y-100683143D02*
X164604286Y-100754571D01*
X164318572Y-100754571D01*
X164175715Y-100683143D01*
X164104286Y-100540286D01*
X164104286Y-99968857D01*
X164175715Y-99826000D01*
X164318572Y-99754571D01*
X164604286Y-99754571D01*
X164747143Y-99826000D01*
X164818572Y-99968857D01*
X164818572Y-100111714D01*
X164104286Y-100254571D01*
X165461429Y-100754571D02*
X165461429Y-99754571D01*
X165461429Y-100040286D02*
X165532857Y-99897429D01*
X165604286Y-99826000D01*
X165747143Y-99754571D01*
X165890000Y-99754571D01*
X166390000Y-100611714D02*
X166461428Y-100683143D01*
X166390000Y-100754571D01*
X166318571Y-100683143D01*
X166390000Y-100611714D01*
X166390000Y-100754571D01*
X168247143Y-100754571D02*
X168247143Y-99254571D01*
X168247143Y-99826000D02*
X168390000Y-99754571D01*
X168675714Y-99754571D01*
X168818571Y-99826000D01*
X168890000Y-99897429D01*
X168961429Y-100040286D01*
X168961429Y-100468857D01*
X168890000Y-100611714D01*
X168818571Y-100683143D01*
X168675714Y-100754571D01*
X168390000Y-100754571D01*
X168247143Y-100683143D01*
X170175714Y-100683143D02*
X170032857Y-100754571D01*
X169747143Y-100754571D01*
X169604286Y-100683143D01*
X169532857Y-100540286D01*
X169532857Y-99968857D01*
X169604286Y-99826000D01*
X169747143Y-99754571D01*
X170032857Y-99754571D01*
X170175714Y-99826000D01*
X170247143Y-99968857D01*
X170247143Y-100111714D01*
X169532857Y-100254571D01*
X170675714Y-99754571D02*
X171247143Y-99754571D01*
X170890000Y-99254571D02*
X170890000Y-100540286D01*
X170961428Y-100683143D01*
X171104286Y-100754571D01*
X171247143Y-100754571D01*
X172390000Y-100754571D02*
X172390000Y-99968857D01*
X172318571Y-99826000D01*
X172175714Y-99754571D01*
X171890000Y-99754571D01*
X171747143Y-99826000D01*
X172390000Y-100683143D02*
X172247143Y-100754571D01*
X171890000Y-100754571D01*
X171747143Y-100683143D01*
X171675714Y-100540286D01*
X171675714Y-100397429D01*
X171747143Y-100254571D01*
X171890000Y-100183143D01*
X172247143Y-100183143D01*
X172390000Y-100111714D01*
D13*
X134747000Y-114046000D02*
G75*
G03X134747000Y-114046000I-127000J0D01*
G01*
D11*
X138874572Y-83673143D02*
X140017429Y-83673143D01*
X143954572Y-83673143D02*
X145097429Y-83673143D01*
X144526000Y-84244571D02*
X144526000Y-83101714D01*
D12*
X134603964Y-92138499D02*
X134658393Y-92192928D01*
X134712821Y-92356214D01*
X134712821Y-92465071D01*
X134658393Y-92628356D01*
X134549536Y-92737214D01*
X134440679Y-92791642D01*
X134222964Y-92846071D01*
X134059679Y-92846071D01*
X133841964Y-92791642D01*
X133733107Y-92737214D01*
X133624250Y-92628356D01*
X133569821Y-92465071D01*
X133569821Y-92356214D01*
X133624250Y-92192928D01*
X133678679Y-92138499D01*
X134712821Y-91485356D02*
X134658393Y-91594214D01*
X134603964Y-91648642D01*
X134495107Y-91703071D01*
X134168536Y-91703071D01*
X134059679Y-91648642D01*
X134005250Y-91594214D01*
X133950821Y-91485356D01*
X133950821Y-91322071D01*
X134005250Y-91213214D01*
X134059679Y-91158785D01*
X134168536Y-91104356D01*
X134495107Y-91104356D01*
X134603964Y-91158785D01*
X134658393Y-91213214D01*
X134712821Y-91322071D01*
X134712821Y-91485356D01*
X133950821Y-90723356D02*
X134712821Y-90451213D01*
X133950821Y-90179071D01*
X134658393Y-89308214D02*
X134712821Y-89417071D01*
X134712821Y-89634785D01*
X134658393Y-89743642D01*
X134549536Y-89798071D01*
X134114107Y-89798071D01*
X134005250Y-89743642D01*
X133950821Y-89634785D01*
X133950821Y-89417071D01*
X134005250Y-89308214D01*
X134114107Y-89253785D01*
X134222964Y-89253785D01*
X134331821Y-89798071D01*
X134712821Y-88763928D02*
X133950821Y-88763928D01*
X134168536Y-88763928D02*
X134059679Y-88709500D01*
X134005250Y-88655071D01*
X133950821Y-88546214D01*
X133950821Y-88437357D01*
X134712821Y-87185500D02*
X133950821Y-87185500D01*
X133569821Y-87185500D02*
X133624250Y-87239929D01*
X133678679Y-87185500D01*
X133624250Y-87131072D01*
X133569821Y-87185500D01*
X133678679Y-87185500D01*
X133950821Y-86804500D02*
X133950821Y-86369071D01*
X134712821Y-86641214D02*
X133733107Y-86641214D01*
X133624250Y-86586786D01*
X133569821Y-86477928D01*
X133569821Y-86369071D01*
X135815321Y-91920786D02*
X136577321Y-91920786D01*
X135815321Y-92410643D02*
X136414036Y-92410643D01*
X136522893Y-92356215D01*
X136577321Y-92247357D01*
X136577321Y-92084072D01*
X136522893Y-91975215D01*
X136468464Y-91920786D01*
X135815321Y-91376500D02*
X136577321Y-91376500D01*
X135924179Y-91376500D02*
X135869750Y-91322072D01*
X135815321Y-91213214D01*
X135815321Y-91049929D01*
X135869750Y-90941072D01*
X135978607Y-90886643D01*
X136577321Y-90886643D01*
X135815321Y-89852500D02*
X136577321Y-89852500D01*
X135815321Y-90342357D02*
X136414036Y-90342357D01*
X136522893Y-90287929D01*
X136577321Y-90179071D01*
X136577321Y-90015786D01*
X136522893Y-89906929D01*
X136468464Y-89852500D01*
X136522893Y-89362643D02*
X136577321Y-89253786D01*
X136577321Y-89036071D01*
X136522893Y-88927214D01*
X136414036Y-88872786D01*
X136359607Y-88872786D01*
X136250750Y-88927214D01*
X136196321Y-89036071D01*
X136196321Y-89199357D01*
X136141893Y-89308214D01*
X136033036Y-89362643D01*
X135978607Y-89362643D01*
X135869750Y-89308214D01*
X135815321Y-89199357D01*
X135815321Y-89036071D01*
X135869750Y-88927214D01*
X136522893Y-87947500D02*
X136577321Y-88056357D01*
X136577321Y-88274071D01*
X136522893Y-88382928D01*
X136414036Y-88437357D01*
X135978607Y-88437357D01*
X135869750Y-88382928D01*
X135815321Y-88274071D01*
X135815321Y-88056357D01*
X135869750Y-87947500D01*
X135978607Y-87893071D01*
X136087464Y-87893071D01*
X136196321Y-88437357D01*
X136577321Y-86913357D02*
X135434321Y-86913357D01*
X136522893Y-86913357D02*
X136577321Y-87022214D01*
X136577321Y-87239928D01*
X136522893Y-87348786D01*
X136468464Y-87403214D01*
X136359607Y-87457643D01*
X136033036Y-87457643D01*
X135924179Y-87403214D01*
X135869750Y-87348786D01*
X135815321Y-87239928D01*
X135815321Y-87022214D01*
X135869750Y-86913357D01*
D14*
X148407429Y-95011905D02*
X148407429Y-94250000D01*
X148788381Y-94630952D02*
X148026476Y-94630952D01*
X147788381Y-93297619D02*
X147788381Y-93773810D01*
X148264571Y-93821429D01*
X148216952Y-93773810D01*
X148169333Y-93678572D01*
X148169333Y-93440476D01*
X148216952Y-93345238D01*
X148264571Y-93297619D01*
X148359810Y-93250000D01*
X148597905Y-93250000D01*
X148693143Y-93297619D01*
X148740762Y-93345238D01*
X148788381Y-93440476D01*
X148788381Y-93678572D01*
X148740762Y-93773810D01*
X148693143Y-93821429D01*
X147788381Y-92964286D02*
X148788381Y-92630953D01*
X147788381Y-92297619D01*
X148216952Y-91202381D02*
X148216952Y-90440476D01*
X148597905Y-90821428D02*
X147836000Y-90821428D01*
X148788381Y-90440476D02*
X148788381Y-91202381D01*
X147788381Y-89488095D02*
X147788381Y-89964286D01*
X148264571Y-90011905D01*
X148216952Y-89964286D01*
X148169333Y-89869048D01*
X148169333Y-89630952D01*
X148216952Y-89535714D01*
X148264571Y-89488095D01*
X148359810Y-89440476D01*
X148597905Y-89440476D01*
X148693143Y-89488095D01*
X148740762Y-89535714D01*
X148788381Y-89630952D01*
X148788381Y-89869048D01*
X148740762Y-89964286D01*
X148693143Y-90011905D01*
X148788381Y-89059524D02*
X147788381Y-88297619D01*
X147788381Y-88916667D02*
X147836000Y-88821429D01*
X147931238Y-88773810D01*
X148026476Y-88821429D01*
X148074095Y-88916667D01*
X148026476Y-89011905D01*
X147931238Y-89059524D01*
X147836000Y-89011905D01*
X147788381Y-88916667D01*
X148740762Y-88345238D02*
X148645524Y-88297619D01*
X148550286Y-88345238D01*
X148502667Y-88440476D01*
X148550286Y-88535714D01*
X148645524Y-88583333D01*
X148740762Y-88535714D01*
X148788381Y-88440476D01*
X148740762Y-88345238D01*
X147788381Y-86916667D02*
X147788381Y-86726190D01*
X147836000Y-86630952D01*
X147931238Y-86535714D01*
X148121714Y-86488095D01*
X148455048Y-86488095D01*
X148645524Y-86535714D01*
X148740762Y-86630952D01*
X148788381Y-86726190D01*
X148788381Y-86916667D01*
X148740762Y-87011905D01*
X148645524Y-87107143D01*
X148455048Y-87154762D01*
X148121714Y-87154762D01*
X147931238Y-87107143D01*
X147836000Y-87011905D01*
X147788381Y-86916667D01*
X148121714Y-86059524D02*
X148788381Y-86059524D01*
X148216952Y-86059524D02*
X148169333Y-86011905D01*
X148121714Y-85916667D01*
X148121714Y-85773809D01*
X148169333Y-85678571D01*
X148264571Y-85630952D01*
X148788381Y-85630952D01*
X148788381Y-85011905D02*
X148740762Y-85107143D01*
X148645524Y-85154762D01*
X147788381Y-85154762D01*
X148121714Y-84726190D02*
X148788381Y-84488095D01*
X148121714Y-84249999D02*
X148788381Y-84488095D01*
X149026476Y-84583333D01*
X149074095Y-84630952D01*
X149121714Y-84726190D01*
D12*
X160003964Y-91884499D02*
X160058393Y-91938928D01*
X160112821Y-92102214D01*
X160112821Y-92211071D01*
X160058393Y-92374356D01*
X159949536Y-92483214D01*
X159840679Y-92537642D01*
X159622964Y-92592071D01*
X159459679Y-92592071D01*
X159241964Y-92537642D01*
X159133107Y-92483214D01*
X159024250Y-92374356D01*
X158969821Y-92211071D01*
X158969821Y-92102214D01*
X159024250Y-91938928D01*
X159078679Y-91884499D01*
X160112821Y-91231356D02*
X160058393Y-91340214D01*
X160003964Y-91394642D01*
X159895107Y-91449071D01*
X159568536Y-91449071D01*
X159459679Y-91394642D01*
X159405250Y-91340214D01*
X159350821Y-91231356D01*
X159350821Y-91068071D01*
X159405250Y-90959214D01*
X159459679Y-90904785D01*
X159568536Y-90850356D01*
X159895107Y-90850356D01*
X160003964Y-90904785D01*
X160058393Y-90959214D01*
X160112821Y-91068071D01*
X160112821Y-91231356D01*
X159350821Y-90469356D02*
X160112821Y-90197213D01*
X159350821Y-89925071D01*
X160058393Y-89054214D02*
X160112821Y-89163071D01*
X160112821Y-89380785D01*
X160058393Y-89489642D01*
X159949536Y-89544071D01*
X159514107Y-89544071D01*
X159405250Y-89489642D01*
X159350821Y-89380785D01*
X159350821Y-89163071D01*
X159405250Y-89054214D01*
X159514107Y-88999785D01*
X159622964Y-88999785D01*
X159731821Y-89544071D01*
X160112821Y-88509928D02*
X159350821Y-88509928D01*
X159568536Y-88509928D02*
X159459679Y-88455500D01*
X159405250Y-88401071D01*
X159350821Y-88292214D01*
X159350821Y-88183357D01*
X160112821Y-86931500D02*
X159350821Y-86931500D01*
X158969821Y-86931500D02*
X159024250Y-86985929D01*
X159078679Y-86931500D01*
X159024250Y-86877072D01*
X158969821Y-86931500D01*
X159078679Y-86931500D01*
X159350821Y-86550500D02*
X159350821Y-86115071D01*
X160112821Y-86387214D02*
X159133107Y-86387214D01*
X159024250Y-86332786D01*
X158969821Y-86223928D01*
X158969821Y-86115071D01*
X161215321Y-91666786D02*
X161977321Y-91666786D01*
X161215321Y-92156643D02*
X161814036Y-92156643D01*
X161922893Y-92102215D01*
X161977321Y-91993357D01*
X161977321Y-91830072D01*
X161922893Y-91721215D01*
X161868464Y-91666786D01*
X161215321Y-91122500D02*
X161977321Y-91122500D01*
X161324179Y-91122500D02*
X161269750Y-91068072D01*
X161215321Y-90959214D01*
X161215321Y-90795929D01*
X161269750Y-90687072D01*
X161378607Y-90632643D01*
X161977321Y-90632643D01*
X161215321Y-89598500D02*
X161977321Y-89598500D01*
X161215321Y-90088357D02*
X161814036Y-90088357D01*
X161922893Y-90033929D01*
X161977321Y-89925071D01*
X161977321Y-89761786D01*
X161922893Y-89652929D01*
X161868464Y-89598500D01*
X161922893Y-89108643D02*
X161977321Y-88999786D01*
X161977321Y-88782071D01*
X161922893Y-88673214D01*
X161814036Y-88618786D01*
X161759607Y-88618786D01*
X161650750Y-88673214D01*
X161596321Y-88782071D01*
X161596321Y-88945357D01*
X161541893Y-89054214D01*
X161433036Y-89108643D01*
X161378607Y-89108643D01*
X161269750Y-89054214D01*
X161215321Y-88945357D01*
X161215321Y-88782071D01*
X161269750Y-88673214D01*
X161922893Y-87693500D02*
X161977321Y-87802357D01*
X161977321Y-88020071D01*
X161922893Y-88128928D01*
X161814036Y-88183357D01*
X161378607Y-88183357D01*
X161269750Y-88128928D01*
X161215321Y-88020071D01*
X161215321Y-87802357D01*
X161269750Y-87693500D01*
X161378607Y-87639071D01*
X161487464Y-87639071D01*
X161596321Y-88183357D01*
X161977321Y-86659357D02*
X160834321Y-86659357D01*
X161922893Y-86659357D02*
X161977321Y-86768214D01*
X161977321Y-86985928D01*
X161922893Y-87094786D01*
X161868464Y-87149214D01*
X161759607Y-87203643D01*
X161433036Y-87203643D01*
X161324179Y-87149214D01*
X161269750Y-87094786D01*
X161215321Y-86985928D01*
X161215321Y-86768214D01*
X161269750Y-86659357D01*
D11*
X134302572Y-94341143D02*
X135445429Y-94341143D01*
X134302572Y-84689143D02*
X135445429Y-84689143D01*
X134874000Y-85260571D02*
X134874000Y-84117714D01*
X159956572Y-94341143D02*
X161099429Y-94341143D01*
X159956572Y-84689143D02*
X161099429Y-84689143D01*
X160528000Y-85260571D02*
X160528000Y-84117714D01*
D15*
X155826000Y-99384000D02*
X155826000Y-101784000D01*
X158626000Y-99384000D02*
X158626000Y-101784000D01*
X153090000Y-104494000D02*
X151590000Y-104494000D01*
X151590000Y-104494000D02*
X151590000Y-104764000D01*
X151590000Y-104764000D02*
X148760000Y-104764000D01*
X153090000Y-111394000D02*
X151590000Y-111394000D01*
X151590000Y-111394000D02*
X151590000Y-111124000D01*
X151590000Y-111124000D02*
X150490000Y-111124000D01*
X141076000Y-101808000D02*
X141076000Y-103308000D01*
X141076000Y-103308000D02*
X141346000Y-103308000D01*
X141346000Y-103308000D02*
X141346000Y-106138000D01*
X147976000Y-101808000D02*
X147976000Y-103308000D01*
X147976000Y-103308000D02*
X147706000Y-103308000D01*
X147706000Y-103308000D02*
X147706000Y-104408000D01*
D12*
X142127600Y-85409600D02*
X142127600Y-84909600D01*
X141627600Y-89409600D02*
G75*
G03X141627600Y-89409600I-2000000J0D01*
G01*
X146627600Y-89409600D02*
G75*
G03X146627600Y-89409600I-2000000J0D01*
G01*
X147127600Y-86909600D02*
X137127600Y-86909600D01*
X147127600Y-91809600D02*
X137127600Y-91809600D01*
X147127600Y-85409600D02*
X137127600Y-85409600D01*
X147127600Y-84909600D02*
X137127600Y-84909600D01*
X137127600Y-84909600D02*
X137127600Y-94709600D01*
X137127600Y-94709600D02*
X147127600Y-94709600D01*
X147127600Y-94709600D02*
X147127600Y-84909600D01*
D16*
G36*
X150671654Y-127152364D02*
X150672155Y-127167820D01*
X150671881Y-127180867D01*
X150670272Y-127193341D01*
X150666768Y-127207078D01*
X150660806Y-127223914D01*
X150651828Y-127245686D01*
X150639271Y-127274230D01*
X150624188Y-127307803D01*
X150609530Y-127339158D01*
X150597892Y-127361167D01*
X150588506Y-127375118D01*
X150580603Y-127382299D01*
X150579377Y-127382928D01*
X150572402Y-127385757D01*
X150563105Y-127388790D01*
X150550511Y-127392238D01*
X150533642Y-127396309D01*
X150511523Y-127401216D01*
X150483177Y-127407166D01*
X150447629Y-127414371D01*
X150403903Y-127423041D01*
X150351021Y-127433385D01*
X150288978Y-127445427D01*
X150241326Y-127454702D01*
X150196410Y-127463539D01*
X150155620Y-127471659D01*
X150120351Y-127478779D01*
X150091991Y-127484620D01*
X150071935Y-127488899D01*
X150061573Y-127491336D01*
X150061568Y-127491337D01*
X150040181Y-127497364D01*
X150041813Y-127747750D01*
X150042223Y-127799838D01*
X150042743Y-127848403D01*
X150043351Y-127892292D01*
X150044023Y-127930349D01*
X150044737Y-127961420D01*
X150045471Y-127984352D01*
X150046204Y-127997988D01*
X150046722Y-128001409D01*
X150053265Y-128003778D01*
X150070013Y-128007939D01*
X150097099Y-128013919D01*
X150134655Y-128021746D01*
X150182813Y-128031447D01*
X150241705Y-128043048D01*
X150311464Y-128056577D01*
X150381447Y-128070003D01*
X150423683Y-128078247D01*
X150462957Y-128086245D01*
X150497712Y-128093652D01*
X150526391Y-128100127D01*
X150547435Y-128105326D01*
X150559288Y-128108905D01*
X150560537Y-128109457D01*
X150568225Y-128115212D01*
X150576664Y-128125373D01*
X150586316Y-128140868D01*
X150597642Y-128162625D01*
X150611104Y-128191572D01*
X150627165Y-128228638D01*
X150646287Y-128274751D01*
X150661508Y-128312334D01*
X150685614Y-128372699D01*
X150705500Y-128423491D01*
X150721444Y-128465491D01*
X150733721Y-128499480D01*
X150742606Y-128526239D01*
X150748377Y-128546550D01*
X150751308Y-128561196D01*
X150751822Y-128568034D01*
X150750829Y-128577875D01*
X150747489Y-128589641D01*
X150741261Y-128604253D01*
X150731603Y-128622635D01*
X150717975Y-128645709D01*
X150699834Y-128674398D01*
X150676641Y-128709624D01*
X150647853Y-128752311D01*
X150618729Y-128794934D01*
X150594319Y-128830533D01*
X150569746Y-128866406D01*
X150546470Y-128900422D01*
X150525949Y-128930447D01*
X150509640Y-128954352D01*
X150503587Y-128963245D01*
X150467833Y-129015845D01*
X150509595Y-129059200D01*
X150546908Y-129097766D01*
X150585372Y-129137209D01*
X150623865Y-129176404D01*
X150661263Y-129214222D01*
X150696444Y-129249538D01*
X150728285Y-129281223D01*
X150755663Y-129308151D01*
X150777456Y-129329194D01*
X150792498Y-129343189D01*
X150830352Y-129377037D01*
X151018276Y-129250414D01*
X151074460Y-129212679D01*
X151121958Y-129181059D01*
X151161332Y-129155196D01*
X151193148Y-129134734D01*
X151217969Y-129119318D01*
X151236359Y-129108590D01*
X151248882Y-129102195D01*
X151256102Y-129099775D01*
X151256775Y-129099734D01*
X151258720Y-129104670D01*
X151259369Y-129116694D01*
X151259342Y-129118078D01*
X151258858Y-129123236D01*
X151257072Y-129128312D01*
X151253054Y-129134029D01*
X151245874Y-129141112D01*
X151234601Y-129150287D01*
X151218305Y-129162277D01*
X151196056Y-129177806D01*
X151166924Y-129197600D01*
X151129978Y-129222383D01*
X151098100Y-129243667D01*
X151038762Y-129283217D01*
X150988166Y-129316858D01*
X150945693Y-129344991D01*
X150910724Y-129368018D01*
X150882642Y-129386341D01*
X150860828Y-129400360D01*
X150844662Y-129410477D01*
X150833527Y-129417095D01*
X150826803Y-129420613D01*
X150824128Y-129421467D01*
X150818709Y-129417759D01*
X150806500Y-129407442D01*
X150788857Y-129391722D01*
X150767136Y-129371809D01*
X150742690Y-129348909D01*
X150741830Y-129348096D01*
X150717859Y-129325053D01*
X150690246Y-129297927D01*
X150659964Y-129267726D01*
X150627987Y-129235461D01*
X150595288Y-129202141D01*
X150562839Y-129168774D01*
X150531614Y-129136372D01*
X150502586Y-129105943D01*
X150476728Y-129078497D01*
X150455012Y-129055044D01*
X150438413Y-129036592D01*
X150427903Y-129024152D01*
X150424445Y-129018823D01*
X150427493Y-129012562D01*
X150436034Y-128998407D01*
X150449168Y-128977764D01*
X150465989Y-128952041D01*
X150485597Y-128922644D01*
X150496411Y-128906644D01*
X150541821Y-128839664D01*
X150581154Y-128781455D01*
X150614748Y-128731499D01*
X150642942Y-128689279D01*
X150666075Y-128654278D01*
X150684484Y-128625977D01*
X150698509Y-128603858D01*
X150708487Y-128587405D01*
X150714758Y-128576099D01*
X150717659Y-128569424D01*
X150717956Y-128567792D01*
X150715830Y-128558124D01*
X150709847Y-128539547D01*
X150700595Y-128513527D01*
X150688666Y-128481530D01*
X150674649Y-128445024D01*
X150659135Y-128405474D01*
X150642713Y-128364347D01*
X150625973Y-128323109D01*
X150609506Y-128283227D01*
X150593902Y-128246167D01*
X150579750Y-128213396D01*
X150567641Y-128186380D01*
X150558164Y-128166585D01*
X150552241Y-128155956D01*
X150550032Y-128152270D01*
X150548297Y-128149139D01*
X150546226Y-128146370D01*
X150543013Y-128143770D01*
X150537850Y-128141148D01*
X150529928Y-128138310D01*
X150518441Y-128135064D01*
X150502580Y-128131217D01*
X150481538Y-128126577D01*
X150454507Y-128120951D01*
X150420680Y-128114147D01*
X150379248Y-128105972D01*
X150329404Y-128096233D01*
X150270340Y-128084737D01*
X150201248Y-128071293D01*
X150178911Y-128066942D01*
X150137434Y-128058634D01*
X150099894Y-128050681D01*
X150067736Y-128043421D01*
X150042402Y-128037191D01*
X150025333Y-128032330D01*
X150018045Y-128029248D01*
X150015872Y-128021702D01*
X150013904Y-128004251D01*
X150012150Y-127978242D01*
X150010618Y-127945020D01*
X150009317Y-127905931D01*
X150008257Y-127862321D01*
X150007445Y-127815536D01*
X150006890Y-127766921D01*
X150006603Y-127717821D01*
X150006590Y-127669584D01*
X150006862Y-127623554D01*
X150007427Y-127581077D01*
X150008294Y-127543499D01*
X150009471Y-127512166D01*
X150010968Y-127488423D01*
X150012793Y-127473617D01*
X150014370Y-127469196D01*
X150022701Y-127465851D01*
X150041506Y-127460689D01*
X150070140Y-127453846D01*
X150107957Y-127445463D01*
X150154314Y-127435676D01*
X150208565Y-127424625D01*
X150270067Y-127412447D01*
X150338173Y-127399282D01*
X150356711Y-127395747D01*
X150393165Y-127388704D01*
X150430815Y-127381242D01*
X150466082Y-127374081D01*
X150495382Y-127367944D01*
X150505327Y-127365784D01*
X150560810Y-127353533D01*
X150579142Y-127316467D01*
X150587937Y-127297983D01*
X150599829Y-127272011D01*
X150613509Y-127241459D01*
X150627668Y-127209232D01*
X150633726Y-127195239D01*
X150669978Y-127111077D01*
X150671654Y-127152364D01*
X150671654Y-127152364D01*
G37*
X150671654Y-127152364D02*
X150672155Y-127167820D01*
X150671881Y-127180867D01*
X150670272Y-127193341D01*
X150666768Y-127207078D01*
X150660806Y-127223914D01*
X150651828Y-127245686D01*
X150639271Y-127274230D01*
X150624188Y-127307803D01*
X150609530Y-127339158D01*
X150597892Y-127361167D01*
X150588506Y-127375118D01*
X150580603Y-127382299D01*
X150579377Y-127382928D01*
X150572402Y-127385757D01*
X150563105Y-127388790D01*
X150550511Y-127392238D01*
X150533642Y-127396309D01*
X150511523Y-127401216D01*
X150483177Y-127407166D01*
X150447629Y-127414371D01*
X150403903Y-127423041D01*
X150351021Y-127433385D01*
X150288978Y-127445427D01*
X150241326Y-127454702D01*
X150196410Y-127463539D01*
X150155620Y-127471659D01*
X150120351Y-127478779D01*
X150091991Y-127484620D01*
X150071935Y-127488899D01*
X150061573Y-127491336D01*
X150061568Y-127491337D01*
X150040181Y-127497364D01*
X150041813Y-127747750D01*
X150042223Y-127799838D01*
X150042743Y-127848403D01*
X150043351Y-127892292D01*
X150044023Y-127930349D01*
X150044737Y-127961420D01*
X150045471Y-127984352D01*
X150046204Y-127997988D01*
X150046722Y-128001409D01*
X150053265Y-128003778D01*
X150070013Y-128007939D01*
X150097099Y-128013919D01*
X150134655Y-128021746D01*
X150182813Y-128031447D01*
X150241705Y-128043048D01*
X150311464Y-128056577D01*
X150381447Y-128070003D01*
X150423683Y-128078247D01*
X150462957Y-128086245D01*
X150497712Y-128093652D01*
X150526391Y-128100127D01*
X150547435Y-128105326D01*
X150559288Y-128108905D01*
X150560537Y-128109457D01*
X150568225Y-128115212D01*
X150576664Y-128125373D01*
X150586316Y-128140868D01*
X150597642Y-128162625D01*
X150611104Y-128191572D01*
X150627165Y-128228638D01*
X150646287Y-128274751D01*
X150661508Y-128312334D01*
X150685614Y-128372699D01*
X150705500Y-128423491D01*
X150721444Y-128465491D01*
X150733721Y-128499480D01*
X150742606Y-128526239D01*
X150748377Y-128546550D01*
X150751308Y-128561196D01*
X150751822Y-128568034D01*
X150750829Y-128577875D01*
X150747489Y-128589641D01*
X150741261Y-128604253D01*
X150731603Y-128622635D01*
X150717975Y-128645709D01*
X150699834Y-128674398D01*
X150676641Y-128709624D01*
X150647853Y-128752311D01*
X150618729Y-128794934D01*
X150594319Y-128830533D01*
X150569746Y-128866406D01*
X150546470Y-128900422D01*
X150525949Y-128930447D01*
X150509640Y-128954352D01*
X150503587Y-128963245D01*
X150467833Y-129015845D01*
X150509595Y-129059200D01*
X150546908Y-129097766D01*
X150585372Y-129137209D01*
X150623865Y-129176404D01*
X150661263Y-129214222D01*
X150696444Y-129249538D01*
X150728285Y-129281223D01*
X150755663Y-129308151D01*
X150777456Y-129329194D01*
X150792498Y-129343189D01*
X150830352Y-129377037D01*
X151018276Y-129250414D01*
X151074460Y-129212679D01*
X151121958Y-129181059D01*
X151161332Y-129155196D01*
X151193148Y-129134734D01*
X151217969Y-129119318D01*
X151236359Y-129108590D01*
X151248882Y-129102195D01*
X151256102Y-129099775D01*
X151256775Y-129099734D01*
X151258720Y-129104670D01*
X151259369Y-129116694D01*
X151259342Y-129118078D01*
X151258858Y-129123236D01*
X151257072Y-129128312D01*
X151253054Y-129134029D01*
X151245874Y-129141112D01*
X151234601Y-129150287D01*
X151218305Y-129162277D01*
X151196056Y-129177806D01*
X151166924Y-129197600D01*
X151129978Y-129222383D01*
X151098100Y-129243667D01*
X151038762Y-129283217D01*
X150988166Y-129316858D01*
X150945693Y-129344991D01*
X150910724Y-129368018D01*
X150882642Y-129386341D01*
X150860828Y-129400360D01*
X150844662Y-129410477D01*
X150833527Y-129417095D01*
X150826803Y-129420613D01*
X150824128Y-129421467D01*
X150818709Y-129417759D01*
X150806500Y-129407442D01*
X150788857Y-129391722D01*
X150767136Y-129371809D01*
X150742690Y-129348909D01*
X150741830Y-129348096D01*
X150717859Y-129325053D01*
X150690246Y-129297927D01*
X150659964Y-129267726D01*
X150627987Y-129235461D01*
X150595288Y-129202141D01*
X150562839Y-129168774D01*
X150531614Y-129136372D01*
X150502586Y-129105943D01*
X150476728Y-129078497D01*
X150455012Y-129055044D01*
X150438413Y-129036592D01*
X150427903Y-129024152D01*
X150424445Y-129018823D01*
X150427493Y-129012562D01*
X150436034Y-128998407D01*
X150449168Y-128977764D01*
X150465989Y-128952041D01*
X150485597Y-128922644D01*
X150496411Y-128906644D01*
X150541821Y-128839664D01*
X150581154Y-128781455D01*
X150614748Y-128731499D01*
X150642942Y-128689279D01*
X150666075Y-128654278D01*
X150684484Y-128625977D01*
X150698509Y-128603858D01*
X150708487Y-128587405D01*
X150714758Y-128576099D01*
X150717659Y-128569424D01*
X150717956Y-128567792D01*
X150715830Y-128558124D01*
X150709847Y-128539547D01*
X150700595Y-128513527D01*
X150688666Y-128481530D01*
X150674649Y-128445024D01*
X150659135Y-128405474D01*
X150642713Y-128364347D01*
X150625973Y-128323109D01*
X150609506Y-128283227D01*
X150593902Y-128246167D01*
X150579750Y-128213396D01*
X150567641Y-128186380D01*
X150558164Y-128166585D01*
X150552241Y-128155956D01*
X150550032Y-128152270D01*
X150548297Y-128149139D01*
X150546226Y-128146370D01*
X150543013Y-128143770D01*
X150537850Y-128141148D01*
X150529928Y-128138310D01*
X150518441Y-128135064D01*
X150502580Y-128131217D01*
X150481538Y-128126577D01*
X150454507Y-128120951D01*
X150420680Y-128114147D01*
X150379248Y-128105972D01*
X150329404Y-128096233D01*
X150270340Y-128084737D01*
X150201248Y-128071293D01*
X150178911Y-128066942D01*
X150137434Y-128058634D01*
X150099894Y-128050681D01*
X150067736Y-128043421D01*
X150042402Y-128037191D01*
X150025333Y-128032330D01*
X150018045Y-128029248D01*
X150015872Y-128021702D01*
X150013904Y-128004251D01*
X150012150Y-127978242D01*
X150010618Y-127945020D01*
X150009317Y-127905931D01*
X150008257Y-127862321D01*
X150007445Y-127815536D01*
X150006890Y-127766921D01*
X150006603Y-127717821D01*
X150006590Y-127669584D01*
X150006862Y-127623554D01*
X150007427Y-127581077D01*
X150008294Y-127543499D01*
X150009471Y-127512166D01*
X150010968Y-127488423D01*
X150012793Y-127473617D01*
X150014370Y-127469196D01*
X150022701Y-127465851D01*
X150041506Y-127460689D01*
X150070140Y-127453846D01*
X150107957Y-127445463D01*
X150154314Y-127435676D01*
X150208565Y-127424625D01*
X150270067Y-127412447D01*
X150338173Y-127399282D01*
X150356711Y-127395747D01*
X150393165Y-127388704D01*
X150430815Y-127381242D01*
X150466082Y-127374081D01*
X150495382Y-127367944D01*
X150505327Y-127365784D01*
X150560810Y-127353533D01*
X150579142Y-127316467D01*
X150587937Y-127297983D01*
X150599829Y-127272011D01*
X150613509Y-127241459D01*
X150627668Y-127209232D01*
X150633726Y-127195239D01*
X150669978Y-127111077D01*
X150671654Y-127152364D01*
G36*
X153553488Y-127180622D02*
X153573908Y-127227426D01*
X153590503Y-127264900D01*
X153603830Y-127294117D01*
X153614446Y-127316151D01*
X153622908Y-127332077D01*
X153629772Y-127342968D01*
X153635596Y-127349897D01*
X153640936Y-127353939D01*
X153644130Y-127355421D01*
X153653083Y-127357814D01*
X153671663Y-127362013D01*
X153698408Y-127367713D01*
X153731856Y-127374612D01*
X153770543Y-127382406D01*
X153813008Y-127390790D01*
X153834997Y-127395070D01*
X153906565Y-127408997D01*
X153967783Y-127421068D01*
X154019404Y-127431453D01*
X154062182Y-127440325D01*
X154096873Y-127447853D01*
X154124231Y-127454210D01*
X154145010Y-127459566D01*
X154159965Y-127464093D01*
X154169850Y-127467961D01*
X154175419Y-127471342D01*
X154176589Y-127472573D01*
X154178350Y-127477558D01*
X154179817Y-127487956D01*
X154181012Y-127504554D01*
X154181956Y-127528138D01*
X154182668Y-127559495D01*
X154183171Y-127599411D01*
X154183484Y-127648671D01*
X154183629Y-127708062D01*
X154183645Y-127739796D01*
X154183569Y-127793303D01*
X154183352Y-127843824D01*
X154183010Y-127890136D01*
X154182559Y-127931017D01*
X154182013Y-127965246D01*
X154181389Y-127991599D01*
X154180702Y-128008856D01*
X154180123Y-128015265D01*
X154178853Y-128021274D01*
X154176905Y-128026179D01*
X154173056Y-128030366D01*
X154166082Y-128034223D01*
X154154761Y-128038137D01*
X154137871Y-128042494D01*
X154114187Y-128047682D01*
X154082488Y-128054087D01*
X154041550Y-128062097D01*
X154017134Y-128066845D01*
X153940019Y-128081898D01*
X153873472Y-128095015D01*
X153816961Y-128106308D01*
X153769952Y-128115887D01*
X153731913Y-128123866D01*
X153702310Y-128130354D01*
X153680610Y-128135465D01*
X153666280Y-128139310D01*
X153659039Y-128141877D01*
X153652918Y-128145882D01*
X153646535Y-128152684D01*
X153639382Y-128163320D01*
X153630948Y-128178824D01*
X153620726Y-128200232D01*
X153608207Y-128228579D01*
X153592881Y-128264902D01*
X153574241Y-128310236D01*
X153564206Y-128334911D01*
X153539002Y-128397578D01*
X153518305Y-128450234D01*
X153502010Y-128493169D01*
X153490009Y-128526675D01*
X153482196Y-128551043D01*
X153478465Y-128566565D01*
X153478089Y-128570642D01*
X153481157Y-128577710D01*
X153489941Y-128593127D01*
X153503814Y-128615904D01*
X153522148Y-128645052D01*
X153544315Y-128679583D01*
X153569686Y-128718507D01*
X153597635Y-128760836D01*
X153623215Y-128799151D01*
X153657177Y-128849801D01*
X153685338Y-128891934D01*
X153708201Y-128926398D01*
X153726270Y-128954041D01*
X153740048Y-128975712D01*
X153750040Y-128992257D01*
X153756747Y-129004524D01*
X153760675Y-129013361D01*
X153762326Y-129019617D01*
X153762204Y-129024138D01*
X153760813Y-129027772D01*
X153759922Y-129029320D01*
X153752204Y-129039494D01*
X153737792Y-129056019D01*
X153717641Y-129077945D01*
X153692705Y-129104318D01*
X153663939Y-129134187D01*
X153632297Y-129166599D01*
X153598732Y-129200604D01*
X153564201Y-129235248D01*
X153529656Y-129269580D01*
X153496053Y-129302648D01*
X153464344Y-129333500D01*
X153435486Y-129361184D01*
X153410432Y-129384748D01*
X153390137Y-129403240D01*
X153375554Y-129415707D01*
X153367639Y-129421199D01*
X153366896Y-129421377D01*
X153361377Y-129418308D01*
X153347521Y-129409585D01*
X153326344Y-129395877D01*
X153298863Y-129377851D01*
X153266094Y-129356176D01*
X153229053Y-129331518D01*
X153188756Y-129304546D01*
X153173289Y-129294156D01*
X153130821Y-129265673D01*
X153090190Y-129238552D01*
X153052595Y-129213585D01*
X153019239Y-129191566D01*
X152991323Y-129173286D01*
X152970048Y-129159537D01*
X152956615Y-129151112D01*
X152954567Y-129149898D01*
X152937590Y-129139240D01*
X152928577Y-129130632D01*
X152925217Y-129121450D01*
X152924934Y-129116253D01*
X152925299Y-129109065D01*
X152926874Y-129103832D01*
X152930374Y-129100940D01*
X152936515Y-129100775D01*
X152946014Y-129103725D01*
X152959585Y-129110176D01*
X152977947Y-129120515D01*
X153001813Y-129135129D01*
X153031902Y-129154404D01*
X153068928Y-129178728D01*
X153113608Y-129208487D01*
X153166659Y-129244068D01*
X153187400Y-129258011D01*
X153224307Y-129282814D01*
X153258821Y-129305978D01*
X153289658Y-129326646D01*
X153315533Y-129343955D01*
X153335162Y-129357047D01*
X153347260Y-129365062D01*
X153349816Y-129366726D01*
X153365477Y-129376753D01*
X153509866Y-129234010D01*
X153544913Y-129199231D01*
X153578870Y-129165285D01*
X153610531Y-129133398D01*
X153638687Y-129104796D01*
X153662130Y-129080704D01*
X153679653Y-129062348D01*
X153688354Y-129052890D01*
X153722453Y-129014513D01*
X153583312Y-128807357D01*
X153548493Y-128755730D01*
X153519334Y-128712494D01*
X153495504Y-128676471D01*
X153476675Y-128646480D01*
X153462517Y-128621344D01*
X153452701Y-128599884D01*
X153446897Y-128580921D01*
X153444775Y-128563276D01*
X153446008Y-128545770D01*
X153450264Y-128527226D01*
X153457215Y-128506463D01*
X153466531Y-128482304D01*
X153477883Y-128453570D01*
X153481695Y-128443729D01*
X153500081Y-128396421D01*
X153519114Y-128348433D01*
X153538094Y-128301455D01*
X153556321Y-128257176D01*
X153573094Y-128217286D01*
X153587715Y-128183474D01*
X153599482Y-128157430D01*
X153605258Y-128145489D01*
X153615450Y-128128718D01*
X153626197Y-128116094D01*
X153632104Y-128111874D01*
X153645106Y-128107499D01*
X153666176Y-128101626D01*
X153692318Y-128094993D01*
X153720535Y-128088340D01*
X153747831Y-128082405D01*
X153765956Y-128078859D01*
X153801142Y-128072337D01*
X153840584Y-128064858D01*
X153882755Y-128056726D01*
X153926127Y-128048248D01*
X153969174Y-128039730D01*
X154010370Y-128031478D01*
X154048186Y-128023798D01*
X154081097Y-128016996D01*
X154107575Y-128011377D01*
X154126094Y-128007248D01*
X154135127Y-128004914D01*
X154135301Y-128004850D01*
X154149778Y-127999346D01*
X154149778Y-127497242D01*
X154128611Y-127491344D01*
X154118142Y-127488726D01*
X154101257Y-127484949D01*
X154077348Y-127479891D01*
X154045809Y-127473430D01*
X154006032Y-127465443D01*
X153957410Y-127455809D01*
X153899336Y-127444404D01*
X153831201Y-127431108D01*
X153777245Y-127420618D01*
X153738893Y-127413072D01*
X153703299Y-127405882D01*
X153672277Y-127399428D01*
X153647641Y-127394092D01*
X153631205Y-127390256D01*
X153626067Y-127388843D01*
X153617203Y-127384181D01*
X153607968Y-127375244D01*
X153597723Y-127360940D01*
X153585826Y-127340176D01*
X153571636Y-127311859D01*
X153554511Y-127274896D01*
X153539727Y-127241686D01*
X153529098Y-127216549D01*
X153522543Y-127197354D01*
X153519114Y-127179935D01*
X153517863Y-127160124D01*
X153517764Y-127145091D01*
X153517928Y-127098778D01*
X153553488Y-127180622D01*
X153553488Y-127180622D01*
G37*
X153553488Y-127180622D02*
X153573908Y-127227426D01*
X153590503Y-127264900D01*
X153603830Y-127294117D01*
X153614446Y-127316151D01*
X153622908Y-127332077D01*
X153629772Y-127342968D01*
X153635596Y-127349897D01*
X153640936Y-127353939D01*
X153644130Y-127355421D01*
X153653083Y-127357814D01*
X153671663Y-127362013D01*
X153698408Y-127367713D01*
X153731856Y-127374612D01*
X153770543Y-127382406D01*
X153813008Y-127390790D01*
X153834997Y-127395070D01*
X153906565Y-127408997D01*
X153967783Y-127421068D01*
X154019404Y-127431453D01*
X154062182Y-127440325D01*
X154096873Y-127447853D01*
X154124231Y-127454210D01*
X154145010Y-127459566D01*
X154159965Y-127464093D01*
X154169850Y-127467961D01*
X154175419Y-127471342D01*
X154176589Y-127472573D01*
X154178350Y-127477558D01*
X154179817Y-127487956D01*
X154181012Y-127504554D01*
X154181956Y-127528138D01*
X154182668Y-127559495D01*
X154183171Y-127599411D01*
X154183484Y-127648671D01*
X154183629Y-127708062D01*
X154183645Y-127739796D01*
X154183569Y-127793303D01*
X154183352Y-127843824D01*
X154183010Y-127890136D01*
X154182559Y-127931017D01*
X154182013Y-127965246D01*
X154181389Y-127991599D01*
X154180702Y-128008856D01*
X154180123Y-128015265D01*
X154178853Y-128021274D01*
X154176905Y-128026179D01*
X154173056Y-128030366D01*
X154166082Y-128034223D01*
X154154761Y-128038137D01*
X154137871Y-128042494D01*
X154114187Y-128047682D01*
X154082488Y-128054087D01*
X154041550Y-128062097D01*
X154017134Y-128066845D01*
X153940019Y-128081898D01*
X153873472Y-128095015D01*
X153816961Y-128106308D01*
X153769952Y-128115887D01*
X153731913Y-128123866D01*
X153702310Y-128130354D01*
X153680610Y-128135465D01*
X153666280Y-128139310D01*
X153659039Y-128141877D01*
X153652918Y-128145882D01*
X153646535Y-128152684D01*
X153639382Y-128163320D01*
X153630948Y-128178824D01*
X153620726Y-128200232D01*
X153608207Y-128228579D01*
X153592881Y-128264902D01*
X153574241Y-128310236D01*
X153564206Y-128334911D01*
X153539002Y-128397578D01*
X153518305Y-128450234D01*
X153502010Y-128493169D01*
X153490009Y-128526675D01*
X153482196Y-128551043D01*
X153478465Y-128566565D01*
X153478089Y-128570642D01*
X153481157Y-128577710D01*
X153489941Y-128593127D01*
X153503814Y-128615904D01*
X153522148Y-128645052D01*
X153544315Y-128679583D01*
X153569686Y-128718507D01*
X153597635Y-128760836D01*
X153623215Y-128799151D01*
X153657177Y-128849801D01*
X153685338Y-128891934D01*
X153708201Y-128926398D01*
X153726270Y-128954041D01*
X153740048Y-128975712D01*
X153750040Y-128992257D01*
X153756747Y-129004524D01*
X153760675Y-129013361D01*
X153762326Y-129019617D01*
X153762204Y-129024138D01*
X153760813Y-129027772D01*
X153759922Y-129029320D01*
X153752204Y-129039494D01*
X153737792Y-129056019D01*
X153717641Y-129077945D01*
X153692705Y-129104318D01*
X153663939Y-129134187D01*
X153632297Y-129166599D01*
X153598732Y-129200604D01*
X153564201Y-129235248D01*
X153529656Y-129269580D01*
X153496053Y-129302648D01*
X153464344Y-129333500D01*
X153435486Y-129361184D01*
X153410432Y-129384748D01*
X153390137Y-129403240D01*
X153375554Y-129415707D01*
X153367639Y-129421199D01*
X153366896Y-129421377D01*
X153361377Y-129418308D01*
X153347521Y-129409585D01*
X153326344Y-129395877D01*
X153298863Y-129377851D01*
X153266094Y-129356176D01*
X153229053Y-129331518D01*
X153188756Y-129304546D01*
X153173289Y-129294156D01*
X153130821Y-129265673D01*
X153090190Y-129238552D01*
X153052595Y-129213585D01*
X153019239Y-129191566D01*
X152991323Y-129173286D01*
X152970048Y-129159537D01*
X152956615Y-129151112D01*
X152954567Y-129149898D01*
X152937590Y-129139240D01*
X152928577Y-129130632D01*
X152925217Y-129121450D01*
X152924934Y-129116253D01*
X152925299Y-129109065D01*
X152926874Y-129103832D01*
X152930374Y-129100940D01*
X152936515Y-129100775D01*
X152946014Y-129103725D01*
X152959585Y-129110176D01*
X152977947Y-129120515D01*
X153001813Y-129135129D01*
X153031902Y-129154404D01*
X153068928Y-129178728D01*
X153113608Y-129208487D01*
X153166659Y-129244068D01*
X153187400Y-129258011D01*
X153224307Y-129282814D01*
X153258821Y-129305978D01*
X153289658Y-129326646D01*
X153315533Y-129343955D01*
X153335162Y-129357047D01*
X153347260Y-129365062D01*
X153349816Y-129366726D01*
X153365477Y-129376753D01*
X153509866Y-129234010D01*
X153544913Y-129199231D01*
X153578870Y-129165285D01*
X153610531Y-129133398D01*
X153638687Y-129104796D01*
X153662130Y-129080704D01*
X153679653Y-129062348D01*
X153688354Y-129052890D01*
X153722453Y-129014513D01*
X153583312Y-128807357D01*
X153548493Y-128755730D01*
X153519334Y-128712494D01*
X153495504Y-128676471D01*
X153476675Y-128646480D01*
X153462517Y-128621344D01*
X153452701Y-128599884D01*
X153446897Y-128580921D01*
X153444775Y-128563276D01*
X153446008Y-128545770D01*
X153450264Y-128527226D01*
X153457215Y-128506463D01*
X153466531Y-128482304D01*
X153477883Y-128453570D01*
X153481695Y-128443729D01*
X153500081Y-128396421D01*
X153519114Y-128348433D01*
X153538094Y-128301455D01*
X153556321Y-128257176D01*
X153573094Y-128217286D01*
X153587715Y-128183474D01*
X153599482Y-128157430D01*
X153605258Y-128145489D01*
X153615450Y-128128718D01*
X153626197Y-128116094D01*
X153632104Y-128111874D01*
X153645106Y-128107499D01*
X153666176Y-128101626D01*
X153692318Y-128094993D01*
X153720535Y-128088340D01*
X153747831Y-128082405D01*
X153765956Y-128078859D01*
X153801142Y-128072337D01*
X153840584Y-128064858D01*
X153882755Y-128056726D01*
X153926127Y-128048248D01*
X153969174Y-128039730D01*
X154010370Y-128031478D01*
X154048186Y-128023798D01*
X154081097Y-128016996D01*
X154107575Y-128011377D01*
X154126094Y-128007248D01*
X154135127Y-128004914D01*
X154135301Y-128004850D01*
X154149778Y-127999346D01*
X154149778Y-127497242D01*
X154128611Y-127491344D01*
X154118142Y-127488726D01*
X154101257Y-127484949D01*
X154077348Y-127479891D01*
X154045809Y-127473430D01*
X154006032Y-127465443D01*
X153957410Y-127455809D01*
X153899336Y-127444404D01*
X153831201Y-127431108D01*
X153777245Y-127420618D01*
X153738893Y-127413072D01*
X153703299Y-127405882D01*
X153672277Y-127399428D01*
X153647641Y-127394092D01*
X153631205Y-127390256D01*
X153626067Y-127388843D01*
X153617203Y-127384181D01*
X153607968Y-127375244D01*
X153597723Y-127360940D01*
X153585826Y-127340176D01*
X153571636Y-127311859D01*
X153554511Y-127274896D01*
X153539727Y-127241686D01*
X153529098Y-127216549D01*
X153522543Y-127197354D01*
X153519114Y-127179935D01*
X153517863Y-127160124D01*
X153517764Y-127145091D01*
X153517928Y-127098778D01*
X153553488Y-127180622D01*
G36*
X152831301Y-123174857D02*
X152843737Y-123178015D01*
X152859545Y-123184076D01*
X152880809Y-123193744D01*
X152909611Y-123207727D01*
X152916467Y-123211107D01*
X152949758Y-123227297D01*
X152989413Y-123246199D01*
X153031477Y-123265949D01*
X153071993Y-123284683D01*
X153091445Y-123293544D01*
X153140314Y-123315914D01*
X153179912Y-123334687D01*
X153211414Y-123350535D01*
X153236000Y-123364131D01*
X153254847Y-123376148D01*
X153269133Y-123387256D01*
X153280036Y-123398129D01*
X153284718Y-123403859D01*
X153303306Y-123435682D01*
X153317296Y-123475231D01*
X153325859Y-123519589D01*
X153328247Y-123556889D01*
X153327956Y-123581770D01*
X153326334Y-123598662D01*
X153322748Y-123610842D01*
X153316567Y-123621590D01*
X153315487Y-123623126D01*
X153300669Y-123637513D01*
X153276706Y-123653149D01*
X153245535Y-123669125D01*
X153209093Y-123684533D01*
X153169316Y-123698465D01*
X153132524Y-123708926D01*
X153039003Y-123737622D01*
X152947302Y-123775743D01*
X152860027Y-123822053D01*
X152779780Y-123875315D01*
X152775736Y-123878336D01*
X152727714Y-123917769D01*
X152678319Y-123964361D01*
X152629859Y-124015554D01*
X152584637Y-124068794D01*
X152544961Y-124121522D01*
X152515862Y-124166489D01*
X152497385Y-124199292D01*
X152477468Y-124237039D01*
X152457036Y-124277744D01*
X152437012Y-124319422D01*
X152418318Y-124360090D01*
X152401880Y-124397762D01*
X152388620Y-124430453D01*
X152379461Y-124456179D01*
X152376839Y-124465286D01*
X152370702Y-124495732D01*
X152367736Y-124524409D01*
X152367979Y-124548832D01*
X152371464Y-124566510D01*
X152375328Y-124573052D01*
X152382316Y-124576130D01*
X152398292Y-124581306D01*
X152421280Y-124587995D01*
X152449302Y-124595613D01*
X152468516Y-124600592D01*
X152588023Y-124634361D01*
X152698123Y-124672697D01*
X152799991Y-124716232D01*
X152894800Y-124765599D01*
X152983725Y-124821429D01*
X153067939Y-124884356D01*
X153148618Y-124955012D01*
X153176391Y-124981836D01*
X153257142Y-125069655D01*
X153329804Y-125165248D01*
X153394270Y-125268402D01*
X153450430Y-125378905D01*
X153498176Y-125496545D01*
X153537398Y-125621109D01*
X153565737Y-125741026D01*
X153570694Y-125766319D01*
X153574377Y-125787676D01*
X153576933Y-125807423D01*
X153578511Y-125827887D01*
X153579256Y-125851393D01*
X153579318Y-125880267D01*
X153578844Y-125916836D01*
X153578414Y-125940759D01*
X153577559Y-125982216D01*
X153576618Y-126014338D01*
X153575392Y-126039078D01*
X153573682Y-126058389D01*
X153571289Y-126074225D01*
X153568013Y-126088539D01*
X153563655Y-126103285D01*
X153561004Y-126111443D01*
X153538069Y-126166143D01*
X153508238Y-126213024D01*
X153472104Y-126251453D01*
X153430257Y-126280798D01*
X153384026Y-126300209D01*
X153360518Y-126307232D01*
X153372725Y-126330472D01*
X153376440Y-126338069D01*
X153379314Y-126345980D01*
X153381456Y-126355697D01*
X153382971Y-126368713D01*
X153383968Y-126386523D01*
X153384553Y-126410621D01*
X153384834Y-126442498D01*
X153384917Y-126483650D01*
X153384919Y-126500467D01*
X153384759Y-126543977D01*
X153384307Y-126596127D01*
X153383592Y-126655514D01*
X153382644Y-126720729D01*
X153381494Y-126790369D01*
X153380170Y-126863026D01*
X153378704Y-126937296D01*
X153377126Y-127011773D01*
X153375464Y-127085050D01*
X153373750Y-127155721D01*
X153372013Y-127222383D01*
X153370283Y-127283627D01*
X153368590Y-127338049D01*
X153366965Y-127384243D01*
X153365436Y-127420803D01*
X153365178Y-127426156D01*
X153356091Y-127581814D01*
X153344702Y-127726811D01*
X153330946Y-127861550D01*
X153314762Y-127986432D01*
X153296086Y-128101861D01*
X153274855Y-128208240D01*
X153251005Y-128305972D01*
X153224474Y-128395459D01*
X153203895Y-128454422D01*
X153178426Y-128518826D01*
X153152904Y-128574771D01*
X153125786Y-128624988D01*
X153095532Y-128672209D01*
X153060597Y-128719163D01*
X153040276Y-128744134D01*
X152966409Y-128827562D01*
X152893007Y-128900153D01*
X152819578Y-128962320D01*
X152745633Y-129014474D01*
X152670681Y-129057027D01*
X152662765Y-129060939D01*
X152626286Y-129075980D01*
X152595232Y-129082467D01*
X152567888Y-129080587D01*
X152547987Y-129073413D01*
X152542670Y-129070900D01*
X152537962Y-129068556D01*
X152533545Y-129065702D01*
X152529102Y-129061661D01*
X152524314Y-129055755D01*
X152518864Y-129047305D01*
X152512433Y-129035633D01*
X152504703Y-129020061D01*
X152495356Y-128999911D01*
X152484075Y-128974505D01*
X152470541Y-128943165D01*
X152454435Y-128905212D01*
X152435441Y-128859968D01*
X152413240Y-128806756D01*
X152387513Y-128744897D01*
X152357944Y-128673713D01*
X152337957Y-128625600D01*
X152323949Y-128591720D01*
X152307783Y-128552366D01*
X152291510Y-128512541D01*
X152277825Y-128478845D01*
X152265027Y-128447476D01*
X152251974Y-128415955D01*
X152240069Y-128387640D01*
X152230715Y-128365889D01*
X152229500Y-128363134D01*
X152207283Y-128310361D01*
X152191556Y-128265670D01*
X152182591Y-128227716D01*
X152180661Y-128195157D01*
X152186040Y-128166652D01*
X152199000Y-128140856D01*
X152219813Y-128116429D01*
X152248753Y-128092027D01*
X152286093Y-128066309D01*
X152290374Y-128063565D01*
X152320337Y-128043601D01*
X152343378Y-128025847D01*
X152362711Y-128007543D01*
X152381549Y-127985926D01*
X152383419Y-127983614D01*
X152423260Y-127927159D01*
X152452222Y-127869994D01*
X152470711Y-127811051D01*
X152479129Y-127749263D01*
X152479757Y-127729384D01*
X152474725Y-127668249D01*
X152458975Y-127608533D01*
X152433074Y-127551350D01*
X152397589Y-127497811D01*
X152353086Y-127449028D01*
X152324083Y-127423920D01*
X152288194Y-127397400D01*
X152254556Y-127377492D01*
X152220575Y-127363371D01*
X152183654Y-127354209D01*
X152141199Y-127349180D01*
X152090615Y-127347457D01*
X152083911Y-127347434D01*
X152050718Y-127347674D01*
X152025910Y-127348689D01*
X152006593Y-127350808D01*
X151989874Y-127354364D01*
X151972856Y-127359685D01*
X151971022Y-127360329D01*
X151918439Y-127383745D01*
X151868057Y-127415334D01*
X151822077Y-127453249D01*
X151782701Y-127495648D01*
X151752131Y-127540684D01*
X151749122Y-127546249D01*
X151724533Y-127604170D01*
X151709629Y-127664692D01*
X151704218Y-127726329D01*
X151708110Y-127787598D01*
X151721116Y-127847013D01*
X151743046Y-127903091D01*
X151773710Y-127954347D01*
X151806276Y-127992789D01*
X151828377Y-128013337D01*
X151855569Y-128036089D01*
X151883327Y-128057332D01*
X151894822Y-128065428D01*
X151925769Y-128088350D01*
X151951638Y-128111206D01*
X151968065Y-128129424D01*
X151980494Y-128146892D01*
X151987579Y-128161423D01*
X151991120Y-128177995D01*
X151992697Y-128197607D01*
X151992829Y-128222418D01*
X151990935Y-128247221D01*
X151988209Y-128263052D01*
X151984096Y-128275916D01*
X151976128Y-128297661D01*
X151964911Y-128326799D01*
X151951055Y-128361842D01*
X151935167Y-128401302D01*
X151917855Y-128443691D01*
X151899728Y-128487522D01*
X151881394Y-128531306D01*
X151863460Y-128573555D01*
X151846536Y-128612783D01*
X151831228Y-128647500D01*
X151829659Y-128651000D01*
X151816749Y-128680515D01*
X151801184Y-128717281D01*
X151784330Y-128758004D01*
X151767553Y-128799385D01*
X151753880Y-128833877D01*
X151729392Y-128894857D01*
X151707632Y-128945535D01*
X151688307Y-128986485D01*
X151671124Y-129018283D01*
X151655790Y-129041503D01*
X151642011Y-129056720D01*
X151639153Y-129059056D01*
X151626687Y-129067390D01*
X151614197Y-129072026D01*
X151597651Y-129073992D01*
X151579173Y-129074334D01*
X151539222Y-129074334D01*
X151446048Y-129011380D01*
X151372549Y-128959550D01*
X151308180Y-128909207D01*
X151251227Y-128858685D01*
X151199981Y-128806320D01*
X151152729Y-128750444D01*
X151107762Y-128689393D01*
X151093203Y-128667934D01*
X151041980Y-128582838D01*
X150996537Y-128490861D01*
X150958318Y-128395341D01*
X150928769Y-128299615D01*
X150922151Y-128272822D01*
X150917160Y-128249416D01*
X150910854Y-128216811D01*
X150903562Y-128176975D01*
X150895614Y-128131877D01*
X150887340Y-128083486D01*
X150879070Y-128033772D01*
X150871133Y-127984703D01*
X150863859Y-127938248D01*
X150857578Y-127896376D01*
X150852620Y-127861055D01*
X150850765Y-127846667D01*
X150848367Y-127823319D01*
X150845752Y-127790942D01*
X150842987Y-127750987D01*
X150840137Y-127704907D01*
X150837267Y-127654150D01*
X150834444Y-127600170D01*
X150831733Y-127544416D01*
X150829199Y-127488340D01*
X150826909Y-127433393D01*
X150824927Y-127381026D01*
X150823319Y-127332690D01*
X150822151Y-127289836D01*
X150821489Y-127253915D01*
X150821398Y-127226379D01*
X150821932Y-127208845D01*
X150822641Y-127189424D01*
X150822796Y-127161003D01*
X150822430Y-127125857D01*
X150821574Y-127086258D01*
X150820259Y-127044482D01*
X150819282Y-127019756D01*
X150817674Y-126979627D01*
X150815886Y-126930750D01*
X150814001Y-126875660D01*
X150812102Y-126816894D01*
X150810272Y-126756989D01*
X150808593Y-126698481D01*
X150807594Y-126661334D01*
X150806512Y-126621167D01*
X150984648Y-126621167D01*
X150985347Y-126678651D01*
X150986823Y-126745623D01*
X150989078Y-126821787D01*
X150991579Y-126892756D01*
X150993539Y-126948327D01*
X150995323Y-127005370D01*
X150996882Y-127061750D01*
X150998163Y-127115329D01*
X150999116Y-127163973D01*
X150999689Y-127205544D01*
X150999834Y-127237067D01*
X151000091Y-127280719D01*
X151001025Y-127331281D01*
X151002549Y-127386929D01*
X151004580Y-127445840D01*
X151007033Y-127506190D01*
X151009823Y-127566156D01*
X151012866Y-127623914D01*
X151016075Y-127677641D01*
X151019368Y-127725512D01*
X151022659Y-127765705D01*
X151025798Y-127795867D01*
X151029931Y-127827007D01*
X151035563Y-127865748D01*
X151042363Y-127910111D01*
X151050000Y-127958117D01*
X151058143Y-128007787D01*
X151066460Y-128057144D01*
X151074622Y-128104206D01*
X151082295Y-128146996D01*
X151089150Y-128183536D01*
X151094855Y-128211845D01*
X151097109Y-128222022D01*
X151122393Y-128311008D01*
X151156260Y-128398933D01*
X151197718Y-128484099D01*
X151245772Y-128564806D01*
X151299429Y-128639357D01*
X151357698Y-128706053D01*
X151407710Y-128753252D01*
X151435341Y-128776303D01*
X151462859Y-128798123D01*
X151488815Y-128817679D01*
X151511760Y-128833941D01*
X151530247Y-128845877D01*
X151542826Y-128852457D01*
X151547847Y-128853013D01*
X151551059Y-128846559D01*
X151557592Y-128831289D01*
X151566738Y-128808936D01*
X151577788Y-128781228D01*
X151590035Y-128749897D01*
X151590081Y-128749778D01*
X151605406Y-128710935D01*
X151622580Y-128668616D01*
X151639970Y-128626774D01*
X151655942Y-128589359D01*
X151663586Y-128571978D01*
X151673165Y-128550200D01*
X151685230Y-128522292D01*
X151699166Y-128489723D01*
X151714357Y-128453962D01*
X151730187Y-128416478D01*
X151746041Y-128378742D01*
X151761304Y-128342223D01*
X151775361Y-128308390D01*
X151787595Y-128278714D01*
X151797391Y-128254662D01*
X151804135Y-128237706D01*
X151807210Y-128229314D01*
X151807334Y-128228740D01*
X151802972Y-128224818D01*
X151791350Y-128216312D01*
X151774662Y-128204808D01*
X151768019Y-128200359D01*
X151706115Y-128152543D01*
X151652156Y-128097019D01*
X151606755Y-128034661D01*
X151570526Y-127966345D01*
X151544081Y-127892943D01*
X151538975Y-127873509D01*
X151533652Y-127844020D01*
X151529670Y-127806686D01*
X151527154Y-127764883D01*
X151526232Y-127721989D01*
X151527029Y-127681382D01*
X151529672Y-127646438D01*
X151530300Y-127641409D01*
X151541119Y-127584105D01*
X151557640Y-127527427D01*
X151578471Y-127475919D01*
X151584989Y-127462845D01*
X151623777Y-127400465D01*
X151671787Y-127342662D01*
X151727418Y-127290813D01*
X151789067Y-127246297D01*
X151855131Y-127210490D01*
X151899359Y-127192651D01*
X151920490Y-127185400D01*
X151937821Y-127180094D01*
X151953843Y-127176383D01*
X151971049Y-127173913D01*
X151991928Y-127172333D01*
X152018972Y-127171292D01*
X152054674Y-127170436D01*
X152056979Y-127170387D01*
X152123486Y-127170233D01*
X152180847Y-127173120D01*
X152230894Y-127179454D01*
X152275459Y-127189645D01*
X152316373Y-127204101D01*
X152355470Y-127223229D01*
X152390542Y-127244728D01*
X152458248Y-127296135D01*
X152517161Y-127354207D01*
X152566935Y-127418488D01*
X152607220Y-127488519D01*
X152637670Y-127563842D01*
X152640932Y-127574143D01*
X152646358Y-127592502D01*
X152650303Y-127608459D01*
X152652992Y-127624348D01*
X152654647Y-127642500D01*
X152655491Y-127665249D01*
X152655748Y-127694927D01*
X152655669Y-127728134D01*
X152655282Y-127768257D01*
X152654401Y-127799460D01*
X152652831Y-127824109D01*
X152650376Y-127844570D01*
X152646839Y-127863206D01*
X152643279Y-127877711D01*
X152623557Y-127936438D01*
X152596030Y-127995010D01*
X152562136Y-128051372D01*
X152523315Y-128103473D01*
X152481009Y-128149258D01*
X152436656Y-128186673D01*
X152417688Y-128199445D01*
X152398311Y-128212167D01*
X152383529Y-128223191D01*
X152375342Y-128230951D01*
X152374392Y-128233311D01*
X152377543Y-128240936D01*
X152383908Y-128255906D01*
X152392206Y-128275211D01*
X152393613Y-128278467D01*
X152402242Y-128298791D01*
X152413676Y-128326239D01*
X152426527Y-128357454D01*
X152439407Y-128389078D01*
X152441469Y-128394178D01*
X152455103Y-128427775D01*
X152469783Y-128463683D01*
X152483789Y-128497709D01*
X152495402Y-128525659D01*
X152495889Y-128526822D01*
X152504966Y-128548553D01*
X152517384Y-128578377D01*
X152532173Y-128613955D01*
X152548359Y-128652948D01*
X152564970Y-128693017D01*
X152573283Y-128713089D01*
X152591320Y-128756600D01*
X152605571Y-128790783D01*
X152616539Y-128816756D01*
X152624729Y-128835632D01*
X152630644Y-128848528D01*
X152634789Y-128856557D01*
X152637666Y-128860837D01*
X152639781Y-128862481D01*
X152640866Y-128862667D01*
X152646625Y-128859592D01*
X152659390Y-128851312D01*
X152677027Y-128839241D01*
X152689840Y-128830211D01*
X152724418Y-128803289D01*
X152762448Y-128769737D01*
X152802209Y-128731420D01*
X152841975Y-128690200D01*
X152880023Y-128647941D01*
X152914630Y-128606507D01*
X152944071Y-128567759D01*
X152966624Y-128533562D01*
X152970497Y-128526822D01*
X153004288Y-128459264D01*
X153035264Y-128383080D01*
X153063466Y-128298036D01*
X153088933Y-128203899D01*
X153111707Y-128100436D01*
X153131828Y-127987412D01*
X153149335Y-127864594D01*
X153164269Y-127731749D01*
X153176670Y-127588643D01*
X153186579Y-127435042D01*
X153194036Y-127270713D01*
X153195774Y-127220134D01*
X153197290Y-127167868D01*
X153198649Y-127111602D01*
X153199795Y-127054417D01*
X153200674Y-126999394D01*
X153201228Y-126949617D01*
X153201404Y-126909689D01*
X153201697Y-126863172D01*
X153202548Y-126809378D01*
X153203862Y-126752300D01*
X153205544Y-126695931D01*
X153207498Y-126644265D01*
X153208055Y-126631741D01*
X153209749Y-126592391D01*
X153211044Y-126556843D01*
X153211904Y-126526626D01*
X153212292Y-126503269D01*
X153212172Y-126488304D01*
X153211612Y-126483286D01*
X153205376Y-126483377D01*
X153189761Y-126485435D01*
X153166451Y-126489185D01*
X153137132Y-126494351D01*
X153103486Y-126500659D01*
X153093508Y-126502594D01*
X152968752Y-126525098D01*
X152839174Y-126544724D01*
X152703065Y-126561694D01*
X152558716Y-126576227D01*
X152456445Y-126584718D01*
X152413048Y-126587442D01*
X152360812Y-126589727D01*
X152301437Y-126591573D01*
X152236623Y-126592976D01*
X152168069Y-126593935D01*
X152097477Y-126594446D01*
X152026545Y-126594508D01*
X151956975Y-126594118D01*
X151890464Y-126593274D01*
X151828715Y-126591974D01*
X151773426Y-126590214D01*
X151726298Y-126587993D01*
X151694445Y-126585785D01*
X151562826Y-126573796D01*
X151442260Y-126560968D01*
X151332538Y-126547273D01*
X151233454Y-126532684D01*
X151144799Y-126517172D01*
X151090248Y-126506059D01*
X151059392Y-126499446D01*
X151032198Y-126493784D01*
X151010669Y-126489478D01*
X150996808Y-126486930D01*
X150992797Y-126486409D01*
X150989618Y-126492019D01*
X150987213Y-126508596D01*
X150985582Y-126535843D01*
X150984727Y-126573466D01*
X150984648Y-126621167D01*
X150806512Y-126621167D01*
X150806229Y-126610691D01*
X150804827Y-126561734D01*
X150803438Y-126516053D01*
X150802115Y-126475239D01*
X150800908Y-126440881D01*
X150799869Y-126414570D01*
X150799051Y-126397896D01*
X150799026Y-126397487D01*
X150798079Y-126369815D01*
X150799495Y-126350360D01*
X150803527Y-126336248D01*
X150804614Y-126333924D01*
X150813108Y-126316898D01*
X150781054Y-126294918D01*
X150737740Y-126260384D01*
X150701440Y-126220519D01*
X150671415Y-126174104D01*
X150646923Y-126119924D01*
X150627227Y-126056760D01*
X150621255Y-126031978D01*
X150617722Y-126008107D01*
X150615352Y-125973072D01*
X150614147Y-125926941D01*
X150613999Y-125888045D01*
X150614031Y-125883731D01*
X150786716Y-125883731D01*
X150787416Y-125904938D01*
X150788023Y-125912034D01*
X150790972Y-125938900D01*
X150794643Y-125965100D01*
X150798613Y-125988298D01*
X150802461Y-126006164D01*
X150805766Y-126016366D01*
X150807146Y-126017867D01*
X150813196Y-126014507D01*
X150820557Y-126008494D01*
X150830330Y-126001853D01*
X150834424Y-126003189D01*
X150832447Y-126010504D01*
X150824009Y-126021800D01*
X150823312Y-126022537D01*
X150808135Y-126038378D01*
X150825339Y-126072806D01*
X150850457Y-126111272D01*
X150883148Y-126142380D01*
X150909248Y-126158662D01*
X150924410Y-126164813D01*
X150948258Y-126172477D01*
X150979500Y-126181373D01*
X151016848Y-126191222D01*
X151059011Y-126201742D01*
X151104700Y-126212654D01*
X151152624Y-126223677D01*
X151201495Y-126234531D01*
X151250023Y-126244935D01*
X151296917Y-126254609D01*
X151340887Y-126263273D01*
X151380645Y-126270645D01*
X151414901Y-126276446D01*
X151442364Y-126280396D01*
X151461744Y-126282213D01*
X151471753Y-126281618D01*
X151472573Y-126281131D01*
X151476824Y-126269592D01*
X151474536Y-126252702D01*
X151466501Y-126233691D01*
X151457708Y-126220633D01*
X151439224Y-126197632D01*
X151465666Y-126217816D01*
X151480649Y-126228668D01*
X151492229Y-126235995D01*
X151496954Y-126238000D01*
X151512754Y-126233957D01*
X151533739Y-126222653D01*
X151557669Y-126205329D01*
X151561070Y-126202541D01*
X151589695Y-126178734D01*
X151560226Y-126214304D01*
X151546433Y-126232202D01*
X151536095Y-126247998D01*
X151531001Y-126258885D01*
X151530756Y-126260556D01*
X151534412Y-126272013D01*
X151543230Y-126284802D01*
X151543456Y-126285050D01*
X151549075Y-126290309D01*
X151556151Y-126294392D01*
X151566522Y-126297709D01*
X151582027Y-126300674D01*
X151604503Y-126303697D01*
X151635788Y-126307189D01*
X151648129Y-126308491D01*
X151680009Y-126311565D01*
X151708686Y-126313839D01*
X151731956Y-126315175D01*
X151747615Y-126315437D01*
X151752598Y-126314984D01*
X151766140Y-126314563D01*
X151773359Y-126316956D01*
X151781093Y-126318367D01*
X151798485Y-126319642D01*
X151823905Y-126320725D01*
X151855722Y-126321557D01*
X151892305Y-126322081D01*
X151922890Y-126322238D01*
X152064156Y-126322413D01*
X152065371Y-126320696D01*
X152082372Y-126320696D01*
X152084928Y-126323414D01*
X152095494Y-126326221D01*
X152113111Y-126327464D01*
X152133652Y-126327151D01*
X152152990Y-126325290D01*
X152162927Y-126323262D01*
X152170934Y-126320607D01*
X152172107Y-126317434D01*
X152165537Y-126311655D01*
X152154561Y-126304069D01*
X152135719Y-126292941D01*
X152121277Y-126289766D01*
X152107641Y-126294525D01*
X152095238Y-126303745D01*
X152084426Y-126314207D01*
X152082372Y-126320696D01*
X152065371Y-126320696D01*
X152080619Y-126299163D01*
X152093417Y-126276038D01*
X152096051Y-126255391D01*
X152088456Y-126234648D01*
X152078597Y-126220633D01*
X152060112Y-126197632D01*
X152086555Y-126217816D01*
X152101538Y-126228668D01*
X152113118Y-126235995D01*
X152117843Y-126238000D01*
X152133643Y-126233957D01*
X152154628Y-126222653D01*
X152178558Y-126205329D01*
X152181959Y-126202541D01*
X152210584Y-126178734D01*
X152181114Y-126214304D01*
X152167325Y-126232183D01*
X152156988Y-126247939D01*
X152151891Y-126258772D01*
X152151645Y-126260432D01*
X152154941Y-126270678D01*
X152163389Y-126285498D01*
X152170418Y-126295417D01*
X152189192Y-126319845D01*
X152253674Y-126318412D01*
X152296285Y-126316591D01*
X152347589Y-126312972D01*
X152405180Y-126307815D01*
X152466651Y-126301384D01*
X152529596Y-126293942D01*
X152591610Y-126285753D01*
X152650286Y-126277077D01*
X152686642Y-126271106D01*
X152705796Y-126267456D01*
X152716000Y-126264050D01*
X152719493Y-126259612D01*
X152718525Y-126252911D01*
X152712930Y-126241258D01*
X152702969Y-126225898D01*
X152697973Y-126219227D01*
X152681001Y-126197632D01*
X152707444Y-126217816D01*
X152722427Y-126228668D01*
X152734007Y-126235995D01*
X152738732Y-126238000D01*
X152754531Y-126233957D01*
X152775517Y-126222653D01*
X152799446Y-126205329D01*
X152802848Y-126202541D01*
X152831473Y-126178734D01*
X152801275Y-126215180D01*
X152788278Y-126231890D01*
X152779609Y-126245084D01*
X152776575Y-126252675D01*
X152777181Y-126253661D01*
X152784031Y-126253141D01*
X152799805Y-126250738D01*
X152822377Y-126246859D01*
X152849617Y-126241914D01*
X152879399Y-126236310D01*
X152909593Y-126230457D01*
X152938071Y-126224762D01*
X152962705Y-126219636D01*
X152981368Y-126215486D01*
X152991930Y-126212721D01*
X152993312Y-126212161D01*
X152990637Y-126207738D01*
X152981072Y-126196764D01*
X152965838Y-126180541D01*
X152946152Y-126160373D01*
X152926498Y-126140774D01*
X152893954Y-126108293D01*
X152865277Y-126078884D01*
X152841215Y-126053376D01*
X152822521Y-126032594D01*
X152809945Y-126017369D01*
X152804238Y-126008527D01*
X152804788Y-126006578D01*
X152809953Y-126010408D01*
X152821618Y-126021000D01*
X152838432Y-126037006D01*
X152859041Y-126057081D01*
X152882093Y-126079877D01*
X152906235Y-126104046D01*
X152930114Y-126128242D01*
X152952377Y-126151119D01*
X152971671Y-126171328D01*
X152986645Y-126187523D01*
X152987739Y-126188743D01*
X153006778Y-126210041D01*
X153074169Y-126193499D01*
X153141559Y-126176957D01*
X153227325Y-126087534D01*
X153253117Y-126061075D01*
X153276075Y-126038355D01*
X153295091Y-126020409D01*
X153309056Y-126008271D01*
X153316861Y-126002975D01*
X153317978Y-126002968D01*
X153315560Y-126008156D01*
X153305906Y-126019897D01*
X153290061Y-126037072D01*
X153269069Y-126058560D01*
X153243974Y-126083242D01*
X153235378Y-126091508D01*
X153147889Y-126175190D01*
X153235095Y-126152834D01*
X153266325Y-126144478D01*
X153294910Y-126136186D01*
X153318488Y-126128691D01*
X153334701Y-126122724D01*
X153339498Y-126120434D01*
X153361311Y-126101585D01*
X153379561Y-126073173D01*
X153391187Y-126043766D01*
X153396323Y-126020359D01*
X153400228Y-125988938D01*
X153402777Y-125952723D01*
X153403844Y-125914935D01*
X153403304Y-125878793D01*
X153401033Y-125847518D01*
X153399292Y-125835180D01*
X153393920Y-125806369D01*
X153387614Y-125775854D01*
X153380879Y-125745727D01*
X153374221Y-125718079D01*
X153368146Y-125695002D01*
X153363159Y-125678587D01*
X153359767Y-125670926D01*
X153359507Y-125670703D01*
X153353377Y-125672795D01*
X153341013Y-125680886D01*
X153324614Y-125693467D01*
X153316493Y-125700200D01*
X153278250Y-125732645D01*
X153305210Y-125699544D01*
X153324399Y-125674540D01*
X153335694Y-125654948D01*
X153339355Y-125638376D01*
X153335643Y-125622427D01*
X153324817Y-125604709D01*
X153316637Y-125594215D01*
X153307741Y-125583041D01*
X153305901Y-125579716D01*
X153310913Y-125583449D01*
X153314671Y-125586638D01*
X153326588Y-125596243D01*
X153335514Y-125602461D01*
X153336970Y-125599563D01*
X153334693Y-125588113D01*
X153329311Y-125569969D01*
X153321455Y-125546992D01*
X153311752Y-125521041D01*
X153300831Y-125493976D01*
X153291743Y-125473002D01*
X153274485Y-125434535D01*
X153247876Y-125459447D01*
X153231106Y-125475154D01*
X153209936Y-125494990D01*
X153188200Y-125515364D01*
X153182080Y-125521102D01*
X153169716Y-125532475D01*
X153164137Y-125536994D01*
X153165556Y-125534376D01*
X153174184Y-125524338D01*
X153190235Y-125506598D01*
X153205683Y-125489792D01*
X153268473Y-125421740D01*
X153244421Y-125376725D01*
X153212671Y-125320669D01*
X153179239Y-125268998D01*
X153144403Y-125221136D01*
X153126771Y-125198933D01*
X153106521Y-125174973D01*
X153085114Y-125150808D01*
X153064006Y-125127989D01*
X153044659Y-125108068D01*
X153028530Y-125092595D01*
X153017079Y-125083123D01*
X153012499Y-125080889D01*
X153003171Y-125084845D01*
X152998285Y-125089388D01*
X152992080Y-125095780D01*
X152979017Y-125108501D01*
X152960511Y-125126199D01*
X152937976Y-125147522D01*
X152912826Y-125171116D01*
X152911516Y-125172341D01*
X152887423Y-125194646D01*
X152871155Y-125209240D01*
X152862737Y-125216091D01*
X152862196Y-125215165D01*
X152869555Y-125206428D01*
X152884842Y-125189848D01*
X152908081Y-125165390D01*
X152939298Y-125133021D01*
X152949851Y-125122145D01*
X152970594Y-125100529D01*
X152984329Y-125085315D01*
X152992101Y-125074994D01*
X152994957Y-125068059D01*
X152993942Y-125063001D01*
X152992393Y-125060804D01*
X152983071Y-125051752D01*
X152966726Y-125037952D01*
X152945589Y-125021120D01*
X152921891Y-125002972D01*
X152897864Y-124985225D01*
X152875739Y-124969594D01*
X152861662Y-124960246D01*
X152829435Y-124939723D01*
X152800984Y-124973910D01*
X152787455Y-124991347D01*
X152777413Y-125006536D01*
X152772682Y-125016663D01*
X152772534Y-125017837D01*
X152774203Y-125026405D01*
X152779916Y-125037678D01*
X152790730Y-125053276D01*
X152807701Y-125074820D01*
X152817337Y-125086534D01*
X152843089Y-125117578D01*
X152812045Y-125091826D01*
X152787382Y-125071821D01*
X152769376Y-125058439D01*
X152756410Y-125050624D01*
X152746865Y-125047319D01*
X152743377Y-125047022D01*
X152734895Y-125050509D01*
X152720571Y-125059818D01*
X152702956Y-125073225D01*
X152695513Y-125079389D01*
X152657361Y-125111756D01*
X152684321Y-125078655D01*
X152703576Y-125053521D01*
X152714880Y-125033802D01*
X152718485Y-125017158D01*
X152714642Y-125001248D01*
X152703601Y-124983730D01*
X152695574Y-124973771D01*
X152679592Y-124954778D01*
X152706740Y-124975500D01*
X152723090Y-124987675D01*
X152733919Y-124993944D01*
X152742640Y-124995296D01*
X152752670Y-124992718D01*
X152758597Y-124990511D01*
X152770760Y-124984113D01*
X152786057Y-124973760D01*
X152801651Y-124961705D01*
X152814706Y-124950202D01*
X152822386Y-124941503D01*
X152823334Y-124939077D01*
X152818524Y-124935038D01*
X152805382Y-124927245D01*
X152785836Y-124916650D01*
X152761815Y-124904205D01*
X152735246Y-124890862D01*
X152708059Y-124877574D01*
X152682182Y-124865292D01*
X152659543Y-124854968D01*
X152642072Y-124847554D01*
X152631696Y-124844002D01*
X152630386Y-124843829D01*
X152622749Y-124847518D01*
X152609001Y-124857565D01*
X152591098Y-124872430D01*
X152571196Y-124890389D01*
X152521508Y-124936956D01*
X152568248Y-124886156D01*
X152614989Y-124835356D01*
X152533535Y-124808898D01*
X152501715Y-124798840D01*
X152470553Y-124789480D01*
X152443077Y-124781694D01*
X152422314Y-124776361D01*
X152417637Y-124775326D01*
X152398611Y-124771650D01*
X152386717Y-124770964D01*
X152378030Y-124773976D01*
X152368629Y-124781392D01*
X152364785Y-124784851D01*
X152346378Y-124801489D01*
X152377136Y-124767303D01*
X152336256Y-124754613D01*
X152290573Y-124735157D01*
X152251937Y-124707630D01*
X152221411Y-124672801D01*
X152219682Y-124670225D01*
X152200230Y-124640735D01*
X152185815Y-124653220D01*
X152176873Y-124660884D01*
X152175447Y-124661566D01*
X152181609Y-124654730D01*
X152186288Y-124649692D01*
X152195856Y-124637733D01*
X152198341Y-124627208D01*
X152195579Y-124613409D01*
X152193697Y-124600336D01*
X152192456Y-124578634D01*
X152191935Y-124550949D01*
X152192217Y-124519928D01*
X152192449Y-124511047D01*
X152193718Y-124476700D01*
X152195468Y-124450461D01*
X152198171Y-124429149D01*
X152202301Y-124409583D01*
X152208330Y-124388581D01*
X152212614Y-124375303D01*
X152222507Y-124348689D01*
X152236909Y-124314459D01*
X152254752Y-124274815D01*
X152274964Y-124231954D01*
X152296478Y-124188077D01*
X152318222Y-124145381D01*
X152339128Y-124106068D01*
X152358125Y-124072335D01*
X152367710Y-124056416D01*
X152425925Y-123972082D01*
X152493030Y-123891136D01*
X152567241Y-123815329D01*
X152646773Y-123746414D01*
X152729841Y-123686140D01*
X152771402Y-123660229D01*
X152839838Y-123623270D01*
X152913144Y-123589780D01*
X152987742Y-123561201D01*
X153060052Y-123538975D01*
X153091031Y-123531400D01*
X153108717Y-123527406D01*
X153120800Y-123523938D01*
X153126617Y-123520240D01*
X153125504Y-123515555D01*
X153116798Y-123509127D01*
X153099836Y-123500199D01*
X153073955Y-123488016D01*
X153039007Y-123472055D01*
X153004006Y-123456010D01*
X152965242Y-123438098D01*
X152927332Y-123420459D01*
X152894893Y-123405234D01*
X152893685Y-123404664D01*
X152825748Y-123372552D01*
X152744108Y-123440592D01*
X152630398Y-123541298D01*
X152526302Y-123645793D01*
X152432261Y-123753597D01*
X152348716Y-123864227D01*
X152324739Y-123899440D01*
X152263643Y-123997058D01*
X152211640Y-124092621D01*
X152167558Y-124188779D01*
X152130229Y-124288186D01*
X152098482Y-124393491D01*
X152086895Y-124438633D01*
X152074356Y-124487139D01*
X152063012Y-124525256D01*
X152052604Y-124553791D01*
X152044390Y-124570955D01*
X152026567Y-124602536D01*
X152045666Y-124622990D01*
X152063686Y-124642975D01*
X152073747Y-124655892D01*
X152076234Y-124662277D01*
X152074437Y-124663200D01*
X152067989Y-124659488D01*
X152056419Y-124649825D01*
X152044259Y-124638286D01*
X152019293Y-124613372D01*
X151999391Y-124631237D01*
X151958356Y-124662323D01*
X151914355Y-124685287D01*
X151886356Y-124694827D01*
X151866944Y-124700437D01*
X151851862Y-124705584D01*
X151844594Y-124709021D01*
X151843405Y-124715308D01*
X151848805Y-124727149D01*
X151861252Y-124745285D01*
X151881201Y-124770458D01*
X151885870Y-124776089D01*
X151911756Y-124807134D01*
X151880711Y-124781381D01*
X151856048Y-124761377D01*
X151838043Y-124747995D01*
X151825076Y-124740179D01*
X151815532Y-124736875D01*
X151812043Y-124736578D01*
X151803545Y-124740064D01*
X151789223Y-124749368D01*
X151771643Y-124762755D01*
X151764493Y-124768678D01*
X151726656Y-124800778D01*
X151755706Y-124764728D01*
X151769155Y-124747492D01*
X151779301Y-124733450D01*
X151784443Y-124724992D01*
X151784756Y-124723905D01*
X151779879Y-124721735D01*
X151767752Y-124722254D01*
X151763589Y-124722902D01*
X151751601Y-124725772D01*
X151732424Y-124731178D01*
X151708335Y-124738393D01*
X151681608Y-124746693D01*
X151654519Y-124755349D01*
X151629345Y-124763636D01*
X151608359Y-124770828D01*
X151593839Y-124776198D01*
X151588156Y-124778896D01*
X151591004Y-124783609D01*
X151600642Y-124794972D01*
X151615865Y-124811662D01*
X151635470Y-124832357D01*
X151656239Y-124853693D01*
X151692154Y-124890413D01*
X151720079Y-124919566D01*
X151740204Y-124941366D01*
X151752718Y-124956026D01*
X151757810Y-124963761D01*
X151755669Y-124964785D01*
X151753711Y-124963850D01*
X151746528Y-124958144D01*
X151732823Y-124945606D01*
X151713925Y-124927515D01*
X151691163Y-124905152D01*
X151665868Y-124879794D01*
X151656551Y-124870336D01*
X151570680Y-124782870D01*
X151506105Y-124815225D01*
X151447293Y-124847263D01*
X151386815Y-124884901D01*
X151327039Y-124926389D01*
X151270333Y-124969978D01*
X151219066Y-125013916D01*
X151175606Y-125056454D01*
X151167025Y-125065787D01*
X151095104Y-125152284D01*
X151026730Y-125247425D01*
X150973627Y-125331758D01*
X150943756Y-125382248D01*
X151025051Y-125464402D01*
X151062399Y-125502366D01*
X151091872Y-125532834D01*
X151113750Y-125556119D01*
X151128313Y-125572534D01*
X151135839Y-125582390D01*
X151136608Y-125586001D01*
X151132498Y-125584577D01*
X151125326Y-125578861D01*
X151111606Y-125566252D01*
X151092617Y-125547990D01*
X151069639Y-125525315D01*
X151043951Y-125499469D01*
X151029900Y-125485138D01*
X150938915Y-125391909D01*
X150910089Y-125451221D01*
X150886977Y-125500083D01*
X150869751Y-125539466D01*
X150858365Y-125569497D01*
X150852772Y-125590299D01*
X150852925Y-125602000D01*
X150853748Y-125603392D01*
X150867468Y-125613463D01*
X150884778Y-125614309D01*
X150906323Y-125605768D01*
X150932747Y-125587677D01*
X150940181Y-125581652D01*
X150968806Y-125557845D01*
X150939337Y-125593415D01*
X150925566Y-125611173D01*
X150915235Y-125626659D01*
X150910122Y-125637139D01*
X150909867Y-125638726D01*
X150911536Y-125647294D01*
X150917249Y-125658567D01*
X150928063Y-125674164D01*
X150945035Y-125695708D01*
X150954670Y-125707422D01*
X150980422Y-125738467D01*
X150949378Y-125712715D01*
X150923689Y-125691814D01*
X150904556Y-125677873D01*
X150890081Y-125670371D01*
X150878365Y-125668785D01*
X150867510Y-125672596D01*
X150855617Y-125681281D01*
X150850607Y-125685596D01*
X150835975Y-125696936D01*
X150828375Y-125699666D01*
X150828309Y-125694208D01*
X150836280Y-125680987D01*
X150839682Y-125676394D01*
X150850565Y-125657103D01*
X150855152Y-125637798D01*
X150852914Y-125621830D01*
X150849162Y-125616237D01*
X150844765Y-125616233D01*
X150839551Y-125625201D01*
X150832993Y-125644122D01*
X150831564Y-125648881D01*
X150826504Y-125666107D01*
X150822600Y-125679952D01*
X150819220Y-125693067D01*
X150815730Y-125708104D01*
X150811498Y-125727713D01*
X150805893Y-125754546D01*
X150802789Y-125769511D01*
X150796598Y-125800557D01*
X150793150Y-125823013D01*
X150792659Y-125839291D01*
X150795335Y-125851801D01*
X150801392Y-125862956D01*
X150811041Y-125875166D01*
X150812214Y-125876541D01*
X150822711Y-125889752D01*
X150825385Y-125895642D01*
X150821628Y-125894798D01*
X150808907Y-125885835D01*
X150802878Y-125879886D01*
X150794199Y-125871741D01*
X150788894Y-125872844D01*
X150786716Y-125883731D01*
X150614031Y-125883731D01*
X150614306Y-125847250D01*
X150615080Y-125814960D01*
X150616557Y-125788395D01*
X150618975Y-125764773D01*
X150622572Y-125741313D01*
X150627586Y-125715234D01*
X150629601Y-125705541D01*
X150660175Y-125586483D01*
X150701625Y-125468528D01*
X150754040Y-125351486D01*
X150817512Y-125235167D01*
X150892129Y-125119382D01*
X150938229Y-125055489D01*
X150990787Y-124988803D01*
X151043735Y-124929160D01*
X151099304Y-124874472D01*
X151159723Y-124822654D01*
X151227220Y-124771621D01*
X151282066Y-124733782D01*
X151357466Y-124686696D01*
X151433180Y-124646287D01*
X151511465Y-124611630D01*
X151594579Y-124581800D01*
X151684779Y-124555873D01*
X151759356Y-124538232D01*
X151789344Y-124531229D01*
X151816701Y-124523988D01*
X151838853Y-124517252D01*
X151853229Y-124511760D01*
X151855526Y-124510536D01*
X151868222Y-124500538D01*
X151879182Y-124486356D01*
X151889090Y-124466457D01*
X151898630Y-124439306D01*
X151908487Y-124403368D01*
X151914558Y-124378156D01*
X151950087Y-124250001D01*
X151996803Y-124123093D01*
X152054716Y-123997416D01*
X152123834Y-123872954D01*
X152204164Y-123749691D01*
X152287547Y-123637877D01*
X152320239Y-123598670D01*
X152360080Y-123554326D01*
X152405294Y-123506620D01*
X152454104Y-123457325D01*
X152504731Y-123408216D01*
X152555400Y-123361064D01*
X152604332Y-123317646D01*
X152631259Y-123294837D01*
X152670276Y-123262514D01*
X152701748Y-123236692D01*
X152726781Y-123216621D01*
X152746480Y-123201547D01*
X152761949Y-123190719D01*
X152774294Y-123183385D01*
X152784621Y-123178793D01*
X152794033Y-123176191D01*
X152803638Y-123174826D01*
X152808211Y-123174424D01*
X152820154Y-123173895D01*
X152831301Y-123174857D01*
X152831301Y-123174857D01*
G37*
X152831301Y-123174857D02*
X152843737Y-123178015D01*
X152859545Y-123184076D01*
X152880809Y-123193744D01*
X152909611Y-123207727D01*
X152916467Y-123211107D01*
X152949758Y-123227297D01*
X152989413Y-123246199D01*
X153031477Y-123265949D01*
X153071993Y-123284683D01*
X153091445Y-123293544D01*
X153140314Y-123315914D01*
X153179912Y-123334687D01*
X153211414Y-123350535D01*
X153236000Y-123364131D01*
X153254847Y-123376148D01*
X153269133Y-123387256D01*
X153280036Y-123398129D01*
X153284718Y-123403859D01*
X153303306Y-123435682D01*
X153317296Y-123475231D01*
X153325859Y-123519589D01*
X153328247Y-123556889D01*
X153327956Y-123581770D01*
X153326334Y-123598662D01*
X153322748Y-123610842D01*
X153316567Y-123621590D01*
X153315487Y-123623126D01*
X153300669Y-123637513D01*
X153276706Y-123653149D01*
X153245535Y-123669125D01*
X153209093Y-123684533D01*
X153169316Y-123698465D01*
X153132524Y-123708926D01*
X153039003Y-123737622D01*
X152947302Y-123775743D01*
X152860027Y-123822053D01*
X152779780Y-123875315D01*
X152775736Y-123878336D01*
X152727714Y-123917769D01*
X152678319Y-123964361D01*
X152629859Y-124015554D01*
X152584637Y-124068794D01*
X152544961Y-124121522D01*
X152515862Y-124166489D01*
X152497385Y-124199292D01*
X152477468Y-124237039D01*
X152457036Y-124277744D01*
X152437012Y-124319422D01*
X152418318Y-124360090D01*
X152401880Y-124397762D01*
X152388620Y-124430453D01*
X152379461Y-124456179D01*
X152376839Y-124465286D01*
X152370702Y-124495732D01*
X152367736Y-124524409D01*
X152367979Y-124548832D01*
X152371464Y-124566510D01*
X152375328Y-124573052D01*
X152382316Y-124576130D01*
X152398292Y-124581306D01*
X152421280Y-124587995D01*
X152449302Y-124595613D01*
X152468516Y-124600592D01*
X152588023Y-124634361D01*
X152698123Y-124672697D01*
X152799991Y-124716232D01*
X152894800Y-124765599D01*
X152983725Y-124821429D01*
X153067939Y-124884356D01*
X153148618Y-124955012D01*
X153176391Y-124981836D01*
X153257142Y-125069655D01*
X153329804Y-125165248D01*
X153394270Y-125268402D01*
X153450430Y-125378905D01*
X153498176Y-125496545D01*
X153537398Y-125621109D01*
X153565737Y-125741026D01*
X153570694Y-125766319D01*
X153574377Y-125787676D01*
X153576933Y-125807423D01*
X153578511Y-125827887D01*
X153579256Y-125851393D01*
X153579318Y-125880267D01*
X153578844Y-125916836D01*
X153578414Y-125940759D01*
X153577559Y-125982216D01*
X153576618Y-126014338D01*
X153575392Y-126039078D01*
X153573682Y-126058389D01*
X153571289Y-126074225D01*
X153568013Y-126088539D01*
X153563655Y-126103285D01*
X153561004Y-126111443D01*
X153538069Y-126166143D01*
X153508238Y-126213024D01*
X153472104Y-126251453D01*
X153430257Y-126280798D01*
X153384026Y-126300209D01*
X153360518Y-126307232D01*
X153372725Y-126330472D01*
X153376440Y-126338069D01*
X153379314Y-126345980D01*
X153381456Y-126355697D01*
X153382971Y-126368713D01*
X153383968Y-126386523D01*
X153384553Y-126410621D01*
X153384834Y-126442498D01*
X153384917Y-126483650D01*
X153384919Y-126500467D01*
X153384759Y-126543977D01*
X153384307Y-126596127D01*
X153383592Y-126655514D01*
X153382644Y-126720729D01*
X153381494Y-126790369D01*
X153380170Y-126863026D01*
X153378704Y-126937296D01*
X153377126Y-127011773D01*
X153375464Y-127085050D01*
X153373750Y-127155721D01*
X153372013Y-127222383D01*
X153370283Y-127283627D01*
X153368590Y-127338049D01*
X153366965Y-127384243D01*
X153365436Y-127420803D01*
X153365178Y-127426156D01*
X153356091Y-127581814D01*
X153344702Y-127726811D01*
X153330946Y-127861550D01*
X153314762Y-127986432D01*
X153296086Y-128101861D01*
X153274855Y-128208240D01*
X153251005Y-128305972D01*
X153224474Y-128395459D01*
X153203895Y-128454422D01*
X153178426Y-128518826D01*
X153152904Y-128574771D01*
X153125786Y-128624988D01*
X153095532Y-128672209D01*
X153060597Y-128719163D01*
X153040276Y-128744134D01*
X152966409Y-128827562D01*
X152893007Y-128900153D01*
X152819578Y-128962320D01*
X152745633Y-129014474D01*
X152670681Y-129057027D01*
X152662765Y-129060939D01*
X152626286Y-129075980D01*
X152595232Y-129082467D01*
X152567888Y-129080587D01*
X152547987Y-129073413D01*
X152542670Y-129070900D01*
X152537962Y-129068556D01*
X152533545Y-129065702D01*
X152529102Y-129061661D01*
X152524314Y-129055755D01*
X152518864Y-129047305D01*
X152512433Y-129035633D01*
X152504703Y-129020061D01*
X152495356Y-128999911D01*
X152484075Y-128974505D01*
X152470541Y-128943165D01*
X152454435Y-128905212D01*
X152435441Y-128859968D01*
X152413240Y-128806756D01*
X152387513Y-128744897D01*
X152357944Y-128673713D01*
X152337957Y-128625600D01*
X152323949Y-128591720D01*
X152307783Y-128552366D01*
X152291510Y-128512541D01*
X152277825Y-128478845D01*
X152265027Y-128447476D01*
X152251974Y-128415955D01*
X152240069Y-128387640D01*
X152230715Y-128365889D01*
X152229500Y-128363134D01*
X152207283Y-128310361D01*
X152191556Y-128265670D01*
X152182591Y-128227716D01*
X152180661Y-128195157D01*
X152186040Y-128166652D01*
X152199000Y-128140856D01*
X152219813Y-128116429D01*
X152248753Y-128092027D01*
X152286093Y-128066309D01*
X152290374Y-128063565D01*
X152320337Y-128043601D01*
X152343378Y-128025847D01*
X152362711Y-128007543D01*
X152381549Y-127985926D01*
X152383419Y-127983614D01*
X152423260Y-127927159D01*
X152452222Y-127869994D01*
X152470711Y-127811051D01*
X152479129Y-127749263D01*
X152479757Y-127729384D01*
X152474725Y-127668249D01*
X152458975Y-127608533D01*
X152433074Y-127551350D01*
X152397589Y-127497811D01*
X152353086Y-127449028D01*
X152324083Y-127423920D01*
X152288194Y-127397400D01*
X152254556Y-127377492D01*
X152220575Y-127363371D01*
X152183654Y-127354209D01*
X152141199Y-127349180D01*
X152090615Y-127347457D01*
X152083911Y-127347434D01*
X152050718Y-127347674D01*
X152025910Y-127348689D01*
X152006593Y-127350808D01*
X151989874Y-127354364D01*
X151972856Y-127359685D01*
X151971022Y-127360329D01*
X151918439Y-127383745D01*
X151868057Y-127415334D01*
X151822077Y-127453249D01*
X151782701Y-127495648D01*
X151752131Y-127540684D01*
X151749122Y-127546249D01*
X151724533Y-127604170D01*
X151709629Y-127664692D01*
X151704218Y-127726329D01*
X151708110Y-127787598D01*
X151721116Y-127847013D01*
X151743046Y-127903091D01*
X151773710Y-127954347D01*
X151806276Y-127992789D01*
X151828377Y-128013337D01*
X151855569Y-128036089D01*
X151883327Y-128057332D01*
X151894822Y-128065428D01*
X151925769Y-128088350D01*
X151951638Y-128111206D01*
X151968065Y-128129424D01*
X151980494Y-128146892D01*
X151987579Y-128161423D01*
X151991120Y-128177995D01*
X151992697Y-128197607D01*
X151992829Y-128222418D01*
X151990935Y-128247221D01*
X151988209Y-128263052D01*
X151984096Y-128275916D01*
X151976128Y-128297661D01*
X151964911Y-128326799D01*
X151951055Y-128361842D01*
X151935167Y-128401302D01*
X151917855Y-128443691D01*
X151899728Y-128487522D01*
X151881394Y-128531306D01*
X151863460Y-128573555D01*
X151846536Y-128612783D01*
X151831228Y-128647500D01*
X151829659Y-128651000D01*
X151816749Y-128680515D01*
X151801184Y-128717281D01*
X151784330Y-128758004D01*
X151767553Y-128799385D01*
X151753880Y-128833877D01*
X151729392Y-128894857D01*
X151707632Y-128945535D01*
X151688307Y-128986485D01*
X151671124Y-129018283D01*
X151655790Y-129041503D01*
X151642011Y-129056720D01*
X151639153Y-129059056D01*
X151626687Y-129067390D01*
X151614197Y-129072026D01*
X151597651Y-129073992D01*
X151579173Y-129074334D01*
X151539222Y-129074334D01*
X151446048Y-129011380D01*
X151372549Y-128959550D01*
X151308180Y-128909207D01*
X151251227Y-128858685D01*
X151199981Y-128806320D01*
X151152729Y-128750444D01*
X151107762Y-128689393D01*
X151093203Y-128667934D01*
X151041980Y-128582838D01*
X150996537Y-128490861D01*
X150958318Y-128395341D01*
X150928769Y-128299615D01*
X150922151Y-128272822D01*
X150917160Y-128249416D01*
X150910854Y-128216811D01*
X150903562Y-128176975D01*
X150895614Y-128131877D01*
X150887340Y-128083486D01*
X150879070Y-128033772D01*
X150871133Y-127984703D01*
X150863859Y-127938248D01*
X150857578Y-127896376D01*
X150852620Y-127861055D01*
X150850765Y-127846667D01*
X150848367Y-127823319D01*
X150845752Y-127790942D01*
X150842987Y-127750987D01*
X150840137Y-127704907D01*
X150837267Y-127654150D01*
X150834444Y-127600170D01*
X150831733Y-127544416D01*
X150829199Y-127488340D01*
X150826909Y-127433393D01*
X150824927Y-127381026D01*
X150823319Y-127332690D01*
X150822151Y-127289836D01*
X150821489Y-127253915D01*
X150821398Y-127226379D01*
X150821932Y-127208845D01*
X150822641Y-127189424D01*
X150822796Y-127161003D01*
X150822430Y-127125857D01*
X150821574Y-127086258D01*
X150820259Y-127044482D01*
X150819282Y-127019756D01*
X150817674Y-126979627D01*
X150815886Y-126930750D01*
X150814001Y-126875660D01*
X150812102Y-126816894D01*
X150810272Y-126756989D01*
X150808593Y-126698481D01*
X150807594Y-126661334D01*
X150806512Y-126621167D01*
X150984648Y-126621167D01*
X150985347Y-126678651D01*
X150986823Y-126745623D01*
X150989078Y-126821787D01*
X150991579Y-126892756D01*
X150993539Y-126948327D01*
X150995323Y-127005370D01*
X150996882Y-127061750D01*
X150998163Y-127115329D01*
X150999116Y-127163973D01*
X150999689Y-127205544D01*
X150999834Y-127237067D01*
X151000091Y-127280719D01*
X151001025Y-127331281D01*
X151002549Y-127386929D01*
X151004580Y-127445840D01*
X151007033Y-127506190D01*
X151009823Y-127566156D01*
X151012866Y-127623914D01*
X151016075Y-127677641D01*
X151019368Y-127725512D01*
X151022659Y-127765705D01*
X151025798Y-127795867D01*
X151029931Y-127827007D01*
X151035563Y-127865748D01*
X151042363Y-127910111D01*
X151050000Y-127958117D01*
X151058143Y-128007787D01*
X151066460Y-128057144D01*
X151074622Y-128104206D01*
X151082295Y-128146996D01*
X151089150Y-128183536D01*
X151094855Y-128211845D01*
X151097109Y-128222022D01*
X151122393Y-128311008D01*
X151156260Y-128398933D01*
X151197718Y-128484099D01*
X151245772Y-128564806D01*
X151299429Y-128639357D01*
X151357698Y-128706053D01*
X151407710Y-128753252D01*
X151435341Y-128776303D01*
X151462859Y-128798123D01*
X151488815Y-128817679D01*
X151511760Y-128833941D01*
X151530247Y-128845877D01*
X151542826Y-128852457D01*
X151547847Y-128853013D01*
X151551059Y-128846559D01*
X151557592Y-128831289D01*
X151566738Y-128808936D01*
X151577788Y-128781228D01*
X151590035Y-128749897D01*
X151590081Y-128749778D01*
X151605406Y-128710935D01*
X151622580Y-128668616D01*
X151639970Y-128626774D01*
X151655942Y-128589359D01*
X151663586Y-128571978D01*
X151673165Y-128550200D01*
X151685230Y-128522292D01*
X151699166Y-128489723D01*
X151714357Y-128453962D01*
X151730187Y-128416478D01*
X151746041Y-128378742D01*
X151761304Y-128342223D01*
X151775361Y-128308390D01*
X151787595Y-128278714D01*
X151797391Y-128254662D01*
X151804135Y-128237706D01*
X151807210Y-128229314D01*
X151807334Y-128228740D01*
X151802972Y-128224818D01*
X151791350Y-128216312D01*
X151774662Y-128204808D01*
X151768019Y-128200359D01*
X151706115Y-128152543D01*
X151652156Y-128097019D01*
X151606755Y-128034661D01*
X151570526Y-127966345D01*
X151544081Y-127892943D01*
X151538975Y-127873509D01*
X151533652Y-127844020D01*
X151529670Y-127806686D01*
X151527154Y-127764883D01*
X151526232Y-127721989D01*
X151527029Y-127681382D01*
X151529672Y-127646438D01*
X151530300Y-127641409D01*
X151541119Y-127584105D01*
X151557640Y-127527427D01*
X151578471Y-127475919D01*
X151584989Y-127462845D01*
X151623777Y-127400465D01*
X151671787Y-127342662D01*
X151727418Y-127290813D01*
X151789067Y-127246297D01*
X151855131Y-127210490D01*
X151899359Y-127192651D01*
X151920490Y-127185400D01*
X151937821Y-127180094D01*
X151953843Y-127176383D01*
X151971049Y-127173913D01*
X151991928Y-127172333D01*
X152018972Y-127171292D01*
X152054674Y-127170436D01*
X152056979Y-127170387D01*
X152123486Y-127170233D01*
X152180847Y-127173120D01*
X152230894Y-127179454D01*
X152275459Y-127189645D01*
X152316373Y-127204101D01*
X152355470Y-127223229D01*
X152390542Y-127244728D01*
X152458248Y-127296135D01*
X152517161Y-127354207D01*
X152566935Y-127418488D01*
X152607220Y-127488519D01*
X152637670Y-127563842D01*
X152640932Y-127574143D01*
X152646358Y-127592502D01*
X152650303Y-127608459D01*
X152652992Y-127624348D01*
X152654647Y-127642500D01*
X152655491Y-127665249D01*
X152655748Y-127694927D01*
X152655669Y-127728134D01*
X152655282Y-127768257D01*
X152654401Y-127799460D01*
X152652831Y-127824109D01*
X152650376Y-127844570D01*
X152646839Y-127863206D01*
X152643279Y-127877711D01*
X152623557Y-127936438D01*
X152596030Y-127995010D01*
X152562136Y-128051372D01*
X152523315Y-128103473D01*
X152481009Y-128149258D01*
X152436656Y-128186673D01*
X152417688Y-128199445D01*
X152398311Y-128212167D01*
X152383529Y-128223191D01*
X152375342Y-128230951D01*
X152374392Y-128233311D01*
X152377543Y-128240936D01*
X152383908Y-128255906D01*
X152392206Y-128275211D01*
X152393613Y-128278467D01*
X152402242Y-128298791D01*
X152413676Y-128326239D01*
X152426527Y-128357454D01*
X152439407Y-128389078D01*
X152441469Y-128394178D01*
X152455103Y-128427775D01*
X152469783Y-128463683D01*
X152483789Y-128497709D01*
X152495402Y-128525659D01*
X152495889Y-128526822D01*
X152504966Y-128548553D01*
X152517384Y-128578377D01*
X152532173Y-128613955D01*
X152548359Y-128652948D01*
X152564970Y-128693017D01*
X152573283Y-128713089D01*
X152591320Y-128756600D01*
X152605571Y-128790783D01*
X152616539Y-128816756D01*
X152624729Y-128835632D01*
X152630644Y-128848528D01*
X152634789Y-128856557D01*
X152637666Y-128860837D01*
X152639781Y-128862481D01*
X152640866Y-128862667D01*
X152646625Y-128859592D01*
X152659390Y-128851312D01*
X152677027Y-128839241D01*
X152689840Y-128830211D01*
X152724418Y-128803289D01*
X152762448Y-128769737D01*
X152802209Y-128731420D01*
X152841975Y-128690200D01*
X152880023Y-128647941D01*
X152914630Y-128606507D01*
X152944071Y-128567759D01*
X152966624Y-128533562D01*
X152970497Y-128526822D01*
X153004288Y-128459264D01*
X153035264Y-128383080D01*
X153063466Y-128298036D01*
X153088933Y-128203899D01*
X153111707Y-128100436D01*
X153131828Y-127987412D01*
X153149335Y-127864594D01*
X153164269Y-127731749D01*
X153176670Y-127588643D01*
X153186579Y-127435042D01*
X153194036Y-127270713D01*
X153195774Y-127220134D01*
X153197290Y-127167868D01*
X153198649Y-127111602D01*
X153199795Y-127054417D01*
X153200674Y-126999394D01*
X153201228Y-126949617D01*
X153201404Y-126909689D01*
X153201697Y-126863172D01*
X153202548Y-126809378D01*
X153203862Y-126752300D01*
X153205544Y-126695931D01*
X153207498Y-126644265D01*
X153208055Y-126631741D01*
X153209749Y-126592391D01*
X153211044Y-126556843D01*
X153211904Y-126526626D01*
X153212292Y-126503269D01*
X153212172Y-126488304D01*
X153211612Y-126483286D01*
X153205376Y-126483377D01*
X153189761Y-126485435D01*
X153166451Y-126489185D01*
X153137132Y-126494351D01*
X153103486Y-126500659D01*
X153093508Y-126502594D01*
X152968752Y-126525098D01*
X152839174Y-126544724D01*
X152703065Y-126561694D01*
X152558716Y-126576227D01*
X152456445Y-126584718D01*
X152413048Y-126587442D01*
X152360812Y-126589727D01*
X152301437Y-126591573D01*
X152236623Y-126592976D01*
X152168069Y-126593935D01*
X152097477Y-126594446D01*
X152026545Y-126594508D01*
X151956975Y-126594118D01*
X151890464Y-126593274D01*
X151828715Y-126591974D01*
X151773426Y-126590214D01*
X151726298Y-126587993D01*
X151694445Y-126585785D01*
X151562826Y-126573796D01*
X151442260Y-126560968D01*
X151332538Y-126547273D01*
X151233454Y-126532684D01*
X151144799Y-126517172D01*
X151090248Y-126506059D01*
X151059392Y-126499446D01*
X151032198Y-126493784D01*
X151010669Y-126489478D01*
X150996808Y-126486930D01*
X150992797Y-126486409D01*
X150989618Y-126492019D01*
X150987213Y-126508596D01*
X150985582Y-126535843D01*
X150984727Y-126573466D01*
X150984648Y-126621167D01*
X150806512Y-126621167D01*
X150806229Y-126610691D01*
X150804827Y-126561734D01*
X150803438Y-126516053D01*
X150802115Y-126475239D01*
X150800908Y-126440881D01*
X150799869Y-126414570D01*
X150799051Y-126397896D01*
X150799026Y-126397487D01*
X150798079Y-126369815D01*
X150799495Y-126350360D01*
X150803527Y-126336248D01*
X150804614Y-126333924D01*
X150813108Y-126316898D01*
X150781054Y-126294918D01*
X150737740Y-126260384D01*
X150701440Y-126220519D01*
X150671415Y-126174104D01*
X150646923Y-126119924D01*
X150627227Y-126056760D01*
X150621255Y-126031978D01*
X150617722Y-126008107D01*
X150615352Y-125973072D01*
X150614147Y-125926941D01*
X150613999Y-125888045D01*
X150614031Y-125883731D01*
X150786716Y-125883731D01*
X150787416Y-125904938D01*
X150788023Y-125912034D01*
X150790972Y-125938900D01*
X150794643Y-125965100D01*
X150798613Y-125988298D01*
X150802461Y-126006164D01*
X150805766Y-126016366D01*
X150807146Y-126017867D01*
X150813196Y-126014507D01*
X150820557Y-126008494D01*
X150830330Y-126001853D01*
X150834424Y-126003189D01*
X150832447Y-126010504D01*
X150824009Y-126021800D01*
X150823312Y-126022537D01*
X150808135Y-126038378D01*
X150825339Y-126072806D01*
X150850457Y-126111272D01*
X150883148Y-126142380D01*
X150909248Y-126158662D01*
X150924410Y-126164813D01*
X150948258Y-126172477D01*
X150979500Y-126181373D01*
X151016848Y-126191222D01*
X151059011Y-126201742D01*
X151104700Y-126212654D01*
X151152624Y-126223677D01*
X151201495Y-126234531D01*
X151250023Y-126244935D01*
X151296917Y-126254609D01*
X151340887Y-126263273D01*
X151380645Y-126270645D01*
X151414901Y-126276446D01*
X151442364Y-126280396D01*
X151461744Y-126282213D01*
X151471753Y-126281618D01*
X151472573Y-126281131D01*
X151476824Y-126269592D01*
X151474536Y-126252702D01*
X151466501Y-126233691D01*
X151457708Y-126220633D01*
X151439224Y-126197632D01*
X151465666Y-126217816D01*
X151480649Y-126228668D01*
X151492229Y-126235995D01*
X151496954Y-126238000D01*
X151512754Y-126233957D01*
X151533739Y-126222653D01*
X151557669Y-126205329D01*
X151561070Y-126202541D01*
X151589695Y-126178734D01*
X151560226Y-126214304D01*
X151546433Y-126232202D01*
X151536095Y-126247998D01*
X151531001Y-126258885D01*
X151530756Y-126260556D01*
X151534412Y-126272013D01*
X151543230Y-126284802D01*
X151543456Y-126285050D01*
X151549075Y-126290309D01*
X151556151Y-126294392D01*
X151566522Y-126297709D01*
X151582027Y-126300674D01*
X151604503Y-126303697D01*
X151635788Y-126307189D01*
X151648129Y-126308491D01*
X151680009Y-126311565D01*
X151708686Y-126313839D01*
X151731956Y-126315175D01*
X151747615Y-126315437D01*
X151752598Y-126314984D01*
X151766140Y-126314563D01*
X151773359Y-126316956D01*
X151781093Y-126318367D01*
X151798485Y-126319642D01*
X151823905Y-126320725D01*
X151855722Y-126321557D01*
X151892305Y-126322081D01*
X151922890Y-126322238D01*
X152064156Y-126322413D01*
X152065371Y-126320696D01*
X152082372Y-126320696D01*
X152084928Y-126323414D01*
X152095494Y-126326221D01*
X152113111Y-126327464D01*
X152133652Y-126327151D01*
X152152990Y-126325290D01*
X152162927Y-126323262D01*
X152170934Y-126320607D01*
X152172107Y-126317434D01*
X152165537Y-126311655D01*
X152154561Y-126304069D01*
X152135719Y-126292941D01*
X152121277Y-126289766D01*
X152107641Y-126294525D01*
X152095238Y-126303745D01*
X152084426Y-126314207D01*
X152082372Y-126320696D01*
X152065371Y-126320696D01*
X152080619Y-126299163D01*
X152093417Y-126276038D01*
X152096051Y-126255391D01*
X152088456Y-126234648D01*
X152078597Y-126220633D01*
X152060112Y-126197632D01*
X152086555Y-126217816D01*
X152101538Y-126228668D01*
X152113118Y-126235995D01*
X152117843Y-126238000D01*
X152133643Y-126233957D01*
X152154628Y-126222653D01*
X152178558Y-126205329D01*
X152181959Y-126202541D01*
X152210584Y-126178734D01*
X152181114Y-126214304D01*
X152167325Y-126232183D01*
X152156988Y-126247939D01*
X152151891Y-126258772D01*
X152151645Y-126260432D01*
X152154941Y-126270678D01*
X152163389Y-126285498D01*
X152170418Y-126295417D01*
X152189192Y-126319845D01*
X152253674Y-126318412D01*
X152296285Y-126316591D01*
X152347589Y-126312972D01*
X152405180Y-126307815D01*
X152466651Y-126301384D01*
X152529596Y-126293942D01*
X152591610Y-126285753D01*
X152650286Y-126277077D01*
X152686642Y-126271106D01*
X152705796Y-126267456D01*
X152716000Y-126264050D01*
X152719493Y-126259612D01*
X152718525Y-126252911D01*
X152712930Y-126241258D01*
X152702969Y-126225898D01*
X152697973Y-126219227D01*
X152681001Y-126197632D01*
X152707444Y-126217816D01*
X152722427Y-126228668D01*
X152734007Y-126235995D01*
X152738732Y-126238000D01*
X152754531Y-126233957D01*
X152775517Y-126222653D01*
X152799446Y-126205329D01*
X152802848Y-126202541D01*
X152831473Y-126178734D01*
X152801275Y-126215180D01*
X152788278Y-126231890D01*
X152779609Y-126245084D01*
X152776575Y-126252675D01*
X152777181Y-126253661D01*
X152784031Y-126253141D01*
X152799805Y-126250738D01*
X152822377Y-126246859D01*
X152849617Y-126241914D01*
X152879399Y-126236310D01*
X152909593Y-126230457D01*
X152938071Y-126224762D01*
X152962705Y-126219636D01*
X152981368Y-126215486D01*
X152991930Y-126212721D01*
X152993312Y-126212161D01*
X152990637Y-126207738D01*
X152981072Y-126196764D01*
X152965838Y-126180541D01*
X152946152Y-126160373D01*
X152926498Y-126140774D01*
X152893954Y-126108293D01*
X152865277Y-126078884D01*
X152841215Y-126053376D01*
X152822521Y-126032594D01*
X152809945Y-126017369D01*
X152804238Y-126008527D01*
X152804788Y-126006578D01*
X152809953Y-126010408D01*
X152821618Y-126021000D01*
X152838432Y-126037006D01*
X152859041Y-126057081D01*
X152882093Y-126079877D01*
X152906235Y-126104046D01*
X152930114Y-126128242D01*
X152952377Y-126151119D01*
X152971671Y-126171328D01*
X152986645Y-126187523D01*
X152987739Y-126188743D01*
X153006778Y-126210041D01*
X153074169Y-126193499D01*
X153141559Y-126176957D01*
X153227325Y-126087534D01*
X153253117Y-126061075D01*
X153276075Y-126038355D01*
X153295091Y-126020409D01*
X153309056Y-126008271D01*
X153316861Y-126002975D01*
X153317978Y-126002968D01*
X153315560Y-126008156D01*
X153305906Y-126019897D01*
X153290061Y-126037072D01*
X153269069Y-126058560D01*
X153243974Y-126083242D01*
X153235378Y-126091508D01*
X153147889Y-126175190D01*
X153235095Y-126152834D01*
X153266325Y-126144478D01*
X153294910Y-126136186D01*
X153318488Y-126128691D01*
X153334701Y-126122724D01*
X153339498Y-126120434D01*
X153361311Y-126101585D01*
X153379561Y-126073173D01*
X153391187Y-126043766D01*
X153396323Y-126020359D01*
X153400228Y-125988938D01*
X153402777Y-125952723D01*
X153403844Y-125914935D01*
X153403304Y-125878793D01*
X153401033Y-125847518D01*
X153399292Y-125835180D01*
X153393920Y-125806369D01*
X153387614Y-125775854D01*
X153380879Y-125745727D01*
X153374221Y-125718079D01*
X153368146Y-125695002D01*
X153363159Y-125678587D01*
X153359767Y-125670926D01*
X153359507Y-125670703D01*
X153353377Y-125672795D01*
X153341013Y-125680886D01*
X153324614Y-125693467D01*
X153316493Y-125700200D01*
X153278250Y-125732645D01*
X153305210Y-125699544D01*
X153324399Y-125674540D01*
X153335694Y-125654948D01*
X153339355Y-125638376D01*
X153335643Y-125622427D01*
X153324817Y-125604709D01*
X153316637Y-125594215D01*
X153307741Y-125583041D01*
X153305901Y-125579716D01*
X153310913Y-125583449D01*
X153314671Y-125586638D01*
X153326588Y-125596243D01*
X153335514Y-125602461D01*
X153336970Y-125599563D01*
X153334693Y-125588113D01*
X153329311Y-125569969D01*
X153321455Y-125546992D01*
X153311752Y-125521041D01*
X153300831Y-125493976D01*
X153291743Y-125473002D01*
X153274485Y-125434535D01*
X153247876Y-125459447D01*
X153231106Y-125475154D01*
X153209936Y-125494990D01*
X153188200Y-125515364D01*
X153182080Y-125521102D01*
X153169716Y-125532475D01*
X153164137Y-125536994D01*
X153165556Y-125534376D01*
X153174184Y-125524338D01*
X153190235Y-125506598D01*
X153205683Y-125489792D01*
X153268473Y-125421740D01*
X153244421Y-125376725D01*
X153212671Y-125320669D01*
X153179239Y-125268998D01*
X153144403Y-125221136D01*
X153126771Y-125198933D01*
X153106521Y-125174973D01*
X153085114Y-125150808D01*
X153064006Y-125127989D01*
X153044659Y-125108068D01*
X153028530Y-125092595D01*
X153017079Y-125083123D01*
X153012499Y-125080889D01*
X153003171Y-125084845D01*
X152998285Y-125089388D01*
X152992080Y-125095780D01*
X152979017Y-125108501D01*
X152960511Y-125126199D01*
X152937976Y-125147522D01*
X152912826Y-125171116D01*
X152911516Y-125172341D01*
X152887423Y-125194646D01*
X152871155Y-125209240D01*
X152862737Y-125216091D01*
X152862196Y-125215165D01*
X152869555Y-125206428D01*
X152884842Y-125189848D01*
X152908081Y-125165390D01*
X152939298Y-125133021D01*
X152949851Y-125122145D01*
X152970594Y-125100529D01*
X152984329Y-125085315D01*
X152992101Y-125074994D01*
X152994957Y-125068059D01*
X152993942Y-125063001D01*
X152992393Y-125060804D01*
X152983071Y-125051752D01*
X152966726Y-125037952D01*
X152945589Y-125021120D01*
X152921891Y-125002972D01*
X152897864Y-124985225D01*
X152875739Y-124969594D01*
X152861662Y-124960246D01*
X152829435Y-124939723D01*
X152800984Y-124973910D01*
X152787455Y-124991347D01*
X152777413Y-125006536D01*
X152772682Y-125016663D01*
X152772534Y-125017837D01*
X152774203Y-125026405D01*
X152779916Y-125037678D01*
X152790730Y-125053276D01*
X152807701Y-125074820D01*
X152817337Y-125086534D01*
X152843089Y-125117578D01*
X152812045Y-125091826D01*
X152787382Y-125071821D01*
X152769376Y-125058439D01*
X152756410Y-125050624D01*
X152746865Y-125047319D01*
X152743377Y-125047022D01*
X152734895Y-125050509D01*
X152720571Y-125059818D01*
X152702956Y-125073225D01*
X152695513Y-125079389D01*
X152657361Y-125111756D01*
X152684321Y-125078655D01*
X152703576Y-125053521D01*
X152714880Y-125033802D01*
X152718485Y-125017158D01*
X152714642Y-125001248D01*
X152703601Y-124983730D01*
X152695574Y-124973771D01*
X152679592Y-124954778D01*
X152706740Y-124975500D01*
X152723090Y-124987675D01*
X152733919Y-124993944D01*
X152742640Y-124995296D01*
X152752670Y-124992718D01*
X152758597Y-124990511D01*
X152770760Y-124984113D01*
X152786057Y-124973760D01*
X152801651Y-124961705D01*
X152814706Y-124950202D01*
X152822386Y-124941503D01*
X152823334Y-124939077D01*
X152818524Y-124935038D01*
X152805382Y-124927245D01*
X152785836Y-124916650D01*
X152761815Y-124904205D01*
X152735246Y-124890862D01*
X152708059Y-124877574D01*
X152682182Y-124865292D01*
X152659543Y-124854968D01*
X152642072Y-124847554D01*
X152631696Y-124844002D01*
X152630386Y-124843829D01*
X152622749Y-124847518D01*
X152609001Y-124857565D01*
X152591098Y-124872430D01*
X152571196Y-124890389D01*
X152521508Y-124936956D01*
X152568248Y-124886156D01*
X152614989Y-124835356D01*
X152533535Y-124808898D01*
X152501715Y-124798840D01*
X152470553Y-124789480D01*
X152443077Y-124781694D01*
X152422314Y-124776361D01*
X152417637Y-124775326D01*
X152398611Y-124771650D01*
X152386717Y-124770964D01*
X152378030Y-124773976D01*
X152368629Y-124781392D01*
X152364785Y-124784851D01*
X152346378Y-124801489D01*
X152377136Y-124767303D01*
X152336256Y-124754613D01*
X152290573Y-124735157D01*
X152251937Y-124707630D01*
X152221411Y-124672801D01*
X152219682Y-124670225D01*
X152200230Y-124640735D01*
X152185815Y-124653220D01*
X152176873Y-124660884D01*
X152175447Y-124661566D01*
X152181609Y-124654730D01*
X152186288Y-124649692D01*
X152195856Y-124637733D01*
X152198341Y-124627208D01*
X152195579Y-124613409D01*
X152193697Y-124600336D01*
X152192456Y-124578634D01*
X152191935Y-124550949D01*
X152192217Y-124519928D01*
X152192449Y-124511047D01*
X152193718Y-124476700D01*
X152195468Y-124450461D01*
X152198171Y-124429149D01*
X152202301Y-124409583D01*
X152208330Y-124388581D01*
X152212614Y-124375303D01*
X152222507Y-124348689D01*
X152236909Y-124314459D01*
X152254752Y-124274815D01*
X152274964Y-124231954D01*
X152296478Y-124188077D01*
X152318222Y-124145381D01*
X152339128Y-124106068D01*
X152358125Y-124072335D01*
X152367710Y-124056416D01*
X152425925Y-123972082D01*
X152493030Y-123891136D01*
X152567241Y-123815329D01*
X152646773Y-123746414D01*
X152729841Y-123686140D01*
X152771402Y-123660229D01*
X152839838Y-123623270D01*
X152913144Y-123589780D01*
X152987742Y-123561201D01*
X153060052Y-123538975D01*
X153091031Y-123531400D01*
X153108717Y-123527406D01*
X153120800Y-123523938D01*
X153126617Y-123520240D01*
X153125504Y-123515555D01*
X153116798Y-123509127D01*
X153099836Y-123500199D01*
X153073955Y-123488016D01*
X153039007Y-123472055D01*
X153004006Y-123456010D01*
X152965242Y-123438098D01*
X152927332Y-123420459D01*
X152894893Y-123405234D01*
X152893685Y-123404664D01*
X152825748Y-123372552D01*
X152744108Y-123440592D01*
X152630398Y-123541298D01*
X152526302Y-123645793D01*
X152432261Y-123753597D01*
X152348716Y-123864227D01*
X152324739Y-123899440D01*
X152263643Y-123997058D01*
X152211640Y-124092621D01*
X152167558Y-124188779D01*
X152130229Y-124288186D01*
X152098482Y-124393491D01*
X152086895Y-124438633D01*
X152074356Y-124487139D01*
X152063012Y-124525256D01*
X152052604Y-124553791D01*
X152044390Y-124570955D01*
X152026567Y-124602536D01*
X152045666Y-124622990D01*
X152063686Y-124642975D01*
X152073747Y-124655892D01*
X152076234Y-124662277D01*
X152074437Y-124663200D01*
X152067989Y-124659488D01*
X152056419Y-124649825D01*
X152044259Y-124638286D01*
X152019293Y-124613372D01*
X151999391Y-124631237D01*
X151958356Y-124662323D01*
X151914355Y-124685287D01*
X151886356Y-124694827D01*
X151866944Y-124700437D01*
X151851862Y-124705584D01*
X151844594Y-124709021D01*
X151843405Y-124715308D01*
X151848805Y-124727149D01*
X151861252Y-124745285D01*
X151881201Y-124770458D01*
X151885870Y-124776089D01*
X151911756Y-124807134D01*
X151880711Y-124781381D01*
X151856048Y-124761377D01*
X151838043Y-124747995D01*
X151825076Y-124740179D01*
X151815532Y-124736875D01*
X151812043Y-124736578D01*
X151803545Y-124740064D01*
X151789223Y-124749368D01*
X151771643Y-124762755D01*
X151764493Y-124768678D01*
X151726656Y-124800778D01*
X151755706Y-124764728D01*
X151769155Y-124747492D01*
X151779301Y-124733450D01*
X151784443Y-124724992D01*
X151784756Y-124723905D01*
X151779879Y-124721735D01*
X151767752Y-124722254D01*
X151763589Y-124722902D01*
X151751601Y-124725772D01*
X151732424Y-124731178D01*
X151708335Y-124738393D01*
X151681608Y-124746693D01*
X151654519Y-124755349D01*
X151629345Y-124763636D01*
X151608359Y-124770828D01*
X151593839Y-124776198D01*
X151588156Y-124778896D01*
X151591004Y-124783609D01*
X151600642Y-124794972D01*
X151615865Y-124811662D01*
X151635470Y-124832357D01*
X151656239Y-124853693D01*
X151692154Y-124890413D01*
X151720079Y-124919566D01*
X151740204Y-124941366D01*
X151752718Y-124956026D01*
X151757810Y-124963761D01*
X151755669Y-124964785D01*
X151753711Y-124963850D01*
X151746528Y-124958144D01*
X151732823Y-124945606D01*
X151713925Y-124927515D01*
X151691163Y-124905152D01*
X151665868Y-124879794D01*
X151656551Y-124870336D01*
X151570680Y-124782870D01*
X151506105Y-124815225D01*
X151447293Y-124847263D01*
X151386815Y-124884901D01*
X151327039Y-124926389D01*
X151270333Y-124969978D01*
X151219066Y-125013916D01*
X151175606Y-125056454D01*
X151167025Y-125065787D01*
X151095104Y-125152284D01*
X151026730Y-125247425D01*
X150973627Y-125331758D01*
X150943756Y-125382248D01*
X151025051Y-125464402D01*
X151062399Y-125502366D01*
X151091872Y-125532834D01*
X151113750Y-125556119D01*
X151128313Y-125572534D01*
X151135839Y-125582390D01*
X151136608Y-125586001D01*
X151132498Y-125584577D01*
X151125326Y-125578861D01*
X151111606Y-125566252D01*
X151092617Y-125547990D01*
X151069639Y-125525315D01*
X151043951Y-125499469D01*
X151029900Y-125485138D01*
X150938915Y-125391909D01*
X150910089Y-125451221D01*
X150886977Y-125500083D01*
X150869751Y-125539466D01*
X150858365Y-125569497D01*
X150852772Y-125590299D01*
X150852925Y-125602000D01*
X150853748Y-125603392D01*
X150867468Y-125613463D01*
X150884778Y-125614309D01*
X150906323Y-125605768D01*
X150932747Y-125587677D01*
X150940181Y-125581652D01*
X150968806Y-125557845D01*
X150939337Y-125593415D01*
X150925566Y-125611173D01*
X150915235Y-125626659D01*
X150910122Y-125637139D01*
X150909867Y-125638726D01*
X150911536Y-125647294D01*
X150917249Y-125658567D01*
X150928063Y-125674164D01*
X150945035Y-125695708D01*
X150954670Y-125707422D01*
X150980422Y-125738467D01*
X150949378Y-125712715D01*
X150923689Y-125691814D01*
X150904556Y-125677873D01*
X150890081Y-125670371D01*
X150878365Y-125668785D01*
X150867510Y-125672596D01*
X150855617Y-125681281D01*
X150850607Y-125685596D01*
X150835975Y-125696936D01*
X150828375Y-125699666D01*
X150828309Y-125694208D01*
X150836280Y-125680987D01*
X150839682Y-125676394D01*
X150850565Y-125657103D01*
X150855152Y-125637798D01*
X150852914Y-125621830D01*
X150849162Y-125616237D01*
X150844765Y-125616233D01*
X150839551Y-125625201D01*
X150832993Y-125644122D01*
X150831564Y-125648881D01*
X150826504Y-125666107D01*
X150822600Y-125679952D01*
X150819220Y-125693067D01*
X150815730Y-125708104D01*
X150811498Y-125727713D01*
X150805893Y-125754546D01*
X150802789Y-125769511D01*
X150796598Y-125800557D01*
X150793150Y-125823013D01*
X150792659Y-125839291D01*
X150795335Y-125851801D01*
X150801392Y-125862956D01*
X150811041Y-125875166D01*
X150812214Y-125876541D01*
X150822711Y-125889752D01*
X150825385Y-125895642D01*
X150821628Y-125894798D01*
X150808907Y-125885835D01*
X150802878Y-125879886D01*
X150794199Y-125871741D01*
X150788894Y-125872844D01*
X150786716Y-125883731D01*
X150614031Y-125883731D01*
X150614306Y-125847250D01*
X150615080Y-125814960D01*
X150616557Y-125788395D01*
X150618975Y-125764773D01*
X150622572Y-125741313D01*
X150627586Y-125715234D01*
X150629601Y-125705541D01*
X150660175Y-125586483D01*
X150701625Y-125468528D01*
X150754040Y-125351486D01*
X150817512Y-125235167D01*
X150892129Y-125119382D01*
X150938229Y-125055489D01*
X150990787Y-124988803D01*
X151043735Y-124929160D01*
X151099304Y-124874472D01*
X151159723Y-124822654D01*
X151227220Y-124771621D01*
X151282066Y-124733782D01*
X151357466Y-124686696D01*
X151433180Y-124646287D01*
X151511465Y-124611630D01*
X151594579Y-124581800D01*
X151684779Y-124555873D01*
X151759356Y-124538232D01*
X151789344Y-124531229D01*
X151816701Y-124523988D01*
X151838853Y-124517252D01*
X151853229Y-124511760D01*
X151855526Y-124510536D01*
X151868222Y-124500538D01*
X151879182Y-124486356D01*
X151889090Y-124466457D01*
X151898630Y-124439306D01*
X151908487Y-124403368D01*
X151914558Y-124378156D01*
X151950087Y-124250001D01*
X151996803Y-124123093D01*
X152054716Y-123997416D01*
X152123834Y-123872954D01*
X152204164Y-123749691D01*
X152287547Y-123637877D01*
X152320239Y-123598670D01*
X152360080Y-123554326D01*
X152405294Y-123506620D01*
X152454104Y-123457325D01*
X152504731Y-123408216D01*
X152555400Y-123361064D01*
X152604332Y-123317646D01*
X152631259Y-123294837D01*
X152670276Y-123262514D01*
X152701748Y-123236692D01*
X152726781Y-123216621D01*
X152746480Y-123201547D01*
X152761949Y-123190719D01*
X152774294Y-123183385D01*
X152784621Y-123178793D01*
X152794033Y-123176191D01*
X152803638Y-123174826D01*
X152808211Y-123174424D01*
X152820154Y-123173895D01*
X152831301Y-123174857D01*
G36*
X150947374Y-126010413D02*
X150959088Y-126021003D01*
X150975892Y-126036977D01*
X150996412Y-126056964D01*
X151019276Y-126079592D01*
X151043110Y-126103491D01*
X151066541Y-126127288D01*
X151088196Y-126149613D01*
X151106703Y-126169095D01*
X151120687Y-126184361D01*
X151124393Y-126188611D01*
X151135955Y-126202791D01*
X151139940Y-126209262D01*
X151136727Y-126208323D01*
X151126694Y-126200276D01*
X151110222Y-126185418D01*
X151087690Y-126164051D01*
X151063690Y-126140634D01*
X151031191Y-126108197D01*
X151002546Y-126078820D01*
X150978509Y-126053334D01*
X150959832Y-126032569D01*
X150947268Y-126017354D01*
X150941570Y-126008521D01*
X150942122Y-126006578D01*
X150947374Y-126010413D01*
X150947374Y-126010413D01*
G37*
X150947374Y-126010413D02*
X150959088Y-126021003D01*
X150975892Y-126036977D01*
X150996412Y-126056964D01*
X151019276Y-126079592D01*
X151043110Y-126103491D01*
X151066541Y-126127288D01*
X151088196Y-126149613D01*
X151106703Y-126169095D01*
X151120687Y-126184361D01*
X151124393Y-126188611D01*
X151135955Y-126202791D01*
X151139940Y-126209262D01*
X151136727Y-126208323D01*
X151126694Y-126200276D01*
X151110222Y-126185418D01*
X151087690Y-126164051D01*
X151063690Y-126140634D01*
X151031191Y-126108197D01*
X151002546Y-126078820D01*
X150978509Y-126053334D01*
X150959832Y-126032569D01*
X150947268Y-126017354D01*
X150941570Y-126008521D01*
X150942122Y-126006578D01*
X150947374Y-126010413D01*
G36*
X151568262Y-126010413D02*
X151579977Y-126021003D01*
X151596781Y-126036977D01*
X151617301Y-126056964D01*
X151640165Y-126079592D01*
X151663999Y-126103491D01*
X151687430Y-126127288D01*
X151709085Y-126149613D01*
X151727592Y-126169095D01*
X151741576Y-126184361D01*
X151745282Y-126188611D01*
X151756844Y-126202791D01*
X151760829Y-126209262D01*
X151757615Y-126208323D01*
X151747583Y-126200276D01*
X151731111Y-126185418D01*
X151708579Y-126164051D01*
X151684579Y-126140634D01*
X151652080Y-126108197D01*
X151623435Y-126078820D01*
X151599398Y-126053334D01*
X151580721Y-126032569D01*
X151568157Y-126017354D01*
X151562459Y-126008521D01*
X151563011Y-126006578D01*
X151568262Y-126010413D01*
X151568262Y-126010413D01*
G37*
X151568262Y-126010413D02*
X151579977Y-126021003D01*
X151596781Y-126036977D01*
X151617301Y-126056964D01*
X151640165Y-126079592D01*
X151663999Y-126103491D01*
X151687430Y-126127288D01*
X151709085Y-126149613D01*
X151727592Y-126169095D01*
X151741576Y-126184361D01*
X151745282Y-126188611D01*
X151756844Y-126202791D01*
X151760829Y-126209262D01*
X151757615Y-126208323D01*
X151747583Y-126200276D01*
X151731111Y-126185418D01*
X151708579Y-126164051D01*
X151684579Y-126140634D01*
X151652080Y-126108197D01*
X151623435Y-126078820D01*
X151599398Y-126053334D01*
X151580721Y-126032569D01*
X151568157Y-126017354D01*
X151562459Y-126008521D01*
X151563011Y-126006578D01*
X151568262Y-126010413D01*
G36*
X152189151Y-126010413D02*
X152200866Y-126021003D01*
X152217670Y-126036977D01*
X152238190Y-126056964D01*
X152261054Y-126079592D01*
X152284888Y-126103491D01*
X152308319Y-126127288D01*
X152329974Y-126149613D01*
X152348481Y-126169095D01*
X152362465Y-126184361D01*
X152366171Y-126188611D01*
X152377733Y-126202791D01*
X152381718Y-126209262D01*
X152378504Y-126208323D01*
X152368472Y-126200276D01*
X152352000Y-126185418D01*
X152329468Y-126164051D01*
X152305467Y-126140634D01*
X152272968Y-126108197D01*
X152244324Y-126078820D01*
X152220287Y-126053334D01*
X152201610Y-126032569D01*
X152189046Y-126017354D01*
X152183347Y-126008521D01*
X152183899Y-126006578D01*
X152189151Y-126010413D01*
X152189151Y-126010413D01*
G37*
X152189151Y-126010413D02*
X152200866Y-126021003D01*
X152217670Y-126036977D01*
X152238190Y-126056964D01*
X152261054Y-126079592D01*
X152284888Y-126103491D01*
X152308319Y-126127288D01*
X152329974Y-126149613D01*
X152348481Y-126169095D01*
X152362465Y-126184361D01*
X152366171Y-126188611D01*
X152377733Y-126202791D01*
X152381718Y-126209262D01*
X152378504Y-126208323D01*
X152368472Y-126200276D01*
X152352000Y-126185418D01*
X152329468Y-126164051D01*
X152305467Y-126140634D01*
X152272968Y-126108197D01*
X152244324Y-126078820D01*
X152220287Y-126053334D01*
X152201610Y-126032569D01*
X152189046Y-126017354D01*
X152183347Y-126008521D01*
X152183899Y-126006578D01*
X152189151Y-126010413D01*
G36*
X151455358Y-126002677D02*
X151456460Y-126005100D01*
X151455169Y-126008975D01*
X151450607Y-126015228D01*
X151441896Y-126024783D01*
X151428158Y-126038567D01*
X151408513Y-126057503D01*
X151382085Y-126082518D01*
X151358600Y-126104588D01*
X151279578Y-126178734D01*
X151342591Y-126111000D01*
X151375842Y-126075481D01*
X151402289Y-126047775D01*
X151422603Y-126027236D01*
X151437457Y-126013219D01*
X151447523Y-126005078D01*
X151453472Y-126002168D01*
X151455358Y-126002677D01*
X151455358Y-126002677D01*
G37*
X151455358Y-126002677D02*
X151456460Y-126005100D01*
X151455169Y-126008975D01*
X151450607Y-126015228D01*
X151441896Y-126024783D01*
X151428158Y-126038567D01*
X151408513Y-126057503D01*
X151382085Y-126082518D01*
X151358600Y-126104588D01*
X151279578Y-126178734D01*
X151342591Y-126111000D01*
X151375842Y-126075481D01*
X151402289Y-126047775D01*
X151422603Y-126027236D01*
X151437457Y-126013219D01*
X151447523Y-126005078D01*
X151453472Y-126002168D01*
X151455358Y-126002677D01*
G36*
X152076247Y-126002677D02*
X152077349Y-126005100D01*
X152076058Y-126008975D01*
X152071496Y-126015228D01*
X152062785Y-126024783D01*
X152049047Y-126038567D01*
X152029402Y-126057503D01*
X152002974Y-126082518D01*
X151979489Y-126104588D01*
X151900467Y-126178734D01*
X151963480Y-126111000D01*
X151996731Y-126075481D01*
X152023178Y-126047775D01*
X152043492Y-126027236D01*
X152058346Y-126013219D01*
X152068412Y-126005078D01*
X152074361Y-126002168D01*
X152076247Y-126002677D01*
X152076247Y-126002677D01*
G37*
X152076247Y-126002677D02*
X152077349Y-126005100D01*
X152076058Y-126008975D01*
X152071496Y-126015228D01*
X152062785Y-126024783D01*
X152049047Y-126038567D01*
X152029402Y-126057503D01*
X152002974Y-126082518D01*
X151979489Y-126104588D01*
X151900467Y-126178734D01*
X151963480Y-126111000D01*
X151996731Y-126075481D01*
X152023178Y-126047775D01*
X152043492Y-126027236D01*
X152058346Y-126013219D01*
X152068412Y-126005078D01*
X152074361Y-126002168D01*
X152076247Y-126002677D01*
G36*
X152697136Y-126002677D02*
X152698238Y-126005100D01*
X152696947Y-126008975D01*
X152692385Y-126015228D01*
X152683674Y-126024783D01*
X152669936Y-126038567D01*
X152650291Y-126057503D01*
X152623862Y-126082518D01*
X152600378Y-126104588D01*
X152521356Y-126178734D01*
X152584368Y-126111000D01*
X152617620Y-126075481D01*
X152644067Y-126047775D01*
X152664381Y-126027236D01*
X152679235Y-126013219D01*
X152689301Y-126005078D01*
X152695250Y-126002168D01*
X152697136Y-126002677D01*
X152697136Y-126002677D01*
G37*
X152697136Y-126002677D02*
X152698238Y-126005100D01*
X152696947Y-126008975D01*
X152692385Y-126015228D01*
X152683674Y-126024783D01*
X152669936Y-126038567D01*
X152650291Y-126057503D01*
X152623862Y-126082518D01*
X152600378Y-126104588D01*
X152521356Y-126178734D01*
X152584368Y-126111000D01*
X152617620Y-126075481D01*
X152644067Y-126047775D01*
X152664381Y-126027236D01*
X152679235Y-126013219D01*
X152689301Y-126005078D01*
X152695250Y-126002168D01*
X152697136Y-126002677D01*
G36*
X151249781Y-125903860D02*
X151236011Y-125921617D01*
X151225679Y-125937104D01*
X151220566Y-125947583D01*
X151220311Y-125949171D01*
X151222210Y-125958326D01*
X151228597Y-125970465D01*
X151240513Y-125987173D01*
X151258996Y-126010037D01*
X151264389Y-126016456D01*
X151278695Y-126033706D01*
X151285480Y-126042842D01*
X151284769Y-126044142D01*
X151276588Y-126037888D01*
X151265467Y-126028322D01*
X151239036Y-126006339D01*
X151216726Y-125990134D01*
X151199850Y-125980597D01*
X151191563Y-125978356D01*
X151182890Y-125981847D01*
X151168410Y-125991168D01*
X151150703Y-126004590D01*
X151143291Y-126010722D01*
X151105138Y-126043089D01*
X151132099Y-126009989D01*
X151151354Y-125984854D01*
X151162658Y-125965136D01*
X151166263Y-125948492D01*
X151162419Y-125932581D01*
X151151379Y-125915064D01*
X151143352Y-125905104D01*
X151127370Y-125886112D01*
X151154518Y-125906834D01*
X151169689Y-125917845D01*
X151181470Y-125925360D01*
X151186510Y-125927556D01*
X151202309Y-125923512D01*
X151223295Y-125912209D01*
X151247224Y-125894885D01*
X151250625Y-125892097D01*
X151279251Y-125868289D01*
X151249781Y-125903860D01*
X151249781Y-125903860D01*
G37*
X151249781Y-125903860D02*
X151236011Y-125921617D01*
X151225679Y-125937104D01*
X151220566Y-125947583D01*
X151220311Y-125949171D01*
X151222210Y-125958326D01*
X151228597Y-125970465D01*
X151240513Y-125987173D01*
X151258996Y-126010037D01*
X151264389Y-126016456D01*
X151278695Y-126033706D01*
X151285480Y-126042842D01*
X151284769Y-126044142D01*
X151276588Y-126037888D01*
X151265467Y-126028322D01*
X151239036Y-126006339D01*
X151216726Y-125990134D01*
X151199850Y-125980597D01*
X151191563Y-125978356D01*
X151182890Y-125981847D01*
X151168410Y-125991168D01*
X151150703Y-126004590D01*
X151143291Y-126010722D01*
X151105138Y-126043089D01*
X151132099Y-126009989D01*
X151151354Y-125984854D01*
X151162658Y-125965136D01*
X151166263Y-125948492D01*
X151162419Y-125932581D01*
X151151379Y-125915064D01*
X151143352Y-125905104D01*
X151127370Y-125886112D01*
X151154518Y-125906834D01*
X151169689Y-125917845D01*
X151181470Y-125925360D01*
X151186510Y-125927556D01*
X151202309Y-125923512D01*
X151223295Y-125912209D01*
X151247224Y-125894885D01*
X151250625Y-125892097D01*
X151279251Y-125868289D01*
X151249781Y-125903860D01*
G36*
X151870670Y-125903860D02*
X151856900Y-125921617D01*
X151846568Y-125937104D01*
X151841455Y-125947583D01*
X151841200Y-125949171D01*
X151843098Y-125958326D01*
X151849486Y-125970465D01*
X151861402Y-125987173D01*
X151879885Y-126010037D01*
X151885278Y-126016456D01*
X151899584Y-126033706D01*
X151906369Y-126042842D01*
X151905658Y-126044142D01*
X151897477Y-126037888D01*
X151886356Y-126028322D01*
X151859925Y-126006339D01*
X151837615Y-125990134D01*
X151820739Y-125980597D01*
X151812452Y-125978356D01*
X151803778Y-125981847D01*
X151789299Y-125991168D01*
X151771592Y-126004590D01*
X151764179Y-126010722D01*
X151726027Y-126043089D01*
X151752988Y-126009989D01*
X151772243Y-125984854D01*
X151783547Y-125965136D01*
X151787152Y-125948492D01*
X151783308Y-125932581D01*
X151772268Y-125915064D01*
X151764240Y-125905104D01*
X151748259Y-125886112D01*
X151775406Y-125906834D01*
X151790578Y-125917845D01*
X151802359Y-125925360D01*
X151807398Y-125927556D01*
X151823198Y-125923512D01*
X151844184Y-125912209D01*
X151868113Y-125894885D01*
X151871514Y-125892097D01*
X151900140Y-125868289D01*
X151870670Y-125903860D01*
X151870670Y-125903860D01*
G37*
X151870670Y-125903860D02*
X151856900Y-125921617D01*
X151846568Y-125937104D01*
X151841455Y-125947583D01*
X151841200Y-125949171D01*
X151843098Y-125958326D01*
X151849486Y-125970465D01*
X151861402Y-125987173D01*
X151879885Y-126010037D01*
X151885278Y-126016456D01*
X151899584Y-126033706D01*
X151906369Y-126042842D01*
X151905658Y-126044142D01*
X151897477Y-126037888D01*
X151886356Y-126028322D01*
X151859925Y-126006339D01*
X151837615Y-125990134D01*
X151820739Y-125980597D01*
X151812452Y-125978356D01*
X151803778Y-125981847D01*
X151789299Y-125991168D01*
X151771592Y-126004590D01*
X151764179Y-126010722D01*
X151726027Y-126043089D01*
X151752988Y-126009989D01*
X151772243Y-125984854D01*
X151783547Y-125965136D01*
X151787152Y-125948492D01*
X151783308Y-125932581D01*
X151772268Y-125915064D01*
X151764240Y-125905104D01*
X151748259Y-125886112D01*
X151775406Y-125906834D01*
X151790578Y-125917845D01*
X151802359Y-125925360D01*
X151807398Y-125927556D01*
X151823198Y-125923512D01*
X151844184Y-125912209D01*
X151868113Y-125894885D01*
X151871514Y-125892097D01*
X151900140Y-125868289D01*
X151870670Y-125903860D01*
G36*
X152491559Y-125903860D02*
X152477788Y-125921617D01*
X152467457Y-125937104D01*
X152462344Y-125947583D01*
X152462089Y-125949171D01*
X152463987Y-125958326D01*
X152470375Y-125970465D01*
X152482291Y-125987173D01*
X152500774Y-126010037D01*
X152506167Y-126016456D01*
X152520473Y-126033706D01*
X152527258Y-126042842D01*
X152526547Y-126044142D01*
X152518366Y-126037888D01*
X152507245Y-126028322D01*
X152480814Y-126006339D01*
X152458504Y-125990134D01*
X152441628Y-125980597D01*
X152433341Y-125978356D01*
X152424667Y-125981847D01*
X152410188Y-125991168D01*
X152392481Y-126004590D01*
X152385068Y-126010722D01*
X152346916Y-126043089D01*
X152373877Y-126009989D01*
X152393132Y-125984854D01*
X152404436Y-125965136D01*
X152408041Y-125948492D01*
X152404197Y-125932581D01*
X152393157Y-125915064D01*
X152385129Y-125905104D01*
X152369148Y-125886112D01*
X152396295Y-125906834D01*
X152411467Y-125917845D01*
X152423248Y-125925360D01*
X152428287Y-125927556D01*
X152444087Y-125923512D01*
X152465073Y-125912209D01*
X152489002Y-125894885D01*
X152492403Y-125892097D01*
X152521029Y-125868289D01*
X152491559Y-125903860D01*
X152491559Y-125903860D01*
G37*
X152491559Y-125903860D02*
X152477788Y-125921617D01*
X152467457Y-125937104D01*
X152462344Y-125947583D01*
X152462089Y-125949171D01*
X152463987Y-125958326D01*
X152470375Y-125970465D01*
X152482291Y-125987173D01*
X152500774Y-126010037D01*
X152506167Y-126016456D01*
X152520473Y-126033706D01*
X152527258Y-126042842D01*
X152526547Y-126044142D01*
X152518366Y-126037888D01*
X152507245Y-126028322D01*
X152480814Y-126006339D01*
X152458504Y-125990134D01*
X152441628Y-125980597D01*
X152433341Y-125978356D01*
X152424667Y-125981847D01*
X152410188Y-125991168D01*
X152392481Y-126004590D01*
X152385068Y-126010722D01*
X152346916Y-126043089D01*
X152373877Y-126009989D01*
X152393132Y-125984854D01*
X152404436Y-125965136D01*
X152408041Y-125948492D01*
X152404197Y-125932581D01*
X152393157Y-125915064D01*
X152385129Y-125905104D01*
X152369148Y-125886112D01*
X152396295Y-125906834D01*
X152411467Y-125917845D01*
X152423248Y-125925360D01*
X152428287Y-125927556D01*
X152444087Y-125923512D01*
X152465073Y-125912209D01*
X152489002Y-125894885D01*
X152492403Y-125892097D01*
X152521029Y-125868289D01*
X152491559Y-125903860D01*
G36*
X153112448Y-125903860D02*
X153098677Y-125921617D01*
X153088346Y-125937104D01*
X153083233Y-125947583D01*
X153082978Y-125949171D01*
X153084876Y-125958326D01*
X153091264Y-125970465D01*
X153103180Y-125987173D01*
X153121663Y-126010037D01*
X153127056Y-126016456D01*
X153141362Y-126033706D01*
X153148147Y-126042842D01*
X153147436Y-126044142D01*
X153139255Y-126037888D01*
X153128134Y-126028322D01*
X153101703Y-126006339D01*
X153079393Y-125990134D01*
X153062517Y-125980597D01*
X153054230Y-125978356D01*
X153045556Y-125981847D01*
X153031076Y-125991168D01*
X153013370Y-126004590D01*
X153005957Y-126010722D01*
X152967805Y-126043089D01*
X152994766Y-126009989D01*
X153014020Y-125984854D01*
X153025325Y-125965136D01*
X153028929Y-125948492D01*
X153025086Y-125932581D01*
X153014046Y-125915064D01*
X153006018Y-125905104D01*
X152990037Y-125886112D01*
X153017184Y-125906834D01*
X153032356Y-125917845D01*
X153044137Y-125925360D01*
X153049176Y-125927556D01*
X153064976Y-125923512D01*
X153085962Y-125912209D01*
X153109891Y-125894885D01*
X153113292Y-125892097D01*
X153141918Y-125868289D01*
X153112448Y-125903860D01*
X153112448Y-125903860D01*
G37*
X153112448Y-125903860D02*
X153098677Y-125921617D01*
X153088346Y-125937104D01*
X153083233Y-125947583D01*
X153082978Y-125949171D01*
X153084876Y-125958326D01*
X153091264Y-125970465D01*
X153103180Y-125987173D01*
X153121663Y-126010037D01*
X153127056Y-126016456D01*
X153141362Y-126033706D01*
X153148147Y-126042842D01*
X153147436Y-126044142D01*
X153139255Y-126037888D01*
X153128134Y-126028322D01*
X153101703Y-126006339D01*
X153079393Y-125990134D01*
X153062517Y-125980597D01*
X153054230Y-125978356D01*
X153045556Y-125981847D01*
X153031076Y-125991168D01*
X153013370Y-126004590D01*
X153005957Y-126010722D01*
X152967805Y-126043089D01*
X152994766Y-126009989D01*
X153014020Y-125984854D01*
X153025325Y-125965136D01*
X153028929Y-125948492D01*
X153025086Y-125932581D01*
X153014046Y-125915064D01*
X153006018Y-125905104D01*
X152990037Y-125886112D01*
X153017184Y-125906834D01*
X153032356Y-125917845D01*
X153044137Y-125925360D01*
X153049176Y-125927556D01*
X153064976Y-125923512D01*
X153085962Y-125912209D01*
X153109891Y-125894885D01*
X153113292Y-125892097D01*
X153141918Y-125868289D01*
X153112448Y-125903860D01*
G36*
X151257818Y-125699968D02*
X151269532Y-125710558D01*
X151286336Y-125726532D01*
X151306857Y-125746519D01*
X151329720Y-125769148D01*
X151353554Y-125793046D01*
X151376986Y-125816844D01*
X151398641Y-125839169D01*
X151417147Y-125858650D01*
X151431132Y-125873917D01*
X151434837Y-125878167D01*
X151446399Y-125892346D01*
X151450384Y-125898817D01*
X151447171Y-125897879D01*
X151437139Y-125889831D01*
X151420667Y-125874974D01*
X151398134Y-125853606D01*
X151374134Y-125830189D01*
X151341635Y-125797752D01*
X151312991Y-125768376D01*
X151288954Y-125742890D01*
X151270277Y-125722124D01*
X151257712Y-125706910D01*
X151252014Y-125698077D01*
X151252566Y-125696134D01*
X151257818Y-125699968D01*
X151257818Y-125699968D01*
G37*
X151257818Y-125699968D02*
X151269532Y-125710558D01*
X151286336Y-125726532D01*
X151306857Y-125746519D01*
X151329720Y-125769148D01*
X151353554Y-125793046D01*
X151376986Y-125816844D01*
X151398641Y-125839169D01*
X151417147Y-125858650D01*
X151431132Y-125873917D01*
X151434837Y-125878167D01*
X151446399Y-125892346D01*
X151450384Y-125898817D01*
X151447171Y-125897879D01*
X151437139Y-125889831D01*
X151420667Y-125874974D01*
X151398134Y-125853606D01*
X151374134Y-125830189D01*
X151341635Y-125797752D01*
X151312991Y-125768376D01*
X151288954Y-125742890D01*
X151270277Y-125722124D01*
X151257712Y-125706910D01*
X151252014Y-125698077D01*
X151252566Y-125696134D01*
X151257818Y-125699968D01*
G36*
X151878707Y-125699968D02*
X151890421Y-125710558D01*
X151907225Y-125726532D01*
X151927746Y-125746519D01*
X151950609Y-125769148D01*
X151974443Y-125793046D01*
X151997875Y-125816844D01*
X152019530Y-125839169D01*
X152038036Y-125858650D01*
X152052020Y-125873917D01*
X152055726Y-125878167D01*
X152067288Y-125892346D01*
X152071273Y-125898817D01*
X152068060Y-125897879D01*
X152058028Y-125889831D01*
X152041556Y-125874974D01*
X152019023Y-125853606D01*
X151995023Y-125830189D01*
X151962524Y-125797752D01*
X151933880Y-125768376D01*
X151909842Y-125742890D01*
X151891165Y-125722124D01*
X151878601Y-125706910D01*
X151872903Y-125698077D01*
X151873455Y-125696134D01*
X151878707Y-125699968D01*
X151878707Y-125699968D01*
G37*
X151878707Y-125699968D02*
X151890421Y-125710558D01*
X151907225Y-125726532D01*
X151927746Y-125746519D01*
X151950609Y-125769148D01*
X151974443Y-125793046D01*
X151997875Y-125816844D01*
X152019530Y-125839169D01*
X152038036Y-125858650D01*
X152052020Y-125873917D01*
X152055726Y-125878167D01*
X152067288Y-125892346D01*
X152071273Y-125898817D01*
X152068060Y-125897879D01*
X152058028Y-125889831D01*
X152041556Y-125874974D01*
X152019023Y-125853606D01*
X151995023Y-125830189D01*
X151962524Y-125797752D01*
X151933880Y-125768376D01*
X151909842Y-125742890D01*
X151891165Y-125722124D01*
X151878601Y-125706910D01*
X151872903Y-125698077D01*
X151873455Y-125696134D01*
X151878707Y-125699968D01*
G36*
X152499596Y-125699968D02*
X152511310Y-125710558D01*
X152528114Y-125726532D01*
X152548635Y-125746519D01*
X152571498Y-125769148D01*
X152595332Y-125793046D01*
X152618763Y-125816844D01*
X152640419Y-125839169D01*
X152658925Y-125858650D01*
X152672909Y-125873917D01*
X152676615Y-125878167D01*
X152688177Y-125892346D01*
X152692162Y-125898817D01*
X152688949Y-125897879D01*
X152678917Y-125889831D01*
X152662445Y-125874974D01*
X152639912Y-125853606D01*
X152615912Y-125830189D01*
X152583413Y-125797752D01*
X152554768Y-125768376D01*
X152530731Y-125742890D01*
X152512054Y-125722124D01*
X152499490Y-125706910D01*
X152493792Y-125698077D01*
X152494344Y-125696134D01*
X152499596Y-125699968D01*
X152499596Y-125699968D01*
G37*
X152499596Y-125699968D02*
X152511310Y-125710558D01*
X152528114Y-125726532D01*
X152548635Y-125746519D01*
X152571498Y-125769148D01*
X152595332Y-125793046D01*
X152618763Y-125816844D01*
X152640419Y-125839169D01*
X152658925Y-125858650D01*
X152672909Y-125873917D01*
X152676615Y-125878167D01*
X152688177Y-125892346D01*
X152692162Y-125898817D01*
X152688949Y-125897879D01*
X152678917Y-125889831D01*
X152662445Y-125874974D01*
X152639912Y-125853606D01*
X152615912Y-125830189D01*
X152583413Y-125797752D01*
X152554768Y-125768376D01*
X152530731Y-125742890D01*
X152512054Y-125722124D01*
X152499490Y-125706910D01*
X152493792Y-125698077D01*
X152494344Y-125696134D01*
X152499596Y-125699968D01*
G36*
X153120485Y-125699968D02*
X153132199Y-125710558D01*
X153149003Y-125726532D01*
X153169523Y-125746519D01*
X153192387Y-125769148D01*
X153216221Y-125793046D01*
X153239652Y-125816844D01*
X153261308Y-125839169D01*
X153279814Y-125858650D01*
X153293798Y-125873917D01*
X153297504Y-125878167D01*
X153309066Y-125892346D01*
X153313051Y-125898817D01*
X153309838Y-125897879D01*
X153299806Y-125889831D01*
X153283334Y-125874974D01*
X153260801Y-125853606D01*
X153236801Y-125830189D01*
X153204302Y-125797752D01*
X153175657Y-125768376D01*
X153151620Y-125742890D01*
X153132943Y-125722124D01*
X153120379Y-125706910D01*
X153114681Y-125698077D01*
X153115233Y-125696134D01*
X153120485Y-125699968D01*
X153120485Y-125699968D01*
G37*
X153120485Y-125699968D02*
X153132199Y-125710558D01*
X153149003Y-125726532D01*
X153169523Y-125746519D01*
X153192387Y-125769148D01*
X153216221Y-125793046D01*
X153239652Y-125816844D01*
X153261308Y-125839169D01*
X153279814Y-125858650D01*
X153293798Y-125873917D01*
X153297504Y-125878167D01*
X153309066Y-125892346D01*
X153313051Y-125898817D01*
X153309838Y-125897879D01*
X153299806Y-125889831D01*
X153283334Y-125874974D01*
X153260801Y-125853606D01*
X153236801Y-125830189D01*
X153204302Y-125797752D01*
X153175657Y-125768376D01*
X153151620Y-125742890D01*
X153132943Y-125722124D01*
X153120379Y-125706910D01*
X153114681Y-125698077D01*
X153115233Y-125696134D01*
X153120485Y-125699968D01*
G36*
X151144914Y-125692232D02*
X151146015Y-125694655D01*
X151144724Y-125698530D01*
X151140163Y-125704783D01*
X151131452Y-125714339D01*
X151117713Y-125728122D01*
X151098069Y-125747059D01*
X151071640Y-125772074D01*
X151048156Y-125794144D01*
X150969134Y-125868289D01*
X151032146Y-125800556D01*
X151065398Y-125765037D01*
X151091844Y-125737331D01*
X151112159Y-125716792D01*
X151127013Y-125702775D01*
X151137078Y-125694634D01*
X151143027Y-125691723D01*
X151144914Y-125692232D01*
X151144914Y-125692232D01*
G37*
X151144914Y-125692232D02*
X151146015Y-125694655D01*
X151144724Y-125698530D01*
X151140163Y-125704783D01*
X151131452Y-125714339D01*
X151117713Y-125728122D01*
X151098069Y-125747059D01*
X151071640Y-125772074D01*
X151048156Y-125794144D01*
X150969134Y-125868289D01*
X151032146Y-125800556D01*
X151065398Y-125765037D01*
X151091844Y-125737331D01*
X151112159Y-125716792D01*
X151127013Y-125702775D01*
X151137078Y-125694634D01*
X151143027Y-125691723D01*
X151144914Y-125692232D01*
G36*
X151765803Y-125692232D02*
X151766904Y-125694655D01*
X151765613Y-125698530D01*
X151761052Y-125704783D01*
X151752341Y-125714339D01*
X151738602Y-125728122D01*
X151718958Y-125747059D01*
X151692529Y-125772074D01*
X151669045Y-125794144D01*
X151590022Y-125868289D01*
X151653035Y-125800556D01*
X151686286Y-125765037D01*
X151712733Y-125737331D01*
X151733048Y-125716792D01*
X151747902Y-125702775D01*
X151757967Y-125694634D01*
X151763916Y-125691723D01*
X151765803Y-125692232D01*
X151765803Y-125692232D01*
G37*
X151765803Y-125692232D02*
X151766904Y-125694655D01*
X151765613Y-125698530D01*
X151761052Y-125704783D01*
X151752341Y-125714339D01*
X151738602Y-125728122D01*
X151718958Y-125747059D01*
X151692529Y-125772074D01*
X151669045Y-125794144D01*
X151590022Y-125868289D01*
X151653035Y-125800556D01*
X151686286Y-125765037D01*
X151712733Y-125737331D01*
X151733048Y-125716792D01*
X151747902Y-125702775D01*
X151757967Y-125694634D01*
X151763916Y-125691723D01*
X151765803Y-125692232D01*
G36*
X152386692Y-125692232D02*
X152387793Y-125694655D01*
X152386502Y-125698530D01*
X152381940Y-125704783D01*
X152373230Y-125714339D01*
X152359491Y-125728122D01*
X152339847Y-125747059D01*
X152313418Y-125772074D01*
X152289934Y-125794144D01*
X152210911Y-125868289D01*
X152273924Y-125800556D01*
X152307175Y-125765037D01*
X152333622Y-125737331D01*
X152353937Y-125716792D01*
X152368791Y-125702775D01*
X152378856Y-125694634D01*
X152384805Y-125691723D01*
X152386692Y-125692232D01*
X152386692Y-125692232D01*
G37*
X152386692Y-125692232D02*
X152387793Y-125694655D01*
X152386502Y-125698530D01*
X152381940Y-125704783D01*
X152373230Y-125714339D01*
X152359491Y-125728122D01*
X152339847Y-125747059D01*
X152313418Y-125772074D01*
X152289934Y-125794144D01*
X152210911Y-125868289D01*
X152273924Y-125800556D01*
X152307175Y-125765037D01*
X152333622Y-125737331D01*
X152353937Y-125716792D01*
X152368791Y-125702775D01*
X152378856Y-125694634D01*
X152384805Y-125691723D01*
X152386692Y-125692232D01*
G36*
X153007580Y-125692232D02*
X153008682Y-125694655D01*
X153007391Y-125698530D01*
X153002829Y-125704783D01*
X152994118Y-125714339D01*
X152980380Y-125728122D01*
X152960736Y-125747059D01*
X152934307Y-125772074D01*
X152910822Y-125794144D01*
X152831800Y-125868289D01*
X152894813Y-125800556D01*
X152928064Y-125765037D01*
X152954511Y-125737331D01*
X152974826Y-125716792D01*
X152989680Y-125702775D01*
X152999745Y-125694634D01*
X153005694Y-125691723D01*
X153007580Y-125692232D01*
X153007580Y-125692232D01*
G37*
X153007580Y-125692232D02*
X153008682Y-125694655D01*
X153007391Y-125698530D01*
X153002829Y-125704783D01*
X152994118Y-125714339D01*
X152980380Y-125728122D01*
X152960736Y-125747059D01*
X152934307Y-125772074D01*
X152910822Y-125794144D01*
X152831800Y-125868289D01*
X152894813Y-125800556D01*
X152928064Y-125765037D01*
X152954511Y-125737331D01*
X152974826Y-125716792D01*
X152989680Y-125702775D01*
X152999745Y-125694634D01*
X153005694Y-125691723D01*
X153007580Y-125692232D01*
G36*
X151560226Y-125593415D02*
X151546455Y-125611173D01*
X151536124Y-125626659D01*
X151531011Y-125637139D01*
X151530756Y-125638726D01*
X151532654Y-125647882D01*
X151539042Y-125660021D01*
X151550957Y-125676729D01*
X151569441Y-125699593D01*
X151574834Y-125706011D01*
X151589139Y-125723262D01*
X151595924Y-125732397D01*
X151595214Y-125733698D01*
X151587033Y-125727444D01*
X151575911Y-125717878D01*
X151549481Y-125695894D01*
X151527170Y-125679690D01*
X151510295Y-125670153D01*
X151502008Y-125667911D01*
X151493334Y-125671403D01*
X151478854Y-125680724D01*
X151461147Y-125694145D01*
X151453735Y-125700278D01*
X151415583Y-125732645D01*
X151442544Y-125699544D01*
X151461798Y-125674410D01*
X151473102Y-125654691D01*
X151476707Y-125638047D01*
X151472864Y-125622137D01*
X151461824Y-125604619D01*
X151453796Y-125594660D01*
X151437815Y-125575667D01*
X151464962Y-125596389D01*
X151480134Y-125607401D01*
X151491914Y-125614916D01*
X151496954Y-125617111D01*
X151512754Y-125613068D01*
X151533739Y-125601764D01*
X151557669Y-125584441D01*
X151561070Y-125581652D01*
X151589695Y-125557845D01*
X151560226Y-125593415D01*
X151560226Y-125593415D01*
G37*
X151560226Y-125593415D02*
X151546455Y-125611173D01*
X151536124Y-125626659D01*
X151531011Y-125637139D01*
X151530756Y-125638726D01*
X151532654Y-125647882D01*
X151539042Y-125660021D01*
X151550957Y-125676729D01*
X151569441Y-125699593D01*
X151574834Y-125706011D01*
X151589139Y-125723262D01*
X151595924Y-125732397D01*
X151595214Y-125733698D01*
X151587033Y-125727444D01*
X151575911Y-125717878D01*
X151549481Y-125695894D01*
X151527170Y-125679690D01*
X151510295Y-125670153D01*
X151502008Y-125667911D01*
X151493334Y-125671403D01*
X151478854Y-125680724D01*
X151461147Y-125694145D01*
X151453735Y-125700278D01*
X151415583Y-125732645D01*
X151442544Y-125699544D01*
X151461798Y-125674410D01*
X151473102Y-125654691D01*
X151476707Y-125638047D01*
X151472864Y-125622137D01*
X151461824Y-125604619D01*
X151453796Y-125594660D01*
X151437815Y-125575667D01*
X151464962Y-125596389D01*
X151480134Y-125607401D01*
X151491914Y-125614916D01*
X151496954Y-125617111D01*
X151512754Y-125613068D01*
X151533739Y-125601764D01*
X151557669Y-125584441D01*
X151561070Y-125581652D01*
X151589695Y-125557845D01*
X151560226Y-125593415D01*
G36*
X152181114Y-125593415D02*
X152167344Y-125611173D01*
X152157013Y-125626659D01*
X152151900Y-125637139D01*
X152151645Y-125638726D01*
X152153543Y-125647882D01*
X152159931Y-125660021D01*
X152171846Y-125676729D01*
X152190330Y-125699593D01*
X152195722Y-125706011D01*
X152210028Y-125723262D01*
X152216813Y-125732397D01*
X152216103Y-125733698D01*
X152207922Y-125727444D01*
X152196800Y-125717878D01*
X152170370Y-125695894D01*
X152148059Y-125679690D01*
X152131184Y-125670153D01*
X152122897Y-125667911D01*
X152114223Y-125671403D01*
X152099743Y-125680724D01*
X152082036Y-125694145D01*
X152074624Y-125700278D01*
X152036472Y-125732645D01*
X152063432Y-125699544D01*
X152082687Y-125674410D01*
X152093991Y-125654691D01*
X152097596Y-125638047D01*
X152093753Y-125622137D01*
X152082712Y-125604619D01*
X152074685Y-125594660D01*
X152058704Y-125575667D01*
X152085851Y-125596389D01*
X152101023Y-125607401D01*
X152112803Y-125614916D01*
X152117843Y-125617111D01*
X152133643Y-125613068D01*
X152154628Y-125601764D01*
X152178558Y-125584441D01*
X152181959Y-125581652D01*
X152210584Y-125557845D01*
X152181114Y-125593415D01*
X152181114Y-125593415D01*
G37*
X152181114Y-125593415D02*
X152167344Y-125611173D01*
X152157013Y-125626659D01*
X152151900Y-125637139D01*
X152151645Y-125638726D01*
X152153543Y-125647882D01*
X152159931Y-125660021D01*
X152171846Y-125676729D01*
X152190330Y-125699593D01*
X152195722Y-125706011D01*
X152210028Y-125723262D01*
X152216813Y-125732397D01*
X152216103Y-125733698D01*
X152207922Y-125727444D01*
X152196800Y-125717878D01*
X152170370Y-125695894D01*
X152148059Y-125679690D01*
X152131184Y-125670153D01*
X152122897Y-125667911D01*
X152114223Y-125671403D01*
X152099743Y-125680724D01*
X152082036Y-125694145D01*
X152074624Y-125700278D01*
X152036472Y-125732645D01*
X152063432Y-125699544D01*
X152082687Y-125674410D01*
X152093991Y-125654691D01*
X152097596Y-125638047D01*
X152093753Y-125622137D01*
X152082712Y-125604619D01*
X152074685Y-125594660D01*
X152058704Y-125575667D01*
X152085851Y-125596389D01*
X152101023Y-125607401D01*
X152112803Y-125614916D01*
X152117843Y-125617111D01*
X152133643Y-125613068D01*
X152154628Y-125601764D01*
X152178558Y-125584441D01*
X152181959Y-125581652D01*
X152210584Y-125557845D01*
X152181114Y-125593415D01*
G36*
X152802003Y-125593415D02*
X152788233Y-125611173D01*
X152777901Y-125626659D01*
X152772789Y-125637139D01*
X152772534Y-125638726D01*
X152774432Y-125647882D01*
X152780819Y-125660021D01*
X152792735Y-125676729D01*
X152811218Y-125699593D01*
X152816611Y-125706011D01*
X152830917Y-125723262D01*
X152837702Y-125732397D01*
X152836991Y-125733698D01*
X152828811Y-125727444D01*
X152817689Y-125717878D01*
X152791259Y-125695894D01*
X152768948Y-125679690D01*
X152752073Y-125670153D01*
X152743786Y-125667911D01*
X152735112Y-125671403D01*
X152720632Y-125680724D01*
X152702925Y-125694145D01*
X152695513Y-125700278D01*
X152657361Y-125732645D01*
X152684321Y-125699544D01*
X152703576Y-125674410D01*
X152714880Y-125654691D01*
X152718485Y-125638047D01*
X152714642Y-125622137D01*
X152703601Y-125604619D01*
X152695574Y-125594660D01*
X152679592Y-125575667D01*
X152706740Y-125596389D01*
X152721912Y-125607401D01*
X152733692Y-125614916D01*
X152738732Y-125617111D01*
X152754531Y-125613068D01*
X152775517Y-125601764D01*
X152799446Y-125584441D01*
X152802848Y-125581652D01*
X152831473Y-125557845D01*
X152802003Y-125593415D01*
X152802003Y-125593415D01*
G37*
X152802003Y-125593415D02*
X152788233Y-125611173D01*
X152777901Y-125626659D01*
X152772789Y-125637139D01*
X152772534Y-125638726D01*
X152774432Y-125647882D01*
X152780819Y-125660021D01*
X152792735Y-125676729D01*
X152811218Y-125699593D01*
X152816611Y-125706011D01*
X152830917Y-125723262D01*
X152837702Y-125732397D01*
X152836991Y-125733698D01*
X152828811Y-125727444D01*
X152817689Y-125717878D01*
X152791259Y-125695894D01*
X152768948Y-125679690D01*
X152752073Y-125670153D01*
X152743786Y-125667911D01*
X152735112Y-125671403D01*
X152720632Y-125680724D01*
X152702925Y-125694145D01*
X152695513Y-125700278D01*
X152657361Y-125732645D01*
X152684321Y-125699544D01*
X152703576Y-125674410D01*
X152714880Y-125654691D01*
X152718485Y-125638047D01*
X152714642Y-125622137D01*
X152703601Y-125604619D01*
X152695574Y-125594660D01*
X152679592Y-125575667D01*
X152706740Y-125596389D01*
X152721912Y-125607401D01*
X152733692Y-125614916D01*
X152738732Y-125617111D01*
X152754531Y-125613068D01*
X152775517Y-125601764D01*
X152799446Y-125584441D01*
X152802848Y-125581652D01*
X152831473Y-125557845D01*
X152802003Y-125593415D01*
G36*
X150825200Y-125704600D02*
X150822378Y-125707422D01*
X150819556Y-125704600D01*
X150822378Y-125701778D01*
X150825200Y-125704600D01*
X150825200Y-125704600D01*
G37*
X150825200Y-125704600D02*
X150822378Y-125707422D01*
X150819556Y-125704600D01*
X150822378Y-125701778D01*
X150825200Y-125704600D01*
G36*
X151568262Y-125389524D02*
X151579977Y-125400114D01*
X151596781Y-125416088D01*
X151617301Y-125436075D01*
X151640165Y-125458703D01*
X151663999Y-125482602D01*
X151687430Y-125506399D01*
X151709085Y-125528724D01*
X151727592Y-125548206D01*
X151741576Y-125563472D01*
X151745282Y-125567722D01*
X151756844Y-125581902D01*
X151760829Y-125588373D01*
X151757615Y-125587435D01*
X151747583Y-125579387D01*
X151731111Y-125564530D01*
X151708579Y-125543162D01*
X151684579Y-125519745D01*
X151652080Y-125487308D01*
X151623435Y-125457931D01*
X151599398Y-125432445D01*
X151580721Y-125411680D01*
X151568157Y-125396466D01*
X151562459Y-125387632D01*
X151563011Y-125385689D01*
X151568262Y-125389524D01*
X151568262Y-125389524D01*
G37*
X151568262Y-125389524D02*
X151579977Y-125400114D01*
X151596781Y-125416088D01*
X151617301Y-125436075D01*
X151640165Y-125458703D01*
X151663999Y-125482602D01*
X151687430Y-125506399D01*
X151709085Y-125528724D01*
X151727592Y-125548206D01*
X151741576Y-125563472D01*
X151745282Y-125567722D01*
X151756844Y-125581902D01*
X151760829Y-125588373D01*
X151757615Y-125587435D01*
X151747583Y-125579387D01*
X151731111Y-125564530D01*
X151708579Y-125543162D01*
X151684579Y-125519745D01*
X151652080Y-125487308D01*
X151623435Y-125457931D01*
X151599398Y-125432445D01*
X151580721Y-125411680D01*
X151568157Y-125396466D01*
X151562459Y-125387632D01*
X151563011Y-125385689D01*
X151568262Y-125389524D01*
G36*
X152189151Y-125389524D02*
X152200866Y-125400114D01*
X152217670Y-125416088D01*
X152238190Y-125436075D01*
X152261054Y-125458703D01*
X152284888Y-125482602D01*
X152308319Y-125506399D01*
X152329974Y-125528724D01*
X152348481Y-125548206D01*
X152362465Y-125563472D01*
X152366171Y-125567722D01*
X152377733Y-125581902D01*
X152381718Y-125588373D01*
X152378504Y-125587435D01*
X152368472Y-125579387D01*
X152352000Y-125564530D01*
X152329468Y-125543162D01*
X152305467Y-125519745D01*
X152272968Y-125487308D01*
X152244324Y-125457931D01*
X152220287Y-125432445D01*
X152201610Y-125411680D01*
X152189046Y-125396466D01*
X152183347Y-125387632D01*
X152183899Y-125385689D01*
X152189151Y-125389524D01*
X152189151Y-125389524D01*
G37*
X152189151Y-125389524D02*
X152200866Y-125400114D01*
X152217670Y-125416088D01*
X152238190Y-125436075D01*
X152261054Y-125458703D01*
X152284888Y-125482602D01*
X152308319Y-125506399D01*
X152329974Y-125528724D01*
X152348481Y-125548206D01*
X152362465Y-125563472D01*
X152366171Y-125567722D01*
X152377733Y-125581902D01*
X152381718Y-125588373D01*
X152378504Y-125587435D01*
X152368472Y-125579387D01*
X152352000Y-125564530D01*
X152329468Y-125543162D01*
X152305467Y-125519745D01*
X152272968Y-125487308D01*
X152244324Y-125457931D01*
X152220287Y-125432445D01*
X152201610Y-125411680D01*
X152189046Y-125396466D01*
X152183347Y-125387632D01*
X152183899Y-125385689D01*
X152189151Y-125389524D01*
G36*
X152810040Y-125389524D02*
X152821755Y-125400114D01*
X152838559Y-125416088D01*
X152859079Y-125436075D01*
X152881943Y-125458703D01*
X152905777Y-125482602D01*
X152929208Y-125506399D01*
X152950863Y-125528724D01*
X152969370Y-125548206D01*
X152983354Y-125563472D01*
X152987060Y-125567722D01*
X152998622Y-125581902D01*
X153002607Y-125588373D01*
X152999393Y-125587435D01*
X152989361Y-125579387D01*
X152972889Y-125564530D01*
X152950357Y-125543162D01*
X152926356Y-125519745D01*
X152893857Y-125487308D01*
X152865213Y-125457931D01*
X152841176Y-125432445D01*
X152822499Y-125411680D01*
X152809935Y-125396466D01*
X152804236Y-125387632D01*
X152804788Y-125385689D01*
X152810040Y-125389524D01*
X152810040Y-125389524D01*
G37*
X152810040Y-125389524D02*
X152821755Y-125400114D01*
X152838559Y-125416088D01*
X152859079Y-125436075D01*
X152881943Y-125458703D01*
X152905777Y-125482602D01*
X152929208Y-125506399D01*
X152950863Y-125528724D01*
X152969370Y-125548206D01*
X152983354Y-125563472D01*
X152987060Y-125567722D01*
X152998622Y-125581902D01*
X153002607Y-125588373D01*
X152999393Y-125587435D01*
X152989361Y-125579387D01*
X152972889Y-125564530D01*
X152950357Y-125543162D01*
X152926356Y-125519745D01*
X152893857Y-125487308D01*
X152865213Y-125457931D01*
X152841176Y-125432445D01*
X152822499Y-125411680D01*
X152809935Y-125396466D01*
X152804236Y-125387632D01*
X152804788Y-125385689D01*
X152810040Y-125389524D01*
G36*
X151455358Y-125381788D02*
X151456460Y-125384211D01*
X151455169Y-125388086D01*
X151450607Y-125394339D01*
X151441896Y-125403894D01*
X151428158Y-125417678D01*
X151408513Y-125436614D01*
X151382085Y-125461629D01*
X151358600Y-125483699D01*
X151279578Y-125557845D01*
X151342591Y-125490111D01*
X151375842Y-125454593D01*
X151402289Y-125426886D01*
X151422603Y-125406348D01*
X151437457Y-125392330D01*
X151447523Y-125384189D01*
X151453472Y-125381279D01*
X151455358Y-125381788D01*
X151455358Y-125381788D01*
G37*
X151455358Y-125381788D02*
X151456460Y-125384211D01*
X151455169Y-125388086D01*
X151450607Y-125394339D01*
X151441896Y-125403894D01*
X151428158Y-125417678D01*
X151408513Y-125436614D01*
X151382085Y-125461629D01*
X151358600Y-125483699D01*
X151279578Y-125557845D01*
X151342591Y-125490111D01*
X151375842Y-125454593D01*
X151402289Y-125426886D01*
X151422603Y-125406348D01*
X151437457Y-125392330D01*
X151447523Y-125384189D01*
X151453472Y-125381279D01*
X151455358Y-125381788D01*
G36*
X152076247Y-125381788D02*
X152077349Y-125384211D01*
X152076058Y-125388086D01*
X152071496Y-125394339D01*
X152062785Y-125403894D01*
X152049047Y-125417678D01*
X152029402Y-125436614D01*
X152002974Y-125461629D01*
X151979489Y-125483699D01*
X151900467Y-125557845D01*
X151963480Y-125490111D01*
X151996731Y-125454593D01*
X152023178Y-125426886D01*
X152043492Y-125406348D01*
X152058346Y-125392330D01*
X152068412Y-125384189D01*
X152074361Y-125381279D01*
X152076247Y-125381788D01*
X152076247Y-125381788D01*
G37*
X152076247Y-125381788D02*
X152077349Y-125384211D01*
X152076058Y-125388086D01*
X152071496Y-125394339D01*
X152062785Y-125403894D01*
X152049047Y-125417678D01*
X152029402Y-125436614D01*
X152002974Y-125461629D01*
X151979489Y-125483699D01*
X151900467Y-125557845D01*
X151963480Y-125490111D01*
X151996731Y-125454593D01*
X152023178Y-125426886D01*
X152043492Y-125406348D01*
X152058346Y-125392330D01*
X152068412Y-125384189D01*
X152074361Y-125381279D01*
X152076247Y-125381788D01*
G36*
X152697136Y-125381788D02*
X152698238Y-125384211D01*
X152696947Y-125388086D01*
X152692385Y-125394339D01*
X152683674Y-125403894D01*
X152669936Y-125417678D01*
X152650291Y-125436614D01*
X152623862Y-125461629D01*
X152600378Y-125483699D01*
X152521356Y-125557845D01*
X152584368Y-125490111D01*
X152617620Y-125454593D01*
X152644067Y-125426886D01*
X152664381Y-125406348D01*
X152679235Y-125392330D01*
X152689301Y-125384189D01*
X152695250Y-125381279D01*
X152697136Y-125381788D01*
X152697136Y-125381788D01*
G37*
X152697136Y-125381788D02*
X152698238Y-125384211D01*
X152696947Y-125388086D01*
X152692385Y-125394339D01*
X152683674Y-125403894D01*
X152669936Y-125417678D01*
X152650291Y-125436614D01*
X152623862Y-125461629D01*
X152600378Y-125483699D01*
X152521356Y-125557845D01*
X152584368Y-125490111D01*
X152617620Y-125454593D01*
X152644067Y-125426886D01*
X152664381Y-125406348D01*
X152679235Y-125392330D01*
X152689301Y-125384189D01*
X152695250Y-125381279D01*
X152697136Y-125381788D01*
G36*
X151249781Y-125282971D02*
X151236011Y-125300728D01*
X151225679Y-125316215D01*
X151220566Y-125326694D01*
X151220311Y-125328282D01*
X151222210Y-125337437D01*
X151228597Y-125349576D01*
X151240513Y-125366285D01*
X151258996Y-125389148D01*
X151264389Y-125395567D01*
X151278695Y-125412818D01*
X151285480Y-125421953D01*
X151284769Y-125423254D01*
X151276588Y-125417000D01*
X151265467Y-125407433D01*
X151239036Y-125385450D01*
X151216726Y-125369245D01*
X151199850Y-125359709D01*
X151191563Y-125357467D01*
X151182890Y-125360958D01*
X151168410Y-125370279D01*
X151150703Y-125383701D01*
X151143291Y-125389834D01*
X151105138Y-125422200D01*
X151132099Y-125389100D01*
X151151354Y-125363965D01*
X151162658Y-125344247D01*
X151166263Y-125327603D01*
X151162419Y-125311693D01*
X151151379Y-125294175D01*
X151143352Y-125284216D01*
X151127370Y-125265223D01*
X151154518Y-125285945D01*
X151169689Y-125296957D01*
X151181470Y-125304472D01*
X151186510Y-125306667D01*
X151202309Y-125302623D01*
X151223295Y-125291320D01*
X151247224Y-125273996D01*
X151250625Y-125271208D01*
X151279251Y-125247400D01*
X151249781Y-125282971D01*
X151249781Y-125282971D01*
G37*
X151249781Y-125282971D02*
X151236011Y-125300728D01*
X151225679Y-125316215D01*
X151220566Y-125326694D01*
X151220311Y-125328282D01*
X151222210Y-125337437D01*
X151228597Y-125349576D01*
X151240513Y-125366285D01*
X151258996Y-125389148D01*
X151264389Y-125395567D01*
X151278695Y-125412818D01*
X151285480Y-125421953D01*
X151284769Y-125423254D01*
X151276588Y-125417000D01*
X151265467Y-125407433D01*
X151239036Y-125385450D01*
X151216726Y-125369245D01*
X151199850Y-125359709D01*
X151191563Y-125357467D01*
X151182890Y-125360958D01*
X151168410Y-125370279D01*
X151150703Y-125383701D01*
X151143291Y-125389834D01*
X151105138Y-125422200D01*
X151132099Y-125389100D01*
X151151354Y-125363965D01*
X151162658Y-125344247D01*
X151166263Y-125327603D01*
X151162419Y-125311693D01*
X151151379Y-125294175D01*
X151143352Y-125284216D01*
X151127370Y-125265223D01*
X151154518Y-125285945D01*
X151169689Y-125296957D01*
X151181470Y-125304472D01*
X151186510Y-125306667D01*
X151202309Y-125302623D01*
X151223295Y-125291320D01*
X151247224Y-125273996D01*
X151250625Y-125271208D01*
X151279251Y-125247400D01*
X151249781Y-125282971D01*
G36*
X151870670Y-125282971D02*
X151856900Y-125300728D01*
X151846568Y-125316215D01*
X151841455Y-125326694D01*
X151841200Y-125328282D01*
X151843098Y-125337437D01*
X151849486Y-125349576D01*
X151861402Y-125366285D01*
X151879885Y-125389148D01*
X151885278Y-125395567D01*
X151899584Y-125412818D01*
X151906369Y-125421953D01*
X151905658Y-125423254D01*
X151897477Y-125417000D01*
X151886356Y-125407433D01*
X151859925Y-125385450D01*
X151837615Y-125369245D01*
X151820739Y-125359709D01*
X151812452Y-125357467D01*
X151803778Y-125360958D01*
X151789299Y-125370279D01*
X151771592Y-125383701D01*
X151764179Y-125389834D01*
X151726027Y-125422200D01*
X151752988Y-125389100D01*
X151772243Y-125363965D01*
X151783547Y-125344247D01*
X151787152Y-125327603D01*
X151783308Y-125311693D01*
X151772268Y-125294175D01*
X151764240Y-125284216D01*
X151748259Y-125265223D01*
X151775406Y-125285945D01*
X151790578Y-125296957D01*
X151802359Y-125304472D01*
X151807398Y-125306667D01*
X151823198Y-125302623D01*
X151844184Y-125291320D01*
X151868113Y-125273996D01*
X151871514Y-125271208D01*
X151900140Y-125247400D01*
X151870670Y-125282971D01*
X151870670Y-125282971D01*
G37*
X151870670Y-125282971D02*
X151856900Y-125300728D01*
X151846568Y-125316215D01*
X151841455Y-125326694D01*
X151841200Y-125328282D01*
X151843098Y-125337437D01*
X151849486Y-125349576D01*
X151861402Y-125366285D01*
X151879885Y-125389148D01*
X151885278Y-125395567D01*
X151899584Y-125412818D01*
X151906369Y-125421953D01*
X151905658Y-125423254D01*
X151897477Y-125417000D01*
X151886356Y-125407433D01*
X151859925Y-125385450D01*
X151837615Y-125369245D01*
X151820739Y-125359709D01*
X151812452Y-125357467D01*
X151803778Y-125360958D01*
X151789299Y-125370279D01*
X151771592Y-125383701D01*
X151764179Y-125389834D01*
X151726027Y-125422200D01*
X151752988Y-125389100D01*
X151772243Y-125363965D01*
X151783547Y-125344247D01*
X151787152Y-125327603D01*
X151783308Y-125311693D01*
X151772268Y-125294175D01*
X151764240Y-125284216D01*
X151748259Y-125265223D01*
X151775406Y-125285945D01*
X151790578Y-125296957D01*
X151802359Y-125304472D01*
X151807398Y-125306667D01*
X151823198Y-125302623D01*
X151844184Y-125291320D01*
X151868113Y-125273996D01*
X151871514Y-125271208D01*
X151900140Y-125247400D01*
X151870670Y-125282971D01*
G36*
X152491559Y-125282971D02*
X152477788Y-125300728D01*
X152467457Y-125316215D01*
X152462344Y-125326694D01*
X152462089Y-125328282D01*
X152463987Y-125337437D01*
X152470375Y-125349576D01*
X152482291Y-125366285D01*
X152500774Y-125389148D01*
X152506167Y-125395567D01*
X152520473Y-125412818D01*
X152527258Y-125421953D01*
X152526547Y-125423254D01*
X152518366Y-125417000D01*
X152507245Y-125407433D01*
X152480814Y-125385450D01*
X152458504Y-125369245D01*
X152441628Y-125359709D01*
X152433341Y-125357467D01*
X152424667Y-125360958D01*
X152410188Y-125370279D01*
X152392481Y-125383701D01*
X152385068Y-125389834D01*
X152346916Y-125422200D01*
X152373877Y-125389100D01*
X152393132Y-125363965D01*
X152404436Y-125344247D01*
X152408041Y-125327603D01*
X152404197Y-125311693D01*
X152393157Y-125294175D01*
X152385129Y-125284216D01*
X152369148Y-125265223D01*
X152396295Y-125285945D01*
X152411467Y-125296957D01*
X152423248Y-125304472D01*
X152428287Y-125306667D01*
X152444087Y-125302623D01*
X152465073Y-125291320D01*
X152489002Y-125273996D01*
X152492403Y-125271208D01*
X152521029Y-125247400D01*
X152491559Y-125282971D01*
X152491559Y-125282971D01*
G37*
X152491559Y-125282971D02*
X152477788Y-125300728D01*
X152467457Y-125316215D01*
X152462344Y-125326694D01*
X152462089Y-125328282D01*
X152463987Y-125337437D01*
X152470375Y-125349576D01*
X152482291Y-125366285D01*
X152500774Y-125389148D01*
X152506167Y-125395567D01*
X152520473Y-125412818D01*
X152527258Y-125421953D01*
X152526547Y-125423254D01*
X152518366Y-125417000D01*
X152507245Y-125407433D01*
X152480814Y-125385450D01*
X152458504Y-125369245D01*
X152441628Y-125359709D01*
X152433341Y-125357467D01*
X152424667Y-125360958D01*
X152410188Y-125370279D01*
X152392481Y-125383701D01*
X152385068Y-125389834D01*
X152346916Y-125422200D01*
X152373877Y-125389100D01*
X152393132Y-125363965D01*
X152404436Y-125344247D01*
X152408041Y-125327603D01*
X152404197Y-125311693D01*
X152393157Y-125294175D01*
X152385129Y-125284216D01*
X152369148Y-125265223D01*
X152396295Y-125285945D01*
X152411467Y-125296957D01*
X152423248Y-125304472D01*
X152428287Y-125306667D01*
X152444087Y-125302623D01*
X152465073Y-125291320D01*
X152489002Y-125273996D01*
X152492403Y-125271208D01*
X152521029Y-125247400D01*
X152491559Y-125282971D01*
G36*
X153112448Y-125282971D02*
X153098677Y-125300728D01*
X153088346Y-125316215D01*
X153083233Y-125326694D01*
X153082978Y-125328282D01*
X153084876Y-125337437D01*
X153091264Y-125349576D01*
X153103180Y-125366285D01*
X153121663Y-125389148D01*
X153127056Y-125395567D01*
X153141362Y-125412818D01*
X153148147Y-125421953D01*
X153147436Y-125423254D01*
X153139255Y-125417000D01*
X153128134Y-125407433D01*
X153101703Y-125385450D01*
X153079393Y-125369245D01*
X153062517Y-125359709D01*
X153054230Y-125357467D01*
X153045556Y-125360958D01*
X153031076Y-125370279D01*
X153013370Y-125383701D01*
X153005957Y-125389834D01*
X152967805Y-125422200D01*
X152994766Y-125389100D01*
X153014020Y-125363965D01*
X153025325Y-125344247D01*
X153028929Y-125327603D01*
X153025086Y-125311693D01*
X153014046Y-125294175D01*
X153006018Y-125284216D01*
X152990037Y-125265223D01*
X153017184Y-125285945D01*
X153032356Y-125296957D01*
X153044137Y-125304472D01*
X153049176Y-125306667D01*
X153064976Y-125302623D01*
X153085962Y-125291320D01*
X153109891Y-125273996D01*
X153113292Y-125271208D01*
X153141918Y-125247400D01*
X153112448Y-125282971D01*
X153112448Y-125282971D01*
G37*
X153112448Y-125282971D02*
X153098677Y-125300728D01*
X153088346Y-125316215D01*
X153083233Y-125326694D01*
X153082978Y-125328282D01*
X153084876Y-125337437D01*
X153091264Y-125349576D01*
X153103180Y-125366285D01*
X153121663Y-125389148D01*
X153127056Y-125395567D01*
X153141362Y-125412818D01*
X153148147Y-125421953D01*
X153147436Y-125423254D01*
X153139255Y-125417000D01*
X153128134Y-125407433D01*
X153101703Y-125385450D01*
X153079393Y-125369245D01*
X153062517Y-125359709D01*
X153054230Y-125357467D01*
X153045556Y-125360958D01*
X153031076Y-125370279D01*
X153013370Y-125383701D01*
X153005957Y-125389834D01*
X152967805Y-125422200D01*
X152994766Y-125389100D01*
X153014020Y-125363965D01*
X153025325Y-125344247D01*
X153028929Y-125327603D01*
X153025086Y-125311693D01*
X153014046Y-125294175D01*
X153006018Y-125284216D01*
X152990037Y-125265223D01*
X153017184Y-125285945D01*
X153032356Y-125296957D01*
X153044137Y-125304472D01*
X153049176Y-125306667D01*
X153064976Y-125302623D01*
X153085962Y-125291320D01*
X153109891Y-125273996D01*
X153113292Y-125271208D01*
X153141918Y-125247400D01*
X153112448Y-125282971D01*
G36*
X151257818Y-125079079D02*
X151269532Y-125089669D01*
X151286336Y-125105644D01*
X151306857Y-125125630D01*
X151329720Y-125148259D01*
X151353554Y-125172157D01*
X151376986Y-125195955D01*
X151398641Y-125218280D01*
X151417147Y-125237761D01*
X151431132Y-125253028D01*
X151434837Y-125257278D01*
X151446399Y-125271458D01*
X151450384Y-125277928D01*
X151447171Y-125276990D01*
X151437139Y-125268942D01*
X151420667Y-125254085D01*
X151398134Y-125232718D01*
X151374134Y-125209300D01*
X151341635Y-125176863D01*
X151312991Y-125147487D01*
X151288954Y-125122001D01*
X151270277Y-125101236D01*
X151257712Y-125086021D01*
X151252014Y-125077188D01*
X151252566Y-125075245D01*
X151257818Y-125079079D01*
X151257818Y-125079079D01*
G37*
X151257818Y-125079079D02*
X151269532Y-125089669D01*
X151286336Y-125105644D01*
X151306857Y-125125630D01*
X151329720Y-125148259D01*
X151353554Y-125172157D01*
X151376986Y-125195955D01*
X151398641Y-125218280D01*
X151417147Y-125237761D01*
X151431132Y-125253028D01*
X151434837Y-125257278D01*
X151446399Y-125271458D01*
X151450384Y-125277928D01*
X151447171Y-125276990D01*
X151437139Y-125268942D01*
X151420667Y-125254085D01*
X151398134Y-125232718D01*
X151374134Y-125209300D01*
X151341635Y-125176863D01*
X151312991Y-125147487D01*
X151288954Y-125122001D01*
X151270277Y-125101236D01*
X151257712Y-125086021D01*
X151252014Y-125077188D01*
X151252566Y-125075245D01*
X151257818Y-125079079D01*
G36*
X151878707Y-125079079D02*
X151890421Y-125089669D01*
X151907225Y-125105644D01*
X151927746Y-125125630D01*
X151950609Y-125148259D01*
X151974443Y-125172157D01*
X151997875Y-125195955D01*
X152019530Y-125218280D01*
X152038036Y-125237761D01*
X152052020Y-125253028D01*
X152055726Y-125257278D01*
X152067288Y-125271458D01*
X152071273Y-125277928D01*
X152068060Y-125276990D01*
X152058028Y-125268942D01*
X152041556Y-125254085D01*
X152019023Y-125232718D01*
X151995023Y-125209300D01*
X151962524Y-125176863D01*
X151933880Y-125147487D01*
X151909842Y-125122001D01*
X151891165Y-125101236D01*
X151878601Y-125086021D01*
X151872903Y-125077188D01*
X151873455Y-125075245D01*
X151878707Y-125079079D01*
X151878707Y-125079079D01*
G37*
X151878707Y-125079079D02*
X151890421Y-125089669D01*
X151907225Y-125105644D01*
X151927746Y-125125630D01*
X151950609Y-125148259D01*
X151974443Y-125172157D01*
X151997875Y-125195955D01*
X152019530Y-125218280D01*
X152038036Y-125237761D01*
X152052020Y-125253028D01*
X152055726Y-125257278D01*
X152067288Y-125271458D01*
X152071273Y-125277928D01*
X152068060Y-125276990D01*
X152058028Y-125268942D01*
X152041556Y-125254085D01*
X152019023Y-125232718D01*
X151995023Y-125209300D01*
X151962524Y-125176863D01*
X151933880Y-125147487D01*
X151909842Y-125122001D01*
X151891165Y-125101236D01*
X151878601Y-125086021D01*
X151872903Y-125077188D01*
X151873455Y-125075245D01*
X151878707Y-125079079D01*
G36*
X152499596Y-125079079D02*
X152511310Y-125089669D01*
X152528114Y-125105644D01*
X152548635Y-125125630D01*
X152571498Y-125148259D01*
X152595332Y-125172157D01*
X152618763Y-125195955D01*
X152640419Y-125218280D01*
X152658925Y-125237761D01*
X152672909Y-125253028D01*
X152676615Y-125257278D01*
X152688177Y-125271458D01*
X152692162Y-125277928D01*
X152688949Y-125276990D01*
X152678917Y-125268942D01*
X152662445Y-125254085D01*
X152639912Y-125232718D01*
X152615912Y-125209300D01*
X152583413Y-125176863D01*
X152554768Y-125147487D01*
X152530731Y-125122001D01*
X152512054Y-125101236D01*
X152499490Y-125086021D01*
X152493792Y-125077188D01*
X152494344Y-125075245D01*
X152499596Y-125079079D01*
X152499596Y-125079079D01*
G37*
X152499596Y-125079079D02*
X152511310Y-125089669D01*
X152528114Y-125105644D01*
X152548635Y-125125630D01*
X152571498Y-125148259D01*
X152595332Y-125172157D01*
X152618763Y-125195955D01*
X152640419Y-125218280D01*
X152658925Y-125237761D01*
X152672909Y-125253028D01*
X152676615Y-125257278D01*
X152688177Y-125271458D01*
X152692162Y-125277928D01*
X152688949Y-125276990D01*
X152678917Y-125268942D01*
X152662445Y-125254085D01*
X152639912Y-125232718D01*
X152615912Y-125209300D01*
X152583413Y-125176863D01*
X152554768Y-125147487D01*
X152530731Y-125122001D01*
X152512054Y-125101236D01*
X152499490Y-125086021D01*
X152493792Y-125077188D01*
X152494344Y-125075245D01*
X152499596Y-125079079D01*
G36*
X151765803Y-125071343D02*
X151766904Y-125073766D01*
X151765613Y-125077641D01*
X151761052Y-125083894D01*
X151752341Y-125093450D01*
X151738602Y-125107233D01*
X151718958Y-125126170D01*
X151692529Y-125151185D01*
X151669045Y-125173255D01*
X151590022Y-125247400D01*
X151653035Y-125179667D01*
X151686286Y-125144148D01*
X151712733Y-125116442D01*
X151733048Y-125095903D01*
X151747902Y-125081886D01*
X151757967Y-125073745D01*
X151763916Y-125070834D01*
X151765803Y-125071343D01*
X151765803Y-125071343D01*
G37*
X151765803Y-125071343D02*
X151766904Y-125073766D01*
X151765613Y-125077641D01*
X151761052Y-125083894D01*
X151752341Y-125093450D01*
X151738602Y-125107233D01*
X151718958Y-125126170D01*
X151692529Y-125151185D01*
X151669045Y-125173255D01*
X151590022Y-125247400D01*
X151653035Y-125179667D01*
X151686286Y-125144148D01*
X151712733Y-125116442D01*
X151733048Y-125095903D01*
X151747902Y-125081886D01*
X151757967Y-125073745D01*
X151763916Y-125070834D01*
X151765803Y-125071343D01*
G36*
X152386692Y-125071343D02*
X152387793Y-125073766D01*
X152386502Y-125077641D01*
X152381940Y-125083894D01*
X152373230Y-125093450D01*
X152359491Y-125107233D01*
X152339847Y-125126170D01*
X152313418Y-125151185D01*
X152289934Y-125173255D01*
X152210911Y-125247400D01*
X152273924Y-125179667D01*
X152307175Y-125144148D01*
X152333622Y-125116442D01*
X152353937Y-125095903D01*
X152368791Y-125081886D01*
X152378856Y-125073745D01*
X152384805Y-125070834D01*
X152386692Y-125071343D01*
X152386692Y-125071343D01*
G37*
X152386692Y-125071343D02*
X152387793Y-125073766D01*
X152386502Y-125077641D01*
X152381940Y-125083894D01*
X152373230Y-125093450D01*
X152359491Y-125107233D01*
X152339847Y-125126170D01*
X152313418Y-125151185D01*
X152289934Y-125173255D01*
X152210911Y-125247400D01*
X152273924Y-125179667D01*
X152307175Y-125144148D01*
X152333622Y-125116442D01*
X152353937Y-125095903D01*
X152368791Y-125081886D01*
X152378856Y-125073745D01*
X152384805Y-125070834D01*
X152386692Y-125071343D01*
G36*
X151560226Y-124972527D02*
X151546455Y-124990284D01*
X151536124Y-125005770D01*
X151531011Y-125016250D01*
X151530756Y-125017837D01*
X151532654Y-125026993D01*
X151539042Y-125039132D01*
X151550957Y-125055840D01*
X151569441Y-125078704D01*
X151574834Y-125085122D01*
X151589139Y-125102373D01*
X151595924Y-125111509D01*
X151595214Y-125112809D01*
X151587033Y-125106555D01*
X151575911Y-125096989D01*
X151549481Y-125075006D01*
X151527170Y-125058801D01*
X151510295Y-125049264D01*
X151502008Y-125047022D01*
X151493334Y-125050514D01*
X151478854Y-125059835D01*
X151461147Y-125073256D01*
X151453735Y-125079389D01*
X151415583Y-125111756D01*
X151442544Y-125078655D01*
X151461798Y-125053521D01*
X151473102Y-125033802D01*
X151476707Y-125017158D01*
X151472864Y-125001248D01*
X151461824Y-124983730D01*
X151453796Y-124973771D01*
X151437815Y-124954778D01*
X151464962Y-124975500D01*
X151480134Y-124986512D01*
X151491914Y-124994027D01*
X151496954Y-124996222D01*
X151512754Y-124992179D01*
X151533739Y-124980875D01*
X151557669Y-124963552D01*
X151561070Y-124960763D01*
X151589695Y-124936956D01*
X151560226Y-124972527D01*
X151560226Y-124972527D01*
G37*
X151560226Y-124972527D02*
X151546455Y-124990284D01*
X151536124Y-125005770D01*
X151531011Y-125016250D01*
X151530756Y-125017837D01*
X151532654Y-125026993D01*
X151539042Y-125039132D01*
X151550957Y-125055840D01*
X151569441Y-125078704D01*
X151574834Y-125085122D01*
X151589139Y-125102373D01*
X151595924Y-125111509D01*
X151595214Y-125112809D01*
X151587033Y-125106555D01*
X151575911Y-125096989D01*
X151549481Y-125075006D01*
X151527170Y-125058801D01*
X151510295Y-125049264D01*
X151502008Y-125047022D01*
X151493334Y-125050514D01*
X151478854Y-125059835D01*
X151461147Y-125073256D01*
X151453735Y-125079389D01*
X151415583Y-125111756D01*
X151442544Y-125078655D01*
X151461798Y-125053521D01*
X151473102Y-125033802D01*
X151476707Y-125017158D01*
X151472864Y-125001248D01*
X151461824Y-124983730D01*
X151453796Y-124973771D01*
X151437815Y-124954778D01*
X151464962Y-124975500D01*
X151480134Y-124986512D01*
X151491914Y-124994027D01*
X151496954Y-124996222D01*
X151512754Y-124992179D01*
X151533739Y-124980875D01*
X151557669Y-124963552D01*
X151561070Y-124960763D01*
X151589695Y-124936956D01*
X151560226Y-124972527D01*
G36*
X152181114Y-124972527D02*
X152167344Y-124990284D01*
X152157013Y-125005770D01*
X152151900Y-125016250D01*
X152151645Y-125017837D01*
X152153543Y-125026993D01*
X152159931Y-125039132D01*
X152171846Y-125055840D01*
X152190330Y-125078704D01*
X152195722Y-125085122D01*
X152210028Y-125102373D01*
X152216813Y-125111509D01*
X152216103Y-125112809D01*
X152207922Y-125106555D01*
X152196800Y-125096989D01*
X152170370Y-125075006D01*
X152148059Y-125058801D01*
X152131184Y-125049264D01*
X152122897Y-125047022D01*
X152114223Y-125050514D01*
X152099743Y-125059835D01*
X152082036Y-125073256D01*
X152074624Y-125079389D01*
X152036472Y-125111756D01*
X152063432Y-125078655D01*
X152082687Y-125053521D01*
X152093991Y-125033802D01*
X152097596Y-125017158D01*
X152093753Y-125001248D01*
X152082712Y-124983730D01*
X152074685Y-124973771D01*
X152058704Y-124954778D01*
X152085851Y-124975500D01*
X152101023Y-124986512D01*
X152112803Y-124994027D01*
X152117843Y-124996222D01*
X152133643Y-124992179D01*
X152154628Y-124980875D01*
X152178558Y-124963552D01*
X152181959Y-124960763D01*
X152210584Y-124936956D01*
X152181114Y-124972527D01*
X152181114Y-124972527D01*
G37*
X152181114Y-124972527D02*
X152167344Y-124990284D01*
X152157013Y-125005770D01*
X152151900Y-125016250D01*
X152151645Y-125017837D01*
X152153543Y-125026993D01*
X152159931Y-125039132D01*
X152171846Y-125055840D01*
X152190330Y-125078704D01*
X152195722Y-125085122D01*
X152210028Y-125102373D01*
X152216813Y-125111509D01*
X152216103Y-125112809D01*
X152207922Y-125106555D01*
X152196800Y-125096989D01*
X152170370Y-125075006D01*
X152148059Y-125058801D01*
X152131184Y-125049264D01*
X152122897Y-125047022D01*
X152114223Y-125050514D01*
X152099743Y-125059835D01*
X152082036Y-125073256D01*
X152074624Y-125079389D01*
X152036472Y-125111756D01*
X152063432Y-125078655D01*
X152082687Y-125053521D01*
X152093991Y-125033802D01*
X152097596Y-125017158D01*
X152093753Y-125001248D01*
X152082712Y-124983730D01*
X152074685Y-124973771D01*
X152058704Y-124954778D01*
X152085851Y-124975500D01*
X152101023Y-124986512D01*
X152112803Y-124994027D01*
X152117843Y-124996222D01*
X152133643Y-124992179D01*
X152154628Y-124980875D01*
X152178558Y-124963552D01*
X152181959Y-124960763D01*
X152210584Y-124936956D01*
X152181114Y-124972527D01*
G36*
X152189151Y-124768635D02*
X152200866Y-124779225D01*
X152217670Y-124795199D01*
X152238190Y-124815186D01*
X152261054Y-124837814D01*
X152284888Y-124861713D01*
X152308319Y-124885510D01*
X152329974Y-124907835D01*
X152348481Y-124927317D01*
X152362465Y-124942583D01*
X152366171Y-124946834D01*
X152377733Y-124961013D01*
X152381718Y-124967484D01*
X152378504Y-124966546D01*
X152368472Y-124958498D01*
X152352000Y-124943641D01*
X152329468Y-124922273D01*
X152305467Y-124898856D01*
X152272968Y-124866419D01*
X152244324Y-124837042D01*
X152220287Y-124811556D01*
X152201610Y-124790791D01*
X152189046Y-124775577D01*
X152183347Y-124766743D01*
X152183899Y-124764800D01*
X152189151Y-124768635D01*
X152189151Y-124768635D01*
G37*
X152189151Y-124768635D02*
X152200866Y-124779225D01*
X152217670Y-124795199D01*
X152238190Y-124815186D01*
X152261054Y-124837814D01*
X152284888Y-124861713D01*
X152308319Y-124885510D01*
X152329974Y-124907835D01*
X152348481Y-124927317D01*
X152362465Y-124942583D01*
X152366171Y-124946834D01*
X152377733Y-124961013D01*
X152381718Y-124967484D01*
X152378504Y-124966546D01*
X152368472Y-124958498D01*
X152352000Y-124943641D01*
X152329468Y-124922273D01*
X152305467Y-124898856D01*
X152272968Y-124866419D01*
X152244324Y-124837042D01*
X152220287Y-124811556D01*
X152201610Y-124790791D01*
X152189046Y-124775577D01*
X152183347Y-124766743D01*
X152183899Y-124764800D01*
X152189151Y-124768635D01*
G36*
X152076247Y-124760899D02*
X152077349Y-124763322D01*
X152076058Y-124767197D01*
X152071496Y-124773450D01*
X152062785Y-124783005D01*
X152049047Y-124796789D01*
X152029402Y-124815725D01*
X152002974Y-124840740D01*
X151979489Y-124862811D01*
X151900467Y-124936956D01*
X151963480Y-124869222D01*
X151996731Y-124833704D01*
X152023178Y-124805998D01*
X152043492Y-124785459D01*
X152058346Y-124771441D01*
X152068412Y-124763300D01*
X152074361Y-124760390D01*
X152076247Y-124760899D01*
X152076247Y-124760899D01*
G37*
X152076247Y-124760899D02*
X152077349Y-124763322D01*
X152076058Y-124767197D01*
X152071496Y-124773450D01*
X152062785Y-124783005D01*
X152049047Y-124796789D01*
X152029402Y-124815725D01*
X152002974Y-124840740D01*
X151979489Y-124862811D01*
X151900467Y-124936956D01*
X151963480Y-124869222D01*
X151996731Y-124833704D01*
X152023178Y-124805998D01*
X152043492Y-124785459D01*
X152058346Y-124771441D01*
X152068412Y-124763300D01*
X152074361Y-124760390D01*
X152076247Y-124760899D01*
D15*
X142874080Y-116057881D02*
X141874080Y-116057881D01*
X141874080Y-117757881D02*
X142874080Y-117757881D01*
X151258000Y-121284000D02*
X153938000Y-121284000D01*
X159638000Y-121284000D02*
X156958000Y-121284000D01*
X158878000Y-112904000D02*
X156958000Y-112904000D01*
X152018000Y-112904000D02*
X153938000Y-112904000D01*
X151258000Y-121284000D02*
X151258000Y-113664000D01*
X151258000Y-113664000D02*
X152018000Y-112904000D01*
X158878000Y-112904000D02*
X159638000Y-113664000D01*
X159638000Y-113664000D02*
X159638000Y-121284000D01*
X140474000Y-129109975D02*
X140474000Y-125909975D01*
X141974000Y-125909975D02*
X141974000Y-129109975D01*
X141974000Y-125909975D02*
X140474000Y-125909975D01*
X139918000Y-104378000D02*
X139918000Y-102378000D01*
X139918000Y-102378000D02*
X136018000Y-102378000D01*
X139918000Y-104378000D02*
X136018000Y-104378000D01*
X144768000Y-127109975D02*
X144768000Y-130309975D01*
X143268000Y-130309975D02*
X143268000Y-127109975D01*
X143268000Y-130309975D02*
X144768000Y-130309975D01*
X136694080Y-120278000D02*
X137894080Y-120278000D01*
X137894080Y-122038000D02*
X136694080Y-122038000D01*
X137894080Y-119933992D02*
X136694080Y-119933992D01*
X136694080Y-118173992D02*
X137894080Y-118173992D01*
X142974080Y-119933992D02*
X141774080Y-119933992D01*
X141774080Y-118173992D02*
X142974080Y-118173992D01*
X141774080Y-113995881D02*
X142974080Y-113995881D01*
X142974080Y-115755881D02*
X141774080Y-115755881D01*
X142104000Y-122429975D02*
X142104000Y-123629975D01*
X140344000Y-123629975D02*
X140344000Y-122429975D01*
X135010000Y-111852000D02*
X135010000Y-110652000D01*
X136770000Y-110652000D02*
X136770000Y-111852000D01*
X137068000Y-104784000D02*
X138268000Y-104784000D01*
X138268000Y-106544000D02*
X137068000Y-106544000D01*
X138268000Y-108576000D02*
X137068000Y-108576000D01*
X137068000Y-106816000D02*
X138268000Y-106816000D01*
X143138000Y-123629975D02*
X143138000Y-122429975D01*
X144898000Y-122429975D02*
X144898000Y-123629975D01*
X136394080Y-117615992D02*
X138194080Y-117615992D01*
X138194080Y-114395992D02*
X135244080Y-114395992D01*
X140460000Y-112832000D02*
X140460000Y-111902000D01*
X140460000Y-109672000D02*
X140460000Y-110602000D01*
X140460000Y-109672000D02*
X137300000Y-109672000D01*
X140460000Y-112832000D02*
X139000000Y-112832000D01*
X139672000Y-124106000D02*
X133672000Y-124106000D01*
X133672000Y-124106000D02*
X133672000Y-129386000D01*
X133672000Y-129386000D02*
X139672000Y-129386000D01*
X139672000Y-129386000D02*
X139672000Y-124106000D01*
X133672000Y-125476000D02*
X134672000Y-125476000D01*
X134672000Y-125476000D02*
X134672000Y-128016000D01*
X134672000Y-128016000D02*
X133672000Y-128016000D01*
X134672000Y-125476000D02*
X135102000Y-125726000D01*
X135102000Y-125726000D02*
X135102000Y-127766000D01*
X135102000Y-127766000D02*
X134672000Y-128016000D01*
X133672000Y-125726000D02*
X134672000Y-125726000D01*
X133672000Y-127766000D02*
X134672000Y-127766000D01*
X139672000Y-124676000D02*
X139052000Y-124676000D01*
X139052000Y-124676000D02*
X139052000Y-126276000D01*
X139052000Y-126276000D02*
X139672000Y-126276000D01*
X139672000Y-127216000D02*
X139052000Y-127216000D01*
X139052000Y-127216000D02*
X139052000Y-128816000D01*
X139052000Y-128816000D02*
X139672000Y-128816000D01*
X146248000Y-119378000D02*
X147178000Y-119378000D01*
X149408000Y-119378000D02*
X148478000Y-119378000D01*
X149408000Y-119378000D02*
X149408000Y-116218000D01*
X146248000Y-119378000D02*
X146248000Y-117918000D01*
X147228000Y-113928000D02*
X148428000Y-113928000D01*
X148428000Y-115688000D02*
X147228000Y-115688000D01*
D12*
X159492667Y-100512571D02*
X159159333Y-100512571D01*
X159159333Y-101036381D02*
X159159333Y-100036381D01*
X159635524Y-100036381D01*
X160540286Y-101036381D02*
X159968857Y-101036381D01*
X160254571Y-101036381D02*
X160254571Y-100036381D01*
X160159333Y-100179238D01*
X160064095Y-100274476D01*
X159968857Y-100322095D01*
X160940762Y-106465619D02*
X160845524Y-106418000D01*
X160750286Y-106322762D01*
X160607429Y-106179905D01*
X160512190Y-106132286D01*
X160416952Y-106132286D01*
X160464571Y-106370381D02*
X160369333Y-106322762D01*
X160274095Y-106227524D01*
X160226476Y-106037048D01*
X160226476Y-105703714D01*
X160274095Y-105513238D01*
X160369333Y-105418000D01*
X160464571Y-105370381D01*
X160655048Y-105370381D01*
X160750286Y-105418000D01*
X160845524Y-105513238D01*
X160893143Y-105703714D01*
X160893143Y-106037048D01*
X160845524Y-106227524D01*
X160750286Y-106322762D01*
X160655048Y-106370381D01*
X160464571Y-106370381D01*
X161226476Y-105370381D02*
X161845524Y-105370381D01*
X161512190Y-105751333D01*
X161655048Y-105751333D01*
X161750286Y-105798952D01*
X161797905Y-105846571D01*
X161845524Y-105941810D01*
X161845524Y-106179905D01*
X161797905Y-106275143D01*
X161750286Y-106322762D01*
X161655048Y-106370381D01*
X161369333Y-106370381D01*
X161274095Y-106322762D01*
X161226476Y-106275143D01*
X149002762Y-97829619D02*
X148907524Y-97782000D01*
X148812286Y-97686762D01*
X148669429Y-97543905D01*
X148574190Y-97496286D01*
X148478952Y-97496286D01*
X148526571Y-97734381D02*
X148431333Y-97686762D01*
X148336095Y-97591524D01*
X148288476Y-97401048D01*
X148288476Y-97067714D01*
X148336095Y-96877238D01*
X148431333Y-96782000D01*
X148526571Y-96734381D01*
X148717048Y-96734381D01*
X148812286Y-96782000D01*
X148907524Y-96877238D01*
X148955143Y-97067714D01*
X148955143Y-97401048D01*
X148907524Y-97591524D01*
X148812286Y-97686762D01*
X148717048Y-97734381D01*
X148526571Y-97734381D01*
X149907524Y-97734381D02*
X149336095Y-97734381D01*
X149621809Y-97734381D02*
X149621809Y-96734381D01*
X149526571Y-96877238D01*
X149431333Y-96972476D01*
X149336095Y-97020095D01*
X141794267Y-83272381D02*
X141794267Y-83986667D01*
X141746647Y-84129524D01*
X141651409Y-84224762D01*
X141508552Y-84272381D01*
X141413314Y-84272381D01*
X142794267Y-84272381D02*
X142222838Y-84272381D01*
X142508552Y-84272381D02*
X142508552Y-83272381D01*
X142413314Y-83415238D01*
X142318076Y-83510476D01*
X142222838Y-83558095D01*
X138787619Y-82748381D02*
X138787619Y-81748381D01*
X139168572Y-81748381D01*
X139263810Y-81796000D01*
X139311429Y-81843619D01*
X139359048Y-81938857D01*
X139359048Y-82081714D01*
X139311429Y-82176952D01*
X139263810Y-82224571D01*
X139168572Y-82272190D01*
X138787619Y-82272190D01*
X139978095Y-81748381D02*
X140168572Y-81748381D01*
X140263810Y-81796000D01*
X140359048Y-81891238D01*
X140406667Y-82081714D01*
X140406667Y-82415048D01*
X140359048Y-82605524D01*
X140263810Y-82700762D01*
X140168572Y-82748381D01*
X139978095Y-82748381D01*
X139882857Y-82700762D01*
X139787619Y-82605524D01*
X139740000Y-82415048D01*
X139740000Y-82081714D01*
X139787619Y-81891238D01*
X139882857Y-81796000D01*
X139978095Y-81748381D01*
X140740000Y-81748381D02*
X140978095Y-82748381D01*
X141168572Y-82034095D01*
X141359048Y-82748381D01*
X141597143Y-81748381D01*
X141978095Y-82224571D02*
X142311429Y-82224571D01*
X142454286Y-82748381D02*
X141978095Y-82748381D01*
X141978095Y-81748381D01*
X142454286Y-81748381D01*
X143454286Y-82748381D02*
X143120952Y-82272190D01*
X142882857Y-82748381D02*
X142882857Y-81748381D01*
X143263810Y-81748381D01*
X143359048Y-81796000D01*
X143406667Y-81843619D01*
X143454286Y-81938857D01*
X143454286Y-82081714D01*
X143406667Y-82176952D01*
X143359048Y-82224571D01*
X143263810Y-82272190D01*
X142882857Y-82272190D01*
X144644762Y-82748381D02*
X144644762Y-81748381D01*
X145120952Y-82748381D02*
X145120952Y-81748381D01*
X145692381Y-82748381D01*
X145692381Y-81748381D01*
X143343334Y-112371143D02*
X143295715Y-112418762D01*
X143152858Y-112466381D01*
X143057620Y-112466381D01*
X142914762Y-112418762D01*
X142819524Y-112323524D01*
X142771905Y-112228286D01*
X142724286Y-112037810D01*
X142724286Y-111894952D01*
X142771905Y-111704476D01*
X142819524Y-111609238D01*
X142914762Y-111514000D01*
X143057620Y-111466381D01*
X143152858Y-111466381D01*
X143295715Y-111514000D01*
X143343334Y-111561619D01*
X144295715Y-112466381D02*
X143724286Y-112466381D01*
X144010000Y-112466381D02*
X144010000Y-111466381D01*
X143914762Y-111609238D01*
X143819524Y-111704476D01*
X143724286Y-111752095D01*
X160869334Y-113895143D02*
X160821715Y-113942762D01*
X160678858Y-113990381D01*
X160583620Y-113990381D01*
X160440762Y-113942762D01*
X160345524Y-113847524D01*
X160297905Y-113752286D01*
X160250286Y-113561810D01*
X160250286Y-113418952D01*
X160297905Y-113228476D01*
X160345524Y-113133238D01*
X160440762Y-113038000D01*
X160583620Y-112990381D01*
X160678858Y-112990381D01*
X160821715Y-113038000D01*
X160869334Y-113085619D01*
X161250286Y-113085619D02*
X161297905Y-113038000D01*
X161393143Y-112990381D01*
X161631239Y-112990381D01*
X161726477Y-113038000D01*
X161774096Y-113085619D01*
X161821715Y-113180857D01*
X161821715Y-113276095D01*
X161774096Y-113418952D01*
X161202667Y-113990381D01*
X161821715Y-113990381D01*
X151619429Y-112694952D02*
X151619429Y-111933047D01*
X152000381Y-112313999D02*
X151238476Y-112313999D01*
X146248381Y-128848070D02*
X145248381Y-128848070D01*
X145248381Y-128609975D01*
X145296000Y-128467117D01*
X145391238Y-128371879D01*
X145486476Y-128324260D01*
X145676952Y-128276641D01*
X145819810Y-128276641D01*
X146010286Y-128324260D01*
X146105524Y-128371879D01*
X146200762Y-128467117D01*
X146248381Y-128609975D01*
X146248381Y-128848070D01*
X146248381Y-127324260D02*
X146248381Y-127895689D01*
X146248381Y-127609975D02*
X145248381Y-127609975D01*
X145391238Y-127705213D01*
X145486476Y-127800451D01*
X145534095Y-127895689D01*
X133373905Y-103830381D02*
X133373905Y-102830381D01*
X133612000Y-102830381D01*
X133754858Y-102878000D01*
X133850096Y-102973238D01*
X133897715Y-103068476D01*
X133945334Y-103258952D01*
X133945334Y-103401810D01*
X133897715Y-103592286D01*
X133850096Y-103687524D01*
X133754858Y-103782762D01*
X133612000Y-103830381D01*
X133373905Y-103830381D01*
X134326286Y-102925619D02*
X134373905Y-102878000D01*
X134469143Y-102830381D01*
X134707239Y-102830381D01*
X134802477Y-102878000D01*
X134850096Y-102925619D01*
X134897715Y-103020857D01*
X134897715Y-103116095D01*
X134850096Y-103258952D01*
X134278667Y-103830381D01*
X134897715Y-103830381D01*
X147772381Y-128848070D02*
X146772381Y-128848070D01*
X146772381Y-128609975D01*
X146820000Y-128467117D01*
X146915238Y-128371879D01*
X147010476Y-128324260D01*
X147200952Y-128276641D01*
X147343810Y-128276641D01*
X147534286Y-128324260D01*
X147629524Y-128371879D01*
X147724762Y-128467117D01*
X147772381Y-128609975D01*
X147772381Y-128848070D01*
X146772381Y-127943308D02*
X146772381Y-127324260D01*
X147153333Y-127657594D01*
X147153333Y-127514736D01*
X147200952Y-127419498D01*
X147248571Y-127371879D01*
X147343810Y-127324260D01*
X147581905Y-127324260D01*
X147677143Y-127371879D01*
X147724762Y-127419498D01*
X147772381Y-127514736D01*
X147772381Y-127800451D01*
X147724762Y-127895689D01*
X147677143Y-127943308D01*
X133945334Y-121610381D02*
X133612000Y-121134190D01*
X133373905Y-121610381D02*
X133373905Y-120610381D01*
X133754858Y-120610381D01*
X133850096Y-120658000D01*
X133897715Y-120705619D01*
X133945334Y-120800857D01*
X133945334Y-120943714D01*
X133897715Y-121038952D01*
X133850096Y-121086571D01*
X133754858Y-121134190D01*
X133373905Y-121134190D01*
X134897715Y-121610381D02*
X134326286Y-121610381D01*
X134612000Y-121610381D02*
X134612000Y-120610381D01*
X134516762Y-120753238D01*
X134421524Y-120848476D01*
X134326286Y-120896095D01*
X133945334Y-119578381D02*
X133612000Y-119102190D01*
X133373905Y-119578381D02*
X133373905Y-118578381D01*
X133754858Y-118578381D01*
X133850096Y-118626000D01*
X133897715Y-118673619D01*
X133945334Y-118768857D01*
X133945334Y-118911714D01*
X133897715Y-119006952D01*
X133850096Y-119054571D01*
X133754858Y-119102190D01*
X133373905Y-119102190D01*
X134326286Y-118673619D02*
X134373905Y-118626000D01*
X134469143Y-118578381D01*
X134707239Y-118578381D01*
X134802477Y-118626000D01*
X134850096Y-118673619D01*
X134897715Y-118768857D01*
X134897715Y-118864095D01*
X134850096Y-119006952D01*
X134278667Y-119578381D01*
X134897715Y-119578381D01*
X143343334Y-113736381D02*
X143010000Y-113260190D01*
X142771905Y-113736381D02*
X142771905Y-112736381D01*
X143152858Y-112736381D01*
X143248096Y-112784000D01*
X143295715Y-112831619D01*
X143343334Y-112926857D01*
X143343334Y-113069714D01*
X143295715Y-113164952D01*
X143248096Y-113212571D01*
X143152858Y-113260190D01*
X142771905Y-113260190D01*
X143676667Y-112736381D02*
X144295715Y-112736381D01*
X143962381Y-113117333D01*
X144105239Y-113117333D01*
X144200477Y-113164952D01*
X144248096Y-113212571D01*
X144295715Y-113307810D01*
X144295715Y-113545905D01*
X144248096Y-113641143D01*
X144200477Y-113688762D01*
X144105239Y-113736381D01*
X143819524Y-113736381D01*
X143724286Y-113688762D01*
X143676667Y-113641143D01*
X143343334Y-111196381D02*
X143010000Y-110720190D01*
X142771905Y-111196381D02*
X142771905Y-110196381D01*
X143152858Y-110196381D01*
X143248096Y-110244000D01*
X143295715Y-110291619D01*
X143343334Y-110386857D01*
X143343334Y-110529714D01*
X143295715Y-110624952D01*
X143248096Y-110672571D01*
X143152858Y-110720190D01*
X142771905Y-110720190D01*
X144200477Y-110529714D02*
X144200477Y-111196381D01*
X143962381Y-110148762D02*
X143724286Y-110863048D01*
X144343334Y-110863048D01*
X146248381Y-123196641D02*
X145772190Y-123529975D01*
X146248381Y-123768070D02*
X145248381Y-123768070D01*
X145248381Y-123387117D01*
X145296000Y-123291879D01*
X145343619Y-123244260D01*
X145438857Y-123196641D01*
X145581714Y-123196641D01*
X145676952Y-123244260D01*
X145724571Y-123291879D01*
X145772190Y-123387117D01*
X145772190Y-123768070D01*
X145248381Y-122291879D02*
X145248381Y-122768070D01*
X145724571Y-122815689D01*
X145676952Y-122768070D01*
X145629333Y-122672832D01*
X145629333Y-122434736D01*
X145676952Y-122339498D01*
X145724571Y-122291879D01*
X145819810Y-122244260D01*
X146057905Y-122244260D01*
X146153143Y-122291879D01*
X146200762Y-122339498D01*
X146248381Y-122434736D01*
X146248381Y-122672832D01*
X146200762Y-122768070D01*
X146153143Y-122815689D01*
X134564381Y-111418666D02*
X134088190Y-111752000D01*
X134564381Y-111990095D02*
X133564381Y-111990095D01*
X133564381Y-111609142D01*
X133612000Y-111513904D01*
X133659619Y-111466285D01*
X133754857Y-111418666D01*
X133897714Y-111418666D01*
X133992952Y-111466285D01*
X134040571Y-111513904D01*
X134088190Y-111609142D01*
X134088190Y-111990095D01*
X133564381Y-110561523D02*
X133564381Y-110752000D01*
X133612000Y-110847238D01*
X133659619Y-110894857D01*
X133802476Y-110990095D01*
X133992952Y-111037714D01*
X134373905Y-111037714D01*
X134469143Y-110990095D01*
X134516762Y-110942476D01*
X134564381Y-110847238D01*
X134564381Y-110656761D01*
X134516762Y-110561523D01*
X134469143Y-110513904D01*
X134373905Y-110466285D01*
X134135810Y-110466285D01*
X134040571Y-110513904D01*
X133992952Y-110561523D01*
X133945333Y-110656761D01*
X133945333Y-110847238D01*
X133992952Y-110942476D01*
X134040571Y-110990095D01*
X134135810Y-111037714D01*
X133945334Y-106116381D02*
X133612000Y-105640190D01*
X133373905Y-106116381D02*
X133373905Y-105116381D01*
X133754858Y-105116381D01*
X133850096Y-105164000D01*
X133897715Y-105211619D01*
X133945334Y-105306857D01*
X133945334Y-105449714D01*
X133897715Y-105544952D01*
X133850096Y-105592571D01*
X133754858Y-105640190D01*
X133373905Y-105640190D01*
X134278667Y-105116381D02*
X134945334Y-105116381D01*
X134516762Y-106116381D01*
X133945334Y-108148381D02*
X133612000Y-107672190D01*
X133373905Y-108148381D02*
X133373905Y-107148381D01*
X133754858Y-107148381D01*
X133850096Y-107196000D01*
X133897715Y-107243619D01*
X133945334Y-107338857D01*
X133945334Y-107481714D01*
X133897715Y-107576952D01*
X133850096Y-107624571D01*
X133754858Y-107672190D01*
X133373905Y-107672190D01*
X134516762Y-107576952D02*
X134421524Y-107529333D01*
X134373905Y-107481714D01*
X134326286Y-107386476D01*
X134326286Y-107338857D01*
X134373905Y-107243619D01*
X134421524Y-107196000D01*
X134516762Y-107148381D01*
X134707239Y-107148381D01*
X134802477Y-107196000D01*
X134850096Y-107243619D01*
X134897715Y-107338857D01*
X134897715Y-107386476D01*
X134850096Y-107481714D01*
X134802477Y-107529333D01*
X134707239Y-107576952D01*
X134516762Y-107576952D01*
X134421524Y-107624571D01*
X134373905Y-107672190D01*
X134326286Y-107767429D01*
X134326286Y-107957905D01*
X134373905Y-108053143D01*
X134421524Y-108100762D01*
X134516762Y-108148381D01*
X134707239Y-108148381D01*
X134802477Y-108100762D01*
X134850096Y-108053143D01*
X134897715Y-107957905D01*
X134897715Y-107767429D01*
X134850096Y-107672190D01*
X134802477Y-107624571D01*
X134707239Y-107576952D01*
X147772381Y-123196641D02*
X147296190Y-123529975D01*
X147772381Y-123768070D02*
X146772381Y-123768070D01*
X146772381Y-123387117D01*
X146820000Y-123291879D01*
X146867619Y-123244260D01*
X146962857Y-123196641D01*
X147105714Y-123196641D01*
X147200952Y-123244260D01*
X147248571Y-123291879D01*
X147296190Y-123387117D01*
X147296190Y-123768070D01*
X147772381Y-122720451D02*
X147772381Y-122529975D01*
X147724762Y-122434736D01*
X147677143Y-122387117D01*
X147534286Y-122291879D01*
X147343810Y-122244260D01*
X146962857Y-122244260D01*
X146867619Y-122291879D01*
X146820000Y-122339498D01*
X146772381Y-122434736D01*
X146772381Y-122625213D01*
X146820000Y-122720451D01*
X146867619Y-122768070D01*
X146962857Y-122815689D01*
X147200952Y-122815689D01*
X147296190Y-122768070D01*
X147343810Y-122720451D01*
X147391429Y-122625213D01*
X147391429Y-122434736D01*
X147343810Y-122339498D01*
X147296190Y-122291879D01*
X147200952Y-122244260D01*
X133350095Y-115530381D02*
X133350095Y-116339905D01*
X133397714Y-116435143D01*
X133445333Y-116482762D01*
X133540571Y-116530381D01*
X133731048Y-116530381D01*
X133826286Y-116482762D01*
X133873905Y-116435143D01*
X133921524Y-116339905D01*
X133921524Y-115530381D01*
X134921524Y-116530381D02*
X134350095Y-116530381D01*
X134635809Y-116530381D02*
X134635809Y-115530381D01*
X134540571Y-115673238D01*
X134445333Y-115768476D01*
X134350095Y-115816095D01*
X141636762Y-110021619D02*
X141541524Y-109974000D01*
X141446286Y-109878762D01*
X141303429Y-109735905D01*
X141208190Y-109688286D01*
X141112952Y-109688286D01*
X141160571Y-109926381D02*
X141065333Y-109878762D01*
X140970095Y-109783524D01*
X140922476Y-109593048D01*
X140922476Y-109259714D01*
X140970095Y-109069238D01*
X141065333Y-108974000D01*
X141160571Y-108926381D01*
X141351048Y-108926381D01*
X141446286Y-108974000D01*
X141541524Y-109069238D01*
X141589143Y-109259714D01*
X141589143Y-109593048D01*
X141541524Y-109783524D01*
X141446286Y-109878762D01*
X141351048Y-109926381D01*
X141160571Y-109926381D01*
X141970095Y-109021619D02*
X142017714Y-108974000D01*
X142112952Y-108926381D01*
X142351048Y-108926381D01*
X142446286Y-108974000D01*
X142493905Y-109021619D01*
X142541524Y-109116857D01*
X142541524Y-109212095D01*
X142493905Y-109354952D01*
X141922476Y-109926381D01*
X142541524Y-109926381D01*
X134032667Y-122642381D02*
X134032667Y-123356667D01*
X133985047Y-123499524D01*
X133889809Y-123594762D01*
X133746952Y-123642381D01*
X133651714Y-123642381D01*
X134413619Y-122642381D02*
X135032667Y-122642381D01*
X134699333Y-123023333D01*
X134842191Y-123023333D01*
X134937429Y-123070952D01*
X134985048Y-123118571D01*
X135032667Y-123213810D01*
X135032667Y-123451905D01*
X134985048Y-123547143D01*
X134937429Y-123594762D01*
X134842191Y-123642381D01*
X134556476Y-123642381D01*
X134461238Y-123594762D01*
X134413619Y-123547143D01*
X149764762Y-120943619D02*
X149669524Y-120896000D01*
X149574286Y-120800762D01*
X149431429Y-120657905D01*
X149336190Y-120610286D01*
X149240952Y-120610286D01*
X149288571Y-120848381D02*
X149193333Y-120800762D01*
X149098095Y-120705524D01*
X149050476Y-120515048D01*
X149050476Y-120181714D01*
X149098095Y-119991238D01*
X149193333Y-119896000D01*
X149288571Y-119848381D01*
X149479048Y-119848381D01*
X149574286Y-119896000D01*
X149669524Y-119991238D01*
X149717143Y-120181714D01*
X149717143Y-120515048D01*
X149669524Y-120705524D01*
X149574286Y-120800762D01*
X149479048Y-120848381D01*
X149288571Y-120848381D01*
X150574286Y-120181714D02*
X150574286Y-120848381D01*
X150336190Y-119800762D02*
X150098095Y-120515048D01*
X150717143Y-120515048D01*
X147185143Y-113482381D02*
X146851809Y-113006190D01*
X146613714Y-113482381D02*
X146613714Y-112482381D01*
X146994667Y-112482381D01*
X147089905Y-112530000D01*
X147137524Y-112577619D01*
X147185143Y-112672857D01*
X147185143Y-112815714D01*
X147137524Y-112910952D01*
X147089905Y-112958571D01*
X146994667Y-113006190D01*
X146613714Y-113006190D01*
X148137524Y-113482381D02*
X147566095Y-113482381D01*
X147851809Y-113482381D02*
X147851809Y-112482381D01*
X147756571Y-112625238D01*
X147661333Y-112720476D01*
X147566095Y-112768095D01*
X148756571Y-112482381D02*
X148851810Y-112482381D01*
X148947048Y-112530000D01*
X148994667Y-112577619D01*
X149042286Y-112672857D01*
X149089905Y-112863333D01*
X149089905Y-113101429D01*
X149042286Y-113291905D01*
X148994667Y-113387143D01*
X148947048Y-113434762D01*
X148851810Y-113482381D01*
X148756571Y-113482381D01*
X148661333Y-113434762D01*
X148613714Y-113387143D01*
X148566095Y-113291905D01*
X148518476Y-113101429D01*
X148518476Y-112863333D01*
X148566095Y-112672857D01*
X148613714Y-112577619D01*
X148661333Y-112530000D01*
X148756571Y-112482381D01*
%LPC*%
D17*
X158011000Y-98124000D03*
X156438500Y-98124000D03*
X158013500Y-103044000D03*
X156438500Y-103044000D03*
D18*
X157226000Y-98124000D03*
X157226000Y-103044000D03*
D19*
X149860000Y-105664000D03*
D20*
X156160000Y-107944000D03*
D21*
X157835000Y-109469000D03*
X154485000Y-106419000D03*
X157835000Y-106419000D03*
X154485000Y-109469000D03*
D22*
X149310000Y-110224000D03*
X150410000Y-110224000D03*
D23*
X142246000Y-105038000D03*
D24*
X144526000Y-98738000D03*
D25*
X146051000Y-97063000D03*
X143001000Y-100413000D03*
X143001000Y-97063000D03*
X146051000Y-100413000D03*
D26*
X146806000Y-104488000D03*
X146806000Y-105588000D03*
D27*
X128130800Y-84683600D03*
X128130800Y-94335600D03*
D28*
X165473000Y-84709000D03*
X165473000Y-94352000D03*
D29*
X151638000Y-100838000D03*
D30*
X144627600Y-89509600D03*
D31*
X139627600Y-89509600D03*
D32*
X141124080Y-116907881D03*
X143624080Y-116907881D03*
D33*
X155448000Y-114044000D03*
X155448000Y-120144000D03*
D34*
X141224000Y-126759975D03*
X141224000Y-129459975D03*
D35*
X139318000Y-103378000D03*
X136018000Y-103378000D03*
D34*
X144018000Y-129459975D03*
X144018000Y-126759975D03*
D36*
X138644080Y-121158000D03*
X135944080Y-121158000D03*
X135944080Y-119053992D03*
X138644080Y-119053992D03*
X141024080Y-119053992D03*
X143724080Y-119053992D03*
X143724080Y-114875881D03*
X141024080Y-114875881D03*
D34*
X141224000Y-124379975D03*
X141224000Y-121679975D03*
X135890000Y-109902000D03*
X135890000Y-112602000D03*
D36*
X139018000Y-105664000D03*
X136318000Y-105664000D03*
X136318000Y-107696000D03*
X139018000Y-107696000D03*
D34*
X144018000Y-121679975D03*
X144018000Y-124379975D03*
D37*
X135944080Y-115055992D03*
X135944080Y-116005992D03*
X135944080Y-116955992D03*
X138644080Y-116955992D03*
X138644080Y-115055992D03*
X138644080Y-116005992D03*
D38*
X138200000Y-110302000D03*
X138200000Y-112202000D03*
X141200000Y-111252000D03*
D39*
X136652000Y-125476000D03*
D40*
X136652000Y-128016000D03*
D41*
X148778000Y-117118000D03*
X146878000Y-117118000D03*
X147828000Y-120118000D03*
D36*
X149178000Y-114808000D03*
X146478000Y-114808000D03*
M02*
