G04 #@! TF.FileFunction,Copper,L2,Bot,Signal*
%FSLAX46Y46*%
G04 Gerber Fmt 4.6, Leading zero omitted, Abs format (unit mm)*
G04 Created by KiCad (PCBNEW 4.0.7-e2-6376~58~ubuntu16.04.1) date Mon Nov  6 12:00:07 2017*
%MOMM*%
%LPD*%
G01*
G04 APERTURE LIST*
%ADD10C,0.100000*%
%ADD11C,0.381000*%
%ADD12R,1.575000X1.960000*%
%ADD13R,6.400000X5.800000*%
%ADD14R,3.050000X2.750000*%
%ADD15R,1.100000X1.200000*%
%ADD16R,5.800000X6.400000*%
%ADD17R,2.750000X3.050000*%
%ADD18R,1.200000X1.100000*%
%ADD19R,10.000000X7.000000*%
%ADD20O,6.850000X4.050000*%
%ADD21R,2.794000X2.794000*%
%ADD22C,2.794000*%
%ADD23R,2.600000X2.000000*%
%ADD24O,2.600000X2.000000*%
%ADD25C,0.635000*%
%ADD26C,3.810000*%
%ADD27C,5.080000*%
%ADD28C,0.254000*%
%ADD29C,0.203200*%
G04 APERTURE END LIST*
D10*
D11*
X151429720Y-92905580D02*
X153029920Y-92905580D01*
X153029920Y-92905580D02*
X153029920Y-94104460D01*
X153029920Y-90406220D02*
X151528780Y-90406220D01*
X151528780Y-90406220D02*
X151528780Y-91305380D01*
X151528780Y-91305380D02*
X151528780Y-91506040D01*
X151528780Y-91506040D02*
X151630380Y-91704160D01*
X151630380Y-91704160D02*
X151831040Y-91805760D01*
X151831040Y-91805760D02*
X152029160Y-91805760D01*
X152029160Y-91805760D02*
X152229820Y-91605100D01*
X152229820Y-91605100D02*
X152328880Y-91305380D01*
X152328880Y-91305380D02*
X152328880Y-90406220D01*
X151630380Y-89204800D02*
X151528780Y-89004140D01*
X151528780Y-89004140D02*
X151528780Y-88503760D01*
X151528780Y-88503760D02*
X151630380Y-88204040D01*
X151630380Y-88204040D02*
X151729440Y-88005920D01*
X151729440Y-88005920D02*
X152029160Y-87805260D01*
X152029160Y-87805260D02*
X152328880Y-87805260D01*
X152328880Y-87805260D02*
X152730200Y-87904320D01*
X152730200Y-87904320D02*
X152930860Y-88204040D01*
X152930860Y-88204040D02*
X153029920Y-88503760D01*
X153029920Y-88503760D02*
X153029920Y-88806020D01*
X153029920Y-88806020D02*
X152930860Y-89303860D01*
X152930860Y-89303860D02*
X152430480Y-89303860D01*
X152430480Y-89303860D02*
X152430480Y-88806020D01*
X148930360Y-92605860D02*
X150230840Y-92605860D01*
X150230840Y-92605860D02*
X150428960Y-92905580D01*
X150428960Y-92905580D02*
X150428960Y-93205300D01*
X150428960Y-93205300D02*
X150428960Y-93604080D01*
X150428960Y-93604080D02*
X150329900Y-93903800D01*
X150329900Y-93903800D02*
X150230840Y-94104460D01*
X150230840Y-94104460D02*
X148930360Y-94104460D01*
X150428960Y-90004900D02*
X148930360Y-90004900D01*
X148930360Y-90004900D02*
X150428960Y-91506040D01*
X150428960Y-91506040D02*
X148930360Y-91506040D01*
X149029420Y-88806020D02*
X148930360Y-88503760D01*
X148930360Y-88503760D02*
X149029420Y-88005920D01*
X149029420Y-88005920D02*
X149230080Y-87604600D01*
X149230080Y-87604600D02*
X149628860Y-87403940D01*
X149628860Y-87403940D02*
X150030180Y-87505540D01*
X150030180Y-87505540D02*
X150329900Y-87805260D01*
X150329900Y-87805260D02*
X150530560Y-88305640D01*
X150530560Y-88305640D02*
X150329900Y-89004140D01*
X150329900Y-89004140D02*
X149829520Y-89004140D01*
X149829520Y-89004140D02*
X149829520Y-88503760D01*
X148082000Y-86741000D02*
X148082000Y-94869000D01*
X148082000Y-94869000D02*
X153670000Y-94869000D01*
X153670000Y-94869000D02*
X153670000Y-86741000D01*
X153670000Y-86741000D02*
X148082000Y-86741000D01*
D12*
X158011000Y-98124000D03*
X156438500Y-98124000D03*
X158013500Y-103044000D03*
X156438500Y-103044000D03*
D13*
X156160000Y-107944000D03*
D14*
X157835000Y-109469000D03*
X154485000Y-106419000D03*
X157835000Y-106419000D03*
X154485000Y-109469000D03*
D15*
X149310000Y-110224000D03*
X150410000Y-110224000D03*
D16*
X144526000Y-98738000D03*
D17*
X146051000Y-97063000D03*
X143001000Y-100413000D03*
X143001000Y-97063000D03*
X146051000Y-100413000D03*
D18*
X146806000Y-104488000D03*
X146806000Y-105588000D03*
D19*
X128130800Y-84683600D03*
X128130800Y-94335600D03*
D20*
X165473000Y-84709000D03*
X165473000Y-94352000D03*
D21*
X144627600Y-89509600D03*
D22*
X139627600Y-89509600D03*
D23*
X136652000Y-125476000D03*
D24*
X136652000Y-128016000D03*
D25*
X138644080Y-122774123D03*
X146558000Y-120650000D03*
X139870420Y-122583529D03*
X139512636Y-113714234D03*
D26*
X165473000Y-84709000D02*
X159546628Y-84709000D01*
D27*
X156768790Y-87486838D02*
X159546628Y-84709000D01*
X156768790Y-97114577D02*
X156768790Y-87486838D01*
X157159526Y-97505313D02*
X156768790Y-97114577D01*
D26*
X165973000Y-94361000D02*
X161800543Y-94361000D01*
D27*
X132130800Y-94335600D02*
X133705600Y-94335600D01*
D28*
X138644080Y-122774123D02*
X138644080Y-101273039D01*
X138644080Y-101273039D02*
X139504119Y-100413000D01*
X139504119Y-100413000D02*
X143001000Y-100413000D01*
D27*
X132130800Y-84683600D02*
X141857403Y-84683600D01*
X141857403Y-84683600D02*
X144627600Y-87453797D01*
X144627600Y-87453797D02*
X144627600Y-89509600D01*
X144627600Y-89509600D02*
X144627600Y-98636400D01*
X157226000Y-106878000D02*
X156160000Y-107944000D01*
X157226000Y-103622549D02*
X157226000Y-106878000D01*
X149310000Y-110224000D02*
X147782238Y-110224000D01*
X147782238Y-110224000D02*
X145796000Y-108237762D01*
X145796000Y-108237762D02*
X145796000Y-105664000D01*
D28*
X146558000Y-120650000D02*
X141176048Y-120650000D01*
X141176048Y-120650000D02*
X140560327Y-121265721D01*
X140560327Y-121265721D02*
X140560327Y-124855681D01*
X140560327Y-124855681D02*
X139933425Y-125482583D01*
X139933425Y-125482583D02*
X136658583Y-125482583D01*
X136658583Y-125482583D02*
X136652000Y-125476000D01*
X139512636Y-113714234D02*
X139512636Y-121609793D01*
X139512636Y-121609793D02*
X139872234Y-121969391D01*
X139872234Y-121969391D02*
X139872234Y-122581715D01*
X139872234Y-122581715D02*
X139870420Y-122583529D01*
D29*
G36*
X162002400Y-82448400D02*
X161335381Y-82448400D01*
X161174197Y-82314106D01*
X160678029Y-82043586D01*
X160138767Y-81874592D01*
X159576950Y-81813559D01*
X159013978Y-81862813D01*
X158471295Y-82020477D01*
X157969571Y-82280546D01*
X157527917Y-82633114D01*
X157499129Y-82661502D01*
X154721292Y-85439340D01*
X154551515Y-85646029D01*
X154379591Y-85850920D01*
X154372257Y-85864260D01*
X154362591Y-85876028D01*
X154236194Y-86111759D01*
X154107342Y-86346140D01*
X154102737Y-86360655D01*
X154095543Y-86374073D01*
X154089157Y-86394962D01*
X154060174Y-86358914D01*
X154058708Y-86357684D01*
X154057497Y-86356199D01*
X154017868Y-86323415D01*
X153978528Y-86290406D01*
X153976851Y-86289484D01*
X153975375Y-86288263D01*
X153930213Y-86263844D01*
X153885132Y-86239060D01*
X153883303Y-86238480D01*
X153881622Y-86237571D01*
X153832561Y-86222384D01*
X153783541Y-86206834D01*
X153781640Y-86206621D01*
X153779809Y-86206054D01*
X153728675Y-86200679D01*
X153677625Y-86194953D01*
X153673950Y-86194927D01*
X153673812Y-86194913D01*
X153673674Y-86194926D01*
X153670000Y-86194900D01*
X148082000Y-86194900D01*
X148030848Y-86199915D01*
X147979671Y-86204573D01*
X147977836Y-86205113D01*
X147975929Y-86205300D01*
X147926672Y-86220171D01*
X147877427Y-86234665D01*
X147875733Y-86235551D01*
X147873897Y-86236105D01*
X147828497Y-86260245D01*
X147782976Y-86284043D01*
X147781483Y-86285243D01*
X147779793Y-86286142D01*
X147739964Y-86318625D01*
X147699914Y-86350826D01*
X147698684Y-86352292D01*
X147697199Y-86353503D01*
X147664415Y-86393132D01*
X147631406Y-86432472D01*
X147630484Y-86434149D01*
X147629263Y-86435625D01*
X147604844Y-86480787D01*
X147580060Y-86525868D01*
X147579480Y-86527697D01*
X147578571Y-86529378D01*
X147563384Y-86578439D01*
X147547834Y-86627459D01*
X147547621Y-86629360D01*
X147547054Y-86631191D01*
X147541679Y-86682325D01*
X147535953Y-86733375D01*
X147535927Y-86737050D01*
X147535913Y-86737188D01*
X147535926Y-86737326D01*
X147535900Y-86741000D01*
X147535900Y-94869000D01*
X147540915Y-94920152D01*
X147545573Y-94971329D01*
X147546113Y-94973164D01*
X147546300Y-94975071D01*
X147561171Y-95024328D01*
X147575665Y-95073573D01*
X147576551Y-95075267D01*
X147577105Y-95077103D01*
X147601245Y-95122503D01*
X147625043Y-95168024D01*
X147626243Y-95169517D01*
X147627142Y-95171207D01*
X147659625Y-95211036D01*
X147691826Y-95251086D01*
X147693292Y-95252316D01*
X147694503Y-95253801D01*
X147734132Y-95286585D01*
X147773472Y-95319594D01*
X147775149Y-95320516D01*
X147776625Y-95321737D01*
X147821787Y-95346156D01*
X147866868Y-95370940D01*
X147868697Y-95371520D01*
X147870378Y-95372429D01*
X147919439Y-95387616D01*
X147968459Y-95403166D01*
X147970360Y-95403379D01*
X147972191Y-95403946D01*
X148023325Y-95409321D01*
X148074375Y-95415047D01*
X148078050Y-95415073D01*
X148078188Y-95415087D01*
X148078326Y-95415074D01*
X148082000Y-95415100D01*
X153670000Y-95415100D01*
X153721152Y-95410085D01*
X153772329Y-95405427D01*
X153774164Y-95404887D01*
X153776071Y-95404700D01*
X153825328Y-95389829D01*
X153873190Y-95375742D01*
X153873190Y-97114577D01*
X153899290Y-97380772D01*
X153922602Y-97647227D01*
X153926850Y-97661850D01*
X153928336Y-97677002D01*
X154005640Y-97933044D01*
X154080267Y-98189910D01*
X154087274Y-98203429D01*
X154091675Y-98218004D01*
X154217255Y-98454187D01*
X154340336Y-98691634D01*
X154349833Y-98703531D01*
X154356983Y-98716978D01*
X154526048Y-98924271D01*
X154692903Y-99133288D01*
X154713799Y-99154476D01*
X154714157Y-99154916D01*
X154714564Y-99155253D01*
X154721292Y-99162075D01*
X155112027Y-99552811D01*
X155548716Y-99911512D01*
X156046760Y-100178560D01*
X156587189Y-100343787D01*
X157149419Y-100400895D01*
X157712032Y-100347712D01*
X158253602Y-100186264D01*
X158753498Y-99922698D01*
X159192680Y-99567055D01*
X159554420Y-99132882D01*
X159824940Y-98636714D01*
X159993934Y-98097452D01*
X160054967Y-97535635D01*
X160005713Y-96972663D01*
X159848049Y-96429980D01*
X159664390Y-96075666D01*
X159664390Y-88686234D01*
X161381025Y-86969600D01*
X162002400Y-86969600D01*
X162002400Y-92303000D01*
X162002506Y-92304081D01*
X162002410Y-92304994D01*
X162010027Y-92388686D01*
X162033755Y-92469306D01*
X162072689Y-92543781D01*
X162109781Y-92589914D01*
X162102294Y-92596819D01*
X161797742Y-93015010D01*
X161580627Y-93484581D01*
X161499035Y-93790024D01*
X161595483Y-94199600D01*
X162331400Y-94199600D01*
X162331400Y-94504400D01*
X161595483Y-94504400D01*
X161499035Y-94913976D01*
X161580627Y-95219419D01*
X161797742Y-95688990D01*
X162097710Y-96100886D01*
X162077706Y-96124725D01*
X162076978Y-96126049D01*
X162076016Y-96127212D01*
X162056759Y-96162828D01*
X162037220Y-96198369D01*
X162036763Y-96199810D01*
X162036046Y-96201136D01*
X162024071Y-96239821D01*
X162011810Y-96278473D01*
X162011642Y-96279973D01*
X162011195Y-96281416D01*
X162006954Y-96321767D01*
X162002442Y-96361988D01*
X162002422Y-96364882D01*
X162002410Y-96364994D01*
X162002420Y-96365106D01*
X162002400Y-96368000D01*
X162002400Y-98526000D01*
X162006348Y-98566268D01*
X162010027Y-98606686D01*
X162010454Y-98608136D01*
X162010601Y-98609637D01*
X162022320Y-98648454D01*
X162033755Y-98687306D01*
X162034453Y-98688641D01*
X162034890Y-98690089D01*
X162053919Y-98725878D01*
X162072689Y-98761781D01*
X162073637Y-98762960D01*
X162074344Y-98764290D01*
X162099911Y-98795638D01*
X162125348Y-98827275D01*
X162126506Y-98828247D01*
X162127459Y-98829415D01*
X162158643Y-98855213D01*
X162189725Y-98881294D01*
X162191049Y-98882022D01*
X162192212Y-98882984D01*
X162227828Y-98902241D01*
X162263369Y-98921780D01*
X162264810Y-98922237D01*
X162266136Y-98922954D01*
X162304821Y-98934929D01*
X162343473Y-98947190D01*
X162344973Y-98947358D01*
X162346416Y-98947805D01*
X162386767Y-98952046D01*
X162426988Y-98956558D01*
X162429882Y-98956578D01*
X162429994Y-98956590D01*
X162430106Y-98956580D01*
X162433000Y-98956600D01*
X172505400Y-98956600D01*
X172505400Y-130595400D01*
X133366600Y-130595400D01*
X133366600Y-128417189D01*
X134793199Y-128417189D01*
X134814555Y-128536902D01*
X134945720Y-128826834D01*
X135130927Y-129085606D01*
X135363059Y-129303273D01*
X135633196Y-129471471D01*
X135930956Y-129583736D01*
X136244896Y-129635754D01*
X136499600Y-129480167D01*
X136499600Y-128168400D01*
X136804400Y-128168400D01*
X136804400Y-129480167D01*
X137059104Y-129635754D01*
X137373044Y-129583736D01*
X137670804Y-129471471D01*
X137940941Y-129303273D01*
X138173073Y-129085606D01*
X138358280Y-128826834D01*
X138489445Y-128536902D01*
X138510801Y-128417189D01*
X138401209Y-128168400D01*
X136804400Y-128168400D01*
X136499600Y-128168400D01*
X134902791Y-128168400D01*
X134793199Y-128417189D01*
X133366600Y-128417189D01*
X133366600Y-98397754D01*
X133419554Y-98375820D01*
X133519398Y-98309107D01*
X133604307Y-98224197D01*
X133671021Y-98124354D01*
X133716973Y-98013413D01*
X133740400Y-97895640D01*
X133740400Y-94640400D01*
X133588000Y-94488000D01*
X129353798Y-94488000D01*
X129364777Y-94367366D01*
X129364504Y-94328339D01*
X129364777Y-94289312D01*
X129364190Y-94283329D01*
X129353666Y-94183200D01*
X133588000Y-94183200D01*
X133740400Y-94030800D01*
X133740400Y-91083241D01*
X138628695Y-91083241D01*
X138795551Y-91346226D01*
X139169847Y-91473260D01*
X139561734Y-91524832D01*
X139956152Y-91498960D01*
X140337943Y-91396638D01*
X140459649Y-91346226D01*
X140626505Y-91083241D01*
X139627600Y-90084336D01*
X138628695Y-91083241D01*
X133740400Y-91083241D01*
X133740400Y-90775560D01*
X133716973Y-90657787D01*
X133671021Y-90546846D01*
X133604307Y-90447003D01*
X133519398Y-90362093D01*
X133419554Y-90295380D01*
X133366600Y-90273446D01*
X133366600Y-89443734D01*
X137612368Y-89443734D01*
X137638240Y-89838152D01*
X137740562Y-90219943D01*
X137790974Y-90341649D01*
X138053959Y-90508505D01*
X139052864Y-89509600D01*
X140202336Y-89509600D01*
X141201241Y-90508505D01*
X141464226Y-90341649D01*
X141591260Y-89967353D01*
X141642832Y-89575466D01*
X141616960Y-89181048D01*
X141514638Y-88799257D01*
X141464226Y-88677551D01*
X141201241Y-88510695D01*
X140202336Y-89509600D01*
X139052864Y-89509600D01*
X138053959Y-88510695D01*
X137790974Y-88677551D01*
X137663940Y-89051847D01*
X137612368Y-89443734D01*
X133366600Y-89443734D01*
X133366600Y-88451885D01*
X133367433Y-88451336D01*
X133432654Y-88374812D01*
X133473973Y-88283147D01*
X133488120Y-88183600D01*
X133488120Y-87579200D01*
X139079052Y-87579200D01*
X138917257Y-87622562D01*
X138795551Y-87672974D01*
X138628695Y-87935959D01*
X139627600Y-88934864D01*
X140626505Y-87935959D01*
X140459649Y-87672974D01*
X140183351Y-87579200D01*
X140658007Y-87579200D01*
X141732000Y-88653194D01*
X141732000Y-95180680D01*
X141626000Y-95180680D01*
X141569372Y-95185196D01*
X141473325Y-95214940D01*
X141389367Y-95270264D01*
X141324146Y-95346788D01*
X141282827Y-95438453D01*
X141268680Y-95538000D01*
X141268680Y-99930400D01*
X139504119Y-99930400D01*
X139459793Y-99934746D01*
X139415344Y-99938635D01*
X139412905Y-99939344D01*
X139410382Y-99939591D01*
X139367706Y-99952476D01*
X139324897Y-99964913D01*
X139322646Y-99966080D01*
X139320214Y-99966814D01*
X139280806Y-99987768D01*
X139241276Y-100008258D01*
X139239295Y-100009839D01*
X139237052Y-100011032D01*
X139202494Y-100039217D01*
X139167667Y-100067019D01*
X139164131Y-100070505D01*
X139164063Y-100070561D01*
X139164011Y-100070624D01*
X139162869Y-100071750D01*
X138302830Y-100931789D01*
X138274535Y-100966236D01*
X138245880Y-101000386D01*
X138244658Y-101002609D01*
X138243047Y-101004570D01*
X138221965Y-101043887D01*
X138200505Y-101082923D01*
X138199739Y-101085339D01*
X138198538Y-101087578D01*
X138185495Y-101130241D01*
X138172026Y-101172701D01*
X138171743Y-101175222D01*
X138171001Y-101177650D01*
X138166496Y-101222005D01*
X138161527Y-101266301D01*
X138161492Y-101271261D01*
X138161483Y-101271354D01*
X138161491Y-101271440D01*
X138161480Y-101273039D01*
X138161480Y-122304585D01*
X138125960Y-122339369D01*
X138051384Y-122448286D01*
X137999383Y-122569613D01*
X137971938Y-122698730D01*
X137970095Y-122830719D01*
X137993924Y-122960552D01*
X138042517Y-123083284D01*
X138114023Y-123194241D01*
X138205720Y-123289195D01*
X138314113Y-123364530D01*
X138435074Y-123417377D01*
X138563997Y-123445722D01*
X138695969Y-123448487D01*
X138825966Y-123425565D01*
X138949034Y-123377830D01*
X139060487Y-123307100D01*
X139156079Y-123216069D01*
X139232169Y-123108204D01*
X139285859Y-122987614D01*
X139297372Y-122936938D01*
X139340363Y-123003647D01*
X139432060Y-123098601D01*
X139540453Y-123173936D01*
X139661414Y-123226783D01*
X139790337Y-123255128D01*
X139922309Y-123257893D01*
X140052306Y-123234971D01*
X140077727Y-123225111D01*
X140077727Y-124655781D01*
X139733525Y-124999983D01*
X138309320Y-124999983D01*
X138309320Y-124476000D01*
X138304804Y-124419372D01*
X138275060Y-124323325D01*
X138219736Y-124239367D01*
X138143212Y-124174146D01*
X138051547Y-124132827D01*
X137952000Y-124118680D01*
X135352000Y-124118680D01*
X135295372Y-124123196D01*
X135199325Y-124152940D01*
X135115367Y-124208264D01*
X135050146Y-124284788D01*
X135008827Y-124376453D01*
X134994680Y-124476000D01*
X134994680Y-126476000D01*
X134999196Y-126532628D01*
X135028940Y-126628675D01*
X135084264Y-126712633D01*
X135160788Y-126777854D01*
X135252453Y-126819173D01*
X135264740Y-126820919D01*
X135130927Y-126946394D01*
X134945720Y-127205166D01*
X134814555Y-127495098D01*
X134793199Y-127614811D01*
X134902791Y-127863600D01*
X136499600Y-127863600D01*
X136499600Y-127843600D01*
X136804400Y-127843600D01*
X136804400Y-127863600D01*
X138401209Y-127863600D01*
X138510801Y-127614811D01*
X138489445Y-127495098D01*
X138358280Y-127205166D01*
X138173073Y-126946394D01*
X138037976Y-126819715D01*
X138104675Y-126799060D01*
X138188633Y-126743736D01*
X138253854Y-126667212D01*
X138295173Y-126575547D01*
X138309320Y-126476000D01*
X138309320Y-125965183D01*
X139933425Y-125965183D01*
X139977751Y-125960837D01*
X140022200Y-125956948D01*
X140024639Y-125956239D01*
X140027162Y-125955992D01*
X140069825Y-125943111D01*
X140112648Y-125930670D01*
X140114900Y-125929503D01*
X140117330Y-125928769D01*
X140156720Y-125907825D01*
X140196268Y-125887325D01*
X140198249Y-125885744D01*
X140200492Y-125884551D01*
X140235050Y-125856366D01*
X140269877Y-125828564D01*
X140273413Y-125825078D01*
X140273481Y-125825022D01*
X140273533Y-125824959D01*
X140274675Y-125823833D01*
X140901577Y-125196931D01*
X140929872Y-125162484D01*
X140958527Y-125128334D01*
X140959749Y-125126111D01*
X140961360Y-125124150D01*
X140982423Y-125084868D01*
X141003902Y-125045797D01*
X141004670Y-125043377D01*
X141005868Y-125041142D01*
X141018902Y-124998512D01*
X141032381Y-124956019D01*
X141032664Y-124953499D01*
X141033406Y-124951071D01*
X141037912Y-124906710D01*
X141042880Y-124862419D01*
X141042915Y-124857459D01*
X141042924Y-124857366D01*
X141042916Y-124857280D01*
X141042927Y-124855681D01*
X141042927Y-121465621D01*
X141375948Y-121132600D01*
X146088282Y-121132600D01*
X146119640Y-121165072D01*
X146228033Y-121240407D01*
X146348994Y-121293254D01*
X146477917Y-121321599D01*
X146609889Y-121324364D01*
X146739886Y-121301442D01*
X146862954Y-121253707D01*
X146974407Y-121182977D01*
X147069999Y-121091946D01*
X147146089Y-120984081D01*
X147199779Y-120863491D01*
X147229024Y-120734770D01*
X147231129Y-120583999D01*
X147205490Y-120454511D01*
X147155188Y-120332470D01*
X147082139Y-120222523D01*
X146989126Y-120128858D01*
X146879692Y-120055044D01*
X146758004Y-120003891D01*
X146628699Y-119977348D01*
X146496700Y-119976427D01*
X146367036Y-120001161D01*
X146244646Y-120050610D01*
X146134192Y-120122889D01*
X146088739Y-120167400D01*
X141176048Y-120167400D01*
X141131722Y-120171746D01*
X141087273Y-120175635D01*
X141084834Y-120176344D01*
X141082311Y-120176591D01*
X141039648Y-120189472D01*
X140996825Y-120201913D01*
X140994573Y-120203080D01*
X140992143Y-120203814D01*
X140952753Y-120224758D01*
X140913205Y-120245258D01*
X140911224Y-120246839D01*
X140908981Y-120248032D01*
X140874423Y-120276217D01*
X140839596Y-120304019D01*
X140836060Y-120307505D01*
X140835992Y-120307561D01*
X140835940Y-120307624D01*
X140834798Y-120308750D01*
X140219077Y-120924471D01*
X140190782Y-120958918D01*
X140162127Y-120993068D01*
X140160905Y-120995291D01*
X140159294Y-120997252D01*
X140138212Y-121036569D01*
X140116752Y-121075605D01*
X140115986Y-121078021D01*
X140114785Y-121080260D01*
X140101742Y-121122923D01*
X140088273Y-121165383D01*
X140087990Y-121167904D01*
X140087248Y-121170332D01*
X140082743Y-121214687D01*
X140077774Y-121258983D01*
X140077739Y-121263943D01*
X140077730Y-121264036D01*
X140077738Y-121264122D01*
X140077727Y-121265721D01*
X140077727Y-121492385D01*
X139995236Y-121409893D01*
X139995236Y-114184176D01*
X140024635Y-114156180D01*
X140100725Y-114048315D01*
X140154415Y-113927725D01*
X140183660Y-113799004D01*
X140185765Y-113648233D01*
X140160126Y-113518745D01*
X140109824Y-113396704D01*
X140036775Y-113286757D01*
X139943762Y-113193092D01*
X139834328Y-113119278D01*
X139712640Y-113068125D01*
X139583335Y-113041582D01*
X139451336Y-113040661D01*
X139321672Y-113065395D01*
X139199282Y-113114844D01*
X139126680Y-113162353D01*
X139126680Y-105664000D01*
X142900400Y-105664000D01*
X142900400Y-108237762D01*
X142926500Y-108503957D01*
X142949812Y-108770412D01*
X142954060Y-108785035D01*
X142955546Y-108800187D01*
X143032850Y-109056229D01*
X143107477Y-109313095D01*
X143114484Y-109326614D01*
X143118885Y-109341189D01*
X143244465Y-109577372D01*
X143367546Y-109814819D01*
X143377043Y-109826716D01*
X143384193Y-109840163D01*
X143553258Y-110047456D01*
X143720113Y-110256473D01*
X143741009Y-110277661D01*
X143741367Y-110278101D01*
X143741774Y-110278438D01*
X143748502Y-110285260D01*
X145734740Y-112271499D01*
X145941459Y-112441300D01*
X146146320Y-112613199D01*
X146159660Y-112620533D01*
X146171428Y-112630199D01*
X146407159Y-112756596D01*
X146641540Y-112885448D01*
X146656055Y-112890053D01*
X146669473Y-112897247D01*
X146925276Y-112975454D01*
X147180209Y-113056324D01*
X147195336Y-113058021D01*
X147209902Y-113062474D01*
X147476062Y-113089510D01*
X147741809Y-113119318D01*
X147771565Y-113119526D01*
X147772131Y-113119583D01*
X147772658Y-113119533D01*
X147782238Y-113119600D01*
X149310000Y-113119600D01*
X149872425Y-113064454D01*
X150413427Y-112901115D01*
X150912401Y-112635807D01*
X151350339Y-112278633D01*
X151710561Y-111843199D01*
X151979347Y-111346090D01*
X152146458Y-110806241D01*
X152205529Y-110244215D01*
X152154311Y-109681419D01*
X151994754Y-109139289D01*
X151732935Y-108638476D01*
X151378827Y-108198055D01*
X150945918Y-107834801D01*
X150450698Y-107562552D01*
X149912029Y-107391676D01*
X149350429Y-107328682D01*
X149310000Y-107328400D01*
X148981635Y-107328400D01*
X148691600Y-107038366D01*
X148691600Y-105664000D01*
X148636454Y-105101575D01*
X148619071Y-105044000D01*
X152602680Y-105044000D01*
X152602680Y-110844000D01*
X152607196Y-110900628D01*
X152636940Y-110996675D01*
X152692264Y-111080633D01*
X152768788Y-111145854D01*
X152860453Y-111187173D01*
X152960000Y-111201320D01*
X159360000Y-111201320D01*
X159416628Y-111196804D01*
X159512675Y-111167060D01*
X159596633Y-111111736D01*
X159661854Y-111035212D01*
X159703173Y-110943547D01*
X159717320Y-110844000D01*
X159717320Y-108330059D01*
X159758596Y-108253079D01*
X159887448Y-108018698D01*
X159892053Y-108004183D01*
X159899247Y-107990765D01*
X159977454Y-107734962D01*
X160058324Y-107480029D01*
X160060021Y-107464902D01*
X160064474Y-107450336D01*
X160091510Y-107184176D01*
X160121318Y-106918429D01*
X160121526Y-106888673D01*
X160121583Y-106888107D01*
X160121533Y-106887580D01*
X160121600Y-106878000D01*
X160121600Y-103622549D01*
X160066454Y-103060124D01*
X159903115Y-102519122D01*
X159637807Y-102020148D01*
X159280633Y-101582210D01*
X158845199Y-101221988D01*
X158348090Y-100953202D01*
X157808241Y-100786091D01*
X157246215Y-100727020D01*
X156683419Y-100778238D01*
X156141289Y-100937795D01*
X155640476Y-101199614D01*
X155200055Y-101553722D01*
X154836801Y-101986631D01*
X154564552Y-102481851D01*
X154393676Y-103020520D01*
X154330682Y-103582120D01*
X154330400Y-103622549D01*
X154330400Y-104686680D01*
X152960000Y-104686680D01*
X152903372Y-104691196D01*
X152807325Y-104720940D01*
X152723367Y-104776264D01*
X152658146Y-104852788D01*
X152616827Y-104944453D01*
X152602680Y-105044000D01*
X148619071Y-105044000D01*
X148473115Y-104560573D01*
X148207807Y-104061599D01*
X147850633Y-103623661D01*
X147415199Y-103263439D01*
X146918090Y-102994653D01*
X146378241Y-102827542D01*
X145816215Y-102768471D01*
X145253419Y-102819689D01*
X144711289Y-102979246D01*
X144210476Y-103241065D01*
X143770055Y-103595173D01*
X143406801Y-104028082D01*
X143134552Y-104523302D01*
X142963676Y-105061971D01*
X142900682Y-105623571D01*
X142900400Y-105664000D01*
X139126680Y-105664000D01*
X139126680Y-101472939D01*
X139704019Y-100895600D01*
X141268680Y-100895600D01*
X141268680Y-101938000D01*
X141273196Y-101994628D01*
X141302940Y-102090675D01*
X141358264Y-102174633D01*
X141434788Y-102239854D01*
X141526453Y-102281173D01*
X141626000Y-102295320D01*
X147426000Y-102295320D01*
X147482628Y-102290804D01*
X147578675Y-102261060D01*
X147662633Y-102205736D01*
X147727854Y-102129212D01*
X147769173Y-102037547D01*
X147783320Y-101938000D01*
X147783320Y-101002432D01*
X149679830Y-101002432D01*
X149749061Y-101379644D01*
X149890242Y-101736226D01*
X150097994Y-102058594D01*
X150364404Y-102334470D01*
X150679326Y-102553346D01*
X151030762Y-102706885D01*
X151405329Y-102789239D01*
X151788758Y-102797270D01*
X152166444Y-102730674D01*
X152524002Y-102591986D01*
X152847813Y-102386490D01*
X153125542Y-102122012D01*
X153346611Y-101808626D01*
X153502600Y-101458270D01*
X153587567Y-101084288D01*
X153593684Y-100646244D01*
X153519192Y-100270035D01*
X153373047Y-99915459D01*
X153160814Y-99596023D01*
X152890578Y-99323894D01*
X152572631Y-99109436D01*
X152219085Y-98960819D01*
X151843405Y-98883703D01*
X151459901Y-98881025D01*
X151083182Y-98952889D01*
X150727595Y-99096555D01*
X150406685Y-99306553D01*
X150132675Y-99574882D01*
X149916003Y-99891324D01*
X149764921Y-100243824D01*
X149685184Y-100618957D01*
X149679830Y-101002432D01*
X147783320Y-101002432D01*
X147783320Y-95538000D01*
X147778804Y-95481372D01*
X147749060Y-95385325D01*
X147693736Y-95301367D01*
X147617212Y-95236146D01*
X147525547Y-95194827D01*
X147523200Y-95194493D01*
X147523200Y-87453797D01*
X147497095Y-87187552D01*
X147473787Y-86921147D01*
X147469540Y-86906529D01*
X147468054Y-86891372D01*
X147390737Y-86635288D01*
X147316123Y-86378464D01*
X147309116Y-86364945D01*
X147304715Y-86350370D01*
X147179135Y-86114187D01*
X147056054Y-85876740D01*
X147046557Y-85864843D01*
X147039407Y-85851396D01*
X146870318Y-85644072D01*
X146703486Y-85435086D01*
X146682589Y-85413895D01*
X146682233Y-85413458D01*
X146681829Y-85413124D01*
X146675098Y-85406298D01*
X143904901Y-82636102D01*
X143698212Y-82466325D01*
X143493321Y-82294401D01*
X143479981Y-82287067D01*
X143468213Y-82277401D01*
X143232482Y-82151004D01*
X142998101Y-82022152D01*
X142983586Y-82017547D01*
X142970168Y-82010353D01*
X142714365Y-81932146D01*
X142459432Y-81851276D01*
X142444305Y-81849579D01*
X142429739Y-81845126D01*
X142163623Y-81818095D01*
X141897832Y-81788282D01*
X141868065Y-81788074D01*
X141867510Y-81788018D01*
X141866993Y-81788067D01*
X141857403Y-81788000D01*
X133488120Y-81788000D01*
X133488120Y-81456600D01*
X162002400Y-81456600D01*
X162002400Y-82448400D01*
X162002400Y-82448400D01*
G37*
X162002400Y-82448400D02*
X161335381Y-82448400D01*
X161174197Y-82314106D01*
X160678029Y-82043586D01*
X160138767Y-81874592D01*
X159576950Y-81813559D01*
X159013978Y-81862813D01*
X158471295Y-82020477D01*
X157969571Y-82280546D01*
X157527917Y-82633114D01*
X157499129Y-82661502D01*
X154721292Y-85439340D01*
X154551515Y-85646029D01*
X154379591Y-85850920D01*
X154372257Y-85864260D01*
X154362591Y-85876028D01*
X154236194Y-86111759D01*
X154107342Y-86346140D01*
X154102737Y-86360655D01*
X154095543Y-86374073D01*
X154089157Y-86394962D01*
X154060174Y-86358914D01*
X154058708Y-86357684D01*
X154057497Y-86356199D01*
X154017868Y-86323415D01*
X153978528Y-86290406D01*
X153976851Y-86289484D01*
X153975375Y-86288263D01*
X153930213Y-86263844D01*
X153885132Y-86239060D01*
X153883303Y-86238480D01*
X153881622Y-86237571D01*
X153832561Y-86222384D01*
X153783541Y-86206834D01*
X153781640Y-86206621D01*
X153779809Y-86206054D01*
X153728675Y-86200679D01*
X153677625Y-86194953D01*
X153673950Y-86194927D01*
X153673812Y-86194913D01*
X153673674Y-86194926D01*
X153670000Y-86194900D01*
X148082000Y-86194900D01*
X148030848Y-86199915D01*
X147979671Y-86204573D01*
X147977836Y-86205113D01*
X147975929Y-86205300D01*
X147926672Y-86220171D01*
X147877427Y-86234665D01*
X147875733Y-86235551D01*
X147873897Y-86236105D01*
X147828497Y-86260245D01*
X147782976Y-86284043D01*
X147781483Y-86285243D01*
X147779793Y-86286142D01*
X147739964Y-86318625D01*
X147699914Y-86350826D01*
X147698684Y-86352292D01*
X147697199Y-86353503D01*
X147664415Y-86393132D01*
X147631406Y-86432472D01*
X147630484Y-86434149D01*
X147629263Y-86435625D01*
X147604844Y-86480787D01*
X147580060Y-86525868D01*
X147579480Y-86527697D01*
X147578571Y-86529378D01*
X147563384Y-86578439D01*
X147547834Y-86627459D01*
X147547621Y-86629360D01*
X147547054Y-86631191D01*
X147541679Y-86682325D01*
X147535953Y-86733375D01*
X147535927Y-86737050D01*
X147535913Y-86737188D01*
X147535926Y-86737326D01*
X147535900Y-86741000D01*
X147535900Y-94869000D01*
X147540915Y-94920152D01*
X147545573Y-94971329D01*
X147546113Y-94973164D01*
X147546300Y-94975071D01*
X147561171Y-95024328D01*
X147575665Y-95073573D01*
X147576551Y-95075267D01*
X147577105Y-95077103D01*
X147601245Y-95122503D01*
X147625043Y-95168024D01*
X147626243Y-95169517D01*
X147627142Y-95171207D01*
X147659625Y-95211036D01*
X147691826Y-95251086D01*
X147693292Y-95252316D01*
X147694503Y-95253801D01*
X147734132Y-95286585D01*
X147773472Y-95319594D01*
X147775149Y-95320516D01*
X147776625Y-95321737D01*
X147821787Y-95346156D01*
X147866868Y-95370940D01*
X147868697Y-95371520D01*
X147870378Y-95372429D01*
X147919439Y-95387616D01*
X147968459Y-95403166D01*
X147970360Y-95403379D01*
X147972191Y-95403946D01*
X148023325Y-95409321D01*
X148074375Y-95415047D01*
X148078050Y-95415073D01*
X148078188Y-95415087D01*
X148078326Y-95415074D01*
X148082000Y-95415100D01*
X153670000Y-95415100D01*
X153721152Y-95410085D01*
X153772329Y-95405427D01*
X153774164Y-95404887D01*
X153776071Y-95404700D01*
X153825328Y-95389829D01*
X153873190Y-95375742D01*
X153873190Y-97114577D01*
X153899290Y-97380772D01*
X153922602Y-97647227D01*
X153926850Y-97661850D01*
X153928336Y-97677002D01*
X154005640Y-97933044D01*
X154080267Y-98189910D01*
X154087274Y-98203429D01*
X154091675Y-98218004D01*
X154217255Y-98454187D01*
X154340336Y-98691634D01*
X154349833Y-98703531D01*
X154356983Y-98716978D01*
X154526048Y-98924271D01*
X154692903Y-99133288D01*
X154713799Y-99154476D01*
X154714157Y-99154916D01*
X154714564Y-99155253D01*
X154721292Y-99162075D01*
X155112027Y-99552811D01*
X155548716Y-99911512D01*
X156046760Y-100178560D01*
X156587189Y-100343787D01*
X157149419Y-100400895D01*
X157712032Y-100347712D01*
X158253602Y-100186264D01*
X158753498Y-99922698D01*
X159192680Y-99567055D01*
X159554420Y-99132882D01*
X159824940Y-98636714D01*
X159993934Y-98097452D01*
X160054967Y-97535635D01*
X160005713Y-96972663D01*
X159848049Y-96429980D01*
X159664390Y-96075666D01*
X159664390Y-88686234D01*
X161381025Y-86969600D01*
X162002400Y-86969600D01*
X162002400Y-92303000D01*
X162002506Y-92304081D01*
X162002410Y-92304994D01*
X162010027Y-92388686D01*
X162033755Y-92469306D01*
X162072689Y-92543781D01*
X162109781Y-92589914D01*
X162102294Y-92596819D01*
X161797742Y-93015010D01*
X161580627Y-93484581D01*
X161499035Y-93790024D01*
X161595483Y-94199600D01*
X162331400Y-94199600D01*
X162331400Y-94504400D01*
X161595483Y-94504400D01*
X161499035Y-94913976D01*
X161580627Y-95219419D01*
X161797742Y-95688990D01*
X162097710Y-96100886D01*
X162077706Y-96124725D01*
X162076978Y-96126049D01*
X162076016Y-96127212D01*
X162056759Y-96162828D01*
X162037220Y-96198369D01*
X162036763Y-96199810D01*
X162036046Y-96201136D01*
X162024071Y-96239821D01*
X162011810Y-96278473D01*
X162011642Y-96279973D01*
X162011195Y-96281416D01*
X162006954Y-96321767D01*
X162002442Y-96361988D01*
X162002422Y-96364882D01*
X162002410Y-96364994D01*
X162002420Y-96365106D01*
X162002400Y-96368000D01*
X162002400Y-98526000D01*
X162006348Y-98566268D01*
X162010027Y-98606686D01*
X162010454Y-98608136D01*
X162010601Y-98609637D01*
X162022320Y-98648454D01*
X162033755Y-98687306D01*
X162034453Y-98688641D01*
X162034890Y-98690089D01*
X162053919Y-98725878D01*
X162072689Y-98761781D01*
X162073637Y-98762960D01*
X162074344Y-98764290D01*
X162099911Y-98795638D01*
X162125348Y-98827275D01*
X162126506Y-98828247D01*
X162127459Y-98829415D01*
X162158643Y-98855213D01*
X162189725Y-98881294D01*
X162191049Y-98882022D01*
X162192212Y-98882984D01*
X162227828Y-98902241D01*
X162263369Y-98921780D01*
X162264810Y-98922237D01*
X162266136Y-98922954D01*
X162304821Y-98934929D01*
X162343473Y-98947190D01*
X162344973Y-98947358D01*
X162346416Y-98947805D01*
X162386767Y-98952046D01*
X162426988Y-98956558D01*
X162429882Y-98956578D01*
X162429994Y-98956590D01*
X162430106Y-98956580D01*
X162433000Y-98956600D01*
X172505400Y-98956600D01*
X172505400Y-130595400D01*
X133366600Y-130595400D01*
X133366600Y-128417189D01*
X134793199Y-128417189D01*
X134814555Y-128536902D01*
X134945720Y-128826834D01*
X135130927Y-129085606D01*
X135363059Y-129303273D01*
X135633196Y-129471471D01*
X135930956Y-129583736D01*
X136244896Y-129635754D01*
X136499600Y-129480167D01*
X136499600Y-128168400D01*
X136804400Y-128168400D01*
X136804400Y-129480167D01*
X137059104Y-129635754D01*
X137373044Y-129583736D01*
X137670804Y-129471471D01*
X137940941Y-129303273D01*
X138173073Y-129085606D01*
X138358280Y-128826834D01*
X138489445Y-128536902D01*
X138510801Y-128417189D01*
X138401209Y-128168400D01*
X136804400Y-128168400D01*
X136499600Y-128168400D01*
X134902791Y-128168400D01*
X134793199Y-128417189D01*
X133366600Y-128417189D01*
X133366600Y-98397754D01*
X133419554Y-98375820D01*
X133519398Y-98309107D01*
X133604307Y-98224197D01*
X133671021Y-98124354D01*
X133716973Y-98013413D01*
X133740400Y-97895640D01*
X133740400Y-94640400D01*
X133588000Y-94488000D01*
X129353798Y-94488000D01*
X129364777Y-94367366D01*
X129364504Y-94328339D01*
X129364777Y-94289312D01*
X129364190Y-94283329D01*
X129353666Y-94183200D01*
X133588000Y-94183200D01*
X133740400Y-94030800D01*
X133740400Y-91083241D01*
X138628695Y-91083241D01*
X138795551Y-91346226D01*
X139169847Y-91473260D01*
X139561734Y-91524832D01*
X139956152Y-91498960D01*
X140337943Y-91396638D01*
X140459649Y-91346226D01*
X140626505Y-91083241D01*
X139627600Y-90084336D01*
X138628695Y-91083241D01*
X133740400Y-91083241D01*
X133740400Y-90775560D01*
X133716973Y-90657787D01*
X133671021Y-90546846D01*
X133604307Y-90447003D01*
X133519398Y-90362093D01*
X133419554Y-90295380D01*
X133366600Y-90273446D01*
X133366600Y-89443734D01*
X137612368Y-89443734D01*
X137638240Y-89838152D01*
X137740562Y-90219943D01*
X137790974Y-90341649D01*
X138053959Y-90508505D01*
X139052864Y-89509600D01*
X140202336Y-89509600D01*
X141201241Y-90508505D01*
X141464226Y-90341649D01*
X141591260Y-89967353D01*
X141642832Y-89575466D01*
X141616960Y-89181048D01*
X141514638Y-88799257D01*
X141464226Y-88677551D01*
X141201241Y-88510695D01*
X140202336Y-89509600D01*
X139052864Y-89509600D01*
X138053959Y-88510695D01*
X137790974Y-88677551D01*
X137663940Y-89051847D01*
X137612368Y-89443734D01*
X133366600Y-89443734D01*
X133366600Y-88451885D01*
X133367433Y-88451336D01*
X133432654Y-88374812D01*
X133473973Y-88283147D01*
X133488120Y-88183600D01*
X133488120Y-87579200D01*
X139079052Y-87579200D01*
X138917257Y-87622562D01*
X138795551Y-87672974D01*
X138628695Y-87935959D01*
X139627600Y-88934864D01*
X140626505Y-87935959D01*
X140459649Y-87672974D01*
X140183351Y-87579200D01*
X140658007Y-87579200D01*
X141732000Y-88653194D01*
X141732000Y-95180680D01*
X141626000Y-95180680D01*
X141569372Y-95185196D01*
X141473325Y-95214940D01*
X141389367Y-95270264D01*
X141324146Y-95346788D01*
X141282827Y-95438453D01*
X141268680Y-95538000D01*
X141268680Y-99930400D01*
X139504119Y-99930400D01*
X139459793Y-99934746D01*
X139415344Y-99938635D01*
X139412905Y-99939344D01*
X139410382Y-99939591D01*
X139367706Y-99952476D01*
X139324897Y-99964913D01*
X139322646Y-99966080D01*
X139320214Y-99966814D01*
X139280806Y-99987768D01*
X139241276Y-100008258D01*
X139239295Y-100009839D01*
X139237052Y-100011032D01*
X139202494Y-100039217D01*
X139167667Y-100067019D01*
X139164131Y-100070505D01*
X139164063Y-100070561D01*
X139164011Y-100070624D01*
X139162869Y-100071750D01*
X138302830Y-100931789D01*
X138274535Y-100966236D01*
X138245880Y-101000386D01*
X138244658Y-101002609D01*
X138243047Y-101004570D01*
X138221965Y-101043887D01*
X138200505Y-101082923D01*
X138199739Y-101085339D01*
X138198538Y-101087578D01*
X138185495Y-101130241D01*
X138172026Y-101172701D01*
X138171743Y-101175222D01*
X138171001Y-101177650D01*
X138166496Y-101222005D01*
X138161527Y-101266301D01*
X138161492Y-101271261D01*
X138161483Y-101271354D01*
X138161491Y-101271440D01*
X138161480Y-101273039D01*
X138161480Y-122304585D01*
X138125960Y-122339369D01*
X138051384Y-122448286D01*
X137999383Y-122569613D01*
X137971938Y-122698730D01*
X137970095Y-122830719D01*
X137993924Y-122960552D01*
X138042517Y-123083284D01*
X138114023Y-123194241D01*
X138205720Y-123289195D01*
X138314113Y-123364530D01*
X138435074Y-123417377D01*
X138563997Y-123445722D01*
X138695969Y-123448487D01*
X138825966Y-123425565D01*
X138949034Y-123377830D01*
X139060487Y-123307100D01*
X139156079Y-123216069D01*
X139232169Y-123108204D01*
X139285859Y-122987614D01*
X139297372Y-122936938D01*
X139340363Y-123003647D01*
X139432060Y-123098601D01*
X139540453Y-123173936D01*
X139661414Y-123226783D01*
X139790337Y-123255128D01*
X139922309Y-123257893D01*
X140052306Y-123234971D01*
X140077727Y-123225111D01*
X140077727Y-124655781D01*
X139733525Y-124999983D01*
X138309320Y-124999983D01*
X138309320Y-124476000D01*
X138304804Y-124419372D01*
X138275060Y-124323325D01*
X138219736Y-124239367D01*
X138143212Y-124174146D01*
X138051547Y-124132827D01*
X137952000Y-124118680D01*
X135352000Y-124118680D01*
X135295372Y-124123196D01*
X135199325Y-124152940D01*
X135115367Y-124208264D01*
X135050146Y-124284788D01*
X135008827Y-124376453D01*
X134994680Y-124476000D01*
X134994680Y-126476000D01*
X134999196Y-126532628D01*
X135028940Y-126628675D01*
X135084264Y-126712633D01*
X135160788Y-126777854D01*
X135252453Y-126819173D01*
X135264740Y-126820919D01*
X135130927Y-126946394D01*
X134945720Y-127205166D01*
X134814555Y-127495098D01*
X134793199Y-127614811D01*
X134902791Y-127863600D01*
X136499600Y-127863600D01*
X136499600Y-127843600D01*
X136804400Y-127843600D01*
X136804400Y-127863600D01*
X138401209Y-127863600D01*
X138510801Y-127614811D01*
X138489445Y-127495098D01*
X138358280Y-127205166D01*
X138173073Y-126946394D01*
X138037976Y-126819715D01*
X138104675Y-126799060D01*
X138188633Y-126743736D01*
X138253854Y-126667212D01*
X138295173Y-126575547D01*
X138309320Y-126476000D01*
X138309320Y-125965183D01*
X139933425Y-125965183D01*
X139977751Y-125960837D01*
X140022200Y-125956948D01*
X140024639Y-125956239D01*
X140027162Y-125955992D01*
X140069825Y-125943111D01*
X140112648Y-125930670D01*
X140114900Y-125929503D01*
X140117330Y-125928769D01*
X140156720Y-125907825D01*
X140196268Y-125887325D01*
X140198249Y-125885744D01*
X140200492Y-125884551D01*
X140235050Y-125856366D01*
X140269877Y-125828564D01*
X140273413Y-125825078D01*
X140273481Y-125825022D01*
X140273533Y-125824959D01*
X140274675Y-125823833D01*
X140901577Y-125196931D01*
X140929872Y-125162484D01*
X140958527Y-125128334D01*
X140959749Y-125126111D01*
X140961360Y-125124150D01*
X140982423Y-125084868D01*
X141003902Y-125045797D01*
X141004670Y-125043377D01*
X141005868Y-125041142D01*
X141018902Y-124998512D01*
X141032381Y-124956019D01*
X141032664Y-124953499D01*
X141033406Y-124951071D01*
X141037912Y-124906710D01*
X141042880Y-124862419D01*
X141042915Y-124857459D01*
X141042924Y-124857366D01*
X141042916Y-124857280D01*
X141042927Y-124855681D01*
X141042927Y-121465621D01*
X141375948Y-121132600D01*
X146088282Y-121132600D01*
X146119640Y-121165072D01*
X146228033Y-121240407D01*
X146348994Y-121293254D01*
X146477917Y-121321599D01*
X146609889Y-121324364D01*
X146739886Y-121301442D01*
X146862954Y-121253707D01*
X146974407Y-121182977D01*
X147069999Y-121091946D01*
X147146089Y-120984081D01*
X147199779Y-120863491D01*
X147229024Y-120734770D01*
X147231129Y-120583999D01*
X147205490Y-120454511D01*
X147155188Y-120332470D01*
X147082139Y-120222523D01*
X146989126Y-120128858D01*
X146879692Y-120055044D01*
X146758004Y-120003891D01*
X146628699Y-119977348D01*
X146496700Y-119976427D01*
X146367036Y-120001161D01*
X146244646Y-120050610D01*
X146134192Y-120122889D01*
X146088739Y-120167400D01*
X141176048Y-120167400D01*
X141131722Y-120171746D01*
X141087273Y-120175635D01*
X141084834Y-120176344D01*
X141082311Y-120176591D01*
X141039648Y-120189472D01*
X140996825Y-120201913D01*
X140994573Y-120203080D01*
X140992143Y-120203814D01*
X140952753Y-120224758D01*
X140913205Y-120245258D01*
X140911224Y-120246839D01*
X140908981Y-120248032D01*
X140874423Y-120276217D01*
X140839596Y-120304019D01*
X140836060Y-120307505D01*
X140835992Y-120307561D01*
X140835940Y-120307624D01*
X140834798Y-120308750D01*
X140219077Y-120924471D01*
X140190782Y-120958918D01*
X140162127Y-120993068D01*
X140160905Y-120995291D01*
X140159294Y-120997252D01*
X140138212Y-121036569D01*
X140116752Y-121075605D01*
X140115986Y-121078021D01*
X140114785Y-121080260D01*
X140101742Y-121122923D01*
X140088273Y-121165383D01*
X140087990Y-121167904D01*
X140087248Y-121170332D01*
X140082743Y-121214687D01*
X140077774Y-121258983D01*
X140077739Y-121263943D01*
X140077730Y-121264036D01*
X140077738Y-121264122D01*
X140077727Y-121265721D01*
X140077727Y-121492385D01*
X139995236Y-121409893D01*
X139995236Y-114184176D01*
X140024635Y-114156180D01*
X140100725Y-114048315D01*
X140154415Y-113927725D01*
X140183660Y-113799004D01*
X140185765Y-113648233D01*
X140160126Y-113518745D01*
X140109824Y-113396704D01*
X140036775Y-113286757D01*
X139943762Y-113193092D01*
X139834328Y-113119278D01*
X139712640Y-113068125D01*
X139583335Y-113041582D01*
X139451336Y-113040661D01*
X139321672Y-113065395D01*
X139199282Y-113114844D01*
X139126680Y-113162353D01*
X139126680Y-105664000D01*
X142900400Y-105664000D01*
X142900400Y-108237762D01*
X142926500Y-108503957D01*
X142949812Y-108770412D01*
X142954060Y-108785035D01*
X142955546Y-108800187D01*
X143032850Y-109056229D01*
X143107477Y-109313095D01*
X143114484Y-109326614D01*
X143118885Y-109341189D01*
X143244465Y-109577372D01*
X143367546Y-109814819D01*
X143377043Y-109826716D01*
X143384193Y-109840163D01*
X143553258Y-110047456D01*
X143720113Y-110256473D01*
X143741009Y-110277661D01*
X143741367Y-110278101D01*
X143741774Y-110278438D01*
X143748502Y-110285260D01*
X145734740Y-112271499D01*
X145941459Y-112441300D01*
X146146320Y-112613199D01*
X146159660Y-112620533D01*
X146171428Y-112630199D01*
X146407159Y-112756596D01*
X146641540Y-112885448D01*
X146656055Y-112890053D01*
X146669473Y-112897247D01*
X146925276Y-112975454D01*
X147180209Y-113056324D01*
X147195336Y-113058021D01*
X147209902Y-113062474D01*
X147476062Y-113089510D01*
X147741809Y-113119318D01*
X147771565Y-113119526D01*
X147772131Y-113119583D01*
X147772658Y-113119533D01*
X147782238Y-113119600D01*
X149310000Y-113119600D01*
X149872425Y-113064454D01*
X150413427Y-112901115D01*
X150912401Y-112635807D01*
X151350339Y-112278633D01*
X151710561Y-111843199D01*
X151979347Y-111346090D01*
X152146458Y-110806241D01*
X152205529Y-110244215D01*
X152154311Y-109681419D01*
X151994754Y-109139289D01*
X151732935Y-108638476D01*
X151378827Y-108198055D01*
X150945918Y-107834801D01*
X150450698Y-107562552D01*
X149912029Y-107391676D01*
X149350429Y-107328682D01*
X149310000Y-107328400D01*
X148981635Y-107328400D01*
X148691600Y-107038366D01*
X148691600Y-105664000D01*
X148636454Y-105101575D01*
X148619071Y-105044000D01*
X152602680Y-105044000D01*
X152602680Y-110844000D01*
X152607196Y-110900628D01*
X152636940Y-110996675D01*
X152692264Y-111080633D01*
X152768788Y-111145854D01*
X152860453Y-111187173D01*
X152960000Y-111201320D01*
X159360000Y-111201320D01*
X159416628Y-111196804D01*
X159512675Y-111167060D01*
X159596633Y-111111736D01*
X159661854Y-111035212D01*
X159703173Y-110943547D01*
X159717320Y-110844000D01*
X159717320Y-108330059D01*
X159758596Y-108253079D01*
X159887448Y-108018698D01*
X159892053Y-108004183D01*
X159899247Y-107990765D01*
X159977454Y-107734962D01*
X160058324Y-107480029D01*
X160060021Y-107464902D01*
X160064474Y-107450336D01*
X160091510Y-107184176D01*
X160121318Y-106918429D01*
X160121526Y-106888673D01*
X160121583Y-106888107D01*
X160121533Y-106887580D01*
X160121600Y-106878000D01*
X160121600Y-103622549D01*
X160066454Y-103060124D01*
X159903115Y-102519122D01*
X159637807Y-102020148D01*
X159280633Y-101582210D01*
X158845199Y-101221988D01*
X158348090Y-100953202D01*
X157808241Y-100786091D01*
X157246215Y-100727020D01*
X156683419Y-100778238D01*
X156141289Y-100937795D01*
X155640476Y-101199614D01*
X155200055Y-101553722D01*
X154836801Y-101986631D01*
X154564552Y-102481851D01*
X154393676Y-103020520D01*
X154330682Y-103582120D01*
X154330400Y-103622549D01*
X154330400Y-104686680D01*
X152960000Y-104686680D01*
X152903372Y-104691196D01*
X152807325Y-104720940D01*
X152723367Y-104776264D01*
X152658146Y-104852788D01*
X152616827Y-104944453D01*
X152602680Y-105044000D01*
X148619071Y-105044000D01*
X148473115Y-104560573D01*
X148207807Y-104061599D01*
X147850633Y-103623661D01*
X147415199Y-103263439D01*
X146918090Y-102994653D01*
X146378241Y-102827542D01*
X145816215Y-102768471D01*
X145253419Y-102819689D01*
X144711289Y-102979246D01*
X144210476Y-103241065D01*
X143770055Y-103595173D01*
X143406801Y-104028082D01*
X143134552Y-104523302D01*
X142963676Y-105061971D01*
X142900682Y-105623571D01*
X142900400Y-105664000D01*
X139126680Y-105664000D01*
X139126680Y-101472939D01*
X139704019Y-100895600D01*
X141268680Y-100895600D01*
X141268680Y-101938000D01*
X141273196Y-101994628D01*
X141302940Y-102090675D01*
X141358264Y-102174633D01*
X141434788Y-102239854D01*
X141526453Y-102281173D01*
X141626000Y-102295320D01*
X147426000Y-102295320D01*
X147482628Y-102290804D01*
X147578675Y-102261060D01*
X147662633Y-102205736D01*
X147727854Y-102129212D01*
X147769173Y-102037547D01*
X147783320Y-101938000D01*
X147783320Y-101002432D01*
X149679830Y-101002432D01*
X149749061Y-101379644D01*
X149890242Y-101736226D01*
X150097994Y-102058594D01*
X150364404Y-102334470D01*
X150679326Y-102553346D01*
X151030762Y-102706885D01*
X151405329Y-102789239D01*
X151788758Y-102797270D01*
X152166444Y-102730674D01*
X152524002Y-102591986D01*
X152847813Y-102386490D01*
X153125542Y-102122012D01*
X153346611Y-101808626D01*
X153502600Y-101458270D01*
X153587567Y-101084288D01*
X153593684Y-100646244D01*
X153519192Y-100270035D01*
X153373047Y-99915459D01*
X153160814Y-99596023D01*
X152890578Y-99323894D01*
X152572631Y-99109436D01*
X152219085Y-98960819D01*
X151843405Y-98883703D01*
X151459901Y-98881025D01*
X151083182Y-98952889D01*
X150727595Y-99096555D01*
X150406685Y-99306553D01*
X150132675Y-99574882D01*
X149916003Y-99891324D01*
X149764921Y-100243824D01*
X149685184Y-100618957D01*
X149679830Y-101002432D01*
X147783320Y-101002432D01*
X147783320Y-95538000D01*
X147778804Y-95481372D01*
X147749060Y-95385325D01*
X147693736Y-95301367D01*
X147617212Y-95236146D01*
X147525547Y-95194827D01*
X147523200Y-95194493D01*
X147523200Y-87453797D01*
X147497095Y-87187552D01*
X147473787Y-86921147D01*
X147469540Y-86906529D01*
X147468054Y-86891372D01*
X147390737Y-86635288D01*
X147316123Y-86378464D01*
X147309116Y-86364945D01*
X147304715Y-86350370D01*
X147179135Y-86114187D01*
X147056054Y-85876740D01*
X147046557Y-85864843D01*
X147039407Y-85851396D01*
X146870318Y-85644072D01*
X146703486Y-85435086D01*
X146682589Y-85413895D01*
X146682233Y-85413458D01*
X146681829Y-85413124D01*
X146675098Y-85406298D01*
X143904901Y-82636102D01*
X143698212Y-82466325D01*
X143493321Y-82294401D01*
X143479981Y-82287067D01*
X143468213Y-82277401D01*
X143232482Y-82151004D01*
X142998101Y-82022152D01*
X142983586Y-82017547D01*
X142970168Y-82010353D01*
X142714365Y-81932146D01*
X142459432Y-81851276D01*
X142444305Y-81849579D01*
X142429739Y-81845126D01*
X142163623Y-81818095D01*
X141897832Y-81788282D01*
X141868065Y-81788074D01*
X141867510Y-81788018D01*
X141866993Y-81788067D01*
X141857403Y-81788000D01*
X133488120Y-81788000D01*
X133488120Y-81456600D01*
X162002400Y-81456600D01*
X162002400Y-82448400D01*
M02*
