G04 #@! TF.FileFunction,Copper,L1,Top,Signal*
%FSLAX46Y46*%
G04 Gerber Fmt 4.6, Leading zero omitted, Abs format (unit mm)*
G04 Created by KiCad (PCBNEW 4.0.7-e2-6376~58~ubuntu16.04.1) date Mon Nov  6 12:00:07 2017*
%MOMM*%
%LPD*%
G01*
G04 APERTURE LIST*
%ADD10C,0.100000*%
%ADD11R,1.575000X1.960000*%
%ADD12R,3.150000X1.960000*%
%ADD13R,2.200000X1.200000*%
%ADD14R,6.400000X5.800000*%
%ADD15R,3.050000X2.750000*%
%ADD16R,1.100000X1.200000*%
%ADD17R,1.200000X2.200000*%
%ADD18R,5.800000X6.400000*%
%ADD19R,2.750000X3.050000*%
%ADD20R,1.200000X1.100000*%
%ADD21R,10.000000X7.000000*%
%ADD22O,6.850000X4.050000*%
%ADD23R,2.794000X2.794000*%
%ADD24C,2.794000*%
%ADD25R,1.500000X1.250000*%
%ADD26R,2.500000X4.000000*%
%ADD27R,1.300000X1.500000*%
%ADD28R,0.900000X1.200000*%
%ADD29R,1.500000X1.300000*%
%ADD30R,1.560000X0.650000*%
%ADD31R,1.900000X0.800000*%
%ADD32R,2.600000X2.000000*%
%ADD33O,2.600000X2.000000*%
%ADD34R,0.800000X1.900000*%
%ADD35C,0.635000*%
%ADD36C,0.254000*%
%ADD37C,5.080000*%
%ADD38C,3.810000*%
%ADD39C,2.540000*%
%ADD40C,0.203200*%
G04 APERTURE END LIST*
D10*
D11*
X158011000Y-98124000D03*
X156438500Y-98124000D03*
X158013500Y-103044000D03*
X156438500Y-103044000D03*
D12*
X157226000Y-98124000D03*
X157226000Y-103044000D03*
D13*
X149860000Y-105664000D03*
D14*
X156160000Y-107944000D03*
D15*
X157835000Y-109469000D03*
X154485000Y-106419000D03*
X157835000Y-106419000D03*
X154485000Y-109469000D03*
D16*
X149310000Y-110224000D03*
X150410000Y-110224000D03*
D17*
X142246000Y-105038000D03*
D18*
X144526000Y-98738000D03*
D19*
X146051000Y-97063000D03*
X143001000Y-100413000D03*
X143001000Y-97063000D03*
X146051000Y-100413000D03*
D20*
X146806000Y-104488000D03*
X146806000Y-105588000D03*
D21*
X128130800Y-84683600D03*
X128130800Y-94335600D03*
D22*
X165473000Y-84709000D03*
X165473000Y-94352000D03*
D23*
X144627600Y-89509600D03*
D24*
X139627600Y-89509600D03*
D25*
X141124080Y-116907881D03*
X143624080Y-116907881D03*
D26*
X155448000Y-114044000D03*
X155448000Y-120144000D03*
D27*
X141224000Y-126759975D03*
X141224000Y-129459975D03*
D28*
X139318000Y-103378000D03*
X136018000Y-103378000D03*
D27*
X144018000Y-129459975D03*
X144018000Y-126759975D03*
D29*
X138644080Y-121158000D03*
X135944080Y-121158000D03*
X135944080Y-119053992D03*
X138644080Y-119053992D03*
X141024080Y-119053992D03*
X143724080Y-119053992D03*
X143724080Y-114875881D03*
X141024080Y-114875881D03*
D27*
X141224000Y-124379975D03*
X141224000Y-121679975D03*
X135890000Y-109902000D03*
X135890000Y-112602000D03*
D29*
X139018000Y-105664000D03*
X136318000Y-105664000D03*
X136318000Y-107696000D03*
X139018000Y-107696000D03*
D27*
X144018000Y-121679975D03*
X144018000Y-124379975D03*
D30*
X135944080Y-115055992D03*
X135944080Y-116005992D03*
X135944080Y-116955992D03*
X138644080Y-116955992D03*
X138644080Y-115055992D03*
X138644080Y-116005992D03*
D31*
X138200000Y-110302000D03*
X138200000Y-112202000D03*
X141200000Y-111252000D03*
D32*
X136652000Y-125476000D03*
D33*
X136652000Y-128016000D03*
D34*
X148778000Y-117118000D03*
X146878000Y-117118000D03*
X147828000Y-120118000D03*
D29*
X149178000Y-114808000D03*
X146478000Y-114808000D03*
D35*
X138644080Y-122774123D03*
X146558000Y-120650000D03*
X139870420Y-122583529D03*
X139512636Y-113714234D03*
D36*
X144018000Y-121679975D02*
X148862470Y-121679975D01*
X157230658Y-98124000D02*
X157226000Y-98124000D01*
X148862470Y-121679975D02*
X149744650Y-120797795D01*
X160141822Y-115960943D02*
X160141822Y-101035164D01*
X149744650Y-120797795D02*
X149744650Y-117958524D01*
X149744650Y-117958524D02*
X150609174Y-117094000D01*
X150609174Y-117094000D02*
X159008765Y-117094000D01*
X159008765Y-117094000D02*
X160141822Y-115960943D01*
X160141822Y-101035164D02*
X157230658Y-98124000D01*
D37*
X157159526Y-97505313D02*
X156768790Y-97114577D01*
D36*
X157226000Y-98124000D02*
X157764416Y-98124000D01*
D37*
X156768790Y-97114577D02*
X156768790Y-87486838D01*
X156768790Y-87486838D02*
X159546628Y-84709000D01*
D38*
X165473000Y-84709000D02*
X159546628Y-84709000D01*
X165973000Y-94361000D02*
X161800543Y-94361000D01*
D37*
X132130800Y-94335600D02*
X133705600Y-94335600D01*
D36*
X138644080Y-122774123D02*
X138644080Y-123078867D01*
X139939853Y-129040135D02*
X140359693Y-129459975D01*
X138644080Y-123078867D02*
X139939853Y-124374640D01*
X139939853Y-124374640D02*
X139939853Y-129040135D01*
X140359693Y-129459975D02*
X141224000Y-129459975D01*
X141224000Y-129459975D02*
X141224000Y-129359975D01*
X138644080Y-122774123D02*
X138644080Y-122062000D01*
X138644080Y-122062000D02*
X138644080Y-121158000D01*
X146051000Y-100413000D02*
X146516866Y-100413000D01*
X138644080Y-116005992D02*
X137763915Y-116005992D01*
X137763915Y-116005992D02*
X137314428Y-116455479D01*
X137314428Y-116455479D02*
X137314428Y-120832348D01*
X137314428Y-120832348D02*
X137640080Y-121158000D01*
X137640080Y-121158000D02*
X138644080Y-121158000D01*
X141124080Y-116907881D02*
X141431630Y-116907881D01*
X143463630Y-114875881D02*
X143724080Y-114875881D01*
X141431630Y-116907881D02*
X143463630Y-114875881D01*
X138644080Y-116005992D02*
X139602947Y-116005992D01*
X139602947Y-116005992D02*
X139896411Y-116299456D01*
X139896411Y-116684212D02*
X140120080Y-116907881D01*
X139896411Y-116299456D02*
X139896411Y-116684212D01*
X140120080Y-116907881D02*
X141124080Y-116907881D01*
D37*
X132130800Y-84683600D02*
X141856709Y-84683600D01*
X141856709Y-84683600D02*
X144627600Y-87454491D01*
X144627600Y-87454491D02*
X144627600Y-89509600D01*
X144627600Y-89509600D02*
X144627600Y-99223720D01*
X157226000Y-103622549D02*
X157226000Y-106878000D01*
X157226000Y-106878000D02*
X156160000Y-107944000D01*
X155448000Y-114044000D02*
X155448000Y-108656000D01*
X155448000Y-108656000D02*
X156160000Y-107944000D01*
D36*
X141224000Y-126759975D02*
X141224000Y-124379975D01*
X150410000Y-110224000D02*
X149310000Y-110224000D01*
X146806000Y-104488000D02*
X146806000Y-105588000D01*
X139018000Y-105664000D02*
X140094470Y-105664000D01*
X140094470Y-105664000D02*
X141364470Y-106934000D01*
X141364470Y-106934000D02*
X144606000Y-106934000D01*
X144606000Y-106934000D02*
X145952000Y-105588000D01*
X145952000Y-105588000D02*
X146806000Y-105588000D01*
X139318000Y-103378000D02*
X139318000Y-104371931D01*
X139318000Y-104371931D02*
X139018000Y-104671931D01*
X139018000Y-104671931D02*
X139018000Y-105664000D01*
D39*
X146806000Y-105588000D02*
X145872000Y-105588000D01*
X145872000Y-105588000D02*
X145796000Y-105664000D01*
D37*
X145796000Y-108237762D02*
X145796000Y-105664000D01*
X149310000Y-110224000D02*
X147782238Y-110224000D01*
X147782238Y-110224000D02*
X145796000Y-108237762D01*
D36*
X142246000Y-105038000D02*
X142246000Y-103684000D01*
X142246000Y-103684000D02*
X142240000Y-103678000D01*
X142240000Y-103678000D02*
X142240000Y-103382550D01*
X148721977Y-102616000D02*
X149860000Y-103754023D01*
X142240000Y-103382550D02*
X143006550Y-102616000D01*
X143006550Y-102616000D02*
X148721977Y-102616000D01*
X149860000Y-103754023D02*
X149860000Y-105664000D01*
X142246000Y-105038000D02*
X140996881Y-105038000D01*
X139954000Y-101854000D02*
X136652000Y-101854000D01*
X140996881Y-105038000D02*
X140531084Y-104572203D01*
X140531084Y-104572203D02*
X140531084Y-102431084D01*
X140531084Y-102431084D02*
X139954000Y-101854000D01*
X136018000Y-102488000D02*
X136018000Y-103378000D01*
X136652000Y-101854000D02*
X136018000Y-102488000D01*
X136018000Y-103378000D02*
X136018000Y-104319201D01*
X136018000Y-104319201D02*
X136318000Y-104619201D01*
X136318000Y-104619201D02*
X136318000Y-105664000D01*
X136318000Y-107696000D02*
X136318000Y-105664000D01*
X144018000Y-126759975D02*
X144018000Y-124379975D01*
X147828000Y-120118000D02*
X147090000Y-120118000D01*
X147090000Y-120118000D02*
X146558000Y-120650000D01*
X141200000Y-108434000D02*
X140462000Y-107696000D01*
X140462000Y-107696000D02*
X139018000Y-107696000D01*
X141200000Y-111252000D02*
X141200000Y-108434000D01*
X135944080Y-119053992D02*
X135944080Y-121158000D01*
X135944080Y-119053992D02*
X135944080Y-116955992D01*
X138644080Y-119053992D02*
X141024080Y-119053992D01*
X138644080Y-116955992D02*
X138644080Y-119053992D01*
X141224000Y-121679975D02*
X141224000Y-120799919D01*
X141224000Y-120799919D02*
X141699969Y-120323950D01*
X141699969Y-120323950D02*
X145240439Y-120323950D01*
X145240439Y-120323950D02*
X146920487Y-118643902D01*
X146920487Y-118643902D02*
X148399409Y-118643902D01*
X148399409Y-118643902D02*
X148778000Y-118265311D01*
X148778000Y-118265311D02*
X148778000Y-117118000D01*
X149178000Y-114808000D02*
X149178000Y-115654704D01*
X149178000Y-115654704D02*
X148778000Y-116054704D01*
X148778000Y-116054704D02*
X148778000Y-117118000D01*
X139870420Y-122134517D02*
X139870420Y-122583529D01*
X140320000Y-121679975D02*
X139870420Y-122129555D01*
X139870420Y-122129555D02*
X139870420Y-122134517D01*
X141224000Y-121679975D02*
X140320000Y-121679975D01*
X139512636Y-113714234D02*
X140766433Y-113714234D01*
X140766433Y-113714234D02*
X141024080Y-113971881D01*
X141024080Y-113971881D02*
X141024080Y-114875881D01*
X139512636Y-113714234D02*
X139512636Y-113261199D01*
X139700000Y-113073835D02*
X139700000Y-111252000D01*
X139700000Y-111252000D02*
X138750000Y-110302000D01*
X139512636Y-113261199D02*
X139700000Y-113073835D01*
X138750000Y-110302000D02*
X138200000Y-110302000D01*
X139886119Y-114875881D02*
X139706008Y-115055992D01*
X141024080Y-114875881D02*
X139886119Y-114875881D01*
X139406838Y-113714234D02*
X139512636Y-113714234D01*
X141224000Y-121679975D02*
X141210025Y-121679975D01*
X135944080Y-115055992D02*
X136978080Y-115055992D01*
X136978080Y-115055992D02*
X138644080Y-115055992D01*
X139706008Y-115055992D02*
X138644080Y-115055992D01*
X138200000Y-110302000D02*
X137094210Y-110302000D01*
X137094210Y-110302000D02*
X136694131Y-109901921D01*
X136694131Y-109901921D02*
X135890079Y-109901921D01*
D40*
G36*
X162002400Y-82448400D02*
X161335381Y-82448400D01*
X161174197Y-82314106D01*
X160678029Y-82043586D01*
X160138767Y-81874592D01*
X159576950Y-81813559D01*
X159013978Y-81862813D01*
X158471295Y-82020477D01*
X157969571Y-82280546D01*
X157527917Y-82633114D01*
X157499129Y-82661502D01*
X154721292Y-85439340D01*
X154551515Y-85646029D01*
X154379591Y-85850920D01*
X154372257Y-85864260D01*
X154362591Y-85876028D01*
X154236194Y-86111759D01*
X154107342Y-86346140D01*
X154102737Y-86360655D01*
X154095543Y-86374073D01*
X154017336Y-86629876D01*
X153936466Y-86884809D01*
X153934769Y-86899936D01*
X153930316Y-86914502D01*
X153903285Y-87180618D01*
X153873472Y-87446409D01*
X153873264Y-87476176D01*
X153873208Y-87476731D01*
X153873257Y-87477248D01*
X153873190Y-87486838D01*
X153873190Y-97114577D01*
X153899290Y-97380772D01*
X153922602Y-97647227D01*
X153926850Y-97661850D01*
X153928336Y-97677002D01*
X154005640Y-97933044D01*
X154080267Y-98189910D01*
X154087274Y-98203429D01*
X154091675Y-98218004D01*
X154217255Y-98454187D01*
X154340336Y-98691634D01*
X154349833Y-98703531D01*
X154356983Y-98716978D01*
X154526048Y-98924271D01*
X154692903Y-99133288D01*
X154713799Y-99154476D01*
X154714157Y-99154916D01*
X154714564Y-99155253D01*
X154721292Y-99162075D01*
X155112027Y-99552811D01*
X155548716Y-99911512D01*
X156046760Y-100178560D01*
X156587189Y-100343787D01*
X157149419Y-100400895D01*
X157712032Y-100347712D01*
X158253602Y-100186264D01*
X158487239Y-100063081D01*
X159659222Y-101235063D01*
X159659222Y-102060424D01*
X159637807Y-102020148D01*
X159280633Y-101582210D01*
X158845199Y-101221988D01*
X158348090Y-100953202D01*
X157808241Y-100786091D01*
X157246215Y-100727020D01*
X156683419Y-100778238D01*
X156141289Y-100937795D01*
X155640476Y-101199614D01*
X155200055Y-101553722D01*
X154836801Y-101986631D01*
X154564552Y-102481851D01*
X154393676Y-103020520D01*
X154330682Y-103582120D01*
X154330400Y-103622549D01*
X154330400Y-104686680D01*
X152960000Y-104686680D01*
X152903372Y-104691196D01*
X152807325Y-104720940D01*
X152723367Y-104776264D01*
X152658146Y-104852788D01*
X152616827Y-104944453D01*
X152602680Y-105044000D01*
X152602680Y-108151063D01*
X152582495Y-108349780D01*
X152552682Y-108615571D01*
X152552474Y-108645338D01*
X152552418Y-108645893D01*
X152552467Y-108646410D01*
X152552400Y-108656000D01*
X152552400Y-114044000D01*
X152607546Y-114606425D01*
X152770885Y-115147427D01*
X153036193Y-115646401D01*
X153393367Y-116084339D01*
X153828801Y-116444561D01*
X154137363Y-116611400D01*
X150609174Y-116611400D01*
X150564893Y-116615742D01*
X150520399Y-116619635D01*
X150517960Y-116620344D01*
X150515437Y-116620591D01*
X150472807Y-116633462D01*
X150429952Y-116645912D01*
X150427697Y-116647081D01*
X150425269Y-116647814D01*
X150385936Y-116668728D01*
X150346331Y-116689257D01*
X150344346Y-116690841D01*
X150342107Y-116692032D01*
X150307577Y-116720195D01*
X150272722Y-116748019D01*
X150269191Y-116751502D01*
X150269118Y-116751561D01*
X150269062Y-116751628D01*
X150267925Y-116752750D01*
X149535320Y-117485354D01*
X149535320Y-116168000D01*
X149530804Y-116111372D01*
X149501060Y-116015325D01*
X149500591Y-116014613D01*
X149519249Y-115995954D01*
X149547498Y-115961563D01*
X149576200Y-115927357D01*
X149577424Y-115925131D01*
X149579032Y-115923173D01*
X149600074Y-115883930D01*
X149621575Y-115844820D01*
X149622343Y-115842400D01*
X149623541Y-115840165D01*
X149631137Y-115815320D01*
X149928000Y-115815320D01*
X149984628Y-115810804D01*
X150080675Y-115781060D01*
X150164633Y-115725736D01*
X150229854Y-115649212D01*
X150271173Y-115557547D01*
X150285320Y-115458000D01*
X150285320Y-114158000D01*
X150280804Y-114101372D01*
X150251060Y-114005325D01*
X150195736Y-113921367D01*
X150119212Y-113856146D01*
X150027547Y-113814827D01*
X149928000Y-113800680D01*
X148428000Y-113800680D01*
X148371372Y-113805196D01*
X148275325Y-113834940D01*
X148191367Y-113890264D01*
X148126146Y-113966788D01*
X148084827Y-114058453D01*
X148070680Y-114158000D01*
X148070680Y-115458000D01*
X148075196Y-115514628D01*
X148104940Y-115610675D01*
X148160264Y-115694633D01*
X148236788Y-115759854D01*
X148328453Y-115801173D01*
X148366089Y-115806522D01*
X148363228Y-115811858D01*
X148321372Y-115815196D01*
X148225325Y-115844940D01*
X148141367Y-115900264D01*
X148076146Y-115976788D01*
X148034827Y-116068453D01*
X148020680Y-116168000D01*
X148020680Y-118068000D01*
X148025196Y-118124628D01*
X148036553Y-118161302D01*
X147880984Y-118161302D01*
X147887600Y-118128040D01*
X147887600Y-117422800D01*
X147735200Y-117270400D01*
X147030400Y-117270400D01*
X147030400Y-117290400D01*
X146725600Y-117290400D01*
X146725600Y-117270400D01*
X146020800Y-117270400D01*
X145868400Y-117422800D01*
X145868400Y-118128040D01*
X145891827Y-118245813D01*
X145937779Y-118356754D01*
X146004493Y-118456597D01*
X146089402Y-118541507D01*
X146189246Y-118608220D01*
X146248943Y-118632947D01*
X145075194Y-119806695D01*
X145083680Y-119764033D01*
X145083680Y-119358792D01*
X144931280Y-119206392D01*
X143876480Y-119206392D01*
X143876480Y-119226392D01*
X143571680Y-119226392D01*
X143571680Y-119206392D01*
X142516880Y-119206392D01*
X142364480Y-119358792D01*
X142364480Y-119764033D01*
X142379860Y-119841350D01*
X142100209Y-119841350D01*
X142117253Y-119803539D01*
X142131400Y-119703992D01*
X142131400Y-118403992D01*
X142126884Y-118347364D01*
X142097140Y-118251317D01*
X142041816Y-118167359D01*
X141965292Y-118102138D01*
X141873627Y-118060819D01*
X141774080Y-118046672D01*
X140274080Y-118046672D01*
X140217452Y-118051188D01*
X140121405Y-118080932D01*
X140037447Y-118136256D01*
X139972226Y-118212780D01*
X139930907Y-118304445D01*
X139916760Y-118403992D01*
X139916760Y-118571392D01*
X139751400Y-118571392D01*
X139751400Y-118403992D01*
X139746884Y-118347364D01*
X139717140Y-118251317D01*
X139661816Y-118167359D01*
X139585292Y-118102138D01*
X139493627Y-118060819D01*
X139394080Y-118046672D01*
X139126680Y-118046672D01*
X139126680Y-117638312D01*
X139424080Y-117638312D01*
X139480708Y-117633796D01*
X139576755Y-117604052D01*
X139660713Y-117548728D01*
X139725934Y-117472204D01*
X139767253Y-117380539D01*
X139781400Y-117280992D01*
X139781400Y-117251242D01*
X139813255Y-117277408D01*
X139847427Y-117306081D01*
X139849653Y-117307304D01*
X139851612Y-117308914D01*
X139890889Y-117329974D01*
X139929964Y-117351456D01*
X139932382Y-117352223D01*
X139934620Y-117353423D01*
X139977268Y-117366462D01*
X140016760Y-117378989D01*
X140016760Y-117532881D01*
X140021276Y-117589509D01*
X140051020Y-117685556D01*
X140106344Y-117769514D01*
X140182868Y-117834735D01*
X140274533Y-117876054D01*
X140374080Y-117890201D01*
X141874080Y-117890201D01*
X141930708Y-117885685D01*
X142026755Y-117855941D01*
X142110713Y-117800617D01*
X142175934Y-117724093D01*
X142217253Y-117632428D01*
X142231400Y-117532881D01*
X142231400Y-117212681D01*
X142264480Y-117212681D01*
X142264480Y-117592922D01*
X142287907Y-117710695D01*
X142333860Y-117821635D01*
X142400573Y-117921479D01*
X142485483Y-118006388D01*
X142500076Y-118016139D01*
X142433860Y-118115238D01*
X142387907Y-118226178D01*
X142364480Y-118343951D01*
X142364480Y-118749192D01*
X142516880Y-118901592D01*
X143571680Y-118901592D01*
X143571680Y-117946792D01*
X143471680Y-117846792D01*
X143471680Y-117060281D01*
X143776480Y-117060281D01*
X143776480Y-117990081D01*
X143876480Y-118090081D01*
X143876480Y-118901592D01*
X144931280Y-118901592D01*
X145083680Y-118749192D01*
X145083680Y-118343951D01*
X145060253Y-118226178D01*
X145014300Y-118115238D01*
X144947587Y-118015394D01*
X144862677Y-117930485D01*
X144848084Y-117920734D01*
X144914300Y-117821635D01*
X144960253Y-117710695D01*
X144983680Y-117592922D01*
X144983680Y-117212681D01*
X144831280Y-117060281D01*
X143776480Y-117060281D01*
X143471680Y-117060281D01*
X142416880Y-117060281D01*
X142264480Y-117212681D01*
X142231400Y-117212681D01*
X142231400Y-116790611D01*
X142341705Y-116680306D01*
X142416880Y-116755481D01*
X143471680Y-116755481D01*
X143471680Y-116735481D01*
X143776480Y-116735481D01*
X143776480Y-116755481D01*
X144831280Y-116755481D01*
X144983680Y-116603081D01*
X144983680Y-116222840D01*
X144960253Y-116105067D01*
X144914300Y-115994127D01*
X144847587Y-115894283D01*
X144762677Y-115809374D01*
X144721012Y-115781534D01*
X144775934Y-115717093D01*
X144817253Y-115625428D01*
X144831400Y-115525881D01*
X144831400Y-115112800D01*
X145118400Y-115112800D01*
X145118400Y-115518041D01*
X145141827Y-115635814D01*
X145187780Y-115746754D01*
X145254493Y-115846598D01*
X145339403Y-115931507D01*
X145439246Y-115998221D01*
X145550187Y-116044173D01*
X145667960Y-116067600D01*
X145876428Y-116067600D01*
X145868400Y-116107960D01*
X145868400Y-116813200D01*
X146020800Y-116965600D01*
X146725600Y-116965600D01*
X146725600Y-116945600D01*
X147030400Y-116945600D01*
X147030400Y-116965600D01*
X147735200Y-116965600D01*
X147887600Y-116813200D01*
X147887600Y-116107960D01*
X147864173Y-115990187D01*
X147818221Y-115879246D01*
X147751507Y-115779403D01*
X147748448Y-115776344D01*
X147768220Y-115746754D01*
X147814173Y-115635814D01*
X147837600Y-115518041D01*
X147837600Y-115112800D01*
X147685200Y-114960400D01*
X146630400Y-114960400D01*
X146630400Y-114980400D01*
X146325600Y-114980400D01*
X146325600Y-114960400D01*
X145270800Y-114960400D01*
X145118400Y-115112800D01*
X144831400Y-115112800D01*
X144831400Y-114225881D01*
X144826884Y-114169253D01*
X144804806Y-114097959D01*
X145118400Y-114097959D01*
X145118400Y-114503200D01*
X145270800Y-114655600D01*
X146325600Y-114655600D01*
X146325600Y-113700800D01*
X146630400Y-113700800D01*
X146630400Y-114655600D01*
X147685200Y-114655600D01*
X147837600Y-114503200D01*
X147837600Y-114097959D01*
X147814173Y-113980186D01*
X147768220Y-113869246D01*
X147701507Y-113769402D01*
X147616597Y-113684493D01*
X147516754Y-113617779D01*
X147405813Y-113571827D01*
X147288040Y-113548400D01*
X146782800Y-113548400D01*
X146630400Y-113700800D01*
X146325600Y-113700800D01*
X146173200Y-113548400D01*
X145667960Y-113548400D01*
X145550187Y-113571827D01*
X145439246Y-113617779D01*
X145339403Y-113684493D01*
X145254493Y-113769402D01*
X145187780Y-113869246D01*
X145141827Y-113980186D01*
X145118400Y-114097959D01*
X144804806Y-114097959D01*
X144797140Y-114073206D01*
X144741816Y-113989248D01*
X144665292Y-113924027D01*
X144573627Y-113882708D01*
X144474080Y-113868561D01*
X142974080Y-113868561D01*
X142917452Y-113873077D01*
X142821405Y-113902821D01*
X142737447Y-113958145D01*
X142672226Y-114034669D01*
X142630907Y-114126334D01*
X142616760Y-114225881D01*
X142616760Y-115040251D01*
X142131400Y-115525611D01*
X142131400Y-114225881D01*
X142126884Y-114169253D01*
X142097140Y-114073206D01*
X142041816Y-113989248D01*
X141965292Y-113924027D01*
X141873627Y-113882708D01*
X141774080Y-113868561D01*
X141494596Y-113868561D01*
X141484604Y-113835468D01*
X141472167Y-113792659D01*
X141471000Y-113790408D01*
X141470266Y-113787976D01*
X141449312Y-113748568D01*
X141428822Y-113709038D01*
X141427241Y-113707057D01*
X141426048Y-113704814D01*
X141397863Y-113670256D01*
X141370061Y-113635429D01*
X141366575Y-113631893D01*
X141366519Y-113631825D01*
X141366456Y-113631773D01*
X141365330Y-113630631D01*
X141107683Y-113372984D01*
X141073236Y-113344689D01*
X141039086Y-113316034D01*
X141036863Y-113314812D01*
X141034902Y-113313201D01*
X140995585Y-113292119D01*
X140956549Y-113270659D01*
X140954133Y-113269893D01*
X140951894Y-113268692D01*
X140909231Y-113255649D01*
X140866771Y-113242180D01*
X140864250Y-113241897D01*
X140861822Y-113241155D01*
X140817467Y-113236650D01*
X140773171Y-113231681D01*
X140768211Y-113231646D01*
X140768118Y-113231637D01*
X140768032Y-113231645D01*
X140766433Y-113231634D01*
X140153999Y-113231634D01*
X140158581Y-113216647D01*
X140172054Y-113174173D01*
X140172337Y-113171652D01*
X140173079Y-113169224D01*
X140177584Y-113124869D01*
X140182553Y-113080573D01*
X140182588Y-113075613D01*
X140182597Y-113075520D01*
X140182589Y-113075434D01*
X140182600Y-113073835D01*
X140182600Y-111999742D01*
X140250000Y-112009320D01*
X142150000Y-112009320D01*
X142206628Y-112004804D01*
X142302675Y-111975060D01*
X142386633Y-111919736D01*
X142451854Y-111843212D01*
X142493173Y-111751547D01*
X142507320Y-111652000D01*
X142507320Y-110852000D01*
X142502804Y-110795372D01*
X142473060Y-110699325D01*
X142417736Y-110615367D01*
X142341212Y-110550146D01*
X142249547Y-110508827D01*
X142150000Y-110494680D01*
X141682600Y-110494680D01*
X141682600Y-108434000D01*
X141678254Y-108389674D01*
X141674365Y-108345225D01*
X141673656Y-108342786D01*
X141673409Y-108340263D01*
X141660524Y-108297587D01*
X141648087Y-108254778D01*
X141646920Y-108252527D01*
X141646186Y-108250095D01*
X141625253Y-108210726D01*
X141604743Y-108171157D01*
X141603159Y-108169172D01*
X141601968Y-108166933D01*
X141573805Y-108132403D01*
X141545981Y-108097548D01*
X141542498Y-108094017D01*
X141542439Y-108093944D01*
X141542372Y-108093888D01*
X141541250Y-108092751D01*
X140803250Y-107354750D01*
X140768803Y-107326455D01*
X140734653Y-107297800D01*
X140732430Y-107296578D01*
X140730469Y-107294967D01*
X140691152Y-107273885D01*
X140652116Y-107252425D01*
X140649700Y-107251659D01*
X140647461Y-107250458D01*
X140604798Y-107237415D01*
X140562338Y-107223946D01*
X140559817Y-107223663D01*
X140557389Y-107222921D01*
X140513034Y-107218416D01*
X140468738Y-107213447D01*
X140463778Y-107213412D01*
X140463685Y-107213403D01*
X140463599Y-107213411D01*
X140462000Y-107213400D01*
X140125320Y-107213400D01*
X140125320Y-107046000D01*
X140120804Y-106989372D01*
X140091060Y-106893325D01*
X140035736Y-106809367D01*
X139959212Y-106744146D01*
X139867547Y-106702827D01*
X139768000Y-106688680D01*
X138268000Y-106688680D01*
X138211372Y-106693196D01*
X138115325Y-106722940D01*
X138031367Y-106778264D01*
X137966146Y-106854788D01*
X137924827Y-106946453D01*
X137910680Y-107046000D01*
X137910680Y-108346000D01*
X137915196Y-108402628D01*
X137944940Y-108498675D01*
X138000264Y-108582633D01*
X138076788Y-108647854D01*
X138168453Y-108689173D01*
X138268000Y-108703320D01*
X139768000Y-108703320D01*
X139824628Y-108698804D01*
X139920675Y-108669060D01*
X140004633Y-108613736D01*
X140069854Y-108537212D01*
X140111173Y-108445547D01*
X140125320Y-108346000D01*
X140125320Y-108178600D01*
X140262100Y-108178600D01*
X140717400Y-108633899D01*
X140717400Y-110494680D01*
X140250000Y-110494680D01*
X140193372Y-110499196D01*
X140097325Y-110528940D01*
X140013367Y-110584264D01*
X139948146Y-110660788D01*
X139906827Y-110752453D01*
X139903856Y-110773356D01*
X139507320Y-110376820D01*
X139507320Y-109902000D01*
X139502804Y-109845372D01*
X139473060Y-109749325D01*
X139417736Y-109665367D01*
X139341212Y-109600146D01*
X139249547Y-109558827D01*
X139150000Y-109544680D01*
X137250000Y-109544680D01*
X137193372Y-109549196D01*
X137097325Y-109578940D01*
X137070998Y-109596288D01*
X137035381Y-109560671D01*
X137000934Y-109532376D01*
X136966784Y-109503721D01*
X136964561Y-109502499D01*
X136962600Y-109500888D01*
X136923283Y-109479806D01*
X136897320Y-109465533D01*
X136897320Y-109152000D01*
X136892804Y-109095372D01*
X136863060Y-108999325D01*
X136807736Y-108915367D01*
X136731212Y-108850146D01*
X136639547Y-108808827D01*
X136540000Y-108794680D01*
X135240000Y-108794680D01*
X135183372Y-108799196D01*
X135087325Y-108828940D01*
X135003367Y-108884264D01*
X134938146Y-108960788D01*
X134896827Y-109052453D01*
X134882680Y-109152000D01*
X134882680Y-110652000D01*
X134887196Y-110708628D01*
X134916940Y-110804675D01*
X134972264Y-110888633D01*
X135048788Y-110953854D01*
X135140453Y-110995173D01*
X135240000Y-111009320D01*
X136540000Y-111009320D01*
X136596628Y-111004804D01*
X136692675Y-110975060D01*
X136776633Y-110919736D01*
X136841854Y-110843212D01*
X136883173Y-110751547D01*
X136885476Y-110735340D01*
X136895791Y-110741010D01*
X136897196Y-110758628D01*
X136926940Y-110854675D01*
X136982264Y-110938633D01*
X137058788Y-111003854D01*
X137150453Y-111045173D01*
X137250000Y-111059320D01*
X138824820Y-111059320D01*
X138957900Y-111192400D01*
X138504800Y-111192400D01*
X138352400Y-111344800D01*
X138352400Y-112049600D01*
X138372400Y-112049600D01*
X138372400Y-112354400D01*
X138352400Y-112354400D01*
X138352400Y-113059200D01*
X138504800Y-113211600D01*
X139034891Y-113211600D01*
X139031319Y-113243440D01*
X138994516Y-113279480D01*
X138919940Y-113388397D01*
X138867939Y-113509724D01*
X138840494Y-113638841D01*
X138838651Y-113770830D01*
X138862480Y-113900663D01*
X138911073Y-114023395D01*
X138982579Y-114134352D01*
X139074276Y-114229306D01*
X139182669Y-114304641D01*
X139303630Y-114357488D01*
X139377241Y-114373672D01*
X137864080Y-114373672D01*
X137807452Y-114378188D01*
X137711405Y-114407932D01*
X137627447Y-114463256D01*
X137562226Y-114539780D01*
X137547075Y-114573392D01*
X137043895Y-114573392D01*
X136991816Y-114494359D01*
X136915292Y-114429138D01*
X136823627Y-114387819D01*
X136724080Y-114373672D01*
X135164080Y-114373672D01*
X135107452Y-114378188D01*
X135011405Y-114407932D01*
X134927447Y-114463256D01*
X134862226Y-114539780D01*
X134820907Y-114631445D01*
X134806760Y-114730992D01*
X134806760Y-115186586D01*
X134775483Y-115207485D01*
X134690573Y-115292394D01*
X134623860Y-115392238D01*
X134577907Y-115503178D01*
X134554480Y-115620951D01*
X134554480Y-115701192D01*
X134706880Y-115853592D01*
X135791680Y-115853592D01*
X135791680Y-115833592D01*
X136096480Y-115833592D01*
X136096480Y-115853592D01*
X136116480Y-115853592D01*
X136116480Y-116158392D01*
X136096480Y-116158392D01*
X136096480Y-116178392D01*
X135791680Y-116178392D01*
X135791680Y-116158392D01*
X134706880Y-116158392D01*
X134554480Y-116310792D01*
X134554480Y-116391033D01*
X134577907Y-116508806D01*
X134623860Y-116619746D01*
X134690573Y-116719590D01*
X134775483Y-116804499D01*
X134806760Y-116825398D01*
X134806760Y-117280992D01*
X134811276Y-117337620D01*
X134841020Y-117433667D01*
X134896344Y-117517625D01*
X134972868Y-117582846D01*
X135064533Y-117624165D01*
X135164080Y-117638312D01*
X135461480Y-117638312D01*
X135461480Y-118046672D01*
X135194080Y-118046672D01*
X135137452Y-118051188D01*
X135041405Y-118080932D01*
X134957447Y-118136256D01*
X134892226Y-118212780D01*
X134850907Y-118304445D01*
X134836760Y-118403992D01*
X134836760Y-119703992D01*
X134841276Y-119760620D01*
X134871020Y-119856667D01*
X134926344Y-119940625D01*
X135002868Y-120005846D01*
X135094533Y-120047165D01*
X135194080Y-120061312D01*
X135461480Y-120061312D01*
X135461480Y-120150680D01*
X135194080Y-120150680D01*
X135137452Y-120155196D01*
X135041405Y-120184940D01*
X134957447Y-120240264D01*
X134892226Y-120316788D01*
X134850907Y-120408453D01*
X134836760Y-120508000D01*
X134836760Y-121808000D01*
X134841276Y-121864628D01*
X134871020Y-121960675D01*
X134926344Y-122044633D01*
X135002868Y-122109854D01*
X135094533Y-122151173D01*
X135194080Y-122165320D01*
X136694080Y-122165320D01*
X136750708Y-122160804D01*
X136846755Y-122131060D01*
X136930713Y-122075736D01*
X136995934Y-121999212D01*
X137037253Y-121907547D01*
X137051400Y-121808000D01*
X137051400Y-121251820D01*
X137298830Y-121499249D01*
X137333221Y-121527498D01*
X137367427Y-121556200D01*
X137369653Y-121557424D01*
X137371611Y-121559032D01*
X137410854Y-121580074D01*
X137449964Y-121601575D01*
X137452384Y-121602343D01*
X137454619Y-121603541D01*
X137497249Y-121616575D01*
X137536760Y-121629108D01*
X137536760Y-121808000D01*
X137541276Y-121864628D01*
X137571020Y-121960675D01*
X137626344Y-122044633D01*
X137702868Y-122109854D01*
X137794533Y-122151173D01*
X137894080Y-122165320D01*
X138161480Y-122165320D01*
X138161480Y-122304585D01*
X138125960Y-122339369D01*
X138051384Y-122448286D01*
X137999383Y-122569613D01*
X137971938Y-122698730D01*
X137970095Y-122830719D01*
X137993924Y-122960552D01*
X138042517Y-123083284D01*
X138114023Y-123194241D01*
X138205720Y-123289195D01*
X138215591Y-123296056D01*
X138218838Y-123302162D01*
X138239338Y-123341710D01*
X138240919Y-123343691D01*
X138242112Y-123345934D01*
X138270297Y-123380492D01*
X138298099Y-123415319D01*
X138301585Y-123418855D01*
X138301641Y-123418923D01*
X138301704Y-123418975D01*
X138302830Y-123420117D01*
X139457253Y-124574540D01*
X139457253Y-129040135D01*
X139461599Y-129084461D01*
X139465488Y-129128910D01*
X139466197Y-129131349D01*
X139466444Y-129133872D01*
X139479325Y-129176535D01*
X139491766Y-129219358D01*
X139492933Y-129221610D01*
X139493667Y-129224040D01*
X139514611Y-129263430D01*
X139535111Y-129302978D01*
X139536692Y-129304959D01*
X139537885Y-129307202D01*
X139566070Y-129341760D01*
X139593872Y-129376587D01*
X139597358Y-129380123D01*
X139597414Y-129380191D01*
X139597477Y-129380243D01*
X139598603Y-129381385D01*
X140018443Y-129801224D01*
X140052834Y-129829473D01*
X140087040Y-129858175D01*
X140089266Y-129859399D01*
X140091224Y-129861007D01*
X140130467Y-129882049D01*
X140169577Y-129903550D01*
X140171997Y-129904318D01*
X140174232Y-129905516D01*
X140216680Y-129918494D01*
X140216680Y-130209975D01*
X140221196Y-130266603D01*
X140250940Y-130362650D01*
X140306264Y-130446608D01*
X140382788Y-130511829D01*
X140474453Y-130553148D01*
X140574000Y-130567295D01*
X141874000Y-130567295D01*
X141930628Y-130562779D01*
X142026675Y-130533035D01*
X142110633Y-130477711D01*
X142175854Y-130401187D01*
X142217173Y-130309522D01*
X142231320Y-130209975D01*
X142231320Y-128709975D01*
X142226804Y-128653347D01*
X142225748Y-128649935D01*
X142758400Y-128649935D01*
X142758400Y-129155175D01*
X142910800Y-129307575D01*
X143865600Y-129307575D01*
X143865600Y-128252775D01*
X144170400Y-128252775D01*
X144170400Y-129307575D01*
X145125200Y-129307575D01*
X145277600Y-129155175D01*
X145277600Y-128649935D01*
X145254173Y-128532162D01*
X145208221Y-128421221D01*
X145141507Y-128321378D01*
X145056598Y-128236468D01*
X144956754Y-128169755D01*
X144845814Y-128123802D01*
X144728041Y-128100375D01*
X144322800Y-128100375D01*
X144170400Y-128252775D01*
X143865600Y-128252775D01*
X143713200Y-128100375D01*
X143307959Y-128100375D01*
X143190186Y-128123802D01*
X143079246Y-128169755D01*
X142979402Y-128236468D01*
X142894493Y-128321378D01*
X142827779Y-128421221D01*
X142781827Y-128532162D01*
X142758400Y-128649935D01*
X142225748Y-128649935D01*
X142197060Y-128557300D01*
X142141736Y-128473342D01*
X142065212Y-128408121D01*
X141973547Y-128366802D01*
X141874000Y-128352655D01*
X140574000Y-128352655D01*
X140517372Y-128357171D01*
X140422453Y-128386566D01*
X140422453Y-127829708D01*
X140474453Y-127853148D01*
X140574000Y-127867295D01*
X141874000Y-127867295D01*
X141930628Y-127862779D01*
X142026675Y-127833035D01*
X142110633Y-127777711D01*
X142175854Y-127701187D01*
X142217173Y-127609522D01*
X142231320Y-127509975D01*
X142231320Y-126009975D01*
X142226804Y-125953347D01*
X142197060Y-125857300D01*
X142141736Y-125773342D01*
X142065212Y-125708121D01*
X141973547Y-125666802D01*
X141874000Y-125652655D01*
X141706600Y-125652655D01*
X141706600Y-125487295D01*
X141874000Y-125487295D01*
X141930628Y-125482779D01*
X142026675Y-125453035D01*
X142110633Y-125397711D01*
X142175854Y-125321187D01*
X142217173Y-125229522D01*
X142231320Y-125129975D01*
X142231320Y-123629975D01*
X143010680Y-123629975D01*
X143010680Y-125129975D01*
X143015196Y-125186603D01*
X143044940Y-125282650D01*
X143100264Y-125366608D01*
X143176788Y-125431829D01*
X143268453Y-125473148D01*
X143368000Y-125487295D01*
X143535400Y-125487295D01*
X143535400Y-125652655D01*
X143368000Y-125652655D01*
X143311372Y-125657171D01*
X143215325Y-125686915D01*
X143131367Y-125742239D01*
X143066146Y-125818763D01*
X143024827Y-125910428D01*
X143010680Y-126009975D01*
X143010680Y-127509975D01*
X143015196Y-127566603D01*
X143044940Y-127662650D01*
X143100264Y-127746608D01*
X143176788Y-127811829D01*
X143268453Y-127853148D01*
X143368000Y-127867295D01*
X144668000Y-127867295D01*
X144724628Y-127862779D01*
X144820675Y-127833035D01*
X144904633Y-127777711D01*
X144969854Y-127701187D01*
X145011173Y-127609522D01*
X145025320Y-127509975D01*
X145025320Y-126009975D01*
X145020804Y-125953347D01*
X144991060Y-125857300D01*
X144935736Y-125773342D01*
X144859212Y-125708121D01*
X144767547Y-125666802D01*
X144668000Y-125652655D01*
X144500600Y-125652655D01*
X144500600Y-125487295D01*
X144668000Y-125487295D01*
X144724628Y-125482779D01*
X144820675Y-125453035D01*
X144904633Y-125397711D01*
X144969854Y-125321187D01*
X145011173Y-125229522D01*
X145025320Y-125129975D01*
X145025320Y-123629975D01*
X145020804Y-123573347D01*
X144991060Y-123477300D01*
X144935736Y-123393342D01*
X144859212Y-123328121D01*
X144767547Y-123286802D01*
X144668000Y-123272655D01*
X143368000Y-123272655D01*
X143311372Y-123277171D01*
X143215325Y-123306915D01*
X143131367Y-123362239D01*
X143066146Y-123438763D01*
X143024827Y-123530428D01*
X143010680Y-123629975D01*
X142231320Y-123629975D01*
X142226804Y-123573347D01*
X142197060Y-123477300D01*
X142141736Y-123393342D01*
X142065212Y-123328121D01*
X141973547Y-123286802D01*
X141874000Y-123272655D01*
X140574000Y-123272655D01*
X140517372Y-123277171D01*
X140421325Y-123306915D01*
X140337367Y-123362239D01*
X140272146Y-123438763D01*
X140230827Y-123530428D01*
X140216680Y-123629975D01*
X140216680Y-123968967D01*
X139270292Y-123022579D01*
X139285859Y-122987614D01*
X139297372Y-122936938D01*
X139340363Y-123003647D01*
X139432060Y-123098601D01*
X139540453Y-123173936D01*
X139661414Y-123226783D01*
X139790337Y-123255128D01*
X139922309Y-123257893D01*
X140052306Y-123234971D01*
X140175374Y-123187236D01*
X140286827Y-123116506D01*
X140382419Y-123025475D01*
X140458509Y-122917610D01*
X140512199Y-122797020D01*
X140516272Y-122779091D01*
X140574000Y-122787295D01*
X141874000Y-122787295D01*
X141930628Y-122782779D01*
X142026675Y-122753035D01*
X142110633Y-122697711D01*
X142175854Y-122621187D01*
X142217173Y-122529522D01*
X142231320Y-122429975D01*
X142231320Y-120929975D01*
X142226804Y-120873347D01*
X142206118Y-120806550D01*
X143035590Y-120806550D01*
X143024827Y-120830428D01*
X143010680Y-120929975D01*
X143010680Y-122429975D01*
X143015196Y-122486603D01*
X143044940Y-122582650D01*
X143100264Y-122666608D01*
X143176788Y-122731829D01*
X143268453Y-122773148D01*
X143368000Y-122787295D01*
X144668000Y-122787295D01*
X144724628Y-122782779D01*
X144820675Y-122753035D01*
X144904633Y-122697711D01*
X144969854Y-122621187D01*
X145011173Y-122529522D01*
X145025320Y-122429975D01*
X145025320Y-122162575D01*
X148862470Y-122162575D01*
X148906796Y-122158229D01*
X148951245Y-122154340D01*
X148953684Y-122153631D01*
X148956207Y-122153384D01*
X148998870Y-122140503D01*
X149041693Y-122128062D01*
X149043945Y-122126895D01*
X149046375Y-122126161D01*
X149085765Y-122105217D01*
X149125313Y-122084717D01*
X149127294Y-122083136D01*
X149129537Y-122081943D01*
X149164095Y-122053758D01*
X149198922Y-122025956D01*
X149202458Y-122022470D01*
X149202526Y-122022414D01*
X149202578Y-122022351D01*
X149203720Y-122021225D01*
X150085900Y-121139045D01*
X150114195Y-121104598D01*
X150142850Y-121070448D01*
X150144072Y-121068225D01*
X150145683Y-121066264D01*
X150166765Y-121026947D01*
X150188225Y-120987911D01*
X150188991Y-120985495D01*
X150190192Y-120983256D01*
X150203235Y-120940593D01*
X150216704Y-120898133D01*
X150216987Y-120895612D01*
X150217729Y-120893184D01*
X150222234Y-120848829D01*
X150227203Y-120804533D01*
X150227238Y-120799573D01*
X150227247Y-120799480D01*
X150227239Y-120799394D01*
X150227250Y-120797795D01*
X150227250Y-120702800D01*
X153588400Y-120702800D01*
X153588400Y-122204040D01*
X153611827Y-122321813D01*
X153657779Y-122432754D01*
X153724493Y-122532597D01*
X153809402Y-122617507D01*
X153909246Y-122684220D01*
X154020186Y-122730173D01*
X154137959Y-122753600D01*
X154889200Y-122753600D01*
X155041600Y-122601200D01*
X155041600Y-120550400D01*
X155854400Y-120550400D01*
X155854400Y-122601200D01*
X156006800Y-122753600D01*
X156758041Y-122753600D01*
X156875814Y-122730173D01*
X156986754Y-122684220D01*
X157086598Y-122617507D01*
X157171507Y-122532597D01*
X157238221Y-122432754D01*
X157284173Y-122321813D01*
X157307600Y-122204040D01*
X157307600Y-120702800D01*
X157155200Y-120550400D01*
X155854400Y-120550400D01*
X155041600Y-120550400D01*
X153740800Y-120550400D01*
X153588400Y-120702800D01*
X150227250Y-120702800D01*
X150227250Y-118158424D01*
X150809073Y-117576600D01*
X153974864Y-117576600D01*
X153909246Y-117603780D01*
X153809402Y-117670493D01*
X153724493Y-117755403D01*
X153657779Y-117855246D01*
X153611827Y-117966187D01*
X153588400Y-118083960D01*
X153588400Y-119585200D01*
X153740800Y-119737600D01*
X155041600Y-119737600D01*
X155041600Y-119717600D01*
X155854400Y-119717600D01*
X155854400Y-119737600D01*
X157155200Y-119737600D01*
X157307600Y-119585200D01*
X157307600Y-118083960D01*
X157284173Y-117966187D01*
X157238221Y-117855246D01*
X157171507Y-117755403D01*
X157086598Y-117670493D01*
X156986754Y-117603780D01*
X156921136Y-117576600D01*
X159008765Y-117576600D01*
X159053091Y-117572254D01*
X159097540Y-117568365D01*
X159099979Y-117567656D01*
X159102502Y-117567409D01*
X159145165Y-117554528D01*
X159187988Y-117542087D01*
X159190240Y-117540920D01*
X159192670Y-117540186D01*
X159232060Y-117519242D01*
X159271608Y-117498742D01*
X159273589Y-117497161D01*
X159275832Y-117495968D01*
X159310390Y-117467783D01*
X159345217Y-117439981D01*
X159348753Y-117436495D01*
X159348821Y-117436439D01*
X159348873Y-117436376D01*
X159350015Y-117435250D01*
X160483072Y-116302192D01*
X160511328Y-116267792D01*
X160540022Y-116233596D01*
X160541246Y-116231370D01*
X160542855Y-116229411D01*
X160563915Y-116190134D01*
X160585397Y-116151059D01*
X160586164Y-116148641D01*
X160587364Y-116146403D01*
X160600403Y-116103755D01*
X160613876Y-116061281D01*
X160614159Y-116058760D01*
X160614901Y-116056332D01*
X160619406Y-116011977D01*
X160624375Y-115967681D01*
X160624410Y-115962721D01*
X160624419Y-115962628D01*
X160624411Y-115962542D01*
X160624422Y-115960943D01*
X160624422Y-101035164D01*
X160620076Y-100990838D01*
X160616187Y-100946389D01*
X160615478Y-100943950D01*
X160615231Y-100941427D01*
X160602346Y-100898751D01*
X160589909Y-100855942D01*
X160588742Y-100853691D01*
X160588008Y-100851259D01*
X160567075Y-100811890D01*
X160546565Y-100772321D01*
X160544981Y-100770336D01*
X160543790Y-100768097D01*
X160515627Y-100733567D01*
X160487803Y-100698712D01*
X160484320Y-100695181D01*
X160484261Y-100695108D01*
X160484194Y-100695052D01*
X160483072Y-100693915D01*
X159267005Y-99477848D01*
X159554420Y-99132882D01*
X159824940Y-98636714D01*
X159993934Y-98097452D01*
X160054967Y-97535635D01*
X160005713Y-96972663D01*
X159848049Y-96429980D01*
X159664390Y-96075666D01*
X159664390Y-88686234D01*
X161381025Y-86969600D01*
X162002400Y-86969600D01*
X162002400Y-92303000D01*
X162002506Y-92304081D01*
X162002410Y-92304994D01*
X162010027Y-92388686D01*
X162033755Y-92469306D01*
X162072689Y-92543781D01*
X162109781Y-92589914D01*
X162102294Y-92596819D01*
X161797742Y-93015010D01*
X161580627Y-93484581D01*
X161499035Y-93790024D01*
X161595483Y-94199600D01*
X162331400Y-94199600D01*
X162331400Y-94504400D01*
X161595483Y-94504400D01*
X161499035Y-94913976D01*
X161580627Y-95219419D01*
X161797742Y-95688990D01*
X162097710Y-96100886D01*
X162077706Y-96124725D01*
X162076978Y-96126049D01*
X162076016Y-96127212D01*
X162056759Y-96162828D01*
X162037220Y-96198369D01*
X162036763Y-96199810D01*
X162036046Y-96201136D01*
X162024071Y-96239821D01*
X162011810Y-96278473D01*
X162011642Y-96279973D01*
X162011195Y-96281416D01*
X162006954Y-96321767D01*
X162002442Y-96361988D01*
X162002422Y-96364882D01*
X162002410Y-96364994D01*
X162002420Y-96365106D01*
X162002400Y-96368000D01*
X162002400Y-98526000D01*
X162006348Y-98566268D01*
X162010027Y-98606686D01*
X162010454Y-98608136D01*
X162010601Y-98609637D01*
X162022320Y-98648454D01*
X162033755Y-98687306D01*
X162034453Y-98688641D01*
X162034890Y-98690089D01*
X162053919Y-98725878D01*
X162072689Y-98761781D01*
X162073637Y-98762960D01*
X162074344Y-98764290D01*
X162099911Y-98795638D01*
X162125348Y-98827275D01*
X162126506Y-98828247D01*
X162127459Y-98829415D01*
X162158643Y-98855213D01*
X162189725Y-98881294D01*
X162191049Y-98882022D01*
X162192212Y-98882984D01*
X162227828Y-98902241D01*
X162263369Y-98921780D01*
X162264810Y-98922237D01*
X162266136Y-98922954D01*
X162304821Y-98934929D01*
X162343473Y-98947190D01*
X162344973Y-98947358D01*
X162346416Y-98947805D01*
X162386767Y-98952046D01*
X162426988Y-98956558D01*
X162429882Y-98956578D01*
X162429994Y-98956590D01*
X162430106Y-98956580D01*
X162433000Y-98956600D01*
X172505400Y-98956600D01*
X172505400Y-130595400D01*
X145143626Y-130595400D01*
X145208221Y-130498729D01*
X145254173Y-130387788D01*
X145277600Y-130270015D01*
X145277600Y-129764775D01*
X145125200Y-129612375D01*
X144170400Y-129612375D01*
X144170400Y-129632375D01*
X143865600Y-129632375D01*
X143865600Y-129612375D01*
X142910800Y-129612375D01*
X142758400Y-129764775D01*
X142758400Y-130270015D01*
X142781827Y-130387788D01*
X142827779Y-130498729D01*
X142892374Y-130595400D01*
X133366600Y-130595400D01*
X133366600Y-128417189D01*
X134793199Y-128417189D01*
X134814555Y-128536902D01*
X134945720Y-128826834D01*
X135130927Y-129085606D01*
X135363059Y-129303273D01*
X135633196Y-129471471D01*
X135930956Y-129583736D01*
X136244896Y-129635754D01*
X136499600Y-129480167D01*
X136499600Y-128168400D01*
X136804400Y-128168400D01*
X136804400Y-129480167D01*
X137059104Y-129635754D01*
X137373044Y-129583736D01*
X137670804Y-129471471D01*
X137940941Y-129303273D01*
X138173073Y-129085606D01*
X138358280Y-128826834D01*
X138489445Y-128536902D01*
X138510801Y-128417189D01*
X138401209Y-128168400D01*
X136804400Y-128168400D01*
X136499600Y-128168400D01*
X134902791Y-128168400D01*
X134793199Y-128417189D01*
X133366600Y-128417189D01*
X133366600Y-127614811D01*
X134793199Y-127614811D01*
X134902791Y-127863600D01*
X136499600Y-127863600D01*
X136499600Y-127843600D01*
X136804400Y-127843600D01*
X136804400Y-127863600D01*
X138401209Y-127863600D01*
X138510801Y-127614811D01*
X138489445Y-127495098D01*
X138358280Y-127205166D01*
X138173073Y-126946394D01*
X138037976Y-126819715D01*
X138104675Y-126799060D01*
X138188633Y-126743736D01*
X138253854Y-126667212D01*
X138295173Y-126575547D01*
X138309320Y-126476000D01*
X138309320Y-124476000D01*
X138304804Y-124419372D01*
X138275060Y-124323325D01*
X138219736Y-124239367D01*
X138143212Y-124174146D01*
X138051547Y-124132827D01*
X137952000Y-124118680D01*
X135352000Y-124118680D01*
X135295372Y-124123196D01*
X135199325Y-124152940D01*
X135115367Y-124208264D01*
X135050146Y-124284788D01*
X135008827Y-124376453D01*
X134994680Y-124476000D01*
X134994680Y-126476000D01*
X134999196Y-126532628D01*
X135028940Y-126628675D01*
X135084264Y-126712633D01*
X135160788Y-126777854D01*
X135252453Y-126819173D01*
X135264740Y-126820919D01*
X135130927Y-126946394D01*
X134945720Y-127205166D01*
X134814555Y-127495098D01*
X134793199Y-127614811D01*
X133366600Y-127614811D01*
X133366600Y-112906800D01*
X134630400Y-112906800D01*
X134630400Y-113412040D01*
X134653827Y-113529813D01*
X134699779Y-113640754D01*
X134766493Y-113740597D01*
X134851402Y-113825507D01*
X134951246Y-113892220D01*
X135062186Y-113938173D01*
X135179959Y-113961600D01*
X135585200Y-113961600D01*
X135737600Y-113809200D01*
X135737600Y-112754400D01*
X134782800Y-112754400D01*
X134630400Y-112906800D01*
X133366600Y-112906800D01*
X133366600Y-111791960D01*
X134630400Y-111791960D01*
X134630400Y-112297200D01*
X134782800Y-112449600D01*
X135737600Y-112449600D01*
X135737600Y-111394800D01*
X136042400Y-111394800D01*
X136042400Y-112449600D01*
X136062400Y-112449600D01*
X136062400Y-112754400D01*
X136042400Y-112754400D01*
X136042400Y-113809200D01*
X136194800Y-113961600D01*
X136600041Y-113961600D01*
X136717814Y-113938173D01*
X136828754Y-113892220D01*
X136928598Y-113825507D01*
X137013507Y-113740597D01*
X137080221Y-113640754D01*
X137126173Y-113529813D01*
X137149600Y-113412040D01*
X137149600Y-113203572D01*
X137189960Y-113211600D01*
X137895200Y-113211600D01*
X138047600Y-113059200D01*
X138047600Y-112354400D01*
X138027600Y-112354400D01*
X138027600Y-112049600D01*
X138047600Y-112049600D01*
X138047600Y-111344800D01*
X137895200Y-111192400D01*
X137189960Y-111192400D01*
X137072187Y-111215827D01*
X136961246Y-111261779D01*
X136861403Y-111328493D01*
X136858344Y-111331552D01*
X136828754Y-111311780D01*
X136717814Y-111265827D01*
X136600041Y-111242400D01*
X136194800Y-111242400D01*
X136042400Y-111394800D01*
X135737600Y-111394800D01*
X135585200Y-111242400D01*
X135179959Y-111242400D01*
X135062186Y-111265827D01*
X134951246Y-111311780D01*
X134851402Y-111378493D01*
X134766493Y-111463403D01*
X134699779Y-111563246D01*
X134653827Y-111674187D01*
X134630400Y-111791960D01*
X133366600Y-111791960D01*
X133366600Y-98397754D01*
X133419554Y-98375820D01*
X133519398Y-98309107D01*
X133604307Y-98224197D01*
X133671021Y-98124354D01*
X133716973Y-98013413D01*
X133740400Y-97895640D01*
X133740400Y-94640400D01*
X133588000Y-94488000D01*
X129353798Y-94488000D01*
X129364777Y-94367366D01*
X129364504Y-94328339D01*
X129364777Y-94289312D01*
X129364190Y-94283329D01*
X129353666Y-94183200D01*
X133588000Y-94183200D01*
X133740400Y-94030800D01*
X133740400Y-91083241D01*
X138628695Y-91083241D01*
X138795551Y-91346226D01*
X139169847Y-91473260D01*
X139561734Y-91524832D01*
X139956152Y-91498960D01*
X140337943Y-91396638D01*
X140459649Y-91346226D01*
X140626505Y-91083241D01*
X139627600Y-90084336D01*
X138628695Y-91083241D01*
X133740400Y-91083241D01*
X133740400Y-90775560D01*
X133716973Y-90657787D01*
X133671021Y-90546846D01*
X133604307Y-90447003D01*
X133519398Y-90362093D01*
X133419554Y-90295380D01*
X133366600Y-90273446D01*
X133366600Y-89443734D01*
X137612368Y-89443734D01*
X137638240Y-89838152D01*
X137740562Y-90219943D01*
X137790974Y-90341649D01*
X138053959Y-90508505D01*
X139052864Y-89509600D01*
X140202336Y-89509600D01*
X141201241Y-90508505D01*
X141464226Y-90341649D01*
X141591260Y-89967353D01*
X141642832Y-89575466D01*
X141616960Y-89181048D01*
X141514638Y-88799257D01*
X141464226Y-88677551D01*
X141201241Y-88510695D01*
X140202336Y-89509600D01*
X139052864Y-89509600D01*
X138053959Y-88510695D01*
X137790974Y-88677551D01*
X137663940Y-89051847D01*
X137612368Y-89443734D01*
X133366600Y-89443734D01*
X133366600Y-88451885D01*
X133367433Y-88451336D01*
X133432654Y-88374812D01*
X133473973Y-88283147D01*
X133488120Y-88183600D01*
X133488120Y-87579200D01*
X139079052Y-87579200D01*
X138917257Y-87622562D01*
X138795551Y-87672974D01*
X138628695Y-87935959D01*
X139627600Y-88934864D01*
X140626505Y-87935959D01*
X140459649Y-87672974D01*
X140183351Y-87579200D01*
X140657313Y-87579200D01*
X141732000Y-88653888D01*
X141732000Y-95180680D01*
X141626000Y-95180680D01*
X141569372Y-95185196D01*
X141473325Y-95214940D01*
X141389367Y-95270264D01*
X141324146Y-95346788D01*
X141282827Y-95438453D01*
X141268680Y-95538000D01*
X141268680Y-101938000D01*
X141273196Y-101994628D01*
X141302940Y-102090675D01*
X141358264Y-102174633D01*
X141434788Y-102239854D01*
X141526453Y-102281173D01*
X141626000Y-102295320D01*
X142644731Y-102295320D01*
X141898750Y-103041300D01*
X141870455Y-103075747D01*
X141841800Y-103109897D01*
X141840578Y-103112120D01*
X141838967Y-103114081D01*
X141817885Y-103153398D01*
X141796425Y-103192434D01*
X141795659Y-103194850D01*
X141794458Y-103197089D01*
X141781415Y-103239752D01*
X141767946Y-103282212D01*
X141767663Y-103284733D01*
X141766921Y-103287161D01*
X141762416Y-103331516D01*
X141757447Y-103375812D01*
X141757412Y-103380772D01*
X141757403Y-103380865D01*
X141757411Y-103380951D01*
X141757400Y-103382550D01*
X141757400Y-103580680D01*
X141646000Y-103580680D01*
X141589372Y-103585196D01*
X141493325Y-103614940D01*
X141409367Y-103670264D01*
X141344146Y-103746788D01*
X141302827Y-103838453D01*
X141288680Y-103938000D01*
X141288680Y-104555400D01*
X141196780Y-104555400D01*
X141013684Y-104372303D01*
X141013684Y-102431084D01*
X141009338Y-102386758D01*
X141005449Y-102342309D01*
X141004740Y-102339870D01*
X141004493Y-102337347D01*
X140991612Y-102294684D01*
X140979171Y-102251861D01*
X140978004Y-102249609D01*
X140977270Y-102247179D01*
X140956326Y-102207789D01*
X140935826Y-102168241D01*
X140934245Y-102166260D01*
X140933052Y-102164017D01*
X140904867Y-102129459D01*
X140877065Y-102094632D01*
X140873579Y-102091096D01*
X140873523Y-102091028D01*
X140873460Y-102090976D01*
X140872334Y-102089834D01*
X140295250Y-101512750D01*
X140260803Y-101484455D01*
X140226653Y-101455800D01*
X140224430Y-101454578D01*
X140222469Y-101452967D01*
X140183152Y-101431885D01*
X140144116Y-101410425D01*
X140141700Y-101409659D01*
X140139461Y-101408458D01*
X140096798Y-101395415D01*
X140054338Y-101381946D01*
X140051817Y-101381663D01*
X140049389Y-101380921D01*
X140005034Y-101376416D01*
X139960738Y-101371447D01*
X139955778Y-101371412D01*
X139955685Y-101371403D01*
X139955599Y-101371411D01*
X139954000Y-101371400D01*
X136652000Y-101371400D01*
X136607628Y-101375751D01*
X136563225Y-101379636D01*
X136560791Y-101380343D01*
X136558263Y-101380591D01*
X136515558Y-101393484D01*
X136472777Y-101405913D01*
X136470525Y-101407080D01*
X136468095Y-101407814D01*
X136428705Y-101428758D01*
X136389157Y-101449258D01*
X136387176Y-101450839D01*
X136384933Y-101452032D01*
X136350375Y-101480217D01*
X136315548Y-101508019D01*
X136312017Y-101511502D01*
X136311944Y-101511561D01*
X136311888Y-101511628D01*
X136310750Y-101512751D01*
X135676750Y-102146750D01*
X135648455Y-102181197D01*
X135619800Y-102215347D01*
X135618578Y-102217570D01*
X135616967Y-102219531D01*
X135595885Y-102258848D01*
X135574425Y-102297884D01*
X135573659Y-102300300D01*
X135572458Y-102302539D01*
X135559415Y-102345202D01*
X135545946Y-102387662D01*
X135545663Y-102390183D01*
X135544921Y-102392611D01*
X135541858Y-102422765D01*
X135511372Y-102425196D01*
X135415325Y-102454940D01*
X135331367Y-102510264D01*
X135266146Y-102586788D01*
X135224827Y-102678453D01*
X135210680Y-102778000D01*
X135210680Y-103978000D01*
X135215196Y-104034628D01*
X135244940Y-104130675D01*
X135300264Y-104214633D01*
X135376788Y-104279854D01*
X135468453Y-104321173D01*
X135536542Y-104330849D01*
X135539746Y-104363527D01*
X135543635Y-104407976D01*
X135544344Y-104410415D01*
X135544591Y-104412938D01*
X135557472Y-104455601D01*
X135569913Y-104498424D01*
X135571080Y-104500676D01*
X135571814Y-104503106D01*
X135592758Y-104542496D01*
X135613258Y-104582044D01*
X135614839Y-104584025D01*
X135616032Y-104586268D01*
X135644217Y-104620826D01*
X135672019Y-104655653D01*
X135673032Y-104656680D01*
X135568000Y-104656680D01*
X135511372Y-104661196D01*
X135415325Y-104690940D01*
X135331367Y-104746264D01*
X135266146Y-104822788D01*
X135224827Y-104914453D01*
X135210680Y-105014000D01*
X135210680Y-106314000D01*
X135215196Y-106370628D01*
X135244940Y-106466675D01*
X135300264Y-106550633D01*
X135376788Y-106615854D01*
X135468453Y-106657173D01*
X135568000Y-106671320D01*
X135835400Y-106671320D01*
X135835400Y-106688680D01*
X135568000Y-106688680D01*
X135511372Y-106693196D01*
X135415325Y-106722940D01*
X135331367Y-106778264D01*
X135266146Y-106854788D01*
X135224827Y-106946453D01*
X135210680Y-107046000D01*
X135210680Y-108346000D01*
X135215196Y-108402628D01*
X135244940Y-108498675D01*
X135300264Y-108582633D01*
X135376788Y-108647854D01*
X135468453Y-108689173D01*
X135568000Y-108703320D01*
X137068000Y-108703320D01*
X137124628Y-108698804D01*
X137220675Y-108669060D01*
X137304633Y-108613736D01*
X137369854Y-108537212D01*
X137411173Y-108445547D01*
X137425320Y-108346000D01*
X137425320Y-107046000D01*
X137420804Y-106989372D01*
X137391060Y-106893325D01*
X137335736Y-106809367D01*
X137259212Y-106744146D01*
X137167547Y-106702827D01*
X137068000Y-106688680D01*
X136800600Y-106688680D01*
X136800600Y-106671320D01*
X137068000Y-106671320D01*
X137124628Y-106666804D01*
X137220675Y-106637060D01*
X137304633Y-106581736D01*
X137369854Y-106505212D01*
X137411173Y-106413547D01*
X137425320Y-106314000D01*
X137425320Y-105014000D01*
X137420804Y-104957372D01*
X137391060Y-104861325D01*
X137335736Y-104777367D01*
X137259212Y-104712146D01*
X137167547Y-104670827D01*
X137068000Y-104656680D01*
X136800600Y-104656680D01*
X136800600Y-104619201D01*
X136796254Y-104574875D01*
X136792365Y-104530426D01*
X136791656Y-104527987D01*
X136791409Y-104525464D01*
X136778528Y-104482801D01*
X136766087Y-104439978D01*
X136764920Y-104437726D01*
X136764186Y-104435296D01*
X136743242Y-104395906D01*
X136722742Y-104356358D01*
X136721161Y-104354377D01*
X136719968Y-104352134D01*
X136691783Y-104317576D01*
X136663981Y-104282749D01*
X136660495Y-104279213D01*
X136660439Y-104279145D01*
X136660376Y-104279093D01*
X136659250Y-104277951D01*
X136657858Y-104276559D01*
X136704633Y-104245736D01*
X136769854Y-104169212D01*
X136811173Y-104077547D01*
X136825320Y-103978000D01*
X136825320Y-102778000D01*
X136820804Y-102721372D01*
X136791060Y-102625325D01*
X136735736Y-102541367D01*
X136687902Y-102500598D01*
X136851899Y-102336600D01*
X139754100Y-102336600D01*
X139849806Y-102432306D01*
X139768000Y-102420680D01*
X138868000Y-102420680D01*
X138811372Y-102425196D01*
X138715325Y-102454940D01*
X138631367Y-102510264D01*
X138566146Y-102586788D01*
X138524827Y-102678453D01*
X138510680Y-102778000D01*
X138510680Y-103978000D01*
X138515196Y-104034628D01*
X138544940Y-104130675D01*
X138600264Y-104214633D01*
X138676788Y-104279854D01*
X138711797Y-104295634D01*
X138676750Y-104330681D01*
X138648455Y-104365128D01*
X138619800Y-104399278D01*
X138618578Y-104401501D01*
X138616967Y-104403462D01*
X138595885Y-104442779D01*
X138574425Y-104481815D01*
X138573659Y-104484231D01*
X138572458Y-104486470D01*
X138559415Y-104529133D01*
X138545946Y-104571593D01*
X138545663Y-104574114D01*
X138544921Y-104576542D01*
X138540416Y-104620897D01*
X138536402Y-104656680D01*
X138268000Y-104656680D01*
X138211372Y-104661196D01*
X138115325Y-104690940D01*
X138031367Y-104746264D01*
X137966146Y-104822788D01*
X137924827Y-104914453D01*
X137910680Y-105014000D01*
X137910680Y-106314000D01*
X137915196Y-106370628D01*
X137944940Y-106466675D01*
X138000264Y-106550633D01*
X138076788Y-106615854D01*
X138168453Y-106657173D01*
X138268000Y-106671320D01*
X139768000Y-106671320D01*
X139824628Y-106666804D01*
X139920675Y-106637060D01*
X140004633Y-106581736D01*
X140069854Y-106505212D01*
X140111173Y-106413547D01*
X140117437Y-106369467D01*
X141023220Y-107275250D01*
X141057667Y-107303545D01*
X141091817Y-107332200D01*
X141094040Y-107333422D01*
X141096001Y-107335033D01*
X141135283Y-107356096D01*
X141174354Y-107377575D01*
X141176774Y-107378343D01*
X141179009Y-107379541D01*
X141221639Y-107392575D01*
X141264132Y-107406054D01*
X141266652Y-107406337D01*
X141269080Y-107407079D01*
X141313441Y-107411585D01*
X141357732Y-107416553D01*
X141362692Y-107416588D01*
X141362785Y-107416597D01*
X141362871Y-107416589D01*
X141364470Y-107416600D01*
X142900400Y-107416600D01*
X142900400Y-108237762D01*
X142926500Y-108503957D01*
X142949812Y-108770412D01*
X142954060Y-108785035D01*
X142955546Y-108800187D01*
X143032850Y-109056229D01*
X143107477Y-109313095D01*
X143114484Y-109326614D01*
X143118885Y-109341189D01*
X143244465Y-109577372D01*
X143367546Y-109814819D01*
X143377043Y-109826716D01*
X143384193Y-109840163D01*
X143553258Y-110047456D01*
X143720113Y-110256473D01*
X143741009Y-110277661D01*
X143741367Y-110278101D01*
X143741774Y-110278438D01*
X143748502Y-110285260D01*
X145734740Y-112271499D01*
X145941459Y-112441300D01*
X146146320Y-112613199D01*
X146159660Y-112620533D01*
X146171428Y-112630199D01*
X146407159Y-112756596D01*
X146641540Y-112885448D01*
X146656055Y-112890053D01*
X146669473Y-112897247D01*
X146925276Y-112975454D01*
X147180209Y-113056324D01*
X147195336Y-113058021D01*
X147209902Y-113062474D01*
X147476062Y-113089510D01*
X147741809Y-113119318D01*
X147771565Y-113119526D01*
X147772131Y-113119583D01*
X147772658Y-113119533D01*
X147782238Y-113119600D01*
X149310000Y-113119600D01*
X149872425Y-113064454D01*
X150413427Y-112901115D01*
X150912401Y-112635807D01*
X151350339Y-112278633D01*
X151710561Y-111843199D01*
X151979347Y-111346090D01*
X152146458Y-110806241D01*
X152205529Y-110244215D01*
X152154311Y-109681419D01*
X151994754Y-109139289D01*
X151732935Y-108638476D01*
X151378827Y-108198055D01*
X150945918Y-107834801D01*
X150450698Y-107562552D01*
X149912029Y-107391676D01*
X149350429Y-107328682D01*
X149310000Y-107328400D01*
X148981635Y-107328400D01*
X148691600Y-107038366D01*
X148691600Y-106611599D01*
X148760000Y-106621320D01*
X150960000Y-106621320D01*
X151016628Y-106616804D01*
X151112675Y-106587060D01*
X151196633Y-106531736D01*
X151261854Y-106455212D01*
X151303173Y-106363547D01*
X151317320Y-106264000D01*
X151317320Y-105064000D01*
X151312804Y-105007372D01*
X151283060Y-104911325D01*
X151227736Y-104827367D01*
X151151212Y-104762146D01*
X151059547Y-104720827D01*
X150960000Y-104706680D01*
X150342600Y-104706680D01*
X150342600Y-103754023D01*
X150338258Y-103709742D01*
X150334365Y-103665248D01*
X150333656Y-103662809D01*
X150333409Y-103660286D01*
X150320538Y-103617656D01*
X150308088Y-103574801D01*
X150306919Y-103572546D01*
X150306186Y-103570118D01*
X150285272Y-103530785D01*
X150264743Y-103491180D01*
X150263159Y-103489195D01*
X150261968Y-103486956D01*
X150233805Y-103452426D01*
X150205981Y-103417571D01*
X150202498Y-103414040D01*
X150202439Y-103413967D01*
X150202372Y-103413911D01*
X150201250Y-103412774D01*
X149063227Y-102274750D01*
X149028780Y-102246455D01*
X148994630Y-102217800D01*
X148992407Y-102216578D01*
X148990446Y-102214967D01*
X148951129Y-102193885D01*
X148912093Y-102172425D01*
X148909677Y-102171659D01*
X148907438Y-102170458D01*
X148864775Y-102157415D01*
X148822315Y-102143946D01*
X148819794Y-102143663D01*
X148817366Y-102142921D01*
X148773011Y-102138416D01*
X148728715Y-102133447D01*
X148723755Y-102133412D01*
X148723662Y-102133403D01*
X148723576Y-102133411D01*
X148721977Y-102133400D01*
X147724285Y-102133400D01*
X147727854Y-102129212D01*
X147769173Y-102037547D01*
X147783320Y-101938000D01*
X147783320Y-101002432D01*
X149679830Y-101002432D01*
X149749061Y-101379644D01*
X149890242Y-101736226D01*
X150097994Y-102058594D01*
X150364404Y-102334470D01*
X150679326Y-102553346D01*
X151030762Y-102706885D01*
X151405329Y-102789239D01*
X151788758Y-102797270D01*
X152166444Y-102730674D01*
X152524002Y-102591986D01*
X152847813Y-102386490D01*
X153125542Y-102122012D01*
X153346611Y-101808626D01*
X153502600Y-101458270D01*
X153587567Y-101084288D01*
X153593684Y-100646244D01*
X153519192Y-100270035D01*
X153373047Y-99915459D01*
X153160814Y-99596023D01*
X152890578Y-99323894D01*
X152572631Y-99109436D01*
X152219085Y-98960819D01*
X151843405Y-98883703D01*
X151459901Y-98881025D01*
X151083182Y-98952889D01*
X150727595Y-99096555D01*
X150406685Y-99306553D01*
X150132675Y-99574882D01*
X149916003Y-99891324D01*
X149764921Y-100243824D01*
X149685184Y-100618957D01*
X149679830Y-101002432D01*
X147783320Y-101002432D01*
X147783320Y-95538000D01*
X147778804Y-95481372D01*
X147749060Y-95385325D01*
X147693736Y-95301367D01*
X147617212Y-95236146D01*
X147525547Y-95194827D01*
X147523200Y-95194493D01*
X147523200Y-87454491D01*
X147497100Y-87188296D01*
X147473788Y-86921841D01*
X147469540Y-86907218D01*
X147468054Y-86892066D01*
X147390746Y-86636010D01*
X147316123Y-86379159D01*
X147309116Y-86365642D01*
X147304715Y-86351064D01*
X147179135Y-86114881D01*
X147056055Y-85877435D01*
X147046557Y-85865537D01*
X147039407Y-85852090D01*
X146870347Y-85644802D01*
X146703487Y-85435780D01*
X146682588Y-85414587D01*
X146682233Y-85414152D01*
X146681830Y-85413819D01*
X146675099Y-85406993D01*
X143904207Y-82636102D01*
X143697518Y-82466325D01*
X143492627Y-82294401D01*
X143479287Y-82287067D01*
X143467519Y-82277401D01*
X143231788Y-82151004D01*
X142997407Y-82022152D01*
X142982892Y-82017547D01*
X142969474Y-82010353D01*
X142713671Y-81932146D01*
X142458738Y-81851276D01*
X142443611Y-81849579D01*
X142429045Y-81845126D01*
X142162929Y-81818095D01*
X141897138Y-81788282D01*
X141867371Y-81788074D01*
X141866816Y-81788018D01*
X141866299Y-81788067D01*
X141856709Y-81788000D01*
X133488120Y-81788000D01*
X133488120Y-81456600D01*
X162002400Y-81456600D01*
X162002400Y-82448400D01*
X162002400Y-82448400D01*
G37*
X162002400Y-82448400D02*
X161335381Y-82448400D01*
X161174197Y-82314106D01*
X160678029Y-82043586D01*
X160138767Y-81874592D01*
X159576950Y-81813559D01*
X159013978Y-81862813D01*
X158471295Y-82020477D01*
X157969571Y-82280546D01*
X157527917Y-82633114D01*
X157499129Y-82661502D01*
X154721292Y-85439340D01*
X154551515Y-85646029D01*
X154379591Y-85850920D01*
X154372257Y-85864260D01*
X154362591Y-85876028D01*
X154236194Y-86111759D01*
X154107342Y-86346140D01*
X154102737Y-86360655D01*
X154095543Y-86374073D01*
X154017336Y-86629876D01*
X153936466Y-86884809D01*
X153934769Y-86899936D01*
X153930316Y-86914502D01*
X153903285Y-87180618D01*
X153873472Y-87446409D01*
X153873264Y-87476176D01*
X153873208Y-87476731D01*
X153873257Y-87477248D01*
X153873190Y-87486838D01*
X153873190Y-97114577D01*
X153899290Y-97380772D01*
X153922602Y-97647227D01*
X153926850Y-97661850D01*
X153928336Y-97677002D01*
X154005640Y-97933044D01*
X154080267Y-98189910D01*
X154087274Y-98203429D01*
X154091675Y-98218004D01*
X154217255Y-98454187D01*
X154340336Y-98691634D01*
X154349833Y-98703531D01*
X154356983Y-98716978D01*
X154526048Y-98924271D01*
X154692903Y-99133288D01*
X154713799Y-99154476D01*
X154714157Y-99154916D01*
X154714564Y-99155253D01*
X154721292Y-99162075D01*
X155112027Y-99552811D01*
X155548716Y-99911512D01*
X156046760Y-100178560D01*
X156587189Y-100343787D01*
X157149419Y-100400895D01*
X157712032Y-100347712D01*
X158253602Y-100186264D01*
X158487239Y-100063081D01*
X159659222Y-101235063D01*
X159659222Y-102060424D01*
X159637807Y-102020148D01*
X159280633Y-101582210D01*
X158845199Y-101221988D01*
X158348090Y-100953202D01*
X157808241Y-100786091D01*
X157246215Y-100727020D01*
X156683419Y-100778238D01*
X156141289Y-100937795D01*
X155640476Y-101199614D01*
X155200055Y-101553722D01*
X154836801Y-101986631D01*
X154564552Y-102481851D01*
X154393676Y-103020520D01*
X154330682Y-103582120D01*
X154330400Y-103622549D01*
X154330400Y-104686680D01*
X152960000Y-104686680D01*
X152903372Y-104691196D01*
X152807325Y-104720940D01*
X152723367Y-104776264D01*
X152658146Y-104852788D01*
X152616827Y-104944453D01*
X152602680Y-105044000D01*
X152602680Y-108151063D01*
X152582495Y-108349780D01*
X152552682Y-108615571D01*
X152552474Y-108645338D01*
X152552418Y-108645893D01*
X152552467Y-108646410D01*
X152552400Y-108656000D01*
X152552400Y-114044000D01*
X152607546Y-114606425D01*
X152770885Y-115147427D01*
X153036193Y-115646401D01*
X153393367Y-116084339D01*
X153828801Y-116444561D01*
X154137363Y-116611400D01*
X150609174Y-116611400D01*
X150564893Y-116615742D01*
X150520399Y-116619635D01*
X150517960Y-116620344D01*
X150515437Y-116620591D01*
X150472807Y-116633462D01*
X150429952Y-116645912D01*
X150427697Y-116647081D01*
X150425269Y-116647814D01*
X150385936Y-116668728D01*
X150346331Y-116689257D01*
X150344346Y-116690841D01*
X150342107Y-116692032D01*
X150307577Y-116720195D01*
X150272722Y-116748019D01*
X150269191Y-116751502D01*
X150269118Y-116751561D01*
X150269062Y-116751628D01*
X150267925Y-116752750D01*
X149535320Y-117485354D01*
X149535320Y-116168000D01*
X149530804Y-116111372D01*
X149501060Y-116015325D01*
X149500591Y-116014613D01*
X149519249Y-115995954D01*
X149547498Y-115961563D01*
X149576200Y-115927357D01*
X149577424Y-115925131D01*
X149579032Y-115923173D01*
X149600074Y-115883930D01*
X149621575Y-115844820D01*
X149622343Y-115842400D01*
X149623541Y-115840165D01*
X149631137Y-115815320D01*
X149928000Y-115815320D01*
X149984628Y-115810804D01*
X150080675Y-115781060D01*
X150164633Y-115725736D01*
X150229854Y-115649212D01*
X150271173Y-115557547D01*
X150285320Y-115458000D01*
X150285320Y-114158000D01*
X150280804Y-114101372D01*
X150251060Y-114005325D01*
X150195736Y-113921367D01*
X150119212Y-113856146D01*
X150027547Y-113814827D01*
X149928000Y-113800680D01*
X148428000Y-113800680D01*
X148371372Y-113805196D01*
X148275325Y-113834940D01*
X148191367Y-113890264D01*
X148126146Y-113966788D01*
X148084827Y-114058453D01*
X148070680Y-114158000D01*
X148070680Y-115458000D01*
X148075196Y-115514628D01*
X148104940Y-115610675D01*
X148160264Y-115694633D01*
X148236788Y-115759854D01*
X148328453Y-115801173D01*
X148366089Y-115806522D01*
X148363228Y-115811858D01*
X148321372Y-115815196D01*
X148225325Y-115844940D01*
X148141367Y-115900264D01*
X148076146Y-115976788D01*
X148034827Y-116068453D01*
X148020680Y-116168000D01*
X148020680Y-118068000D01*
X148025196Y-118124628D01*
X148036553Y-118161302D01*
X147880984Y-118161302D01*
X147887600Y-118128040D01*
X147887600Y-117422800D01*
X147735200Y-117270400D01*
X147030400Y-117270400D01*
X147030400Y-117290400D01*
X146725600Y-117290400D01*
X146725600Y-117270400D01*
X146020800Y-117270400D01*
X145868400Y-117422800D01*
X145868400Y-118128040D01*
X145891827Y-118245813D01*
X145937779Y-118356754D01*
X146004493Y-118456597D01*
X146089402Y-118541507D01*
X146189246Y-118608220D01*
X146248943Y-118632947D01*
X145075194Y-119806695D01*
X145083680Y-119764033D01*
X145083680Y-119358792D01*
X144931280Y-119206392D01*
X143876480Y-119206392D01*
X143876480Y-119226392D01*
X143571680Y-119226392D01*
X143571680Y-119206392D01*
X142516880Y-119206392D01*
X142364480Y-119358792D01*
X142364480Y-119764033D01*
X142379860Y-119841350D01*
X142100209Y-119841350D01*
X142117253Y-119803539D01*
X142131400Y-119703992D01*
X142131400Y-118403992D01*
X142126884Y-118347364D01*
X142097140Y-118251317D01*
X142041816Y-118167359D01*
X141965292Y-118102138D01*
X141873627Y-118060819D01*
X141774080Y-118046672D01*
X140274080Y-118046672D01*
X140217452Y-118051188D01*
X140121405Y-118080932D01*
X140037447Y-118136256D01*
X139972226Y-118212780D01*
X139930907Y-118304445D01*
X139916760Y-118403992D01*
X139916760Y-118571392D01*
X139751400Y-118571392D01*
X139751400Y-118403992D01*
X139746884Y-118347364D01*
X139717140Y-118251317D01*
X139661816Y-118167359D01*
X139585292Y-118102138D01*
X139493627Y-118060819D01*
X139394080Y-118046672D01*
X139126680Y-118046672D01*
X139126680Y-117638312D01*
X139424080Y-117638312D01*
X139480708Y-117633796D01*
X139576755Y-117604052D01*
X139660713Y-117548728D01*
X139725934Y-117472204D01*
X139767253Y-117380539D01*
X139781400Y-117280992D01*
X139781400Y-117251242D01*
X139813255Y-117277408D01*
X139847427Y-117306081D01*
X139849653Y-117307304D01*
X139851612Y-117308914D01*
X139890889Y-117329974D01*
X139929964Y-117351456D01*
X139932382Y-117352223D01*
X139934620Y-117353423D01*
X139977268Y-117366462D01*
X140016760Y-117378989D01*
X140016760Y-117532881D01*
X140021276Y-117589509D01*
X140051020Y-117685556D01*
X140106344Y-117769514D01*
X140182868Y-117834735D01*
X140274533Y-117876054D01*
X140374080Y-117890201D01*
X141874080Y-117890201D01*
X141930708Y-117885685D01*
X142026755Y-117855941D01*
X142110713Y-117800617D01*
X142175934Y-117724093D01*
X142217253Y-117632428D01*
X142231400Y-117532881D01*
X142231400Y-117212681D01*
X142264480Y-117212681D01*
X142264480Y-117592922D01*
X142287907Y-117710695D01*
X142333860Y-117821635D01*
X142400573Y-117921479D01*
X142485483Y-118006388D01*
X142500076Y-118016139D01*
X142433860Y-118115238D01*
X142387907Y-118226178D01*
X142364480Y-118343951D01*
X142364480Y-118749192D01*
X142516880Y-118901592D01*
X143571680Y-118901592D01*
X143571680Y-117946792D01*
X143471680Y-117846792D01*
X143471680Y-117060281D01*
X143776480Y-117060281D01*
X143776480Y-117990081D01*
X143876480Y-118090081D01*
X143876480Y-118901592D01*
X144931280Y-118901592D01*
X145083680Y-118749192D01*
X145083680Y-118343951D01*
X145060253Y-118226178D01*
X145014300Y-118115238D01*
X144947587Y-118015394D01*
X144862677Y-117930485D01*
X144848084Y-117920734D01*
X144914300Y-117821635D01*
X144960253Y-117710695D01*
X144983680Y-117592922D01*
X144983680Y-117212681D01*
X144831280Y-117060281D01*
X143776480Y-117060281D01*
X143471680Y-117060281D01*
X142416880Y-117060281D01*
X142264480Y-117212681D01*
X142231400Y-117212681D01*
X142231400Y-116790611D01*
X142341705Y-116680306D01*
X142416880Y-116755481D01*
X143471680Y-116755481D01*
X143471680Y-116735481D01*
X143776480Y-116735481D01*
X143776480Y-116755481D01*
X144831280Y-116755481D01*
X144983680Y-116603081D01*
X144983680Y-116222840D01*
X144960253Y-116105067D01*
X144914300Y-115994127D01*
X144847587Y-115894283D01*
X144762677Y-115809374D01*
X144721012Y-115781534D01*
X144775934Y-115717093D01*
X144817253Y-115625428D01*
X144831400Y-115525881D01*
X144831400Y-115112800D01*
X145118400Y-115112800D01*
X145118400Y-115518041D01*
X145141827Y-115635814D01*
X145187780Y-115746754D01*
X145254493Y-115846598D01*
X145339403Y-115931507D01*
X145439246Y-115998221D01*
X145550187Y-116044173D01*
X145667960Y-116067600D01*
X145876428Y-116067600D01*
X145868400Y-116107960D01*
X145868400Y-116813200D01*
X146020800Y-116965600D01*
X146725600Y-116965600D01*
X146725600Y-116945600D01*
X147030400Y-116945600D01*
X147030400Y-116965600D01*
X147735200Y-116965600D01*
X147887600Y-116813200D01*
X147887600Y-116107960D01*
X147864173Y-115990187D01*
X147818221Y-115879246D01*
X147751507Y-115779403D01*
X147748448Y-115776344D01*
X147768220Y-115746754D01*
X147814173Y-115635814D01*
X147837600Y-115518041D01*
X147837600Y-115112800D01*
X147685200Y-114960400D01*
X146630400Y-114960400D01*
X146630400Y-114980400D01*
X146325600Y-114980400D01*
X146325600Y-114960400D01*
X145270800Y-114960400D01*
X145118400Y-115112800D01*
X144831400Y-115112800D01*
X144831400Y-114225881D01*
X144826884Y-114169253D01*
X144804806Y-114097959D01*
X145118400Y-114097959D01*
X145118400Y-114503200D01*
X145270800Y-114655600D01*
X146325600Y-114655600D01*
X146325600Y-113700800D01*
X146630400Y-113700800D01*
X146630400Y-114655600D01*
X147685200Y-114655600D01*
X147837600Y-114503200D01*
X147837600Y-114097959D01*
X147814173Y-113980186D01*
X147768220Y-113869246D01*
X147701507Y-113769402D01*
X147616597Y-113684493D01*
X147516754Y-113617779D01*
X147405813Y-113571827D01*
X147288040Y-113548400D01*
X146782800Y-113548400D01*
X146630400Y-113700800D01*
X146325600Y-113700800D01*
X146173200Y-113548400D01*
X145667960Y-113548400D01*
X145550187Y-113571827D01*
X145439246Y-113617779D01*
X145339403Y-113684493D01*
X145254493Y-113769402D01*
X145187780Y-113869246D01*
X145141827Y-113980186D01*
X145118400Y-114097959D01*
X144804806Y-114097959D01*
X144797140Y-114073206D01*
X144741816Y-113989248D01*
X144665292Y-113924027D01*
X144573627Y-113882708D01*
X144474080Y-113868561D01*
X142974080Y-113868561D01*
X142917452Y-113873077D01*
X142821405Y-113902821D01*
X142737447Y-113958145D01*
X142672226Y-114034669D01*
X142630907Y-114126334D01*
X142616760Y-114225881D01*
X142616760Y-115040251D01*
X142131400Y-115525611D01*
X142131400Y-114225881D01*
X142126884Y-114169253D01*
X142097140Y-114073206D01*
X142041816Y-113989248D01*
X141965292Y-113924027D01*
X141873627Y-113882708D01*
X141774080Y-113868561D01*
X141494596Y-113868561D01*
X141484604Y-113835468D01*
X141472167Y-113792659D01*
X141471000Y-113790408D01*
X141470266Y-113787976D01*
X141449312Y-113748568D01*
X141428822Y-113709038D01*
X141427241Y-113707057D01*
X141426048Y-113704814D01*
X141397863Y-113670256D01*
X141370061Y-113635429D01*
X141366575Y-113631893D01*
X141366519Y-113631825D01*
X141366456Y-113631773D01*
X141365330Y-113630631D01*
X141107683Y-113372984D01*
X141073236Y-113344689D01*
X141039086Y-113316034D01*
X141036863Y-113314812D01*
X141034902Y-113313201D01*
X140995585Y-113292119D01*
X140956549Y-113270659D01*
X140954133Y-113269893D01*
X140951894Y-113268692D01*
X140909231Y-113255649D01*
X140866771Y-113242180D01*
X140864250Y-113241897D01*
X140861822Y-113241155D01*
X140817467Y-113236650D01*
X140773171Y-113231681D01*
X140768211Y-113231646D01*
X140768118Y-113231637D01*
X140768032Y-113231645D01*
X140766433Y-113231634D01*
X140153999Y-113231634D01*
X140158581Y-113216647D01*
X140172054Y-113174173D01*
X140172337Y-113171652D01*
X140173079Y-113169224D01*
X140177584Y-113124869D01*
X140182553Y-113080573D01*
X140182588Y-113075613D01*
X140182597Y-113075520D01*
X140182589Y-113075434D01*
X140182600Y-113073835D01*
X140182600Y-111999742D01*
X140250000Y-112009320D01*
X142150000Y-112009320D01*
X142206628Y-112004804D01*
X142302675Y-111975060D01*
X142386633Y-111919736D01*
X142451854Y-111843212D01*
X142493173Y-111751547D01*
X142507320Y-111652000D01*
X142507320Y-110852000D01*
X142502804Y-110795372D01*
X142473060Y-110699325D01*
X142417736Y-110615367D01*
X142341212Y-110550146D01*
X142249547Y-110508827D01*
X142150000Y-110494680D01*
X141682600Y-110494680D01*
X141682600Y-108434000D01*
X141678254Y-108389674D01*
X141674365Y-108345225D01*
X141673656Y-108342786D01*
X141673409Y-108340263D01*
X141660524Y-108297587D01*
X141648087Y-108254778D01*
X141646920Y-108252527D01*
X141646186Y-108250095D01*
X141625253Y-108210726D01*
X141604743Y-108171157D01*
X141603159Y-108169172D01*
X141601968Y-108166933D01*
X141573805Y-108132403D01*
X141545981Y-108097548D01*
X141542498Y-108094017D01*
X141542439Y-108093944D01*
X141542372Y-108093888D01*
X141541250Y-108092751D01*
X140803250Y-107354750D01*
X140768803Y-107326455D01*
X140734653Y-107297800D01*
X140732430Y-107296578D01*
X140730469Y-107294967D01*
X140691152Y-107273885D01*
X140652116Y-107252425D01*
X140649700Y-107251659D01*
X140647461Y-107250458D01*
X140604798Y-107237415D01*
X140562338Y-107223946D01*
X140559817Y-107223663D01*
X140557389Y-107222921D01*
X140513034Y-107218416D01*
X140468738Y-107213447D01*
X140463778Y-107213412D01*
X140463685Y-107213403D01*
X140463599Y-107213411D01*
X140462000Y-107213400D01*
X140125320Y-107213400D01*
X140125320Y-107046000D01*
X140120804Y-106989372D01*
X140091060Y-106893325D01*
X140035736Y-106809367D01*
X139959212Y-106744146D01*
X139867547Y-106702827D01*
X139768000Y-106688680D01*
X138268000Y-106688680D01*
X138211372Y-106693196D01*
X138115325Y-106722940D01*
X138031367Y-106778264D01*
X137966146Y-106854788D01*
X137924827Y-106946453D01*
X137910680Y-107046000D01*
X137910680Y-108346000D01*
X137915196Y-108402628D01*
X137944940Y-108498675D01*
X138000264Y-108582633D01*
X138076788Y-108647854D01*
X138168453Y-108689173D01*
X138268000Y-108703320D01*
X139768000Y-108703320D01*
X139824628Y-108698804D01*
X139920675Y-108669060D01*
X140004633Y-108613736D01*
X140069854Y-108537212D01*
X140111173Y-108445547D01*
X140125320Y-108346000D01*
X140125320Y-108178600D01*
X140262100Y-108178600D01*
X140717400Y-108633899D01*
X140717400Y-110494680D01*
X140250000Y-110494680D01*
X140193372Y-110499196D01*
X140097325Y-110528940D01*
X140013367Y-110584264D01*
X139948146Y-110660788D01*
X139906827Y-110752453D01*
X139903856Y-110773356D01*
X139507320Y-110376820D01*
X139507320Y-109902000D01*
X139502804Y-109845372D01*
X139473060Y-109749325D01*
X139417736Y-109665367D01*
X139341212Y-109600146D01*
X139249547Y-109558827D01*
X139150000Y-109544680D01*
X137250000Y-109544680D01*
X137193372Y-109549196D01*
X137097325Y-109578940D01*
X137070998Y-109596288D01*
X137035381Y-109560671D01*
X137000934Y-109532376D01*
X136966784Y-109503721D01*
X136964561Y-109502499D01*
X136962600Y-109500888D01*
X136923283Y-109479806D01*
X136897320Y-109465533D01*
X136897320Y-109152000D01*
X136892804Y-109095372D01*
X136863060Y-108999325D01*
X136807736Y-108915367D01*
X136731212Y-108850146D01*
X136639547Y-108808827D01*
X136540000Y-108794680D01*
X135240000Y-108794680D01*
X135183372Y-108799196D01*
X135087325Y-108828940D01*
X135003367Y-108884264D01*
X134938146Y-108960788D01*
X134896827Y-109052453D01*
X134882680Y-109152000D01*
X134882680Y-110652000D01*
X134887196Y-110708628D01*
X134916940Y-110804675D01*
X134972264Y-110888633D01*
X135048788Y-110953854D01*
X135140453Y-110995173D01*
X135240000Y-111009320D01*
X136540000Y-111009320D01*
X136596628Y-111004804D01*
X136692675Y-110975060D01*
X136776633Y-110919736D01*
X136841854Y-110843212D01*
X136883173Y-110751547D01*
X136885476Y-110735340D01*
X136895791Y-110741010D01*
X136897196Y-110758628D01*
X136926940Y-110854675D01*
X136982264Y-110938633D01*
X137058788Y-111003854D01*
X137150453Y-111045173D01*
X137250000Y-111059320D01*
X138824820Y-111059320D01*
X138957900Y-111192400D01*
X138504800Y-111192400D01*
X138352400Y-111344800D01*
X138352400Y-112049600D01*
X138372400Y-112049600D01*
X138372400Y-112354400D01*
X138352400Y-112354400D01*
X138352400Y-113059200D01*
X138504800Y-113211600D01*
X139034891Y-113211600D01*
X139031319Y-113243440D01*
X138994516Y-113279480D01*
X138919940Y-113388397D01*
X138867939Y-113509724D01*
X138840494Y-113638841D01*
X138838651Y-113770830D01*
X138862480Y-113900663D01*
X138911073Y-114023395D01*
X138982579Y-114134352D01*
X139074276Y-114229306D01*
X139182669Y-114304641D01*
X139303630Y-114357488D01*
X139377241Y-114373672D01*
X137864080Y-114373672D01*
X137807452Y-114378188D01*
X137711405Y-114407932D01*
X137627447Y-114463256D01*
X137562226Y-114539780D01*
X137547075Y-114573392D01*
X137043895Y-114573392D01*
X136991816Y-114494359D01*
X136915292Y-114429138D01*
X136823627Y-114387819D01*
X136724080Y-114373672D01*
X135164080Y-114373672D01*
X135107452Y-114378188D01*
X135011405Y-114407932D01*
X134927447Y-114463256D01*
X134862226Y-114539780D01*
X134820907Y-114631445D01*
X134806760Y-114730992D01*
X134806760Y-115186586D01*
X134775483Y-115207485D01*
X134690573Y-115292394D01*
X134623860Y-115392238D01*
X134577907Y-115503178D01*
X134554480Y-115620951D01*
X134554480Y-115701192D01*
X134706880Y-115853592D01*
X135791680Y-115853592D01*
X135791680Y-115833592D01*
X136096480Y-115833592D01*
X136096480Y-115853592D01*
X136116480Y-115853592D01*
X136116480Y-116158392D01*
X136096480Y-116158392D01*
X136096480Y-116178392D01*
X135791680Y-116178392D01*
X135791680Y-116158392D01*
X134706880Y-116158392D01*
X134554480Y-116310792D01*
X134554480Y-116391033D01*
X134577907Y-116508806D01*
X134623860Y-116619746D01*
X134690573Y-116719590D01*
X134775483Y-116804499D01*
X134806760Y-116825398D01*
X134806760Y-117280992D01*
X134811276Y-117337620D01*
X134841020Y-117433667D01*
X134896344Y-117517625D01*
X134972868Y-117582846D01*
X135064533Y-117624165D01*
X135164080Y-117638312D01*
X135461480Y-117638312D01*
X135461480Y-118046672D01*
X135194080Y-118046672D01*
X135137452Y-118051188D01*
X135041405Y-118080932D01*
X134957447Y-118136256D01*
X134892226Y-118212780D01*
X134850907Y-118304445D01*
X134836760Y-118403992D01*
X134836760Y-119703992D01*
X134841276Y-119760620D01*
X134871020Y-119856667D01*
X134926344Y-119940625D01*
X135002868Y-120005846D01*
X135094533Y-120047165D01*
X135194080Y-120061312D01*
X135461480Y-120061312D01*
X135461480Y-120150680D01*
X135194080Y-120150680D01*
X135137452Y-120155196D01*
X135041405Y-120184940D01*
X134957447Y-120240264D01*
X134892226Y-120316788D01*
X134850907Y-120408453D01*
X134836760Y-120508000D01*
X134836760Y-121808000D01*
X134841276Y-121864628D01*
X134871020Y-121960675D01*
X134926344Y-122044633D01*
X135002868Y-122109854D01*
X135094533Y-122151173D01*
X135194080Y-122165320D01*
X136694080Y-122165320D01*
X136750708Y-122160804D01*
X136846755Y-122131060D01*
X136930713Y-122075736D01*
X136995934Y-121999212D01*
X137037253Y-121907547D01*
X137051400Y-121808000D01*
X137051400Y-121251820D01*
X137298830Y-121499249D01*
X137333221Y-121527498D01*
X137367427Y-121556200D01*
X137369653Y-121557424D01*
X137371611Y-121559032D01*
X137410854Y-121580074D01*
X137449964Y-121601575D01*
X137452384Y-121602343D01*
X137454619Y-121603541D01*
X137497249Y-121616575D01*
X137536760Y-121629108D01*
X137536760Y-121808000D01*
X137541276Y-121864628D01*
X137571020Y-121960675D01*
X137626344Y-122044633D01*
X137702868Y-122109854D01*
X137794533Y-122151173D01*
X137894080Y-122165320D01*
X138161480Y-122165320D01*
X138161480Y-122304585D01*
X138125960Y-122339369D01*
X138051384Y-122448286D01*
X137999383Y-122569613D01*
X137971938Y-122698730D01*
X137970095Y-122830719D01*
X137993924Y-122960552D01*
X138042517Y-123083284D01*
X138114023Y-123194241D01*
X138205720Y-123289195D01*
X138215591Y-123296056D01*
X138218838Y-123302162D01*
X138239338Y-123341710D01*
X138240919Y-123343691D01*
X138242112Y-123345934D01*
X138270297Y-123380492D01*
X138298099Y-123415319D01*
X138301585Y-123418855D01*
X138301641Y-123418923D01*
X138301704Y-123418975D01*
X138302830Y-123420117D01*
X139457253Y-124574540D01*
X139457253Y-129040135D01*
X139461599Y-129084461D01*
X139465488Y-129128910D01*
X139466197Y-129131349D01*
X139466444Y-129133872D01*
X139479325Y-129176535D01*
X139491766Y-129219358D01*
X139492933Y-129221610D01*
X139493667Y-129224040D01*
X139514611Y-129263430D01*
X139535111Y-129302978D01*
X139536692Y-129304959D01*
X139537885Y-129307202D01*
X139566070Y-129341760D01*
X139593872Y-129376587D01*
X139597358Y-129380123D01*
X139597414Y-129380191D01*
X139597477Y-129380243D01*
X139598603Y-129381385D01*
X140018443Y-129801224D01*
X140052834Y-129829473D01*
X140087040Y-129858175D01*
X140089266Y-129859399D01*
X140091224Y-129861007D01*
X140130467Y-129882049D01*
X140169577Y-129903550D01*
X140171997Y-129904318D01*
X140174232Y-129905516D01*
X140216680Y-129918494D01*
X140216680Y-130209975D01*
X140221196Y-130266603D01*
X140250940Y-130362650D01*
X140306264Y-130446608D01*
X140382788Y-130511829D01*
X140474453Y-130553148D01*
X140574000Y-130567295D01*
X141874000Y-130567295D01*
X141930628Y-130562779D01*
X142026675Y-130533035D01*
X142110633Y-130477711D01*
X142175854Y-130401187D01*
X142217173Y-130309522D01*
X142231320Y-130209975D01*
X142231320Y-128709975D01*
X142226804Y-128653347D01*
X142225748Y-128649935D01*
X142758400Y-128649935D01*
X142758400Y-129155175D01*
X142910800Y-129307575D01*
X143865600Y-129307575D01*
X143865600Y-128252775D01*
X144170400Y-128252775D01*
X144170400Y-129307575D01*
X145125200Y-129307575D01*
X145277600Y-129155175D01*
X145277600Y-128649935D01*
X145254173Y-128532162D01*
X145208221Y-128421221D01*
X145141507Y-128321378D01*
X145056598Y-128236468D01*
X144956754Y-128169755D01*
X144845814Y-128123802D01*
X144728041Y-128100375D01*
X144322800Y-128100375D01*
X144170400Y-128252775D01*
X143865600Y-128252775D01*
X143713200Y-128100375D01*
X143307959Y-128100375D01*
X143190186Y-128123802D01*
X143079246Y-128169755D01*
X142979402Y-128236468D01*
X142894493Y-128321378D01*
X142827779Y-128421221D01*
X142781827Y-128532162D01*
X142758400Y-128649935D01*
X142225748Y-128649935D01*
X142197060Y-128557300D01*
X142141736Y-128473342D01*
X142065212Y-128408121D01*
X141973547Y-128366802D01*
X141874000Y-128352655D01*
X140574000Y-128352655D01*
X140517372Y-128357171D01*
X140422453Y-128386566D01*
X140422453Y-127829708D01*
X140474453Y-127853148D01*
X140574000Y-127867295D01*
X141874000Y-127867295D01*
X141930628Y-127862779D01*
X142026675Y-127833035D01*
X142110633Y-127777711D01*
X142175854Y-127701187D01*
X142217173Y-127609522D01*
X142231320Y-127509975D01*
X142231320Y-126009975D01*
X142226804Y-125953347D01*
X142197060Y-125857300D01*
X142141736Y-125773342D01*
X142065212Y-125708121D01*
X141973547Y-125666802D01*
X141874000Y-125652655D01*
X141706600Y-125652655D01*
X141706600Y-125487295D01*
X141874000Y-125487295D01*
X141930628Y-125482779D01*
X142026675Y-125453035D01*
X142110633Y-125397711D01*
X142175854Y-125321187D01*
X142217173Y-125229522D01*
X142231320Y-125129975D01*
X142231320Y-123629975D01*
X143010680Y-123629975D01*
X143010680Y-125129975D01*
X143015196Y-125186603D01*
X143044940Y-125282650D01*
X143100264Y-125366608D01*
X143176788Y-125431829D01*
X143268453Y-125473148D01*
X143368000Y-125487295D01*
X143535400Y-125487295D01*
X143535400Y-125652655D01*
X143368000Y-125652655D01*
X143311372Y-125657171D01*
X143215325Y-125686915D01*
X143131367Y-125742239D01*
X143066146Y-125818763D01*
X143024827Y-125910428D01*
X143010680Y-126009975D01*
X143010680Y-127509975D01*
X143015196Y-127566603D01*
X143044940Y-127662650D01*
X143100264Y-127746608D01*
X143176788Y-127811829D01*
X143268453Y-127853148D01*
X143368000Y-127867295D01*
X144668000Y-127867295D01*
X144724628Y-127862779D01*
X144820675Y-127833035D01*
X144904633Y-127777711D01*
X144969854Y-127701187D01*
X145011173Y-127609522D01*
X145025320Y-127509975D01*
X145025320Y-126009975D01*
X145020804Y-125953347D01*
X144991060Y-125857300D01*
X144935736Y-125773342D01*
X144859212Y-125708121D01*
X144767547Y-125666802D01*
X144668000Y-125652655D01*
X144500600Y-125652655D01*
X144500600Y-125487295D01*
X144668000Y-125487295D01*
X144724628Y-125482779D01*
X144820675Y-125453035D01*
X144904633Y-125397711D01*
X144969854Y-125321187D01*
X145011173Y-125229522D01*
X145025320Y-125129975D01*
X145025320Y-123629975D01*
X145020804Y-123573347D01*
X144991060Y-123477300D01*
X144935736Y-123393342D01*
X144859212Y-123328121D01*
X144767547Y-123286802D01*
X144668000Y-123272655D01*
X143368000Y-123272655D01*
X143311372Y-123277171D01*
X143215325Y-123306915D01*
X143131367Y-123362239D01*
X143066146Y-123438763D01*
X143024827Y-123530428D01*
X143010680Y-123629975D01*
X142231320Y-123629975D01*
X142226804Y-123573347D01*
X142197060Y-123477300D01*
X142141736Y-123393342D01*
X142065212Y-123328121D01*
X141973547Y-123286802D01*
X141874000Y-123272655D01*
X140574000Y-123272655D01*
X140517372Y-123277171D01*
X140421325Y-123306915D01*
X140337367Y-123362239D01*
X140272146Y-123438763D01*
X140230827Y-123530428D01*
X140216680Y-123629975D01*
X140216680Y-123968967D01*
X139270292Y-123022579D01*
X139285859Y-122987614D01*
X139297372Y-122936938D01*
X139340363Y-123003647D01*
X139432060Y-123098601D01*
X139540453Y-123173936D01*
X139661414Y-123226783D01*
X139790337Y-123255128D01*
X139922309Y-123257893D01*
X140052306Y-123234971D01*
X140175374Y-123187236D01*
X140286827Y-123116506D01*
X140382419Y-123025475D01*
X140458509Y-122917610D01*
X140512199Y-122797020D01*
X140516272Y-122779091D01*
X140574000Y-122787295D01*
X141874000Y-122787295D01*
X141930628Y-122782779D01*
X142026675Y-122753035D01*
X142110633Y-122697711D01*
X142175854Y-122621187D01*
X142217173Y-122529522D01*
X142231320Y-122429975D01*
X142231320Y-120929975D01*
X142226804Y-120873347D01*
X142206118Y-120806550D01*
X143035590Y-120806550D01*
X143024827Y-120830428D01*
X143010680Y-120929975D01*
X143010680Y-122429975D01*
X143015196Y-122486603D01*
X143044940Y-122582650D01*
X143100264Y-122666608D01*
X143176788Y-122731829D01*
X143268453Y-122773148D01*
X143368000Y-122787295D01*
X144668000Y-122787295D01*
X144724628Y-122782779D01*
X144820675Y-122753035D01*
X144904633Y-122697711D01*
X144969854Y-122621187D01*
X145011173Y-122529522D01*
X145025320Y-122429975D01*
X145025320Y-122162575D01*
X148862470Y-122162575D01*
X148906796Y-122158229D01*
X148951245Y-122154340D01*
X148953684Y-122153631D01*
X148956207Y-122153384D01*
X148998870Y-122140503D01*
X149041693Y-122128062D01*
X149043945Y-122126895D01*
X149046375Y-122126161D01*
X149085765Y-122105217D01*
X149125313Y-122084717D01*
X149127294Y-122083136D01*
X149129537Y-122081943D01*
X149164095Y-122053758D01*
X149198922Y-122025956D01*
X149202458Y-122022470D01*
X149202526Y-122022414D01*
X149202578Y-122022351D01*
X149203720Y-122021225D01*
X150085900Y-121139045D01*
X150114195Y-121104598D01*
X150142850Y-121070448D01*
X150144072Y-121068225D01*
X150145683Y-121066264D01*
X150166765Y-121026947D01*
X150188225Y-120987911D01*
X150188991Y-120985495D01*
X150190192Y-120983256D01*
X150203235Y-120940593D01*
X150216704Y-120898133D01*
X150216987Y-120895612D01*
X150217729Y-120893184D01*
X150222234Y-120848829D01*
X150227203Y-120804533D01*
X150227238Y-120799573D01*
X150227247Y-120799480D01*
X150227239Y-120799394D01*
X150227250Y-120797795D01*
X150227250Y-120702800D01*
X153588400Y-120702800D01*
X153588400Y-122204040D01*
X153611827Y-122321813D01*
X153657779Y-122432754D01*
X153724493Y-122532597D01*
X153809402Y-122617507D01*
X153909246Y-122684220D01*
X154020186Y-122730173D01*
X154137959Y-122753600D01*
X154889200Y-122753600D01*
X155041600Y-122601200D01*
X155041600Y-120550400D01*
X155854400Y-120550400D01*
X155854400Y-122601200D01*
X156006800Y-122753600D01*
X156758041Y-122753600D01*
X156875814Y-122730173D01*
X156986754Y-122684220D01*
X157086598Y-122617507D01*
X157171507Y-122532597D01*
X157238221Y-122432754D01*
X157284173Y-122321813D01*
X157307600Y-122204040D01*
X157307600Y-120702800D01*
X157155200Y-120550400D01*
X155854400Y-120550400D01*
X155041600Y-120550400D01*
X153740800Y-120550400D01*
X153588400Y-120702800D01*
X150227250Y-120702800D01*
X150227250Y-118158424D01*
X150809073Y-117576600D01*
X153974864Y-117576600D01*
X153909246Y-117603780D01*
X153809402Y-117670493D01*
X153724493Y-117755403D01*
X153657779Y-117855246D01*
X153611827Y-117966187D01*
X153588400Y-118083960D01*
X153588400Y-119585200D01*
X153740800Y-119737600D01*
X155041600Y-119737600D01*
X155041600Y-119717600D01*
X155854400Y-119717600D01*
X155854400Y-119737600D01*
X157155200Y-119737600D01*
X157307600Y-119585200D01*
X157307600Y-118083960D01*
X157284173Y-117966187D01*
X157238221Y-117855246D01*
X157171507Y-117755403D01*
X157086598Y-117670493D01*
X156986754Y-117603780D01*
X156921136Y-117576600D01*
X159008765Y-117576600D01*
X159053091Y-117572254D01*
X159097540Y-117568365D01*
X159099979Y-117567656D01*
X159102502Y-117567409D01*
X159145165Y-117554528D01*
X159187988Y-117542087D01*
X159190240Y-117540920D01*
X159192670Y-117540186D01*
X159232060Y-117519242D01*
X159271608Y-117498742D01*
X159273589Y-117497161D01*
X159275832Y-117495968D01*
X159310390Y-117467783D01*
X159345217Y-117439981D01*
X159348753Y-117436495D01*
X159348821Y-117436439D01*
X159348873Y-117436376D01*
X159350015Y-117435250D01*
X160483072Y-116302192D01*
X160511328Y-116267792D01*
X160540022Y-116233596D01*
X160541246Y-116231370D01*
X160542855Y-116229411D01*
X160563915Y-116190134D01*
X160585397Y-116151059D01*
X160586164Y-116148641D01*
X160587364Y-116146403D01*
X160600403Y-116103755D01*
X160613876Y-116061281D01*
X160614159Y-116058760D01*
X160614901Y-116056332D01*
X160619406Y-116011977D01*
X160624375Y-115967681D01*
X160624410Y-115962721D01*
X160624419Y-115962628D01*
X160624411Y-115962542D01*
X160624422Y-115960943D01*
X160624422Y-101035164D01*
X160620076Y-100990838D01*
X160616187Y-100946389D01*
X160615478Y-100943950D01*
X160615231Y-100941427D01*
X160602346Y-100898751D01*
X160589909Y-100855942D01*
X160588742Y-100853691D01*
X160588008Y-100851259D01*
X160567075Y-100811890D01*
X160546565Y-100772321D01*
X160544981Y-100770336D01*
X160543790Y-100768097D01*
X160515627Y-100733567D01*
X160487803Y-100698712D01*
X160484320Y-100695181D01*
X160484261Y-100695108D01*
X160484194Y-100695052D01*
X160483072Y-100693915D01*
X159267005Y-99477848D01*
X159554420Y-99132882D01*
X159824940Y-98636714D01*
X159993934Y-98097452D01*
X160054967Y-97535635D01*
X160005713Y-96972663D01*
X159848049Y-96429980D01*
X159664390Y-96075666D01*
X159664390Y-88686234D01*
X161381025Y-86969600D01*
X162002400Y-86969600D01*
X162002400Y-92303000D01*
X162002506Y-92304081D01*
X162002410Y-92304994D01*
X162010027Y-92388686D01*
X162033755Y-92469306D01*
X162072689Y-92543781D01*
X162109781Y-92589914D01*
X162102294Y-92596819D01*
X161797742Y-93015010D01*
X161580627Y-93484581D01*
X161499035Y-93790024D01*
X161595483Y-94199600D01*
X162331400Y-94199600D01*
X162331400Y-94504400D01*
X161595483Y-94504400D01*
X161499035Y-94913976D01*
X161580627Y-95219419D01*
X161797742Y-95688990D01*
X162097710Y-96100886D01*
X162077706Y-96124725D01*
X162076978Y-96126049D01*
X162076016Y-96127212D01*
X162056759Y-96162828D01*
X162037220Y-96198369D01*
X162036763Y-96199810D01*
X162036046Y-96201136D01*
X162024071Y-96239821D01*
X162011810Y-96278473D01*
X162011642Y-96279973D01*
X162011195Y-96281416D01*
X162006954Y-96321767D01*
X162002442Y-96361988D01*
X162002422Y-96364882D01*
X162002410Y-96364994D01*
X162002420Y-96365106D01*
X162002400Y-96368000D01*
X162002400Y-98526000D01*
X162006348Y-98566268D01*
X162010027Y-98606686D01*
X162010454Y-98608136D01*
X162010601Y-98609637D01*
X162022320Y-98648454D01*
X162033755Y-98687306D01*
X162034453Y-98688641D01*
X162034890Y-98690089D01*
X162053919Y-98725878D01*
X162072689Y-98761781D01*
X162073637Y-98762960D01*
X162074344Y-98764290D01*
X162099911Y-98795638D01*
X162125348Y-98827275D01*
X162126506Y-98828247D01*
X162127459Y-98829415D01*
X162158643Y-98855213D01*
X162189725Y-98881294D01*
X162191049Y-98882022D01*
X162192212Y-98882984D01*
X162227828Y-98902241D01*
X162263369Y-98921780D01*
X162264810Y-98922237D01*
X162266136Y-98922954D01*
X162304821Y-98934929D01*
X162343473Y-98947190D01*
X162344973Y-98947358D01*
X162346416Y-98947805D01*
X162386767Y-98952046D01*
X162426988Y-98956558D01*
X162429882Y-98956578D01*
X162429994Y-98956590D01*
X162430106Y-98956580D01*
X162433000Y-98956600D01*
X172505400Y-98956600D01*
X172505400Y-130595400D01*
X145143626Y-130595400D01*
X145208221Y-130498729D01*
X145254173Y-130387788D01*
X145277600Y-130270015D01*
X145277600Y-129764775D01*
X145125200Y-129612375D01*
X144170400Y-129612375D01*
X144170400Y-129632375D01*
X143865600Y-129632375D01*
X143865600Y-129612375D01*
X142910800Y-129612375D01*
X142758400Y-129764775D01*
X142758400Y-130270015D01*
X142781827Y-130387788D01*
X142827779Y-130498729D01*
X142892374Y-130595400D01*
X133366600Y-130595400D01*
X133366600Y-128417189D01*
X134793199Y-128417189D01*
X134814555Y-128536902D01*
X134945720Y-128826834D01*
X135130927Y-129085606D01*
X135363059Y-129303273D01*
X135633196Y-129471471D01*
X135930956Y-129583736D01*
X136244896Y-129635754D01*
X136499600Y-129480167D01*
X136499600Y-128168400D01*
X136804400Y-128168400D01*
X136804400Y-129480167D01*
X137059104Y-129635754D01*
X137373044Y-129583736D01*
X137670804Y-129471471D01*
X137940941Y-129303273D01*
X138173073Y-129085606D01*
X138358280Y-128826834D01*
X138489445Y-128536902D01*
X138510801Y-128417189D01*
X138401209Y-128168400D01*
X136804400Y-128168400D01*
X136499600Y-128168400D01*
X134902791Y-128168400D01*
X134793199Y-128417189D01*
X133366600Y-128417189D01*
X133366600Y-127614811D01*
X134793199Y-127614811D01*
X134902791Y-127863600D01*
X136499600Y-127863600D01*
X136499600Y-127843600D01*
X136804400Y-127843600D01*
X136804400Y-127863600D01*
X138401209Y-127863600D01*
X138510801Y-127614811D01*
X138489445Y-127495098D01*
X138358280Y-127205166D01*
X138173073Y-126946394D01*
X138037976Y-126819715D01*
X138104675Y-126799060D01*
X138188633Y-126743736D01*
X138253854Y-126667212D01*
X138295173Y-126575547D01*
X138309320Y-126476000D01*
X138309320Y-124476000D01*
X138304804Y-124419372D01*
X138275060Y-124323325D01*
X138219736Y-124239367D01*
X138143212Y-124174146D01*
X138051547Y-124132827D01*
X137952000Y-124118680D01*
X135352000Y-124118680D01*
X135295372Y-124123196D01*
X135199325Y-124152940D01*
X135115367Y-124208264D01*
X135050146Y-124284788D01*
X135008827Y-124376453D01*
X134994680Y-124476000D01*
X134994680Y-126476000D01*
X134999196Y-126532628D01*
X135028940Y-126628675D01*
X135084264Y-126712633D01*
X135160788Y-126777854D01*
X135252453Y-126819173D01*
X135264740Y-126820919D01*
X135130927Y-126946394D01*
X134945720Y-127205166D01*
X134814555Y-127495098D01*
X134793199Y-127614811D01*
X133366600Y-127614811D01*
X133366600Y-112906800D01*
X134630400Y-112906800D01*
X134630400Y-113412040D01*
X134653827Y-113529813D01*
X134699779Y-113640754D01*
X134766493Y-113740597D01*
X134851402Y-113825507D01*
X134951246Y-113892220D01*
X135062186Y-113938173D01*
X135179959Y-113961600D01*
X135585200Y-113961600D01*
X135737600Y-113809200D01*
X135737600Y-112754400D01*
X134782800Y-112754400D01*
X134630400Y-112906800D01*
X133366600Y-112906800D01*
X133366600Y-111791960D01*
X134630400Y-111791960D01*
X134630400Y-112297200D01*
X134782800Y-112449600D01*
X135737600Y-112449600D01*
X135737600Y-111394800D01*
X136042400Y-111394800D01*
X136042400Y-112449600D01*
X136062400Y-112449600D01*
X136062400Y-112754400D01*
X136042400Y-112754400D01*
X136042400Y-113809200D01*
X136194800Y-113961600D01*
X136600041Y-113961600D01*
X136717814Y-113938173D01*
X136828754Y-113892220D01*
X136928598Y-113825507D01*
X137013507Y-113740597D01*
X137080221Y-113640754D01*
X137126173Y-113529813D01*
X137149600Y-113412040D01*
X137149600Y-113203572D01*
X137189960Y-113211600D01*
X137895200Y-113211600D01*
X138047600Y-113059200D01*
X138047600Y-112354400D01*
X138027600Y-112354400D01*
X138027600Y-112049600D01*
X138047600Y-112049600D01*
X138047600Y-111344800D01*
X137895200Y-111192400D01*
X137189960Y-111192400D01*
X137072187Y-111215827D01*
X136961246Y-111261779D01*
X136861403Y-111328493D01*
X136858344Y-111331552D01*
X136828754Y-111311780D01*
X136717814Y-111265827D01*
X136600041Y-111242400D01*
X136194800Y-111242400D01*
X136042400Y-111394800D01*
X135737600Y-111394800D01*
X135585200Y-111242400D01*
X135179959Y-111242400D01*
X135062186Y-111265827D01*
X134951246Y-111311780D01*
X134851402Y-111378493D01*
X134766493Y-111463403D01*
X134699779Y-111563246D01*
X134653827Y-111674187D01*
X134630400Y-111791960D01*
X133366600Y-111791960D01*
X133366600Y-98397754D01*
X133419554Y-98375820D01*
X133519398Y-98309107D01*
X133604307Y-98224197D01*
X133671021Y-98124354D01*
X133716973Y-98013413D01*
X133740400Y-97895640D01*
X133740400Y-94640400D01*
X133588000Y-94488000D01*
X129353798Y-94488000D01*
X129364777Y-94367366D01*
X129364504Y-94328339D01*
X129364777Y-94289312D01*
X129364190Y-94283329D01*
X129353666Y-94183200D01*
X133588000Y-94183200D01*
X133740400Y-94030800D01*
X133740400Y-91083241D01*
X138628695Y-91083241D01*
X138795551Y-91346226D01*
X139169847Y-91473260D01*
X139561734Y-91524832D01*
X139956152Y-91498960D01*
X140337943Y-91396638D01*
X140459649Y-91346226D01*
X140626505Y-91083241D01*
X139627600Y-90084336D01*
X138628695Y-91083241D01*
X133740400Y-91083241D01*
X133740400Y-90775560D01*
X133716973Y-90657787D01*
X133671021Y-90546846D01*
X133604307Y-90447003D01*
X133519398Y-90362093D01*
X133419554Y-90295380D01*
X133366600Y-90273446D01*
X133366600Y-89443734D01*
X137612368Y-89443734D01*
X137638240Y-89838152D01*
X137740562Y-90219943D01*
X137790974Y-90341649D01*
X138053959Y-90508505D01*
X139052864Y-89509600D01*
X140202336Y-89509600D01*
X141201241Y-90508505D01*
X141464226Y-90341649D01*
X141591260Y-89967353D01*
X141642832Y-89575466D01*
X141616960Y-89181048D01*
X141514638Y-88799257D01*
X141464226Y-88677551D01*
X141201241Y-88510695D01*
X140202336Y-89509600D01*
X139052864Y-89509600D01*
X138053959Y-88510695D01*
X137790974Y-88677551D01*
X137663940Y-89051847D01*
X137612368Y-89443734D01*
X133366600Y-89443734D01*
X133366600Y-88451885D01*
X133367433Y-88451336D01*
X133432654Y-88374812D01*
X133473973Y-88283147D01*
X133488120Y-88183600D01*
X133488120Y-87579200D01*
X139079052Y-87579200D01*
X138917257Y-87622562D01*
X138795551Y-87672974D01*
X138628695Y-87935959D01*
X139627600Y-88934864D01*
X140626505Y-87935959D01*
X140459649Y-87672974D01*
X140183351Y-87579200D01*
X140657313Y-87579200D01*
X141732000Y-88653888D01*
X141732000Y-95180680D01*
X141626000Y-95180680D01*
X141569372Y-95185196D01*
X141473325Y-95214940D01*
X141389367Y-95270264D01*
X141324146Y-95346788D01*
X141282827Y-95438453D01*
X141268680Y-95538000D01*
X141268680Y-101938000D01*
X141273196Y-101994628D01*
X141302940Y-102090675D01*
X141358264Y-102174633D01*
X141434788Y-102239854D01*
X141526453Y-102281173D01*
X141626000Y-102295320D01*
X142644731Y-102295320D01*
X141898750Y-103041300D01*
X141870455Y-103075747D01*
X141841800Y-103109897D01*
X141840578Y-103112120D01*
X141838967Y-103114081D01*
X141817885Y-103153398D01*
X141796425Y-103192434D01*
X141795659Y-103194850D01*
X141794458Y-103197089D01*
X141781415Y-103239752D01*
X141767946Y-103282212D01*
X141767663Y-103284733D01*
X141766921Y-103287161D01*
X141762416Y-103331516D01*
X141757447Y-103375812D01*
X141757412Y-103380772D01*
X141757403Y-103380865D01*
X141757411Y-103380951D01*
X141757400Y-103382550D01*
X141757400Y-103580680D01*
X141646000Y-103580680D01*
X141589372Y-103585196D01*
X141493325Y-103614940D01*
X141409367Y-103670264D01*
X141344146Y-103746788D01*
X141302827Y-103838453D01*
X141288680Y-103938000D01*
X141288680Y-104555400D01*
X141196780Y-104555400D01*
X141013684Y-104372303D01*
X141013684Y-102431084D01*
X141009338Y-102386758D01*
X141005449Y-102342309D01*
X141004740Y-102339870D01*
X141004493Y-102337347D01*
X140991612Y-102294684D01*
X140979171Y-102251861D01*
X140978004Y-102249609D01*
X140977270Y-102247179D01*
X140956326Y-102207789D01*
X140935826Y-102168241D01*
X140934245Y-102166260D01*
X140933052Y-102164017D01*
X140904867Y-102129459D01*
X140877065Y-102094632D01*
X140873579Y-102091096D01*
X140873523Y-102091028D01*
X140873460Y-102090976D01*
X140872334Y-102089834D01*
X140295250Y-101512750D01*
X140260803Y-101484455D01*
X140226653Y-101455800D01*
X140224430Y-101454578D01*
X140222469Y-101452967D01*
X140183152Y-101431885D01*
X140144116Y-101410425D01*
X140141700Y-101409659D01*
X140139461Y-101408458D01*
X140096798Y-101395415D01*
X140054338Y-101381946D01*
X140051817Y-101381663D01*
X140049389Y-101380921D01*
X140005034Y-101376416D01*
X139960738Y-101371447D01*
X139955778Y-101371412D01*
X139955685Y-101371403D01*
X139955599Y-101371411D01*
X139954000Y-101371400D01*
X136652000Y-101371400D01*
X136607628Y-101375751D01*
X136563225Y-101379636D01*
X136560791Y-101380343D01*
X136558263Y-101380591D01*
X136515558Y-101393484D01*
X136472777Y-101405913D01*
X136470525Y-101407080D01*
X136468095Y-101407814D01*
X136428705Y-101428758D01*
X136389157Y-101449258D01*
X136387176Y-101450839D01*
X136384933Y-101452032D01*
X136350375Y-101480217D01*
X136315548Y-101508019D01*
X136312017Y-101511502D01*
X136311944Y-101511561D01*
X136311888Y-101511628D01*
X136310750Y-101512751D01*
X135676750Y-102146750D01*
X135648455Y-102181197D01*
X135619800Y-102215347D01*
X135618578Y-102217570D01*
X135616967Y-102219531D01*
X135595885Y-102258848D01*
X135574425Y-102297884D01*
X135573659Y-102300300D01*
X135572458Y-102302539D01*
X135559415Y-102345202D01*
X135545946Y-102387662D01*
X135545663Y-102390183D01*
X135544921Y-102392611D01*
X135541858Y-102422765D01*
X135511372Y-102425196D01*
X135415325Y-102454940D01*
X135331367Y-102510264D01*
X135266146Y-102586788D01*
X135224827Y-102678453D01*
X135210680Y-102778000D01*
X135210680Y-103978000D01*
X135215196Y-104034628D01*
X135244940Y-104130675D01*
X135300264Y-104214633D01*
X135376788Y-104279854D01*
X135468453Y-104321173D01*
X135536542Y-104330849D01*
X135539746Y-104363527D01*
X135543635Y-104407976D01*
X135544344Y-104410415D01*
X135544591Y-104412938D01*
X135557472Y-104455601D01*
X135569913Y-104498424D01*
X135571080Y-104500676D01*
X135571814Y-104503106D01*
X135592758Y-104542496D01*
X135613258Y-104582044D01*
X135614839Y-104584025D01*
X135616032Y-104586268D01*
X135644217Y-104620826D01*
X135672019Y-104655653D01*
X135673032Y-104656680D01*
X135568000Y-104656680D01*
X135511372Y-104661196D01*
X135415325Y-104690940D01*
X135331367Y-104746264D01*
X135266146Y-104822788D01*
X135224827Y-104914453D01*
X135210680Y-105014000D01*
X135210680Y-106314000D01*
X135215196Y-106370628D01*
X135244940Y-106466675D01*
X135300264Y-106550633D01*
X135376788Y-106615854D01*
X135468453Y-106657173D01*
X135568000Y-106671320D01*
X135835400Y-106671320D01*
X135835400Y-106688680D01*
X135568000Y-106688680D01*
X135511372Y-106693196D01*
X135415325Y-106722940D01*
X135331367Y-106778264D01*
X135266146Y-106854788D01*
X135224827Y-106946453D01*
X135210680Y-107046000D01*
X135210680Y-108346000D01*
X135215196Y-108402628D01*
X135244940Y-108498675D01*
X135300264Y-108582633D01*
X135376788Y-108647854D01*
X135468453Y-108689173D01*
X135568000Y-108703320D01*
X137068000Y-108703320D01*
X137124628Y-108698804D01*
X137220675Y-108669060D01*
X137304633Y-108613736D01*
X137369854Y-108537212D01*
X137411173Y-108445547D01*
X137425320Y-108346000D01*
X137425320Y-107046000D01*
X137420804Y-106989372D01*
X137391060Y-106893325D01*
X137335736Y-106809367D01*
X137259212Y-106744146D01*
X137167547Y-106702827D01*
X137068000Y-106688680D01*
X136800600Y-106688680D01*
X136800600Y-106671320D01*
X137068000Y-106671320D01*
X137124628Y-106666804D01*
X137220675Y-106637060D01*
X137304633Y-106581736D01*
X137369854Y-106505212D01*
X137411173Y-106413547D01*
X137425320Y-106314000D01*
X137425320Y-105014000D01*
X137420804Y-104957372D01*
X137391060Y-104861325D01*
X137335736Y-104777367D01*
X137259212Y-104712146D01*
X137167547Y-104670827D01*
X137068000Y-104656680D01*
X136800600Y-104656680D01*
X136800600Y-104619201D01*
X136796254Y-104574875D01*
X136792365Y-104530426D01*
X136791656Y-104527987D01*
X136791409Y-104525464D01*
X136778528Y-104482801D01*
X136766087Y-104439978D01*
X136764920Y-104437726D01*
X136764186Y-104435296D01*
X136743242Y-104395906D01*
X136722742Y-104356358D01*
X136721161Y-104354377D01*
X136719968Y-104352134D01*
X136691783Y-104317576D01*
X136663981Y-104282749D01*
X136660495Y-104279213D01*
X136660439Y-104279145D01*
X136660376Y-104279093D01*
X136659250Y-104277951D01*
X136657858Y-104276559D01*
X136704633Y-104245736D01*
X136769854Y-104169212D01*
X136811173Y-104077547D01*
X136825320Y-103978000D01*
X136825320Y-102778000D01*
X136820804Y-102721372D01*
X136791060Y-102625325D01*
X136735736Y-102541367D01*
X136687902Y-102500598D01*
X136851899Y-102336600D01*
X139754100Y-102336600D01*
X139849806Y-102432306D01*
X139768000Y-102420680D01*
X138868000Y-102420680D01*
X138811372Y-102425196D01*
X138715325Y-102454940D01*
X138631367Y-102510264D01*
X138566146Y-102586788D01*
X138524827Y-102678453D01*
X138510680Y-102778000D01*
X138510680Y-103978000D01*
X138515196Y-104034628D01*
X138544940Y-104130675D01*
X138600264Y-104214633D01*
X138676788Y-104279854D01*
X138711797Y-104295634D01*
X138676750Y-104330681D01*
X138648455Y-104365128D01*
X138619800Y-104399278D01*
X138618578Y-104401501D01*
X138616967Y-104403462D01*
X138595885Y-104442779D01*
X138574425Y-104481815D01*
X138573659Y-104484231D01*
X138572458Y-104486470D01*
X138559415Y-104529133D01*
X138545946Y-104571593D01*
X138545663Y-104574114D01*
X138544921Y-104576542D01*
X138540416Y-104620897D01*
X138536402Y-104656680D01*
X138268000Y-104656680D01*
X138211372Y-104661196D01*
X138115325Y-104690940D01*
X138031367Y-104746264D01*
X137966146Y-104822788D01*
X137924827Y-104914453D01*
X137910680Y-105014000D01*
X137910680Y-106314000D01*
X137915196Y-106370628D01*
X137944940Y-106466675D01*
X138000264Y-106550633D01*
X138076788Y-106615854D01*
X138168453Y-106657173D01*
X138268000Y-106671320D01*
X139768000Y-106671320D01*
X139824628Y-106666804D01*
X139920675Y-106637060D01*
X140004633Y-106581736D01*
X140069854Y-106505212D01*
X140111173Y-106413547D01*
X140117437Y-106369467D01*
X141023220Y-107275250D01*
X141057667Y-107303545D01*
X141091817Y-107332200D01*
X141094040Y-107333422D01*
X141096001Y-107335033D01*
X141135283Y-107356096D01*
X141174354Y-107377575D01*
X141176774Y-107378343D01*
X141179009Y-107379541D01*
X141221639Y-107392575D01*
X141264132Y-107406054D01*
X141266652Y-107406337D01*
X141269080Y-107407079D01*
X141313441Y-107411585D01*
X141357732Y-107416553D01*
X141362692Y-107416588D01*
X141362785Y-107416597D01*
X141362871Y-107416589D01*
X141364470Y-107416600D01*
X142900400Y-107416600D01*
X142900400Y-108237762D01*
X142926500Y-108503957D01*
X142949812Y-108770412D01*
X142954060Y-108785035D01*
X142955546Y-108800187D01*
X143032850Y-109056229D01*
X143107477Y-109313095D01*
X143114484Y-109326614D01*
X143118885Y-109341189D01*
X143244465Y-109577372D01*
X143367546Y-109814819D01*
X143377043Y-109826716D01*
X143384193Y-109840163D01*
X143553258Y-110047456D01*
X143720113Y-110256473D01*
X143741009Y-110277661D01*
X143741367Y-110278101D01*
X143741774Y-110278438D01*
X143748502Y-110285260D01*
X145734740Y-112271499D01*
X145941459Y-112441300D01*
X146146320Y-112613199D01*
X146159660Y-112620533D01*
X146171428Y-112630199D01*
X146407159Y-112756596D01*
X146641540Y-112885448D01*
X146656055Y-112890053D01*
X146669473Y-112897247D01*
X146925276Y-112975454D01*
X147180209Y-113056324D01*
X147195336Y-113058021D01*
X147209902Y-113062474D01*
X147476062Y-113089510D01*
X147741809Y-113119318D01*
X147771565Y-113119526D01*
X147772131Y-113119583D01*
X147772658Y-113119533D01*
X147782238Y-113119600D01*
X149310000Y-113119600D01*
X149872425Y-113064454D01*
X150413427Y-112901115D01*
X150912401Y-112635807D01*
X151350339Y-112278633D01*
X151710561Y-111843199D01*
X151979347Y-111346090D01*
X152146458Y-110806241D01*
X152205529Y-110244215D01*
X152154311Y-109681419D01*
X151994754Y-109139289D01*
X151732935Y-108638476D01*
X151378827Y-108198055D01*
X150945918Y-107834801D01*
X150450698Y-107562552D01*
X149912029Y-107391676D01*
X149350429Y-107328682D01*
X149310000Y-107328400D01*
X148981635Y-107328400D01*
X148691600Y-107038366D01*
X148691600Y-106611599D01*
X148760000Y-106621320D01*
X150960000Y-106621320D01*
X151016628Y-106616804D01*
X151112675Y-106587060D01*
X151196633Y-106531736D01*
X151261854Y-106455212D01*
X151303173Y-106363547D01*
X151317320Y-106264000D01*
X151317320Y-105064000D01*
X151312804Y-105007372D01*
X151283060Y-104911325D01*
X151227736Y-104827367D01*
X151151212Y-104762146D01*
X151059547Y-104720827D01*
X150960000Y-104706680D01*
X150342600Y-104706680D01*
X150342600Y-103754023D01*
X150338258Y-103709742D01*
X150334365Y-103665248D01*
X150333656Y-103662809D01*
X150333409Y-103660286D01*
X150320538Y-103617656D01*
X150308088Y-103574801D01*
X150306919Y-103572546D01*
X150306186Y-103570118D01*
X150285272Y-103530785D01*
X150264743Y-103491180D01*
X150263159Y-103489195D01*
X150261968Y-103486956D01*
X150233805Y-103452426D01*
X150205981Y-103417571D01*
X150202498Y-103414040D01*
X150202439Y-103413967D01*
X150202372Y-103413911D01*
X150201250Y-103412774D01*
X149063227Y-102274750D01*
X149028780Y-102246455D01*
X148994630Y-102217800D01*
X148992407Y-102216578D01*
X148990446Y-102214967D01*
X148951129Y-102193885D01*
X148912093Y-102172425D01*
X148909677Y-102171659D01*
X148907438Y-102170458D01*
X148864775Y-102157415D01*
X148822315Y-102143946D01*
X148819794Y-102143663D01*
X148817366Y-102142921D01*
X148773011Y-102138416D01*
X148728715Y-102133447D01*
X148723755Y-102133412D01*
X148723662Y-102133403D01*
X148723576Y-102133411D01*
X148721977Y-102133400D01*
X147724285Y-102133400D01*
X147727854Y-102129212D01*
X147769173Y-102037547D01*
X147783320Y-101938000D01*
X147783320Y-101002432D01*
X149679830Y-101002432D01*
X149749061Y-101379644D01*
X149890242Y-101736226D01*
X150097994Y-102058594D01*
X150364404Y-102334470D01*
X150679326Y-102553346D01*
X151030762Y-102706885D01*
X151405329Y-102789239D01*
X151788758Y-102797270D01*
X152166444Y-102730674D01*
X152524002Y-102591986D01*
X152847813Y-102386490D01*
X153125542Y-102122012D01*
X153346611Y-101808626D01*
X153502600Y-101458270D01*
X153587567Y-101084288D01*
X153593684Y-100646244D01*
X153519192Y-100270035D01*
X153373047Y-99915459D01*
X153160814Y-99596023D01*
X152890578Y-99323894D01*
X152572631Y-99109436D01*
X152219085Y-98960819D01*
X151843405Y-98883703D01*
X151459901Y-98881025D01*
X151083182Y-98952889D01*
X150727595Y-99096555D01*
X150406685Y-99306553D01*
X150132675Y-99574882D01*
X149916003Y-99891324D01*
X149764921Y-100243824D01*
X149685184Y-100618957D01*
X149679830Y-101002432D01*
X147783320Y-101002432D01*
X147783320Y-95538000D01*
X147778804Y-95481372D01*
X147749060Y-95385325D01*
X147693736Y-95301367D01*
X147617212Y-95236146D01*
X147525547Y-95194827D01*
X147523200Y-95194493D01*
X147523200Y-87454491D01*
X147497100Y-87188296D01*
X147473788Y-86921841D01*
X147469540Y-86907218D01*
X147468054Y-86892066D01*
X147390746Y-86636010D01*
X147316123Y-86379159D01*
X147309116Y-86365642D01*
X147304715Y-86351064D01*
X147179135Y-86114881D01*
X147056055Y-85877435D01*
X147046557Y-85865537D01*
X147039407Y-85852090D01*
X146870347Y-85644802D01*
X146703487Y-85435780D01*
X146682588Y-85414587D01*
X146682233Y-85414152D01*
X146681830Y-85413819D01*
X146675099Y-85406993D01*
X143904207Y-82636102D01*
X143697518Y-82466325D01*
X143492627Y-82294401D01*
X143479287Y-82287067D01*
X143467519Y-82277401D01*
X143231788Y-82151004D01*
X142997407Y-82022152D01*
X142982892Y-82017547D01*
X142969474Y-82010353D01*
X142713671Y-81932146D01*
X142458738Y-81851276D01*
X142443611Y-81849579D01*
X142429045Y-81845126D01*
X142162929Y-81818095D01*
X141897138Y-81788282D01*
X141867371Y-81788074D01*
X141866816Y-81788018D01*
X141866299Y-81788067D01*
X141856709Y-81788000D01*
X133488120Y-81788000D01*
X133488120Y-81456600D01*
X162002400Y-81456600D01*
X162002400Y-82448400D01*
M02*
