M48
;DRILL file {KiCad 4.0.7-e2-6376~58~ubuntu16.04.1} date Fri Nov  3 20:46:13 2017
;FORMAT={-:-/ absolute / metric / decimal}
FMAT,2
METRIC,TZ
T1C0.406
T2C0.813
T3C1.000
T4C1.300
T5C2.300
T6C3.200
%
G90
G05
M71
T1
X149.161Y-110.197
X149.161Y-111.056
X149.86Y-123.952
X153.567Y-111.085
X153.648Y-109.264
X169.162Y-111.726
X169.672Y-124.46
T2
X132.131Y-84.684
X132.131Y-94.336
X148.844Y-104.14
X165.473Y-84.709
X165.473Y-94.352
X168.669Y-104.153
T3
X138.303Y-117.856
X140.843Y-117.856
X142.873Y-117.856
X145.413Y-117.856
X158.242Y-117.856
X160.782Y-117.856
X162.812Y-117.856
X165.352Y-117.856
T4
X139.628Y-89.51
X144.628Y-89.51
T5
X134.743Y-120.526
X148.463Y-120.526
X154.682Y-120.526
X168.402Y-120.526
T6
X151.638Y-100.838
T0
M30
