G04 #@! TF.FileFunction,Copper,L2,Bot,Signal*
%FSLAX46Y46*%
G04 Gerber Fmt 4.6, Leading zero omitted, Abs format (unit mm)*
G04 Created by KiCad (PCBNEW 4.0.7-e2-6376~58~ubuntu16.04.1) date Mon Nov  6 13:34:28 2017*
%MOMM*%
%LPD*%
G01*
G04 APERTURE LIST*
%ADD10C,0.100000*%
%ADD11C,0.381000*%
%ADD12R,10.000000X7.000000*%
%ADD13O,6.850000X4.050000*%
%ADD14C,3.810000*%
%ADD15C,5.080000*%
%ADD16C,0.203200*%
G04 APERTURE END LIST*
D10*
D11*
X148394420Y-88183720D02*
X148394420Y-89783920D01*
X148394420Y-89783920D02*
X147195540Y-89783920D01*
X150893780Y-89783920D02*
X150893780Y-88282780D01*
X150893780Y-88282780D02*
X149994620Y-88282780D01*
X149994620Y-88282780D02*
X149793960Y-88282780D01*
X149793960Y-88282780D02*
X149595840Y-88384380D01*
X149595840Y-88384380D02*
X149494240Y-88585040D01*
X149494240Y-88585040D02*
X149494240Y-88783160D01*
X149494240Y-88783160D02*
X149694900Y-88983820D01*
X149694900Y-88983820D02*
X149994620Y-89082880D01*
X149994620Y-89082880D02*
X150893780Y-89082880D01*
X152095200Y-88384380D02*
X152295860Y-88282780D01*
X152295860Y-88282780D02*
X152796240Y-88282780D01*
X152796240Y-88282780D02*
X153095960Y-88384380D01*
X153095960Y-88384380D02*
X153294080Y-88483440D01*
X153294080Y-88483440D02*
X153494740Y-88783160D01*
X153494740Y-88783160D02*
X153494740Y-89082880D01*
X153494740Y-89082880D02*
X153395680Y-89484200D01*
X153395680Y-89484200D02*
X153095960Y-89684860D01*
X153095960Y-89684860D02*
X152796240Y-89783920D01*
X152796240Y-89783920D02*
X152493980Y-89783920D01*
X152493980Y-89783920D02*
X151996140Y-89684860D01*
X151996140Y-89684860D02*
X151996140Y-89184480D01*
X151996140Y-89184480D02*
X152493980Y-89184480D01*
X148694140Y-85684360D02*
X148694140Y-86984840D01*
X148694140Y-86984840D02*
X148394420Y-87182960D01*
X148394420Y-87182960D02*
X148094700Y-87182960D01*
X148094700Y-87182960D02*
X147695920Y-87182960D01*
X147695920Y-87182960D02*
X147396200Y-87083900D01*
X147396200Y-87083900D02*
X147195540Y-86984840D01*
X147195540Y-86984840D02*
X147195540Y-85684360D01*
X151295100Y-87182960D02*
X151295100Y-85684360D01*
X151295100Y-85684360D02*
X149793960Y-87182960D01*
X149793960Y-87182960D02*
X149793960Y-85684360D01*
X152493980Y-85783420D02*
X152796240Y-85684360D01*
X152796240Y-85684360D02*
X153294080Y-85783420D01*
X153294080Y-85783420D02*
X153695400Y-85984080D01*
X153695400Y-85984080D02*
X153896060Y-86382860D01*
X153896060Y-86382860D02*
X153794460Y-86784180D01*
X153794460Y-86784180D02*
X153494740Y-87083900D01*
X153494740Y-87083900D02*
X152994360Y-87284560D01*
X152994360Y-87284560D02*
X152295860Y-87083900D01*
X152295860Y-87083900D02*
X152295860Y-86583520D01*
X152295860Y-86583520D02*
X152796240Y-86583520D01*
X154559000Y-84836000D02*
X146431000Y-84836000D01*
X146431000Y-84836000D02*
X146431000Y-90424000D01*
X146431000Y-90424000D02*
X154559000Y-90424000D01*
X154559000Y-90424000D02*
X154559000Y-84836000D01*
D12*
X128130800Y-84683600D03*
X128130800Y-94335600D03*
D13*
X165473000Y-84709000D03*
X165473000Y-94352000D03*
D14*
X165473000Y-94352000D02*
X161426000Y-94352000D01*
D15*
X132130800Y-84683600D02*
X134467600Y-84683600D01*
D16*
G36*
X162002400Y-82681000D02*
X162006348Y-82721268D01*
X162010027Y-82761686D01*
X162010454Y-82763136D01*
X162010601Y-82764637D01*
X162022320Y-82803454D01*
X162033755Y-82842306D01*
X162034453Y-82843641D01*
X162034890Y-82845089D01*
X162053919Y-82880878D01*
X162072689Y-82916781D01*
X162073637Y-82917960D01*
X162074344Y-82919290D01*
X162099911Y-82950638D01*
X162125348Y-82982275D01*
X162126506Y-82983247D01*
X162127459Y-82984415D01*
X162158643Y-83010213D01*
X162189725Y-83036294D01*
X162191049Y-83037022D01*
X162192212Y-83037984D01*
X162227828Y-83057241D01*
X162263369Y-83076780D01*
X162264810Y-83077237D01*
X162266136Y-83077954D01*
X162304821Y-83089929D01*
X162316239Y-83093551D01*
X162081100Y-83377785D01*
X161860120Y-83786480D01*
X161722730Y-84230314D01*
X161674165Y-84692380D01*
X161716274Y-85155080D01*
X161847453Y-85600788D01*
X162062706Y-86012529D01*
X162310247Y-86320408D01*
X162271694Y-86331755D01*
X162270359Y-86332453D01*
X162268911Y-86332890D01*
X162233122Y-86351919D01*
X162197219Y-86370689D01*
X162196040Y-86371637D01*
X162194710Y-86372344D01*
X162163362Y-86397911D01*
X162131725Y-86423348D01*
X162130753Y-86424506D01*
X162129585Y-86425459D01*
X162103787Y-86456643D01*
X162077706Y-86487725D01*
X162076978Y-86489049D01*
X162076016Y-86490212D01*
X162056759Y-86525828D01*
X162037220Y-86561369D01*
X162036763Y-86562810D01*
X162036046Y-86564136D01*
X162024071Y-86602821D01*
X162011810Y-86641473D01*
X162011642Y-86642973D01*
X162011195Y-86644416D01*
X162006954Y-86684767D01*
X162002442Y-86724988D01*
X162002422Y-86727882D01*
X162002410Y-86727994D01*
X162002420Y-86728102D01*
X162002400Y-86731000D01*
X162002400Y-92303000D01*
X162002506Y-92304081D01*
X162002410Y-92304994D01*
X162010027Y-92388686D01*
X162033755Y-92469306D01*
X162072689Y-92543781D01*
X162109781Y-92589914D01*
X162102294Y-92596819D01*
X161797742Y-93015010D01*
X161580627Y-93484581D01*
X161499035Y-93790024D01*
X161595483Y-94199600D01*
X162395311Y-94199600D01*
X162399729Y-94504400D01*
X161595483Y-94504400D01*
X161499035Y-94913976D01*
X161580627Y-95219419D01*
X161797742Y-95688990D01*
X162097710Y-96100886D01*
X162077706Y-96124725D01*
X162076978Y-96126049D01*
X162076016Y-96127212D01*
X162056759Y-96162828D01*
X162037220Y-96198369D01*
X162036763Y-96199810D01*
X162036046Y-96201136D01*
X162024071Y-96239821D01*
X162011810Y-96278473D01*
X162011642Y-96279973D01*
X162011195Y-96281416D01*
X162006954Y-96321767D01*
X162002442Y-96361988D01*
X162002422Y-96364882D01*
X162002410Y-96364994D01*
X162002420Y-96365106D01*
X162002400Y-96368000D01*
X162002400Y-98095400D01*
X158496000Y-98095400D01*
X158455732Y-98099348D01*
X158415314Y-98103027D01*
X158413864Y-98103454D01*
X158412363Y-98103601D01*
X158373546Y-98115320D01*
X158334694Y-98126755D01*
X158333359Y-98127453D01*
X158331911Y-98127890D01*
X158296122Y-98146919D01*
X158260219Y-98165689D01*
X158259040Y-98166637D01*
X158257710Y-98167344D01*
X158226420Y-98192864D01*
X158194725Y-98218348D01*
X158193753Y-98219506D01*
X158192585Y-98220459D01*
X158166787Y-98251643D01*
X158140706Y-98282725D01*
X158139978Y-98284049D01*
X158139016Y-98285212D01*
X158119759Y-98320828D01*
X158100220Y-98356369D01*
X158099763Y-98357810D01*
X158099046Y-98359136D01*
X158087071Y-98397821D01*
X158074810Y-98436473D01*
X158074642Y-98437973D01*
X158074195Y-98439416D01*
X158069954Y-98479767D01*
X158065442Y-98519988D01*
X158065422Y-98522882D01*
X158065410Y-98522994D01*
X158065420Y-98523106D01*
X158065400Y-98526000D01*
X158065400Y-100816939D01*
X157940965Y-102086021D01*
X157578518Y-103286506D01*
X156989798Y-104393726D01*
X156197230Y-105365510D01*
X155231001Y-106164845D01*
X154127917Y-106761279D01*
X152929991Y-107132099D01*
X151682858Y-107263179D01*
X150434013Y-107149525D01*
X149231024Y-106795466D01*
X148119725Y-106214493D01*
X147142428Y-105428726D01*
X146336371Y-104468104D01*
X145732247Y-103369208D01*
X145353074Y-102173900D01*
X145221672Y-101002432D01*
X149679830Y-101002432D01*
X149749061Y-101379644D01*
X149890242Y-101736226D01*
X150097994Y-102058594D01*
X150364404Y-102334470D01*
X150679326Y-102553346D01*
X151030762Y-102706885D01*
X151405329Y-102789239D01*
X151788758Y-102797270D01*
X152166444Y-102730674D01*
X152524002Y-102591986D01*
X152847813Y-102386490D01*
X153125542Y-102122012D01*
X153346611Y-101808626D01*
X153502600Y-101458270D01*
X153587567Y-101084288D01*
X153593684Y-100646244D01*
X153519192Y-100270035D01*
X153373047Y-99915459D01*
X153160814Y-99596023D01*
X152890578Y-99323894D01*
X152572631Y-99109436D01*
X152219085Y-98960819D01*
X151843405Y-98883703D01*
X151459901Y-98881025D01*
X151083182Y-98952889D01*
X150727595Y-99096555D01*
X150406685Y-99306553D01*
X150132675Y-99574882D01*
X149916003Y-99891324D01*
X149764921Y-100243824D01*
X149685184Y-100618957D01*
X149679830Y-101002432D01*
X145221672Y-101002432D01*
X145211101Y-100908190D01*
X145210600Y-100836429D01*
X145210600Y-98026000D01*
X145206652Y-97985732D01*
X145202973Y-97945314D01*
X145202546Y-97943864D01*
X145202399Y-97942363D01*
X145190680Y-97903546D01*
X145179245Y-97864694D01*
X145178547Y-97863359D01*
X145178110Y-97861911D01*
X145159081Y-97826122D01*
X145140311Y-97790219D01*
X145139363Y-97789040D01*
X145138656Y-97787710D01*
X145113089Y-97756362D01*
X145087652Y-97724725D01*
X145086494Y-97723753D01*
X145085541Y-97722585D01*
X145054357Y-97696787D01*
X145023275Y-97670706D01*
X145021951Y-97669978D01*
X145020788Y-97669016D01*
X144985172Y-97649759D01*
X144949631Y-97630220D01*
X144948190Y-97629763D01*
X144946864Y-97629046D01*
X144908179Y-97617071D01*
X144869527Y-97604810D01*
X144868027Y-97604642D01*
X144866584Y-97604195D01*
X144826233Y-97599954D01*
X144786012Y-97595442D01*
X144783118Y-97595422D01*
X144783006Y-97595410D01*
X144782894Y-97595420D01*
X144780000Y-97595400D01*
X133488120Y-97595400D01*
X133488120Y-90835600D01*
X133483604Y-90778972D01*
X133453860Y-90682925D01*
X133398536Y-90598967D01*
X133366600Y-90571748D01*
X133366600Y-88745754D01*
X133419554Y-88723820D01*
X133519398Y-88657107D01*
X133604307Y-88572197D01*
X133671021Y-88472354D01*
X133716973Y-88361413D01*
X133740400Y-88243640D01*
X133740400Y-84988400D01*
X133588000Y-84836000D01*
X145884900Y-84836000D01*
X145884900Y-90424000D01*
X145889915Y-90475152D01*
X145894573Y-90526329D01*
X145895113Y-90528164D01*
X145895300Y-90530071D01*
X145910167Y-90579314D01*
X145924665Y-90628573D01*
X145925551Y-90630267D01*
X145926105Y-90632103D01*
X145950245Y-90677503D01*
X145974043Y-90723024D01*
X145975243Y-90724517D01*
X145976142Y-90726207D01*
X146008625Y-90766036D01*
X146040826Y-90806086D01*
X146042292Y-90807316D01*
X146043503Y-90808801D01*
X146083132Y-90841585D01*
X146122472Y-90874594D01*
X146124149Y-90875516D01*
X146125625Y-90876737D01*
X146170787Y-90901156D01*
X146215868Y-90925940D01*
X146217697Y-90926520D01*
X146219378Y-90927429D01*
X146268439Y-90942616D01*
X146317459Y-90958166D01*
X146319360Y-90958379D01*
X146321191Y-90958946D01*
X146372325Y-90964321D01*
X146423375Y-90970047D01*
X146427050Y-90970073D01*
X146427188Y-90970087D01*
X146427326Y-90970074D01*
X146431000Y-90970100D01*
X154559000Y-90970100D01*
X154610152Y-90965085D01*
X154661329Y-90960427D01*
X154663164Y-90959887D01*
X154665071Y-90959700D01*
X154714328Y-90944829D01*
X154763573Y-90930335D01*
X154765267Y-90929449D01*
X154767103Y-90928895D01*
X154812503Y-90904755D01*
X154858024Y-90880957D01*
X154859517Y-90879757D01*
X154861207Y-90878858D01*
X154901036Y-90846375D01*
X154941086Y-90814174D01*
X154942316Y-90812708D01*
X154943801Y-90811497D01*
X154976585Y-90771868D01*
X155009594Y-90732528D01*
X155010516Y-90730851D01*
X155011737Y-90729375D01*
X155036156Y-90684213D01*
X155060940Y-90639132D01*
X155061520Y-90637303D01*
X155062429Y-90635622D01*
X155077616Y-90586561D01*
X155093166Y-90537541D01*
X155093379Y-90535640D01*
X155093946Y-90533809D01*
X155099321Y-90482675D01*
X155105047Y-90431625D01*
X155105073Y-90427950D01*
X155105087Y-90427812D01*
X155105074Y-90427674D01*
X155105100Y-90424000D01*
X155105100Y-84836000D01*
X155100085Y-84784848D01*
X155095427Y-84733671D01*
X155094887Y-84731836D01*
X155094700Y-84729929D01*
X155079829Y-84680672D01*
X155065335Y-84631427D01*
X155064449Y-84629733D01*
X155063895Y-84627897D01*
X155039755Y-84582497D01*
X155015957Y-84536976D01*
X155014757Y-84535483D01*
X155013858Y-84533793D01*
X154981375Y-84493964D01*
X154949174Y-84453914D01*
X154947708Y-84452684D01*
X154946497Y-84451199D01*
X154906868Y-84418415D01*
X154867528Y-84385406D01*
X154865851Y-84384484D01*
X154864375Y-84383263D01*
X154819213Y-84358844D01*
X154774132Y-84334060D01*
X154772303Y-84333480D01*
X154770622Y-84332571D01*
X154721561Y-84317384D01*
X154672541Y-84301834D01*
X154670640Y-84301621D01*
X154668809Y-84301054D01*
X154617675Y-84295679D01*
X154566625Y-84289953D01*
X154562950Y-84289927D01*
X154562812Y-84289913D01*
X154562674Y-84289926D01*
X154559000Y-84289900D01*
X146431000Y-84289900D01*
X146379848Y-84294915D01*
X146328671Y-84299573D01*
X146326836Y-84300113D01*
X146324929Y-84300300D01*
X146275672Y-84315171D01*
X146226427Y-84329665D01*
X146224733Y-84330551D01*
X146222897Y-84331105D01*
X146177497Y-84355245D01*
X146131976Y-84379043D01*
X146130483Y-84380243D01*
X146128793Y-84381142D01*
X146088964Y-84413625D01*
X146048914Y-84445826D01*
X146047684Y-84447292D01*
X146046199Y-84448503D01*
X146013415Y-84488132D01*
X145980406Y-84527472D01*
X145979484Y-84529149D01*
X145978263Y-84530625D01*
X145953844Y-84575787D01*
X145929060Y-84620868D01*
X145928480Y-84622697D01*
X145927571Y-84624378D01*
X145912384Y-84673439D01*
X145896834Y-84722459D01*
X145896621Y-84724360D01*
X145896054Y-84726191D01*
X145890679Y-84777325D01*
X145884953Y-84828375D01*
X145884927Y-84832050D01*
X145884913Y-84832188D01*
X145884926Y-84832326D01*
X145884900Y-84836000D01*
X133588000Y-84836000D01*
X129358435Y-84836000D01*
X129367777Y-84733345D01*
X129367504Y-84694318D01*
X129367777Y-84655291D01*
X129367190Y-84649308D01*
X129354776Y-84531200D01*
X133588000Y-84531200D01*
X133740400Y-84378800D01*
X133740400Y-81456600D01*
X162002400Y-81456600D01*
X162002400Y-82681000D01*
X162002400Y-82681000D01*
G37*
X162002400Y-82681000D02*
X162006348Y-82721268D01*
X162010027Y-82761686D01*
X162010454Y-82763136D01*
X162010601Y-82764637D01*
X162022320Y-82803454D01*
X162033755Y-82842306D01*
X162034453Y-82843641D01*
X162034890Y-82845089D01*
X162053919Y-82880878D01*
X162072689Y-82916781D01*
X162073637Y-82917960D01*
X162074344Y-82919290D01*
X162099911Y-82950638D01*
X162125348Y-82982275D01*
X162126506Y-82983247D01*
X162127459Y-82984415D01*
X162158643Y-83010213D01*
X162189725Y-83036294D01*
X162191049Y-83037022D01*
X162192212Y-83037984D01*
X162227828Y-83057241D01*
X162263369Y-83076780D01*
X162264810Y-83077237D01*
X162266136Y-83077954D01*
X162304821Y-83089929D01*
X162316239Y-83093551D01*
X162081100Y-83377785D01*
X161860120Y-83786480D01*
X161722730Y-84230314D01*
X161674165Y-84692380D01*
X161716274Y-85155080D01*
X161847453Y-85600788D01*
X162062706Y-86012529D01*
X162310247Y-86320408D01*
X162271694Y-86331755D01*
X162270359Y-86332453D01*
X162268911Y-86332890D01*
X162233122Y-86351919D01*
X162197219Y-86370689D01*
X162196040Y-86371637D01*
X162194710Y-86372344D01*
X162163362Y-86397911D01*
X162131725Y-86423348D01*
X162130753Y-86424506D01*
X162129585Y-86425459D01*
X162103787Y-86456643D01*
X162077706Y-86487725D01*
X162076978Y-86489049D01*
X162076016Y-86490212D01*
X162056759Y-86525828D01*
X162037220Y-86561369D01*
X162036763Y-86562810D01*
X162036046Y-86564136D01*
X162024071Y-86602821D01*
X162011810Y-86641473D01*
X162011642Y-86642973D01*
X162011195Y-86644416D01*
X162006954Y-86684767D01*
X162002442Y-86724988D01*
X162002422Y-86727882D01*
X162002410Y-86727994D01*
X162002420Y-86728102D01*
X162002400Y-86731000D01*
X162002400Y-92303000D01*
X162002506Y-92304081D01*
X162002410Y-92304994D01*
X162010027Y-92388686D01*
X162033755Y-92469306D01*
X162072689Y-92543781D01*
X162109781Y-92589914D01*
X162102294Y-92596819D01*
X161797742Y-93015010D01*
X161580627Y-93484581D01*
X161499035Y-93790024D01*
X161595483Y-94199600D01*
X162395311Y-94199600D01*
X162399729Y-94504400D01*
X161595483Y-94504400D01*
X161499035Y-94913976D01*
X161580627Y-95219419D01*
X161797742Y-95688990D01*
X162097710Y-96100886D01*
X162077706Y-96124725D01*
X162076978Y-96126049D01*
X162076016Y-96127212D01*
X162056759Y-96162828D01*
X162037220Y-96198369D01*
X162036763Y-96199810D01*
X162036046Y-96201136D01*
X162024071Y-96239821D01*
X162011810Y-96278473D01*
X162011642Y-96279973D01*
X162011195Y-96281416D01*
X162006954Y-96321767D01*
X162002442Y-96361988D01*
X162002422Y-96364882D01*
X162002410Y-96364994D01*
X162002420Y-96365106D01*
X162002400Y-96368000D01*
X162002400Y-98095400D01*
X158496000Y-98095400D01*
X158455732Y-98099348D01*
X158415314Y-98103027D01*
X158413864Y-98103454D01*
X158412363Y-98103601D01*
X158373546Y-98115320D01*
X158334694Y-98126755D01*
X158333359Y-98127453D01*
X158331911Y-98127890D01*
X158296122Y-98146919D01*
X158260219Y-98165689D01*
X158259040Y-98166637D01*
X158257710Y-98167344D01*
X158226420Y-98192864D01*
X158194725Y-98218348D01*
X158193753Y-98219506D01*
X158192585Y-98220459D01*
X158166787Y-98251643D01*
X158140706Y-98282725D01*
X158139978Y-98284049D01*
X158139016Y-98285212D01*
X158119759Y-98320828D01*
X158100220Y-98356369D01*
X158099763Y-98357810D01*
X158099046Y-98359136D01*
X158087071Y-98397821D01*
X158074810Y-98436473D01*
X158074642Y-98437973D01*
X158074195Y-98439416D01*
X158069954Y-98479767D01*
X158065442Y-98519988D01*
X158065422Y-98522882D01*
X158065410Y-98522994D01*
X158065420Y-98523106D01*
X158065400Y-98526000D01*
X158065400Y-100816939D01*
X157940965Y-102086021D01*
X157578518Y-103286506D01*
X156989798Y-104393726D01*
X156197230Y-105365510D01*
X155231001Y-106164845D01*
X154127917Y-106761279D01*
X152929991Y-107132099D01*
X151682858Y-107263179D01*
X150434013Y-107149525D01*
X149231024Y-106795466D01*
X148119725Y-106214493D01*
X147142428Y-105428726D01*
X146336371Y-104468104D01*
X145732247Y-103369208D01*
X145353074Y-102173900D01*
X145221672Y-101002432D01*
X149679830Y-101002432D01*
X149749061Y-101379644D01*
X149890242Y-101736226D01*
X150097994Y-102058594D01*
X150364404Y-102334470D01*
X150679326Y-102553346D01*
X151030762Y-102706885D01*
X151405329Y-102789239D01*
X151788758Y-102797270D01*
X152166444Y-102730674D01*
X152524002Y-102591986D01*
X152847813Y-102386490D01*
X153125542Y-102122012D01*
X153346611Y-101808626D01*
X153502600Y-101458270D01*
X153587567Y-101084288D01*
X153593684Y-100646244D01*
X153519192Y-100270035D01*
X153373047Y-99915459D01*
X153160814Y-99596023D01*
X152890578Y-99323894D01*
X152572631Y-99109436D01*
X152219085Y-98960819D01*
X151843405Y-98883703D01*
X151459901Y-98881025D01*
X151083182Y-98952889D01*
X150727595Y-99096555D01*
X150406685Y-99306553D01*
X150132675Y-99574882D01*
X149916003Y-99891324D01*
X149764921Y-100243824D01*
X149685184Y-100618957D01*
X149679830Y-101002432D01*
X145221672Y-101002432D01*
X145211101Y-100908190D01*
X145210600Y-100836429D01*
X145210600Y-98026000D01*
X145206652Y-97985732D01*
X145202973Y-97945314D01*
X145202546Y-97943864D01*
X145202399Y-97942363D01*
X145190680Y-97903546D01*
X145179245Y-97864694D01*
X145178547Y-97863359D01*
X145178110Y-97861911D01*
X145159081Y-97826122D01*
X145140311Y-97790219D01*
X145139363Y-97789040D01*
X145138656Y-97787710D01*
X145113089Y-97756362D01*
X145087652Y-97724725D01*
X145086494Y-97723753D01*
X145085541Y-97722585D01*
X145054357Y-97696787D01*
X145023275Y-97670706D01*
X145021951Y-97669978D01*
X145020788Y-97669016D01*
X144985172Y-97649759D01*
X144949631Y-97630220D01*
X144948190Y-97629763D01*
X144946864Y-97629046D01*
X144908179Y-97617071D01*
X144869527Y-97604810D01*
X144868027Y-97604642D01*
X144866584Y-97604195D01*
X144826233Y-97599954D01*
X144786012Y-97595442D01*
X144783118Y-97595422D01*
X144783006Y-97595410D01*
X144782894Y-97595420D01*
X144780000Y-97595400D01*
X133488120Y-97595400D01*
X133488120Y-90835600D01*
X133483604Y-90778972D01*
X133453860Y-90682925D01*
X133398536Y-90598967D01*
X133366600Y-90571748D01*
X133366600Y-88745754D01*
X133419554Y-88723820D01*
X133519398Y-88657107D01*
X133604307Y-88572197D01*
X133671021Y-88472354D01*
X133716973Y-88361413D01*
X133740400Y-88243640D01*
X133740400Y-84988400D01*
X133588000Y-84836000D01*
X145884900Y-84836000D01*
X145884900Y-90424000D01*
X145889915Y-90475152D01*
X145894573Y-90526329D01*
X145895113Y-90528164D01*
X145895300Y-90530071D01*
X145910167Y-90579314D01*
X145924665Y-90628573D01*
X145925551Y-90630267D01*
X145926105Y-90632103D01*
X145950245Y-90677503D01*
X145974043Y-90723024D01*
X145975243Y-90724517D01*
X145976142Y-90726207D01*
X146008625Y-90766036D01*
X146040826Y-90806086D01*
X146042292Y-90807316D01*
X146043503Y-90808801D01*
X146083132Y-90841585D01*
X146122472Y-90874594D01*
X146124149Y-90875516D01*
X146125625Y-90876737D01*
X146170787Y-90901156D01*
X146215868Y-90925940D01*
X146217697Y-90926520D01*
X146219378Y-90927429D01*
X146268439Y-90942616D01*
X146317459Y-90958166D01*
X146319360Y-90958379D01*
X146321191Y-90958946D01*
X146372325Y-90964321D01*
X146423375Y-90970047D01*
X146427050Y-90970073D01*
X146427188Y-90970087D01*
X146427326Y-90970074D01*
X146431000Y-90970100D01*
X154559000Y-90970100D01*
X154610152Y-90965085D01*
X154661329Y-90960427D01*
X154663164Y-90959887D01*
X154665071Y-90959700D01*
X154714328Y-90944829D01*
X154763573Y-90930335D01*
X154765267Y-90929449D01*
X154767103Y-90928895D01*
X154812503Y-90904755D01*
X154858024Y-90880957D01*
X154859517Y-90879757D01*
X154861207Y-90878858D01*
X154901036Y-90846375D01*
X154941086Y-90814174D01*
X154942316Y-90812708D01*
X154943801Y-90811497D01*
X154976585Y-90771868D01*
X155009594Y-90732528D01*
X155010516Y-90730851D01*
X155011737Y-90729375D01*
X155036156Y-90684213D01*
X155060940Y-90639132D01*
X155061520Y-90637303D01*
X155062429Y-90635622D01*
X155077616Y-90586561D01*
X155093166Y-90537541D01*
X155093379Y-90535640D01*
X155093946Y-90533809D01*
X155099321Y-90482675D01*
X155105047Y-90431625D01*
X155105073Y-90427950D01*
X155105087Y-90427812D01*
X155105074Y-90427674D01*
X155105100Y-90424000D01*
X155105100Y-84836000D01*
X155100085Y-84784848D01*
X155095427Y-84733671D01*
X155094887Y-84731836D01*
X155094700Y-84729929D01*
X155079829Y-84680672D01*
X155065335Y-84631427D01*
X155064449Y-84629733D01*
X155063895Y-84627897D01*
X155039755Y-84582497D01*
X155015957Y-84536976D01*
X155014757Y-84535483D01*
X155013858Y-84533793D01*
X154981375Y-84493964D01*
X154949174Y-84453914D01*
X154947708Y-84452684D01*
X154946497Y-84451199D01*
X154906868Y-84418415D01*
X154867528Y-84385406D01*
X154865851Y-84384484D01*
X154864375Y-84383263D01*
X154819213Y-84358844D01*
X154774132Y-84334060D01*
X154772303Y-84333480D01*
X154770622Y-84332571D01*
X154721561Y-84317384D01*
X154672541Y-84301834D01*
X154670640Y-84301621D01*
X154668809Y-84301054D01*
X154617675Y-84295679D01*
X154566625Y-84289953D01*
X154562950Y-84289927D01*
X154562812Y-84289913D01*
X154562674Y-84289926D01*
X154559000Y-84289900D01*
X146431000Y-84289900D01*
X146379848Y-84294915D01*
X146328671Y-84299573D01*
X146326836Y-84300113D01*
X146324929Y-84300300D01*
X146275672Y-84315171D01*
X146226427Y-84329665D01*
X146224733Y-84330551D01*
X146222897Y-84331105D01*
X146177497Y-84355245D01*
X146131976Y-84379043D01*
X146130483Y-84380243D01*
X146128793Y-84381142D01*
X146088964Y-84413625D01*
X146048914Y-84445826D01*
X146047684Y-84447292D01*
X146046199Y-84448503D01*
X146013415Y-84488132D01*
X145980406Y-84527472D01*
X145979484Y-84529149D01*
X145978263Y-84530625D01*
X145953844Y-84575787D01*
X145929060Y-84620868D01*
X145928480Y-84622697D01*
X145927571Y-84624378D01*
X145912384Y-84673439D01*
X145896834Y-84722459D01*
X145896621Y-84724360D01*
X145896054Y-84726191D01*
X145890679Y-84777325D01*
X145884953Y-84828375D01*
X145884927Y-84832050D01*
X145884913Y-84832188D01*
X145884926Y-84832326D01*
X145884900Y-84836000D01*
X133588000Y-84836000D01*
X129358435Y-84836000D01*
X129367777Y-84733345D01*
X129367504Y-84694318D01*
X129367777Y-84655291D01*
X129367190Y-84649308D01*
X129354776Y-84531200D01*
X133588000Y-84531200D01*
X133740400Y-84378800D01*
X133740400Y-81456600D01*
X162002400Y-81456600D01*
X162002400Y-82681000D01*
M02*
