G04 #@! TF.FileFunction,Legend,Top*
%FSLAX46Y46*%
G04 Gerber Fmt 4.6, Leading zero omitted, Abs format (unit mm)*
G04 Created by KiCad (PCBNEW 4.0.7-e2-6376~58~ubuntu16.04.1) date Mon Nov  6 13:34:28 2017*
%MOMM*%
%LPD*%
G01*
G04 APERTURE LIST*
%ADD10C,0.100000*%
%ADD11C,0.150000*%
%ADD12C,0.300000*%
%ADD13C,0.010000*%
%ADD14R,10.400000X7.400000*%
%ADD15O,7.250000X4.450000*%
%ADD16C,3.600000*%
G04 APERTURE END LIST*
D10*
D11*
X140815786Y-81921321D02*
X141087929Y-83064321D01*
X141305643Y-82247893D01*
X141523357Y-83064321D01*
X141795500Y-81921321D01*
X142720786Y-83064321D02*
X142720786Y-82465607D01*
X142666357Y-82356750D01*
X142557500Y-82302321D01*
X142339786Y-82302321D01*
X142230929Y-82356750D01*
X142720786Y-83009893D02*
X142611929Y-83064321D01*
X142339786Y-83064321D01*
X142230929Y-83009893D01*
X142176500Y-82901036D01*
X142176500Y-82792179D01*
X142230929Y-82683321D01*
X142339786Y-82628893D01*
X142611929Y-82628893D01*
X142720786Y-82574464D01*
X143265072Y-83064321D02*
X143265072Y-82302321D01*
X143265072Y-82520036D02*
X143319500Y-82411179D01*
X143373929Y-82356750D01*
X143482786Y-82302321D01*
X143591643Y-82302321D01*
X143972643Y-82302321D02*
X143972643Y-83064321D01*
X143972643Y-82411179D02*
X144027071Y-82356750D01*
X144135929Y-82302321D01*
X144299214Y-82302321D01*
X144408071Y-82356750D01*
X144462500Y-82465607D01*
X144462500Y-83064321D01*
X145006786Y-83064321D02*
X145006786Y-82302321D01*
X145006786Y-81921321D02*
X144952357Y-81975750D01*
X145006786Y-82030179D01*
X145061214Y-81975750D01*
X145006786Y-81921321D01*
X145006786Y-82030179D01*
X145551072Y-82302321D02*
X145551072Y-83064321D01*
X145551072Y-82411179D02*
X145605500Y-82356750D01*
X145714358Y-82302321D01*
X145877643Y-82302321D01*
X145986500Y-82356750D01*
X146040929Y-82465607D01*
X146040929Y-83064321D01*
X147075072Y-82302321D02*
X147075072Y-83227607D01*
X147020643Y-83336464D01*
X146966215Y-83390893D01*
X146857358Y-83445321D01*
X146694072Y-83445321D01*
X146585215Y-83390893D01*
X147075072Y-83009893D02*
X146966215Y-83064321D01*
X146748501Y-83064321D01*
X146639643Y-83009893D01*
X146585215Y-82955464D01*
X146530786Y-82846607D01*
X146530786Y-82520036D01*
X146585215Y-82411179D01*
X146639643Y-82356750D01*
X146748501Y-82302321D01*
X146966215Y-82302321D01*
X147075072Y-82356750D01*
X147619358Y-82955464D02*
X147673786Y-83009893D01*
X147619358Y-83064321D01*
X147564929Y-83009893D01*
X147619358Y-82955464D01*
X147619358Y-83064321D01*
X147619358Y-82628893D02*
X147564929Y-81975750D01*
X147619358Y-81921321D01*
X147673786Y-81975750D01*
X147619358Y-82628893D01*
X147619358Y-81921321D01*
X140543643Y-83785821D02*
X141196786Y-83785821D01*
X140870215Y-84928821D02*
X140870215Y-83785821D01*
X141577786Y-84928821D02*
X141577786Y-83785821D01*
X142067643Y-84928821D02*
X142067643Y-84330107D01*
X142013214Y-84221250D01*
X141904357Y-84166821D01*
X141741072Y-84166821D01*
X141632214Y-84221250D01*
X141577786Y-84275679D01*
X142611929Y-84928821D02*
X142611929Y-84166821D01*
X142611929Y-83785821D02*
X142557500Y-83840250D01*
X142611929Y-83894679D01*
X142666357Y-83840250D01*
X142611929Y-83785821D01*
X142611929Y-83894679D01*
X143101786Y-84874393D02*
X143210643Y-84928821D01*
X143428358Y-84928821D01*
X143537215Y-84874393D01*
X143591643Y-84765536D01*
X143591643Y-84711107D01*
X143537215Y-84602250D01*
X143428358Y-84547821D01*
X143265072Y-84547821D01*
X143156215Y-84493393D01*
X143101786Y-84384536D01*
X143101786Y-84330107D01*
X143156215Y-84221250D01*
X143265072Y-84166821D01*
X143428358Y-84166821D01*
X143537215Y-84221250D01*
X144952358Y-84928821D02*
X144952358Y-83785821D01*
X145387786Y-83785821D01*
X145496644Y-83840250D01*
X145551072Y-83894679D01*
X145605501Y-84003536D01*
X145605501Y-84166821D01*
X145551072Y-84275679D01*
X145496644Y-84330107D01*
X145387786Y-84384536D01*
X144952358Y-84384536D01*
X146748501Y-84819964D02*
X146694072Y-84874393D01*
X146530786Y-84928821D01*
X146421929Y-84928821D01*
X146258644Y-84874393D01*
X146149786Y-84765536D01*
X146095358Y-84656679D01*
X146040929Y-84438964D01*
X146040929Y-84275679D01*
X146095358Y-84057964D01*
X146149786Y-83949107D01*
X146258644Y-83840250D01*
X146421929Y-83785821D01*
X146530786Y-83785821D01*
X146694072Y-83840250D01*
X146748501Y-83894679D01*
X147619358Y-84330107D02*
X147782644Y-84384536D01*
X147837072Y-84438964D01*
X147891501Y-84547821D01*
X147891501Y-84711107D01*
X147837072Y-84819964D01*
X147782644Y-84874393D01*
X147673786Y-84928821D01*
X147238358Y-84928821D01*
X147238358Y-83785821D01*
X147619358Y-83785821D01*
X147728215Y-83840250D01*
X147782644Y-83894679D01*
X147837072Y-84003536D01*
X147837072Y-84112393D01*
X147782644Y-84221250D01*
X147728215Y-84275679D01*
X147619358Y-84330107D01*
X147238358Y-84330107D01*
X141006287Y-86793321D02*
X141006287Y-86031321D01*
X141006287Y-86249036D02*
X141060715Y-86140179D01*
X141115144Y-86085750D01*
X141224001Y-86031321D01*
X141332858Y-86031321D01*
X142149286Y-86738893D02*
X142040429Y-86793321D01*
X141822715Y-86793321D01*
X141713858Y-86738893D01*
X141659429Y-86630036D01*
X141659429Y-86194607D01*
X141713858Y-86085750D01*
X141822715Y-86031321D01*
X142040429Y-86031321D01*
X142149286Y-86085750D01*
X142203715Y-86194607D01*
X142203715Y-86303464D01*
X141659429Y-86412321D01*
X142584715Y-86031321D02*
X142856858Y-86793321D01*
X143129000Y-86031321D01*
X143999857Y-86738893D02*
X143891000Y-86793321D01*
X143673286Y-86793321D01*
X143564429Y-86738893D01*
X143510000Y-86630036D01*
X143510000Y-86194607D01*
X143564429Y-86085750D01*
X143673286Y-86031321D01*
X143891000Y-86031321D01*
X143999857Y-86085750D01*
X144054286Y-86194607D01*
X144054286Y-86303464D01*
X143510000Y-86412321D01*
X144544143Y-86793321D02*
X144544143Y-86031321D01*
X144544143Y-86249036D02*
X144598571Y-86140179D01*
X144653000Y-86085750D01*
X144761857Y-86031321D01*
X144870714Y-86031321D01*
X145197285Y-86738893D02*
X145306142Y-86793321D01*
X145523857Y-86793321D01*
X145632714Y-86738893D01*
X145687142Y-86630036D01*
X145687142Y-86575607D01*
X145632714Y-86466750D01*
X145523857Y-86412321D01*
X145360571Y-86412321D01*
X145251714Y-86357893D01*
X145197285Y-86249036D01*
X145197285Y-86194607D01*
X145251714Y-86085750D01*
X145360571Y-86031321D01*
X145523857Y-86031321D01*
X145632714Y-86085750D01*
X146612428Y-86738893D02*
X146503571Y-86793321D01*
X146285857Y-86793321D01*
X146177000Y-86738893D01*
X146122571Y-86630036D01*
X146122571Y-86194607D01*
X146177000Y-86085750D01*
X146285857Y-86031321D01*
X146503571Y-86031321D01*
X146612428Y-86085750D01*
X146666857Y-86194607D01*
X146666857Y-86303464D01*
X146122571Y-86412321D01*
X147102285Y-86738893D02*
X147211142Y-86793321D01*
X147428857Y-86793321D01*
X147537714Y-86738893D01*
X147592142Y-86630036D01*
X147592142Y-86575607D01*
X147537714Y-86466750D01*
X147428857Y-86412321D01*
X147265571Y-86412321D01*
X147156714Y-86357893D01*
X147102285Y-86249036D01*
X147102285Y-86194607D01*
X147156714Y-86085750D01*
X147265571Y-86031321D01*
X147428857Y-86031321D01*
X147537714Y-86085750D01*
X139373429Y-87895821D02*
X139808858Y-87895821D01*
X139536715Y-87514821D02*
X139536715Y-88494536D01*
X139591143Y-88603393D01*
X139700001Y-88657821D01*
X139808858Y-88657821D01*
X140189858Y-88657821D02*
X140189858Y-87514821D01*
X140679715Y-88657821D02*
X140679715Y-88059107D01*
X140625286Y-87950250D01*
X140516429Y-87895821D01*
X140353144Y-87895821D01*
X140244286Y-87950250D01*
X140189858Y-88004679D01*
X141659429Y-88603393D02*
X141550572Y-88657821D01*
X141332858Y-88657821D01*
X141224001Y-88603393D01*
X141169572Y-88494536D01*
X141169572Y-88059107D01*
X141224001Y-87950250D01*
X141332858Y-87895821D01*
X141550572Y-87895821D01*
X141659429Y-87950250D01*
X141713858Y-88059107D01*
X141713858Y-88167964D01*
X141169572Y-88276821D01*
X143074572Y-87895821D02*
X143074572Y-89038821D01*
X143074572Y-87950250D02*
X143183429Y-87895821D01*
X143401143Y-87895821D01*
X143510000Y-87950250D01*
X143564429Y-88004679D01*
X143618858Y-88113536D01*
X143618858Y-88440107D01*
X143564429Y-88548964D01*
X143510000Y-88603393D01*
X143401143Y-88657821D01*
X143183429Y-88657821D01*
X143074572Y-88603393D01*
X144272001Y-88657821D02*
X144163143Y-88603393D01*
X144108715Y-88548964D01*
X144054286Y-88440107D01*
X144054286Y-88113536D01*
X144108715Y-88004679D01*
X144163143Y-87950250D01*
X144272001Y-87895821D01*
X144435286Y-87895821D01*
X144544143Y-87950250D01*
X144598572Y-88004679D01*
X144653001Y-88113536D01*
X144653001Y-88440107D01*
X144598572Y-88548964D01*
X144544143Y-88603393D01*
X144435286Y-88657821D01*
X144272001Y-88657821D01*
X145306144Y-88657821D02*
X145197286Y-88603393D01*
X145142858Y-88494536D01*
X145142858Y-87514821D01*
X146231429Y-88657821D02*
X146231429Y-88059107D01*
X146177000Y-87950250D01*
X146068143Y-87895821D01*
X145850429Y-87895821D01*
X145741572Y-87950250D01*
X146231429Y-88603393D02*
X146122572Y-88657821D01*
X145850429Y-88657821D01*
X145741572Y-88603393D01*
X145687143Y-88494536D01*
X145687143Y-88385679D01*
X145741572Y-88276821D01*
X145850429Y-88222393D01*
X146122572Y-88222393D01*
X146231429Y-88167964D01*
X146775715Y-88657821D02*
X146775715Y-87895821D01*
X146775715Y-88113536D02*
X146830143Y-88004679D01*
X146884572Y-87950250D01*
X146993429Y-87895821D01*
X147102286Y-87895821D01*
X147483286Y-88657821D02*
X147483286Y-87895821D01*
X147483286Y-87514821D02*
X147428857Y-87569250D01*
X147483286Y-87623679D01*
X147537714Y-87569250D01*
X147483286Y-87514821D01*
X147483286Y-87623679D01*
X147864286Y-87895821D02*
X148299715Y-87895821D01*
X148027572Y-87514821D02*
X148027572Y-88494536D01*
X148082000Y-88603393D01*
X148190858Y-88657821D01*
X148299715Y-88657821D01*
X148571858Y-87895821D02*
X148844001Y-88657821D01*
X149116143Y-87895821D02*
X148844001Y-88657821D01*
X148735143Y-88929964D01*
X148680715Y-88984393D01*
X148571858Y-89038821D01*
D12*
X151827571Y-93054857D02*
X153041857Y-93054857D01*
X153184714Y-92983429D01*
X153256143Y-92912000D01*
X153327571Y-92769143D01*
X153327571Y-92483429D01*
X153256143Y-92340571D01*
X153184714Y-92269143D01*
X153041857Y-92197714D01*
X151827571Y-92197714D01*
X153256143Y-91554857D02*
X153327571Y-91340571D01*
X153327571Y-90983428D01*
X153256143Y-90840571D01*
X153184714Y-90769142D01*
X153041857Y-90697714D01*
X152899000Y-90697714D01*
X152756143Y-90769142D01*
X152684714Y-90840571D01*
X152613286Y-90983428D01*
X152541857Y-91269142D01*
X152470429Y-91412000D01*
X152399000Y-91483428D01*
X152256143Y-91554857D01*
X152113286Y-91554857D01*
X151970429Y-91483428D01*
X151899000Y-91412000D01*
X151827571Y-91269142D01*
X151827571Y-90912000D01*
X151899000Y-90697714D01*
X152541857Y-89554857D02*
X152613286Y-89340571D01*
X152684714Y-89269143D01*
X152827571Y-89197714D01*
X153041857Y-89197714D01*
X153184714Y-89269143D01*
X153256143Y-89340571D01*
X153327571Y-89483429D01*
X153327571Y-90054857D01*
X151827571Y-90054857D01*
X151827571Y-89554857D01*
X151899000Y-89412000D01*
X151970429Y-89340571D01*
X152113286Y-89269143D01*
X152256143Y-89269143D01*
X152399000Y-89340571D01*
X152470429Y-89412000D01*
X152541857Y-89554857D01*
X152541857Y-90054857D01*
X153327571Y-88554857D02*
X151827571Y-88554857D01*
X151827571Y-87983429D01*
X151899000Y-87840571D01*
X151970429Y-87769143D01*
X152113286Y-87697714D01*
X152327571Y-87697714D01*
X152470429Y-87769143D01*
X152541857Y-87840571D01*
X152613286Y-87983429D01*
X152613286Y-88554857D01*
X153327571Y-87054857D02*
X151827571Y-87054857D01*
X151827571Y-86697714D01*
X151899000Y-86483429D01*
X152041857Y-86340571D01*
X152184714Y-86269143D01*
X152470429Y-86197714D01*
X152684714Y-86197714D01*
X152970429Y-86269143D01*
X153113286Y-86340571D01*
X153256143Y-86483429D01*
X153327571Y-86697714D01*
X153327571Y-87054857D01*
X155734714Y-93911999D02*
X155806143Y-93983428D01*
X155877571Y-94197714D01*
X155877571Y-94340571D01*
X155806143Y-94554856D01*
X155663286Y-94697714D01*
X155520429Y-94769142D01*
X155234714Y-94840571D01*
X155020429Y-94840571D01*
X154734714Y-94769142D01*
X154591857Y-94697714D01*
X154449000Y-94554856D01*
X154377571Y-94340571D01*
X154377571Y-94197714D01*
X154449000Y-93983428D01*
X154520429Y-93911999D01*
X155877571Y-93269142D02*
X154877571Y-93269142D01*
X155163286Y-93269142D02*
X155020429Y-93197714D01*
X154949000Y-93126285D01*
X154877571Y-92983428D01*
X154877571Y-92840571D01*
X155877571Y-92126285D02*
X155806143Y-92269143D01*
X155734714Y-92340571D01*
X155591857Y-92412000D01*
X155163286Y-92412000D01*
X155020429Y-92340571D01*
X154949000Y-92269143D01*
X154877571Y-92126285D01*
X154877571Y-91912000D01*
X154949000Y-91769143D01*
X155020429Y-91697714D01*
X155163286Y-91626285D01*
X155591857Y-91626285D01*
X155734714Y-91697714D01*
X155806143Y-91769143D01*
X155877571Y-91912000D01*
X155877571Y-92126285D01*
X155806143Y-91054857D02*
X155877571Y-90912000D01*
X155877571Y-90626285D01*
X155806143Y-90483428D01*
X155663286Y-90412000D01*
X155591857Y-90412000D01*
X155449000Y-90483428D01*
X155377571Y-90626285D01*
X155377571Y-90840571D01*
X155306143Y-90983428D01*
X155163286Y-91054857D01*
X155091857Y-91054857D01*
X154949000Y-90983428D01*
X154877571Y-90840571D01*
X154877571Y-90626285D01*
X154949000Y-90483428D01*
X155806143Y-89840571D02*
X155877571Y-89697714D01*
X155877571Y-89411999D01*
X155806143Y-89269142D01*
X155663286Y-89197714D01*
X155591857Y-89197714D01*
X155449000Y-89269142D01*
X155377571Y-89411999D01*
X155377571Y-89626285D01*
X155306143Y-89769142D01*
X155163286Y-89840571D01*
X155091857Y-89840571D01*
X154949000Y-89769142D01*
X154877571Y-89626285D01*
X154877571Y-89411999D01*
X154949000Y-89269142D01*
X155877571Y-88340570D02*
X155806143Y-88483428D01*
X155734714Y-88554856D01*
X155591857Y-88626285D01*
X155163286Y-88626285D01*
X155020429Y-88554856D01*
X154949000Y-88483428D01*
X154877571Y-88340570D01*
X154877571Y-88126285D01*
X154949000Y-87983428D01*
X155020429Y-87911999D01*
X155163286Y-87840570D01*
X155591857Y-87840570D01*
X155734714Y-87911999D01*
X155806143Y-87983428D01*
X155877571Y-88126285D01*
X155877571Y-88340570D01*
X154877571Y-87340570D02*
X155877571Y-86983427D01*
X154877571Y-86626285D01*
X155806143Y-85483428D02*
X155877571Y-85626285D01*
X155877571Y-85911999D01*
X155806143Y-86054856D01*
X155663286Y-86126285D01*
X155091857Y-86126285D01*
X154949000Y-86054856D01*
X154877571Y-85911999D01*
X154877571Y-85626285D01*
X154949000Y-85483428D01*
X155091857Y-85411999D01*
X155234714Y-85411999D01*
X155377571Y-86126285D01*
X155877571Y-84769142D02*
X154877571Y-84769142D01*
X155163286Y-84769142D02*
X155020429Y-84697714D01*
X154949000Y-84626285D01*
X154877571Y-84483428D01*
X154877571Y-84340571D01*
D11*
X139307715Y-95698571D02*
X139807715Y-97198571D01*
X140307715Y-95698571D01*
X141379143Y-97127143D02*
X141236286Y-97198571D01*
X140950572Y-97198571D01*
X140807715Y-97127143D01*
X140736286Y-96984286D01*
X140736286Y-96412857D01*
X140807715Y-96270000D01*
X140950572Y-96198571D01*
X141236286Y-96198571D01*
X141379143Y-96270000D01*
X141450572Y-96412857D01*
X141450572Y-96555714D01*
X140736286Y-96698571D01*
X142093429Y-97198571D02*
X142093429Y-96198571D01*
X142093429Y-96484286D02*
X142164857Y-96341429D01*
X142236286Y-96270000D01*
X142379143Y-96198571D01*
X142522000Y-96198571D01*
X143022000Y-97055714D02*
X143093428Y-97127143D01*
X143022000Y-97198571D01*
X142950571Y-97127143D01*
X143022000Y-97055714D01*
X143022000Y-97198571D01*
X144879143Y-97198571D02*
X144879143Y-95698571D01*
X144879143Y-96270000D02*
X145022000Y-96198571D01*
X145307714Y-96198571D01*
X145450571Y-96270000D01*
X145522000Y-96341429D01*
X145593429Y-96484286D01*
X145593429Y-96912857D01*
X145522000Y-97055714D01*
X145450571Y-97127143D01*
X145307714Y-97198571D01*
X145022000Y-97198571D01*
X144879143Y-97127143D01*
X146807714Y-97127143D02*
X146664857Y-97198571D01*
X146379143Y-97198571D01*
X146236286Y-97127143D01*
X146164857Y-96984286D01*
X146164857Y-96412857D01*
X146236286Y-96270000D01*
X146379143Y-96198571D01*
X146664857Y-96198571D01*
X146807714Y-96270000D01*
X146879143Y-96412857D01*
X146879143Y-96555714D01*
X146164857Y-96698571D01*
X147307714Y-96198571D02*
X147879143Y-96198571D01*
X147522000Y-95698571D02*
X147522000Y-96984286D01*
X147593428Y-97127143D01*
X147736286Y-97198571D01*
X147879143Y-97198571D01*
X149022000Y-97198571D02*
X149022000Y-96412857D01*
X148950571Y-96270000D01*
X148807714Y-96198571D01*
X148522000Y-96198571D01*
X148379143Y-96270000D01*
X149022000Y-97127143D02*
X148879143Y-97198571D01*
X148522000Y-97198571D01*
X148379143Y-97127143D01*
X148307714Y-96984286D01*
X148307714Y-96841429D01*
X148379143Y-96698571D01*
X148522000Y-96627143D01*
X148879143Y-96627143D01*
X149022000Y-96555714D01*
X134603964Y-92138499D02*
X134658393Y-92192928D01*
X134712821Y-92356214D01*
X134712821Y-92465071D01*
X134658393Y-92628356D01*
X134549536Y-92737214D01*
X134440679Y-92791642D01*
X134222964Y-92846071D01*
X134059679Y-92846071D01*
X133841964Y-92791642D01*
X133733107Y-92737214D01*
X133624250Y-92628356D01*
X133569821Y-92465071D01*
X133569821Y-92356214D01*
X133624250Y-92192928D01*
X133678679Y-92138499D01*
X134712821Y-91485356D02*
X134658393Y-91594214D01*
X134603964Y-91648642D01*
X134495107Y-91703071D01*
X134168536Y-91703071D01*
X134059679Y-91648642D01*
X134005250Y-91594214D01*
X133950821Y-91485356D01*
X133950821Y-91322071D01*
X134005250Y-91213214D01*
X134059679Y-91158785D01*
X134168536Y-91104356D01*
X134495107Y-91104356D01*
X134603964Y-91158785D01*
X134658393Y-91213214D01*
X134712821Y-91322071D01*
X134712821Y-91485356D01*
X133950821Y-90723356D02*
X134712821Y-90451213D01*
X133950821Y-90179071D01*
X134658393Y-89308214D02*
X134712821Y-89417071D01*
X134712821Y-89634785D01*
X134658393Y-89743642D01*
X134549536Y-89798071D01*
X134114107Y-89798071D01*
X134005250Y-89743642D01*
X133950821Y-89634785D01*
X133950821Y-89417071D01*
X134005250Y-89308214D01*
X134114107Y-89253785D01*
X134222964Y-89253785D01*
X134331821Y-89798071D01*
X134712821Y-88763928D02*
X133950821Y-88763928D01*
X134168536Y-88763928D02*
X134059679Y-88709500D01*
X134005250Y-88655071D01*
X133950821Y-88546214D01*
X133950821Y-88437357D01*
X134712821Y-87185500D02*
X133950821Y-87185500D01*
X133569821Y-87185500D02*
X133624250Y-87239929D01*
X133678679Y-87185500D01*
X133624250Y-87131072D01*
X133569821Y-87185500D01*
X133678679Y-87185500D01*
X133950821Y-86804500D02*
X133950821Y-86369071D01*
X134712821Y-86641214D02*
X133733107Y-86641214D01*
X133624250Y-86586786D01*
X133569821Y-86477928D01*
X133569821Y-86369071D01*
X135815321Y-91920786D02*
X136577321Y-91920786D01*
X135815321Y-92410643D02*
X136414036Y-92410643D01*
X136522893Y-92356215D01*
X136577321Y-92247357D01*
X136577321Y-92084072D01*
X136522893Y-91975215D01*
X136468464Y-91920786D01*
X135815321Y-91376500D02*
X136577321Y-91376500D01*
X135924179Y-91376500D02*
X135869750Y-91322072D01*
X135815321Y-91213214D01*
X135815321Y-91049929D01*
X135869750Y-90941072D01*
X135978607Y-90886643D01*
X136577321Y-90886643D01*
X135815321Y-89852500D02*
X136577321Y-89852500D01*
X135815321Y-90342357D02*
X136414036Y-90342357D01*
X136522893Y-90287929D01*
X136577321Y-90179071D01*
X136577321Y-90015786D01*
X136522893Y-89906929D01*
X136468464Y-89852500D01*
X136522893Y-89362643D02*
X136577321Y-89253786D01*
X136577321Y-89036071D01*
X136522893Y-88927214D01*
X136414036Y-88872786D01*
X136359607Y-88872786D01*
X136250750Y-88927214D01*
X136196321Y-89036071D01*
X136196321Y-89199357D01*
X136141893Y-89308214D01*
X136033036Y-89362643D01*
X135978607Y-89362643D01*
X135869750Y-89308214D01*
X135815321Y-89199357D01*
X135815321Y-89036071D01*
X135869750Y-88927214D01*
X136522893Y-87947500D02*
X136577321Y-88056357D01*
X136577321Y-88274071D01*
X136522893Y-88382928D01*
X136414036Y-88437357D01*
X135978607Y-88437357D01*
X135869750Y-88382928D01*
X135815321Y-88274071D01*
X135815321Y-88056357D01*
X135869750Y-87947500D01*
X135978607Y-87893071D01*
X136087464Y-87893071D01*
X136196321Y-88437357D01*
X136577321Y-86913357D02*
X135434321Y-86913357D01*
X136522893Y-86913357D02*
X136577321Y-87022214D01*
X136577321Y-87239928D01*
X136522893Y-87348786D01*
X136468464Y-87403214D01*
X136359607Y-87457643D01*
X136033036Y-87457643D01*
X135924179Y-87403214D01*
X135869750Y-87348786D01*
X135815321Y-87239928D01*
X135815321Y-87022214D01*
X135869750Y-86913357D01*
X160003964Y-91884499D02*
X160058393Y-91938928D01*
X160112821Y-92102214D01*
X160112821Y-92211071D01*
X160058393Y-92374356D01*
X159949536Y-92483214D01*
X159840679Y-92537642D01*
X159622964Y-92592071D01*
X159459679Y-92592071D01*
X159241964Y-92537642D01*
X159133107Y-92483214D01*
X159024250Y-92374356D01*
X158969821Y-92211071D01*
X158969821Y-92102214D01*
X159024250Y-91938928D01*
X159078679Y-91884499D01*
X160112821Y-91231356D02*
X160058393Y-91340214D01*
X160003964Y-91394642D01*
X159895107Y-91449071D01*
X159568536Y-91449071D01*
X159459679Y-91394642D01*
X159405250Y-91340214D01*
X159350821Y-91231356D01*
X159350821Y-91068071D01*
X159405250Y-90959214D01*
X159459679Y-90904785D01*
X159568536Y-90850356D01*
X159895107Y-90850356D01*
X160003964Y-90904785D01*
X160058393Y-90959214D01*
X160112821Y-91068071D01*
X160112821Y-91231356D01*
X159350821Y-90469356D02*
X160112821Y-90197213D01*
X159350821Y-89925071D01*
X160058393Y-89054214D02*
X160112821Y-89163071D01*
X160112821Y-89380785D01*
X160058393Y-89489642D01*
X159949536Y-89544071D01*
X159514107Y-89544071D01*
X159405250Y-89489642D01*
X159350821Y-89380785D01*
X159350821Y-89163071D01*
X159405250Y-89054214D01*
X159514107Y-88999785D01*
X159622964Y-88999785D01*
X159731821Y-89544071D01*
X160112821Y-88509928D02*
X159350821Y-88509928D01*
X159568536Y-88509928D02*
X159459679Y-88455500D01*
X159405250Y-88401071D01*
X159350821Y-88292214D01*
X159350821Y-88183357D01*
X160112821Y-86931500D02*
X159350821Y-86931500D01*
X158969821Y-86931500D02*
X159024250Y-86985929D01*
X159078679Y-86931500D01*
X159024250Y-86877072D01*
X158969821Y-86931500D01*
X159078679Y-86931500D01*
X159350821Y-86550500D02*
X159350821Y-86115071D01*
X160112821Y-86387214D02*
X159133107Y-86387214D01*
X159024250Y-86332786D01*
X158969821Y-86223928D01*
X158969821Y-86115071D01*
X161215321Y-91666786D02*
X161977321Y-91666786D01*
X161215321Y-92156643D02*
X161814036Y-92156643D01*
X161922893Y-92102215D01*
X161977321Y-91993357D01*
X161977321Y-91830072D01*
X161922893Y-91721215D01*
X161868464Y-91666786D01*
X161215321Y-91122500D02*
X161977321Y-91122500D01*
X161324179Y-91122500D02*
X161269750Y-91068072D01*
X161215321Y-90959214D01*
X161215321Y-90795929D01*
X161269750Y-90687072D01*
X161378607Y-90632643D01*
X161977321Y-90632643D01*
X161215321Y-89598500D02*
X161977321Y-89598500D01*
X161215321Y-90088357D02*
X161814036Y-90088357D01*
X161922893Y-90033929D01*
X161977321Y-89925071D01*
X161977321Y-89761786D01*
X161922893Y-89652929D01*
X161868464Y-89598500D01*
X161922893Y-89108643D02*
X161977321Y-88999786D01*
X161977321Y-88782071D01*
X161922893Y-88673214D01*
X161814036Y-88618786D01*
X161759607Y-88618786D01*
X161650750Y-88673214D01*
X161596321Y-88782071D01*
X161596321Y-88945357D01*
X161541893Y-89054214D01*
X161433036Y-89108643D01*
X161378607Y-89108643D01*
X161269750Y-89054214D01*
X161215321Y-88945357D01*
X161215321Y-88782071D01*
X161269750Y-88673214D01*
X161922893Y-87693500D02*
X161977321Y-87802357D01*
X161977321Y-88020071D01*
X161922893Y-88128928D01*
X161814036Y-88183357D01*
X161378607Y-88183357D01*
X161269750Y-88128928D01*
X161215321Y-88020071D01*
X161215321Y-87802357D01*
X161269750Y-87693500D01*
X161378607Y-87639071D01*
X161487464Y-87639071D01*
X161596321Y-88183357D01*
X161977321Y-86659357D02*
X160834321Y-86659357D01*
X161922893Y-86659357D02*
X161977321Y-86768214D01*
X161977321Y-86985928D01*
X161922893Y-87094786D01*
X161868464Y-87149214D01*
X161759607Y-87203643D01*
X161433036Y-87203643D01*
X161324179Y-87149214D01*
X161269750Y-87094786D01*
X161215321Y-86985928D01*
X161215321Y-86768214D01*
X161269750Y-86659357D01*
D12*
X134302572Y-94341143D02*
X135445429Y-94341143D01*
X134874000Y-94912571D02*
X134874000Y-93769714D01*
X134302572Y-84689143D02*
X135445429Y-84689143D01*
X159956572Y-94341143D02*
X161099429Y-94341143D01*
X159956572Y-84689143D02*
X161099429Y-84689143D01*
X160528000Y-85260571D02*
X160528000Y-84117714D01*
D13*
G36*
X142797654Y-93116364D02*
X142798155Y-93131820D01*
X142797881Y-93144867D01*
X142796272Y-93157341D01*
X142792768Y-93171078D01*
X142786806Y-93187914D01*
X142777828Y-93209686D01*
X142765271Y-93238230D01*
X142750188Y-93271803D01*
X142735530Y-93303158D01*
X142723892Y-93325167D01*
X142714506Y-93339118D01*
X142706603Y-93346299D01*
X142705377Y-93346928D01*
X142698402Y-93349757D01*
X142689105Y-93352790D01*
X142676511Y-93356238D01*
X142659642Y-93360309D01*
X142637523Y-93365216D01*
X142609177Y-93371166D01*
X142573629Y-93378371D01*
X142529903Y-93387041D01*
X142477021Y-93397385D01*
X142414978Y-93409427D01*
X142367326Y-93418702D01*
X142322410Y-93427539D01*
X142281620Y-93435659D01*
X142246351Y-93442779D01*
X142217991Y-93448620D01*
X142197935Y-93452899D01*
X142187573Y-93455336D01*
X142187568Y-93455337D01*
X142166181Y-93461364D01*
X142167813Y-93711750D01*
X142168223Y-93763838D01*
X142168743Y-93812403D01*
X142169351Y-93856292D01*
X142170023Y-93894349D01*
X142170737Y-93925420D01*
X142171471Y-93948352D01*
X142172204Y-93961988D01*
X142172722Y-93965409D01*
X142179265Y-93967778D01*
X142196013Y-93971939D01*
X142223099Y-93977919D01*
X142260655Y-93985746D01*
X142308813Y-93995447D01*
X142367705Y-94007048D01*
X142437464Y-94020577D01*
X142507447Y-94034003D01*
X142549683Y-94042247D01*
X142588957Y-94050245D01*
X142623712Y-94057652D01*
X142652391Y-94064127D01*
X142673435Y-94069326D01*
X142685288Y-94072905D01*
X142686537Y-94073457D01*
X142694225Y-94079212D01*
X142702664Y-94089373D01*
X142712316Y-94104868D01*
X142723642Y-94126625D01*
X142737104Y-94155572D01*
X142753165Y-94192638D01*
X142772287Y-94238751D01*
X142787508Y-94276334D01*
X142811614Y-94336699D01*
X142831500Y-94387491D01*
X142847444Y-94429491D01*
X142859721Y-94463480D01*
X142868606Y-94490239D01*
X142874377Y-94510550D01*
X142877308Y-94525196D01*
X142877822Y-94532034D01*
X142876829Y-94541875D01*
X142873489Y-94553641D01*
X142867261Y-94568253D01*
X142857603Y-94586635D01*
X142843975Y-94609709D01*
X142825834Y-94638398D01*
X142802641Y-94673624D01*
X142773853Y-94716311D01*
X142744729Y-94758934D01*
X142720319Y-94794533D01*
X142695746Y-94830406D01*
X142672470Y-94864422D01*
X142651949Y-94894447D01*
X142635640Y-94918352D01*
X142629587Y-94927245D01*
X142593833Y-94979845D01*
X142635595Y-95023200D01*
X142672908Y-95061766D01*
X142711372Y-95101209D01*
X142749865Y-95140404D01*
X142787263Y-95178222D01*
X142822444Y-95213538D01*
X142854285Y-95245223D01*
X142881663Y-95272151D01*
X142903456Y-95293194D01*
X142918498Y-95307189D01*
X142956352Y-95341037D01*
X143144276Y-95214414D01*
X143200460Y-95176679D01*
X143247958Y-95145059D01*
X143287332Y-95119196D01*
X143319148Y-95098734D01*
X143343969Y-95083318D01*
X143362359Y-95072590D01*
X143374882Y-95066195D01*
X143382102Y-95063775D01*
X143382775Y-95063734D01*
X143384720Y-95068670D01*
X143385369Y-95080694D01*
X143385342Y-95082078D01*
X143384858Y-95087236D01*
X143383072Y-95092312D01*
X143379054Y-95098029D01*
X143371874Y-95105112D01*
X143360601Y-95114287D01*
X143344305Y-95126277D01*
X143322056Y-95141806D01*
X143292924Y-95161600D01*
X143255978Y-95186383D01*
X143224100Y-95207667D01*
X143164762Y-95247217D01*
X143114166Y-95280858D01*
X143071693Y-95308991D01*
X143036724Y-95332018D01*
X143008642Y-95350341D01*
X142986828Y-95364360D01*
X142970662Y-95374477D01*
X142959527Y-95381095D01*
X142952803Y-95384613D01*
X142950128Y-95385467D01*
X142944709Y-95381759D01*
X142932500Y-95371442D01*
X142914857Y-95355722D01*
X142893136Y-95335809D01*
X142868690Y-95312909D01*
X142867830Y-95312096D01*
X142843859Y-95289053D01*
X142816246Y-95261927D01*
X142785964Y-95231726D01*
X142753987Y-95199461D01*
X142721288Y-95166141D01*
X142688839Y-95132774D01*
X142657614Y-95100372D01*
X142628586Y-95069943D01*
X142602728Y-95042497D01*
X142581012Y-95019044D01*
X142564413Y-95000592D01*
X142553903Y-94988152D01*
X142550445Y-94982823D01*
X142553493Y-94976562D01*
X142562034Y-94962407D01*
X142575168Y-94941764D01*
X142591989Y-94916041D01*
X142611597Y-94886644D01*
X142622411Y-94870644D01*
X142667821Y-94803664D01*
X142707154Y-94745455D01*
X142740748Y-94695499D01*
X142768942Y-94653279D01*
X142792075Y-94618278D01*
X142810484Y-94589977D01*
X142824509Y-94567858D01*
X142834487Y-94551405D01*
X142840758Y-94540099D01*
X142843659Y-94533424D01*
X142843956Y-94531792D01*
X142841830Y-94522124D01*
X142835847Y-94503547D01*
X142826595Y-94477527D01*
X142814666Y-94445530D01*
X142800649Y-94409024D01*
X142785135Y-94369474D01*
X142768713Y-94328347D01*
X142751973Y-94287109D01*
X142735506Y-94247227D01*
X142719902Y-94210167D01*
X142705750Y-94177396D01*
X142693641Y-94150380D01*
X142684164Y-94130585D01*
X142678241Y-94119956D01*
X142676032Y-94116270D01*
X142674297Y-94113139D01*
X142672226Y-94110370D01*
X142669013Y-94107770D01*
X142663850Y-94105148D01*
X142655928Y-94102310D01*
X142644441Y-94099064D01*
X142628580Y-94095217D01*
X142607538Y-94090577D01*
X142580507Y-94084951D01*
X142546680Y-94078147D01*
X142505248Y-94069972D01*
X142455404Y-94060233D01*
X142396340Y-94048737D01*
X142327248Y-94035293D01*
X142304911Y-94030942D01*
X142263434Y-94022634D01*
X142225894Y-94014681D01*
X142193736Y-94007421D01*
X142168402Y-94001191D01*
X142151333Y-93996330D01*
X142144045Y-93993248D01*
X142141872Y-93985702D01*
X142139904Y-93968251D01*
X142138150Y-93942242D01*
X142136618Y-93909020D01*
X142135317Y-93869931D01*
X142134257Y-93826321D01*
X142133445Y-93779536D01*
X142132890Y-93730921D01*
X142132603Y-93681821D01*
X142132590Y-93633584D01*
X142132862Y-93587554D01*
X142133427Y-93545077D01*
X142134294Y-93507499D01*
X142135471Y-93476166D01*
X142136968Y-93452423D01*
X142138793Y-93437617D01*
X142140370Y-93433196D01*
X142148701Y-93429851D01*
X142167506Y-93424689D01*
X142196140Y-93417846D01*
X142233957Y-93409463D01*
X142280314Y-93399676D01*
X142334565Y-93388625D01*
X142396067Y-93376447D01*
X142464173Y-93363282D01*
X142482711Y-93359747D01*
X142519165Y-93352704D01*
X142556815Y-93345242D01*
X142592082Y-93338081D01*
X142621382Y-93331944D01*
X142631327Y-93329784D01*
X142686810Y-93317533D01*
X142705142Y-93280467D01*
X142713937Y-93261983D01*
X142725829Y-93236011D01*
X142739509Y-93205459D01*
X142753668Y-93173232D01*
X142759726Y-93159239D01*
X142795978Y-93075077D01*
X142797654Y-93116364D01*
X142797654Y-93116364D01*
G37*
X142797654Y-93116364D02*
X142798155Y-93131820D01*
X142797881Y-93144867D01*
X142796272Y-93157341D01*
X142792768Y-93171078D01*
X142786806Y-93187914D01*
X142777828Y-93209686D01*
X142765271Y-93238230D01*
X142750188Y-93271803D01*
X142735530Y-93303158D01*
X142723892Y-93325167D01*
X142714506Y-93339118D01*
X142706603Y-93346299D01*
X142705377Y-93346928D01*
X142698402Y-93349757D01*
X142689105Y-93352790D01*
X142676511Y-93356238D01*
X142659642Y-93360309D01*
X142637523Y-93365216D01*
X142609177Y-93371166D01*
X142573629Y-93378371D01*
X142529903Y-93387041D01*
X142477021Y-93397385D01*
X142414978Y-93409427D01*
X142367326Y-93418702D01*
X142322410Y-93427539D01*
X142281620Y-93435659D01*
X142246351Y-93442779D01*
X142217991Y-93448620D01*
X142197935Y-93452899D01*
X142187573Y-93455336D01*
X142187568Y-93455337D01*
X142166181Y-93461364D01*
X142167813Y-93711750D01*
X142168223Y-93763838D01*
X142168743Y-93812403D01*
X142169351Y-93856292D01*
X142170023Y-93894349D01*
X142170737Y-93925420D01*
X142171471Y-93948352D01*
X142172204Y-93961988D01*
X142172722Y-93965409D01*
X142179265Y-93967778D01*
X142196013Y-93971939D01*
X142223099Y-93977919D01*
X142260655Y-93985746D01*
X142308813Y-93995447D01*
X142367705Y-94007048D01*
X142437464Y-94020577D01*
X142507447Y-94034003D01*
X142549683Y-94042247D01*
X142588957Y-94050245D01*
X142623712Y-94057652D01*
X142652391Y-94064127D01*
X142673435Y-94069326D01*
X142685288Y-94072905D01*
X142686537Y-94073457D01*
X142694225Y-94079212D01*
X142702664Y-94089373D01*
X142712316Y-94104868D01*
X142723642Y-94126625D01*
X142737104Y-94155572D01*
X142753165Y-94192638D01*
X142772287Y-94238751D01*
X142787508Y-94276334D01*
X142811614Y-94336699D01*
X142831500Y-94387491D01*
X142847444Y-94429491D01*
X142859721Y-94463480D01*
X142868606Y-94490239D01*
X142874377Y-94510550D01*
X142877308Y-94525196D01*
X142877822Y-94532034D01*
X142876829Y-94541875D01*
X142873489Y-94553641D01*
X142867261Y-94568253D01*
X142857603Y-94586635D01*
X142843975Y-94609709D01*
X142825834Y-94638398D01*
X142802641Y-94673624D01*
X142773853Y-94716311D01*
X142744729Y-94758934D01*
X142720319Y-94794533D01*
X142695746Y-94830406D01*
X142672470Y-94864422D01*
X142651949Y-94894447D01*
X142635640Y-94918352D01*
X142629587Y-94927245D01*
X142593833Y-94979845D01*
X142635595Y-95023200D01*
X142672908Y-95061766D01*
X142711372Y-95101209D01*
X142749865Y-95140404D01*
X142787263Y-95178222D01*
X142822444Y-95213538D01*
X142854285Y-95245223D01*
X142881663Y-95272151D01*
X142903456Y-95293194D01*
X142918498Y-95307189D01*
X142956352Y-95341037D01*
X143144276Y-95214414D01*
X143200460Y-95176679D01*
X143247958Y-95145059D01*
X143287332Y-95119196D01*
X143319148Y-95098734D01*
X143343969Y-95083318D01*
X143362359Y-95072590D01*
X143374882Y-95066195D01*
X143382102Y-95063775D01*
X143382775Y-95063734D01*
X143384720Y-95068670D01*
X143385369Y-95080694D01*
X143385342Y-95082078D01*
X143384858Y-95087236D01*
X143383072Y-95092312D01*
X143379054Y-95098029D01*
X143371874Y-95105112D01*
X143360601Y-95114287D01*
X143344305Y-95126277D01*
X143322056Y-95141806D01*
X143292924Y-95161600D01*
X143255978Y-95186383D01*
X143224100Y-95207667D01*
X143164762Y-95247217D01*
X143114166Y-95280858D01*
X143071693Y-95308991D01*
X143036724Y-95332018D01*
X143008642Y-95350341D01*
X142986828Y-95364360D01*
X142970662Y-95374477D01*
X142959527Y-95381095D01*
X142952803Y-95384613D01*
X142950128Y-95385467D01*
X142944709Y-95381759D01*
X142932500Y-95371442D01*
X142914857Y-95355722D01*
X142893136Y-95335809D01*
X142868690Y-95312909D01*
X142867830Y-95312096D01*
X142843859Y-95289053D01*
X142816246Y-95261927D01*
X142785964Y-95231726D01*
X142753987Y-95199461D01*
X142721288Y-95166141D01*
X142688839Y-95132774D01*
X142657614Y-95100372D01*
X142628586Y-95069943D01*
X142602728Y-95042497D01*
X142581012Y-95019044D01*
X142564413Y-95000592D01*
X142553903Y-94988152D01*
X142550445Y-94982823D01*
X142553493Y-94976562D01*
X142562034Y-94962407D01*
X142575168Y-94941764D01*
X142591989Y-94916041D01*
X142611597Y-94886644D01*
X142622411Y-94870644D01*
X142667821Y-94803664D01*
X142707154Y-94745455D01*
X142740748Y-94695499D01*
X142768942Y-94653279D01*
X142792075Y-94618278D01*
X142810484Y-94589977D01*
X142824509Y-94567858D01*
X142834487Y-94551405D01*
X142840758Y-94540099D01*
X142843659Y-94533424D01*
X142843956Y-94531792D01*
X142841830Y-94522124D01*
X142835847Y-94503547D01*
X142826595Y-94477527D01*
X142814666Y-94445530D01*
X142800649Y-94409024D01*
X142785135Y-94369474D01*
X142768713Y-94328347D01*
X142751973Y-94287109D01*
X142735506Y-94247227D01*
X142719902Y-94210167D01*
X142705750Y-94177396D01*
X142693641Y-94150380D01*
X142684164Y-94130585D01*
X142678241Y-94119956D01*
X142676032Y-94116270D01*
X142674297Y-94113139D01*
X142672226Y-94110370D01*
X142669013Y-94107770D01*
X142663850Y-94105148D01*
X142655928Y-94102310D01*
X142644441Y-94099064D01*
X142628580Y-94095217D01*
X142607538Y-94090577D01*
X142580507Y-94084951D01*
X142546680Y-94078147D01*
X142505248Y-94069972D01*
X142455404Y-94060233D01*
X142396340Y-94048737D01*
X142327248Y-94035293D01*
X142304911Y-94030942D01*
X142263434Y-94022634D01*
X142225894Y-94014681D01*
X142193736Y-94007421D01*
X142168402Y-94001191D01*
X142151333Y-93996330D01*
X142144045Y-93993248D01*
X142141872Y-93985702D01*
X142139904Y-93968251D01*
X142138150Y-93942242D01*
X142136618Y-93909020D01*
X142135317Y-93869931D01*
X142134257Y-93826321D01*
X142133445Y-93779536D01*
X142132890Y-93730921D01*
X142132603Y-93681821D01*
X142132590Y-93633584D01*
X142132862Y-93587554D01*
X142133427Y-93545077D01*
X142134294Y-93507499D01*
X142135471Y-93476166D01*
X142136968Y-93452423D01*
X142138793Y-93437617D01*
X142140370Y-93433196D01*
X142148701Y-93429851D01*
X142167506Y-93424689D01*
X142196140Y-93417846D01*
X142233957Y-93409463D01*
X142280314Y-93399676D01*
X142334565Y-93388625D01*
X142396067Y-93376447D01*
X142464173Y-93363282D01*
X142482711Y-93359747D01*
X142519165Y-93352704D01*
X142556815Y-93345242D01*
X142592082Y-93338081D01*
X142621382Y-93331944D01*
X142631327Y-93329784D01*
X142686810Y-93317533D01*
X142705142Y-93280467D01*
X142713937Y-93261983D01*
X142725829Y-93236011D01*
X142739509Y-93205459D01*
X142753668Y-93173232D01*
X142759726Y-93159239D01*
X142795978Y-93075077D01*
X142797654Y-93116364D01*
G36*
X145679488Y-93144622D02*
X145699908Y-93191426D01*
X145716503Y-93228900D01*
X145729830Y-93258117D01*
X145740446Y-93280151D01*
X145748908Y-93296077D01*
X145755772Y-93306968D01*
X145761596Y-93313897D01*
X145766936Y-93317939D01*
X145770130Y-93319421D01*
X145779083Y-93321814D01*
X145797663Y-93326013D01*
X145824408Y-93331713D01*
X145857856Y-93338612D01*
X145896543Y-93346406D01*
X145939008Y-93354790D01*
X145960997Y-93359070D01*
X146032565Y-93372997D01*
X146093783Y-93385068D01*
X146145404Y-93395453D01*
X146188182Y-93404325D01*
X146222873Y-93411853D01*
X146250231Y-93418210D01*
X146271010Y-93423566D01*
X146285965Y-93428093D01*
X146295850Y-93431961D01*
X146301419Y-93435342D01*
X146302589Y-93436573D01*
X146304350Y-93441558D01*
X146305817Y-93451956D01*
X146307012Y-93468554D01*
X146307956Y-93492138D01*
X146308668Y-93523495D01*
X146309171Y-93563411D01*
X146309484Y-93612671D01*
X146309629Y-93672062D01*
X146309645Y-93703796D01*
X146309569Y-93757303D01*
X146309352Y-93807824D01*
X146309010Y-93854136D01*
X146308559Y-93895017D01*
X146308013Y-93929246D01*
X146307389Y-93955599D01*
X146306702Y-93972856D01*
X146306123Y-93979265D01*
X146304853Y-93985274D01*
X146302905Y-93990179D01*
X146299056Y-93994366D01*
X146292082Y-93998223D01*
X146280761Y-94002137D01*
X146263871Y-94006494D01*
X146240187Y-94011682D01*
X146208488Y-94018087D01*
X146167550Y-94026097D01*
X146143134Y-94030845D01*
X146066019Y-94045898D01*
X145999472Y-94059015D01*
X145942961Y-94070308D01*
X145895952Y-94079887D01*
X145857913Y-94087866D01*
X145828310Y-94094354D01*
X145806610Y-94099465D01*
X145792280Y-94103310D01*
X145785039Y-94105877D01*
X145778918Y-94109882D01*
X145772535Y-94116684D01*
X145765382Y-94127320D01*
X145756948Y-94142824D01*
X145746726Y-94164232D01*
X145734207Y-94192579D01*
X145718881Y-94228902D01*
X145700241Y-94274236D01*
X145690206Y-94298911D01*
X145665002Y-94361578D01*
X145644305Y-94414234D01*
X145628010Y-94457169D01*
X145616009Y-94490675D01*
X145608196Y-94515043D01*
X145604465Y-94530565D01*
X145604089Y-94534642D01*
X145607157Y-94541710D01*
X145615941Y-94557127D01*
X145629814Y-94579904D01*
X145648148Y-94609052D01*
X145670315Y-94643583D01*
X145695686Y-94682507D01*
X145723635Y-94724836D01*
X145749215Y-94763151D01*
X145783177Y-94813801D01*
X145811338Y-94855934D01*
X145834201Y-94890398D01*
X145852270Y-94918041D01*
X145866048Y-94939712D01*
X145876040Y-94956257D01*
X145882747Y-94968524D01*
X145886675Y-94977361D01*
X145888326Y-94983617D01*
X145888204Y-94988138D01*
X145886813Y-94991772D01*
X145885922Y-94993320D01*
X145878204Y-95003494D01*
X145863792Y-95020019D01*
X145843641Y-95041945D01*
X145818705Y-95068318D01*
X145789939Y-95098187D01*
X145758297Y-95130599D01*
X145724732Y-95164604D01*
X145690201Y-95199248D01*
X145655656Y-95233580D01*
X145622053Y-95266648D01*
X145590344Y-95297500D01*
X145561486Y-95325184D01*
X145536432Y-95348748D01*
X145516137Y-95367240D01*
X145501554Y-95379707D01*
X145493639Y-95385199D01*
X145492896Y-95385377D01*
X145487377Y-95382308D01*
X145473521Y-95373585D01*
X145452344Y-95359877D01*
X145424863Y-95341851D01*
X145392094Y-95320176D01*
X145355053Y-95295518D01*
X145314756Y-95268546D01*
X145299289Y-95258156D01*
X145256821Y-95229673D01*
X145216190Y-95202552D01*
X145178595Y-95177585D01*
X145145239Y-95155566D01*
X145117323Y-95137286D01*
X145096048Y-95123537D01*
X145082615Y-95115112D01*
X145080567Y-95113898D01*
X145063590Y-95103240D01*
X145054577Y-95094632D01*
X145051217Y-95085450D01*
X145050934Y-95080253D01*
X145051299Y-95073065D01*
X145052874Y-95067832D01*
X145056374Y-95064940D01*
X145062515Y-95064775D01*
X145072014Y-95067725D01*
X145085585Y-95074176D01*
X145103947Y-95084515D01*
X145127813Y-95099129D01*
X145157902Y-95118404D01*
X145194928Y-95142728D01*
X145239608Y-95172487D01*
X145292659Y-95208068D01*
X145313400Y-95222011D01*
X145350307Y-95246814D01*
X145384821Y-95269978D01*
X145415658Y-95290646D01*
X145441533Y-95307955D01*
X145461162Y-95321047D01*
X145473260Y-95329062D01*
X145475816Y-95330726D01*
X145491477Y-95340753D01*
X145635866Y-95198010D01*
X145670913Y-95163231D01*
X145704870Y-95129285D01*
X145736531Y-95097398D01*
X145764687Y-95068796D01*
X145788130Y-95044704D01*
X145805653Y-95026348D01*
X145814354Y-95016890D01*
X145848453Y-94978513D01*
X145709312Y-94771357D01*
X145674493Y-94719730D01*
X145645334Y-94676494D01*
X145621504Y-94640471D01*
X145602675Y-94610480D01*
X145588517Y-94585344D01*
X145578701Y-94563884D01*
X145572897Y-94544921D01*
X145570775Y-94527276D01*
X145572008Y-94509770D01*
X145576264Y-94491226D01*
X145583215Y-94470463D01*
X145592531Y-94446304D01*
X145603883Y-94417570D01*
X145607695Y-94407729D01*
X145626081Y-94360421D01*
X145645114Y-94312433D01*
X145664094Y-94265455D01*
X145682321Y-94221176D01*
X145699094Y-94181286D01*
X145713715Y-94147474D01*
X145725482Y-94121430D01*
X145731258Y-94109489D01*
X145741450Y-94092718D01*
X145752197Y-94080094D01*
X145758104Y-94075874D01*
X145771106Y-94071499D01*
X145792176Y-94065626D01*
X145818318Y-94058993D01*
X145846535Y-94052340D01*
X145873831Y-94046405D01*
X145891956Y-94042859D01*
X145927142Y-94036337D01*
X145966584Y-94028858D01*
X146008755Y-94020726D01*
X146052127Y-94012248D01*
X146095174Y-94003730D01*
X146136370Y-93995478D01*
X146174186Y-93987798D01*
X146207097Y-93980996D01*
X146233575Y-93975377D01*
X146252094Y-93971248D01*
X146261127Y-93968914D01*
X146261301Y-93968850D01*
X146275778Y-93963346D01*
X146275778Y-93461242D01*
X146254611Y-93455344D01*
X146244142Y-93452726D01*
X146227257Y-93448949D01*
X146203348Y-93443891D01*
X146171809Y-93437430D01*
X146132032Y-93429443D01*
X146083410Y-93419809D01*
X146025336Y-93408404D01*
X145957201Y-93395108D01*
X145903245Y-93384618D01*
X145864893Y-93377072D01*
X145829299Y-93369882D01*
X145798277Y-93363428D01*
X145773641Y-93358092D01*
X145757205Y-93354256D01*
X145752067Y-93352843D01*
X145743203Y-93348181D01*
X145733968Y-93339244D01*
X145723723Y-93324940D01*
X145711826Y-93304176D01*
X145697636Y-93275859D01*
X145680511Y-93238896D01*
X145665727Y-93205686D01*
X145655098Y-93180549D01*
X145648543Y-93161354D01*
X145645114Y-93143935D01*
X145643863Y-93124124D01*
X145643764Y-93109091D01*
X145643928Y-93062778D01*
X145679488Y-93144622D01*
X145679488Y-93144622D01*
G37*
X145679488Y-93144622D02*
X145699908Y-93191426D01*
X145716503Y-93228900D01*
X145729830Y-93258117D01*
X145740446Y-93280151D01*
X145748908Y-93296077D01*
X145755772Y-93306968D01*
X145761596Y-93313897D01*
X145766936Y-93317939D01*
X145770130Y-93319421D01*
X145779083Y-93321814D01*
X145797663Y-93326013D01*
X145824408Y-93331713D01*
X145857856Y-93338612D01*
X145896543Y-93346406D01*
X145939008Y-93354790D01*
X145960997Y-93359070D01*
X146032565Y-93372997D01*
X146093783Y-93385068D01*
X146145404Y-93395453D01*
X146188182Y-93404325D01*
X146222873Y-93411853D01*
X146250231Y-93418210D01*
X146271010Y-93423566D01*
X146285965Y-93428093D01*
X146295850Y-93431961D01*
X146301419Y-93435342D01*
X146302589Y-93436573D01*
X146304350Y-93441558D01*
X146305817Y-93451956D01*
X146307012Y-93468554D01*
X146307956Y-93492138D01*
X146308668Y-93523495D01*
X146309171Y-93563411D01*
X146309484Y-93612671D01*
X146309629Y-93672062D01*
X146309645Y-93703796D01*
X146309569Y-93757303D01*
X146309352Y-93807824D01*
X146309010Y-93854136D01*
X146308559Y-93895017D01*
X146308013Y-93929246D01*
X146307389Y-93955599D01*
X146306702Y-93972856D01*
X146306123Y-93979265D01*
X146304853Y-93985274D01*
X146302905Y-93990179D01*
X146299056Y-93994366D01*
X146292082Y-93998223D01*
X146280761Y-94002137D01*
X146263871Y-94006494D01*
X146240187Y-94011682D01*
X146208488Y-94018087D01*
X146167550Y-94026097D01*
X146143134Y-94030845D01*
X146066019Y-94045898D01*
X145999472Y-94059015D01*
X145942961Y-94070308D01*
X145895952Y-94079887D01*
X145857913Y-94087866D01*
X145828310Y-94094354D01*
X145806610Y-94099465D01*
X145792280Y-94103310D01*
X145785039Y-94105877D01*
X145778918Y-94109882D01*
X145772535Y-94116684D01*
X145765382Y-94127320D01*
X145756948Y-94142824D01*
X145746726Y-94164232D01*
X145734207Y-94192579D01*
X145718881Y-94228902D01*
X145700241Y-94274236D01*
X145690206Y-94298911D01*
X145665002Y-94361578D01*
X145644305Y-94414234D01*
X145628010Y-94457169D01*
X145616009Y-94490675D01*
X145608196Y-94515043D01*
X145604465Y-94530565D01*
X145604089Y-94534642D01*
X145607157Y-94541710D01*
X145615941Y-94557127D01*
X145629814Y-94579904D01*
X145648148Y-94609052D01*
X145670315Y-94643583D01*
X145695686Y-94682507D01*
X145723635Y-94724836D01*
X145749215Y-94763151D01*
X145783177Y-94813801D01*
X145811338Y-94855934D01*
X145834201Y-94890398D01*
X145852270Y-94918041D01*
X145866048Y-94939712D01*
X145876040Y-94956257D01*
X145882747Y-94968524D01*
X145886675Y-94977361D01*
X145888326Y-94983617D01*
X145888204Y-94988138D01*
X145886813Y-94991772D01*
X145885922Y-94993320D01*
X145878204Y-95003494D01*
X145863792Y-95020019D01*
X145843641Y-95041945D01*
X145818705Y-95068318D01*
X145789939Y-95098187D01*
X145758297Y-95130599D01*
X145724732Y-95164604D01*
X145690201Y-95199248D01*
X145655656Y-95233580D01*
X145622053Y-95266648D01*
X145590344Y-95297500D01*
X145561486Y-95325184D01*
X145536432Y-95348748D01*
X145516137Y-95367240D01*
X145501554Y-95379707D01*
X145493639Y-95385199D01*
X145492896Y-95385377D01*
X145487377Y-95382308D01*
X145473521Y-95373585D01*
X145452344Y-95359877D01*
X145424863Y-95341851D01*
X145392094Y-95320176D01*
X145355053Y-95295518D01*
X145314756Y-95268546D01*
X145299289Y-95258156D01*
X145256821Y-95229673D01*
X145216190Y-95202552D01*
X145178595Y-95177585D01*
X145145239Y-95155566D01*
X145117323Y-95137286D01*
X145096048Y-95123537D01*
X145082615Y-95115112D01*
X145080567Y-95113898D01*
X145063590Y-95103240D01*
X145054577Y-95094632D01*
X145051217Y-95085450D01*
X145050934Y-95080253D01*
X145051299Y-95073065D01*
X145052874Y-95067832D01*
X145056374Y-95064940D01*
X145062515Y-95064775D01*
X145072014Y-95067725D01*
X145085585Y-95074176D01*
X145103947Y-95084515D01*
X145127813Y-95099129D01*
X145157902Y-95118404D01*
X145194928Y-95142728D01*
X145239608Y-95172487D01*
X145292659Y-95208068D01*
X145313400Y-95222011D01*
X145350307Y-95246814D01*
X145384821Y-95269978D01*
X145415658Y-95290646D01*
X145441533Y-95307955D01*
X145461162Y-95321047D01*
X145473260Y-95329062D01*
X145475816Y-95330726D01*
X145491477Y-95340753D01*
X145635866Y-95198010D01*
X145670913Y-95163231D01*
X145704870Y-95129285D01*
X145736531Y-95097398D01*
X145764687Y-95068796D01*
X145788130Y-95044704D01*
X145805653Y-95026348D01*
X145814354Y-95016890D01*
X145848453Y-94978513D01*
X145709312Y-94771357D01*
X145674493Y-94719730D01*
X145645334Y-94676494D01*
X145621504Y-94640471D01*
X145602675Y-94610480D01*
X145588517Y-94585344D01*
X145578701Y-94563884D01*
X145572897Y-94544921D01*
X145570775Y-94527276D01*
X145572008Y-94509770D01*
X145576264Y-94491226D01*
X145583215Y-94470463D01*
X145592531Y-94446304D01*
X145603883Y-94417570D01*
X145607695Y-94407729D01*
X145626081Y-94360421D01*
X145645114Y-94312433D01*
X145664094Y-94265455D01*
X145682321Y-94221176D01*
X145699094Y-94181286D01*
X145713715Y-94147474D01*
X145725482Y-94121430D01*
X145731258Y-94109489D01*
X145741450Y-94092718D01*
X145752197Y-94080094D01*
X145758104Y-94075874D01*
X145771106Y-94071499D01*
X145792176Y-94065626D01*
X145818318Y-94058993D01*
X145846535Y-94052340D01*
X145873831Y-94046405D01*
X145891956Y-94042859D01*
X145927142Y-94036337D01*
X145966584Y-94028858D01*
X146008755Y-94020726D01*
X146052127Y-94012248D01*
X146095174Y-94003730D01*
X146136370Y-93995478D01*
X146174186Y-93987798D01*
X146207097Y-93980996D01*
X146233575Y-93975377D01*
X146252094Y-93971248D01*
X146261127Y-93968914D01*
X146261301Y-93968850D01*
X146275778Y-93963346D01*
X146275778Y-93461242D01*
X146254611Y-93455344D01*
X146244142Y-93452726D01*
X146227257Y-93448949D01*
X146203348Y-93443891D01*
X146171809Y-93437430D01*
X146132032Y-93429443D01*
X146083410Y-93419809D01*
X146025336Y-93408404D01*
X145957201Y-93395108D01*
X145903245Y-93384618D01*
X145864893Y-93377072D01*
X145829299Y-93369882D01*
X145798277Y-93363428D01*
X145773641Y-93358092D01*
X145757205Y-93354256D01*
X145752067Y-93352843D01*
X145743203Y-93348181D01*
X145733968Y-93339244D01*
X145723723Y-93324940D01*
X145711826Y-93304176D01*
X145697636Y-93275859D01*
X145680511Y-93238896D01*
X145665727Y-93205686D01*
X145655098Y-93180549D01*
X145648543Y-93161354D01*
X145645114Y-93143935D01*
X145643863Y-93124124D01*
X145643764Y-93109091D01*
X145643928Y-93062778D01*
X145679488Y-93144622D01*
G36*
X144957301Y-89138857D02*
X144969737Y-89142015D01*
X144985545Y-89148076D01*
X145006809Y-89157744D01*
X145035611Y-89171727D01*
X145042467Y-89175107D01*
X145075758Y-89191297D01*
X145115413Y-89210199D01*
X145157477Y-89229949D01*
X145197993Y-89248683D01*
X145217445Y-89257544D01*
X145266314Y-89279914D01*
X145305912Y-89298687D01*
X145337414Y-89314535D01*
X145362000Y-89328131D01*
X145380847Y-89340148D01*
X145395133Y-89351256D01*
X145406036Y-89362129D01*
X145410718Y-89367859D01*
X145429306Y-89399682D01*
X145443296Y-89439231D01*
X145451859Y-89483589D01*
X145454247Y-89520889D01*
X145453956Y-89545770D01*
X145452334Y-89562662D01*
X145448748Y-89574842D01*
X145442567Y-89585590D01*
X145441487Y-89587126D01*
X145426669Y-89601513D01*
X145402706Y-89617149D01*
X145371535Y-89633125D01*
X145335093Y-89648533D01*
X145295316Y-89662465D01*
X145258524Y-89672926D01*
X145165003Y-89701622D01*
X145073302Y-89739743D01*
X144986027Y-89786053D01*
X144905780Y-89839315D01*
X144901736Y-89842336D01*
X144853714Y-89881769D01*
X144804319Y-89928361D01*
X144755859Y-89979554D01*
X144710637Y-90032794D01*
X144670961Y-90085522D01*
X144641862Y-90130489D01*
X144623385Y-90163292D01*
X144603468Y-90201039D01*
X144583036Y-90241744D01*
X144563012Y-90283422D01*
X144544318Y-90324090D01*
X144527880Y-90361762D01*
X144514620Y-90394453D01*
X144505461Y-90420179D01*
X144502839Y-90429286D01*
X144496702Y-90459732D01*
X144493736Y-90488409D01*
X144493979Y-90512832D01*
X144497464Y-90530510D01*
X144501328Y-90537052D01*
X144508316Y-90540130D01*
X144524292Y-90545306D01*
X144547280Y-90551995D01*
X144575302Y-90559613D01*
X144594516Y-90564592D01*
X144714023Y-90598361D01*
X144824123Y-90636697D01*
X144925991Y-90680232D01*
X145020800Y-90729599D01*
X145109725Y-90785429D01*
X145193939Y-90848356D01*
X145274618Y-90919012D01*
X145302391Y-90945836D01*
X145383142Y-91033655D01*
X145455804Y-91129248D01*
X145520270Y-91232402D01*
X145576430Y-91342905D01*
X145624176Y-91460545D01*
X145663398Y-91585109D01*
X145691737Y-91705026D01*
X145696694Y-91730319D01*
X145700377Y-91751676D01*
X145702933Y-91771423D01*
X145704511Y-91791887D01*
X145705256Y-91815393D01*
X145705318Y-91844267D01*
X145704844Y-91880836D01*
X145704414Y-91904759D01*
X145703559Y-91946216D01*
X145702618Y-91978338D01*
X145701392Y-92003078D01*
X145699682Y-92022389D01*
X145697289Y-92038225D01*
X145694013Y-92052539D01*
X145689655Y-92067285D01*
X145687004Y-92075443D01*
X145664069Y-92130143D01*
X145634238Y-92177024D01*
X145598104Y-92215453D01*
X145556257Y-92244798D01*
X145510026Y-92264209D01*
X145486518Y-92271232D01*
X145498725Y-92294472D01*
X145502440Y-92302069D01*
X145505314Y-92309980D01*
X145507456Y-92319697D01*
X145508971Y-92332713D01*
X145509968Y-92350523D01*
X145510553Y-92374621D01*
X145510834Y-92406498D01*
X145510917Y-92447650D01*
X145510919Y-92464467D01*
X145510759Y-92507977D01*
X145510307Y-92560127D01*
X145509592Y-92619514D01*
X145508644Y-92684729D01*
X145507494Y-92754369D01*
X145506170Y-92827026D01*
X145504704Y-92901296D01*
X145503126Y-92975773D01*
X145501464Y-93049050D01*
X145499750Y-93119721D01*
X145498013Y-93186383D01*
X145496283Y-93247627D01*
X145494590Y-93302049D01*
X145492965Y-93348243D01*
X145491436Y-93384803D01*
X145491178Y-93390156D01*
X145482091Y-93545814D01*
X145470702Y-93690811D01*
X145456946Y-93825550D01*
X145440762Y-93950432D01*
X145422086Y-94065861D01*
X145400855Y-94172240D01*
X145377005Y-94269972D01*
X145350474Y-94359459D01*
X145329895Y-94418422D01*
X145304426Y-94482826D01*
X145278904Y-94538771D01*
X145251786Y-94588988D01*
X145221532Y-94636209D01*
X145186597Y-94683163D01*
X145166276Y-94708134D01*
X145092409Y-94791562D01*
X145019007Y-94864153D01*
X144945578Y-94926320D01*
X144871633Y-94978474D01*
X144796681Y-95021027D01*
X144788765Y-95024939D01*
X144752286Y-95039980D01*
X144721232Y-95046467D01*
X144693888Y-95044587D01*
X144673987Y-95037413D01*
X144668670Y-95034900D01*
X144663962Y-95032556D01*
X144659545Y-95029702D01*
X144655102Y-95025661D01*
X144650314Y-95019755D01*
X144644864Y-95011305D01*
X144638433Y-94999633D01*
X144630703Y-94984061D01*
X144621356Y-94963911D01*
X144610075Y-94938505D01*
X144596541Y-94907165D01*
X144580435Y-94869212D01*
X144561441Y-94823968D01*
X144539240Y-94770756D01*
X144513513Y-94708897D01*
X144483944Y-94637713D01*
X144463957Y-94589600D01*
X144449949Y-94555720D01*
X144433783Y-94516366D01*
X144417510Y-94476541D01*
X144403825Y-94442845D01*
X144391027Y-94411476D01*
X144377974Y-94379955D01*
X144366069Y-94351640D01*
X144356715Y-94329889D01*
X144355500Y-94327134D01*
X144333283Y-94274361D01*
X144317556Y-94229670D01*
X144308591Y-94191716D01*
X144306661Y-94159157D01*
X144312040Y-94130652D01*
X144325000Y-94104856D01*
X144345813Y-94080429D01*
X144374753Y-94056027D01*
X144412093Y-94030309D01*
X144416374Y-94027565D01*
X144446337Y-94007601D01*
X144469378Y-93989847D01*
X144488711Y-93971543D01*
X144507549Y-93949926D01*
X144509419Y-93947614D01*
X144549260Y-93891159D01*
X144578222Y-93833994D01*
X144596711Y-93775051D01*
X144605129Y-93713263D01*
X144605757Y-93693384D01*
X144600725Y-93632249D01*
X144584975Y-93572533D01*
X144559074Y-93515350D01*
X144523589Y-93461811D01*
X144479086Y-93413028D01*
X144450083Y-93387920D01*
X144414194Y-93361400D01*
X144380556Y-93341492D01*
X144346575Y-93327371D01*
X144309654Y-93318209D01*
X144267199Y-93313180D01*
X144216615Y-93311457D01*
X144209911Y-93311434D01*
X144176718Y-93311674D01*
X144151910Y-93312689D01*
X144132593Y-93314808D01*
X144115874Y-93318364D01*
X144098856Y-93323685D01*
X144097022Y-93324329D01*
X144044439Y-93347745D01*
X143994057Y-93379334D01*
X143948077Y-93417249D01*
X143908701Y-93459648D01*
X143878131Y-93504684D01*
X143875122Y-93510249D01*
X143850533Y-93568170D01*
X143835629Y-93628692D01*
X143830218Y-93690329D01*
X143834110Y-93751598D01*
X143847116Y-93811013D01*
X143869046Y-93867091D01*
X143899710Y-93918347D01*
X143932276Y-93956789D01*
X143954377Y-93977337D01*
X143981569Y-94000089D01*
X144009327Y-94021332D01*
X144020822Y-94029428D01*
X144051769Y-94052350D01*
X144077638Y-94075206D01*
X144094065Y-94093424D01*
X144106494Y-94110892D01*
X144113579Y-94125423D01*
X144117120Y-94141995D01*
X144118697Y-94161607D01*
X144118829Y-94186418D01*
X144116935Y-94211221D01*
X144114209Y-94227052D01*
X144110096Y-94239916D01*
X144102128Y-94261661D01*
X144090911Y-94290799D01*
X144077055Y-94325842D01*
X144061167Y-94365302D01*
X144043855Y-94407691D01*
X144025728Y-94451522D01*
X144007394Y-94495306D01*
X143989460Y-94537555D01*
X143972536Y-94576783D01*
X143957228Y-94611500D01*
X143955659Y-94615000D01*
X143942749Y-94644515D01*
X143927184Y-94681281D01*
X143910330Y-94722004D01*
X143893553Y-94763385D01*
X143879880Y-94797877D01*
X143855392Y-94858857D01*
X143833632Y-94909535D01*
X143814307Y-94950485D01*
X143797124Y-94982283D01*
X143781790Y-95005503D01*
X143768011Y-95020720D01*
X143765153Y-95023056D01*
X143752687Y-95031390D01*
X143740197Y-95036026D01*
X143723651Y-95037992D01*
X143705173Y-95038334D01*
X143665222Y-95038334D01*
X143572048Y-94975380D01*
X143498549Y-94923550D01*
X143434180Y-94873207D01*
X143377227Y-94822685D01*
X143325981Y-94770320D01*
X143278729Y-94714444D01*
X143233762Y-94653393D01*
X143219203Y-94631934D01*
X143167980Y-94546838D01*
X143122537Y-94454861D01*
X143084318Y-94359341D01*
X143054769Y-94263615D01*
X143048151Y-94236822D01*
X143043160Y-94213416D01*
X143036854Y-94180811D01*
X143029562Y-94140975D01*
X143021614Y-94095877D01*
X143013340Y-94047486D01*
X143005070Y-93997772D01*
X142997133Y-93948703D01*
X142989859Y-93902248D01*
X142983578Y-93860376D01*
X142978620Y-93825055D01*
X142976765Y-93810667D01*
X142974367Y-93787319D01*
X142971752Y-93754942D01*
X142968987Y-93714987D01*
X142966137Y-93668907D01*
X142963267Y-93618150D01*
X142960444Y-93564170D01*
X142957733Y-93508416D01*
X142955199Y-93452340D01*
X142952909Y-93397393D01*
X142950927Y-93345026D01*
X142949319Y-93296690D01*
X142948151Y-93253836D01*
X142947489Y-93217915D01*
X142947398Y-93190379D01*
X142947932Y-93172845D01*
X142948641Y-93153424D01*
X142948796Y-93125003D01*
X142948430Y-93089857D01*
X142947574Y-93050258D01*
X142946259Y-93008482D01*
X142945282Y-92983756D01*
X142943674Y-92943627D01*
X142941886Y-92894750D01*
X142940001Y-92839660D01*
X142938102Y-92780894D01*
X142936272Y-92720989D01*
X142934593Y-92662481D01*
X142933594Y-92625334D01*
X142932512Y-92585167D01*
X143110648Y-92585167D01*
X143111347Y-92642651D01*
X143112823Y-92709623D01*
X143115078Y-92785787D01*
X143117579Y-92856756D01*
X143119539Y-92912327D01*
X143121323Y-92969370D01*
X143122882Y-93025750D01*
X143124163Y-93079329D01*
X143125116Y-93127973D01*
X143125689Y-93169544D01*
X143125834Y-93201067D01*
X143126091Y-93244719D01*
X143127025Y-93295281D01*
X143128549Y-93350929D01*
X143130580Y-93409840D01*
X143133033Y-93470190D01*
X143135823Y-93530156D01*
X143138866Y-93587914D01*
X143142075Y-93641641D01*
X143145368Y-93689512D01*
X143148659Y-93729705D01*
X143151798Y-93759867D01*
X143155931Y-93791007D01*
X143161563Y-93829748D01*
X143168363Y-93874111D01*
X143176000Y-93922117D01*
X143184143Y-93971787D01*
X143192460Y-94021144D01*
X143200622Y-94068206D01*
X143208295Y-94110996D01*
X143215150Y-94147536D01*
X143220855Y-94175845D01*
X143223109Y-94186022D01*
X143248393Y-94275008D01*
X143282260Y-94362933D01*
X143323718Y-94448099D01*
X143371772Y-94528806D01*
X143425429Y-94603357D01*
X143483698Y-94670053D01*
X143533710Y-94717252D01*
X143561341Y-94740303D01*
X143588859Y-94762123D01*
X143614815Y-94781679D01*
X143637760Y-94797941D01*
X143656247Y-94809877D01*
X143668826Y-94816457D01*
X143673847Y-94817013D01*
X143677059Y-94810559D01*
X143683592Y-94795289D01*
X143692738Y-94772936D01*
X143703788Y-94745228D01*
X143716035Y-94713897D01*
X143716081Y-94713778D01*
X143731406Y-94674935D01*
X143748580Y-94632616D01*
X143765970Y-94590774D01*
X143781942Y-94553359D01*
X143789586Y-94535978D01*
X143799165Y-94514200D01*
X143811230Y-94486292D01*
X143825166Y-94453723D01*
X143840357Y-94417962D01*
X143856187Y-94380478D01*
X143872041Y-94342742D01*
X143887304Y-94306223D01*
X143901361Y-94272390D01*
X143913595Y-94242714D01*
X143923391Y-94218662D01*
X143930135Y-94201706D01*
X143933210Y-94193314D01*
X143933334Y-94192740D01*
X143928972Y-94188818D01*
X143917350Y-94180312D01*
X143900662Y-94168808D01*
X143894019Y-94164359D01*
X143832115Y-94116543D01*
X143778156Y-94061019D01*
X143732755Y-93998661D01*
X143696526Y-93930345D01*
X143670081Y-93856943D01*
X143664975Y-93837509D01*
X143659652Y-93808020D01*
X143655670Y-93770686D01*
X143653154Y-93728883D01*
X143652232Y-93685989D01*
X143653029Y-93645382D01*
X143655672Y-93610438D01*
X143656300Y-93605409D01*
X143667119Y-93548105D01*
X143683640Y-93491427D01*
X143704471Y-93439919D01*
X143710989Y-93426845D01*
X143749777Y-93364465D01*
X143797787Y-93306662D01*
X143853418Y-93254813D01*
X143915067Y-93210297D01*
X143981131Y-93174490D01*
X144025359Y-93156651D01*
X144046490Y-93149400D01*
X144063821Y-93144094D01*
X144079843Y-93140383D01*
X144097049Y-93137913D01*
X144117928Y-93136333D01*
X144144972Y-93135292D01*
X144180674Y-93134436D01*
X144182979Y-93134387D01*
X144249486Y-93134233D01*
X144306847Y-93137120D01*
X144356894Y-93143454D01*
X144401459Y-93153645D01*
X144442373Y-93168101D01*
X144481470Y-93187229D01*
X144516542Y-93208728D01*
X144584248Y-93260135D01*
X144643161Y-93318207D01*
X144692935Y-93382488D01*
X144733220Y-93452519D01*
X144763670Y-93527842D01*
X144766932Y-93538143D01*
X144772358Y-93556502D01*
X144776303Y-93572459D01*
X144778992Y-93588348D01*
X144780647Y-93606500D01*
X144781491Y-93629249D01*
X144781748Y-93658927D01*
X144781669Y-93692134D01*
X144781282Y-93732257D01*
X144780401Y-93763460D01*
X144778831Y-93788109D01*
X144776376Y-93808570D01*
X144772839Y-93827206D01*
X144769279Y-93841711D01*
X144749557Y-93900438D01*
X144722030Y-93959010D01*
X144688136Y-94015372D01*
X144649315Y-94067473D01*
X144607009Y-94113258D01*
X144562656Y-94150673D01*
X144543688Y-94163445D01*
X144524311Y-94176167D01*
X144509529Y-94187191D01*
X144501342Y-94194951D01*
X144500392Y-94197311D01*
X144503543Y-94204936D01*
X144509908Y-94219906D01*
X144518206Y-94239211D01*
X144519613Y-94242467D01*
X144528242Y-94262791D01*
X144539676Y-94290239D01*
X144552527Y-94321454D01*
X144565407Y-94353078D01*
X144567469Y-94358178D01*
X144581103Y-94391775D01*
X144595783Y-94427683D01*
X144609789Y-94461709D01*
X144621402Y-94489659D01*
X144621889Y-94490822D01*
X144630966Y-94512553D01*
X144643384Y-94542377D01*
X144658173Y-94577955D01*
X144674359Y-94616948D01*
X144690970Y-94657017D01*
X144699283Y-94677089D01*
X144717320Y-94720600D01*
X144731571Y-94754783D01*
X144742539Y-94780756D01*
X144750729Y-94799632D01*
X144756644Y-94812528D01*
X144760789Y-94820557D01*
X144763666Y-94824837D01*
X144765781Y-94826481D01*
X144766866Y-94826667D01*
X144772625Y-94823592D01*
X144785390Y-94815312D01*
X144803027Y-94803241D01*
X144815840Y-94794211D01*
X144850418Y-94767289D01*
X144888448Y-94733737D01*
X144928209Y-94695420D01*
X144967975Y-94654200D01*
X145006023Y-94611941D01*
X145040630Y-94570507D01*
X145070071Y-94531759D01*
X145092624Y-94497562D01*
X145096497Y-94490822D01*
X145130288Y-94423264D01*
X145161264Y-94347080D01*
X145189466Y-94262036D01*
X145214933Y-94167899D01*
X145237707Y-94064436D01*
X145257828Y-93951412D01*
X145275335Y-93828594D01*
X145290269Y-93695749D01*
X145302670Y-93552643D01*
X145312579Y-93399042D01*
X145320036Y-93234713D01*
X145321774Y-93184134D01*
X145323290Y-93131868D01*
X145324649Y-93075602D01*
X145325795Y-93018417D01*
X145326674Y-92963394D01*
X145327228Y-92913617D01*
X145327404Y-92873689D01*
X145327697Y-92827172D01*
X145328548Y-92773378D01*
X145329862Y-92716300D01*
X145331544Y-92659931D01*
X145333498Y-92608265D01*
X145334055Y-92595741D01*
X145335749Y-92556391D01*
X145337044Y-92520843D01*
X145337904Y-92490626D01*
X145338292Y-92467269D01*
X145338172Y-92452304D01*
X145337612Y-92447286D01*
X145331376Y-92447377D01*
X145315761Y-92449435D01*
X145292451Y-92453185D01*
X145263132Y-92458351D01*
X145229486Y-92464659D01*
X145219508Y-92466594D01*
X145094752Y-92489098D01*
X144965174Y-92508724D01*
X144829065Y-92525694D01*
X144684716Y-92540227D01*
X144582445Y-92548718D01*
X144539048Y-92551442D01*
X144486812Y-92553727D01*
X144427437Y-92555573D01*
X144362623Y-92556976D01*
X144294069Y-92557935D01*
X144223477Y-92558446D01*
X144152545Y-92558508D01*
X144082975Y-92558118D01*
X144016464Y-92557274D01*
X143954715Y-92555974D01*
X143899426Y-92554214D01*
X143852298Y-92551993D01*
X143820445Y-92549785D01*
X143688826Y-92537796D01*
X143568260Y-92524968D01*
X143458538Y-92511273D01*
X143359454Y-92496684D01*
X143270799Y-92481172D01*
X143216248Y-92470059D01*
X143185392Y-92463446D01*
X143158198Y-92457784D01*
X143136669Y-92453478D01*
X143122808Y-92450930D01*
X143118797Y-92450409D01*
X143115618Y-92456019D01*
X143113213Y-92472596D01*
X143111582Y-92499843D01*
X143110727Y-92537466D01*
X143110648Y-92585167D01*
X142932512Y-92585167D01*
X142932229Y-92574691D01*
X142930827Y-92525734D01*
X142929438Y-92480053D01*
X142928115Y-92439239D01*
X142926908Y-92404881D01*
X142925869Y-92378570D01*
X142925051Y-92361896D01*
X142925026Y-92361487D01*
X142924079Y-92333815D01*
X142925495Y-92314360D01*
X142929527Y-92300248D01*
X142930614Y-92297924D01*
X142939108Y-92280898D01*
X142907054Y-92258918D01*
X142863740Y-92224384D01*
X142827440Y-92184519D01*
X142797415Y-92138104D01*
X142772923Y-92083924D01*
X142753227Y-92020760D01*
X142747255Y-91995978D01*
X142743722Y-91972107D01*
X142741352Y-91937072D01*
X142740147Y-91890941D01*
X142739999Y-91852045D01*
X142740031Y-91847731D01*
X142912716Y-91847731D01*
X142913416Y-91868938D01*
X142914023Y-91876034D01*
X142916972Y-91902900D01*
X142920643Y-91929100D01*
X142924613Y-91952298D01*
X142928461Y-91970164D01*
X142931766Y-91980366D01*
X142933146Y-91981867D01*
X142939196Y-91978507D01*
X142946557Y-91972494D01*
X142956330Y-91965853D01*
X142960424Y-91967189D01*
X142958447Y-91974504D01*
X142950009Y-91985800D01*
X142949312Y-91986537D01*
X142934135Y-92002378D01*
X142951339Y-92036806D01*
X142976457Y-92075272D01*
X143009148Y-92106380D01*
X143035248Y-92122662D01*
X143050410Y-92128813D01*
X143074258Y-92136477D01*
X143105500Y-92145373D01*
X143142848Y-92155222D01*
X143185011Y-92165742D01*
X143230700Y-92176654D01*
X143278624Y-92187677D01*
X143327495Y-92198531D01*
X143376023Y-92208935D01*
X143422917Y-92218609D01*
X143466887Y-92227273D01*
X143506645Y-92234645D01*
X143540901Y-92240446D01*
X143568364Y-92244396D01*
X143587744Y-92246213D01*
X143597753Y-92245618D01*
X143598573Y-92245131D01*
X143602824Y-92233592D01*
X143600536Y-92216702D01*
X143592501Y-92197691D01*
X143583708Y-92184633D01*
X143565224Y-92161632D01*
X143591666Y-92181816D01*
X143606649Y-92192668D01*
X143618229Y-92199995D01*
X143622954Y-92202000D01*
X143638754Y-92197957D01*
X143659739Y-92186653D01*
X143683669Y-92169329D01*
X143687070Y-92166541D01*
X143715695Y-92142734D01*
X143686226Y-92178304D01*
X143672433Y-92196202D01*
X143662095Y-92211998D01*
X143657001Y-92222885D01*
X143656756Y-92224556D01*
X143660412Y-92236013D01*
X143669230Y-92248802D01*
X143669456Y-92249050D01*
X143675075Y-92254309D01*
X143682151Y-92258392D01*
X143692522Y-92261709D01*
X143708027Y-92264674D01*
X143730503Y-92267697D01*
X143761788Y-92271189D01*
X143774129Y-92272491D01*
X143806009Y-92275565D01*
X143834686Y-92277839D01*
X143857956Y-92279175D01*
X143873615Y-92279437D01*
X143878598Y-92278984D01*
X143892140Y-92278563D01*
X143899359Y-92280956D01*
X143907093Y-92282367D01*
X143924485Y-92283642D01*
X143949905Y-92284725D01*
X143981722Y-92285557D01*
X144018305Y-92286081D01*
X144048890Y-92286238D01*
X144190156Y-92286413D01*
X144191371Y-92284696D01*
X144208372Y-92284696D01*
X144210928Y-92287414D01*
X144221494Y-92290221D01*
X144239111Y-92291464D01*
X144259652Y-92291151D01*
X144278990Y-92289290D01*
X144288927Y-92287262D01*
X144296934Y-92284607D01*
X144298107Y-92281434D01*
X144291537Y-92275655D01*
X144280561Y-92268069D01*
X144261719Y-92256941D01*
X144247277Y-92253766D01*
X144233641Y-92258525D01*
X144221238Y-92267745D01*
X144210426Y-92278207D01*
X144208372Y-92284696D01*
X144191371Y-92284696D01*
X144206619Y-92263163D01*
X144219417Y-92240038D01*
X144222051Y-92219391D01*
X144214456Y-92198648D01*
X144204597Y-92184633D01*
X144186112Y-92161632D01*
X144212555Y-92181816D01*
X144227538Y-92192668D01*
X144239118Y-92199995D01*
X144243843Y-92202000D01*
X144259643Y-92197957D01*
X144280628Y-92186653D01*
X144304558Y-92169329D01*
X144307959Y-92166541D01*
X144336584Y-92142734D01*
X144307114Y-92178304D01*
X144293325Y-92196183D01*
X144282988Y-92211939D01*
X144277891Y-92222772D01*
X144277645Y-92224432D01*
X144280941Y-92234678D01*
X144289389Y-92249498D01*
X144296418Y-92259417D01*
X144315192Y-92283845D01*
X144379674Y-92282412D01*
X144422285Y-92280591D01*
X144473589Y-92276972D01*
X144531180Y-92271815D01*
X144592651Y-92265384D01*
X144655596Y-92257942D01*
X144717610Y-92249753D01*
X144776286Y-92241077D01*
X144812642Y-92235106D01*
X144831796Y-92231456D01*
X144842000Y-92228050D01*
X144845493Y-92223612D01*
X144844525Y-92216911D01*
X144838930Y-92205258D01*
X144828969Y-92189898D01*
X144823973Y-92183227D01*
X144807001Y-92161632D01*
X144833444Y-92181816D01*
X144848427Y-92192668D01*
X144860007Y-92199995D01*
X144864732Y-92202000D01*
X144880531Y-92197957D01*
X144901517Y-92186653D01*
X144925446Y-92169329D01*
X144928848Y-92166541D01*
X144957473Y-92142734D01*
X144927275Y-92179180D01*
X144914278Y-92195890D01*
X144905609Y-92209084D01*
X144902575Y-92216675D01*
X144903181Y-92217661D01*
X144910031Y-92217141D01*
X144925805Y-92214738D01*
X144948377Y-92210859D01*
X144975617Y-92205914D01*
X145005399Y-92200310D01*
X145035593Y-92194457D01*
X145064071Y-92188762D01*
X145088705Y-92183636D01*
X145107368Y-92179486D01*
X145117930Y-92176721D01*
X145119312Y-92176161D01*
X145116637Y-92171738D01*
X145107072Y-92160764D01*
X145091838Y-92144541D01*
X145072152Y-92124373D01*
X145052498Y-92104774D01*
X145019954Y-92072293D01*
X144991277Y-92042884D01*
X144967215Y-92017376D01*
X144948521Y-91996594D01*
X144935945Y-91981369D01*
X144930238Y-91972527D01*
X144930788Y-91970578D01*
X144935953Y-91974408D01*
X144947618Y-91985000D01*
X144964432Y-92001006D01*
X144985041Y-92021081D01*
X145008093Y-92043877D01*
X145032235Y-92068046D01*
X145056114Y-92092242D01*
X145078377Y-92115119D01*
X145097671Y-92135328D01*
X145112645Y-92151523D01*
X145113739Y-92152743D01*
X145132778Y-92174041D01*
X145200169Y-92157499D01*
X145267559Y-92140957D01*
X145353325Y-92051534D01*
X145379117Y-92025075D01*
X145402075Y-92002355D01*
X145421091Y-91984409D01*
X145435056Y-91972271D01*
X145442861Y-91966975D01*
X145443978Y-91966968D01*
X145441560Y-91972156D01*
X145431906Y-91983897D01*
X145416061Y-92001072D01*
X145395069Y-92022560D01*
X145369974Y-92047242D01*
X145361378Y-92055508D01*
X145273889Y-92139190D01*
X145361095Y-92116834D01*
X145392325Y-92108478D01*
X145420910Y-92100186D01*
X145444488Y-92092691D01*
X145460701Y-92086724D01*
X145465498Y-92084434D01*
X145487311Y-92065585D01*
X145505561Y-92037173D01*
X145517187Y-92007766D01*
X145522323Y-91984359D01*
X145526228Y-91952938D01*
X145528777Y-91916723D01*
X145529844Y-91878935D01*
X145529304Y-91842793D01*
X145527033Y-91811518D01*
X145525292Y-91799180D01*
X145519920Y-91770369D01*
X145513614Y-91739854D01*
X145506879Y-91709727D01*
X145500221Y-91682079D01*
X145494146Y-91659002D01*
X145489159Y-91642587D01*
X145485767Y-91634926D01*
X145485507Y-91634703D01*
X145479377Y-91636795D01*
X145467013Y-91644886D01*
X145450614Y-91657467D01*
X145442493Y-91664200D01*
X145404250Y-91696645D01*
X145431210Y-91663544D01*
X145450399Y-91638540D01*
X145461694Y-91618948D01*
X145465355Y-91602376D01*
X145461643Y-91586427D01*
X145450817Y-91568709D01*
X145442637Y-91558215D01*
X145433741Y-91547041D01*
X145431901Y-91543716D01*
X145436913Y-91547449D01*
X145440671Y-91550638D01*
X145452588Y-91560243D01*
X145461514Y-91566461D01*
X145462970Y-91563563D01*
X145460693Y-91552113D01*
X145455311Y-91533969D01*
X145447455Y-91510992D01*
X145437752Y-91485041D01*
X145426831Y-91457976D01*
X145417743Y-91437002D01*
X145400485Y-91398535D01*
X145373876Y-91423447D01*
X145357106Y-91439154D01*
X145335936Y-91458990D01*
X145314200Y-91479364D01*
X145308080Y-91485102D01*
X145295716Y-91496475D01*
X145290137Y-91500994D01*
X145291556Y-91498376D01*
X145300184Y-91488338D01*
X145316235Y-91470598D01*
X145331683Y-91453792D01*
X145394473Y-91385740D01*
X145370421Y-91340725D01*
X145338671Y-91284669D01*
X145305239Y-91232998D01*
X145270403Y-91185136D01*
X145252771Y-91162933D01*
X145232521Y-91138973D01*
X145211114Y-91114808D01*
X145190006Y-91091989D01*
X145170659Y-91072068D01*
X145154530Y-91056595D01*
X145143079Y-91047123D01*
X145138499Y-91044889D01*
X145129171Y-91048845D01*
X145124285Y-91053388D01*
X145118080Y-91059780D01*
X145105017Y-91072501D01*
X145086511Y-91090199D01*
X145063976Y-91111522D01*
X145038826Y-91135116D01*
X145037516Y-91136341D01*
X145013423Y-91158646D01*
X144997155Y-91173240D01*
X144988737Y-91180091D01*
X144988196Y-91179165D01*
X144995555Y-91170428D01*
X145010842Y-91153848D01*
X145034081Y-91129390D01*
X145065298Y-91097021D01*
X145075851Y-91086145D01*
X145096594Y-91064529D01*
X145110329Y-91049315D01*
X145118101Y-91038994D01*
X145120957Y-91032059D01*
X145119942Y-91027001D01*
X145118393Y-91024804D01*
X145109071Y-91015752D01*
X145092726Y-91001952D01*
X145071589Y-90985120D01*
X145047891Y-90966972D01*
X145023864Y-90949225D01*
X145001739Y-90933594D01*
X144987662Y-90924246D01*
X144955435Y-90903723D01*
X144926984Y-90937910D01*
X144913455Y-90955347D01*
X144903413Y-90970536D01*
X144898682Y-90980663D01*
X144898534Y-90981837D01*
X144900203Y-90990405D01*
X144905916Y-91001678D01*
X144916730Y-91017276D01*
X144933701Y-91038820D01*
X144943337Y-91050534D01*
X144969089Y-91081578D01*
X144938045Y-91055826D01*
X144913382Y-91035821D01*
X144895376Y-91022439D01*
X144882410Y-91014624D01*
X144872865Y-91011319D01*
X144869377Y-91011022D01*
X144860895Y-91014509D01*
X144846571Y-91023818D01*
X144828956Y-91037225D01*
X144821513Y-91043389D01*
X144783361Y-91075756D01*
X144810321Y-91042655D01*
X144829576Y-91017521D01*
X144840880Y-90997802D01*
X144844485Y-90981158D01*
X144840642Y-90965248D01*
X144829601Y-90947730D01*
X144821574Y-90937771D01*
X144805592Y-90918778D01*
X144832740Y-90939500D01*
X144849090Y-90951675D01*
X144859919Y-90957944D01*
X144868640Y-90959296D01*
X144878670Y-90956718D01*
X144884597Y-90954511D01*
X144896760Y-90948113D01*
X144912057Y-90937760D01*
X144927651Y-90925705D01*
X144940706Y-90914202D01*
X144948386Y-90905503D01*
X144949334Y-90903077D01*
X144944524Y-90899038D01*
X144931382Y-90891245D01*
X144911836Y-90880650D01*
X144887815Y-90868205D01*
X144861246Y-90854862D01*
X144834059Y-90841574D01*
X144808182Y-90829292D01*
X144785543Y-90818968D01*
X144768072Y-90811554D01*
X144757696Y-90808002D01*
X144756386Y-90807829D01*
X144748749Y-90811518D01*
X144735001Y-90821565D01*
X144717098Y-90836430D01*
X144697196Y-90854389D01*
X144647508Y-90900956D01*
X144694248Y-90850156D01*
X144740989Y-90799356D01*
X144659535Y-90772898D01*
X144627715Y-90762840D01*
X144596553Y-90753480D01*
X144569077Y-90745694D01*
X144548314Y-90740361D01*
X144543637Y-90739326D01*
X144524611Y-90735650D01*
X144512717Y-90734964D01*
X144504030Y-90737976D01*
X144494629Y-90745392D01*
X144490785Y-90748851D01*
X144472378Y-90765489D01*
X144503136Y-90731303D01*
X144462256Y-90718613D01*
X144416573Y-90699157D01*
X144377937Y-90671630D01*
X144347411Y-90636801D01*
X144345682Y-90634225D01*
X144326230Y-90604735D01*
X144311815Y-90617220D01*
X144302873Y-90624884D01*
X144301447Y-90625566D01*
X144307609Y-90618730D01*
X144312288Y-90613692D01*
X144321856Y-90601733D01*
X144324341Y-90591208D01*
X144321579Y-90577409D01*
X144319697Y-90564336D01*
X144318456Y-90542634D01*
X144317935Y-90514949D01*
X144318217Y-90483928D01*
X144318449Y-90475047D01*
X144319718Y-90440700D01*
X144321468Y-90414461D01*
X144324171Y-90393149D01*
X144328301Y-90373583D01*
X144334330Y-90352581D01*
X144338614Y-90339303D01*
X144348507Y-90312689D01*
X144362909Y-90278459D01*
X144380752Y-90238815D01*
X144400964Y-90195954D01*
X144422478Y-90152077D01*
X144444222Y-90109381D01*
X144465128Y-90070068D01*
X144484125Y-90036335D01*
X144493710Y-90020416D01*
X144551925Y-89936082D01*
X144619030Y-89855136D01*
X144693241Y-89779329D01*
X144772773Y-89710414D01*
X144855841Y-89650140D01*
X144897402Y-89624229D01*
X144965838Y-89587270D01*
X145039144Y-89553780D01*
X145113742Y-89525201D01*
X145186052Y-89502975D01*
X145217031Y-89495400D01*
X145234717Y-89491406D01*
X145246800Y-89487938D01*
X145252617Y-89484240D01*
X145251504Y-89479555D01*
X145242798Y-89473127D01*
X145225836Y-89464199D01*
X145199955Y-89452016D01*
X145165007Y-89436055D01*
X145130006Y-89420010D01*
X145091242Y-89402098D01*
X145053332Y-89384459D01*
X145020893Y-89369234D01*
X145019685Y-89368664D01*
X144951748Y-89336552D01*
X144870108Y-89404592D01*
X144756398Y-89505298D01*
X144652302Y-89609793D01*
X144558261Y-89717597D01*
X144474716Y-89828227D01*
X144450739Y-89863440D01*
X144389643Y-89961058D01*
X144337640Y-90056621D01*
X144293558Y-90152779D01*
X144256229Y-90252186D01*
X144224482Y-90357491D01*
X144212895Y-90402633D01*
X144200356Y-90451139D01*
X144189012Y-90489256D01*
X144178604Y-90517791D01*
X144170390Y-90534955D01*
X144152567Y-90566536D01*
X144171666Y-90586990D01*
X144189686Y-90606975D01*
X144199747Y-90619892D01*
X144202234Y-90626277D01*
X144200437Y-90627200D01*
X144193989Y-90623488D01*
X144182419Y-90613825D01*
X144170259Y-90602286D01*
X144145293Y-90577372D01*
X144125391Y-90595237D01*
X144084356Y-90626323D01*
X144040355Y-90649287D01*
X144012356Y-90658827D01*
X143992944Y-90664437D01*
X143977862Y-90669584D01*
X143970594Y-90673021D01*
X143969405Y-90679308D01*
X143974805Y-90691149D01*
X143987252Y-90709285D01*
X144007201Y-90734458D01*
X144011870Y-90740089D01*
X144037756Y-90771134D01*
X144006711Y-90745381D01*
X143982048Y-90725377D01*
X143964043Y-90711995D01*
X143951076Y-90704179D01*
X143941532Y-90700875D01*
X143938043Y-90700578D01*
X143929545Y-90704064D01*
X143915223Y-90713368D01*
X143897643Y-90726755D01*
X143890493Y-90732678D01*
X143852656Y-90764778D01*
X143881706Y-90728728D01*
X143895155Y-90711492D01*
X143905301Y-90697450D01*
X143910443Y-90688992D01*
X143910756Y-90687905D01*
X143905879Y-90685735D01*
X143893752Y-90686254D01*
X143889589Y-90686902D01*
X143877601Y-90689772D01*
X143858424Y-90695178D01*
X143834335Y-90702393D01*
X143807608Y-90710693D01*
X143780519Y-90719349D01*
X143755345Y-90727636D01*
X143734359Y-90734828D01*
X143719839Y-90740198D01*
X143714156Y-90742896D01*
X143717004Y-90747609D01*
X143726642Y-90758972D01*
X143741865Y-90775662D01*
X143761470Y-90796357D01*
X143782239Y-90817693D01*
X143818154Y-90854413D01*
X143846079Y-90883566D01*
X143866204Y-90905366D01*
X143878718Y-90920026D01*
X143883810Y-90927761D01*
X143881669Y-90928785D01*
X143879711Y-90927850D01*
X143872528Y-90922144D01*
X143858823Y-90909606D01*
X143839925Y-90891515D01*
X143817163Y-90869152D01*
X143791868Y-90843794D01*
X143782551Y-90834336D01*
X143696680Y-90746870D01*
X143632105Y-90779225D01*
X143573293Y-90811263D01*
X143512815Y-90848901D01*
X143453039Y-90890389D01*
X143396333Y-90933978D01*
X143345066Y-90977916D01*
X143301606Y-91020454D01*
X143293025Y-91029787D01*
X143221104Y-91116284D01*
X143152730Y-91211425D01*
X143099627Y-91295758D01*
X143069756Y-91346248D01*
X143151051Y-91428402D01*
X143188399Y-91466366D01*
X143217872Y-91496834D01*
X143239750Y-91520119D01*
X143254313Y-91536534D01*
X143261839Y-91546390D01*
X143262608Y-91550001D01*
X143258498Y-91548577D01*
X143251326Y-91542861D01*
X143237606Y-91530252D01*
X143218617Y-91511990D01*
X143195639Y-91489315D01*
X143169951Y-91463469D01*
X143155900Y-91449138D01*
X143064915Y-91355909D01*
X143036089Y-91415221D01*
X143012977Y-91464083D01*
X142995751Y-91503466D01*
X142984365Y-91533497D01*
X142978772Y-91554299D01*
X142978925Y-91566000D01*
X142979748Y-91567392D01*
X142993468Y-91577463D01*
X143010778Y-91578309D01*
X143032323Y-91569768D01*
X143058747Y-91551677D01*
X143066181Y-91545652D01*
X143094806Y-91521845D01*
X143065337Y-91557415D01*
X143051566Y-91575173D01*
X143041235Y-91590659D01*
X143036122Y-91601139D01*
X143035867Y-91602726D01*
X143037536Y-91611294D01*
X143043249Y-91622567D01*
X143054063Y-91638164D01*
X143071035Y-91659708D01*
X143080670Y-91671422D01*
X143106422Y-91702467D01*
X143075378Y-91676715D01*
X143049689Y-91655814D01*
X143030556Y-91641873D01*
X143016081Y-91634371D01*
X143004365Y-91632785D01*
X142993510Y-91636596D01*
X142981617Y-91645281D01*
X142976607Y-91649596D01*
X142961975Y-91660936D01*
X142954375Y-91663666D01*
X142954309Y-91658208D01*
X142962280Y-91644987D01*
X142965682Y-91640394D01*
X142976565Y-91621103D01*
X142981152Y-91601798D01*
X142978914Y-91585830D01*
X142975162Y-91580237D01*
X142970765Y-91580233D01*
X142965551Y-91589201D01*
X142958993Y-91608122D01*
X142957564Y-91612881D01*
X142952504Y-91630107D01*
X142948600Y-91643952D01*
X142945220Y-91657067D01*
X142941730Y-91672104D01*
X142937498Y-91691713D01*
X142931893Y-91718546D01*
X142928789Y-91733511D01*
X142922598Y-91764557D01*
X142919150Y-91787013D01*
X142918659Y-91803291D01*
X142921335Y-91815801D01*
X142927392Y-91826956D01*
X142937041Y-91839166D01*
X142938214Y-91840541D01*
X142948711Y-91853752D01*
X142951385Y-91859642D01*
X142947628Y-91858798D01*
X142934907Y-91849835D01*
X142928878Y-91843886D01*
X142920199Y-91835741D01*
X142914894Y-91836844D01*
X142912716Y-91847731D01*
X142740031Y-91847731D01*
X142740306Y-91811250D01*
X142741080Y-91778960D01*
X142742557Y-91752395D01*
X142744975Y-91728773D01*
X142748572Y-91705313D01*
X142753586Y-91679234D01*
X142755601Y-91669541D01*
X142786175Y-91550483D01*
X142827625Y-91432528D01*
X142880040Y-91315486D01*
X142943512Y-91199167D01*
X143018129Y-91083382D01*
X143064229Y-91019489D01*
X143116787Y-90952803D01*
X143169735Y-90893160D01*
X143225304Y-90838472D01*
X143285723Y-90786654D01*
X143353220Y-90735621D01*
X143408066Y-90697782D01*
X143483466Y-90650696D01*
X143559180Y-90610287D01*
X143637465Y-90575630D01*
X143720579Y-90545800D01*
X143810779Y-90519873D01*
X143885356Y-90502232D01*
X143915344Y-90495229D01*
X143942701Y-90487988D01*
X143964853Y-90481252D01*
X143979229Y-90475760D01*
X143981526Y-90474536D01*
X143994222Y-90464538D01*
X144005182Y-90450356D01*
X144015090Y-90430457D01*
X144024630Y-90403306D01*
X144034487Y-90367368D01*
X144040558Y-90342156D01*
X144076087Y-90214001D01*
X144122803Y-90087093D01*
X144180716Y-89961416D01*
X144249834Y-89836954D01*
X144330164Y-89713691D01*
X144413547Y-89601877D01*
X144446239Y-89562670D01*
X144486080Y-89518326D01*
X144531294Y-89470620D01*
X144580104Y-89421325D01*
X144630731Y-89372216D01*
X144681400Y-89325064D01*
X144730332Y-89281646D01*
X144757259Y-89258837D01*
X144796276Y-89226514D01*
X144827748Y-89200692D01*
X144852781Y-89180621D01*
X144872480Y-89165547D01*
X144887949Y-89154719D01*
X144900294Y-89147385D01*
X144910621Y-89142793D01*
X144920033Y-89140191D01*
X144929638Y-89138826D01*
X144934211Y-89138424D01*
X144946154Y-89137895D01*
X144957301Y-89138857D01*
X144957301Y-89138857D01*
G37*
X144957301Y-89138857D02*
X144969737Y-89142015D01*
X144985545Y-89148076D01*
X145006809Y-89157744D01*
X145035611Y-89171727D01*
X145042467Y-89175107D01*
X145075758Y-89191297D01*
X145115413Y-89210199D01*
X145157477Y-89229949D01*
X145197993Y-89248683D01*
X145217445Y-89257544D01*
X145266314Y-89279914D01*
X145305912Y-89298687D01*
X145337414Y-89314535D01*
X145362000Y-89328131D01*
X145380847Y-89340148D01*
X145395133Y-89351256D01*
X145406036Y-89362129D01*
X145410718Y-89367859D01*
X145429306Y-89399682D01*
X145443296Y-89439231D01*
X145451859Y-89483589D01*
X145454247Y-89520889D01*
X145453956Y-89545770D01*
X145452334Y-89562662D01*
X145448748Y-89574842D01*
X145442567Y-89585590D01*
X145441487Y-89587126D01*
X145426669Y-89601513D01*
X145402706Y-89617149D01*
X145371535Y-89633125D01*
X145335093Y-89648533D01*
X145295316Y-89662465D01*
X145258524Y-89672926D01*
X145165003Y-89701622D01*
X145073302Y-89739743D01*
X144986027Y-89786053D01*
X144905780Y-89839315D01*
X144901736Y-89842336D01*
X144853714Y-89881769D01*
X144804319Y-89928361D01*
X144755859Y-89979554D01*
X144710637Y-90032794D01*
X144670961Y-90085522D01*
X144641862Y-90130489D01*
X144623385Y-90163292D01*
X144603468Y-90201039D01*
X144583036Y-90241744D01*
X144563012Y-90283422D01*
X144544318Y-90324090D01*
X144527880Y-90361762D01*
X144514620Y-90394453D01*
X144505461Y-90420179D01*
X144502839Y-90429286D01*
X144496702Y-90459732D01*
X144493736Y-90488409D01*
X144493979Y-90512832D01*
X144497464Y-90530510D01*
X144501328Y-90537052D01*
X144508316Y-90540130D01*
X144524292Y-90545306D01*
X144547280Y-90551995D01*
X144575302Y-90559613D01*
X144594516Y-90564592D01*
X144714023Y-90598361D01*
X144824123Y-90636697D01*
X144925991Y-90680232D01*
X145020800Y-90729599D01*
X145109725Y-90785429D01*
X145193939Y-90848356D01*
X145274618Y-90919012D01*
X145302391Y-90945836D01*
X145383142Y-91033655D01*
X145455804Y-91129248D01*
X145520270Y-91232402D01*
X145576430Y-91342905D01*
X145624176Y-91460545D01*
X145663398Y-91585109D01*
X145691737Y-91705026D01*
X145696694Y-91730319D01*
X145700377Y-91751676D01*
X145702933Y-91771423D01*
X145704511Y-91791887D01*
X145705256Y-91815393D01*
X145705318Y-91844267D01*
X145704844Y-91880836D01*
X145704414Y-91904759D01*
X145703559Y-91946216D01*
X145702618Y-91978338D01*
X145701392Y-92003078D01*
X145699682Y-92022389D01*
X145697289Y-92038225D01*
X145694013Y-92052539D01*
X145689655Y-92067285D01*
X145687004Y-92075443D01*
X145664069Y-92130143D01*
X145634238Y-92177024D01*
X145598104Y-92215453D01*
X145556257Y-92244798D01*
X145510026Y-92264209D01*
X145486518Y-92271232D01*
X145498725Y-92294472D01*
X145502440Y-92302069D01*
X145505314Y-92309980D01*
X145507456Y-92319697D01*
X145508971Y-92332713D01*
X145509968Y-92350523D01*
X145510553Y-92374621D01*
X145510834Y-92406498D01*
X145510917Y-92447650D01*
X145510919Y-92464467D01*
X145510759Y-92507977D01*
X145510307Y-92560127D01*
X145509592Y-92619514D01*
X145508644Y-92684729D01*
X145507494Y-92754369D01*
X145506170Y-92827026D01*
X145504704Y-92901296D01*
X145503126Y-92975773D01*
X145501464Y-93049050D01*
X145499750Y-93119721D01*
X145498013Y-93186383D01*
X145496283Y-93247627D01*
X145494590Y-93302049D01*
X145492965Y-93348243D01*
X145491436Y-93384803D01*
X145491178Y-93390156D01*
X145482091Y-93545814D01*
X145470702Y-93690811D01*
X145456946Y-93825550D01*
X145440762Y-93950432D01*
X145422086Y-94065861D01*
X145400855Y-94172240D01*
X145377005Y-94269972D01*
X145350474Y-94359459D01*
X145329895Y-94418422D01*
X145304426Y-94482826D01*
X145278904Y-94538771D01*
X145251786Y-94588988D01*
X145221532Y-94636209D01*
X145186597Y-94683163D01*
X145166276Y-94708134D01*
X145092409Y-94791562D01*
X145019007Y-94864153D01*
X144945578Y-94926320D01*
X144871633Y-94978474D01*
X144796681Y-95021027D01*
X144788765Y-95024939D01*
X144752286Y-95039980D01*
X144721232Y-95046467D01*
X144693888Y-95044587D01*
X144673987Y-95037413D01*
X144668670Y-95034900D01*
X144663962Y-95032556D01*
X144659545Y-95029702D01*
X144655102Y-95025661D01*
X144650314Y-95019755D01*
X144644864Y-95011305D01*
X144638433Y-94999633D01*
X144630703Y-94984061D01*
X144621356Y-94963911D01*
X144610075Y-94938505D01*
X144596541Y-94907165D01*
X144580435Y-94869212D01*
X144561441Y-94823968D01*
X144539240Y-94770756D01*
X144513513Y-94708897D01*
X144483944Y-94637713D01*
X144463957Y-94589600D01*
X144449949Y-94555720D01*
X144433783Y-94516366D01*
X144417510Y-94476541D01*
X144403825Y-94442845D01*
X144391027Y-94411476D01*
X144377974Y-94379955D01*
X144366069Y-94351640D01*
X144356715Y-94329889D01*
X144355500Y-94327134D01*
X144333283Y-94274361D01*
X144317556Y-94229670D01*
X144308591Y-94191716D01*
X144306661Y-94159157D01*
X144312040Y-94130652D01*
X144325000Y-94104856D01*
X144345813Y-94080429D01*
X144374753Y-94056027D01*
X144412093Y-94030309D01*
X144416374Y-94027565D01*
X144446337Y-94007601D01*
X144469378Y-93989847D01*
X144488711Y-93971543D01*
X144507549Y-93949926D01*
X144509419Y-93947614D01*
X144549260Y-93891159D01*
X144578222Y-93833994D01*
X144596711Y-93775051D01*
X144605129Y-93713263D01*
X144605757Y-93693384D01*
X144600725Y-93632249D01*
X144584975Y-93572533D01*
X144559074Y-93515350D01*
X144523589Y-93461811D01*
X144479086Y-93413028D01*
X144450083Y-93387920D01*
X144414194Y-93361400D01*
X144380556Y-93341492D01*
X144346575Y-93327371D01*
X144309654Y-93318209D01*
X144267199Y-93313180D01*
X144216615Y-93311457D01*
X144209911Y-93311434D01*
X144176718Y-93311674D01*
X144151910Y-93312689D01*
X144132593Y-93314808D01*
X144115874Y-93318364D01*
X144098856Y-93323685D01*
X144097022Y-93324329D01*
X144044439Y-93347745D01*
X143994057Y-93379334D01*
X143948077Y-93417249D01*
X143908701Y-93459648D01*
X143878131Y-93504684D01*
X143875122Y-93510249D01*
X143850533Y-93568170D01*
X143835629Y-93628692D01*
X143830218Y-93690329D01*
X143834110Y-93751598D01*
X143847116Y-93811013D01*
X143869046Y-93867091D01*
X143899710Y-93918347D01*
X143932276Y-93956789D01*
X143954377Y-93977337D01*
X143981569Y-94000089D01*
X144009327Y-94021332D01*
X144020822Y-94029428D01*
X144051769Y-94052350D01*
X144077638Y-94075206D01*
X144094065Y-94093424D01*
X144106494Y-94110892D01*
X144113579Y-94125423D01*
X144117120Y-94141995D01*
X144118697Y-94161607D01*
X144118829Y-94186418D01*
X144116935Y-94211221D01*
X144114209Y-94227052D01*
X144110096Y-94239916D01*
X144102128Y-94261661D01*
X144090911Y-94290799D01*
X144077055Y-94325842D01*
X144061167Y-94365302D01*
X144043855Y-94407691D01*
X144025728Y-94451522D01*
X144007394Y-94495306D01*
X143989460Y-94537555D01*
X143972536Y-94576783D01*
X143957228Y-94611500D01*
X143955659Y-94615000D01*
X143942749Y-94644515D01*
X143927184Y-94681281D01*
X143910330Y-94722004D01*
X143893553Y-94763385D01*
X143879880Y-94797877D01*
X143855392Y-94858857D01*
X143833632Y-94909535D01*
X143814307Y-94950485D01*
X143797124Y-94982283D01*
X143781790Y-95005503D01*
X143768011Y-95020720D01*
X143765153Y-95023056D01*
X143752687Y-95031390D01*
X143740197Y-95036026D01*
X143723651Y-95037992D01*
X143705173Y-95038334D01*
X143665222Y-95038334D01*
X143572048Y-94975380D01*
X143498549Y-94923550D01*
X143434180Y-94873207D01*
X143377227Y-94822685D01*
X143325981Y-94770320D01*
X143278729Y-94714444D01*
X143233762Y-94653393D01*
X143219203Y-94631934D01*
X143167980Y-94546838D01*
X143122537Y-94454861D01*
X143084318Y-94359341D01*
X143054769Y-94263615D01*
X143048151Y-94236822D01*
X143043160Y-94213416D01*
X143036854Y-94180811D01*
X143029562Y-94140975D01*
X143021614Y-94095877D01*
X143013340Y-94047486D01*
X143005070Y-93997772D01*
X142997133Y-93948703D01*
X142989859Y-93902248D01*
X142983578Y-93860376D01*
X142978620Y-93825055D01*
X142976765Y-93810667D01*
X142974367Y-93787319D01*
X142971752Y-93754942D01*
X142968987Y-93714987D01*
X142966137Y-93668907D01*
X142963267Y-93618150D01*
X142960444Y-93564170D01*
X142957733Y-93508416D01*
X142955199Y-93452340D01*
X142952909Y-93397393D01*
X142950927Y-93345026D01*
X142949319Y-93296690D01*
X142948151Y-93253836D01*
X142947489Y-93217915D01*
X142947398Y-93190379D01*
X142947932Y-93172845D01*
X142948641Y-93153424D01*
X142948796Y-93125003D01*
X142948430Y-93089857D01*
X142947574Y-93050258D01*
X142946259Y-93008482D01*
X142945282Y-92983756D01*
X142943674Y-92943627D01*
X142941886Y-92894750D01*
X142940001Y-92839660D01*
X142938102Y-92780894D01*
X142936272Y-92720989D01*
X142934593Y-92662481D01*
X142933594Y-92625334D01*
X142932512Y-92585167D01*
X143110648Y-92585167D01*
X143111347Y-92642651D01*
X143112823Y-92709623D01*
X143115078Y-92785787D01*
X143117579Y-92856756D01*
X143119539Y-92912327D01*
X143121323Y-92969370D01*
X143122882Y-93025750D01*
X143124163Y-93079329D01*
X143125116Y-93127973D01*
X143125689Y-93169544D01*
X143125834Y-93201067D01*
X143126091Y-93244719D01*
X143127025Y-93295281D01*
X143128549Y-93350929D01*
X143130580Y-93409840D01*
X143133033Y-93470190D01*
X143135823Y-93530156D01*
X143138866Y-93587914D01*
X143142075Y-93641641D01*
X143145368Y-93689512D01*
X143148659Y-93729705D01*
X143151798Y-93759867D01*
X143155931Y-93791007D01*
X143161563Y-93829748D01*
X143168363Y-93874111D01*
X143176000Y-93922117D01*
X143184143Y-93971787D01*
X143192460Y-94021144D01*
X143200622Y-94068206D01*
X143208295Y-94110996D01*
X143215150Y-94147536D01*
X143220855Y-94175845D01*
X143223109Y-94186022D01*
X143248393Y-94275008D01*
X143282260Y-94362933D01*
X143323718Y-94448099D01*
X143371772Y-94528806D01*
X143425429Y-94603357D01*
X143483698Y-94670053D01*
X143533710Y-94717252D01*
X143561341Y-94740303D01*
X143588859Y-94762123D01*
X143614815Y-94781679D01*
X143637760Y-94797941D01*
X143656247Y-94809877D01*
X143668826Y-94816457D01*
X143673847Y-94817013D01*
X143677059Y-94810559D01*
X143683592Y-94795289D01*
X143692738Y-94772936D01*
X143703788Y-94745228D01*
X143716035Y-94713897D01*
X143716081Y-94713778D01*
X143731406Y-94674935D01*
X143748580Y-94632616D01*
X143765970Y-94590774D01*
X143781942Y-94553359D01*
X143789586Y-94535978D01*
X143799165Y-94514200D01*
X143811230Y-94486292D01*
X143825166Y-94453723D01*
X143840357Y-94417962D01*
X143856187Y-94380478D01*
X143872041Y-94342742D01*
X143887304Y-94306223D01*
X143901361Y-94272390D01*
X143913595Y-94242714D01*
X143923391Y-94218662D01*
X143930135Y-94201706D01*
X143933210Y-94193314D01*
X143933334Y-94192740D01*
X143928972Y-94188818D01*
X143917350Y-94180312D01*
X143900662Y-94168808D01*
X143894019Y-94164359D01*
X143832115Y-94116543D01*
X143778156Y-94061019D01*
X143732755Y-93998661D01*
X143696526Y-93930345D01*
X143670081Y-93856943D01*
X143664975Y-93837509D01*
X143659652Y-93808020D01*
X143655670Y-93770686D01*
X143653154Y-93728883D01*
X143652232Y-93685989D01*
X143653029Y-93645382D01*
X143655672Y-93610438D01*
X143656300Y-93605409D01*
X143667119Y-93548105D01*
X143683640Y-93491427D01*
X143704471Y-93439919D01*
X143710989Y-93426845D01*
X143749777Y-93364465D01*
X143797787Y-93306662D01*
X143853418Y-93254813D01*
X143915067Y-93210297D01*
X143981131Y-93174490D01*
X144025359Y-93156651D01*
X144046490Y-93149400D01*
X144063821Y-93144094D01*
X144079843Y-93140383D01*
X144097049Y-93137913D01*
X144117928Y-93136333D01*
X144144972Y-93135292D01*
X144180674Y-93134436D01*
X144182979Y-93134387D01*
X144249486Y-93134233D01*
X144306847Y-93137120D01*
X144356894Y-93143454D01*
X144401459Y-93153645D01*
X144442373Y-93168101D01*
X144481470Y-93187229D01*
X144516542Y-93208728D01*
X144584248Y-93260135D01*
X144643161Y-93318207D01*
X144692935Y-93382488D01*
X144733220Y-93452519D01*
X144763670Y-93527842D01*
X144766932Y-93538143D01*
X144772358Y-93556502D01*
X144776303Y-93572459D01*
X144778992Y-93588348D01*
X144780647Y-93606500D01*
X144781491Y-93629249D01*
X144781748Y-93658927D01*
X144781669Y-93692134D01*
X144781282Y-93732257D01*
X144780401Y-93763460D01*
X144778831Y-93788109D01*
X144776376Y-93808570D01*
X144772839Y-93827206D01*
X144769279Y-93841711D01*
X144749557Y-93900438D01*
X144722030Y-93959010D01*
X144688136Y-94015372D01*
X144649315Y-94067473D01*
X144607009Y-94113258D01*
X144562656Y-94150673D01*
X144543688Y-94163445D01*
X144524311Y-94176167D01*
X144509529Y-94187191D01*
X144501342Y-94194951D01*
X144500392Y-94197311D01*
X144503543Y-94204936D01*
X144509908Y-94219906D01*
X144518206Y-94239211D01*
X144519613Y-94242467D01*
X144528242Y-94262791D01*
X144539676Y-94290239D01*
X144552527Y-94321454D01*
X144565407Y-94353078D01*
X144567469Y-94358178D01*
X144581103Y-94391775D01*
X144595783Y-94427683D01*
X144609789Y-94461709D01*
X144621402Y-94489659D01*
X144621889Y-94490822D01*
X144630966Y-94512553D01*
X144643384Y-94542377D01*
X144658173Y-94577955D01*
X144674359Y-94616948D01*
X144690970Y-94657017D01*
X144699283Y-94677089D01*
X144717320Y-94720600D01*
X144731571Y-94754783D01*
X144742539Y-94780756D01*
X144750729Y-94799632D01*
X144756644Y-94812528D01*
X144760789Y-94820557D01*
X144763666Y-94824837D01*
X144765781Y-94826481D01*
X144766866Y-94826667D01*
X144772625Y-94823592D01*
X144785390Y-94815312D01*
X144803027Y-94803241D01*
X144815840Y-94794211D01*
X144850418Y-94767289D01*
X144888448Y-94733737D01*
X144928209Y-94695420D01*
X144967975Y-94654200D01*
X145006023Y-94611941D01*
X145040630Y-94570507D01*
X145070071Y-94531759D01*
X145092624Y-94497562D01*
X145096497Y-94490822D01*
X145130288Y-94423264D01*
X145161264Y-94347080D01*
X145189466Y-94262036D01*
X145214933Y-94167899D01*
X145237707Y-94064436D01*
X145257828Y-93951412D01*
X145275335Y-93828594D01*
X145290269Y-93695749D01*
X145302670Y-93552643D01*
X145312579Y-93399042D01*
X145320036Y-93234713D01*
X145321774Y-93184134D01*
X145323290Y-93131868D01*
X145324649Y-93075602D01*
X145325795Y-93018417D01*
X145326674Y-92963394D01*
X145327228Y-92913617D01*
X145327404Y-92873689D01*
X145327697Y-92827172D01*
X145328548Y-92773378D01*
X145329862Y-92716300D01*
X145331544Y-92659931D01*
X145333498Y-92608265D01*
X145334055Y-92595741D01*
X145335749Y-92556391D01*
X145337044Y-92520843D01*
X145337904Y-92490626D01*
X145338292Y-92467269D01*
X145338172Y-92452304D01*
X145337612Y-92447286D01*
X145331376Y-92447377D01*
X145315761Y-92449435D01*
X145292451Y-92453185D01*
X145263132Y-92458351D01*
X145229486Y-92464659D01*
X145219508Y-92466594D01*
X145094752Y-92489098D01*
X144965174Y-92508724D01*
X144829065Y-92525694D01*
X144684716Y-92540227D01*
X144582445Y-92548718D01*
X144539048Y-92551442D01*
X144486812Y-92553727D01*
X144427437Y-92555573D01*
X144362623Y-92556976D01*
X144294069Y-92557935D01*
X144223477Y-92558446D01*
X144152545Y-92558508D01*
X144082975Y-92558118D01*
X144016464Y-92557274D01*
X143954715Y-92555974D01*
X143899426Y-92554214D01*
X143852298Y-92551993D01*
X143820445Y-92549785D01*
X143688826Y-92537796D01*
X143568260Y-92524968D01*
X143458538Y-92511273D01*
X143359454Y-92496684D01*
X143270799Y-92481172D01*
X143216248Y-92470059D01*
X143185392Y-92463446D01*
X143158198Y-92457784D01*
X143136669Y-92453478D01*
X143122808Y-92450930D01*
X143118797Y-92450409D01*
X143115618Y-92456019D01*
X143113213Y-92472596D01*
X143111582Y-92499843D01*
X143110727Y-92537466D01*
X143110648Y-92585167D01*
X142932512Y-92585167D01*
X142932229Y-92574691D01*
X142930827Y-92525734D01*
X142929438Y-92480053D01*
X142928115Y-92439239D01*
X142926908Y-92404881D01*
X142925869Y-92378570D01*
X142925051Y-92361896D01*
X142925026Y-92361487D01*
X142924079Y-92333815D01*
X142925495Y-92314360D01*
X142929527Y-92300248D01*
X142930614Y-92297924D01*
X142939108Y-92280898D01*
X142907054Y-92258918D01*
X142863740Y-92224384D01*
X142827440Y-92184519D01*
X142797415Y-92138104D01*
X142772923Y-92083924D01*
X142753227Y-92020760D01*
X142747255Y-91995978D01*
X142743722Y-91972107D01*
X142741352Y-91937072D01*
X142740147Y-91890941D01*
X142739999Y-91852045D01*
X142740031Y-91847731D01*
X142912716Y-91847731D01*
X142913416Y-91868938D01*
X142914023Y-91876034D01*
X142916972Y-91902900D01*
X142920643Y-91929100D01*
X142924613Y-91952298D01*
X142928461Y-91970164D01*
X142931766Y-91980366D01*
X142933146Y-91981867D01*
X142939196Y-91978507D01*
X142946557Y-91972494D01*
X142956330Y-91965853D01*
X142960424Y-91967189D01*
X142958447Y-91974504D01*
X142950009Y-91985800D01*
X142949312Y-91986537D01*
X142934135Y-92002378D01*
X142951339Y-92036806D01*
X142976457Y-92075272D01*
X143009148Y-92106380D01*
X143035248Y-92122662D01*
X143050410Y-92128813D01*
X143074258Y-92136477D01*
X143105500Y-92145373D01*
X143142848Y-92155222D01*
X143185011Y-92165742D01*
X143230700Y-92176654D01*
X143278624Y-92187677D01*
X143327495Y-92198531D01*
X143376023Y-92208935D01*
X143422917Y-92218609D01*
X143466887Y-92227273D01*
X143506645Y-92234645D01*
X143540901Y-92240446D01*
X143568364Y-92244396D01*
X143587744Y-92246213D01*
X143597753Y-92245618D01*
X143598573Y-92245131D01*
X143602824Y-92233592D01*
X143600536Y-92216702D01*
X143592501Y-92197691D01*
X143583708Y-92184633D01*
X143565224Y-92161632D01*
X143591666Y-92181816D01*
X143606649Y-92192668D01*
X143618229Y-92199995D01*
X143622954Y-92202000D01*
X143638754Y-92197957D01*
X143659739Y-92186653D01*
X143683669Y-92169329D01*
X143687070Y-92166541D01*
X143715695Y-92142734D01*
X143686226Y-92178304D01*
X143672433Y-92196202D01*
X143662095Y-92211998D01*
X143657001Y-92222885D01*
X143656756Y-92224556D01*
X143660412Y-92236013D01*
X143669230Y-92248802D01*
X143669456Y-92249050D01*
X143675075Y-92254309D01*
X143682151Y-92258392D01*
X143692522Y-92261709D01*
X143708027Y-92264674D01*
X143730503Y-92267697D01*
X143761788Y-92271189D01*
X143774129Y-92272491D01*
X143806009Y-92275565D01*
X143834686Y-92277839D01*
X143857956Y-92279175D01*
X143873615Y-92279437D01*
X143878598Y-92278984D01*
X143892140Y-92278563D01*
X143899359Y-92280956D01*
X143907093Y-92282367D01*
X143924485Y-92283642D01*
X143949905Y-92284725D01*
X143981722Y-92285557D01*
X144018305Y-92286081D01*
X144048890Y-92286238D01*
X144190156Y-92286413D01*
X144191371Y-92284696D01*
X144208372Y-92284696D01*
X144210928Y-92287414D01*
X144221494Y-92290221D01*
X144239111Y-92291464D01*
X144259652Y-92291151D01*
X144278990Y-92289290D01*
X144288927Y-92287262D01*
X144296934Y-92284607D01*
X144298107Y-92281434D01*
X144291537Y-92275655D01*
X144280561Y-92268069D01*
X144261719Y-92256941D01*
X144247277Y-92253766D01*
X144233641Y-92258525D01*
X144221238Y-92267745D01*
X144210426Y-92278207D01*
X144208372Y-92284696D01*
X144191371Y-92284696D01*
X144206619Y-92263163D01*
X144219417Y-92240038D01*
X144222051Y-92219391D01*
X144214456Y-92198648D01*
X144204597Y-92184633D01*
X144186112Y-92161632D01*
X144212555Y-92181816D01*
X144227538Y-92192668D01*
X144239118Y-92199995D01*
X144243843Y-92202000D01*
X144259643Y-92197957D01*
X144280628Y-92186653D01*
X144304558Y-92169329D01*
X144307959Y-92166541D01*
X144336584Y-92142734D01*
X144307114Y-92178304D01*
X144293325Y-92196183D01*
X144282988Y-92211939D01*
X144277891Y-92222772D01*
X144277645Y-92224432D01*
X144280941Y-92234678D01*
X144289389Y-92249498D01*
X144296418Y-92259417D01*
X144315192Y-92283845D01*
X144379674Y-92282412D01*
X144422285Y-92280591D01*
X144473589Y-92276972D01*
X144531180Y-92271815D01*
X144592651Y-92265384D01*
X144655596Y-92257942D01*
X144717610Y-92249753D01*
X144776286Y-92241077D01*
X144812642Y-92235106D01*
X144831796Y-92231456D01*
X144842000Y-92228050D01*
X144845493Y-92223612D01*
X144844525Y-92216911D01*
X144838930Y-92205258D01*
X144828969Y-92189898D01*
X144823973Y-92183227D01*
X144807001Y-92161632D01*
X144833444Y-92181816D01*
X144848427Y-92192668D01*
X144860007Y-92199995D01*
X144864732Y-92202000D01*
X144880531Y-92197957D01*
X144901517Y-92186653D01*
X144925446Y-92169329D01*
X144928848Y-92166541D01*
X144957473Y-92142734D01*
X144927275Y-92179180D01*
X144914278Y-92195890D01*
X144905609Y-92209084D01*
X144902575Y-92216675D01*
X144903181Y-92217661D01*
X144910031Y-92217141D01*
X144925805Y-92214738D01*
X144948377Y-92210859D01*
X144975617Y-92205914D01*
X145005399Y-92200310D01*
X145035593Y-92194457D01*
X145064071Y-92188762D01*
X145088705Y-92183636D01*
X145107368Y-92179486D01*
X145117930Y-92176721D01*
X145119312Y-92176161D01*
X145116637Y-92171738D01*
X145107072Y-92160764D01*
X145091838Y-92144541D01*
X145072152Y-92124373D01*
X145052498Y-92104774D01*
X145019954Y-92072293D01*
X144991277Y-92042884D01*
X144967215Y-92017376D01*
X144948521Y-91996594D01*
X144935945Y-91981369D01*
X144930238Y-91972527D01*
X144930788Y-91970578D01*
X144935953Y-91974408D01*
X144947618Y-91985000D01*
X144964432Y-92001006D01*
X144985041Y-92021081D01*
X145008093Y-92043877D01*
X145032235Y-92068046D01*
X145056114Y-92092242D01*
X145078377Y-92115119D01*
X145097671Y-92135328D01*
X145112645Y-92151523D01*
X145113739Y-92152743D01*
X145132778Y-92174041D01*
X145200169Y-92157499D01*
X145267559Y-92140957D01*
X145353325Y-92051534D01*
X145379117Y-92025075D01*
X145402075Y-92002355D01*
X145421091Y-91984409D01*
X145435056Y-91972271D01*
X145442861Y-91966975D01*
X145443978Y-91966968D01*
X145441560Y-91972156D01*
X145431906Y-91983897D01*
X145416061Y-92001072D01*
X145395069Y-92022560D01*
X145369974Y-92047242D01*
X145361378Y-92055508D01*
X145273889Y-92139190D01*
X145361095Y-92116834D01*
X145392325Y-92108478D01*
X145420910Y-92100186D01*
X145444488Y-92092691D01*
X145460701Y-92086724D01*
X145465498Y-92084434D01*
X145487311Y-92065585D01*
X145505561Y-92037173D01*
X145517187Y-92007766D01*
X145522323Y-91984359D01*
X145526228Y-91952938D01*
X145528777Y-91916723D01*
X145529844Y-91878935D01*
X145529304Y-91842793D01*
X145527033Y-91811518D01*
X145525292Y-91799180D01*
X145519920Y-91770369D01*
X145513614Y-91739854D01*
X145506879Y-91709727D01*
X145500221Y-91682079D01*
X145494146Y-91659002D01*
X145489159Y-91642587D01*
X145485767Y-91634926D01*
X145485507Y-91634703D01*
X145479377Y-91636795D01*
X145467013Y-91644886D01*
X145450614Y-91657467D01*
X145442493Y-91664200D01*
X145404250Y-91696645D01*
X145431210Y-91663544D01*
X145450399Y-91638540D01*
X145461694Y-91618948D01*
X145465355Y-91602376D01*
X145461643Y-91586427D01*
X145450817Y-91568709D01*
X145442637Y-91558215D01*
X145433741Y-91547041D01*
X145431901Y-91543716D01*
X145436913Y-91547449D01*
X145440671Y-91550638D01*
X145452588Y-91560243D01*
X145461514Y-91566461D01*
X145462970Y-91563563D01*
X145460693Y-91552113D01*
X145455311Y-91533969D01*
X145447455Y-91510992D01*
X145437752Y-91485041D01*
X145426831Y-91457976D01*
X145417743Y-91437002D01*
X145400485Y-91398535D01*
X145373876Y-91423447D01*
X145357106Y-91439154D01*
X145335936Y-91458990D01*
X145314200Y-91479364D01*
X145308080Y-91485102D01*
X145295716Y-91496475D01*
X145290137Y-91500994D01*
X145291556Y-91498376D01*
X145300184Y-91488338D01*
X145316235Y-91470598D01*
X145331683Y-91453792D01*
X145394473Y-91385740D01*
X145370421Y-91340725D01*
X145338671Y-91284669D01*
X145305239Y-91232998D01*
X145270403Y-91185136D01*
X145252771Y-91162933D01*
X145232521Y-91138973D01*
X145211114Y-91114808D01*
X145190006Y-91091989D01*
X145170659Y-91072068D01*
X145154530Y-91056595D01*
X145143079Y-91047123D01*
X145138499Y-91044889D01*
X145129171Y-91048845D01*
X145124285Y-91053388D01*
X145118080Y-91059780D01*
X145105017Y-91072501D01*
X145086511Y-91090199D01*
X145063976Y-91111522D01*
X145038826Y-91135116D01*
X145037516Y-91136341D01*
X145013423Y-91158646D01*
X144997155Y-91173240D01*
X144988737Y-91180091D01*
X144988196Y-91179165D01*
X144995555Y-91170428D01*
X145010842Y-91153848D01*
X145034081Y-91129390D01*
X145065298Y-91097021D01*
X145075851Y-91086145D01*
X145096594Y-91064529D01*
X145110329Y-91049315D01*
X145118101Y-91038994D01*
X145120957Y-91032059D01*
X145119942Y-91027001D01*
X145118393Y-91024804D01*
X145109071Y-91015752D01*
X145092726Y-91001952D01*
X145071589Y-90985120D01*
X145047891Y-90966972D01*
X145023864Y-90949225D01*
X145001739Y-90933594D01*
X144987662Y-90924246D01*
X144955435Y-90903723D01*
X144926984Y-90937910D01*
X144913455Y-90955347D01*
X144903413Y-90970536D01*
X144898682Y-90980663D01*
X144898534Y-90981837D01*
X144900203Y-90990405D01*
X144905916Y-91001678D01*
X144916730Y-91017276D01*
X144933701Y-91038820D01*
X144943337Y-91050534D01*
X144969089Y-91081578D01*
X144938045Y-91055826D01*
X144913382Y-91035821D01*
X144895376Y-91022439D01*
X144882410Y-91014624D01*
X144872865Y-91011319D01*
X144869377Y-91011022D01*
X144860895Y-91014509D01*
X144846571Y-91023818D01*
X144828956Y-91037225D01*
X144821513Y-91043389D01*
X144783361Y-91075756D01*
X144810321Y-91042655D01*
X144829576Y-91017521D01*
X144840880Y-90997802D01*
X144844485Y-90981158D01*
X144840642Y-90965248D01*
X144829601Y-90947730D01*
X144821574Y-90937771D01*
X144805592Y-90918778D01*
X144832740Y-90939500D01*
X144849090Y-90951675D01*
X144859919Y-90957944D01*
X144868640Y-90959296D01*
X144878670Y-90956718D01*
X144884597Y-90954511D01*
X144896760Y-90948113D01*
X144912057Y-90937760D01*
X144927651Y-90925705D01*
X144940706Y-90914202D01*
X144948386Y-90905503D01*
X144949334Y-90903077D01*
X144944524Y-90899038D01*
X144931382Y-90891245D01*
X144911836Y-90880650D01*
X144887815Y-90868205D01*
X144861246Y-90854862D01*
X144834059Y-90841574D01*
X144808182Y-90829292D01*
X144785543Y-90818968D01*
X144768072Y-90811554D01*
X144757696Y-90808002D01*
X144756386Y-90807829D01*
X144748749Y-90811518D01*
X144735001Y-90821565D01*
X144717098Y-90836430D01*
X144697196Y-90854389D01*
X144647508Y-90900956D01*
X144694248Y-90850156D01*
X144740989Y-90799356D01*
X144659535Y-90772898D01*
X144627715Y-90762840D01*
X144596553Y-90753480D01*
X144569077Y-90745694D01*
X144548314Y-90740361D01*
X144543637Y-90739326D01*
X144524611Y-90735650D01*
X144512717Y-90734964D01*
X144504030Y-90737976D01*
X144494629Y-90745392D01*
X144490785Y-90748851D01*
X144472378Y-90765489D01*
X144503136Y-90731303D01*
X144462256Y-90718613D01*
X144416573Y-90699157D01*
X144377937Y-90671630D01*
X144347411Y-90636801D01*
X144345682Y-90634225D01*
X144326230Y-90604735D01*
X144311815Y-90617220D01*
X144302873Y-90624884D01*
X144301447Y-90625566D01*
X144307609Y-90618730D01*
X144312288Y-90613692D01*
X144321856Y-90601733D01*
X144324341Y-90591208D01*
X144321579Y-90577409D01*
X144319697Y-90564336D01*
X144318456Y-90542634D01*
X144317935Y-90514949D01*
X144318217Y-90483928D01*
X144318449Y-90475047D01*
X144319718Y-90440700D01*
X144321468Y-90414461D01*
X144324171Y-90393149D01*
X144328301Y-90373583D01*
X144334330Y-90352581D01*
X144338614Y-90339303D01*
X144348507Y-90312689D01*
X144362909Y-90278459D01*
X144380752Y-90238815D01*
X144400964Y-90195954D01*
X144422478Y-90152077D01*
X144444222Y-90109381D01*
X144465128Y-90070068D01*
X144484125Y-90036335D01*
X144493710Y-90020416D01*
X144551925Y-89936082D01*
X144619030Y-89855136D01*
X144693241Y-89779329D01*
X144772773Y-89710414D01*
X144855841Y-89650140D01*
X144897402Y-89624229D01*
X144965838Y-89587270D01*
X145039144Y-89553780D01*
X145113742Y-89525201D01*
X145186052Y-89502975D01*
X145217031Y-89495400D01*
X145234717Y-89491406D01*
X145246800Y-89487938D01*
X145252617Y-89484240D01*
X145251504Y-89479555D01*
X145242798Y-89473127D01*
X145225836Y-89464199D01*
X145199955Y-89452016D01*
X145165007Y-89436055D01*
X145130006Y-89420010D01*
X145091242Y-89402098D01*
X145053332Y-89384459D01*
X145020893Y-89369234D01*
X145019685Y-89368664D01*
X144951748Y-89336552D01*
X144870108Y-89404592D01*
X144756398Y-89505298D01*
X144652302Y-89609793D01*
X144558261Y-89717597D01*
X144474716Y-89828227D01*
X144450739Y-89863440D01*
X144389643Y-89961058D01*
X144337640Y-90056621D01*
X144293558Y-90152779D01*
X144256229Y-90252186D01*
X144224482Y-90357491D01*
X144212895Y-90402633D01*
X144200356Y-90451139D01*
X144189012Y-90489256D01*
X144178604Y-90517791D01*
X144170390Y-90534955D01*
X144152567Y-90566536D01*
X144171666Y-90586990D01*
X144189686Y-90606975D01*
X144199747Y-90619892D01*
X144202234Y-90626277D01*
X144200437Y-90627200D01*
X144193989Y-90623488D01*
X144182419Y-90613825D01*
X144170259Y-90602286D01*
X144145293Y-90577372D01*
X144125391Y-90595237D01*
X144084356Y-90626323D01*
X144040355Y-90649287D01*
X144012356Y-90658827D01*
X143992944Y-90664437D01*
X143977862Y-90669584D01*
X143970594Y-90673021D01*
X143969405Y-90679308D01*
X143974805Y-90691149D01*
X143987252Y-90709285D01*
X144007201Y-90734458D01*
X144011870Y-90740089D01*
X144037756Y-90771134D01*
X144006711Y-90745381D01*
X143982048Y-90725377D01*
X143964043Y-90711995D01*
X143951076Y-90704179D01*
X143941532Y-90700875D01*
X143938043Y-90700578D01*
X143929545Y-90704064D01*
X143915223Y-90713368D01*
X143897643Y-90726755D01*
X143890493Y-90732678D01*
X143852656Y-90764778D01*
X143881706Y-90728728D01*
X143895155Y-90711492D01*
X143905301Y-90697450D01*
X143910443Y-90688992D01*
X143910756Y-90687905D01*
X143905879Y-90685735D01*
X143893752Y-90686254D01*
X143889589Y-90686902D01*
X143877601Y-90689772D01*
X143858424Y-90695178D01*
X143834335Y-90702393D01*
X143807608Y-90710693D01*
X143780519Y-90719349D01*
X143755345Y-90727636D01*
X143734359Y-90734828D01*
X143719839Y-90740198D01*
X143714156Y-90742896D01*
X143717004Y-90747609D01*
X143726642Y-90758972D01*
X143741865Y-90775662D01*
X143761470Y-90796357D01*
X143782239Y-90817693D01*
X143818154Y-90854413D01*
X143846079Y-90883566D01*
X143866204Y-90905366D01*
X143878718Y-90920026D01*
X143883810Y-90927761D01*
X143881669Y-90928785D01*
X143879711Y-90927850D01*
X143872528Y-90922144D01*
X143858823Y-90909606D01*
X143839925Y-90891515D01*
X143817163Y-90869152D01*
X143791868Y-90843794D01*
X143782551Y-90834336D01*
X143696680Y-90746870D01*
X143632105Y-90779225D01*
X143573293Y-90811263D01*
X143512815Y-90848901D01*
X143453039Y-90890389D01*
X143396333Y-90933978D01*
X143345066Y-90977916D01*
X143301606Y-91020454D01*
X143293025Y-91029787D01*
X143221104Y-91116284D01*
X143152730Y-91211425D01*
X143099627Y-91295758D01*
X143069756Y-91346248D01*
X143151051Y-91428402D01*
X143188399Y-91466366D01*
X143217872Y-91496834D01*
X143239750Y-91520119D01*
X143254313Y-91536534D01*
X143261839Y-91546390D01*
X143262608Y-91550001D01*
X143258498Y-91548577D01*
X143251326Y-91542861D01*
X143237606Y-91530252D01*
X143218617Y-91511990D01*
X143195639Y-91489315D01*
X143169951Y-91463469D01*
X143155900Y-91449138D01*
X143064915Y-91355909D01*
X143036089Y-91415221D01*
X143012977Y-91464083D01*
X142995751Y-91503466D01*
X142984365Y-91533497D01*
X142978772Y-91554299D01*
X142978925Y-91566000D01*
X142979748Y-91567392D01*
X142993468Y-91577463D01*
X143010778Y-91578309D01*
X143032323Y-91569768D01*
X143058747Y-91551677D01*
X143066181Y-91545652D01*
X143094806Y-91521845D01*
X143065337Y-91557415D01*
X143051566Y-91575173D01*
X143041235Y-91590659D01*
X143036122Y-91601139D01*
X143035867Y-91602726D01*
X143037536Y-91611294D01*
X143043249Y-91622567D01*
X143054063Y-91638164D01*
X143071035Y-91659708D01*
X143080670Y-91671422D01*
X143106422Y-91702467D01*
X143075378Y-91676715D01*
X143049689Y-91655814D01*
X143030556Y-91641873D01*
X143016081Y-91634371D01*
X143004365Y-91632785D01*
X142993510Y-91636596D01*
X142981617Y-91645281D01*
X142976607Y-91649596D01*
X142961975Y-91660936D01*
X142954375Y-91663666D01*
X142954309Y-91658208D01*
X142962280Y-91644987D01*
X142965682Y-91640394D01*
X142976565Y-91621103D01*
X142981152Y-91601798D01*
X142978914Y-91585830D01*
X142975162Y-91580237D01*
X142970765Y-91580233D01*
X142965551Y-91589201D01*
X142958993Y-91608122D01*
X142957564Y-91612881D01*
X142952504Y-91630107D01*
X142948600Y-91643952D01*
X142945220Y-91657067D01*
X142941730Y-91672104D01*
X142937498Y-91691713D01*
X142931893Y-91718546D01*
X142928789Y-91733511D01*
X142922598Y-91764557D01*
X142919150Y-91787013D01*
X142918659Y-91803291D01*
X142921335Y-91815801D01*
X142927392Y-91826956D01*
X142937041Y-91839166D01*
X142938214Y-91840541D01*
X142948711Y-91853752D01*
X142951385Y-91859642D01*
X142947628Y-91858798D01*
X142934907Y-91849835D01*
X142928878Y-91843886D01*
X142920199Y-91835741D01*
X142914894Y-91836844D01*
X142912716Y-91847731D01*
X142740031Y-91847731D01*
X142740306Y-91811250D01*
X142741080Y-91778960D01*
X142742557Y-91752395D01*
X142744975Y-91728773D01*
X142748572Y-91705313D01*
X142753586Y-91679234D01*
X142755601Y-91669541D01*
X142786175Y-91550483D01*
X142827625Y-91432528D01*
X142880040Y-91315486D01*
X142943512Y-91199167D01*
X143018129Y-91083382D01*
X143064229Y-91019489D01*
X143116787Y-90952803D01*
X143169735Y-90893160D01*
X143225304Y-90838472D01*
X143285723Y-90786654D01*
X143353220Y-90735621D01*
X143408066Y-90697782D01*
X143483466Y-90650696D01*
X143559180Y-90610287D01*
X143637465Y-90575630D01*
X143720579Y-90545800D01*
X143810779Y-90519873D01*
X143885356Y-90502232D01*
X143915344Y-90495229D01*
X143942701Y-90487988D01*
X143964853Y-90481252D01*
X143979229Y-90475760D01*
X143981526Y-90474536D01*
X143994222Y-90464538D01*
X144005182Y-90450356D01*
X144015090Y-90430457D01*
X144024630Y-90403306D01*
X144034487Y-90367368D01*
X144040558Y-90342156D01*
X144076087Y-90214001D01*
X144122803Y-90087093D01*
X144180716Y-89961416D01*
X144249834Y-89836954D01*
X144330164Y-89713691D01*
X144413547Y-89601877D01*
X144446239Y-89562670D01*
X144486080Y-89518326D01*
X144531294Y-89470620D01*
X144580104Y-89421325D01*
X144630731Y-89372216D01*
X144681400Y-89325064D01*
X144730332Y-89281646D01*
X144757259Y-89258837D01*
X144796276Y-89226514D01*
X144827748Y-89200692D01*
X144852781Y-89180621D01*
X144872480Y-89165547D01*
X144887949Y-89154719D01*
X144900294Y-89147385D01*
X144910621Y-89142793D01*
X144920033Y-89140191D01*
X144929638Y-89138826D01*
X144934211Y-89138424D01*
X144946154Y-89137895D01*
X144957301Y-89138857D01*
G36*
X143073374Y-91974413D02*
X143085088Y-91985003D01*
X143101892Y-92000977D01*
X143122412Y-92020964D01*
X143145276Y-92043592D01*
X143169110Y-92067491D01*
X143192541Y-92091288D01*
X143214196Y-92113613D01*
X143232703Y-92133095D01*
X143246687Y-92148361D01*
X143250393Y-92152611D01*
X143261955Y-92166791D01*
X143265940Y-92173262D01*
X143262727Y-92172323D01*
X143252694Y-92164276D01*
X143236222Y-92149418D01*
X143213690Y-92128051D01*
X143189690Y-92104634D01*
X143157191Y-92072197D01*
X143128546Y-92042820D01*
X143104509Y-92017334D01*
X143085832Y-91996569D01*
X143073268Y-91981354D01*
X143067570Y-91972521D01*
X143068122Y-91970578D01*
X143073374Y-91974413D01*
X143073374Y-91974413D01*
G37*
X143073374Y-91974413D02*
X143085088Y-91985003D01*
X143101892Y-92000977D01*
X143122412Y-92020964D01*
X143145276Y-92043592D01*
X143169110Y-92067491D01*
X143192541Y-92091288D01*
X143214196Y-92113613D01*
X143232703Y-92133095D01*
X143246687Y-92148361D01*
X143250393Y-92152611D01*
X143261955Y-92166791D01*
X143265940Y-92173262D01*
X143262727Y-92172323D01*
X143252694Y-92164276D01*
X143236222Y-92149418D01*
X143213690Y-92128051D01*
X143189690Y-92104634D01*
X143157191Y-92072197D01*
X143128546Y-92042820D01*
X143104509Y-92017334D01*
X143085832Y-91996569D01*
X143073268Y-91981354D01*
X143067570Y-91972521D01*
X143068122Y-91970578D01*
X143073374Y-91974413D01*
G36*
X143694262Y-91974413D02*
X143705977Y-91985003D01*
X143722781Y-92000977D01*
X143743301Y-92020964D01*
X143766165Y-92043592D01*
X143789999Y-92067491D01*
X143813430Y-92091288D01*
X143835085Y-92113613D01*
X143853592Y-92133095D01*
X143867576Y-92148361D01*
X143871282Y-92152611D01*
X143882844Y-92166791D01*
X143886829Y-92173262D01*
X143883615Y-92172323D01*
X143873583Y-92164276D01*
X143857111Y-92149418D01*
X143834579Y-92128051D01*
X143810579Y-92104634D01*
X143778080Y-92072197D01*
X143749435Y-92042820D01*
X143725398Y-92017334D01*
X143706721Y-91996569D01*
X143694157Y-91981354D01*
X143688459Y-91972521D01*
X143689011Y-91970578D01*
X143694262Y-91974413D01*
X143694262Y-91974413D01*
G37*
X143694262Y-91974413D02*
X143705977Y-91985003D01*
X143722781Y-92000977D01*
X143743301Y-92020964D01*
X143766165Y-92043592D01*
X143789999Y-92067491D01*
X143813430Y-92091288D01*
X143835085Y-92113613D01*
X143853592Y-92133095D01*
X143867576Y-92148361D01*
X143871282Y-92152611D01*
X143882844Y-92166791D01*
X143886829Y-92173262D01*
X143883615Y-92172323D01*
X143873583Y-92164276D01*
X143857111Y-92149418D01*
X143834579Y-92128051D01*
X143810579Y-92104634D01*
X143778080Y-92072197D01*
X143749435Y-92042820D01*
X143725398Y-92017334D01*
X143706721Y-91996569D01*
X143694157Y-91981354D01*
X143688459Y-91972521D01*
X143689011Y-91970578D01*
X143694262Y-91974413D01*
G36*
X144315151Y-91974413D02*
X144326866Y-91985003D01*
X144343670Y-92000977D01*
X144364190Y-92020964D01*
X144387054Y-92043592D01*
X144410888Y-92067491D01*
X144434319Y-92091288D01*
X144455974Y-92113613D01*
X144474481Y-92133095D01*
X144488465Y-92148361D01*
X144492171Y-92152611D01*
X144503733Y-92166791D01*
X144507718Y-92173262D01*
X144504504Y-92172323D01*
X144494472Y-92164276D01*
X144478000Y-92149418D01*
X144455468Y-92128051D01*
X144431467Y-92104634D01*
X144398968Y-92072197D01*
X144370324Y-92042820D01*
X144346287Y-92017334D01*
X144327610Y-91996569D01*
X144315046Y-91981354D01*
X144309347Y-91972521D01*
X144309899Y-91970578D01*
X144315151Y-91974413D01*
X144315151Y-91974413D01*
G37*
X144315151Y-91974413D02*
X144326866Y-91985003D01*
X144343670Y-92000977D01*
X144364190Y-92020964D01*
X144387054Y-92043592D01*
X144410888Y-92067491D01*
X144434319Y-92091288D01*
X144455974Y-92113613D01*
X144474481Y-92133095D01*
X144488465Y-92148361D01*
X144492171Y-92152611D01*
X144503733Y-92166791D01*
X144507718Y-92173262D01*
X144504504Y-92172323D01*
X144494472Y-92164276D01*
X144478000Y-92149418D01*
X144455468Y-92128051D01*
X144431467Y-92104634D01*
X144398968Y-92072197D01*
X144370324Y-92042820D01*
X144346287Y-92017334D01*
X144327610Y-91996569D01*
X144315046Y-91981354D01*
X144309347Y-91972521D01*
X144309899Y-91970578D01*
X144315151Y-91974413D01*
G36*
X143581358Y-91966677D02*
X143582460Y-91969100D01*
X143581169Y-91972975D01*
X143576607Y-91979228D01*
X143567896Y-91988783D01*
X143554158Y-92002567D01*
X143534513Y-92021503D01*
X143508085Y-92046518D01*
X143484600Y-92068588D01*
X143405578Y-92142734D01*
X143468591Y-92075000D01*
X143501842Y-92039481D01*
X143528289Y-92011775D01*
X143548603Y-91991236D01*
X143563457Y-91977219D01*
X143573523Y-91969078D01*
X143579472Y-91966168D01*
X143581358Y-91966677D01*
X143581358Y-91966677D01*
G37*
X143581358Y-91966677D02*
X143582460Y-91969100D01*
X143581169Y-91972975D01*
X143576607Y-91979228D01*
X143567896Y-91988783D01*
X143554158Y-92002567D01*
X143534513Y-92021503D01*
X143508085Y-92046518D01*
X143484600Y-92068588D01*
X143405578Y-92142734D01*
X143468591Y-92075000D01*
X143501842Y-92039481D01*
X143528289Y-92011775D01*
X143548603Y-91991236D01*
X143563457Y-91977219D01*
X143573523Y-91969078D01*
X143579472Y-91966168D01*
X143581358Y-91966677D01*
G36*
X144202247Y-91966677D02*
X144203349Y-91969100D01*
X144202058Y-91972975D01*
X144197496Y-91979228D01*
X144188785Y-91988783D01*
X144175047Y-92002567D01*
X144155402Y-92021503D01*
X144128974Y-92046518D01*
X144105489Y-92068588D01*
X144026467Y-92142734D01*
X144089480Y-92075000D01*
X144122731Y-92039481D01*
X144149178Y-92011775D01*
X144169492Y-91991236D01*
X144184346Y-91977219D01*
X144194412Y-91969078D01*
X144200361Y-91966168D01*
X144202247Y-91966677D01*
X144202247Y-91966677D01*
G37*
X144202247Y-91966677D02*
X144203349Y-91969100D01*
X144202058Y-91972975D01*
X144197496Y-91979228D01*
X144188785Y-91988783D01*
X144175047Y-92002567D01*
X144155402Y-92021503D01*
X144128974Y-92046518D01*
X144105489Y-92068588D01*
X144026467Y-92142734D01*
X144089480Y-92075000D01*
X144122731Y-92039481D01*
X144149178Y-92011775D01*
X144169492Y-91991236D01*
X144184346Y-91977219D01*
X144194412Y-91969078D01*
X144200361Y-91966168D01*
X144202247Y-91966677D01*
G36*
X144823136Y-91966677D02*
X144824238Y-91969100D01*
X144822947Y-91972975D01*
X144818385Y-91979228D01*
X144809674Y-91988783D01*
X144795936Y-92002567D01*
X144776291Y-92021503D01*
X144749862Y-92046518D01*
X144726378Y-92068588D01*
X144647356Y-92142734D01*
X144710368Y-92075000D01*
X144743620Y-92039481D01*
X144770067Y-92011775D01*
X144790381Y-91991236D01*
X144805235Y-91977219D01*
X144815301Y-91969078D01*
X144821250Y-91966168D01*
X144823136Y-91966677D01*
X144823136Y-91966677D01*
G37*
X144823136Y-91966677D02*
X144824238Y-91969100D01*
X144822947Y-91972975D01*
X144818385Y-91979228D01*
X144809674Y-91988783D01*
X144795936Y-92002567D01*
X144776291Y-92021503D01*
X144749862Y-92046518D01*
X144726378Y-92068588D01*
X144647356Y-92142734D01*
X144710368Y-92075000D01*
X144743620Y-92039481D01*
X144770067Y-92011775D01*
X144790381Y-91991236D01*
X144805235Y-91977219D01*
X144815301Y-91969078D01*
X144821250Y-91966168D01*
X144823136Y-91966677D01*
G36*
X143375781Y-91867860D02*
X143362011Y-91885617D01*
X143351679Y-91901104D01*
X143346566Y-91911583D01*
X143346311Y-91913171D01*
X143348210Y-91922326D01*
X143354597Y-91934465D01*
X143366513Y-91951173D01*
X143384996Y-91974037D01*
X143390389Y-91980456D01*
X143404695Y-91997706D01*
X143411480Y-92006842D01*
X143410769Y-92008142D01*
X143402588Y-92001888D01*
X143391467Y-91992322D01*
X143365036Y-91970339D01*
X143342726Y-91954134D01*
X143325850Y-91944597D01*
X143317563Y-91942356D01*
X143308890Y-91945847D01*
X143294410Y-91955168D01*
X143276703Y-91968590D01*
X143269291Y-91974722D01*
X143231138Y-92007089D01*
X143258099Y-91973989D01*
X143277354Y-91948854D01*
X143288658Y-91929136D01*
X143292263Y-91912492D01*
X143288419Y-91896581D01*
X143277379Y-91879064D01*
X143269352Y-91869104D01*
X143253370Y-91850112D01*
X143280518Y-91870834D01*
X143295689Y-91881845D01*
X143307470Y-91889360D01*
X143312510Y-91891556D01*
X143328309Y-91887512D01*
X143349295Y-91876209D01*
X143373224Y-91858885D01*
X143376625Y-91856097D01*
X143405251Y-91832289D01*
X143375781Y-91867860D01*
X143375781Y-91867860D01*
G37*
X143375781Y-91867860D02*
X143362011Y-91885617D01*
X143351679Y-91901104D01*
X143346566Y-91911583D01*
X143346311Y-91913171D01*
X143348210Y-91922326D01*
X143354597Y-91934465D01*
X143366513Y-91951173D01*
X143384996Y-91974037D01*
X143390389Y-91980456D01*
X143404695Y-91997706D01*
X143411480Y-92006842D01*
X143410769Y-92008142D01*
X143402588Y-92001888D01*
X143391467Y-91992322D01*
X143365036Y-91970339D01*
X143342726Y-91954134D01*
X143325850Y-91944597D01*
X143317563Y-91942356D01*
X143308890Y-91945847D01*
X143294410Y-91955168D01*
X143276703Y-91968590D01*
X143269291Y-91974722D01*
X143231138Y-92007089D01*
X143258099Y-91973989D01*
X143277354Y-91948854D01*
X143288658Y-91929136D01*
X143292263Y-91912492D01*
X143288419Y-91896581D01*
X143277379Y-91879064D01*
X143269352Y-91869104D01*
X143253370Y-91850112D01*
X143280518Y-91870834D01*
X143295689Y-91881845D01*
X143307470Y-91889360D01*
X143312510Y-91891556D01*
X143328309Y-91887512D01*
X143349295Y-91876209D01*
X143373224Y-91858885D01*
X143376625Y-91856097D01*
X143405251Y-91832289D01*
X143375781Y-91867860D01*
G36*
X143996670Y-91867860D02*
X143982900Y-91885617D01*
X143972568Y-91901104D01*
X143967455Y-91911583D01*
X143967200Y-91913171D01*
X143969098Y-91922326D01*
X143975486Y-91934465D01*
X143987402Y-91951173D01*
X144005885Y-91974037D01*
X144011278Y-91980456D01*
X144025584Y-91997706D01*
X144032369Y-92006842D01*
X144031658Y-92008142D01*
X144023477Y-92001888D01*
X144012356Y-91992322D01*
X143985925Y-91970339D01*
X143963615Y-91954134D01*
X143946739Y-91944597D01*
X143938452Y-91942356D01*
X143929778Y-91945847D01*
X143915299Y-91955168D01*
X143897592Y-91968590D01*
X143890179Y-91974722D01*
X143852027Y-92007089D01*
X143878988Y-91973989D01*
X143898243Y-91948854D01*
X143909547Y-91929136D01*
X143913152Y-91912492D01*
X143909308Y-91896581D01*
X143898268Y-91879064D01*
X143890240Y-91869104D01*
X143874259Y-91850112D01*
X143901406Y-91870834D01*
X143916578Y-91881845D01*
X143928359Y-91889360D01*
X143933398Y-91891556D01*
X143949198Y-91887512D01*
X143970184Y-91876209D01*
X143994113Y-91858885D01*
X143997514Y-91856097D01*
X144026140Y-91832289D01*
X143996670Y-91867860D01*
X143996670Y-91867860D01*
G37*
X143996670Y-91867860D02*
X143982900Y-91885617D01*
X143972568Y-91901104D01*
X143967455Y-91911583D01*
X143967200Y-91913171D01*
X143969098Y-91922326D01*
X143975486Y-91934465D01*
X143987402Y-91951173D01*
X144005885Y-91974037D01*
X144011278Y-91980456D01*
X144025584Y-91997706D01*
X144032369Y-92006842D01*
X144031658Y-92008142D01*
X144023477Y-92001888D01*
X144012356Y-91992322D01*
X143985925Y-91970339D01*
X143963615Y-91954134D01*
X143946739Y-91944597D01*
X143938452Y-91942356D01*
X143929778Y-91945847D01*
X143915299Y-91955168D01*
X143897592Y-91968590D01*
X143890179Y-91974722D01*
X143852027Y-92007089D01*
X143878988Y-91973989D01*
X143898243Y-91948854D01*
X143909547Y-91929136D01*
X143913152Y-91912492D01*
X143909308Y-91896581D01*
X143898268Y-91879064D01*
X143890240Y-91869104D01*
X143874259Y-91850112D01*
X143901406Y-91870834D01*
X143916578Y-91881845D01*
X143928359Y-91889360D01*
X143933398Y-91891556D01*
X143949198Y-91887512D01*
X143970184Y-91876209D01*
X143994113Y-91858885D01*
X143997514Y-91856097D01*
X144026140Y-91832289D01*
X143996670Y-91867860D01*
G36*
X144617559Y-91867860D02*
X144603788Y-91885617D01*
X144593457Y-91901104D01*
X144588344Y-91911583D01*
X144588089Y-91913171D01*
X144589987Y-91922326D01*
X144596375Y-91934465D01*
X144608291Y-91951173D01*
X144626774Y-91974037D01*
X144632167Y-91980456D01*
X144646473Y-91997706D01*
X144653258Y-92006842D01*
X144652547Y-92008142D01*
X144644366Y-92001888D01*
X144633245Y-91992322D01*
X144606814Y-91970339D01*
X144584504Y-91954134D01*
X144567628Y-91944597D01*
X144559341Y-91942356D01*
X144550667Y-91945847D01*
X144536188Y-91955168D01*
X144518481Y-91968590D01*
X144511068Y-91974722D01*
X144472916Y-92007089D01*
X144499877Y-91973989D01*
X144519132Y-91948854D01*
X144530436Y-91929136D01*
X144534041Y-91912492D01*
X144530197Y-91896581D01*
X144519157Y-91879064D01*
X144511129Y-91869104D01*
X144495148Y-91850112D01*
X144522295Y-91870834D01*
X144537467Y-91881845D01*
X144549248Y-91889360D01*
X144554287Y-91891556D01*
X144570087Y-91887512D01*
X144591073Y-91876209D01*
X144615002Y-91858885D01*
X144618403Y-91856097D01*
X144647029Y-91832289D01*
X144617559Y-91867860D01*
X144617559Y-91867860D01*
G37*
X144617559Y-91867860D02*
X144603788Y-91885617D01*
X144593457Y-91901104D01*
X144588344Y-91911583D01*
X144588089Y-91913171D01*
X144589987Y-91922326D01*
X144596375Y-91934465D01*
X144608291Y-91951173D01*
X144626774Y-91974037D01*
X144632167Y-91980456D01*
X144646473Y-91997706D01*
X144653258Y-92006842D01*
X144652547Y-92008142D01*
X144644366Y-92001888D01*
X144633245Y-91992322D01*
X144606814Y-91970339D01*
X144584504Y-91954134D01*
X144567628Y-91944597D01*
X144559341Y-91942356D01*
X144550667Y-91945847D01*
X144536188Y-91955168D01*
X144518481Y-91968590D01*
X144511068Y-91974722D01*
X144472916Y-92007089D01*
X144499877Y-91973989D01*
X144519132Y-91948854D01*
X144530436Y-91929136D01*
X144534041Y-91912492D01*
X144530197Y-91896581D01*
X144519157Y-91879064D01*
X144511129Y-91869104D01*
X144495148Y-91850112D01*
X144522295Y-91870834D01*
X144537467Y-91881845D01*
X144549248Y-91889360D01*
X144554287Y-91891556D01*
X144570087Y-91887512D01*
X144591073Y-91876209D01*
X144615002Y-91858885D01*
X144618403Y-91856097D01*
X144647029Y-91832289D01*
X144617559Y-91867860D01*
G36*
X145238448Y-91867860D02*
X145224677Y-91885617D01*
X145214346Y-91901104D01*
X145209233Y-91911583D01*
X145208978Y-91913171D01*
X145210876Y-91922326D01*
X145217264Y-91934465D01*
X145229180Y-91951173D01*
X145247663Y-91974037D01*
X145253056Y-91980456D01*
X145267362Y-91997706D01*
X145274147Y-92006842D01*
X145273436Y-92008142D01*
X145265255Y-92001888D01*
X145254134Y-91992322D01*
X145227703Y-91970339D01*
X145205393Y-91954134D01*
X145188517Y-91944597D01*
X145180230Y-91942356D01*
X145171556Y-91945847D01*
X145157076Y-91955168D01*
X145139370Y-91968590D01*
X145131957Y-91974722D01*
X145093805Y-92007089D01*
X145120766Y-91973989D01*
X145140020Y-91948854D01*
X145151325Y-91929136D01*
X145154929Y-91912492D01*
X145151086Y-91896581D01*
X145140046Y-91879064D01*
X145132018Y-91869104D01*
X145116037Y-91850112D01*
X145143184Y-91870834D01*
X145158356Y-91881845D01*
X145170137Y-91889360D01*
X145175176Y-91891556D01*
X145190976Y-91887512D01*
X145211962Y-91876209D01*
X145235891Y-91858885D01*
X145239292Y-91856097D01*
X145267918Y-91832289D01*
X145238448Y-91867860D01*
X145238448Y-91867860D01*
G37*
X145238448Y-91867860D02*
X145224677Y-91885617D01*
X145214346Y-91901104D01*
X145209233Y-91911583D01*
X145208978Y-91913171D01*
X145210876Y-91922326D01*
X145217264Y-91934465D01*
X145229180Y-91951173D01*
X145247663Y-91974037D01*
X145253056Y-91980456D01*
X145267362Y-91997706D01*
X145274147Y-92006842D01*
X145273436Y-92008142D01*
X145265255Y-92001888D01*
X145254134Y-91992322D01*
X145227703Y-91970339D01*
X145205393Y-91954134D01*
X145188517Y-91944597D01*
X145180230Y-91942356D01*
X145171556Y-91945847D01*
X145157076Y-91955168D01*
X145139370Y-91968590D01*
X145131957Y-91974722D01*
X145093805Y-92007089D01*
X145120766Y-91973989D01*
X145140020Y-91948854D01*
X145151325Y-91929136D01*
X145154929Y-91912492D01*
X145151086Y-91896581D01*
X145140046Y-91879064D01*
X145132018Y-91869104D01*
X145116037Y-91850112D01*
X145143184Y-91870834D01*
X145158356Y-91881845D01*
X145170137Y-91889360D01*
X145175176Y-91891556D01*
X145190976Y-91887512D01*
X145211962Y-91876209D01*
X145235891Y-91858885D01*
X145239292Y-91856097D01*
X145267918Y-91832289D01*
X145238448Y-91867860D01*
G36*
X143383818Y-91663968D02*
X143395532Y-91674558D01*
X143412336Y-91690532D01*
X143432857Y-91710519D01*
X143455720Y-91733148D01*
X143479554Y-91757046D01*
X143502986Y-91780844D01*
X143524641Y-91803169D01*
X143543147Y-91822650D01*
X143557132Y-91837917D01*
X143560837Y-91842167D01*
X143572399Y-91856346D01*
X143576384Y-91862817D01*
X143573171Y-91861879D01*
X143563139Y-91853831D01*
X143546667Y-91838974D01*
X143524134Y-91817606D01*
X143500134Y-91794189D01*
X143467635Y-91761752D01*
X143438991Y-91732376D01*
X143414954Y-91706890D01*
X143396277Y-91686124D01*
X143383712Y-91670910D01*
X143378014Y-91662077D01*
X143378566Y-91660134D01*
X143383818Y-91663968D01*
X143383818Y-91663968D01*
G37*
X143383818Y-91663968D02*
X143395532Y-91674558D01*
X143412336Y-91690532D01*
X143432857Y-91710519D01*
X143455720Y-91733148D01*
X143479554Y-91757046D01*
X143502986Y-91780844D01*
X143524641Y-91803169D01*
X143543147Y-91822650D01*
X143557132Y-91837917D01*
X143560837Y-91842167D01*
X143572399Y-91856346D01*
X143576384Y-91862817D01*
X143573171Y-91861879D01*
X143563139Y-91853831D01*
X143546667Y-91838974D01*
X143524134Y-91817606D01*
X143500134Y-91794189D01*
X143467635Y-91761752D01*
X143438991Y-91732376D01*
X143414954Y-91706890D01*
X143396277Y-91686124D01*
X143383712Y-91670910D01*
X143378014Y-91662077D01*
X143378566Y-91660134D01*
X143383818Y-91663968D01*
G36*
X144004707Y-91663968D02*
X144016421Y-91674558D01*
X144033225Y-91690532D01*
X144053746Y-91710519D01*
X144076609Y-91733148D01*
X144100443Y-91757046D01*
X144123875Y-91780844D01*
X144145530Y-91803169D01*
X144164036Y-91822650D01*
X144178020Y-91837917D01*
X144181726Y-91842167D01*
X144193288Y-91856346D01*
X144197273Y-91862817D01*
X144194060Y-91861879D01*
X144184028Y-91853831D01*
X144167556Y-91838974D01*
X144145023Y-91817606D01*
X144121023Y-91794189D01*
X144088524Y-91761752D01*
X144059880Y-91732376D01*
X144035842Y-91706890D01*
X144017165Y-91686124D01*
X144004601Y-91670910D01*
X143998903Y-91662077D01*
X143999455Y-91660134D01*
X144004707Y-91663968D01*
X144004707Y-91663968D01*
G37*
X144004707Y-91663968D02*
X144016421Y-91674558D01*
X144033225Y-91690532D01*
X144053746Y-91710519D01*
X144076609Y-91733148D01*
X144100443Y-91757046D01*
X144123875Y-91780844D01*
X144145530Y-91803169D01*
X144164036Y-91822650D01*
X144178020Y-91837917D01*
X144181726Y-91842167D01*
X144193288Y-91856346D01*
X144197273Y-91862817D01*
X144194060Y-91861879D01*
X144184028Y-91853831D01*
X144167556Y-91838974D01*
X144145023Y-91817606D01*
X144121023Y-91794189D01*
X144088524Y-91761752D01*
X144059880Y-91732376D01*
X144035842Y-91706890D01*
X144017165Y-91686124D01*
X144004601Y-91670910D01*
X143998903Y-91662077D01*
X143999455Y-91660134D01*
X144004707Y-91663968D01*
G36*
X144625596Y-91663968D02*
X144637310Y-91674558D01*
X144654114Y-91690532D01*
X144674635Y-91710519D01*
X144697498Y-91733148D01*
X144721332Y-91757046D01*
X144744763Y-91780844D01*
X144766419Y-91803169D01*
X144784925Y-91822650D01*
X144798909Y-91837917D01*
X144802615Y-91842167D01*
X144814177Y-91856346D01*
X144818162Y-91862817D01*
X144814949Y-91861879D01*
X144804917Y-91853831D01*
X144788445Y-91838974D01*
X144765912Y-91817606D01*
X144741912Y-91794189D01*
X144709413Y-91761752D01*
X144680768Y-91732376D01*
X144656731Y-91706890D01*
X144638054Y-91686124D01*
X144625490Y-91670910D01*
X144619792Y-91662077D01*
X144620344Y-91660134D01*
X144625596Y-91663968D01*
X144625596Y-91663968D01*
G37*
X144625596Y-91663968D02*
X144637310Y-91674558D01*
X144654114Y-91690532D01*
X144674635Y-91710519D01*
X144697498Y-91733148D01*
X144721332Y-91757046D01*
X144744763Y-91780844D01*
X144766419Y-91803169D01*
X144784925Y-91822650D01*
X144798909Y-91837917D01*
X144802615Y-91842167D01*
X144814177Y-91856346D01*
X144818162Y-91862817D01*
X144814949Y-91861879D01*
X144804917Y-91853831D01*
X144788445Y-91838974D01*
X144765912Y-91817606D01*
X144741912Y-91794189D01*
X144709413Y-91761752D01*
X144680768Y-91732376D01*
X144656731Y-91706890D01*
X144638054Y-91686124D01*
X144625490Y-91670910D01*
X144619792Y-91662077D01*
X144620344Y-91660134D01*
X144625596Y-91663968D01*
G36*
X145246485Y-91663968D02*
X145258199Y-91674558D01*
X145275003Y-91690532D01*
X145295523Y-91710519D01*
X145318387Y-91733148D01*
X145342221Y-91757046D01*
X145365652Y-91780844D01*
X145387308Y-91803169D01*
X145405814Y-91822650D01*
X145419798Y-91837917D01*
X145423504Y-91842167D01*
X145435066Y-91856346D01*
X145439051Y-91862817D01*
X145435838Y-91861879D01*
X145425806Y-91853831D01*
X145409334Y-91838974D01*
X145386801Y-91817606D01*
X145362801Y-91794189D01*
X145330302Y-91761752D01*
X145301657Y-91732376D01*
X145277620Y-91706890D01*
X145258943Y-91686124D01*
X145246379Y-91670910D01*
X145240681Y-91662077D01*
X145241233Y-91660134D01*
X145246485Y-91663968D01*
X145246485Y-91663968D01*
G37*
X145246485Y-91663968D02*
X145258199Y-91674558D01*
X145275003Y-91690532D01*
X145295523Y-91710519D01*
X145318387Y-91733148D01*
X145342221Y-91757046D01*
X145365652Y-91780844D01*
X145387308Y-91803169D01*
X145405814Y-91822650D01*
X145419798Y-91837917D01*
X145423504Y-91842167D01*
X145435066Y-91856346D01*
X145439051Y-91862817D01*
X145435838Y-91861879D01*
X145425806Y-91853831D01*
X145409334Y-91838974D01*
X145386801Y-91817606D01*
X145362801Y-91794189D01*
X145330302Y-91761752D01*
X145301657Y-91732376D01*
X145277620Y-91706890D01*
X145258943Y-91686124D01*
X145246379Y-91670910D01*
X145240681Y-91662077D01*
X145241233Y-91660134D01*
X145246485Y-91663968D01*
G36*
X143270914Y-91656232D02*
X143272015Y-91658655D01*
X143270724Y-91662530D01*
X143266163Y-91668783D01*
X143257452Y-91678339D01*
X143243713Y-91692122D01*
X143224069Y-91711059D01*
X143197640Y-91736074D01*
X143174156Y-91758144D01*
X143095134Y-91832289D01*
X143158146Y-91764556D01*
X143191398Y-91729037D01*
X143217844Y-91701331D01*
X143238159Y-91680792D01*
X143253013Y-91666775D01*
X143263078Y-91658634D01*
X143269027Y-91655723D01*
X143270914Y-91656232D01*
X143270914Y-91656232D01*
G37*
X143270914Y-91656232D02*
X143272015Y-91658655D01*
X143270724Y-91662530D01*
X143266163Y-91668783D01*
X143257452Y-91678339D01*
X143243713Y-91692122D01*
X143224069Y-91711059D01*
X143197640Y-91736074D01*
X143174156Y-91758144D01*
X143095134Y-91832289D01*
X143158146Y-91764556D01*
X143191398Y-91729037D01*
X143217844Y-91701331D01*
X143238159Y-91680792D01*
X143253013Y-91666775D01*
X143263078Y-91658634D01*
X143269027Y-91655723D01*
X143270914Y-91656232D01*
G36*
X143891803Y-91656232D02*
X143892904Y-91658655D01*
X143891613Y-91662530D01*
X143887052Y-91668783D01*
X143878341Y-91678339D01*
X143864602Y-91692122D01*
X143844958Y-91711059D01*
X143818529Y-91736074D01*
X143795045Y-91758144D01*
X143716022Y-91832289D01*
X143779035Y-91764556D01*
X143812286Y-91729037D01*
X143838733Y-91701331D01*
X143859048Y-91680792D01*
X143873902Y-91666775D01*
X143883967Y-91658634D01*
X143889916Y-91655723D01*
X143891803Y-91656232D01*
X143891803Y-91656232D01*
G37*
X143891803Y-91656232D02*
X143892904Y-91658655D01*
X143891613Y-91662530D01*
X143887052Y-91668783D01*
X143878341Y-91678339D01*
X143864602Y-91692122D01*
X143844958Y-91711059D01*
X143818529Y-91736074D01*
X143795045Y-91758144D01*
X143716022Y-91832289D01*
X143779035Y-91764556D01*
X143812286Y-91729037D01*
X143838733Y-91701331D01*
X143859048Y-91680792D01*
X143873902Y-91666775D01*
X143883967Y-91658634D01*
X143889916Y-91655723D01*
X143891803Y-91656232D01*
G36*
X144512692Y-91656232D02*
X144513793Y-91658655D01*
X144512502Y-91662530D01*
X144507940Y-91668783D01*
X144499230Y-91678339D01*
X144485491Y-91692122D01*
X144465847Y-91711059D01*
X144439418Y-91736074D01*
X144415934Y-91758144D01*
X144336911Y-91832289D01*
X144399924Y-91764556D01*
X144433175Y-91729037D01*
X144459622Y-91701331D01*
X144479937Y-91680792D01*
X144494791Y-91666775D01*
X144504856Y-91658634D01*
X144510805Y-91655723D01*
X144512692Y-91656232D01*
X144512692Y-91656232D01*
G37*
X144512692Y-91656232D02*
X144513793Y-91658655D01*
X144512502Y-91662530D01*
X144507940Y-91668783D01*
X144499230Y-91678339D01*
X144485491Y-91692122D01*
X144465847Y-91711059D01*
X144439418Y-91736074D01*
X144415934Y-91758144D01*
X144336911Y-91832289D01*
X144399924Y-91764556D01*
X144433175Y-91729037D01*
X144459622Y-91701331D01*
X144479937Y-91680792D01*
X144494791Y-91666775D01*
X144504856Y-91658634D01*
X144510805Y-91655723D01*
X144512692Y-91656232D01*
G36*
X145133580Y-91656232D02*
X145134682Y-91658655D01*
X145133391Y-91662530D01*
X145128829Y-91668783D01*
X145120118Y-91678339D01*
X145106380Y-91692122D01*
X145086736Y-91711059D01*
X145060307Y-91736074D01*
X145036822Y-91758144D01*
X144957800Y-91832289D01*
X145020813Y-91764556D01*
X145054064Y-91729037D01*
X145080511Y-91701331D01*
X145100826Y-91680792D01*
X145115680Y-91666775D01*
X145125745Y-91658634D01*
X145131694Y-91655723D01*
X145133580Y-91656232D01*
X145133580Y-91656232D01*
G37*
X145133580Y-91656232D02*
X145134682Y-91658655D01*
X145133391Y-91662530D01*
X145128829Y-91668783D01*
X145120118Y-91678339D01*
X145106380Y-91692122D01*
X145086736Y-91711059D01*
X145060307Y-91736074D01*
X145036822Y-91758144D01*
X144957800Y-91832289D01*
X145020813Y-91764556D01*
X145054064Y-91729037D01*
X145080511Y-91701331D01*
X145100826Y-91680792D01*
X145115680Y-91666775D01*
X145125745Y-91658634D01*
X145131694Y-91655723D01*
X145133580Y-91656232D01*
G36*
X143686226Y-91557415D02*
X143672455Y-91575173D01*
X143662124Y-91590659D01*
X143657011Y-91601139D01*
X143656756Y-91602726D01*
X143658654Y-91611882D01*
X143665042Y-91624021D01*
X143676957Y-91640729D01*
X143695441Y-91663593D01*
X143700834Y-91670011D01*
X143715139Y-91687262D01*
X143721924Y-91696397D01*
X143721214Y-91697698D01*
X143713033Y-91691444D01*
X143701911Y-91681878D01*
X143675481Y-91659894D01*
X143653170Y-91643690D01*
X143636295Y-91634153D01*
X143628008Y-91631911D01*
X143619334Y-91635403D01*
X143604854Y-91644724D01*
X143587147Y-91658145D01*
X143579735Y-91664278D01*
X143541583Y-91696645D01*
X143568544Y-91663544D01*
X143587798Y-91638410D01*
X143599102Y-91618691D01*
X143602707Y-91602047D01*
X143598864Y-91586137D01*
X143587824Y-91568619D01*
X143579796Y-91558660D01*
X143563815Y-91539667D01*
X143590962Y-91560389D01*
X143606134Y-91571401D01*
X143617914Y-91578916D01*
X143622954Y-91581111D01*
X143638754Y-91577068D01*
X143659739Y-91565764D01*
X143683669Y-91548441D01*
X143687070Y-91545652D01*
X143715695Y-91521845D01*
X143686226Y-91557415D01*
X143686226Y-91557415D01*
G37*
X143686226Y-91557415D02*
X143672455Y-91575173D01*
X143662124Y-91590659D01*
X143657011Y-91601139D01*
X143656756Y-91602726D01*
X143658654Y-91611882D01*
X143665042Y-91624021D01*
X143676957Y-91640729D01*
X143695441Y-91663593D01*
X143700834Y-91670011D01*
X143715139Y-91687262D01*
X143721924Y-91696397D01*
X143721214Y-91697698D01*
X143713033Y-91691444D01*
X143701911Y-91681878D01*
X143675481Y-91659894D01*
X143653170Y-91643690D01*
X143636295Y-91634153D01*
X143628008Y-91631911D01*
X143619334Y-91635403D01*
X143604854Y-91644724D01*
X143587147Y-91658145D01*
X143579735Y-91664278D01*
X143541583Y-91696645D01*
X143568544Y-91663544D01*
X143587798Y-91638410D01*
X143599102Y-91618691D01*
X143602707Y-91602047D01*
X143598864Y-91586137D01*
X143587824Y-91568619D01*
X143579796Y-91558660D01*
X143563815Y-91539667D01*
X143590962Y-91560389D01*
X143606134Y-91571401D01*
X143617914Y-91578916D01*
X143622954Y-91581111D01*
X143638754Y-91577068D01*
X143659739Y-91565764D01*
X143683669Y-91548441D01*
X143687070Y-91545652D01*
X143715695Y-91521845D01*
X143686226Y-91557415D01*
G36*
X144307114Y-91557415D02*
X144293344Y-91575173D01*
X144283013Y-91590659D01*
X144277900Y-91601139D01*
X144277645Y-91602726D01*
X144279543Y-91611882D01*
X144285931Y-91624021D01*
X144297846Y-91640729D01*
X144316330Y-91663593D01*
X144321722Y-91670011D01*
X144336028Y-91687262D01*
X144342813Y-91696397D01*
X144342103Y-91697698D01*
X144333922Y-91691444D01*
X144322800Y-91681878D01*
X144296370Y-91659894D01*
X144274059Y-91643690D01*
X144257184Y-91634153D01*
X144248897Y-91631911D01*
X144240223Y-91635403D01*
X144225743Y-91644724D01*
X144208036Y-91658145D01*
X144200624Y-91664278D01*
X144162472Y-91696645D01*
X144189432Y-91663544D01*
X144208687Y-91638410D01*
X144219991Y-91618691D01*
X144223596Y-91602047D01*
X144219753Y-91586137D01*
X144208712Y-91568619D01*
X144200685Y-91558660D01*
X144184704Y-91539667D01*
X144211851Y-91560389D01*
X144227023Y-91571401D01*
X144238803Y-91578916D01*
X144243843Y-91581111D01*
X144259643Y-91577068D01*
X144280628Y-91565764D01*
X144304558Y-91548441D01*
X144307959Y-91545652D01*
X144336584Y-91521845D01*
X144307114Y-91557415D01*
X144307114Y-91557415D01*
G37*
X144307114Y-91557415D02*
X144293344Y-91575173D01*
X144283013Y-91590659D01*
X144277900Y-91601139D01*
X144277645Y-91602726D01*
X144279543Y-91611882D01*
X144285931Y-91624021D01*
X144297846Y-91640729D01*
X144316330Y-91663593D01*
X144321722Y-91670011D01*
X144336028Y-91687262D01*
X144342813Y-91696397D01*
X144342103Y-91697698D01*
X144333922Y-91691444D01*
X144322800Y-91681878D01*
X144296370Y-91659894D01*
X144274059Y-91643690D01*
X144257184Y-91634153D01*
X144248897Y-91631911D01*
X144240223Y-91635403D01*
X144225743Y-91644724D01*
X144208036Y-91658145D01*
X144200624Y-91664278D01*
X144162472Y-91696645D01*
X144189432Y-91663544D01*
X144208687Y-91638410D01*
X144219991Y-91618691D01*
X144223596Y-91602047D01*
X144219753Y-91586137D01*
X144208712Y-91568619D01*
X144200685Y-91558660D01*
X144184704Y-91539667D01*
X144211851Y-91560389D01*
X144227023Y-91571401D01*
X144238803Y-91578916D01*
X144243843Y-91581111D01*
X144259643Y-91577068D01*
X144280628Y-91565764D01*
X144304558Y-91548441D01*
X144307959Y-91545652D01*
X144336584Y-91521845D01*
X144307114Y-91557415D01*
G36*
X144928003Y-91557415D02*
X144914233Y-91575173D01*
X144903901Y-91590659D01*
X144898789Y-91601139D01*
X144898534Y-91602726D01*
X144900432Y-91611882D01*
X144906819Y-91624021D01*
X144918735Y-91640729D01*
X144937218Y-91663593D01*
X144942611Y-91670011D01*
X144956917Y-91687262D01*
X144963702Y-91696397D01*
X144962991Y-91697698D01*
X144954811Y-91691444D01*
X144943689Y-91681878D01*
X144917259Y-91659894D01*
X144894948Y-91643690D01*
X144878073Y-91634153D01*
X144869786Y-91631911D01*
X144861112Y-91635403D01*
X144846632Y-91644724D01*
X144828925Y-91658145D01*
X144821513Y-91664278D01*
X144783361Y-91696645D01*
X144810321Y-91663544D01*
X144829576Y-91638410D01*
X144840880Y-91618691D01*
X144844485Y-91602047D01*
X144840642Y-91586137D01*
X144829601Y-91568619D01*
X144821574Y-91558660D01*
X144805592Y-91539667D01*
X144832740Y-91560389D01*
X144847912Y-91571401D01*
X144859692Y-91578916D01*
X144864732Y-91581111D01*
X144880531Y-91577068D01*
X144901517Y-91565764D01*
X144925446Y-91548441D01*
X144928848Y-91545652D01*
X144957473Y-91521845D01*
X144928003Y-91557415D01*
X144928003Y-91557415D01*
G37*
X144928003Y-91557415D02*
X144914233Y-91575173D01*
X144903901Y-91590659D01*
X144898789Y-91601139D01*
X144898534Y-91602726D01*
X144900432Y-91611882D01*
X144906819Y-91624021D01*
X144918735Y-91640729D01*
X144937218Y-91663593D01*
X144942611Y-91670011D01*
X144956917Y-91687262D01*
X144963702Y-91696397D01*
X144962991Y-91697698D01*
X144954811Y-91691444D01*
X144943689Y-91681878D01*
X144917259Y-91659894D01*
X144894948Y-91643690D01*
X144878073Y-91634153D01*
X144869786Y-91631911D01*
X144861112Y-91635403D01*
X144846632Y-91644724D01*
X144828925Y-91658145D01*
X144821513Y-91664278D01*
X144783361Y-91696645D01*
X144810321Y-91663544D01*
X144829576Y-91638410D01*
X144840880Y-91618691D01*
X144844485Y-91602047D01*
X144840642Y-91586137D01*
X144829601Y-91568619D01*
X144821574Y-91558660D01*
X144805592Y-91539667D01*
X144832740Y-91560389D01*
X144847912Y-91571401D01*
X144859692Y-91578916D01*
X144864732Y-91581111D01*
X144880531Y-91577068D01*
X144901517Y-91565764D01*
X144925446Y-91548441D01*
X144928848Y-91545652D01*
X144957473Y-91521845D01*
X144928003Y-91557415D01*
G36*
X142951200Y-91668600D02*
X142948378Y-91671422D01*
X142945556Y-91668600D01*
X142948378Y-91665778D01*
X142951200Y-91668600D01*
X142951200Y-91668600D01*
G37*
X142951200Y-91668600D02*
X142948378Y-91671422D01*
X142945556Y-91668600D01*
X142948378Y-91665778D01*
X142951200Y-91668600D01*
G36*
X143694262Y-91353524D02*
X143705977Y-91364114D01*
X143722781Y-91380088D01*
X143743301Y-91400075D01*
X143766165Y-91422703D01*
X143789999Y-91446602D01*
X143813430Y-91470399D01*
X143835085Y-91492724D01*
X143853592Y-91512206D01*
X143867576Y-91527472D01*
X143871282Y-91531722D01*
X143882844Y-91545902D01*
X143886829Y-91552373D01*
X143883615Y-91551435D01*
X143873583Y-91543387D01*
X143857111Y-91528530D01*
X143834579Y-91507162D01*
X143810579Y-91483745D01*
X143778080Y-91451308D01*
X143749435Y-91421931D01*
X143725398Y-91396445D01*
X143706721Y-91375680D01*
X143694157Y-91360466D01*
X143688459Y-91351632D01*
X143689011Y-91349689D01*
X143694262Y-91353524D01*
X143694262Y-91353524D01*
G37*
X143694262Y-91353524D02*
X143705977Y-91364114D01*
X143722781Y-91380088D01*
X143743301Y-91400075D01*
X143766165Y-91422703D01*
X143789999Y-91446602D01*
X143813430Y-91470399D01*
X143835085Y-91492724D01*
X143853592Y-91512206D01*
X143867576Y-91527472D01*
X143871282Y-91531722D01*
X143882844Y-91545902D01*
X143886829Y-91552373D01*
X143883615Y-91551435D01*
X143873583Y-91543387D01*
X143857111Y-91528530D01*
X143834579Y-91507162D01*
X143810579Y-91483745D01*
X143778080Y-91451308D01*
X143749435Y-91421931D01*
X143725398Y-91396445D01*
X143706721Y-91375680D01*
X143694157Y-91360466D01*
X143688459Y-91351632D01*
X143689011Y-91349689D01*
X143694262Y-91353524D01*
G36*
X144315151Y-91353524D02*
X144326866Y-91364114D01*
X144343670Y-91380088D01*
X144364190Y-91400075D01*
X144387054Y-91422703D01*
X144410888Y-91446602D01*
X144434319Y-91470399D01*
X144455974Y-91492724D01*
X144474481Y-91512206D01*
X144488465Y-91527472D01*
X144492171Y-91531722D01*
X144503733Y-91545902D01*
X144507718Y-91552373D01*
X144504504Y-91551435D01*
X144494472Y-91543387D01*
X144478000Y-91528530D01*
X144455468Y-91507162D01*
X144431467Y-91483745D01*
X144398968Y-91451308D01*
X144370324Y-91421931D01*
X144346287Y-91396445D01*
X144327610Y-91375680D01*
X144315046Y-91360466D01*
X144309347Y-91351632D01*
X144309899Y-91349689D01*
X144315151Y-91353524D01*
X144315151Y-91353524D01*
G37*
X144315151Y-91353524D02*
X144326866Y-91364114D01*
X144343670Y-91380088D01*
X144364190Y-91400075D01*
X144387054Y-91422703D01*
X144410888Y-91446602D01*
X144434319Y-91470399D01*
X144455974Y-91492724D01*
X144474481Y-91512206D01*
X144488465Y-91527472D01*
X144492171Y-91531722D01*
X144503733Y-91545902D01*
X144507718Y-91552373D01*
X144504504Y-91551435D01*
X144494472Y-91543387D01*
X144478000Y-91528530D01*
X144455468Y-91507162D01*
X144431467Y-91483745D01*
X144398968Y-91451308D01*
X144370324Y-91421931D01*
X144346287Y-91396445D01*
X144327610Y-91375680D01*
X144315046Y-91360466D01*
X144309347Y-91351632D01*
X144309899Y-91349689D01*
X144315151Y-91353524D01*
G36*
X144936040Y-91353524D02*
X144947755Y-91364114D01*
X144964559Y-91380088D01*
X144985079Y-91400075D01*
X145007943Y-91422703D01*
X145031777Y-91446602D01*
X145055208Y-91470399D01*
X145076863Y-91492724D01*
X145095370Y-91512206D01*
X145109354Y-91527472D01*
X145113060Y-91531722D01*
X145124622Y-91545902D01*
X145128607Y-91552373D01*
X145125393Y-91551435D01*
X145115361Y-91543387D01*
X145098889Y-91528530D01*
X145076357Y-91507162D01*
X145052356Y-91483745D01*
X145019857Y-91451308D01*
X144991213Y-91421931D01*
X144967176Y-91396445D01*
X144948499Y-91375680D01*
X144935935Y-91360466D01*
X144930236Y-91351632D01*
X144930788Y-91349689D01*
X144936040Y-91353524D01*
X144936040Y-91353524D01*
G37*
X144936040Y-91353524D02*
X144947755Y-91364114D01*
X144964559Y-91380088D01*
X144985079Y-91400075D01*
X145007943Y-91422703D01*
X145031777Y-91446602D01*
X145055208Y-91470399D01*
X145076863Y-91492724D01*
X145095370Y-91512206D01*
X145109354Y-91527472D01*
X145113060Y-91531722D01*
X145124622Y-91545902D01*
X145128607Y-91552373D01*
X145125393Y-91551435D01*
X145115361Y-91543387D01*
X145098889Y-91528530D01*
X145076357Y-91507162D01*
X145052356Y-91483745D01*
X145019857Y-91451308D01*
X144991213Y-91421931D01*
X144967176Y-91396445D01*
X144948499Y-91375680D01*
X144935935Y-91360466D01*
X144930236Y-91351632D01*
X144930788Y-91349689D01*
X144936040Y-91353524D01*
G36*
X143581358Y-91345788D02*
X143582460Y-91348211D01*
X143581169Y-91352086D01*
X143576607Y-91358339D01*
X143567896Y-91367894D01*
X143554158Y-91381678D01*
X143534513Y-91400614D01*
X143508085Y-91425629D01*
X143484600Y-91447699D01*
X143405578Y-91521845D01*
X143468591Y-91454111D01*
X143501842Y-91418593D01*
X143528289Y-91390886D01*
X143548603Y-91370348D01*
X143563457Y-91356330D01*
X143573523Y-91348189D01*
X143579472Y-91345279D01*
X143581358Y-91345788D01*
X143581358Y-91345788D01*
G37*
X143581358Y-91345788D02*
X143582460Y-91348211D01*
X143581169Y-91352086D01*
X143576607Y-91358339D01*
X143567896Y-91367894D01*
X143554158Y-91381678D01*
X143534513Y-91400614D01*
X143508085Y-91425629D01*
X143484600Y-91447699D01*
X143405578Y-91521845D01*
X143468591Y-91454111D01*
X143501842Y-91418593D01*
X143528289Y-91390886D01*
X143548603Y-91370348D01*
X143563457Y-91356330D01*
X143573523Y-91348189D01*
X143579472Y-91345279D01*
X143581358Y-91345788D01*
G36*
X144202247Y-91345788D02*
X144203349Y-91348211D01*
X144202058Y-91352086D01*
X144197496Y-91358339D01*
X144188785Y-91367894D01*
X144175047Y-91381678D01*
X144155402Y-91400614D01*
X144128974Y-91425629D01*
X144105489Y-91447699D01*
X144026467Y-91521845D01*
X144089480Y-91454111D01*
X144122731Y-91418593D01*
X144149178Y-91390886D01*
X144169492Y-91370348D01*
X144184346Y-91356330D01*
X144194412Y-91348189D01*
X144200361Y-91345279D01*
X144202247Y-91345788D01*
X144202247Y-91345788D01*
G37*
X144202247Y-91345788D02*
X144203349Y-91348211D01*
X144202058Y-91352086D01*
X144197496Y-91358339D01*
X144188785Y-91367894D01*
X144175047Y-91381678D01*
X144155402Y-91400614D01*
X144128974Y-91425629D01*
X144105489Y-91447699D01*
X144026467Y-91521845D01*
X144089480Y-91454111D01*
X144122731Y-91418593D01*
X144149178Y-91390886D01*
X144169492Y-91370348D01*
X144184346Y-91356330D01*
X144194412Y-91348189D01*
X144200361Y-91345279D01*
X144202247Y-91345788D01*
G36*
X144823136Y-91345788D02*
X144824238Y-91348211D01*
X144822947Y-91352086D01*
X144818385Y-91358339D01*
X144809674Y-91367894D01*
X144795936Y-91381678D01*
X144776291Y-91400614D01*
X144749862Y-91425629D01*
X144726378Y-91447699D01*
X144647356Y-91521845D01*
X144710368Y-91454111D01*
X144743620Y-91418593D01*
X144770067Y-91390886D01*
X144790381Y-91370348D01*
X144805235Y-91356330D01*
X144815301Y-91348189D01*
X144821250Y-91345279D01*
X144823136Y-91345788D01*
X144823136Y-91345788D01*
G37*
X144823136Y-91345788D02*
X144824238Y-91348211D01*
X144822947Y-91352086D01*
X144818385Y-91358339D01*
X144809674Y-91367894D01*
X144795936Y-91381678D01*
X144776291Y-91400614D01*
X144749862Y-91425629D01*
X144726378Y-91447699D01*
X144647356Y-91521845D01*
X144710368Y-91454111D01*
X144743620Y-91418593D01*
X144770067Y-91390886D01*
X144790381Y-91370348D01*
X144805235Y-91356330D01*
X144815301Y-91348189D01*
X144821250Y-91345279D01*
X144823136Y-91345788D01*
G36*
X143375781Y-91246971D02*
X143362011Y-91264728D01*
X143351679Y-91280215D01*
X143346566Y-91290694D01*
X143346311Y-91292282D01*
X143348210Y-91301437D01*
X143354597Y-91313576D01*
X143366513Y-91330285D01*
X143384996Y-91353148D01*
X143390389Y-91359567D01*
X143404695Y-91376818D01*
X143411480Y-91385953D01*
X143410769Y-91387254D01*
X143402588Y-91381000D01*
X143391467Y-91371433D01*
X143365036Y-91349450D01*
X143342726Y-91333245D01*
X143325850Y-91323709D01*
X143317563Y-91321467D01*
X143308890Y-91324958D01*
X143294410Y-91334279D01*
X143276703Y-91347701D01*
X143269291Y-91353834D01*
X143231138Y-91386200D01*
X143258099Y-91353100D01*
X143277354Y-91327965D01*
X143288658Y-91308247D01*
X143292263Y-91291603D01*
X143288419Y-91275693D01*
X143277379Y-91258175D01*
X143269352Y-91248216D01*
X143253370Y-91229223D01*
X143280518Y-91249945D01*
X143295689Y-91260957D01*
X143307470Y-91268472D01*
X143312510Y-91270667D01*
X143328309Y-91266623D01*
X143349295Y-91255320D01*
X143373224Y-91237996D01*
X143376625Y-91235208D01*
X143405251Y-91211400D01*
X143375781Y-91246971D01*
X143375781Y-91246971D01*
G37*
X143375781Y-91246971D02*
X143362011Y-91264728D01*
X143351679Y-91280215D01*
X143346566Y-91290694D01*
X143346311Y-91292282D01*
X143348210Y-91301437D01*
X143354597Y-91313576D01*
X143366513Y-91330285D01*
X143384996Y-91353148D01*
X143390389Y-91359567D01*
X143404695Y-91376818D01*
X143411480Y-91385953D01*
X143410769Y-91387254D01*
X143402588Y-91381000D01*
X143391467Y-91371433D01*
X143365036Y-91349450D01*
X143342726Y-91333245D01*
X143325850Y-91323709D01*
X143317563Y-91321467D01*
X143308890Y-91324958D01*
X143294410Y-91334279D01*
X143276703Y-91347701D01*
X143269291Y-91353834D01*
X143231138Y-91386200D01*
X143258099Y-91353100D01*
X143277354Y-91327965D01*
X143288658Y-91308247D01*
X143292263Y-91291603D01*
X143288419Y-91275693D01*
X143277379Y-91258175D01*
X143269352Y-91248216D01*
X143253370Y-91229223D01*
X143280518Y-91249945D01*
X143295689Y-91260957D01*
X143307470Y-91268472D01*
X143312510Y-91270667D01*
X143328309Y-91266623D01*
X143349295Y-91255320D01*
X143373224Y-91237996D01*
X143376625Y-91235208D01*
X143405251Y-91211400D01*
X143375781Y-91246971D01*
G36*
X143996670Y-91246971D02*
X143982900Y-91264728D01*
X143972568Y-91280215D01*
X143967455Y-91290694D01*
X143967200Y-91292282D01*
X143969098Y-91301437D01*
X143975486Y-91313576D01*
X143987402Y-91330285D01*
X144005885Y-91353148D01*
X144011278Y-91359567D01*
X144025584Y-91376818D01*
X144032369Y-91385953D01*
X144031658Y-91387254D01*
X144023477Y-91381000D01*
X144012356Y-91371433D01*
X143985925Y-91349450D01*
X143963615Y-91333245D01*
X143946739Y-91323709D01*
X143938452Y-91321467D01*
X143929778Y-91324958D01*
X143915299Y-91334279D01*
X143897592Y-91347701D01*
X143890179Y-91353834D01*
X143852027Y-91386200D01*
X143878988Y-91353100D01*
X143898243Y-91327965D01*
X143909547Y-91308247D01*
X143913152Y-91291603D01*
X143909308Y-91275693D01*
X143898268Y-91258175D01*
X143890240Y-91248216D01*
X143874259Y-91229223D01*
X143901406Y-91249945D01*
X143916578Y-91260957D01*
X143928359Y-91268472D01*
X143933398Y-91270667D01*
X143949198Y-91266623D01*
X143970184Y-91255320D01*
X143994113Y-91237996D01*
X143997514Y-91235208D01*
X144026140Y-91211400D01*
X143996670Y-91246971D01*
X143996670Y-91246971D01*
G37*
X143996670Y-91246971D02*
X143982900Y-91264728D01*
X143972568Y-91280215D01*
X143967455Y-91290694D01*
X143967200Y-91292282D01*
X143969098Y-91301437D01*
X143975486Y-91313576D01*
X143987402Y-91330285D01*
X144005885Y-91353148D01*
X144011278Y-91359567D01*
X144025584Y-91376818D01*
X144032369Y-91385953D01*
X144031658Y-91387254D01*
X144023477Y-91381000D01*
X144012356Y-91371433D01*
X143985925Y-91349450D01*
X143963615Y-91333245D01*
X143946739Y-91323709D01*
X143938452Y-91321467D01*
X143929778Y-91324958D01*
X143915299Y-91334279D01*
X143897592Y-91347701D01*
X143890179Y-91353834D01*
X143852027Y-91386200D01*
X143878988Y-91353100D01*
X143898243Y-91327965D01*
X143909547Y-91308247D01*
X143913152Y-91291603D01*
X143909308Y-91275693D01*
X143898268Y-91258175D01*
X143890240Y-91248216D01*
X143874259Y-91229223D01*
X143901406Y-91249945D01*
X143916578Y-91260957D01*
X143928359Y-91268472D01*
X143933398Y-91270667D01*
X143949198Y-91266623D01*
X143970184Y-91255320D01*
X143994113Y-91237996D01*
X143997514Y-91235208D01*
X144026140Y-91211400D01*
X143996670Y-91246971D01*
G36*
X144617559Y-91246971D02*
X144603788Y-91264728D01*
X144593457Y-91280215D01*
X144588344Y-91290694D01*
X144588089Y-91292282D01*
X144589987Y-91301437D01*
X144596375Y-91313576D01*
X144608291Y-91330285D01*
X144626774Y-91353148D01*
X144632167Y-91359567D01*
X144646473Y-91376818D01*
X144653258Y-91385953D01*
X144652547Y-91387254D01*
X144644366Y-91381000D01*
X144633245Y-91371433D01*
X144606814Y-91349450D01*
X144584504Y-91333245D01*
X144567628Y-91323709D01*
X144559341Y-91321467D01*
X144550667Y-91324958D01*
X144536188Y-91334279D01*
X144518481Y-91347701D01*
X144511068Y-91353834D01*
X144472916Y-91386200D01*
X144499877Y-91353100D01*
X144519132Y-91327965D01*
X144530436Y-91308247D01*
X144534041Y-91291603D01*
X144530197Y-91275693D01*
X144519157Y-91258175D01*
X144511129Y-91248216D01*
X144495148Y-91229223D01*
X144522295Y-91249945D01*
X144537467Y-91260957D01*
X144549248Y-91268472D01*
X144554287Y-91270667D01*
X144570087Y-91266623D01*
X144591073Y-91255320D01*
X144615002Y-91237996D01*
X144618403Y-91235208D01*
X144647029Y-91211400D01*
X144617559Y-91246971D01*
X144617559Y-91246971D01*
G37*
X144617559Y-91246971D02*
X144603788Y-91264728D01*
X144593457Y-91280215D01*
X144588344Y-91290694D01*
X144588089Y-91292282D01*
X144589987Y-91301437D01*
X144596375Y-91313576D01*
X144608291Y-91330285D01*
X144626774Y-91353148D01*
X144632167Y-91359567D01*
X144646473Y-91376818D01*
X144653258Y-91385953D01*
X144652547Y-91387254D01*
X144644366Y-91381000D01*
X144633245Y-91371433D01*
X144606814Y-91349450D01*
X144584504Y-91333245D01*
X144567628Y-91323709D01*
X144559341Y-91321467D01*
X144550667Y-91324958D01*
X144536188Y-91334279D01*
X144518481Y-91347701D01*
X144511068Y-91353834D01*
X144472916Y-91386200D01*
X144499877Y-91353100D01*
X144519132Y-91327965D01*
X144530436Y-91308247D01*
X144534041Y-91291603D01*
X144530197Y-91275693D01*
X144519157Y-91258175D01*
X144511129Y-91248216D01*
X144495148Y-91229223D01*
X144522295Y-91249945D01*
X144537467Y-91260957D01*
X144549248Y-91268472D01*
X144554287Y-91270667D01*
X144570087Y-91266623D01*
X144591073Y-91255320D01*
X144615002Y-91237996D01*
X144618403Y-91235208D01*
X144647029Y-91211400D01*
X144617559Y-91246971D01*
G36*
X145238448Y-91246971D02*
X145224677Y-91264728D01*
X145214346Y-91280215D01*
X145209233Y-91290694D01*
X145208978Y-91292282D01*
X145210876Y-91301437D01*
X145217264Y-91313576D01*
X145229180Y-91330285D01*
X145247663Y-91353148D01*
X145253056Y-91359567D01*
X145267362Y-91376818D01*
X145274147Y-91385953D01*
X145273436Y-91387254D01*
X145265255Y-91381000D01*
X145254134Y-91371433D01*
X145227703Y-91349450D01*
X145205393Y-91333245D01*
X145188517Y-91323709D01*
X145180230Y-91321467D01*
X145171556Y-91324958D01*
X145157076Y-91334279D01*
X145139370Y-91347701D01*
X145131957Y-91353834D01*
X145093805Y-91386200D01*
X145120766Y-91353100D01*
X145140020Y-91327965D01*
X145151325Y-91308247D01*
X145154929Y-91291603D01*
X145151086Y-91275693D01*
X145140046Y-91258175D01*
X145132018Y-91248216D01*
X145116037Y-91229223D01*
X145143184Y-91249945D01*
X145158356Y-91260957D01*
X145170137Y-91268472D01*
X145175176Y-91270667D01*
X145190976Y-91266623D01*
X145211962Y-91255320D01*
X145235891Y-91237996D01*
X145239292Y-91235208D01*
X145267918Y-91211400D01*
X145238448Y-91246971D01*
X145238448Y-91246971D01*
G37*
X145238448Y-91246971D02*
X145224677Y-91264728D01*
X145214346Y-91280215D01*
X145209233Y-91290694D01*
X145208978Y-91292282D01*
X145210876Y-91301437D01*
X145217264Y-91313576D01*
X145229180Y-91330285D01*
X145247663Y-91353148D01*
X145253056Y-91359567D01*
X145267362Y-91376818D01*
X145274147Y-91385953D01*
X145273436Y-91387254D01*
X145265255Y-91381000D01*
X145254134Y-91371433D01*
X145227703Y-91349450D01*
X145205393Y-91333245D01*
X145188517Y-91323709D01*
X145180230Y-91321467D01*
X145171556Y-91324958D01*
X145157076Y-91334279D01*
X145139370Y-91347701D01*
X145131957Y-91353834D01*
X145093805Y-91386200D01*
X145120766Y-91353100D01*
X145140020Y-91327965D01*
X145151325Y-91308247D01*
X145154929Y-91291603D01*
X145151086Y-91275693D01*
X145140046Y-91258175D01*
X145132018Y-91248216D01*
X145116037Y-91229223D01*
X145143184Y-91249945D01*
X145158356Y-91260957D01*
X145170137Y-91268472D01*
X145175176Y-91270667D01*
X145190976Y-91266623D01*
X145211962Y-91255320D01*
X145235891Y-91237996D01*
X145239292Y-91235208D01*
X145267918Y-91211400D01*
X145238448Y-91246971D01*
G36*
X143383818Y-91043079D02*
X143395532Y-91053669D01*
X143412336Y-91069644D01*
X143432857Y-91089630D01*
X143455720Y-91112259D01*
X143479554Y-91136157D01*
X143502986Y-91159955D01*
X143524641Y-91182280D01*
X143543147Y-91201761D01*
X143557132Y-91217028D01*
X143560837Y-91221278D01*
X143572399Y-91235458D01*
X143576384Y-91241928D01*
X143573171Y-91240990D01*
X143563139Y-91232942D01*
X143546667Y-91218085D01*
X143524134Y-91196718D01*
X143500134Y-91173300D01*
X143467635Y-91140863D01*
X143438991Y-91111487D01*
X143414954Y-91086001D01*
X143396277Y-91065236D01*
X143383712Y-91050021D01*
X143378014Y-91041188D01*
X143378566Y-91039245D01*
X143383818Y-91043079D01*
X143383818Y-91043079D01*
G37*
X143383818Y-91043079D02*
X143395532Y-91053669D01*
X143412336Y-91069644D01*
X143432857Y-91089630D01*
X143455720Y-91112259D01*
X143479554Y-91136157D01*
X143502986Y-91159955D01*
X143524641Y-91182280D01*
X143543147Y-91201761D01*
X143557132Y-91217028D01*
X143560837Y-91221278D01*
X143572399Y-91235458D01*
X143576384Y-91241928D01*
X143573171Y-91240990D01*
X143563139Y-91232942D01*
X143546667Y-91218085D01*
X143524134Y-91196718D01*
X143500134Y-91173300D01*
X143467635Y-91140863D01*
X143438991Y-91111487D01*
X143414954Y-91086001D01*
X143396277Y-91065236D01*
X143383712Y-91050021D01*
X143378014Y-91041188D01*
X143378566Y-91039245D01*
X143383818Y-91043079D01*
G36*
X144004707Y-91043079D02*
X144016421Y-91053669D01*
X144033225Y-91069644D01*
X144053746Y-91089630D01*
X144076609Y-91112259D01*
X144100443Y-91136157D01*
X144123875Y-91159955D01*
X144145530Y-91182280D01*
X144164036Y-91201761D01*
X144178020Y-91217028D01*
X144181726Y-91221278D01*
X144193288Y-91235458D01*
X144197273Y-91241928D01*
X144194060Y-91240990D01*
X144184028Y-91232942D01*
X144167556Y-91218085D01*
X144145023Y-91196718D01*
X144121023Y-91173300D01*
X144088524Y-91140863D01*
X144059880Y-91111487D01*
X144035842Y-91086001D01*
X144017165Y-91065236D01*
X144004601Y-91050021D01*
X143998903Y-91041188D01*
X143999455Y-91039245D01*
X144004707Y-91043079D01*
X144004707Y-91043079D01*
G37*
X144004707Y-91043079D02*
X144016421Y-91053669D01*
X144033225Y-91069644D01*
X144053746Y-91089630D01*
X144076609Y-91112259D01*
X144100443Y-91136157D01*
X144123875Y-91159955D01*
X144145530Y-91182280D01*
X144164036Y-91201761D01*
X144178020Y-91217028D01*
X144181726Y-91221278D01*
X144193288Y-91235458D01*
X144197273Y-91241928D01*
X144194060Y-91240990D01*
X144184028Y-91232942D01*
X144167556Y-91218085D01*
X144145023Y-91196718D01*
X144121023Y-91173300D01*
X144088524Y-91140863D01*
X144059880Y-91111487D01*
X144035842Y-91086001D01*
X144017165Y-91065236D01*
X144004601Y-91050021D01*
X143998903Y-91041188D01*
X143999455Y-91039245D01*
X144004707Y-91043079D01*
G36*
X144625596Y-91043079D02*
X144637310Y-91053669D01*
X144654114Y-91069644D01*
X144674635Y-91089630D01*
X144697498Y-91112259D01*
X144721332Y-91136157D01*
X144744763Y-91159955D01*
X144766419Y-91182280D01*
X144784925Y-91201761D01*
X144798909Y-91217028D01*
X144802615Y-91221278D01*
X144814177Y-91235458D01*
X144818162Y-91241928D01*
X144814949Y-91240990D01*
X144804917Y-91232942D01*
X144788445Y-91218085D01*
X144765912Y-91196718D01*
X144741912Y-91173300D01*
X144709413Y-91140863D01*
X144680768Y-91111487D01*
X144656731Y-91086001D01*
X144638054Y-91065236D01*
X144625490Y-91050021D01*
X144619792Y-91041188D01*
X144620344Y-91039245D01*
X144625596Y-91043079D01*
X144625596Y-91043079D01*
G37*
X144625596Y-91043079D02*
X144637310Y-91053669D01*
X144654114Y-91069644D01*
X144674635Y-91089630D01*
X144697498Y-91112259D01*
X144721332Y-91136157D01*
X144744763Y-91159955D01*
X144766419Y-91182280D01*
X144784925Y-91201761D01*
X144798909Y-91217028D01*
X144802615Y-91221278D01*
X144814177Y-91235458D01*
X144818162Y-91241928D01*
X144814949Y-91240990D01*
X144804917Y-91232942D01*
X144788445Y-91218085D01*
X144765912Y-91196718D01*
X144741912Y-91173300D01*
X144709413Y-91140863D01*
X144680768Y-91111487D01*
X144656731Y-91086001D01*
X144638054Y-91065236D01*
X144625490Y-91050021D01*
X144619792Y-91041188D01*
X144620344Y-91039245D01*
X144625596Y-91043079D01*
G36*
X143891803Y-91035343D02*
X143892904Y-91037766D01*
X143891613Y-91041641D01*
X143887052Y-91047894D01*
X143878341Y-91057450D01*
X143864602Y-91071233D01*
X143844958Y-91090170D01*
X143818529Y-91115185D01*
X143795045Y-91137255D01*
X143716022Y-91211400D01*
X143779035Y-91143667D01*
X143812286Y-91108148D01*
X143838733Y-91080442D01*
X143859048Y-91059903D01*
X143873902Y-91045886D01*
X143883967Y-91037745D01*
X143889916Y-91034834D01*
X143891803Y-91035343D01*
X143891803Y-91035343D01*
G37*
X143891803Y-91035343D02*
X143892904Y-91037766D01*
X143891613Y-91041641D01*
X143887052Y-91047894D01*
X143878341Y-91057450D01*
X143864602Y-91071233D01*
X143844958Y-91090170D01*
X143818529Y-91115185D01*
X143795045Y-91137255D01*
X143716022Y-91211400D01*
X143779035Y-91143667D01*
X143812286Y-91108148D01*
X143838733Y-91080442D01*
X143859048Y-91059903D01*
X143873902Y-91045886D01*
X143883967Y-91037745D01*
X143889916Y-91034834D01*
X143891803Y-91035343D01*
G36*
X144512692Y-91035343D02*
X144513793Y-91037766D01*
X144512502Y-91041641D01*
X144507940Y-91047894D01*
X144499230Y-91057450D01*
X144485491Y-91071233D01*
X144465847Y-91090170D01*
X144439418Y-91115185D01*
X144415934Y-91137255D01*
X144336911Y-91211400D01*
X144399924Y-91143667D01*
X144433175Y-91108148D01*
X144459622Y-91080442D01*
X144479937Y-91059903D01*
X144494791Y-91045886D01*
X144504856Y-91037745D01*
X144510805Y-91034834D01*
X144512692Y-91035343D01*
X144512692Y-91035343D01*
G37*
X144512692Y-91035343D02*
X144513793Y-91037766D01*
X144512502Y-91041641D01*
X144507940Y-91047894D01*
X144499230Y-91057450D01*
X144485491Y-91071233D01*
X144465847Y-91090170D01*
X144439418Y-91115185D01*
X144415934Y-91137255D01*
X144336911Y-91211400D01*
X144399924Y-91143667D01*
X144433175Y-91108148D01*
X144459622Y-91080442D01*
X144479937Y-91059903D01*
X144494791Y-91045886D01*
X144504856Y-91037745D01*
X144510805Y-91034834D01*
X144512692Y-91035343D01*
G36*
X143686226Y-90936527D02*
X143672455Y-90954284D01*
X143662124Y-90969770D01*
X143657011Y-90980250D01*
X143656756Y-90981837D01*
X143658654Y-90990993D01*
X143665042Y-91003132D01*
X143676957Y-91019840D01*
X143695441Y-91042704D01*
X143700834Y-91049122D01*
X143715139Y-91066373D01*
X143721924Y-91075509D01*
X143721214Y-91076809D01*
X143713033Y-91070555D01*
X143701911Y-91060989D01*
X143675481Y-91039006D01*
X143653170Y-91022801D01*
X143636295Y-91013264D01*
X143628008Y-91011022D01*
X143619334Y-91014514D01*
X143604854Y-91023835D01*
X143587147Y-91037256D01*
X143579735Y-91043389D01*
X143541583Y-91075756D01*
X143568544Y-91042655D01*
X143587798Y-91017521D01*
X143599102Y-90997802D01*
X143602707Y-90981158D01*
X143598864Y-90965248D01*
X143587824Y-90947730D01*
X143579796Y-90937771D01*
X143563815Y-90918778D01*
X143590962Y-90939500D01*
X143606134Y-90950512D01*
X143617914Y-90958027D01*
X143622954Y-90960222D01*
X143638754Y-90956179D01*
X143659739Y-90944875D01*
X143683669Y-90927552D01*
X143687070Y-90924763D01*
X143715695Y-90900956D01*
X143686226Y-90936527D01*
X143686226Y-90936527D01*
G37*
X143686226Y-90936527D02*
X143672455Y-90954284D01*
X143662124Y-90969770D01*
X143657011Y-90980250D01*
X143656756Y-90981837D01*
X143658654Y-90990993D01*
X143665042Y-91003132D01*
X143676957Y-91019840D01*
X143695441Y-91042704D01*
X143700834Y-91049122D01*
X143715139Y-91066373D01*
X143721924Y-91075509D01*
X143721214Y-91076809D01*
X143713033Y-91070555D01*
X143701911Y-91060989D01*
X143675481Y-91039006D01*
X143653170Y-91022801D01*
X143636295Y-91013264D01*
X143628008Y-91011022D01*
X143619334Y-91014514D01*
X143604854Y-91023835D01*
X143587147Y-91037256D01*
X143579735Y-91043389D01*
X143541583Y-91075756D01*
X143568544Y-91042655D01*
X143587798Y-91017521D01*
X143599102Y-90997802D01*
X143602707Y-90981158D01*
X143598864Y-90965248D01*
X143587824Y-90947730D01*
X143579796Y-90937771D01*
X143563815Y-90918778D01*
X143590962Y-90939500D01*
X143606134Y-90950512D01*
X143617914Y-90958027D01*
X143622954Y-90960222D01*
X143638754Y-90956179D01*
X143659739Y-90944875D01*
X143683669Y-90927552D01*
X143687070Y-90924763D01*
X143715695Y-90900956D01*
X143686226Y-90936527D01*
G36*
X144307114Y-90936527D02*
X144293344Y-90954284D01*
X144283013Y-90969770D01*
X144277900Y-90980250D01*
X144277645Y-90981837D01*
X144279543Y-90990993D01*
X144285931Y-91003132D01*
X144297846Y-91019840D01*
X144316330Y-91042704D01*
X144321722Y-91049122D01*
X144336028Y-91066373D01*
X144342813Y-91075509D01*
X144342103Y-91076809D01*
X144333922Y-91070555D01*
X144322800Y-91060989D01*
X144296370Y-91039006D01*
X144274059Y-91022801D01*
X144257184Y-91013264D01*
X144248897Y-91011022D01*
X144240223Y-91014514D01*
X144225743Y-91023835D01*
X144208036Y-91037256D01*
X144200624Y-91043389D01*
X144162472Y-91075756D01*
X144189432Y-91042655D01*
X144208687Y-91017521D01*
X144219991Y-90997802D01*
X144223596Y-90981158D01*
X144219753Y-90965248D01*
X144208712Y-90947730D01*
X144200685Y-90937771D01*
X144184704Y-90918778D01*
X144211851Y-90939500D01*
X144227023Y-90950512D01*
X144238803Y-90958027D01*
X144243843Y-90960222D01*
X144259643Y-90956179D01*
X144280628Y-90944875D01*
X144304558Y-90927552D01*
X144307959Y-90924763D01*
X144336584Y-90900956D01*
X144307114Y-90936527D01*
X144307114Y-90936527D01*
G37*
X144307114Y-90936527D02*
X144293344Y-90954284D01*
X144283013Y-90969770D01*
X144277900Y-90980250D01*
X144277645Y-90981837D01*
X144279543Y-90990993D01*
X144285931Y-91003132D01*
X144297846Y-91019840D01*
X144316330Y-91042704D01*
X144321722Y-91049122D01*
X144336028Y-91066373D01*
X144342813Y-91075509D01*
X144342103Y-91076809D01*
X144333922Y-91070555D01*
X144322800Y-91060989D01*
X144296370Y-91039006D01*
X144274059Y-91022801D01*
X144257184Y-91013264D01*
X144248897Y-91011022D01*
X144240223Y-91014514D01*
X144225743Y-91023835D01*
X144208036Y-91037256D01*
X144200624Y-91043389D01*
X144162472Y-91075756D01*
X144189432Y-91042655D01*
X144208687Y-91017521D01*
X144219991Y-90997802D01*
X144223596Y-90981158D01*
X144219753Y-90965248D01*
X144208712Y-90947730D01*
X144200685Y-90937771D01*
X144184704Y-90918778D01*
X144211851Y-90939500D01*
X144227023Y-90950512D01*
X144238803Y-90958027D01*
X144243843Y-90960222D01*
X144259643Y-90956179D01*
X144280628Y-90944875D01*
X144304558Y-90927552D01*
X144307959Y-90924763D01*
X144336584Y-90900956D01*
X144307114Y-90936527D01*
G36*
X144315151Y-90732635D02*
X144326866Y-90743225D01*
X144343670Y-90759199D01*
X144364190Y-90779186D01*
X144387054Y-90801814D01*
X144410888Y-90825713D01*
X144434319Y-90849510D01*
X144455974Y-90871835D01*
X144474481Y-90891317D01*
X144488465Y-90906583D01*
X144492171Y-90910834D01*
X144503733Y-90925013D01*
X144507718Y-90931484D01*
X144504504Y-90930546D01*
X144494472Y-90922498D01*
X144478000Y-90907641D01*
X144455468Y-90886273D01*
X144431467Y-90862856D01*
X144398968Y-90830419D01*
X144370324Y-90801042D01*
X144346287Y-90775556D01*
X144327610Y-90754791D01*
X144315046Y-90739577D01*
X144309347Y-90730743D01*
X144309899Y-90728800D01*
X144315151Y-90732635D01*
X144315151Y-90732635D01*
G37*
X144315151Y-90732635D02*
X144326866Y-90743225D01*
X144343670Y-90759199D01*
X144364190Y-90779186D01*
X144387054Y-90801814D01*
X144410888Y-90825713D01*
X144434319Y-90849510D01*
X144455974Y-90871835D01*
X144474481Y-90891317D01*
X144488465Y-90906583D01*
X144492171Y-90910834D01*
X144503733Y-90925013D01*
X144507718Y-90931484D01*
X144504504Y-90930546D01*
X144494472Y-90922498D01*
X144478000Y-90907641D01*
X144455468Y-90886273D01*
X144431467Y-90862856D01*
X144398968Y-90830419D01*
X144370324Y-90801042D01*
X144346287Y-90775556D01*
X144327610Y-90754791D01*
X144315046Y-90739577D01*
X144309347Y-90730743D01*
X144309899Y-90728800D01*
X144315151Y-90732635D01*
G36*
X144202247Y-90724899D02*
X144203349Y-90727322D01*
X144202058Y-90731197D01*
X144197496Y-90737450D01*
X144188785Y-90747005D01*
X144175047Y-90760789D01*
X144155402Y-90779725D01*
X144128974Y-90804740D01*
X144105489Y-90826811D01*
X144026467Y-90900956D01*
X144089480Y-90833222D01*
X144122731Y-90797704D01*
X144149178Y-90769998D01*
X144169492Y-90749459D01*
X144184346Y-90735441D01*
X144194412Y-90727300D01*
X144200361Y-90724390D01*
X144202247Y-90724899D01*
X144202247Y-90724899D01*
G37*
X144202247Y-90724899D02*
X144203349Y-90727322D01*
X144202058Y-90731197D01*
X144197496Y-90737450D01*
X144188785Y-90747005D01*
X144175047Y-90760789D01*
X144155402Y-90779725D01*
X144128974Y-90804740D01*
X144105489Y-90826811D01*
X144026467Y-90900956D01*
X144089480Y-90833222D01*
X144122731Y-90797704D01*
X144149178Y-90769998D01*
X144169492Y-90749459D01*
X144184346Y-90735441D01*
X144194412Y-90727300D01*
X144200361Y-90724390D01*
X144202247Y-90724899D01*
%LPC*%
D14*
X128130800Y-84683600D03*
X128130800Y-94335600D03*
D15*
X165473000Y-84709000D03*
X165473000Y-94352000D03*
D16*
X151638000Y-100838000D03*
M02*
