G04 #@! TF.FileFunction,Legend,Top*
%FSLAX46Y46*%
G04 Gerber Fmt 4.6, Leading zero omitted, Abs format (unit mm)*
G04 Created by KiCad (PCBNEW 4.0.7-e2-6376~58~ubuntu16.04.1) date Mon Nov  6 15:13:20 2017*
%MOMM*%
%LPD*%
G01*
G04 APERTURE LIST*
%ADD10C,0.100000*%
%ADD11C,0.300000*%
%ADD12C,0.150000*%
%ADD13C,0.200000*%
%ADD14C,0.250000*%
%ADD15C,0.120000*%
%ADD16C,0.010000*%
%ADD17R,2.600000X1.600000*%
%ADD18R,6.800000X6.200000*%
%ADD19R,3.450000X3.150000*%
%ADD20R,10.400000X7.400000*%
%ADD21O,7.250000X4.450000*%
%ADD22C,3.600000*%
%ADD23R,2.900000X4.400000*%
%ADD24R,1.650000X1.900000*%
%ADD25R,1.900000X1.650000*%
%ADD26R,4.400000X2.900000*%
%ADD27R,1.700000X1.900000*%
%ADD28R,2.900000X2.900000*%
%ADD29C,2.900000*%
%ADD30R,3.300000X5.800000*%
%ADD31R,1.900000X1.700000*%
%ADD32R,2.100000X2.400000*%
%ADD33R,1.850000X0.850000*%
G04 APERTURE END LIST*
D10*
D11*
X151827571Y-93054857D02*
X153041857Y-93054857D01*
X153184714Y-92983429D01*
X153256143Y-92912000D01*
X153327571Y-92769143D01*
X153327571Y-92483429D01*
X153256143Y-92340571D01*
X153184714Y-92269143D01*
X153041857Y-92197714D01*
X151827571Y-92197714D01*
X153256143Y-91554857D02*
X153327571Y-91340571D01*
X153327571Y-90983428D01*
X153256143Y-90840571D01*
X153184714Y-90769142D01*
X153041857Y-90697714D01*
X152899000Y-90697714D01*
X152756143Y-90769142D01*
X152684714Y-90840571D01*
X152613286Y-90983428D01*
X152541857Y-91269142D01*
X152470429Y-91412000D01*
X152399000Y-91483428D01*
X152256143Y-91554857D01*
X152113286Y-91554857D01*
X151970429Y-91483428D01*
X151899000Y-91412000D01*
X151827571Y-91269142D01*
X151827571Y-90912000D01*
X151899000Y-90697714D01*
X152541857Y-89554857D02*
X152613286Y-89340571D01*
X152684714Y-89269143D01*
X152827571Y-89197714D01*
X153041857Y-89197714D01*
X153184714Y-89269143D01*
X153256143Y-89340571D01*
X153327571Y-89483429D01*
X153327571Y-90054857D01*
X151827571Y-90054857D01*
X151827571Y-89554857D01*
X151899000Y-89412000D01*
X151970429Y-89340571D01*
X152113286Y-89269143D01*
X152256143Y-89269143D01*
X152399000Y-89340571D01*
X152470429Y-89412000D01*
X152541857Y-89554857D01*
X152541857Y-90054857D01*
X153327571Y-88554857D02*
X151827571Y-88554857D01*
X151827571Y-87983429D01*
X151899000Y-87840571D01*
X151970429Y-87769143D01*
X152113286Y-87697714D01*
X152327571Y-87697714D01*
X152470429Y-87769143D01*
X152541857Y-87840571D01*
X152613286Y-87983429D01*
X152613286Y-88554857D01*
X153327571Y-87054857D02*
X151827571Y-87054857D01*
X151827571Y-86697714D01*
X151899000Y-86483429D01*
X152041857Y-86340571D01*
X152184714Y-86269143D01*
X152470429Y-86197714D01*
X152684714Y-86197714D01*
X152970429Y-86269143D01*
X153113286Y-86340571D01*
X153256143Y-86483429D01*
X153327571Y-86697714D01*
X153327571Y-87054857D01*
X155877571Y-96911999D02*
X154377571Y-96911999D01*
X154377571Y-96340571D01*
X154449000Y-96197713D01*
X154520429Y-96126285D01*
X154663286Y-96054856D01*
X154877571Y-96054856D01*
X155020429Y-96126285D01*
X155091857Y-96197713D01*
X155163286Y-96340571D01*
X155163286Y-96911999D01*
X155877571Y-95197713D02*
X155806143Y-95340571D01*
X155734714Y-95411999D01*
X155591857Y-95483428D01*
X155163286Y-95483428D01*
X155020429Y-95411999D01*
X154949000Y-95340571D01*
X154877571Y-95197713D01*
X154877571Y-94983428D01*
X154949000Y-94840571D01*
X155020429Y-94769142D01*
X155163286Y-94697713D01*
X155591857Y-94697713D01*
X155734714Y-94769142D01*
X155806143Y-94840571D01*
X155877571Y-94983428D01*
X155877571Y-95197713D01*
X154877571Y-94197713D02*
X155877571Y-93911999D01*
X155163286Y-93626285D01*
X155877571Y-93340570D01*
X154877571Y-93054856D01*
X155806143Y-91911999D02*
X155877571Y-92054856D01*
X155877571Y-92340570D01*
X155806143Y-92483427D01*
X155663286Y-92554856D01*
X155091857Y-92554856D01*
X154949000Y-92483427D01*
X154877571Y-92340570D01*
X154877571Y-92054856D01*
X154949000Y-91911999D01*
X155091857Y-91840570D01*
X155234714Y-91840570D01*
X155377571Y-92554856D01*
X155877571Y-91197713D02*
X154877571Y-91197713D01*
X155163286Y-91197713D02*
X155020429Y-91126285D01*
X154949000Y-91054856D01*
X154877571Y-90911999D01*
X154877571Y-90769142D01*
X155806143Y-89197714D02*
X155877571Y-88983428D01*
X155877571Y-88626285D01*
X155806143Y-88483428D01*
X155734714Y-88411999D01*
X155591857Y-88340571D01*
X155449000Y-88340571D01*
X155306143Y-88411999D01*
X155234714Y-88483428D01*
X155163286Y-88626285D01*
X155091857Y-88911999D01*
X155020429Y-89054857D01*
X154949000Y-89126285D01*
X154806143Y-89197714D01*
X154663286Y-89197714D01*
X154520429Y-89126285D01*
X154449000Y-89054857D01*
X154377571Y-88911999D01*
X154377571Y-88554857D01*
X154449000Y-88340571D01*
X154877571Y-87054857D02*
X155877571Y-87054857D01*
X154877571Y-87697714D02*
X155663286Y-87697714D01*
X155806143Y-87626286D01*
X155877571Y-87483428D01*
X155877571Y-87269143D01*
X155806143Y-87126286D01*
X155734714Y-87054857D01*
X154877571Y-86340571D02*
X156377571Y-86340571D01*
X154949000Y-86340571D02*
X154877571Y-86197714D01*
X154877571Y-85912000D01*
X154949000Y-85769143D01*
X155020429Y-85697714D01*
X155163286Y-85626285D01*
X155591857Y-85626285D01*
X155734714Y-85697714D01*
X155806143Y-85769143D01*
X155877571Y-85912000D01*
X155877571Y-86197714D01*
X155806143Y-86340571D01*
X154877571Y-84983428D02*
X156377571Y-84983428D01*
X154949000Y-84983428D02*
X154877571Y-84840571D01*
X154877571Y-84554857D01*
X154949000Y-84412000D01*
X155020429Y-84340571D01*
X155163286Y-84269142D01*
X155591857Y-84269142D01*
X155734714Y-84340571D01*
X155806143Y-84412000D01*
X155877571Y-84554857D01*
X155877571Y-84840571D01*
X155806143Y-84983428D01*
X155877571Y-83411999D02*
X155806143Y-83554857D01*
X155663286Y-83626285D01*
X154377571Y-83626285D01*
X154877571Y-82983428D02*
X155877571Y-82626285D01*
X154877571Y-82269143D02*
X155877571Y-82626285D01*
X156234714Y-82769143D01*
X156306143Y-82840571D01*
X156377571Y-82983428D01*
D12*
X162675715Y-99254571D02*
X163175715Y-100754571D01*
X163675715Y-99254571D01*
X164747143Y-100683143D02*
X164604286Y-100754571D01*
X164318572Y-100754571D01*
X164175715Y-100683143D01*
X164104286Y-100540286D01*
X164104286Y-99968857D01*
X164175715Y-99826000D01*
X164318572Y-99754571D01*
X164604286Y-99754571D01*
X164747143Y-99826000D01*
X164818572Y-99968857D01*
X164818572Y-100111714D01*
X164104286Y-100254571D01*
X165461429Y-100754571D02*
X165461429Y-99754571D01*
X165461429Y-100040286D02*
X165532857Y-99897429D01*
X165604286Y-99826000D01*
X165747143Y-99754571D01*
X165890000Y-99754571D01*
X166390000Y-100611714D02*
X166461428Y-100683143D01*
X166390000Y-100754571D01*
X166318571Y-100683143D01*
X166390000Y-100611714D01*
X166390000Y-100754571D01*
X168247143Y-100754571D02*
X168247143Y-99254571D01*
X168247143Y-99826000D02*
X168390000Y-99754571D01*
X168675714Y-99754571D01*
X168818571Y-99826000D01*
X168890000Y-99897429D01*
X168961429Y-100040286D01*
X168961429Y-100468857D01*
X168890000Y-100611714D01*
X168818571Y-100683143D01*
X168675714Y-100754571D01*
X168390000Y-100754571D01*
X168247143Y-100683143D01*
X170175714Y-100683143D02*
X170032857Y-100754571D01*
X169747143Y-100754571D01*
X169604286Y-100683143D01*
X169532857Y-100540286D01*
X169532857Y-99968857D01*
X169604286Y-99826000D01*
X169747143Y-99754571D01*
X170032857Y-99754571D01*
X170175714Y-99826000D01*
X170247143Y-99968857D01*
X170247143Y-100111714D01*
X169532857Y-100254571D01*
X170675714Y-99754571D02*
X171247143Y-99754571D01*
X170890000Y-99254571D02*
X170890000Y-100540286D01*
X170961428Y-100683143D01*
X171104286Y-100754571D01*
X171247143Y-100754571D01*
X172390000Y-100754571D02*
X172390000Y-99968857D01*
X172318571Y-99826000D01*
X172175714Y-99754571D01*
X171890000Y-99754571D01*
X171747143Y-99826000D01*
X172390000Y-100683143D02*
X172247143Y-100754571D01*
X171890000Y-100754571D01*
X171747143Y-100683143D01*
X171675714Y-100540286D01*
X171675714Y-100397429D01*
X171747143Y-100254571D01*
X171890000Y-100183143D01*
X172247143Y-100183143D01*
X172390000Y-100111714D01*
D13*
X138811000Y-123190000D02*
G75*
G03X138811000Y-123190000I-127000J0D01*
G01*
D11*
X138874572Y-83165143D02*
X140017429Y-83165143D01*
X143954572Y-83165143D02*
X145097429Y-83165143D01*
X144526000Y-83736571D02*
X144526000Y-82593714D01*
D12*
X134603964Y-92138499D02*
X134658393Y-92192928D01*
X134712821Y-92356214D01*
X134712821Y-92465071D01*
X134658393Y-92628356D01*
X134549536Y-92737214D01*
X134440679Y-92791642D01*
X134222964Y-92846071D01*
X134059679Y-92846071D01*
X133841964Y-92791642D01*
X133733107Y-92737214D01*
X133624250Y-92628356D01*
X133569821Y-92465071D01*
X133569821Y-92356214D01*
X133624250Y-92192928D01*
X133678679Y-92138499D01*
X134712821Y-91485356D02*
X134658393Y-91594214D01*
X134603964Y-91648642D01*
X134495107Y-91703071D01*
X134168536Y-91703071D01*
X134059679Y-91648642D01*
X134005250Y-91594214D01*
X133950821Y-91485356D01*
X133950821Y-91322071D01*
X134005250Y-91213214D01*
X134059679Y-91158785D01*
X134168536Y-91104356D01*
X134495107Y-91104356D01*
X134603964Y-91158785D01*
X134658393Y-91213214D01*
X134712821Y-91322071D01*
X134712821Y-91485356D01*
X133950821Y-90723356D02*
X134712821Y-90451213D01*
X133950821Y-90179071D01*
X134658393Y-89308214D02*
X134712821Y-89417071D01*
X134712821Y-89634785D01*
X134658393Y-89743642D01*
X134549536Y-89798071D01*
X134114107Y-89798071D01*
X134005250Y-89743642D01*
X133950821Y-89634785D01*
X133950821Y-89417071D01*
X134005250Y-89308214D01*
X134114107Y-89253785D01*
X134222964Y-89253785D01*
X134331821Y-89798071D01*
X134712821Y-88763928D02*
X133950821Y-88763928D01*
X134168536Y-88763928D02*
X134059679Y-88709500D01*
X134005250Y-88655071D01*
X133950821Y-88546214D01*
X133950821Y-88437357D01*
X134712821Y-87185500D02*
X133950821Y-87185500D01*
X133569821Y-87185500D02*
X133624250Y-87239929D01*
X133678679Y-87185500D01*
X133624250Y-87131072D01*
X133569821Y-87185500D01*
X133678679Y-87185500D01*
X133950821Y-86804500D02*
X133950821Y-86369071D01*
X134712821Y-86641214D02*
X133733107Y-86641214D01*
X133624250Y-86586786D01*
X133569821Y-86477928D01*
X133569821Y-86369071D01*
X135815321Y-91920786D02*
X136577321Y-91920786D01*
X135815321Y-92410643D02*
X136414036Y-92410643D01*
X136522893Y-92356215D01*
X136577321Y-92247357D01*
X136577321Y-92084072D01*
X136522893Y-91975215D01*
X136468464Y-91920786D01*
X135815321Y-91376500D02*
X136577321Y-91376500D01*
X135924179Y-91376500D02*
X135869750Y-91322072D01*
X135815321Y-91213214D01*
X135815321Y-91049929D01*
X135869750Y-90941072D01*
X135978607Y-90886643D01*
X136577321Y-90886643D01*
X135815321Y-89852500D02*
X136577321Y-89852500D01*
X135815321Y-90342357D02*
X136414036Y-90342357D01*
X136522893Y-90287929D01*
X136577321Y-90179071D01*
X136577321Y-90015786D01*
X136522893Y-89906929D01*
X136468464Y-89852500D01*
X136522893Y-89362643D02*
X136577321Y-89253786D01*
X136577321Y-89036071D01*
X136522893Y-88927214D01*
X136414036Y-88872786D01*
X136359607Y-88872786D01*
X136250750Y-88927214D01*
X136196321Y-89036071D01*
X136196321Y-89199357D01*
X136141893Y-89308214D01*
X136033036Y-89362643D01*
X135978607Y-89362643D01*
X135869750Y-89308214D01*
X135815321Y-89199357D01*
X135815321Y-89036071D01*
X135869750Y-88927214D01*
X136522893Y-87947500D02*
X136577321Y-88056357D01*
X136577321Y-88274071D01*
X136522893Y-88382928D01*
X136414036Y-88437357D01*
X135978607Y-88437357D01*
X135869750Y-88382928D01*
X135815321Y-88274071D01*
X135815321Y-88056357D01*
X135869750Y-87947500D01*
X135978607Y-87893071D01*
X136087464Y-87893071D01*
X136196321Y-88437357D01*
X136577321Y-86913357D02*
X135434321Y-86913357D01*
X136522893Y-86913357D02*
X136577321Y-87022214D01*
X136577321Y-87239928D01*
X136522893Y-87348786D01*
X136468464Y-87403214D01*
X136359607Y-87457643D01*
X136033036Y-87457643D01*
X135924179Y-87403214D01*
X135869750Y-87348786D01*
X135815321Y-87239928D01*
X135815321Y-87022214D01*
X135869750Y-86913357D01*
D14*
X148407429Y-96281905D02*
X148407429Y-95520000D01*
X148788381Y-95900952D02*
X148026476Y-95900952D01*
X147788381Y-94615238D02*
X147788381Y-94805715D01*
X147836000Y-94900953D01*
X147883619Y-94948572D01*
X148026476Y-95043810D01*
X148216952Y-95091429D01*
X148597905Y-95091429D01*
X148693143Y-95043810D01*
X148740762Y-94996191D01*
X148788381Y-94900953D01*
X148788381Y-94710476D01*
X148740762Y-94615238D01*
X148693143Y-94567619D01*
X148597905Y-94520000D01*
X148359810Y-94520000D01*
X148264571Y-94567619D01*
X148216952Y-94615238D01*
X148169333Y-94710476D01*
X148169333Y-94900953D01*
X148216952Y-94996191D01*
X148264571Y-95043810D01*
X148359810Y-95091429D01*
X147788381Y-94234286D02*
X148788381Y-93900953D01*
X147788381Y-93567619D01*
X148121714Y-92615238D02*
X148121714Y-92234286D01*
X147788381Y-92472381D02*
X148645524Y-92472381D01*
X148740762Y-92424762D01*
X148788381Y-92329524D01*
X148788381Y-92234286D01*
X148788381Y-91758095D02*
X148740762Y-91853333D01*
X148693143Y-91900952D01*
X148597905Y-91948571D01*
X148312190Y-91948571D01*
X148216952Y-91900952D01*
X148169333Y-91853333D01*
X148121714Y-91758095D01*
X148121714Y-91615237D01*
X148169333Y-91519999D01*
X148216952Y-91472380D01*
X148312190Y-91424761D01*
X148597905Y-91424761D01*
X148693143Y-91472380D01*
X148740762Y-91519999D01*
X148788381Y-91615237D01*
X148788381Y-91758095D01*
X148407429Y-90234285D02*
X148407429Y-89472380D01*
X148788381Y-89853332D02*
X148026476Y-89853332D01*
X147883619Y-89043809D02*
X147836000Y-88996190D01*
X147788381Y-88900952D01*
X147788381Y-88662856D01*
X147836000Y-88567618D01*
X147883619Y-88519999D01*
X147978857Y-88472380D01*
X148074095Y-88472380D01*
X148216952Y-88519999D01*
X148788381Y-89091428D01*
X148788381Y-88472380D01*
X147788381Y-87615237D02*
X147788381Y-87805714D01*
X147836000Y-87900952D01*
X147883619Y-87948571D01*
X148026476Y-88043809D01*
X148216952Y-88091428D01*
X148597905Y-88091428D01*
X148693143Y-88043809D01*
X148740762Y-87996190D01*
X148788381Y-87900952D01*
X148788381Y-87710475D01*
X148740762Y-87615237D01*
X148693143Y-87567618D01*
X148597905Y-87519999D01*
X148359810Y-87519999D01*
X148264571Y-87567618D01*
X148216952Y-87615237D01*
X148169333Y-87710475D01*
X148169333Y-87900952D01*
X148216952Y-87996190D01*
X148264571Y-88043809D01*
X148359810Y-88091428D01*
X147788381Y-87234285D02*
X148788381Y-86900952D01*
X147788381Y-86567618D01*
X148788381Y-85472380D02*
X147788381Y-85472380D01*
X148502667Y-85139046D01*
X147788381Y-84805713D01*
X148788381Y-84805713D01*
X148788381Y-83900951D02*
X148264571Y-83900951D01*
X148169333Y-83948570D01*
X148121714Y-84043808D01*
X148121714Y-84234285D01*
X148169333Y-84329523D01*
X148740762Y-83900951D02*
X148788381Y-83996189D01*
X148788381Y-84234285D01*
X148740762Y-84329523D01*
X148645524Y-84377142D01*
X148550286Y-84377142D01*
X148455048Y-84329523D01*
X148407429Y-84234285D01*
X148407429Y-83996189D01*
X148359810Y-83900951D01*
X148788381Y-83519999D02*
X148121714Y-82996189D01*
X148121714Y-83519999D02*
X148788381Y-82996189D01*
D12*
X160003964Y-91884499D02*
X160058393Y-91938928D01*
X160112821Y-92102214D01*
X160112821Y-92211071D01*
X160058393Y-92374356D01*
X159949536Y-92483214D01*
X159840679Y-92537642D01*
X159622964Y-92592071D01*
X159459679Y-92592071D01*
X159241964Y-92537642D01*
X159133107Y-92483214D01*
X159024250Y-92374356D01*
X158969821Y-92211071D01*
X158969821Y-92102214D01*
X159024250Y-91938928D01*
X159078679Y-91884499D01*
X160112821Y-91231356D02*
X160058393Y-91340214D01*
X160003964Y-91394642D01*
X159895107Y-91449071D01*
X159568536Y-91449071D01*
X159459679Y-91394642D01*
X159405250Y-91340214D01*
X159350821Y-91231356D01*
X159350821Y-91068071D01*
X159405250Y-90959214D01*
X159459679Y-90904785D01*
X159568536Y-90850356D01*
X159895107Y-90850356D01*
X160003964Y-90904785D01*
X160058393Y-90959214D01*
X160112821Y-91068071D01*
X160112821Y-91231356D01*
X159350821Y-90469356D02*
X160112821Y-90197213D01*
X159350821Y-89925071D01*
X160058393Y-89054214D02*
X160112821Y-89163071D01*
X160112821Y-89380785D01*
X160058393Y-89489642D01*
X159949536Y-89544071D01*
X159514107Y-89544071D01*
X159405250Y-89489642D01*
X159350821Y-89380785D01*
X159350821Y-89163071D01*
X159405250Y-89054214D01*
X159514107Y-88999785D01*
X159622964Y-88999785D01*
X159731821Y-89544071D01*
X160112821Y-88509928D02*
X159350821Y-88509928D01*
X159568536Y-88509928D02*
X159459679Y-88455500D01*
X159405250Y-88401071D01*
X159350821Y-88292214D01*
X159350821Y-88183357D01*
X160112821Y-86931500D02*
X159350821Y-86931500D01*
X158969821Y-86931500D02*
X159024250Y-86985929D01*
X159078679Y-86931500D01*
X159024250Y-86877072D01*
X158969821Y-86931500D01*
X159078679Y-86931500D01*
X159350821Y-86550500D02*
X159350821Y-86115071D01*
X160112821Y-86387214D02*
X159133107Y-86387214D01*
X159024250Y-86332786D01*
X158969821Y-86223928D01*
X158969821Y-86115071D01*
X161215321Y-91666786D02*
X161977321Y-91666786D01*
X161215321Y-92156643D02*
X161814036Y-92156643D01*
X161922893Y-92102215D01*
X161977321Y-91993357D01*
X161977321Y-91830072D01*
X161922893Y-91721215D01*
X161868464Y-91666786D01*
X161215321Y-91122500D02*
X161977321Y-91122500D01*
X161324179Y-91122500D02*
X161269750Y-91068072D01*
X161215321Y-90959214D01*
X161215321Y-90795929D01*
X161269750Y-90687072D01*
X161378607Y-90632643D01*
X161977321Y-90632643D01*
X161215321Y-89598500D02*
X161977321Y-89598500D01*
X161215321Y-90088357D02*
X161814036Y-90088357D01*
X161922893Y-90033929D01*
X161977321Y-89925071D01*
X161977321Y-89761786D01*
X161922893Y-89652929D01*
X161868464Y-89598500D01*
X161922893Y-89108643D02*
X161977321Y-88999786D01*
X161977321Y-88782071D01*
X161922893Y-88673214D01*
X161814036Y-88618786D01*
X161759607Y-88618786D01*
X161650750Y-88673214D01*
X161596321Y-88782071D01*
X161596321Y-88945357D01*
X161541893Y-89054214D01*
X161433036Y-89108643D01*
X161378607Y-89108643D01*
X161269750Y-89054214D01*
X161215321Y-88945357D01*
X161215321Y-88782071D01*
X161269750Y-88673214D01*
X161922893Y-87693500D02*
X161977321Y-87802357D01*
X161977321Y-88020071D01*
X161922893Y-88128928D01*
X161814036Y-88183357D01*
X161378607Y-88183357D01*
X161269750Y-88128928D01*
X161215321Y-88020071D01*
X161215321Y-87802357D01*
X161269750Y-87693500D01*
X161378607Y-87639071D01*
X161487464Y-87639071D01*
X161596321Y-88183357D01*
X161977321Y-86659357D02*
X160834321Y-86659357D01*
X161922893Y-86659357D02*
X161977321Y-86768214D01*
X161977321Y-86985928D01*
X161922893Y-87094786D01*
X161868464Y-87149214D01*
X161759607Y-87203643D01*
X161433036Y-87203643D01*
X161324179Y-87149214D01*
X161269750Y-87094786D01*
X161215321Y-86985928D01*
X161215321Y-86768214D01*
X161269750Y-86659357D01*
D11*
X134302572Y-94341143D02*
X135445429Y-94341143D01*
X134302572Y-84689143D02*
X135445429Y-84689143D01*
X134874000Y-85260571D02*
X134874000Y-84117714D01*
X159956572Y-94341143D02*
X161099429Y-94341143D01*
X159956572Y-84689143D02*
X161099429Y-84689143D01*
X160528000Y-85260571D02*
X160528000Y-84117714D01*
D15*
X152030000Y-112050000D02*
X150530000Y-112050000D01*
X150530000Y-112050000D02*
X150530000Y-112320000D01*
X150530000Y-112320000D02*
X147700000Y-112320000D01*
X152030000Y-118950000D02*
X150530000Y-118950000D01*
X150530000Y-118950000D02*
X150530000Y-118680000D01*
X150530000Y-118680000D02*
X149430000Y-118680000D01*
X152030000Y-104550000D02*
X150530000Y-104550000D01*
X150530000Y-104550000D02*
X150530000Y-104820000D01*
X150530000Y-104820000D02*
X147700000Y-104820000D01*
X152030000Y-111450000D02*
X150530000Y-111450000D01*
X150530000Y-111450000D02*
X150530000Y-111180000D01*
X150530000Y-111180000D02*
X149430000Y-111180000D01*
D16*
G36*
X140511654Y-100228364D02*
X140512155Y-100243820D01*
X140511881Y-100256867D01*
X140510272Y-100269341D01*
X140506768Y-100283078D01*
X140500806Y-100299914D01*
X140491828Y-100321686D01*
X140479271Y-100350230D01*
X140464188Y-100383803D01*
X140449530Y-100415158D01*
X140437892Y-100437167D01*
X140428506Y-100451118D01*
X140420603Y-100458299D01*
X140419377Y-100458928D01*
X140412402Y-100461757D01*
X140403105Y-100464790D01*
X140390511Y-100468238D01*
X140373642Y-100472309D01*
X140351523Y-100477216D01*
X140323177Y-100483166D01*
X140287629Y-100490371D01*
X140243903Y-100499041D01*
X140191021Y-100509385D01*
X140128978Y-100521427D01*
X140081326Y-100530702D01*
X140036410Y-100539539D01*
X139995620Y-100547659D01*
X139960351Y-100554779D01*
X139931991Y-100560620D01*
X139911935Y-100564899D01*
X139901573Y-100567336D01*
X139901568Y-100567337D01*
X139880181Y-100573364D01*
X139881813Y-100823750D01*
X139882223Y-100875838D01*
X139882743Y-100924403D01*
X139883351Y-100968292D01*
X139884023Y-101006349D01*
X139884737Y-101037420D01*
X139885471Y-101060352D01*
X139886204Y-101073988D01*
X139886722Y-101077409D01*
X139893265Y-101079778D01*
X139910013Y-101083939D01*
X139937099Y-101089919D01*
X139974655Y-101097746D01*
X140022813Y-101107447D01*
X140081705Y-101119048D01*
X140151464Y-101132577D01*
X140221447Y-101146003D01*
X140263683Y-101154247D01*
X140302957Y-101162245D01*
X140337712Y-101169652D01*
X140366391Y-101176127D01*
X140387435Y-101181326D01*
X140399288Y-101184905D01*
X140400537Y-101185457D01*
X140408225Y-101191212D01*
X140416664Y-101201373D01*
X140426316Y-101216868D01*
X140437642Y-101238625D01*
X140451104Y-101267572D01*
X140467165Y-101304638D01*
X140486287Y-101350751D01*
X140501508Y-101388334D01*
X140525614Y-101448699D01*
X140545500Y-101499491D01*
X140561444Y-101541491D01*
X140573721Y-101575480D01*
X140582606Y-101602239D01*
X140588377Y-101622550D01*
X140591308Y-101637196D01*
X140591822Y-101644034D01*
X140590829Y-101653875D01*
X140587489Y-101665641D01*
X140581261Y-101680253D01*
X140571603Y-101698635D01*
X140557975Y-101721709D01*
X140539834Y-101750398D01*
X140516641Y-101785624D01*
X140487853Y-101828311D01*
X140458729Y-101870934D01*
X140434319Y-101906533D01*
X140409746Y-101942406D01*
X140386470Y-101976422D01*
X140365949Y-102006447D01*
X140349640Y-102030352D01*
X140343587Y-102039245D01*
X140307833Y-102091845D01*
X140349595Y-102135200D01*
X140386908Y-102173766D01*
X140425372Y-102213209D01*
X140463865Y-102252404D01*
X140501263Y-102290222D01*
X140536444Y-102325538D01*
X140568285Y-102357223D01*
X140595663Y-102384151D01*
X140617456Y-102405194D01*
X140632498Y-102419189D01*
X140670352Y-102453037D01*
X140858276Y-102326414D01*
X140914460Y-102288679D01*
X140961958Y-102257059D01*
X141001332Y-102231196D01*
X141033148Y-102210734D01*
X141057969Y-102195318D01*
X141076359Y-102184590D01*
X141088882Y-102178195D01*
X141096102Y-102175775D01*
X141096775Y-102175734D01*
X141098720Y-102180670D01*
X141099369Y-102192694D01*
X141099342Y-102194078D01*
X141098858Y-102199236D01*
X141097072Y-102204312D01*
X141093054Y-102210029D01*
X141085874Y-102217112D01*
X141074601Y-102226287D01*
X141058305Y-102238277D01*
X141036056Y-102253806D01*
X141006924Y-102273600D01*
X140969978Y-102298383D01*
X140938100Y-102319667D01*
X140878762Y-102359217D01*
X140828166Y-102392858D01*
X140785693Y-102420991D01*
X140750724Y-102444018D01*
X140722642Y-102462341D01*
X140700828Y-102476360D01*
X140684662Y-102486477D01*
X140673527Y-102493095D01*
X140666803Y-102496613D01*
X140664128Y-102497467D01*
X140658709Y-102493759D01*
X140646500Y-102483442D01*
X140628857Y-102467722D01*
X140607136Y-102447809D01*
X140582690Y-102424909D01*
X140581830Y-102424096D01*
X140557859Y-102401053D01*
X140530246Y-102373927D01*
X140499964Y-102343726D01*
X140467987Y-102311461D01*
X140435288Y-102278141D01*
X140402839Y-102244774D01*
X140371614Y-102212372D01*
X140342586Y-102181943D01*
X140316728Y-102154497D01*
X140295012Y-102131044D01*
X140278413Y-102112592D01*
X140267903Y-102100152D01*
X140264445Y-102094823D01*
X140267493Y-102088562D01*
X140276034Y-102074407D01*
X140289168Y-102053764D01*
X140305989Y-102028041D01*
X140325597Y-101998644D01*
X140336411Y-101982644D01*
X140381821Y-101915664D01*
X140421154Y-101857455D01*
X140454748Y-101807499D01*
X140482942Y-101765279D01*
X140506075Y-101730278D01*
X140524484Y-101701977D01*
X140538509Y-101679858D01*
X140548487Y-101663405D01*
X140554758Y-101652099D01*
X140557659Y-101645424D01*
X140557956Y-101643792D01*
X140555830Y-101634124D01*
X140549847Y-101615547D01*
X140540595Y-101589527D01*
X140528666Y-101557530D01*
X140514649Y-101521024D01*
X140499135Y-101481474D01*
X140482713Y-101440347D01*
X140465973Y-101399109D01*
X140449506Y-101359227D01*
X140433902Y-101322167D01*
X140419750Y-101289396D01*
X140407641Y-101262380D01*
X140398164Y-101242585D01*
X140392241Y-101231956D01*
X140390032Y-101228270D01*
X140388297Y-101225139D01*
X140386226Y-101222370D01*
X140383013Y-101219770D01*
X140377850Y-101217148D01*
X140369928Y-101214310D01*
X140358441Y-101211064D01*
X140342580Y-101207217D01*
X140321538Y-101202577D01*
X140294507Y-101196951D01*
X140260680Y-101190147D01*
X140219248Y-101181972D01*
X140169404Y-101172233D01*
X140110340Y-101160737D01*
X140041248Y-101147293D01*
X140018911Y-101142942D01*
X139977434Y-101134634D01*
X139939894Y-101126681D01*
X139907736Y-101119421D01*
X139882402Y-101113191D01*
X139865333Y-101108330D01*
X139858045Y-101105248D01*
X139855872Y-101097702D01*
X139853904Y-101080251D01*
X139852150Y-101054242D01*
X139850618Y-101021020D01*
X139849317Y-100981931D01*
X139848257Y-100938321D01*
X139847445Y-100891536D01*
X139846890Y-100842921D01*
X139846603Y-100793821D01*
X139846590Y-100745584D01*
X139846862Y-100699554D01*
X139847427Y-100657077D01*
X139848294Y-100619499D01*
X139849471Y-100588166D01*
X139850968Y-100564423D01*
X139852793Y-100549617D01*
X139854370Y-100545196D01*
X139862701Y-100541851D01*
X139881506Y-100536689D01*
X139910140Y-100529846D01*
X139947957Y-100521463D01*
X139994314Y-100511676D01*
X140048565Y-100500625D01*
X140110067Y-100488447D01*
X140178173Y-100475282D01*
X140196711Y-100471747D01*
X140233165Y-100464704D01*
X140270815Y-100457242D01*
X140306082Y-100450081D01*
X140335382Y-100443944D01*
X140345327Y-100441784D01*
X140400810Y-100429533D01*
X140419142Y-100392467D01*
X140427937Y-100373983D01*
X140439829Y-100348011D01*
X140453509Y-100317459D01*
X140467668Y-100285232D01*
X140473726Y-100271239D01*
X140509978Y-100187077D01*
X140511654Y-100228364D01*
X140511654Y-100228364D01*
G37*
X140511654Y-100228364D02*
X140512155Y-100243820D01*
X140511881Y-100256867D01*
X140510272Y-100269341D01*
X140506768Y-100283078D01*
X140500806Y-100299914D01*
X140491828Y-100321686D01*
X140479271Y-100350230D01*
X140464188Y-100383803D01*
X140449530Y-100415158D01*
X140437892Y-100437167D01*
X140428506Y-100451118D01*
X140420603Y-100458299D01*
X140419377Y-100458928D01*
X140412402Y-100461757D01*
X140403105Y-100464790D01*
X140390511Y-100468238D01*
X140373642Y-100472309D01*
X140351523Y-100477216D01*
X140323177Y-100483166D01*
X140287629Y-100490371D01*
X140243903Y-100499041D01*
X140191021Y-100509385D01*
X140128978Y-100521427D01*
X140081326Y-100530702D01*
X140036410Y-100539539D01*
X139995620Y-100547659D01*
X139960351Y-100554779D01*
X139931991Y-100560620D01*
X139911935Y-100564899D01*
X139901573Y-100567336D01*
X139901568Y-100567337D01*
X139880181Y-100573364D01*
X139881813Y-100823750D01*
X139882223Y-100875838D01*
X139882743Y-100924403D01*
X139883351Y-100968292D01*
X139884023Y-101006349D01*
X139884737Y-101037420D01*
X139885471Y-101060352D01*
X139886204Y-101073988D01*
X139886722Y-101077409D01*
X139893265Y-101079778D01*
X139910013Y-101083939D01*
X139937099Y-101089919D01*
X139974655Y-101097746D01*
X140022813Y-101107447D01*
X140081705Y-101119048D01*
X140151464Y-101132577D01*
X140221447Y-101146003D01*
X140263683Y-101154247D01*
X140302957Y-101162245D01*
X140337712Y-101169652D01*
X140366391Y-101176127D01*
X140387435Y-101181326D01*
X140399288Y-101184905D01*
X140400537Y-101185457D01*
X140408225Y-101191212D01*
X140416664Y-101201373D01*
X140426316Y-101216868D01*
X140437642Y-101238625D01*
X140451104Y-101267572D01*
X140467165Y-101304638D01*
X140486287Y-101350751D01*
X140501508Y-101388334D01*
X140525614Y-101448699D01*
X140545500Y-101499491D01*
X140561444Y-101541491D01*
X140573721Y-101575480D01*
X140582606Y-101602239D01*
X140588377Y-101622550D01*
X140591308Y-101637196D01*
X140591822Y-101644034D01*
X140590829Y-101653875D01*
X140587489Y-101665641D01*
X140581261Y-101680253D01*
X140571603Y-101698635D01*
X140557975Y-101721709D01*
X140539834Y-101750398D01*
X140516641Y-101785624D01*
X140487853Y-101828311D01*
X140458729Y-101870934D01*
X140434319Y-101906533D01*
X140409746Y-101942406D01*
X140386470Y-101976422D01*
X140365949Y-102006447D01*
X140349640Y-102030352D01*
X140343587Y-102039245D01*
X140307833Y-102091845D01*
X140349595Y-102135200D01*
X140386908Y-102173766D01*
X140425372Y-102213209D01*
X140463865Y-102252404D01*
X140501263Y-102290222D01*
X140536444Y-102325538D01*
X140568285Y-102357223D01*
X140595663Y-102384151D01*
X140617456Y-102405194D01*
X140632498Y-102419189D01*
X140670352Y-102453037D01*
X140858276Y-102326414D01*
X140914460Y-102288679D01*
X140961958Y-102257059D01*
X141001332Y-102231196D01*
X141033148Y-102210734D01*
X141057969Y-102195318D01*
X141076359Y-102184590D01*
X141088882Y-102178195D01*
X141096102Y-102175775D01*
X141096775Y-102175734D01*
X141098720Y-102180670D01*
X141099369Y-102192694D01*
X141099342Y-102194078D01*
X141098858Y-102199236D01*
X141097072Y-102204312D01*
X141093054Y-102210029D01*
X141085874Y-102217112D01*
X141074601Y-102226287D01*
X141058305Y-102238277D01*
X141036056Y-102253806D01*
X141006924Y-102273600D01*
X140969978Y-102298383D01*
X140938100Y-102319667D01*
X140878762Y-102359217D01*
X140828166Y-102392858D01*
X140785693Y-102420991D01*
X140750724Y-102444018D01*
X140722642Y-102462341D01*
X140700828Y-102476360D01*
X140684662Y-102486477D01*
X140673527Y-102493095D01*
X140666803Y-102496613D01*
X140664128Y-102497467D01*
X140658709Y-102493759D01*
X140646500Y-102483442D01*
X140628857Y-102467722D01*
X140607136Y-102447809D01*
X140582690Y-102424909D01*
X140581830Y-102424096D01*
X140557859Y-102401053D01*
X140530246Y-102373927D01*
X140499964Y-102343726D01*
X140467987Y-102311461D01*
X140435288Y-102278141D01*
X140402839Y-102244774D01*
X140371614Y-102212372D01*
X140342586Y-102181943D01*
X140316728Y-102154497D01*
X140295012Y-102131044D01*
X140278413Y-102112592D01*
X140267903Y-102100152D01*
X140264445Y-102094823D01*
X140267493Y-102088562D01*
X140276034Y-102074407D01*
X140289168Y-102053764D01*
X140305989Y-102028041D01*
X140325597Y-101998644D01*
X140336411Y-101982644D01*
X140381821Y-101915664D01*
X140421154Y-101857455D01*
X140454748Y-101807499D01*
X140482942Y-101765279D01*
X140506075Y-101730278D01*
X140524484Y-101701977D01*
X140538509Y-101679858D01*
X140548487Y-101663405D01*
X140554758Y-101652099D01*
X140557659Y-101645424D01*
X140557956Y-101643792D01*
X140555830Y-101634124D01*
X140549847Y-101615547D01*
X140540595Y-101589527D01*
X140528666Y-101557530D01*
X140514649Y-101521024D01*
X140499135Y-101481474D01*
X140482713Y-101440347D01*
X140465973Y-101399109D01*
X140449506Y-101359227D01*
X140433902Y-101322167D01*
X140419750Y-101289396D01*
X140407641Y-101262380D01*
X140398164Y-101242585D01*
X140392241Y-101231956D01*
X140390032Y-101228270D01*
X140388297Y-101225139D01*
X140386226Y-101222370D01*
X140383013Y-101219770D01*
X140377850Y-101217148D01*
X140369928Y-101214310D01*
X140358441Y-101211064D01*
X140342580Y-101207217D01*
X140321538Y-101202577D01*
X140294507Y-101196951D01*
X140260680Y-101190147D01*
X140219248Y-101181972D01*
X140169404Y-101172233D01*
X140110340Y-101160737D01*
X140041248Y-101147293D01*
X140018911Y-101142942D01*
X139977434Y-101134634D01*
X139939894Y-101126681D01*
X139907736Y-101119421D01*
X139882402Y-101113191D01*
X139865333Y-101108330D01*
X139858045Y-101105248D01*
X139855872Y-101097702D01*
X139853904Y-101080251D01*
X139852150Y-101054242D01*
X139850618Y-101021020D01*
X139849317Y-100981931D01*
X139848257Y-100938321D01*
X139847445Y-100891536D01*
X139846890Y-100842921D01*
X139846603Y-100793821D01*
X139846590Y-100745584D01*
X139846862Y-100699554D01*
X139847427Y-100657077D01*
X139848294Y-100619499D01*
X139849471Y-100588166D01*
X139850968Y-100564423D01*
X139852793Y-100549617D01*
X139854370Y-100545196D01*
X139862701Y-100541851D01*
X139881506Y-100536689D01*
X139910140Y-100529846D01*
X139947957Y-100521463D01*
X139994314Y-100511676D01*
X140048565Y-100500625D01*
X140110067Y-100488447D01*
X140178173Y-100475282D01*
X140196711Y-100471747D01*
X140233165Y-100464704D01*
X140270815Y-100457242D01*
X140306082Y-100450081D01*
X140335382Y-100443944D01*
X140345327Y-100441784D01*
X140400810Y-100429533D01*
X140419142Y-100392467D01*
X140427937Y-100373983D01*
X140439829Y-100348011D01*
X140453509Y-100317459D01*
X140467668Y-100285232D01*
X140473726Y-100271239D01*
X140509978Y-100187077D01*
X140511654Y-100228364D01*
G36*
X143393488Y-100256622D02*
X143413908Y-100303426D01*
X143430503Y-100340900D01*
X143443830Y-100370117D01*
X143454446Y-100392151D01*
X143462908Y-100408077D01*
X143469772Y-100418968D01*
X143475596Y-100425897D01*
X143480936Y-100429939D01*
X143484130Y-100431421D01*
X143493083Y-100433814D01*
X143511663Y-100438013D01*
X143538408Y-100443713D01*
X143571856Y-100450612D01*
X143610543Y-100458406D01*
X143653008Y-100466790D01*
X143674997Y-100471070D01*
X143746565Y-100484997D01*
X143807783Y-100497068D01*
X143859404Y-100507453D01*
X143902182Y-100516325D01*
X143936873Y-100523853D01*
X143964231Y-100530210D01*
X143985010Y-100535566D01*
X143999965Y-100540093D01*
X144009850Y-100543961D01*
X144015419Y-100547342D01*
X144016589Y-100548573D01*
X144018350Y-100553558D01*
X144019817Y-100563956D01*
X144021012Y-100580554D01*
X144021956Y-100604138D01*
X144022668Y-100635495D01*
X144023171Y-100675411D01*
X144023484Y-100724671D01*
X144023629Y-100784062D01*
X144023645Y-100815796D01*
X144023569Y-100869303D01*
X144023352Y-100919824D01*
X144023010Y-100966136D01*
X144022559Y-101007017D01*
X144022013Y-101041246D01*
X144021389Y-101067599D01*
X144020702Y-101084856D01*
X144020123Y-101091265D01*
X144018853Y-101097274D01*
X144016905Y-101102179D01*
X144013056Y-101106366D01*
X144006082Y-101110223D01*
X143994761Y-101114137D01*
X143977871Y-101118494D01*
X143954187Y-101123682D01*
X143922488Y-101130087D01*
X143881550Y-101138097D01*
X143857134Y-101142845D01*
X143780019Y-101157898D01*
X143713472Y-101171015D01*
X143656961Y-101182308D01*
X143609952Y-101191887D01*
X143571913Y-101199866D01*
X143542310Y-101206354D01*
X143520610Y-101211465D01*
X143506280Y-101215310D01*
X143499039Y-101217877D01*
X143492918Y-101221882D01*
X143486535Y-101228684D01*
X143479382Y-101239320D01*
X143470948Y-101254824D01*
X143460726Y-101276232D01*
X143448207Y-101304579D01*
X143432881Y-101340902D01*
X143414241Y-101386236D01*
X143404206Y-101410911D01*
X143379002Y-101473578D01*
X143358305Y-101526234D01*
X143342010Y-101569169D01*
X143330009Y-101602675D01*
X143322196Y-101627043D01*
X143318465Y-101642565D01*
X143318089Y-101646642D01*
X143321157Y-101653710D01*
X143329941Y-101669127D01*
X143343814Y-101691904D01*
X143362148Y-101721052D01*
X143384315Y-101755583D01*
X143409686Y-101794507D01*
X143437635Y-101836836D01*
X143463215Y-101875151D01*
X143497177Y-101925801D01*
X143525338Y-101967934D01*
X143548201Y-102002398D01*
X143566270Y-102030041D01*
X143580048Y-102051712D01*
X143590040Y-102068257D01*
X143596747Y-102080524D01*
X143600675Y-102089361D01*
X143602326Y-102095617D01*
X143602204Y-102100138D01*
X143600813Y-102103772D01*
X143599922Y-102105320D01*
X143592204Y-102115494D01*
X143577792Y-102132019D01*
X143557641Y-102153945D01*
X143532705Y-102180318D01*
X143503939Y-102210187D01*
X143472297Y-102242599D01*
X143438732Y-102276604D01*
X143404201Y-102311248D01*
X143369656Y-102345580D01*
X143336053Y-102378648D01*
X143304344Y-102409500D01*
X143275486Y-102437184D01*
X143250432Y-102460748D01*
X143230137Y-102479240D01*
X143215554Y-102491707D01*
X143207639Y-102497199D01*
X143206896Y-102497377D01*
X143201377Y-102494308D01*
X143187521Y-102485585D01*
X143166344Y-102471877D01*
X143138863Y-102453851D01*
X143106094Y-102432176D01*
X143069053Y-102407518D01*
X143028756Y-102380546D01*
X143013289Y-102370156D01*
X142970821Y-102341673D01*
X142930190Y-102314552D01*
X142892595Y-102289585D01*
X142859239Y-102267566D01*
X142831323Y-102249286D01*
X142810048Y-102235537D01*
X142796615Y-102227112D01*
X142794567Y-102225898D01*
X142777590Y-102215240D01*
X142768577Y-102206632D01*
X142765217Y-102197450D01*
X142764934Y-102192253D01*
X142765299Y-102185065D01*
X142766874Y-102179832D01*
X142770374Y-102176940D01*
X142776515Y-102176775D01*
X142786014Y-102179725D01*
X142799585Y-102186176D01*
X142817947Y-102196515D01*
X142841813Y-102211129D01*
X142871902Y-102230404D01*
X142908928Y-102254728D01*
X142953608Y-102284487D01*
X143006659Y-102320068D01*
X143027400Y-102334011D01*
X143064307Y-102358814D01*
X143098821Y-102381978D01*
X143129658Y-102402646D01*
X143155533Y-102419955D01*
X143175162Y-102433047D01*
X143187260Y-102441062D01*
X143189816Y-102442726D01*
X143205477Y-102452753D01*
X143349866Y-102310010D01*
X143384913Y-102275231D01*
X143418870Y-102241285D01*
X143450531Y-102209398D01*
X143478687Y-102180796D01*
X143502130Y-102156704D01*
X143519653Y-102138348D01*
X143528354Y-102128890D01*
X143562453Y-102090513D01*
X143423312Y-101883357D01*
X143388493Y-101831730D01*
X143359334Y-101788494D01*
X143335504Y-101752471D01*
X143316675Y-101722480D01*
X143302517Y-101697344D01*
X143292701Y-101675884D01*
X143286897Y-101656921D01*
X143284775Y-101639276D01*
X143286008Y-101621770D01*
X143290264Y-101603226D01*
X143297215Y-101582463D01*
X143306531Y-101558304D01*
X143317883Y-101529570D01*
X143321695Y-101519729D01*
X143340081Y-101472421D01*
X143359114Y-101424433D01*
X143378094Y-101377455D01*
X143396321Y-101333176D01*
X143413094Y-101293286D01*
X143427715Y-101259474D01*
X143439482Y-101233430D01*
X143445258Y-101221489D01*
X143455450Y-101204718D01*
X143466197Y-101192094D01*
X143472104Y-101187874D01*
X143485106Y-101183499D01*
X143506176Y-101177626D01*
X143532318Y-101170993D01*
X143560535Y-101164340D01*
X143587831Y-101158405D01*
X143605956Y-101154859D01*
X143641142Y-101148337D01*
X143680584Y-101140858D01*
X143722755Y-101132726D01*
X143766127Y-101124248D01*
X143809174Y-101115730D01*
X143850370Y-101107478D01*
X143888186Y-101099798D01*
X143921097Y-101092996D01*
X143947575Y-101087377D01*
X143966094Y-101083248D01*
X143975127Y-101080914D01*
X143975301Y-101080850D01*
X143989778Y-101075346D01*
X143989778Y-100573242D01*
X143968611Y-100567344D01*
X143958142Y-100564726D01*
X143941257Y-100560949D01*
X143917348Y-100555891D01*
X143885809Y-100549430D01*
X143846032Y-100541443D01*
X143797410Y-100531809D01*
X143739336Y-100520404D01*
X143671201Y-100507108D01*
X143617245Y-100496618D01*
X143578893Y-100489072D01*
X143543299Y-100481882D01*
X143512277Y-100475428D01*
X143487641Y-100470092D01*
X143471205Y-100466256D01*
X143466067Y-100464843D01*
X143457203Y-100460181D01*
X143447968Y-100451244D01*
X143437723Y-100436940D01*
X143425826Y-100416176D01*
X143411636Y-100387859D01*
X143394511Y-100350896D01*
X143379727Y-100317686D01*
X143369098Y-100292549D01*
X143362543Y-100273354D01*
X143359114Y-100255935D01*
X143357863Y-100236124D01*
X143357764Y-100221091D01*
X143357928Y-100174778D01*
X143393488Y-100256622D01*
X143393488Y-100256622D01*
G37*
X143393488Y-100256622D02*
X143413908Y-100303426D01*
X143430503Y-100340900D01*
X143443830Y-100370117D01*
X143454446Y-100392151D01*
X143462908Y-100408077D01*
X143469772Y-100418968D01*
X143475596Y-100425897D01*
X143480936Y-100429939D01*
X143484130Y-100431421D01*
X143493083Y-100433814D01*
X143511663Y-100438013D01*
X143538408Y-100443713D01*
X143571856Y-100450612D01*
X143610543Y-100458406D01*
X143653008Y-100466790D01*
X143674997Y-100471070D01*
X143746565Y-100484997D01*
X143807783Y-100497068D01*
X143859404Y-100507453D01*
X143902182Y-100516325D01*
X143936873Y-100523853D01*
X143964231Y-100530210D01*
X143985010Y-100535566D01*
X143999965Y-100540093D01*
X144009850Y-100543961D01*
X144015419Y-100547342D01*
X144016589Y-100548573D01*
X144018350Y-100553558D01*
X144019817Y-100563956D01*
X144021012Y-100580554D01*
X144021956Y-100604138D01*
X144022668Y-100635495D01*
X144023171Y-100675411D01*
X144023484Y-100724671D01*
X144023629Y-100784062D01*
X144023645Y-100815796D01*
X144023569Y-100869303D01*
X144023352Y-100919824D01*
X144023010Y-100966136D01*
X144022559Y-101007017D01*
X144022013Y-101041246D01*
X144021389Y-101067599D01*
X144020702Y-101084856D01*
X144020123Y-101091265D01*
X144018853Y-101097274D01*
X144016905Y-101102179D01*
X144013056Y-101106366D01*
X144006082Y-101110223D01*
X143994761Y-101114137D01*
X143977871Y-101118494D01*
X143954187Y-101123682D01*
X143922488Y-101130087D01*
X143881550Y-101138097D01*
X143857134Y-101142845D01*
X143780019Y-101157898D01*
X143713472Y-101171015D01*
X143656961Y-101182308D01*
X143609952Y-101191887D01*
X143571913Y-101199866D01*
X143542310Y-101206354D01*
X143520610Y-101211465D01*
X143506280Y-101215310D01*
X143499039Y-101217877D01*
X143492918Y-101221882D01*
X143486535Y-101228684D01*
X143479382Y-101239320D01*
X143470948Y-101254824D01*
X143460726Y-101276232D01*
X143448207Y-101304579D01*
X143432881Y-101340902D01*
X143414241Y-101386236D01*
X143404206Y-101410911D01*
X143379002Y-101473578D01*
X143358305Y-101526234D01*
X143342010Y-101569169D01*
X143330009Y-101602675D01*
X143322196Y-101627043D01*
X143318465Y-101642565D01*
X143318089Y-101646642D01*
X143321157Y-101653710D01*
X143329941Y-101669127D01*
X143343814Y-101691904D01*
X143362148Y-101721052D01*
X143384315Y-101755583D01*
X143409686Y-101794507D01*
X143437635Y-101836836D01*
X143463215Y-101875151D01*
X143497177Y-101925801D01*
X143525338Y-101967934D01*
X143548201Y-102002398D01*
X143566270Y-102030041D01*
X143580048Y-102051712D01*
X143590040Y-102068257D01*
X143596747Y-102080524D01*
X143600675Y-102089361D01*
X143602326Y-102095617D01*
X143602204Y-102100138D01*
X143600813Y-102103772D01*
X143599922Y-102105320D01*
X143592204Y-102115494D01*
X143577792Y-102132019D01*
X143557641Y-102153945D01*
X143532705Y-102180318D01*
X143503939Y-102210187D01*
X143472297Y-102242599D01*
X143438732Y-102276604D01*
X143404201Y-102311248D01*
X143369656Y-102345580D01*
X143336053Y-102378648D01*
X143304344Y-102409500D01*
X143275486Y-102437184D01*
X143250432Y-102460748D01*
X143230137Y-102479240D01*
X143215554Y-102491707D01*
X143207639Y-102497199D01*
X143206896Y-102497377D01*
X143201377Y-102494308D01*
X143187521Y-102485585D01*
X143166344Y-102471877D01*
X143138863Y-102453851D01*
X143106094Y-102432176D01*
X143069053Y-102407518D01*
X143028756Y-102380546D01*
X143013289Y-102370156D01*
X142970821Y-102341673D01*
X142930190Y-102314552D01*
X142892595Y-102289585D01*
X142859239Y-102267566D01*
X142831323Y-102249286D01*
X142810048Y-102235537D01*
X142796615Y-102227112D01*
X142794567Y-102225898D01*
X142777590Y-102215240D01*
X142768577Y-102206632D01*
X142765217Y-102197450D01*
X142764934Y-102192253D01*
X142765299Y-102185065D01*
X142766874Y-102179832D01*
X142770374Y-102176940D01*
X142776515Y-102176775D01*
X142786014Y-102179725D01*
X142799585Y-102186176D01*
X142817947Y-102196515D01*
X142841813Y-102211129D01*
X142871902Y-102230404D01*
X142908928Y-102254728D01*
X142953608Y-102284487D01*
X143006659Y-102320068D01*
X143027400Y-102334011D01*
X143064307Y-102358814D01*
X143098821Y-102381978D01*
X143129658Y-102402646D01*
X143155533Y-102419955D01*
X143175162Y-102433047D01*
X143187260Y-102441062D01*
X143189816Y-102442726D01*
X143205477Y-102452753D01*
X143349866Y-102310010D01*
X143384913Y-102275231D01*
X143418870Y-102241285D01*
X143450531Y-102209398D01*
X143478687Y-102180796D01*
X143502130Y-102156704D01*
X143519653Y-102138348D01*
X143528354Y-102128890D01*
X143562453Y-102090513D01*
X143423312Y-101883357D01*
X143388493Y-101831730D01*
X143359334Y-101788494D01*
X143335504Y-101752471D01*
X143316675Y-101722480D01*
X143302517Y-101697344D01*
X143292701Y-101675884D01*
X143286897Y-101656921D01*
X143284775Y-101639276D01*
X143286008Y-101621770D01*
X143290264Y-101603226D01*
X143297215Y-101582463D01*
X143306531Y-101558304D01*
X143317883Y-101529570D01*
X143321695Y-101519729D01*
X143340081Y-101472421D01*
X143359114Y-101424433D01*
X143378094Y-101377455D01*
X143396321Y-101333176D01*
X143413094Y-101293286D01*
X143427715Y-101259474D01*
X143439482Y-101233430D01*
X143445258Y-101221489D01*
X143455450Y-101204718D01*
X143466197Y-101192094D01*
X143472104Y-101187874D01*
X143485106Y-101183499D01*
X143506176Y-101177626D01*
X143532318Y-101170993D01*
X143560535Y-101164340D01*
X143587831Y-101158405D01*
X143605956Y-101154859D01*
X143641142Y-101148337D01*
X143680584Y-101140858D01*
X143722755Y-101132726D01*
X143766127Y-101124248D01*
X143809174Y-101115730D01*
X143850370Y-101107478D01*
X143888186Y-101099798D01*
X143921097Y-101092996D01*
X143947575Y-101087377D01*
X143966094Y-101083248D01*
X143975127Y-101080914D01*
X143975301Y-101080850D01*
X143989778Y-101075346D01*
X143989778Y-100573242D01*
X143968611Y-100567344D01*
X143958142Y-100564726D01*
X143941257Y-100560949D01*
X143917348Y-100555891D01*
X143885809Y-100549430D01*
X143846032Y-100541443D01*
X143797410Y-100531809D01*
X143739336Y-100520404D01*
X143671201Y-100507108D01*
X143617245Y-100496618D01*
X143578893Y-100489072D01*
X143543299Y-100481882D01*
X143512277Y-100475428D01*
X143487641Y-100470092D01*
X143471205Y-100466256D01*
X143466067Y-100464843D01*
X143457203Y-100460181D01*
X143447968Y-100451244D01*
X143437723Y-100436940D01*
X143425826Y-100416176D01*
X143411636Y-100387859D01*
X143394511Y-100350896D01*
X143379727Y-100317686D01*
X143369098Y-100292549D01*
X143362543Y-100273354D01*
X143359114Y-100255935D01*
X143357863Y-100236124D01*
X143357764Y-100221091D01*
X143357928Y-100174778D01*
X143393488Y-100256622D01*
G36*
X142671301Y-96250857D02*
X142683737Y-96254015D01*
X142699545Y-96260076D01*
X142720809Y-96269744D01*
X142749611Y-96283727D01*
X142756467Y-96287107D01*
X142789758Y-96303297D01*
X142829413Y-96322199D01*
X142871477Y-96341949D01*
X142911993Y-96360683D01*
X142931445Y-96369544D01*
X142980314Y-96391914D01*
X143019912Y-96410687D01*
X143051414Y-96426535D01*
X143076000Y-96440131D01*
X143094847Y-96452148D01*
X143109133Y-96463256D01*
X143120036Y-96474129D01*
X143124718Y-96479859D01*
X143143306Y-96511682D01*
X143157296Y-96551231D01*
X143165859Y-96595589D01*
X143168247Y-96632889D01*
X143167956Y-96657770D01*
X143166334Y-96674662D01*
X143162748Y-96686842D01*
X143156567Y-96697590D01*
X143155487Y-96699126D01*
X143140669Y-96713513D01*
X143116706Y-96729149D01*
X143085535Y-96745125D01*
X143049093Y-96760533D01*
X143009316Y-96774465D01*
X142972524Y-96784926D01*
X142879003Y-96813622D01*
X142787302Y-96851743D01*
X142700027Y-96898053D01*
X142619780Y-96951315D01*
X142615736Y-96954336D01*
X142567714Y-96993769D01*
X142518319Y-97040361D01*
X142469859Y-97091554D01*
X142424637Y-97144794D01*
X142384961Y-97197522D01*
X142355862Y-97242489D01*
X142337385Y-97275292D01*
X142317468Y-97313039D01*
X142297036Y-97353744D01*
X142277012Y-97395422D01*
X142258318Y-97436090D01*
X142241880Y-97473762D01*
X142228620Y-97506453D01*
X142219461Y-97532179D01*
X142216839Y-97541286D01*
X142210702Y-97571732D01*
X142207736Y-97600409D01*
X142207979Y-97624832D01*
X142211464Y-97642510D01*
X142215328Y-97649052D01*
X142222316Y-97652130D01*
X142238292Y-97657306D01*
X142261280Y-97663995D01*
X142289302Y-97671613D01*
X142308516Y-97676592D01*
X142428023Y-97710361D01*
X142538123Y-97748697D01*
X142639991Y-97792232D01*
X142734800Y-97841599D01*
X142823725Y-97897429D01*
X142907939Y-97960356D01*
X142988618Y-98031012D01*
X143016391Y-98057836D01*
X143097142Y-98145655D01*
X143169804Y-98241248D01*
X143234270Y-98344402D01*
X143290430Y-98454905D01*
X143338176Y-98572545D01*
X143377398Y-98697109D01*
X143405737Y-98817026D01*
X143410694Y-98842319D01*
X143414377Y-98863676D01*
X143416933Y-98883423D01*
X143418511Y-98903887D01*
X143419256Y-98927393D01*
X143419318Y-98956267D01*
X143418844Y-98992836D01*
X143418414Y-99016759D01*
X143417559Y-99058216D01*
X143416618Y-99090338D01*
X143415392Y-99115078D01*
X143413682Y-99134389D01*
X143411289Y-99150225D01*
X143408013Y-99164539D01*
X143403655Y-99179285D01*
X143401004Y-99187443D01*
X143378069Y-99242143D01*
X143348238Y-99289024D01*
X143312104Y-99327453D01*
X143270257Y-99356798D01*
X143224026Y-99376209D01*
X143200518Y-99383232D01*
X143212725Y-99406472D01*
X143216440Y-99414069D01*
X143219314Y-99421980D01*
X143221456Y-99431697D01*
X143222971Y-99444713D01*
X143223968Y-99462523D01*
X143224553Y-99486621D01*
X143224834Y-99518498D01*
X143224917Y-99559650D01*
X143224919Y-99576467D01*
X143224759Y-99619977D01*
X143224307Y-99672127D01*
X143223592Y-99731514D01*
X143222644Y-99796729D01*
X143221494Y-99866369D01*
X143220170Y-99939026D01*
X143218704Y-100013296D01*
X143217126Y-100087773D01*
X143215464Y-100161050D01*
X143213750Y-100231721D01*
X143212013Y-100298383D01*
X143210283Y-100359627D01*
X143208590Y-100414049D01*
X143206965Y-100460243D01*
X143205436Y-100496803D01*
X143205178Y-100502156D01*
X143196091Y-100657814D01*
X143184702Y-100802811D01*
X143170946Y-100937550D01*
X143154762Y-101062432D01*
X143136086Y-101177861D01*
X143114855Y-101284240D01*
X143091005Y-101381972D01*
X143064474Y-101471459D01*
X143043895Y-101530422D01*
X143018426Y-101594826D01*
X142992904Y-101650771D01*
X142965786Y-101700988D01*
X142935532Y-101748209D01*
X142900597Y-101795163D01*
X142880276Y-101820134D01*
X142806409Y-101903562D01*
X142733007Y-101976153D01*
X142659578Y-102038320D01*
X142585633Y-102090474D01*
X142510681Y-102133027D01*
X142502765Y-102136939D01*
X142466286Y-102151980D01*
X142435232Y-102158467D01*
X142407888Y-102156587D01*
X142387987Y-102149413D01*
X142382670Y-102146900D01*
X142377962Y-102144556D01*
X142373545Y-102141702D01*
X142369102Y-102137661D01*
X142364314Y-102131755D01*
X142358864Y-102123305D01*
X142352433Y-102111633D01*
X142344703Y-102096061D01*
X142335356Y-102075911D01*
X142324075Y-102050505D01*
X142310541Y-102019165D01*
X142294435Y-101981212D01*
X142275441Y-101935968D01*
X142253240Y-101882756D01*
X142227513Y-101820897D01*
X142197944Y-101749713D01*
X142177957Y-101701600D01*
X142163949Y-101667720D01*
X142147783Y-101628366D01*
X142131510Y-101588541D01*
X142117825Y-101554845D01*
X142105027Y-101523476D01*
X142091974Y-101491955D01*
X142080069Y-101463640D01*
X142070715Y-101441889D01*
X142069500Y-101439134D01*
X142047283Y-101386361D01*
X142031556Y-101341670D01*
X142022591Y-101303716D01*
X142020661Y-101271157D01*
X142026040Y-101242652D01*
X142039000Y-101216856D01*
X142059813Y-101192429D01*
X142088753Y-101168027D01*
X142126093Y-101142309D01*
X142130374Y-101139565D01*
X142160337Y-101119601D01*
X142183378Y-101101847D01*
X142202711Y-101083543D01*
X142221549Y-101061926D01*
X142223419Y-101059614D01*
X142263260Y-101003159D01*
X142292222Y-100945994D01*
X142310711Y-100887051D01*
X142319129Y-100825263D01*
X142319757Y-100805384D01*
X142314725Y-100744249D01*
X142298975Y-100684533D01*
X142273074Y-100627350D01*
X142237589Y-100573811D01*
X142193086Y-100525028D01*
X142164083Y-100499920D01*
X142128194Y-100473400D01*
X142094556Y-100453492D01*
X142060575Y-100439371D01*
X142023654Y-100430209D01*
X141981199Y-100425180D01*
X141930615Y-100423457D01*
X141923911Y-100423434D01*
X141890718Y-100423674D01*
X141865910Y-100424689D01*
X141846593Y-100426808D01*
X141829874Y-100430364D01*
X141812856Y-100435685D01*
X141811022Y-100436329D01*
X141758439Y-100459745D01*
X141708057Y-100491334D01*
X141662077Y-100529249D01*
X141622701Y-100571648D01*
X141592131Y-100616684D01*
X141589122Y-100622249D01*
X141564533Y-100680170D01*
X141549629Y-100740692D01*
X141544218Y-100802329D01*
X141548110Y-100863598D01*
X141561116Y-100923013D01*
X141583046Y-100979091D01*
X141613710Y-101030347D01*
X141646276Y-101068789D01*
X141668377Y-101089337D01*
X141695569Y-101112089D01*
X141723327Y-101133332D01*
X141734822Y-101141428D01*
X141765769Y-101164350D01*
X141791638Y-101187206D01*
X141808065Y-101205424D01*
X141820494Y-101222892D01*
X141827579Y-101237423D01*
X141831120Y-101253995D01*
X141832697Y-101273607D01*
X141832829Y-101298418D01*
X141830935Y-101323221D01*
X141828209Y-101339052D01*
X141824096Y-101351916D01*
X141816128Y-101373661D01*
X141804911Y-101402799D01*
X141791055Y-101437842D01*
X141775167Y-101477302D01*
X141757855Y-101519691D01*
X141739728Y-101563522D01*
X141721394Y-101607306D01*
X141703460Y-101649555D01*
X141686536Y-101688783D01*
X141671228Y-101723500D01*
X141669659Y-101727000D01*
X141656749Y-101756515D01*
X141641184Y-101793281D01*
X141624330Y-101834004D01*
X141607553Y-101875385D01*
X141593880Y-101909877D01*
X141569392Y-101970857D01*
X141547632Y-102021535D01*
X141528307Y-102062485D01*
X141511124Y-102094283D01*
X141495790Y-102117503D01*
X141482011Y-102132720D01*
X141479153Y-102135056D01*
X141466687Y-102143390D01*
X141454197Y-102148026D01*
X141437651Y-102149992D01*
X141419173Y-102150334D01*
X141379222Y-102150334D01*
X141286048Y-102087380D01*
X141212549Y-102035550D01*
X141148180Y-101985207D01*
X141091227Y-101934685D01*
X141039981Y-101882320D01*
X140992729Y-101826444D01*
X140947762Y-101765393D01*
X140933203Y-101743934D01*
X140881980Y-101658838D01*
X140836537Y-101566861D01*
X140798318Y-101471341D01*
X140768769Y-101375615D01*
X140762151Y-101348822D01*
X140757160Y-101325416D01*
X140750854Y-101292811D01*
X140743562Y-101252975D01*
X140735614Y-101207877D01*
X140727340Y-101159486D01*
X140719070Y-101109772D01*
X140711133Y-101060703D01*
X140703859Y-101014248D01*
X140697578Y-100972376D01*
X140692620Y-100937055D01*
X140690765Y-100922667D01*
X140688367Y-100899319D01*
X140685752Y-100866942D01*
X140682987Y-100826987D01*
X140680137Y-100780907D01*
X140677267Y-100730150D01*
X140674444Y-100676170D01*
X140671733Y-100620416D01*
X140669199Y-100564340D01*
X140666909Y-100509393D01*
X140664927Y-100457026D01*
X140663319Y-100408690D01*
X140662151Y-100365836D01*
X140661489Y-100329915D01*
X140661398Y-100302379D01*
X140661932Y-100284845D01*
X140662641Y-100265424D01*
X140662796Y-100237003D01*
X140662430Y-100201857D01*
X140661574Y-100162258D01*
X140660259Y-100120482D01*
X140659282Y-100095756D01*
X140657674Y-100055627D01*
X140655886Y-100006750D01*
X140654001Y-99951660D01*
X140652102Y-99892894D01*
X140650272Y-99832989D01*
X140648593Y-99774481D01*
X140647594Y-99737334D01*
X140646512Y-99697167D01*
X140824648Y-99697167D01*
X140825347Y-99754651D01*
X140826823Y-99821623D01*
X140829078Y-99897787D01*
X140831579Y-99968756D01*
X140833539Y-100024327D01*
X140835323Y-100081370D01*
X140836882Y-100137750D01*
X140838163Y-100191329D01*
X140839116Y-100239973D01*
X140839689Y-100281544D01*
X140839834Y-100313067D01*
X140840091Y-100356719D01*
X140841025Y-100407281D01*
X140842549Y-100462929D01*
X140844580Y-100521840D01*
X140847033Y-100582190D01*
X140849823Y-100642156D01*
X140852866Y-100699914D01*
X140856075Y-100753641D01*
X140859368Y-100801512D01*
X140862659Y-100841705D01*
X140865798Y-100871867D01*
X140869931Y-100903007D01*
X140875563Y-100941748D01*
X140882363Y-100986111D01*
X140890000Y-101034117D01*
X140898143Y-101083787D01*
X140906460Y-101133144D01*
X140914622Y-101180206D01*
X140922295Y-101222996D01*
X140929150Y-101259536D01*
X140934855Y-101287845D01*
X140937109Y-101298022D01*
X140962393Y-101387008D01*
X140996260Y-101474933D01*
X141037718Y-101560099D01*
X141085772Y-101640806D01*
X141139429Y-101715357D01*
X141197698Y-101782053D01*
X141247710Y-101829252D01*
X141275341Y-101852303D01*
X141302859Y-101874123D01*
X141328815Y-101893679D01*
X141351760Y-101909941D01*
X141370247Y-101921877D01*
X141382826Y-101928457D01*
X141387847Y-101929013D01*
X141391059Y-101922559D01*
X141397592Y-101907289D01*
X141406738Y-101884936D01*
X141417788Y-101857228D01*
X141430035Y-101825897D01*
X141430081Y-101825778D01*
X141445406Y-101786935D01*
X141462580Y-101744616D01*
X141479970Y-101702774D01*
X141495942Y-101665359D01*
X141503586Y-101647978D01*
X141513165Y-101626200D01*
X141525230Y-101598292D01*
X141539166Y-101565723D01*
X141554357Y-101529962D01*
X141570187Y-101492478D01*
X141586041Y-101454742D01*
X141601304Y-101418223D01*
X141615361Y-101384390D01*
X141627595Y-101354714D01*
X141637391Y-101330662D01*
X141644135Y-101313706D01*
X141647210Y-101305314D01*
X141647334Y-101304740D01*
X141642972Y-101300818D01*
X141631350Y-101292312D01*
X141614662Y-101280808D01*
X141608019Y-101276359D01*
X141546115Y-101228543D01*
X141492156Y-101173019D01*
X141446755Y-101110661D01*
X141410526Y-101042345D01*
X141384081Y-100968943D01*
X141378975Y-100949509D01*
X141373652Y-100920020D01*
X141369670Y-100882686D01*
X141367154Y-100840883D01*
X141366232Y-100797989D01*
X141367029Y-100757382D01*
X141369672Y-100722438D01*
X141370300Y-100717409D01*
X141381119Y-100660105D01*
X141397640Y-100603427D01*
X141418471Y-100551919D01*
X141424989Y-100538845D01*
X141463777Y-100476465D01*
X141511787Y-100418662D01*
X141567418Y-100366813D01*
X141629067Y-100322297D01*
X141695131Y-100286490D01*
X141739359Y-100268651D01*
X141760490Y-100261400D01*
X141777821Y-100256094D01*
X141793843Y-100252383D01*
X141811049Y-100249913D01*
X141831928Y-100248333D01*
X141858972Y-100247292D01*
X141894674Y-100246436D01*
X141896979Y-100246387D01*
X141963486Y-100246233D01*
X142020847Y-100249120D01*
X142070894Y-100255454D01*
X142115459Y-100265645D01*
X142156373Y-100280101D01*
X142195470Y-100299229D01*
X142230542Y-100320728D01*
X142298248Y-100372135D01*
X142357161Y-100430207D01*
X142406935Y-100494488D01*
X142447220Y-100564519D01*
X142477670Y-100639842D01*
X142480932Y-100650143D01*
X142486358Y-100668502D01*
X142490303Y-100684459D01*
X142492992Y-100700348D01*
X142494647Y-100718500D01*
X142495491Y-100741249D01*
X142495748Y-100770927D01*
X142495669Y-100804134D01*
X142495282Y-100844257D01*
X142494401Y-100875460D01*
X142492831Y-100900109D01*
X142490376Y-100920570D01*
X142486839Y-100939206D01*
X142483279Y-100953711D01*
X142463557Y-101012438D01*
X142436030Y-101071010D01*
X142402136Y-101127372D01*
X142363315Y-101179473D01*
X142321009Y-101225258D01*
X142276656Y-101262673D01*
X142257688Y-101275445D01*
X142238311Y-101288167D01*
X142223529Y-101299191D01*
X142215342Y-101306951D01*
X142214392Y-101309311D01*
X142217543Y-101316936D01*
X142223908Y-101331906D01*
X142232206Y-101351211D01*
X142233613Y-101354467D01*
X142242242Y-101374791D01*
X142253676Y-101402239D01*
X142266527Y-101433454D01*
X142279407Y-101465078D01*
X142281469Y-101470178D01*
X142295103Y-101503775D01*
X142309783Y-101539683D01*
X142323789Y-101573709D01*
X142335402Y-101601659D01*
X142335889Y-101602822D01*
X142344966Y-101624553D01*
X142357384Y-101654377D01*
X142372173Y-101689955D01*
X142388359Y-101728948D01*
X142404970Y-101769017D01*
X142413283Y-101789089D01*
X142431320Y-101832600D01*
X142445571Y-101866783D01*
X142456539Y-101892756D01*
X142464729Y-101911632D01*
X142470644Y-101924528D01*
X142474789Y-101932557D01*
X142477666Y-101936837D01*
X142479781Y-101938481D01*
X142480866Y-101938667D01*
X142486625Y-101935592D01*
X142499390Y-101927312D01*
X142517027Y-101915241D01*
X142529840Y-101906211D01*
X142564418Y-101879289D01*
X142602448Y-101845737D01*
X142642209Y-101807420D01*
X142681975Y-101766200D01*
X142720023Y-101723941D01*
X142754630Y-101682507D01*
X142784071Y-101643759D01*
X142806624Y-101609562D01*
X142810497Y-101602822D01*
X142844288Y-101535264D01*
X142875264Y-101459080D01*
X142903466Y-101374036D01*
X142928933Y-101279899D01*
X142951707Y-101176436D01*
X142971828Y-101063412D01*
X142989335Y-100940594D01*
X143004269Y-100807749D01*
X143016670Y-100664643D01*
X143026579Y-100511042D01*
X143034036Y-100346713D01*
X143035774Y-100296134D01*
X143037290Y-100243868D01*
X143038649Y-100187602D01*
X143039795Y-100130417D01*
X143040674Y-100075394D01*
X143041228Y-100025617D01*
X143041404Y-99985689D01*
X143041697Y-99939172D01*
X143042548Y-99885378D01*
X143043862Y-99828300D01*
X143045544Y-99771931D01*
X143047498Y-99720265D01*
X143048055Y-99707741D01*
X143049749Y-99668391D01*
X143051044Y-99632843D01*
X143051904Y-99602626D01*
X143052292Y-99579269D01*
X143052172Y-99564304D01*
X143051612Y-99559286D01*
X143045376Y-99559377D01*
X143029761Y-99561435D01*
X143006451Y-99565185D01*
X142977132Y-99570351D01*
X142943486Y-99576659D01*
X142933508Y-99578594D01*
X142808752Y-99601098D01*
X142679174Y-99620724D01*
X142543065Y-99637694D01*
X142398716Y-99652227D01*
X142296445Y-99660718D01*
X142253048Y-99663442D01*
X142200812Y-99665727D01*
X142141437Y-99667573D01*
X142076623Y-99668976D01*
X142008069Y-99669935D01*
X141937477Y-99670446D01*
X141866545Y-99670508D01*
X141796975Y-99670118D01*
X141730464Y-99669274D01*
X141668715Y-99667974D01*
X141613426Y-99666214D01*
X141566298Y-99663993D01*
X141534445Y-99661785D01*
X141402826Y-99649796D01*
X141282260Y-99636968D01*
X141172538Y-99623273D01*
X141073454Y-99608684D01*
X140984799Y-99593172D01*
X140930248Y-99582059D01*
X140899392Y-99575446D01*
X140872198Y-99569784D01*
X140850669Y-99565478D01*
X140836808Y-99562930D01*
X140832797Y-99562409D01*
X140829618Y-99568019D01*
X140827213Y-99584596D01*
X140825582Y-99611843D01*
X140824727Y-99649466D01*
X140824648Y-99697167D01*
X140646512Y-99697167D01*
X140646229Y-99686691D01*
X140644827Y-99637734D01*
X140643438Y-99592053D01*
X140642115Y-99551239D01*
X140640908Y-99516881D01*
X140639869Y-99490570D01*
X140639051Y-99473896D01*
X140639026Y-99473487D01*
X140638079Y-99445815D01*
X140639495Y-99426360D01*
X140643527Y-99412248D01*
X140644614Y-99409924D01*
X140653108Y-99392898D01*
X140621054Y-99370918D01*
X140577740Y-99336384D01*
X140541440Y-99296519D01*
X140511415Y-99250104D01*
X140486923Y-99195924D01*
X140467227Y-99132760D01*
X140461255Y-99107978D01*
X140457722Y-99084107D01*
X140455352Y-99049072D01*
X140454147Y-99002941D01*
X140453999Y-98964045D01*
X140454031Y-98959731D01*
X140626716Y-98959731D01*
X140627416Y-98980938D01*
X140628023Y-98988034D01*
X140630972Y-99014900D01*
X140634643Y-99041100D01*
X140638613Y-99064298D01*
X140642461Y-99082164D01*
X140645766Y-99092366D01*
X140647146Y-99093867D01*
X140653196Y-99090507D01*
X140660557Y-99084494D01*
X140670330Y-99077853D01*
X140674424Y-99079189D01*
X140672447Y-99086504D01*
X140664009Y-99097800D01*
X140663312Y-99098537D01*
X140648135Y-99114378D01*
X140665339Y-99148806D01*
X140690457Y-99187272D01*
X140723148Y-99218380D01*
X140749248Y-99234662D01*
X140764410Y-99240813D01*
X140788258Y-99248477D01*
X140819500Y-99257373D01*
X140856848Y-99267222D01*
X140899011Y-99277742D01*
X140944700Y-99288654D01*
X140992624Y-99299677D01*
X141041495Y-99310531D01*
X141090023Y-99320935D01*
X141136917Y-99330609D01*
X141180887Y-99339273D01*
X141220645Y-99346645D01*
X141254901Y-99352446D01*
X141282364Y-99356396D01*
X141301744Y-99358213D01*
X141311753Y-99357618D01*
X141312573Y-99357131D01*
X141316824Y-99345592D01*
X141314536Y-99328702D01*
X141306501Y-99309691D01*
X141297708Y-99296633D01*
X141279224Y-99273632D01*
X141305666Y-99293816D01*
X141320649Y-99304668D01*
X141332229Y-99311995D01*
X141336954Y-99314000D01*
X141352754Y-99309957D01*
X141373739Y-99298653D01*
X141397669Y-99281329D01*
X141401070Y-99278541D01*
X141429695Y-99254734D01*
X141400226Y-99290304D01*
X141386433Y-99308202D01*
X141376095Y-99323998D01*
X141371001Y-99334885D01*
X141370756Y-99336556D01*
X141374412Y-99348013D01*
X141383230Y-99360802D01*
X141383456Y-99361050D01*
X141389075Y-99366309D01*
X141396151Y-99370392D01*
X141406522Y-99373709D01*
X141422027Y-99376674D01*
X141444503Y-99379697D01*
X141475788Y-99383189D01*
X141488129Y-99384491D01*
X141520009Y-99387565D01*
X141548686Y-99389839D01*
X141571956Y-99391175D01*
X141587615Y-99391437D01*
X141592598Y-99390984D01*
X141606140Y-99390563D01*
X141613359Y-99392956D01*
X141621093Y-99394367D01*
X141638485Y-99395642D01*
X141663905Y-99396725D01*
X141695722Y-99397557D01*
X141732305Y-99398081D01*
X141762890Y-99398238D01*
X141904156Y-99398413D01*
X141905371Y-99396696D01*
X141922372Y-99396696D01*
X141924928Y-99399414D01*
X141935494Y-99402221D01*
X141953111Y-99403464D01*
X141973652Y-99403151D01*
X141992990Y-99401290D01*
X142002927Y-99399262D01*
X142010934Y-99396607D01*
X142012107Y-99393434D01*
X142005537Y-99387655D01*
X141994561Y-99380069D01*
X141975719Y-99368941D01*
X141961277Y-99365766D01*
X141947641Y-99370525D01*
X141935238Y-99379745D01*
X141924426Y-99390207D01*
X141922372Y-99396696D01*
X141905371Y-99396696D01*
X141920619Y-99375163D01*
X141933417Y-99352038D01*
X141936051Y-99331391D01*
X141928456Y-99310648D01*
X141918597Y-99296633D01*
X141900112Y-99273632D01*
X141926555Y-99293816D01*
X141941538Y-99304668D01*
X141953118Y-99311995D01*
X141957843Y-99314000D01*
X141973643Y-99309957D01*
X141994628Y-99298653D01*
X142018558Y-99281329D01*
X142021959Y-99278541D01*
X142050584Y-99254734D01*
X142021114Y-99290304D01*
X142007325Y-99308183D01*
X141996988Y-99323939D01*
X141991891Y-99334772D01*
X141991645Y-99336432D01*
X141994941Y-99346678D01*
X142003389Y-99361498D01*
X142010418Y-99371417D01*
X142029192Y-99395845D01*
X142093674Y-99394412D01*
X142136285Y-99392591D01*
X142187589Y-99388972D01*
X142245180Y-99383815D01*
X142306651Y-99377384D01*
X142369596Y-99369942D01*
X142431610Y-99361753D01*
X142490286Y-99353077D01*
X142526642Y-99347106D01*
X142545796Y-99343456D01*
X142556000Y-99340050D01*
X142559493Y-99335612D01*
X142558525Y-99328911D01*
X142552930Y-99317258D01*
X142542969Y-99301898D01*
X142537973Y-99295227D01*
X142521001Y-99273632D01*
X142547444Y-99293816D01*
X142562427Y-99304668D01*
X142574007Y-99311995D01*
X142578732Y-99314000D01*
X142594531Y-99309957D01*
X142615517Y-99298653D01*
X142639446Y-99281329D01*
X142642848Y-99278541D01*
X142671473Y-99254734D01*
X142641275Y-99291180D01*
X142628278Y-99307890D01*
X142619609Y-99321084D01*
X142616575Y-99328675D01*
X142617181Y-99329661D01*
X142624031Y-99329141D01*
X142639805Y-99326738D01*
X142662377Y-99322859D01*
X142689617Y-99317914D01*
X142719399Y-99312310D01*
X142749593Y-99306457D01*
X142778071Y-99300762D01*
X142802705Y-99295636D01*
X142821368Y-99291486D01*
X142831930Y-99288721D01*
X142833312Y-99288161D01*
X142830637Y-99283738D01*
X142821072Y-99272764D01*
X142805838Y-99256541D01*
X142786152Y-99236373D01*
X142766498Y-99216774D01*
X142733954Y-99184293D01*
X142705277Y-99154884D01*
X142681215Y-99129376D01*
X142662521Y-99108594D01*
X142649945Y-99093369D01*
X142644238Y-99084527D01*
X142644788Y-99082578D01*
X142649953Y-99086408D01*
X142661618Y-99097000D01*
X142678432Y-99113006D01*
X142699041Y-99133081D01*
X142722093Y-99155877D01*
X142746235Y-99180046D01*
X142770114Y-99204242D01*
X142792377Y-99227119D01*
X142811671Y-99247328D01*
X142826645Y-99263523D01*
X142827739Y-99264743D01*
X142846778Y-99286041D01*
X142914169Y-99269499D01*
X142981559Y-99252957D01*
X143067325Y-99163534D01*
X143093117Y-99137075D01*
X143116075Y-99114355D01*
X143135091Y-99096409D01*
X143149056Y-99084271D01*
X143156861Y-99078975D01*
X143157978Y-99078968D01*
X143155560Y-99084156D01*
X143145906Y-99095897D01*
X143130061Y-99113072D01*
X143109069Y-99134560D01*
X143083974Y-99159242D01*
X143075378Y-99167508D01*
X142987889Y-99251190D01*
X143075095Y-99228834D01*
X143106325Y-99220478D01*
X143134910Y-99212186D01*
X143158488Y-99204691D01*
X143174701Y-99198724D01*
X143179498Y-99196434D01*
X143201311Y-99177585D01*
X143219561Y-99149173D01*
X143231187Y-99119766D01*
X143236323Y-99096359D01*
X143240228Y-99064938D01*
X143242777Y-99028723D01*
X143243844Y-98990935D01*
X143243304Y-98954793D01*
X143241033Y-98923518D01*
X143239292Y-98911180D01*
X143233920Y-98882369D01*
X143227614Y-98851854D01*
X143220879Y-98821727D01*
X143214221Y-98794079D01*
X143208146Y-98771002D01*
X143203159Y-98754587D01*
X143199767Y-98746926D01*
X143199507Y-98746703D01*
X143193377Y-98748795D01*
X143181013Y-98756886D01*
X143164614Y-98769467D01*
X143156493Y-98776200D01*
X143118250Y-98808645D01*
X143145210Y-98775544D01*
X143164399Y-98750540D01*
X143175694Y-98730948D01*
X143179355Y-98714376D01*
X143175643Y-98698427D01*
X143164817Y-98680709D01*
X143156637Y-98670215D01*
X143147741Y-98659041D01*
X143145901Y-98655716D01*
X143150913Y-98659449D01*
X143154671Y-98662638D01*
X143166588Y-98672243D01*
X143175514Y-98678461D01*
X143176970Y-98675563D01*
X143174693Y-98664113D01*
X143169311Y-98645969D01*
X143161455Y-98622992D01*
X143151752Y-98597041D01*
X143140831Y-98569976D01*
X143131743Y-98549002D01*
X143114485Y-98510535D01*
X143087876Y-98535447D01*
X143071106Y-98551154D01*
X143049936Y-98570990D01*
X143028200Y-98591364D01*
X143022080Y-98597102D01*
X143009716Y-98608475D01*
X143004137Y-98612994D01*
X143005556Y-98610376D01*
X143014184Y-98600338D01*
X143030235Y-98582598D01*
X143045683Y-98565792D01*
X143108473Y-98497740D01*
X143084421Y-98452725D01*
X143052671Y-98396669D01*
X143019239Y-98344998D01*
X142984403Y-98297136D01*
X142966771Y-98274933D01*
X142946521Y-98250973D01*
X142925114Y-98226808D01*
X142904006Y-98203989D01*
X142884659Y-98184068D01*
X142868530Y-98168595D01*
X142857079Y-98159123D01*
X142852499Y-98156889D01*
X142843171Y-98160845D01*
X142838285Y-98165388D01*
X142832080Y-98171780D01*
X142819017Y-98184501D01*
X142800511Y-98202199D01*
X142777976Y-98223522D01*
X142752826Y-98247116D01*
X142751516Y-98248341D01*
X142727423Y-98270646D01*
X142711155Y-98285240D01*
X142702737Y-98292091D01*
X142702196Y-98291165D01*
X142709555Y-98282428D01*
X142724842Y-98265848D01*
X142748081Y-98241390D01*
X142779298Y-98209021D01*
X142789851Y-98198145D01*
X142810594Y-98176529D01*
X142824329Y-98161315D01*
X142832101Y-98150994D01*
X142834957Y-98144059D01*
X142833942Y-98139001D01*
X142832393Y-98136804D01*
X142823071Y-98127752D01*
X142806726Y-98113952D01*
X142785589Y-98097120D01*
X142761891Y-98078972D01*
X142737864Y-98061225D01*
X142715739Y-98045594D01*
X142701662Y-98036246D01*
X142669435Y-98015723D01*
X142640984Y-98049910D01*
X142627455Y-98067347D01*
X142617413Y-98082536D01*
X142612682Y-98092663D01*
X142612534Y-98093837D01*
X142614203Y-98102405D01*
X142619916Y-98113678D01*
X142630730Y-98129276D01*
X142647701Y-98150820D01*
X142657337Y-98162534D01*
X142683089Y-98193578D01*
X142652045Y-98167826D01*
X142627382Y-98147821D01*
X142609376Y-98134439D01*
X142596410Y-98126624D01*
X142586865Y-98123319D01*
X142583377Y-98123022D01*
X142574895Y-98126509D01*
X142560571Y-98135818D01*
X142542956Y-98149225D01*
X142535513Y-98155389D01*
X142497361Y-98187756D01*
X142524321Y-98154655D01*
X142543576Y-98129521D01*
X142554880Y-98109802D01*
X142558485Y-98093158D01*
X142554642Y-98077248D01*
X142543601Y-98059730D01*
X142535574Y-98049771D01*
X142519592Y-98030778D01*
X142546740Y-98051500D01*
X142563090Y-98063675D01*
X142573919Y-98069944D01*
X142582640Y-98071296D01*
X142592670Y-98068718D01*
X142598597Y-98066511D01*
X142610760Y-98060113D01*
X142626057Y-98049760D01*
X142641651Y-98037705D01*
X142654706Y-98026202D01*
X142662386Y-98017503D01*
X142663334Y-98015077D01*
X142658524Y-98011038D01*
X142645382Y-98003245D01*
X142625836Y-97992650D01*
X142601815Y-97980205D01*
X142575246Y-97966862D01*
X142548059Y-97953574D01*
X142522182Y-97941292D01*
X142499543Y-97930968D01*
X142482072Y-97923554D01*
X142471696Y-97920002D01*
X142470386Y-97919829D01*
X142462749Y-97923518D01*
X142449001Y-97933565D01*
X142431098Y-97948430D01*
X142411196Y-97966389D01*
X142361508Y-98012956D01*
X142408248Y-97962156D01*
X142454989Y-97911356D01*
X142373535Y-97884898D01*
X142341715Y-97874840D01*
X142310553Y-97865480D01*
X142283077Y-97857694D01*
X142262314Y-97852361D01*
X142257637Y-97851326D01*
X142238611Y-97847650D01*
X142226717Y-97846964D01*
X142218030Y-97849976D01*
X142208629Y-97857392D01*
X142204785Y-97860851D01*
X142186378Y-97877489D01*
X142217136Y-97843303D01*
X142176256Y-97830613D01*
X142130573Y-97811157D01*
X142091937Y-97783630D01*
X142061411Y-97748801D01*
X142059682Y-97746225D01*
X142040230Y-97716735D01*
X142025815Y-97729220D01*
X142016873Y-97736884D01*
X142015447Y-97737566D01*
X142021609Y-97730730D01*
X142026288Y-97725692D01*
X142035856Y-97713733D01*
X142038341Y-97703208D01*
X142035579Y-97689409D01*
X142033697Y-97676336D01*
X142032456Y-97654634D01*
X142031935Y-97626949D01*
X142032217Y-97595928D01*
X142032449Y-97587047D01*
X142033718Y-97552700D01*
X142035468Y-97526461D01*
X142038171Y-97505149D01*
X142042301Y-97485583D01*
X142048330Y-97464581D01*
X142052614Y-97451303D01*
X142062507Y-97424689D01*
X142076909Y-97390459D01*
X142094752Y-97350815D01*
X142114964Y-97307954D01*
X142136478Y-97264077D01*
X142158222Y-97221381D01*
X142179128Y-97182068D01*
X142198125Y-97148335D01*
X142207710Y-97132416D01*
X142265925Y-97048082D01*
X142333030Y-96967136D01*
X142407241Y-96891329D01*
X142486773Y-96822414D01*
X142569841Y-96762140D01*
X142611402Y-96736229D01*
X142679838Y-96699270D01*
X142753144Y-96665780D01*
X142827742Y-96637201D01*
X142900052Y-96614975D01*
X142931031Y-96607400D01*
X142948717Y-96603406D01*
X142960800Y-96599938D01*
X142966617Y-96596240D01*
X142965504Y-96591555D01*
X142956798Y-96585127D01*
X142939836Y-96576199D01*
X142913955Y-96564016D01*
X142879007Y-96548055D01*
X142844006Y-96532010D01*
X142805242Y-96514098D01*
X142767332Y-96496459D01*
X142734893Y-96481234D01*
X142733685Y-96480664D01*
X142665748Y-96448552D01*
X142584108Y-96516592D01*
X142470398Y-96617298D01*
X142366302Y-96721793D01*
X142272261Y-96829597D01*
X142188716Y-96940227D01*
X142164739Y-96975440D01*
X142103643Y-97073058D01*
X142051640Y-97168621D01*
X142007558Y-97264779D01*
X141970229Y-97364186D01*
X141938482Y-97469491D01*
X141926895Y-97514633D01*
X141914356Y-97563139D01*
X141903012Y-97601256D01*
X141892604Y-97629791D01*
X141884390Y-97646955D01*
X141866567Y-97678536D01*
X141885666Y-97698990D01*
X141903686Y-97718975D01*
X141913747Y-97731892D01*
X141916234Y-97738277D01*
X141914437Y-97739200D01*
X141907989Y-97735488D01*
X141896419Y-97725825D01*
X141884259Y-97714286D01*
X141859293Y-97689372D01*
X141839391Y-97707237D01*
X141798356Y-97738323D01*
X141754355Y-97761287D01*
X141726356Y-97770827D01*
X141706944Y-97776437D01*
X141691862Y-97781584D01*
X141684594Y-97785021D01*
X141683405Y-97791308D01*
X141688805Y-97803149D01*
X141701252Y-97821285D01*
X141721201Y-97846458D01*
X141725870Y-97852089D01*
X141751756Y-97883134D01*
X141720711Y-97857381D01*
X141696048Y-97837377D01*
X141678043Y-97823995D01*
X141665076Y-97816179D01*
X141655532Y-97812875D01*
X141652043Y-97812578D01*
X141643545Y-97816064D01*
X141629223Y-97825368D01*
X141611643Y-97838755D01*
X141604493Y-97844678D01*
X141566656Y-97876778D01*
X141595706Y-97840728D01*
X141609155Y-97823492D01*
X141619301Y-97809450D01*
X141624443Y-97800992D01*
X141624756Y-97799905D01*
X141619879Y-97797735D01*
X141607752Y-97798254D01*
X141603589Y-97798902D01*
X141591601Y-97801772D01*
X141572424Y-97807178D01*
X141548335Y-97814393D01*
X141521608Y-97822693D01*
X141494519Y-97831349D01*
X141469345Y-97839636D01*
X141448359Y-97846828D01*
X141433839Y-97852198D01*
X141428156Y-97854896D01*
X141431004Y-97859609D01*
X141440642Y-97870972D01*
X141455865Y-97887662D01*
X141475470Y-97908357D01*
X141496239Y-97929693D01*
X141532154Y-97966413D01*
X141560079Y-97995566D01*
X141580204Y-98017366D01*
X141592718Y-98032026D01*
X141597810Y-98039761D01*
X141595669Y-98040785D01*
X141593711Y-98039850D01*
X141586528Y-98034144D01*
X141572823Y-98021606D01*
X141553925Y-98003515D01*
X141531163Y-97981152D01*
X141505868Y-97955794D01*
X141496551Y-97946336D01*
X141410680Y-97858870D01*
X141346105Y-97891225D01*
X141287293Y-97923263D01*
X141226815Y-97960901D01*
X141167039Y-98002389D01*
X141110333Y-98045978D01*
X141059066Y-98089916D01*
X141015606Y-98132454D01*
X141007025Y-98141787D01*
X140935104Y-98228284D01*
X140866730Y-98323425D01*
X140813627Y-98407758D01*
X140783756Y-98458248D01*
X140865051Y-98540402D01*
X140902399Y-98578366D01*
X140931872Y-98608834D01*
X140953750Y-98632119D01*
X140968313Y-98648534D01*
X140975839Y-98658390D01*
X140976608Y-98662001D01*
X140972498Y-98660577D01*
X140965326Y-98654861D01*
X140951606Y-98642252D01*
X140932617Y-98623990D01*
X140909639Y-98601315D01*
X140883951Y-98575469D01*
X140869900Y-98561138D01*
X140778915Y-98467909D01*
X140750089Y-98527221D01*
X140726977Y-98576083D01*
X140709751Y-98615466D01*
X140698365Y-98645497D01*
X140692772Y-98666299D01*
X140692925Y-98678000D01*
X140693748Y-98679392D01*
X140707468Y-98689463D01*
X140724778Y-98690309D01*
X140746323Y-98681768D01*
X140772747Y-98663677D01*
X140780181Y-98657652D01*
X140808806Y-98633845D01*
X140779337Y-98669415D01*
X140765566Y-98687173D01*
X140755235Y-98702659D01*
X140750122Y-98713139D01*
X140749867Y-98714726D01*
X140751536Y-98723294D01*
X140757249Y-98734567D01*
X140768063Y-98750164D01*
X140785035Y-98771708D01*
X140794670Y-98783422D01*
X140820422Y-98814467D01*
X140789378Y-98788715D01*
X140763689Y-98767814D01*
X140744556Y-98753873D01*
X140730081Y-98746371D01*
X140718365Y-98744785D01*
X140707510Y-98748596D01*
X140695617Y-98757281D01*
X140690607Y-98761596D01*
X140675975Y-98772936D01*
X140668375Y-98775666D01*
X140668309Y-98770208D01*
X140676280Y-98756987D01*
X140679682Y-98752394D01*
X140690565Y-98733103D01*
X140695152Y-98713798D01*
X140692914Y-98697830D01*
X140689162Y-98692237D01*
X140684765Y-98692233D01*
X140679551Y-98701201D01*
X140672993Y-98720122D01*
X140671564Y-98724881D01*
X140666504Y-98742107D01*
X140662600Y-98755952D01*
X140659220Y-98769067D01*
X140655730Y-98784104D01*
X140651498Y-98803713D01*
X140645893Y-98830546D01*
X140642789Y-98845511D01*
X140636598Y-98876557D01*
X140633150Y-98899013D01*
X140632659Y-98915291D01*
X140635335Y-98927801D01*
X140641392Y-98938956D01*
X140651041Y-98951166D01*
X140652214Y-98952541D01*
X140662711Y-98965752D01*
X140665385Y-98971642D01*
X140661628Y-98970798D01*
X140648907Y-98961835D01*
X140642878Y-98955886D01*
X140634199Y-98947741D01*
X140628894Y-98948844D01*
X140626716Y-98959731D01*
X140454031Y-98959731D01*
X140454306Y-98923250D01*
X140455080Y-98890960D01*
X140456557Y-98864395D01*
X140458975Y-98840773D01*
X140462572Y-98817313D01*
X140467586Y-98791234D01*
X140469601Y-98781541D01*
X140500175Y-98662483D01*
X140541625Y-98544528D01*
X140594040Y-98427486D01*
X140657512Y-98311167D01*
X140732129Y-98195382D01*
X140778229Y-98131489D01*
X140830787Y-98064803D01*
X140883735Y-98005160D01*
X140939304Y-97950472D01*
X140999723Y-97898654D01*
X141067220Y-97847621D01*
X141122066Y-97809782D01*
X141197466Y-97762696D01*
X141273180Y-97722287D01*
X141351465Y-97687630D01*
X141434579Y-97657800D01*
X141524779Y-97631873D01*
X141599356Y-97614232D01*
X141629344Y-97607229D01*
X141656701Y-97599988D01*
X141678853Y-97593252D01*
X141693229Y-97587760D01*
X141695526Y-97586536D01*
X141708222Y-97576538D01*
X141719182Y-97562356D01*
X141729090Y-97542457D01*
X141738630Y-97515306D01*
X141748487Y-97479368D01*
X141754558Y-97454156D01*
X141790087Y-97326001D01*
X141836803Y-97199093D01*
X141894716Y-97073416D01*
X141963834Y-96948954D01*
X142044164Y-96825691D01*
X142127547Y-96713877D01*
X142160239Y-96674670D01*
X142200080Y-96630326D01*
X142245294Y-96582620D01*
X142294104Y-96533325D01*
X142344731Y-96484216D01*
X142395400Y-96437064D01*
X142444332Y-96393646D01*
X142471259Y-96370837D01*
X142510276Y-96338514D01*
X142541748Y-96312692D01*
X142566781Y-96292621D01*
X142586480Y-96277547D01*
X142601949Y-96266719D01*
X142614294Y-96259385D01*
X142624621Y-96254793D01*
X142634033Y-96252191D01*
X142643638Y-96250826D01*
X142648211Y-96250424D01*
X142660154Y-96249895D01*
X142671301Y-96250857D01*
X142671301Y-96250857D01*
G37*
X142671301Y-96250857D02*
X142683737Y-96254015D01*
X142699545Y-96260076D01*
X142720809Y-96269744D01*
X142749611Y-96283727D01*
X142756467Y-96287107D01*
X142789758Y-96303297D01*
X142829413Y-96322199D01*
X142871477Y-96341949D01*
X142911993Y-96360683D01*
X142931445Y-96369544D01*
X142980314Y-96391914D01*
X143019912Y-96410687D01*
X143051414Y-96426535D01*
X143076000Y-96440131D01*
X143094847Y-96452148D01*
X143109133Y-96463256D01*
X143120036Y-96474129D01*
X143124718Y-96479859D01*
X143143306Y-96511682D01*
X143157296Y-96551231D01*
X143165859Y-96595589D01*
X143168247Y-96632889D01*
X143167956Y-96657770D01*
X143166334Y-96674662D01*
X143162748Y-96686842D01*
X143156567Y-96697590D01*
X143155487Y-96699126D01*
X143140669Y-96713513D01*
X143116706Y-96729149D01*
X143085535Y-96745125D01*
X143049093Y-96760533D01*
X143009316Y-96774465D01*
X142972524Y-96784926D01*
X142879003Y-96813622D01*
X142787302Y-96851743D01*
X142700027Y-96898053D01*
X142619780Y-96951315D01*
X142615736Y-96954336D01*
X142567714Y-96993769D01*
X142518319Y-97040361D01*
X142469859Y-97091554D01*
X142424637Y-97144794D01*
X142384961Y-97197522D01*
X142355862Y-97242489D01*
X142337385Y-97275292D01*
X142317468Y-97313039D01*
X142297036Y-97353744D01*
X142277012Y-97395422D01*
X142258318Y-97436090D01*
X142241880Y-97473762D01*
X142228620Y-97506453D01*
X142219461Y-97532179D01*
X142216839Y-97541286D01*
X142210702Y-97571732D01*
X142207736Y-97600409D01*
X142207979Y-97624832D01*
X142211464Y-97642510D01*
X142215328Y-97649052D01*
X142222316Y-97652130D01*
X142238292Y-97657306D01*
X142261280Y-97663995D01*
X142289302Y-97671613D01*
X142308516Y-97676592D01*
X142428023Y-97710361D01*
X142538123Y-97748697D01*
X142639991Y-97792232D01*
X142734800Y-97841599D01*
X142823725Y-97897429D01*
X142907939Y-97960356D01*
X142988618Y-98031012D01*
X143016391Y-98057836D01*
X143097142Y-98145655D01*
X143169804Y-98241248D01*
X143234270Y-98344402D01*
X143290430Y-98454905D01*
X143338176Y-98572545D01*
X143377398Y-98697109D01*
X143405737Y-98817026D01*
X143410694Y-98842319D01*
X143414377Y-98863676D01*
X143416933Y-98883423D01*
X143418511Y-98903887D01*
X143419256Y-98927393D01*
X143419318Y-98956267D01*
X143418844Y-98992836D01*
X143418414Y-99016759D01*
X143417559Y-99058216D01*
X143416618Y-99090338D01*
X143415392Y-99115078D01*
X143413682Y-99134389D01*
X143411289Y-99150225D01*
X143408013Y-99164539D01*
X143403655Y-99179285D01*
X143401004Y-99187443D01*
X143378069Y-99242143D01*
X143348238Y-99289024D01*
X143312104Y-99327453D01*
X143270257Y-99356798D01*
X143224026Y-99376209D01*
X143200518Y-99383232D01*
X143212725Y-99406472D01*
X143216440Y-99414069D01*
X143219314Y-99421980D01*
X143221456Y-99431697D01*
X143222971Y-99444713D01*
X143223968Y-99462523D01*
X143224553Y-99486621D01*
X143224834Y-99518498D01*
X143224917Y-99559650D01*
X143224919Y-99576467D01*
X143224759Y-99619977D01*
X143224307Y-99672127D01*
X143223592Y-99731514D01*
X143222644Y-99796729D01*
X143221494Y-99866369D01*
X143220170Y-99939026D01*
X143218704Y-100013296D01*
X143217126Y-100087773D01*
X143215464Y-100161050D01*
X143213750Y-100231721D01*
X143212013Y-100298383D01*
X143210283Y-100359627D01*
X143208590Y-100414049D01*
X143206965Y-100460243D01*
X143205436Y-100496803D01*
X143205178Y-100502156D01*
X143196091Y-100657814D01*
X143184702Y-100802811D01*
X143170946Y-100937550D01*
X143154762Y-101062432D01*
X143136086Y-101177861D01*
X143114855Y-101284240D01*
X143091005Y-101381972D01*
X143064474Y-101471459D01*
X143043895Y-101530422D01*
X143018426Y-101594826D01*
X142992904Y-101650771D01*
X142965786Y-101700988D01*
X142935532Y-101748209D01*
X142900597Y-101795163D01*
X142880276Y-101820134D01*
X142806409Y-101903562D01*
X142733007Y-101976153D01*
X142659578Y-102038320D01*
X142585633Y-102090474D01*
X142510681Y-102133027D01*
X142502765Y-102136939D01*
X142466286Y-102151980D01*
X142435232Y-102158467D01*
X142407888Y-102156587D01*
X142387987Y-102149413D01*
X142382670Y-102146900D01*
X142377962Y-102144556D01*
X142373545Y-102141702D01*
X142369102Y-102137661D01*
X142364314Y-102131755D01*
X142358864Y-102123305D01*
X142352433Y-102111633D01*
X142344703Y-102096061D01*
X142335356Y-102075911D01*
X142324075Y-102050505D01*
X142310541Y-102019165D01*
X142294435Y-101981212D01*
X142275441Y-101935968D01*
X142253240Y-101882756D01*
X142227513Y-101820897D01*
X142197944Y-101749713D01*
X142177957Y-101701600D01*
X142163949Y-101667720D01*
X142147783Y-101628366D01*
X142131510Y-101588541D01*
X142117825Y-101554845D01*
X142105027Y-101523476D01*
X142091974Y-101491955D01*
X142080069Y-101463640D01*
X142070715Y-101441889D01*
X142069500Y-101439134D01*
X142047283Y-101386361D01*
X142031556Y-101341670D01*
X142022591Y-101303716D01*
X142020661Y-101271157D01*
X142026040Y-101242652D01*
X142039000Y-101216856D01*
X142059813Y-101192429D01*
X142088753Y-101168027D01*
X142126093Y-101142309D01*
X142130374Y-101139565D01*
X142160337Y-101119601D01*
X142183378Y-101101847D01*
X142202711Y-101083543D01*
X142221549Y-101061926D01*
X142223419Y-101059614D01*
X142263260Y-101003159D01*
X142292222Y-100945994D01*
X142310711Y-100887051D01*
X142319129Y-100825263D01*
X142319757Y-100805384D01*
X142314725Y-100744249D01*
X142298975Y-100684533D01*
X142273074Y-100627350D01*
X142237589Y-100573811D01*
X142193086Y-100525028D01*
X142164083Y-100499920D01*
X142128194Y-100473400D01*
X142094556Y-100453492D01*
X142060575Y-100439371D01*
X142023654Y-100430209D01*
X141981199Y-100425180D01*
X141930615Y-100423457D01*
X141923911Y-100423434D01*
X141890718Y-100423674D01*
X141865910Y-100424689D01*
X141846593Y-100426808D01*
X141829874Y-100430364D01*
X141812856Y-100435685D01*
X141811022Y-100436329D01*
X141758439Y-100459745D01*
X141708057Y-100491334D01*
X141662077Y-100529249D01*
X141622701Y-100571648D01*
X141592131Y-100616684D01*
X141589122Y-100622249D01*
X141564533Y-100680170D01*
X141549629Y-100740692D01*
X141544218Y-100802329D01*
X141548110Y-100863598D01*
X141561116Y-100923013D01*
X141583046Y-100979091D01*
X141613710Y-101030347D01*
X141646276Y-101068789D01*
X141668377Y-101089337D01*
X141695569Y-101112089D01*
X141723327Y-101133332D01*
X141734822Y-101141428D01*
X141765769Y-101164350D01*
X141791638Y-101187206D01*
X141808065Y-101205424D01*
X141820494Y-101222892D01*
X141827579Y-101237423D01*
X141831120Y-101253995D01*
X141832697Y-101273607D01*
X141832829Y-101298418D01*
X141830935Y-101323221D01*
X141828209Y-101339052D01*
X141824096Y-101351916D01*
X141816128Y-101373661D01*
X141804911Y-101402799D01*
X141791055Y-101437842D01*
X141775167Y-101477302D01*
X141757855Y-101519691D01*
X141739728Y-101563522D01*
X141721394Y-101607306D01*
X141703460Y-101649555D01*
X141686536Y-101688783D01*
X141671228Y-101723500D01*
X141669659Y-101727000D01*
X141656749Y-101756515D01*
X141641184Y-101793281D01*
X141624330Y-101834004D01*
X141607553Y-101875385D01*
X141593880Y-101909877D01*
X141569392Y-101970857D01*
X141547632Y-102021535D01*
X141528307Y-102062485D01*
X141511124Y-102094283D01*
X141495790Y-102117503D01*
X141482011Y-102132720D01*
X141479153Y-102135056D01*
X141466687Y-102143390D01*
X141454197Y-102148026D01*
X141437651Y-102149992D01*
X141419173Y-102150334D01*
X141379222Y-102150334D01*
X141286048Y-102087380D01*
X141212549Y-102035550D01*
X141148180Y-101985207D01*
X141091227Y-101934685D01*
X141039981Y-101882320D01*
X140992729Y-101826444D01*
X140947762Y-101765393D01*
X140933203Y-101743934D01*
X140881980Y-101658838D01*
X140836537Y-101566861D01*
X140798318Y-101471341D01*
X140768769Y-101375615D01*
X140762151Y-101348822D01*
X140757160Y-101325416D01*
X140750854Y-101292811D01*
X140743562Y-101252975D01*
X140735614Y-101207877D01*
X140727340Y-101159486D01*
X140719070Y-101109772D01*
X140711133Y-101060703D01*
X140703859Y-101014248D01*
X140697578Y-100972376D01*
X140692620Y-100937055D01*
X140690765Y-100922667D01*
X140688367Y-100899319D01*
X140685752Y-100866942D01*
X140682987Y-100826987D01*
X140680137Y-100780907D01*
X140677267Y-100730150D01*
X140674444Y-100676170D01*
X140671733Y-100620416D01*
X140669199Y-100564340D01*
X140666909Y-100509393D01*
X140664927Y-100457026D01*
X140663319Y-100408690D01*
X140662151Y-100365836D01*
X140661489Y-100329915D01*
X140661398Y-100302379D01*
X140661932Y-100284845D01*
X140662641Y-100265424D01*
X140662796Y-100237003D01*
X140662430Y-100201857D01*
X140661574Y-100162258D01*
X140660259Y-100120482D01*
X140659282Y-100095756D01*
X140657674Y-100055627D01*
X140655886Y-100006750D01*
X140654001Y-99951660D01*
X140652102Y-99892894D01*
X140650272Y-99832989D01*
X140648593Y-99774481D01*
X140647594Y-99737334D01*
X140646512Y-99697167D01*
X140824648Y-99697167D01*
X140825347Y-99754651D01*
X140826823Y-99821623D01*
X140829078Y-99897787D01*
X140831579Y-99968756D01*
X140833539Y-100024327D01*
X140835323Y-100081370D01*
X140836882Y-100137750D01*
X140838163Y-100191329D01*
X140839116Y-100239973D01*
X140839689Y-100281544D01*
X140839834Y-100313067D01*
X140840091Y-100356719D01*
X140841025Y-100407281D01*
X140842549Y-100462929D01*
X140844580Y-100521840D01*
X140847033Y-100582190D01*
X140849823Y-100642156D01*
X140852866Y-100699914D01*
X140856075Y-100753641D01*
X140859368Y-100801512D01*
X140862659Y-100841705D01*
X140865798Y-100871867D01*
X140869931Y-100903007D01*
X140875563Y-100941748D01*
X140882363Y-100986111D01*
X140890000Y-101034117D01*
X140898143Y-101083787D01*
X140906460Y-101133144D01*
X140914622Y-101180206D01*
X140922295Y-101222996D01*
X140929150Y-101259536D01*
X140934855Y-101287845D01*
X140937109Y-101298022D01*
X140962393Y-101387008D01*
X140996260Y-101474933D01*
X141037718Y-101560099D01*
X141085772Y-101640806D01*
X141139429Y-101715357D01*
X141197698Y-101782053D01*
X141247710Y-101829252D01*
X141275341Y-101852303D01*
X141302859Y-101874123D01*
X141328815Y-101893679D01*
X141351760Y-101909941D01*
X141370247Y-101921877D01*
X141382826Y-101928457D01*
X141387847Y-101929013D01*
X141391059Y-101922559D01*
X141397592Y-101907289D01*
X141406738Y-101884936D01*
X141417788Y-101857228D01*
X141430035Y-101825897D01*
X141430081Y-101825778D01*
X141445406Y-101786935D01*
X141462580Y-101744616D01*
X141479970Y-101702774D01*
X141495942Y-101665359D01*
X141503586Y-101647978D01*
X141513165Y-101626200D01*
X141525230Y-101598292D01*
X141539166Y-101565723D01*
X141554357Y-101529962D01*
X141570187Y-101492478D01*
X141586041Y-101454742D01*
X141601304Y-101418223D01*
X141615361Y-101384390D01*
X141627595Y-101354714D01*
X141637391Y-101330662D01*
X141644135Y-101313706D01*
X141647210Y-101305314D01*
X141647334Y-101304740D01*
X141642972Y-101300818D01*
X141631350Y-101292312D01*
X141614662Y-101280808D01*
X141608019Y-101276359D01*
X141546115Y-101228543D01*
X141492156Y-101173019D01*
X141446755Y-101110661D01*
X141410526Y-101042345D01*
X141384081Y-100968943D01*
X141378975Y-100949509D01*
X141373652Y-100920020D01*
X141369670Y-100882686D01*
X141367154Y-100840883D01*
X141366232Y-100797989D01*
X141367029Y-100757382D01*
X141369672Y-100722438D01*
X141370300Y-100717409D01*
X141381119Y-100660105D01*
X141397640Y-100603427D01*
X141418471Y-100551919D01*
X141424989Y-100538845D01*
X141463777Y-100476465D01*
X141511787Y-100418662D01*
X141567418Y-100366813D01*
X141629067Y-100322297D01*
X141695131Y-100286490D01*
X141739359Y-100268651D01*
X141760490Y-100261400D01*
X141777821Y-100256094D01*
X141793843Y-100252383D01*
X141811049Y-100249913D01*
X141831928Y-100248333D01*
X141858972Y-100247292D01*
X141894674Y-100246436D01*
X141896979Y-100246387D01*
X141963486Y-100246233D01*
X142020847Y-100249120D01*
X142070894Y-100255454D01*
X142115459Y-100265645D01*
X142156373Y-100280101D01*
X142195470Y-100299229D01*
X142230542Y-100320728D01*
X142298248Y-100372135D01*
X142357161Y-100430207D01*
X142406935Y-100494488D01*
X142447220Y-100564519D01*
X142477670Y-100639842D01*
X142480932Y-100650143D01*
X142486358Y-100668502D01*
X142490303Y-100684459D01*
X142492992Y-100700348D01*
X142494647Y-100718500D01*
X142495491Y-100741249D01*
X142495748Y-100770927D01*
X142495669Y-100804134D01*
X142495282Y-100844257D01*
X142494401Y-100875460D01*
X142492831Y-100900109D01*
X142490376Y-100920570D01*
X142486839Y-100939206D01*
X142483279Y-100953711D01*
X142463557Y-101012438D01*
X142436030Y-101071010D01*
X142402136Y-101127372D01*
X142363315Y-101179473D01*
X142321009Y-101225258D01*
X142276656Y-101262673D01*
X142257688Y-101275445D01*
X142238311Y-101288167D01*
X142223529Y-101299191D01*
X142215342Y-101306951D01*
X142214392Y-101309311D01*
X142217543Y-101316936D01*
X142223908Y-101331906D01*
X142232206Y-101351211D01*
X142233613Y-101354467D01*
X142242242Y-101374791D01*
X142253676Y-101402239D01*
X142266527Y-101433454D01*
X142279407Y-101465078D01*
X142281469Y-101470178D01*
X142295103Y-101503775D01*
X142309783Y-101539683D01*
X142323789Y-101573709D01*
X142335402Y-101601659D01*
X142335889Y-101602822D01*
X142344966Y-101624553D01*
X142357384Y-101654377D01*
X142372173Y-101689955D01*
X142388359Y-101728948D01*
X142404970Y-101769017D01*
X142413283Y-101789089D01*
X142431320Y-101832600D01*
X142445571Y-101866783D01*
X142456539Y-101892756D01*
X142464729Y-101911632D01*
X142470644Y-101924528D01*
X142474789Y-101932557D01*
X142477666Y-101936837D01*
X142479781Y-101938481D01*
X142480866Y-101938667D01*
X142486625Y-101935592D01*
X142499390Y-101927312D01*
X142517027Y-101915241D01*
X142529840Y-101906211D01*
X142564418Y-101879289D01*
X142602448Y-101845737D01*
X142642209Y-101807420D01*
X142681975Y-101766200D01*
X142720023Y-101723941D01*
X142754630Y-101682507D01*
X142784071Y-101643759D01*
X142806624Y-101609562D01*
X142810497Y-101602822D01*
X142844288Y-101535264D01*
X142875264Y-101459080D01*
X142903466Y-101374036D01*
X142928933Y-101279899D01*
X142951707Y-101176436D01*
X142971828Y-101063412D01*
X142989335Y-100940594D01*
X143004269Y-100807749D01*
X143016670Y-100664643D01*
X143026579Y-100511042D01*
X143034036Y-100346713D01*
X143035774Y-100296134D01*
X143037290Y-100243868D01*
X143038649Y-100187602D01*
X143039795Y-100130417D01*
X143040674Y-100075394D01*
X143041228Y-100025617D01*
X143041404Y-99985689D01*
X143041697Y-99939172D01*
X143042548Y-99885378D01*
X143043862Y-99828300D01*
X143045544Y-99771931D01*
X143047498Y-99720265D01*
X143048055Y-99707741D01*
X143049749Y-99668391D01*
X143051044Y-99632843D01*
X143051904Y-99602626D01*
X143052292Y-99579269D01*
X143052172Y-99564304D01*
X143051612Y-99559286D01*
X143045376Y-99559377D01*
X143029761Y-99561435D01*
X143006451Y-99565185D01*
X142977132Y-99570351D01*
X142943486Y-99576659D01*
X142933508Y-99578594D01*
X142808752Y-99601098D01*
X142679174Y-99620724D01*
X142543065Y-99637694D01*
X142398716Y-99652227D01*
X142296445Y-99660718D01*
X142253048Y-99663442D01*
X142200812Y-99665727D01*
X142141437Y-99667573D01*
X142076623Y-99668976D01*
X142008069Y-99669935D01*
X141937477Y-99670446D01*
X141866545Y-99670508D01*
X141796975Y-99670118D01*
X141730464Y-99669274D01*
X141668715Y-99667974D01*
X141613426Y-99666214D01*
X141566298Y-99663993D01*
X141534445Y-99661785D01*
X141402826Y-99649796D01*
X141282260Y-99636968D01*
X141172538Y-99623273D01*
X141073454Y-99608684D01*
X140984799Y-99593172D01*
X140930248Y-99582059D01*
X140899392Y-99575446D01*
X140872198Y-99569784D01*
X140850669Y-99565478D01*
X140836808Y-99562930D01*
X140832797Y-99562409D01*
X140829618Y-99568019D01*
X140827213Y-99584596D01*
X140825582Y-99611843D01*
X140824727Y-99649466D01*
X140824648Y-99697167D01*
X140646512Y-99697167D01*
X140646229Y-99686691D01*
X140644827Y-99637734D01*
X140643438Y-99592053D01*
X140642115Y-99551239D01*
X140640908Y-99516881D01*
X140639869Y-99490570D01*
X140639051Y-99473896D01*
X140639026Y-99473487D01*
X140638079Y-99445815D01*
X140639495Y-99426360D01*
X140643527Y-99412248D01*
X140644614Y-99409924D01*
X140653108Y-99392898D01*
X140621054Y-99370918D01*
X140577740Y-99336384D01*
X140541440Y-99296519D01*
X140511415Y-99250104D01*
X140486923Y-99195924D01*
X140467227Y-99132760D01*
X140461255Y-99107978D01*
X140457722Y-99084107D01*
X140455352Y-99049072D01*
X140454147Y-99002941D01*
X140453999Y-98964045D01*
X140454031Y-98959731D01*
X140626716Y-98959731D01*
X140627416Y-98980938D01*
X140628023Y-98988034D01*
X140630972Y-99014900D01*
X140634643Y-99041100D01*
X140638613Y-99064298D01*
X140642461Y-99082164D01*
X140645766Y-99092366D01*
X140647146Y-99093867D01*
X140653196Y-99090507D01*
X140660557Y-99084494D01*
X140670330Y-99077853D01*
X140674424Y-99079189D01*
X140672447Y-99086504D01*
X140664009Y-99097800D01*
X140663312Y-99098537D01*
X140648135Y-99114378D01*
X140665339Y-99148806D01*
X140690457Y-99187272D01*
X140723148Y-99218380D01*
X140749248Y-99234662D01*
X140764410Y-99240813D01*
X140788258Y-99248477D01*
X140819500Y-99257373D01*
X140856848Y-99267222D01*
X140899011Y-99277742D01*
X140944700Y-99288654D01*
X140992624Y-99299677D01*
X141041495Y-99310531D01*
X141090023Y-99320935D01*
X141136917Y-99330609D01*
X141180887Y-99339273D01*
X141220645Y-99346645D01*
X141254901Y-99352446D01*
X141282364Y-99356396D01*
X141301744Y-99358213D01*
X141311753Y-99357618D01*
X141312573Y-99357131D01*
X141316824Y-99345592D01*
X141314536Y-99328702D01*
X141306501Y-99309691D01*
X141297708Y-99296633D01*
X141279224Y-99273632D01*
X141305666Y-99293816D01*
X141320649Y-99304668D01*
X141332229Y-99311995D01*
X141336954Y-99314000D01*
X141352754Y-99309957D01*
X141373739Y-99298653D01*
X141397669Y-99281329D01*
X141401070Y-99278541D01*
X141429695Y-99254734D01*
X141400226Y-99290304D01*
X141386433Y-99308202D01*
X141376095Y-99323998D01*
X141371001Y-99334885D01*
X141370756Y-99336556D01*
X141374412Y-99348013D01*
X141383230Y-99360802D01*
X141383456Y-99361050D01*
X141389075Y-99366309D01*
X141396151Y-99370392D01*
X141406522Y-99373709D01*
X141422027Y-99376674D01*
X141444503Y-99379697D01*
X141475788Y-99383189D01*
X141488129Y-99384491D01*
X141520009Y-99387565D01*
X141548686Y-99389839D01*
X141571956Y-99391175D01*
X141587615Y-99391437D01*
X141592598Y-99390984D01*
X141606140Y-99390563D01*
X141613359Y-99392956D01*
X141621093Y-99394367D01*
X141638485Y-99395642D01*
X141663905Y-99396725D01*
X141695722Y-99397557D01*
X141732305Y-99398081D01*
X141762890Y-99398238D01*
X141904156Y-99398413D01*
X141905371Y-99396696D01*
X141922372Y-99396696D01*
X141924928Y-99399414D01*
X141935494Y-99402221D01*
X141953111Y-99403464D01*
X141973652Y-99403151D01*
X141992990Y-99401290D01*
X142002927Y-99399262D01*
X142010934Y-99396607D01*
X142012107Y-99393434D01*
X142005537Y-99387655D01*
X141994561Y-99380069D01*
X141975719Y-99368941D01*
X141961277Y-99365766D01*
X141947641Y-99370525D01*
X141935238Y-99379745D01*
X141924426Y-99390207D01*
X141922372Y-99396696D01*
X141905371Y-99396696D01*
X141920619Y-99375163D01*
X141933417Y-99352038D01*
X141936051Y-99331391D01*
X141928456Y-99310648D01*
X141918597Y-99296633D01*
X141900112Y-99273632D01*
X141926555Y-99293816D01*
X141941538Y-99304668D01*
X141953118Y-99311995D01*
X141957843Y-99314000D01*
X141973643Y-99309957D01*
X141994628Y-99298653D01*
X142018558Y-99281329D01*
X142021959Y-99278541D01*
X142050584Y-99254734D01*
X142021114Y-99290304D01*
X142007325Y-99308183D01*
X141996988Y-99323939D01*
X141991891Y-99334772D01*
X141991645Y-99336432D01*
X141994941Y-99346678D01*
X142003389Y-99361498D01*
X142010418Y-99371417D01*
X142029192Y-99395845D01*
X142093674Y-99394412D01*
X142136285Y-99392591D01*
X142187589Y-99388972D01*
X142245180Y-99383815D01*
X142306651Y-99377384D01*
X142369596Y-99369942D01*
X142431610Y-99361753D01*
X142490286Y-99353077D01*
X142526642Y-99347106D01*
X142545796Y-99343456D01*
X142556000Y-99340050D01*
X142559493Y-99335612D01*
X142558525Y-99328911D01*
X142552930Y-99317258D01*
X142542969Y-99301898D01*
X142537973Y-99295227D01*
X142521001Y-99273632D01*
X142547444Y-99293816D01*
X142562427Y-99304668D01*
X142574007Y-99311995D01*
X142578732Y-99314000D01*
X142594531Y-99309957D01*
X142615517Y-99298653D01*
X142639446Y-99281329D01*
X142642848Y-99278541D01*
X142671473Y-99254734D01*
X142641275Y-99291180D01*
X142628278Y-99307890D01*
X142619609Y-99321084D01*
X142616575Y-99328675D01*
X142617181Y-99329661D01*
X142624031Y-99329141D01*
X142639805Y-99326738D01*
X142662377Y-99322859D01*
X142689617Y-99317914D01*
X142719399Y-99312310D01*
X142749593Y-99306457D01*
X142778071Y-99300762D01*
X142802705Y-99295636D01*
X142821368Y-99291486D01*
X142831930Y-99288721D01*
X142833312Y-99288161D01*
X142830637Y-99283738D01*
X142821072Y-99272764D01*
X142805838Y-99256541D01*
X142786152Y-99236373D01*
X142766498Y-99216774D01*
X142733954Y-99184293D01*
X142705277Y-99154884D01*
X142681215Y-99129376D01*
X142662521Y-99108594D01*
X142649945Y-99093369D01*
X142644238Y-99084527D01*
X142644788Y-99082578D01*
X142649953Y-99086408D01*
X142661618Y-99097000D01*
X142678432Y-99113006D01*
X142699041Y-99133081D01*
X142722093Y-99155877D01*
X142746235Y-99180046D01*
X142770114Y-99204242D01*
X142792377Y-99227119D01*
X142811671Y-99247328D01*
X142826645Y-99263523D01*
X142827739Y-99264743D01*
X142846778Y-99286041D01*
X142914169Y-99269499D01*
X142981559Y-99252957D01*
X143067325Y-99163534D01*
X143093117Y-99137075D01*
X143116075Y-99114355D01*
X143135091Y-99096409D01*
X143149056Y-99084271D01*
X143156861Y-99078975D01*
X143157978Y-99078968D01*
X143155560Y-99084156D01*
X143145906Y-99095897D01*
X143130061Y-99113072D01*
X143109069Y-99134560D01*
X143083974Y-99159242D01*
X143075378Y-99167508D01*
X142987889Y-99251190D01*
X143075095Y-99228834D01*
X143106325Y-99220478D01*
X143134910Y-99212186D01*
X143158488Y-99204691D01*
X143174701Y-99198724D01*
X143179498Y-99196434D01*
X143201311Y-99177585D01*
X143219561Y-99149173D01*
X143231187Y-99119766D01*
X143236323Y-99096359D01*
X143240228Y-99064938D01*
X143242777Y-99028723D01*
X143243844Y-98990935D01*
X143243304Y-98954793D01*
X143241033Y-98923518D01*
X143239292Y-98911180D01*
X143233920Y-98882369D01*
X143227614Y-98851854D01*
X143220879Y-98821727D01*
X143214221Y-98794079D01*
X143208146Y-98771002D01*
X143203159Y-98754587D01*
X143199767Y-98746926D01*
X143199507Y-98746703D01*
X143193377Y-98748795D01*
X143181013Y-98756886D01*
X143164614Y-98769467D01*
X143156493Y-98776200D01*
X143118250Y-98808645D01*
X143145210Y-98775544D01*
X143164399Y-98750540D01*
X143175694Y-98730948D01*
X143179355Y-98714376D01*
X143175643Y-98698427D01*
X143164817Y-98680709D01*
X143156637Y-98670215D01*
X143147741Y-98659041D01*
X143145901Y-98655716D01*
X143150913Y-98659449D01*
X143154671Y-98662638D01*
X143166588Y-98672243D01*
X143175514Y-98678461D01*
X143176970Y-98675563D01*
X143174693Y-98664113D01*
X143169311Y-98645969D01*
X143161455Y-98622992D01*
X143151752Y-98597041D01*
X143140831Y-98569976D01*
X143131743Y-98549002D01*
X143114485Y-98510535D01*
X143087876Y-98535447D01*
X143071106Y-98551154D01*
X143049936Y-98570990D01*
X143028200Y-98591364D01*
X143022080Y-98597102D01*
X143009716Y-98608475D01*
X143004137Y-98612994D01*
X143005556Y-98610376D01*
X143014184Y-98600338D01*
X143030235Y-98582598D01*
X143045683Y-98565792D01*
X143108473Y-98497740D01*
X143084421Y-98452725D01*
X143052671Y-98396669D01*
X143019239Y-98344998D01*
X142984403Y-98297136D01*
X142966771Y-98274933D01*
X142946521Y-98250973D01*
X142925114Y-98226808D01*
X142904006Y-98203989D01*
X142884659Y-98184068D01*
X142868530Y-98168595D01*
X142857079Y-98159123D01*
X142852499Y-98156889D01*
X142843171Y-98160845D01*
X142838285Y-98165388D01*
X142832080Y-98171780D01*
X142819017Y-98184501D01*
X142800511Y-98202199D01*
X142777976Y-98223522D01*
X142752826Y-98247116D01*
X142751516Y-98248341D01*
X142727423Y-98270646D01*
X142711155Y-98285240D01*
X142702737Y-98292091D01*
X142702196Y-98291165D01*
X142709555Y-98282428D01*
X142724842Y-98265848D01*
X142748081Y-98241390D01*
X142779298Y-98209021D01*
X142789851Y-98198145D01*
X142810594Y-98176529D01*
X142824329Y-98161315D01*
X142832101Y-98150994D01*
X142834957Y-98144059D01*
X142833942Y-98139001D01*
X142832393Y-98136804D01*
X142823071Y-98127752D01*
X142806726Y-98113952D01*
X142785589Y-98097120D01*
X142761891Y-98078972D01*
X142737864Y-98061225D01*
X142715739Y-98045594D01*
X142701662Y-98036246D01*
X142669435Y-98015723D01*
X142640984Y-98049910D01*
X142627455Y-98067347D01*
X142617413Y-98082536D01*
X142612682Y-98092663D01*
X142612534Y-98093837D01*
X142614203Y-98102405D01*
X142619916Y-98113678D01*
X142630730Y-98129276D01*
X142647701Y-98150820D01*
X142657337Y-98162534D01*
X142683089Y-98193578D01*
X142652045Y-98167826D01*
X142627382Y-98147821D01*
X142609376Y-98134439D01*
X142596410Y-98126624D01*
X142586865Y-98123319D01*
X142583377Y-98123022D01*
X142574895Y-98126509D01*
X142560571Y-98135818D01*
X142542956Y-98149225D01*
X142535513Y-98155389D01*
X142497361Y-98187756D01*
X142524321Y-98154655D01*
X142543576Y-98129521D01*
X142554880Y-98109802D01*
X142558485Y-98093158D01*
X142554642Y-98077248D01*
X142543601Y-98059730D01*
X142535574Y-98049771D01*
X142519592Y-98030778D01*
X142546740Y-98051500D01*
X142563090Y-98063675D01*
X142573919Y-98069944D01*
X142582640Y-98071296D01*
X142592670Y-98068718D01*
X142598597Y-98066511D01*
X142610760Y-98060113D01*
X142626057Y-98049760D01*
X142641651Y-98037705D01*
X142654706Y-98026202D01*
X142662386Y-98017503D01*
X142663334Y-98015077D01*
X142658524Y-98011038D01*
X142645382Y-98003245D01*
X142625836Y-97992650D01*
X142601815Y-97980205D01*
X142575246Y-97966862D01*
X142548059Y-97953574D01*
X142522182Y-97941292D01*
X142499543Y-97930968D01*
X142482072Y-97923554D01*
X142471696Y-97920002D01*
X142470386Y-97919829D01*
X142462749Y-97923518D01*
X142449001Y-97933565D01*
X142431098Y-97948430D01*
X142411196Y-97966389D01*
X142361508Y-98012956D01*
X142408248Y-97962156D01*
X142454989Y-97911356D01*
X142373535Y-97884898D01*
X142341715Y-97874840D01*
X142310553Y-97865480D01*
X142283077Y-97857694D01*
X142262314Y-97852361D01*
X142257637Y-97851326D01*
X142238611Y-97847650D01*
X142226717Y-97846964D01*
X142218030Y-97849976D01*
X142208629Y-97857392D01*
X142204785Y-97860851D01*
X142186378Y-97877489D01*
X142217136Y-97843303D01*
X142176256Y-97830613D01*
X142130573Y-97811157D01*
X142091937Y-97783630D01*
X142061411Y-97748801D01*
X142059682Y-97746225D01*
X142040230Y-97716735D01*
X142025815Y-97729220D01*
X142016873Y-97736884D01*
X142015447Y-97737566D01*
X142021609Y-97730730D01*
X142026288Y-97725692D01*
X142035856Y-97713733D01*
X142038341Y-97703208D01*
X142035579Y-97689409D01*
X142033697Y-97676336D01*
X142032456Y-97654634D01*
X142031935Y-97626949D01*
X142032217Y-97595928D01*
X142032449Y-97587047D01*
X142033718Y-97552700D01*
X142035468Y-97526461D01*
X142038171Y-97505149D01*
X142042301Y-97485583D01*
X142048330Y-97464581D01*
X142052614Y-97451303D01*
X142062507Y-97424689D01*
X142076909Y-97390459D01*
X142094752Y-97350815D01*
X142114964Y-97307954D01*
X142136478Y-97264077D01*
X142158222Y-97221381D01*
X142179128Y-97182068D01*
X142198125Y-97148335D01*
X142207710Y-97132416D01*
X142265925Y-97048082D01*
X142333030Y-96967136D01*
X142407241Y-96891329D01*
X142486773Y-96822414D01*
X142569841Y-96762140D01*
X142611402Y-96736229D01*
X142679838Y-96699270D01*
X142753144Y-96665780D01*
X142827742Y-96637201D01*
X142900052Y-96614975D01*
X142931031Y-96607400D01*
X142948717Y-96603406D01*
X142960800Y-96599938D01*
X142966617Y-96596240D01*
X142965504Y-96591555D01*
X142956798Y-96585127D01*
X142939836Y-96576199D01*
X142913955Y-96564016D01*
X142879007Y-96548055D01*
X142844006Y-96532010D01*
X142805242Y-96514098D01*
X142767332Y-96496459D01*
X142734893Y-96481234D01*
X142733685Y-96480664D01*
X142665748Y-96448552D01*
X142584108Y-96516592D01*
X142470398Y-96617298D01*
X142366302Y-96721793D01*
X142272261Y-96829597D01*
X142188716Y-96940227D01*
X142164739Y-96975440D01*
X142103643Y-97073058D01*
X142051640Y-97168621D01*
X142007558Y-97264779D01*
X141970229Y-97364186D01*
X141938482Y-97469491D01*
X141926895Y-97514633D01*
X141914356Y-97563139D01*
X141903012Y-97601256D01*
X141892604Y-97629791D01*
X141884390Y-97646955D01*
X141866567Y-97678536D01*
X141885666Y-97698990D01*
X141903686Y-97718975D01*
X141913747Y-97731892D01*
X141916234Y-97738277D01*
X141914437Y-97739200D01*
X141907989Y-97735488D01*
X141896419Y-97725825D01*
X141884259Y-97714286D01*
X141859293Y-97689372D01*
X141839391Y-97707237D01*
X141798356Y-97738323D01*
X141754355Y-97761287D01*
X141726356Y-97770827D01*
X141706944Y-97776437D01*
X141691862Y-97781584D01*
X141684594Y-97785021D01*
X141683405Y-97791308D01*
X141688805Y-97803149D01*
X141701252Y-97821285D01*
X141721201Y-97846458D01*
X141725870Y-97852089D01*
X141751756Y-97883134D01*
X141720711Y-97857381D01*
X141696048Y-97837377D01*
X141678043Y-97823995D01*
X141665076Y-97816179D01*
X141655532Y-97812875D01*
X141652043Y-97812578D01*
X141643545Y-97816064D01*
X141629223Y-97825368D01*
X141611643Y-97838755D01*
X141604493Y-97844678D01*
X141566656Y-97876778D01*
X141595706Y-97840728D01*
X141609155Y-97823492D01*
X141619301Y-97809450D01*
X141624443Y-97800992D01*
X141624756Y-97799905D01*
X141619879Y-97797735D01*
X141607752Y-97798254D01*
X141603589Y-97798902D01*
X141591601Y-97801772D01*
X141572424Y-97807178D01*
X141548335Y-97814393D01*
X141521608Y-97822693D01*
X141494519Y-97831349D01*
X141469345Y-97839636D01*
X141448359Y-97846828D01*
X141433839Y-97852198D01*
X141428156Y-97854896D01*
X141431004Y-97859609D01*
X141440642Y-97870972D01*
X141455865Y-97887662D01*
X141475470Y-97908357D01*
X141496239Y-97929693D01*
X141532154Y-97966413D01*
X141560079Y-97995566D01*
X141580204Y-98017366D01*
X141592718Y-98032026D01*
X141597810Y-98039761D01*
X141595669Y-98040785D01*
X141593711Y-98039850D01*
X141586528Y-98034144D01*
X141572823Y-98021606D01*
X141553925Y-98003515D01*
X141531163Y-97981152D01*
X141505868Y-97955794D01*
X141496551Y-97946336D01*
X141410680Y-97858870D01*
X141346105Y-97891225D01*
X141287293Y-97923263D01*
X141226815Y-97960901D01*
X141167039Y-98002389D01*
X141110333Y-98045978D01*
X141059066Y-98089916D01*
X141015606Y-98132454D01*
X141007025Y-98141787D01*
X140935104Y-98228284D01*
X140866730Y-98323425D01*
X140813627Y-98407758D01*
X140783756Y-98458248D01*
X140865051Y-98540402D01*
X140902399Y-98578366D01*
X140931872Y-98608834D01*
X140953750Y-98632119D01*
X140968313Y-98648534D01*
X140975839Y-98658390D01*
X140976608Y-98662001D01*
X140972498Y-98660577D01*
X140965326Y-98654861D01*
X140951606Y-98642252D01*
X140932617Y-98623990D01*
X140909639Y-98601315D01*
X140883951Y-98575469D01*
X140869900Y-98561138D01*
X140778915Y-98467909D01*
X140750089Y-98527221D01*
X140726977Y-98576083D01*
X140709751Y-98615466D01*
X140698365Y-98645497D01*
X140692772Y-98666299D01*
X140692925Y-98678000D01*
X140693748Y-98679392D01*
X140707468Y-98689463D01*
X140724778Y-98690309D01*
X140746323Y-98681768D01*
X140772747Y-98663677D01*
X140780181Y-98657652D01*
X140808806Y-98633845D01*
X140779337Y-98669415D01*
X140765566Y-98687173D01*
X140755235Y-98702659D01*
X140750122Y-98713139D01*
X140749867Y-98714726D01*
X140751536Y-98723294D01*
X140757249Y-98734567D01*
X140768063Y-98750164D01*
X140785035Y-98771708D01*
X140794670Y-98783422D01*
X140820422Y-98814467D01*
X140789378Y-98788715D01*
X140763689Y-98767814D01*
X140744556Y-98753873D01*
X140730081Y-98746371D01*
X140718365Y-98744785D01*
X140707510Y-98748596D01*
X140695617Y-98757281D01*
X140690607Y-98761596D01*
X140675975Y-98772936D01*
X140668375Y-98775666D01*
X140668309Y-98770208D01*
X140676280Y-98756987D01*
X140679682Y-98752394D01*
X140690565Y-98733103D01*
X140695152Y-98713798D01*
X140692914Y-98697830D01*
X140689162Y-98692237D01*
X140684765Y-98692233D01*
X140679551Y-98701201D01*
X140672993Y-98720122D01*
X140671564Y-98724881D01*
X140666504Y-98742107D01*
X140662600Y-98755952D01*
X140659220Y-98769067D01*
X140655730Y-98784104D01*
X140651498Y-98803713D01*
X140645893Y-98830546D01*
X140642789Y-98845511D01*
X140636598Y-98876557D01*
X140633150Y-98899013D01*
X140632659Y-98915291D01*
X140635335Y-98927801D01*
X140641392Y-98938956D01*
X140651041Y-98951166D01*
X140652214Y-98952541D01*
X140662711Y-98965752D01*
X140665385Y-98971642D01*
X140661628Y-98970798D01*
X140648907Y-98961835D01*
X140642878Y-98955886D01*
X140634199Y-98947741D01*
X140628894Y-98948844D01*
X140626716Y-98959731D01*
X140454031Y-98959731D01*
X140454306Y-98923250D01*
X140455080Y-98890960D01*
X140456557Y-98864395D01*
X140458975Y-98840773D01*
X140462572Y-98817313D01*
X140467586Y-98791234D01*
X140469601Y-98781541D01*
X140500175Y-98662483D01*
X140541625Y-98544528D01*
X140594040Y-98427486D01*
X140657512Y-98311167D01*
X140732129Y-98195382D01*
X140778229Y-98131489D01*
X140830787Y-98064803D01*
X140883735Y-98005160D01*
X140939304Y-97950472D01*
X140999723Y-97898654D01*
X141067220Y-97847621D01*
X141122066Y-97809782D01*
X141197466Y-97762696D01*
X141273180Y-97722287D01*
X141351465Y-97687630D01*
X141434579Y-97657800D01*
X141524779Y-97631873D01*
X141599356Y-97614232D01*
X141629344Y-97607229D01*
X141656701Y-97599988D01*
X141678853Y-97593252D01*
X141693229Y-97587760D01*
X141695526Y-97586536D01*
X141708222Y-97576538D01*
X141719182Y-97562356D01*
X141729090Y-97542457D01*
X141738630Y-97515306D01*
X141748487Y-97479368D01*
X141754558Y-97454156D01*
X141790087Y-97326001D01*
X141836803Y-97199093D01*
X141894716Y-97073416D01*
X141963834Y-96948954D01*
X142044164Y-96825691D01*
X142127547Y-96713877D01*
X142160239Y-96674670D01*
X142200080Y-96630326D01*
X142245294Y-96582620D01*
X142294104Y-96533325D01*
X142344731Y-96484216D01*
X142395400Y-96437064D01*
X142444332Y-96393646D01*
X142471259Y-96370837D01*
X142510276Y-96338514D01*
X142541748Y-96312692D01*
X142566781Y-96292621D01*
X142586480Y-96277547D01*
X142601949Y-96266719D01*
X142614294Y-96259385D01*
X142624621Y-96254793D01*
X142634033Y-96252191D01*
X142643638Y-96250826D01*
X142648211Y-96250424D01*
X142660154Y-96249895D01*
X142671301Y-96250857D01*
G36*
X140787374Y-99086413D02*
X140799088Y-99097003D01*
X140815892Y-99112977D01*
X140836412Y-99132964D01*
X140859276Y-99155592D01*
X140883110Y-99179491D01*
X140906541Y-99203288D01*
X140928196Y-99225613D01*
X140946703Y-99245095D01*
X140960687Y-99260361D01*
X140964393Y-99264611D01*
X140975955Y-99278791D01*
X140979940Y-99285262D01*
X140976727Y-99284323D01*
X140966694Y-99276276D01*
X140950222Y-99261418D01*
X140927690Y-99240051D01*
X140903690Y-99216634D01*
X140871191Y-99184197D01*
X140842546Y-99154820D01*
X140818509Y-99129334D01*
X140799832Y-99108569D01*
X140787268Y-99093354D01*
X140781570Y-99084521D01*
X140782122Y-99082578D01*
X140787374Y-99086413D01*
X140787374Y-99086413D01*
G37*
X140787374Y-99086413D02*
X140799088Y-99097003D01*
X140815892Y-99112977D01*
X140836412Y-99132964D01*
X140859276Y-99155592D01*
X140883110Y-99179491D01*
X140906541Y-99203288D01*
X140928196Y-99225613D01*
X140946703Y-99245095D01*
X140960687Y-99260361D01*
X140964393Y-99264611D01*
X140975955Y-99278791D01*
X140979940Y-99285262D01*
X140976727Y-99284323D01*
X140966694Y-99276276D01*
X140950222Y-99261418D01*
X140927690Y-99240051D01*
X140903690Y-99216634D01*
X140871191Y-99184197D01*
X140842546Y-99154820D01*
X140818509Y-99129334D01*
X140799832Y-99108569D01*
X140787268Y-99093354D01*
X140781570Y-99084521D01*
X140782122Y-99082578D01*
X140787374Y-99086413D01*
G36*
X141408262Y-99086413D02*
X141419977Y-99097003D01*
X141436781Y-99112977D01*
X141457301Y-99132964D01*
X141480165Y-99155592D01*
X141503999Y-99179491D01*
X141527430Y-99203288D01*
X141549085Y-99225613D01*
X141567592Y-99245095D01*
X141581576Y-99260361D01*
X141585282Y-99264611D01*
X141596844Y-99278791D01*
X141600829Y-99285262D01*
X141597615Y-99284323D01*
X141587583Y-99276276D01*
X141571111Y-99261418D01*
X141548579Y-99240051D01*
X141524579Y-99216634D01*
X141492080Y-99184197D01*
X141463435Y-99154820D01*
X141439398Y-99129334D01*
X141420721Y-99108569D01*
X141408157Y-99093354D01*
X141402459Y-99084521D01*
X141403011Y-99082578D01*
X141408262Y-99086413D01*
X141408262Y-99086413D01*
G37*
X141408262Y-99086413D02*
X141419977Y-99097003D01*
X141436781Y-99112977D01*
X141457301Y-99132964D01*
X141480165Y-99155592D01*
X141503999Y-99179491D01*
X141527430Y-99203288D01*
X141549085Y-99225613D01*
X141567592Y-99245095D01*
X141581576Y-99260361D01*
X141585282Y-99264611D01*
X141596844Y-99278791D01*
X141600829Y-99285262D01*
X141597615Y-99284323D01*
X141587583Y-99276276D01*
X141571111Y-99261418D01*
X141548579Y-99240051D01*
X141524579Y-99216634D01*
X141492080Y-99184197D01*
X141463435Y-99154820D01*
X141439398Y-99129334D01*
X141420721Y-99108569D01*
X141408157Y-99093354D01*
X141402459Y-99084521D01*
X141403011Y-99082578D01*
X141408262Y-99086413D01*
G36*
X142029151Y-99086413D02*
X142040866Y-99097003D01*
X142057670Y-99112977D01*
X142078190Y-99132964D01*
X142101054Y-99155592D01*
X142124888Y-99179491D01*
X142148319Y-99203288D01*
X142169974Y-99225613D01*
X142188481Y-99245095D01*
X142202465Y-99260361D01*
X142206171Y-99264611D01*
X142217733Y-99278791D01*
X142221718Y-99285262D01*
X142218504Y-99284323D01*
X142208472Y-99276276D01*
X142192000Y-99261418D01*
X142169468Y-99240051D01*
X142145467Y-99216634D01*
X142112968Y-99184197D01*
X142084324Y-99154820D01*
X142060287Y-99129334D01*
X142041610Y-99108569D01*
X142029046Y-99093354D01*
X142023347Y-99084521D01*
X142023899Y-99082578D01*
X142029151Y-99086413D01*
X142029151Y-99086413D01*
G37*
X142029151Y-99086413D02*
X142040866Y-99097003D01*
X142057670Y-99112977D01*
X142078190Y-99132964D01*
X142101054Y-99155592D01*
X142124888Y-99179491D01*
X142148319Y-99203288D01*
X142169974Y-99225613D01*
X142188481Y-99245095D01*
X142202465Y-99260361D01*
X142206171Y-99264611D01*
X142217733Y-99278791D01*
X142221718Y-99285262D01*
X142218504Y-99284323D01*
X142208472Y-99276276D01*
X142192000Y-99261418D01*
X142169468Y-99240051D01*
X142145467Y-99216634D01*
X142112968Y-99184197D01*
X142084324Y-99154820D01*
X142060287Y-99129334D01*
X142041610Y-99108569D01*
X142029046Y-99093354D01*
X142023347Y-99084521D01*
X142023899Y-99082578D01*
X142029151Y-99086413D01*
G36*
X141295358Y-99078677D02*
X141296460Y-99081100D01*
X141295169Y-99084975D01*
X141290607Y-99091228D01*
X141281896Y-99100783D01*
X141268158Y-99114567D01*
X141248513Y-99133503D01*
X141222085Y-99158518D01*
X141198600Y-99180588D01*
X141119578Y-99254734D01*
X141182591Y-99187000D01*
X141215842Y-99151481D01*
X141242289Y-99123775D01*
X141262603Y-99103236D01*
X141277457Y-99089219D01*
X141287523Y-99081078D01*
X141293472Y-99078168D01*
X141295358Y-99078677D01*
X141295358Y-99078677D01*
G37*
X141295358Y-99078677D02*
X141296460Y-99081100D01*
X141295169Y-99084975D01*
X141290607Y-99091228D01*
X141281896Y-99100783D01*
X141268158Y-99114567D01*
X141248513Y-99133503D01*
X141222085Y-99158518D01*
X141198600Y-99180588D01*
X141119578Y-99254734D01*
X141182591Y-99187000D01*
X141215842Y-99151481D01*
X141242289Y-99123775D01*
X141262603Y-99103236D01*
X141277457Y-99089219D01*
X141287523Y-99081078D01*
X141293472Y-99078168D01*
X141295358Y-99078677D01*
G36*
X141916247Y-99078677D02*
X141917349Y-99081100D01*
X141916058Y-99084975D01*
X141911496Y-99091228D01*
X141902785Y-99100783D01*
X141889047Y-99114567D01*
X141869402Y-99133503D01*
X141842974Y-99158518D01*
X141819489Y-99180588D01*
X141740467Y-99254734D01*
X141803480Y-99187000D01*
X141836731Y-99151481D01*
X141863178Y-99123775D01*
X141883492Y-99103236D01*
X141898346Y-99089219D01*
X141908412Y-99081078D01*
X141914361Y-99078168D01*
X141916247Y-99078677D01*
X141916247Y-99078677D01*
G37*
X141916247Y-99078677D02*
X141917349Y-99081100D01*
X141916058Y-99084975D01*
X141911496Y-99091228D01*
X141902785Y-99100783D01*
X141889047Y-99114567D01*
X141869402Y-99133503D01*
X141842974Y-99158518D01*
X141819489Y-99180588D01*
X141740467Y-99254734D01*
X141803480Y-99187000D01*
X141836731Y-99151481D01*
X141863178Y-99123775D01*
X141883492Y-99103236D01*
X141898346Y-99089219D01*
X141908412Y-99081078D01*
X141914361Y-99078168D01*
X141916247Y-99078677D01*
G36*
X142537136Y-99078677D02*
X142538238Y-99081100D01*
X142536947Y-99084975D01*
X142532385Y-99091228D01*
X142523674Y-99100783D01*
X142509936Y-99114567D01*
X142490291Y-99133503D01*
X142463862Y-99158518D01*
X142440378Y-99180588D01*
X142361356Y-99254734D01*
X142424368Y-99187000D01*
X142457620Y-99151481D01*
X142484067Y-99123775D01*
X142504381Y-99103236D01*
X142519235Y-99089219D01*
X142529301Y-99081078D01*
X142535250Y-99078168D01*
X142537136Y-99078677D01*
X142537136Y-99078677D01*
G37*
X142537136Y-99078677D02*
X142538238Y-99081100D01*
X142536947Y-99084975D01*
X142532385Y-99091228D01*
X142523674Y-99100783D01*
X142509936Y-99114567D01*
X142490291Y-99133503D01*
X142463862Y-99158518D01*
X142440378Y-99180588D01*
X142361356Y-99254734D01*
X142424368Y-99187000D01*
X142457620Y-99151481D01*
X142484067Y-99123775D01*
X142504381Y-99103236D01*
X142519235Y-99089219D01*
X142529301Y-99081078D01*
X142535250Y-99078168D01*
X142537136Y-99078677D01*
G36*
X141089781Y-98979860D02*
X141076011Y-98997617D01*
X141065679Y-99013104D01*
X141060566Y-99023583D01*
X141060311Y-99025171D01*
X141062210Y-99034326D01*
X141068597Y-99046465D01*
X141080513Y-99063173D01*
X141098996Y-99086037D01*
X141104389Y-99092456D01*
X141118695Y-99109706D01*
X141125480Y-99118842D01*
X141124769Y-99120142D01*
X141116588Y-99113888D01*
X141105467Y-99104322D01*
X141079036Y-99082339D01*
X141056726Y-99066134D01*
X141039850Y-99056597D01*
X141031563Y-99054356D01*
X141022890Y-99057847D01*
X141008410Y-99067168D01*
X140990703Y-99080590D01*
X140983291Y-99086722D01*
X140945138Y-99119089D01*
X140972099Y-99085989D01*
X140991354Y-99060854D01*
X141002658Y-99041136D01*
X141006263Y-99024492D01*
X141002419Y-99008581D01*
X140991379Y-98991064D01*
X140983352Y-98981104D01*
X140967370Y-98962112D01*
X140994518Y-98982834D01*
X141009689Y-98993845D01*
X141021470Y-99001360D01*
X141026510Y-99003556D01*
X141042309Y-98999512D01*
X141063295Y-98988209D01*
X141087224Y-98970885D01*
X141090625Y-98968097D01*
X141119251Y-98944289D01*
X141089781Y-98979860D01*
X141089781Y-98979860D01*
G37*
X141089781Y-98979860D02*
X141076011Y-98997617D01*
X141065679Y-99013104D01*
X141060566Y-99023583D01*
X141060311Y-99025171D01*
X141062210Y-99034326D01*
X141068597Y-99046465D01*
X141080513Y-99063173D01*
X141098996Y-99086037D01*
X141104389Y-99092456D01*
X141118695Y-99109706D01*
X141125480Y-99118842D01*
X141124769Y-99120142D01*
X141116588Y-99113888D01*
X141105467Y-99104322D01*
X141079036Y-99082339D01*
X141056726Y-99066134D01*
X141039850Y-99056597D01*
X141031563Y-99054356D01*
X141022890Y-99057847D01*
X141008410Y-99067168D01*
X140990703Y-99080590D01*
X140983291Y-99086722D01*
X140945138Y-99119089D01*
X140972099Y-99085989D01*
X140991354Y-99060854D01*
X141002658Y-99041136D01*
X141006263Y-99024492D01*
X141002419Y-99008581D01*
X140991379Y-98991064D01*
X140983352Y-98981104D01*
X140967370Y-98962112D01*
X140994518Y-98982834D01*
X141009689Y-98993845D01*
X141021470Y-99001360D01*
X141026510Y-99003556D01*
X141042309Y-98999512D01*
X141063295Y-98988209D01*
X141087224Y-98970885D01*
X141090625Y-98968097D01*
X141119251Y-98944289D01*
X141089781Y-98979860D01*
G36*
X141710670Y-98979860D02*
X141696900Y-98997617D01*
X141686568Y-99013104D01*
X141681455Y-99023583D01*
X141681200Y-99025171D01*
X141683098Y-99034326D01*
X141689486Y-99046465D01*
X141701402Y-99063173D01*
X141719885Y-99086037D01*
X141725278Y-99092456D01*
X141739584Y-99109706D01*
X141746369Y-99118842D01*
X141745658Y-99120142D01*
X141737477Y-99113888D01*
X141726356Y-99104322D01*
X141699925Y-99082339D01*
X141677615Y-99066134D01*
X141660739Y-99056597D01*
X141652452Y-99054356D01*
X141643778Y-99057847D01*
X141629299Y-99067168D01*
X141611592Y-99080590D01*
X141604179Y-99086722D01*
X141566027Y-99119089D01*
X141592988Y-99085989D01*
X141612243Y-99060854D01*
X141623547Y-99041136D01*
X141627152Y-99024492D01*
X141623308Y-99008581D01*
X141612268Y-98991064D01*
X141604240Y-98981104D01*
X141588259Y-98962112D01*
X141615406Y-98982834D01*
X141630578Y-98993845D01*
X141642359Y-99001360D01*
X141647398Y-99003556D01*
X141663198Y-98999512D01*
X141684184Y-98988209D01*
X141708113Y-98970885D01*
X141711514Y-98968097D01*
X141740140Y-98944289D01*
X141710670Y-98979860D01*
X141710670Y-98979860D01*
G37*
X141710670Y-98979860D02*
X141696900Y-98997617D01*
X141686568Y-99013104D01*
X141681455Y-99023583D01*
X141681200Y-99025171D01*
X141683098Y-99034326D01*
X141689486Y-99046465D01*
X141701402Y-99063173D01*
X141719885Y-99086037D01*
X141725278Y-99092456D01*
X141739584Y-99109706D01*
X141746369Y-99118842D01*
X141745658Y-99120142D01*
X141737477Y-99113888D01*
X141726356Y-99104322D01*
X141699925Y-99082339D01*
X141677615Y-99066134D01*
X141660739Y-99056597D01*
X141652452Y-99054356D01*
X141643778Y-99057847D01*
X141629299Y-99067168D01*
X141611592Y-99080590D01*
X141604179Y-99086722D01*
X141566027Y-99119089D01*
X141592988Y-99085989D01*
X141612243Y-99060854D01*
X141623547Y-99041136D01*
X141627152Y-99024492D01*
X141623308Y-99008581D01*
X141612268Y-98991064D01*
X141604240Y-98981104D01*
X141588259Y-98962112D01*
X141615406Y-98982834D01*
X141630578Y-98993845D01*
X141642359Y-99001360D01*
X141647398Y-99003556D01*
X141663198Y-98999512D01*
X141684184Y-98988209D01*
X141708113Y-98970885D01*
X141711514Y-98968097D01*
X141740140Y-98944289D01*
X141710670Y-98979860D01*
G36*
X142331559Y-98979860D02*
X142317788Y-98997617D01*
X142307457Y-99013104D01*
X142302344Y-99023583D01*
X142302089Y-99025171D01*
X142303987Y-99034326D01*
X142310375Y-99046465D01*
X142322291Y-99063173D01*
X142340774Y-99086037D01*
X142346167Y-99092456D01*
X142360473Y-99109706D01*
X142367258Y-99118842D01*
X142366547Y-99120142D01*
X142358366Y-99113888D01*
X142347245Y-99104322D01*
X142320814Y-99082339D01*
X142298504Y-99066134D01*
X142281628Y-99056597D01*
X142273341Y-99054356D01*
X142264667Y-99057847D01*
X142250188Y-99067168D01*
X142232481Y-99080590D01*
X142225068Y-99086722D01*
X142186916Y-99119089D01*
X142213877Y-99085989D01*
X142233132Y-99060854D01*
X142244436Y-99041136D01*
X142248041Y-99024492D01*
X142244197Y-99008581D01*
X142233157Y-98991064D01*
X142225129Y-98981104D01*
X142209148Y-98962112D01*
X142236295Y-98982834D01*
X142251467Y-98993845D01*
X142263248Y-99001360D01*
X142268287Y-99003556D01*
X142284087Y-98999512D01*
X142305073Y-98988209D01*
X142329002Y-98970885D01*
X142332403Y-98968097D01*
X142361029Y-98944289D01*
X142331559Y-98979860D01*
X142331559Y-98979860D01*
G37*
X142331559Y-98979860D02*
X142317788Y-98997617D01*
X142307457Y-99013104D01*
X142302344Y-99023583D01*
X142302089Y-99025171D01*
X142303987Y-99034326D01*
X142310375Y-99046465D01*
X142322291Y-99063173D01*
X142340774Y-99086037D01*
X142346167Y-99092456D01*
X142360473Y-99109706D01*
X142367258Y-99118842D01*
X142366547Y-99120142D01*
X142358366Y-99113888D01*
X142347245Y-99104322D01*
X142320814Y-99082339D01*
X142298504Y-99066134D01*
X142281628Y-99056597D01*
X142273341Y-99054356D01*
X142264667Y-99057847D01*
X142250188Y-99067168D01*
X142232481Y-99080590D01*
X142225068Y-99086722D01*
X142186916Y-99119089D01*
X142213877Y-99085989D01*
X142233132Y-99060854D01*
X142244436Y-99041136D01*
X142248041Y-99024492D01*
X142244197Y-99008581D01*
X142233157Y-98991064D01*
X142225129Y-98981104D01*
X142209148Y-98962112D01*
X142236295Y-98982834D01*
X142251467Y-98993845D01*
X142263248Y-99001360D01*
X142268287Y-99003556D01*
X142284087Y-98999512D01*
X142305073Y-98988209D01*
X142329002Y-98970885D01*
X142332403Y-98968097D01*
X142361029Y-98944289D01*
X142331559Y-98979860D01*
G36*
X142952448Y-98979860D02*
X142938677Y-98997617D01*
X142928346Y-99013104D01*
X142923233Y-99023583D01*
X142922978Y-99025171D01*
X142924876Y-99034326D01*
X142931264Y-99046465D01*
X142943180Y-99063173D01*
X142961663Y-99086037D01*
X142967056Y-99092456D01*
X142981362Y-99109706D01*
X142988147Y-99118842D01*
X142987436Y-99120142D01*
X142979255Y-99113888D01*
X142968134Y-99104322D01*
X142941703Y-99082339D01*
X142919393Y-99066134D01*
X142902517Y-99056597D01*
X142894230Y-99054356D01*
X142885556Y-99057847D01*
X142871076Y-99067168D01*
X142853370Y-99080590D01*
X142845957Y-99086722D01*
X142807805Y-99119089D01*
X142834766Y-99085989D01*
X142854020Y-99060854D01*
X142865325Y-99041136D01*
X142868929Y-99024492D01*
X142865086Y-99008581D01*
X142854046Y-98991064D01*
X142846018Y-98981104D01*
X142830037Y-98962112D01*
X142857184Y-98982834D01*
X142872356Y-98993845D01*
X142884137Y-99001360D01*
X142889176Y-99003556D01*
X142904976Y-98999512D01*
X142925962Y-98988209D01*
X142949891Y-98970885D01*
X142953292Y-98968097D01*
X142981918Y-98944289D01*
X142952448Y-98979860D01*
X142952448Y-98979860D01*
G37*
X142952448Y-98979860D02*
X142938677Y-98997617D01*
X142928346Y-99013104D01*
X142923233Y-99023583D01*
X142922978Y-99025171D01*
X142924876Y-99034326D01*
X142931264Y-99046465D01*
X142943180Y-99063173D01*
X142961663Y-99086037D01*
X142967056Y-99092456D01*
X142981362Y-99109706D01*
X142988147Y-99118842D01*
X142987436Y-99120142D01*
X142979255Y-99113888D01*
X142968134Y-99104322D01*
X142941703Y-99082339D01*
X142919393Y-99066134D01*
X142902517Y-99056597D01*
X142894230Y-99054356D01*
X142885556Y-99057847D01*
X142871076Y-99067168D01*
X142853370Y-99080590D01*
X142845957Y-99086722D01*
X142807805Y-99119089D01*
X142834766Y-99085989D01*
X142854020Y-99060854D01*
X142865325Y-99041136D01*
X142868929Y-99024492D01*
X142865086Y-99008581D01*
X142854046Y-98991064D01*
X142846018Y-98981104D01*
X142830037Y-98962112D01*
X142857184Y-98982834D01*
X142872356Y-98993845D01*
X142884137Y-99001360D01*
X142889176Y-99003556D01*
X142904976Y-98999512D01*
X142925962Y-98988209D01*
X142949891Y-98970885D01*
X142953292Y-98968097D01*
X142981918Y-98944289D01*
X142952448Y-98979860D01*
G36*
X141097818Y-98775968D02*
X141109532Y-98786558D01*
X141126336Y-98802532D01*
X141146857Y-98822519D01*
X141169720Y-98845148D01*
X141193554Y-98869046D01*
X141216986Y-98892844D01*
X141238641Y-98915169D01*
X141257147Y-98934650D01*
X141271132Y-98949917D01*
X141274837Y-98954167D01*
X141286399Y-98968346D01*
X141290384Y-98974817D01*
X141287171Y-98973879D01*
X141277139Y-98965831D01*
X141260667Y-98950974D01*
X141238134Y-98929606D01*
X141214134Y-98906189D01*
X141181635Y-98873752D01*
X141152991Y-98844376D01*
X141128954Y-98818890D01*
X141110277Y-98798124D01*
X141097712Y-98782910D01*
X141092014Y-98774077D01*
X141092566Y-98772134D01*
X141097818Y-98775968D01*
X141097818Y-98775968D01*
G37*
X141097818Y-98775968D02*
X141109532Y-98786558D01*
X141126336Y-98802532D01*
X141146857Y-98822519D01*
X141169720Y-98845148D01*
X141193554Y-98869046D01*
X141216986Y-98892844D01*
X141238641Y-98915169D01*
X141257147Y-98934650D01*
X141271132Y-98949917D01*
X141274837Y-98954167D01*
X141286399Y-98968346D01*
X141290384Y-98974817D01*
X141287171Y-98973879D01*
X141277139Y-98965831D01*
X141260667Y-98950974D01*
X141238134Y-98929606D01*
X141214134Y-98906189D01*
X141181635Y-98873752D01*
X141152991Y-98844376D01*
X141128954Y-98818890D01*
X141110277Y-98798124D01*
X141097712Y-98782910D01*
X141092014Y-98774077D01*
X141092566Y-98772134D01*
X141097818Y-98775968D01*
G36*
X141718707Y-98775968D02*
X141730421Y-98786558D01*
X141747225Y-98802532D01*
X141767746Y-98822519D01*
X141790609Y-98845148D01*
X141814443Y-98869046D01*
X141837875Y-98892844D01*
X141859530Y-98915169D01*
X141878036Y-98934650D01*
X141892020Y-98949917D01*
X141895726Y-98954167D01*
X141907288Y-98968346D01*
X141911273Y-98974817D01*
X141908060Y-98973879D01*
X141898028Y-98965831D01*
X141881556Y-98950974D01*
X141859023Y-98929606D01*
X141835023Y-98906189D01*
X141802524Y-98873752D01*
X141773880Y-98844376D01*
X141749842Y-98818890D01*
X141731165Y-98798124D01*
X141718601Y-98782910D01*
X141712903Y-98774077D01*
X141713455Y-98772134D01*
X141718707Y-98775968D01*
X141718707Y-98775968D01*
G37*
X141718707Y-98775968D02*
X141730421Y-98786558D01*
X141747225Y-98802532D01*
X141767746Y-98822519D01*
X141790609Y-98845148D01*
X141814443Y-98869046D01*
X141837875Y-98892844D01*
X141859530Y-98915169D01*
X141878036Y-98934650D01*
X141892020Y-98949917D01*
X141895726Y-98954167D01*
X141907288Y-98968346D01*
X141911273Y-98974817D01*
X141908060Y-98973879D01*
X141898028Y-98965831D01*
X141881556Y-98950974D01*
X141859023Y-98929606D01*
X141835023Y-98906189D01*
X141802524Y-98873752D01*
X141773880Y-98844376D01*
X141749842Y-98818890D01*
X141731165Y-98798124D01*
X141718601Y-98782910D01*
X141712903Y-98774077D01*
X141713455Y-98772134D01*
X141718707Y-98775968D01*
G36*
X142339596Y-98775968D02*
X142351310Y-98786558D01*
X142368114Y-98802532D01*
X142388635Y-98822519D01*
X142411498Y-98845148D01*
X142435332Y-98869046D01*
X142458763Y-98892844D01*
X142480419Y-98915169D01*
X142498925Y-98934650D01*
X142512909Y-98949917D01*
X142516615Y-98954167D01*
X142528177Y-98968346D01*
X142532162Y-98974817D01*
X142528949Y-98973879D01*
X142518917Y-98965831D01*
X142502445Y-98950974D01*
X142479912Y-98929606D01*
X142455912Y-98906189D01*
X142423413Y-98873752D01*
X142394768Y-98844376D01*
X142370731Y-98818890D01*
X142352054Y-98798124D01*
X142339490Y-98782910D01*
X142333792Y-98774077D01*
X142334344Y-98772134D01*
X142339596Y-98775968D01*
X142339596Y-98775968D01*
G37*
X142339596Y-98775968D02*
X142351310Y-98786558D01*
X142368114Y-98802532D01*
X142388635Y-98822519D01*
X142411498Y-98845148D01*
X142435332Y-98869046D01*
X142458763Y-98892844D01*
X142480419Y-98915169D01*
X142498925Y-98934650D01*
X142512909Y-98949917D01*
X142516615Y-98954167D01*
X142528177Y-98968346D01*
X142532162Y-98974817D01*
X142528949Y-98973879D01*
X142518917Y-98965831D01*
X142502445Y-98950974D01*
X142479912Y-98929606D01*
X142455912Y-98906189D01*
X142423413Y-98873752D01*
X142394768Y-98844376D01*
X142370731Y-98818890D01*
X142352054Y-98798124D01*
X142339490Y-98782910D01*
X142333792Y-98774077D01*
X142334344Y-98772134D01*
X142339596Y-98775968D01*
G36*
X142960485Y-98775968D02*
X142972199Y-98786558D01*
X142989003Y-98802532D01*
X143009523Y-98822519D01*
X143032387Y-98845148D01*
X143056221Y-98869046D01*
X143079652Y-98892844D01*
X143101308Y-98915169D01*
X143119814Y-98934650D01*
X143133798Y-98949917D01*
X143137504Y-98954167D01*
X143149066Y-98968346D01*
X143153051Y-98974817D01*
X143149838Y-98973879D01*
X143139806Y-98965831D01*
X143123334Y-98950974D01*
X143100801Y-98929606D01*
X143076801Y-98906189D01*
X143044302Y-98873752D01*
X143015657Y-98844376D01*
X142991620Y-98818890D01*
X142972943Y-98798124D01*
X142960379Y-98782910D01*
X142954681Y-98774077D01*
X142955233Y-98772134D01*
X142960485Y-98775968D01*
X142960485Y-98775968D01*
G37*
X142960485Y-98775968D02*
X142972199Y-98786558D01*
X142989003Y-98802532D01*
X143009523Y-98822519D01*
X143032387Y-98845148D01*
X143056221Y-98869046D01*
X143079652Y-98892844D01*
X143101308Y-98915169D01*
X143119814Y-98934650D01*
X143133798Y-98949917D01*
X143137504Y-98954167D01*
X143149066Y-98968346D01*
X143153051Y-98974817D01*
X143149838Y-98973879D01*
X143139806Y-98965831D01*
X143123334Y-98950974D01*
X143100801Y-98929606D01*
X143076801Y-98906189D01*
X143044302Y-98873752D01*
X143015657Y-98844376D01*
X142991620Y-98818890D01*
X142972943Y-98798124D01*
X142960379Y-98782910D01*
X142954681Y-98774077D01*
X142955233Y-98772134D01*
X142960485Y-98775968D01*
G36*
X140984914Y-98768232D02*
X140986015Y-98770655D01*
X140984724Y-98774530D01*
X140980163Y-98780783D01*
X140971452Y-98790339D01*
X140957713Y-98804122D01*
X140938069Y-98823059D01*
X140911640Y-98848074D01*
X140888156Y-98870144D01*
X140809134Y-98944289D01*
X140872146Y-98876556D01*
X140905398Y-98841037D01*
X140931844Y-98813331D01*
X140952159Y-98792792D01*
X140967013Y-98778775D01*
X140977078Y-98770634D01*
X140983027Y-98767723D01*
X140984914Y-98768232D01*
X140984914Y-98768232D01*
G37*
X140984914Y-98768232D02*
X140986015Y-98770655D01*
X140984724Y-98774530D01*
X140980163Y-98780783D01*
X140971452Y-98790339D01*
X140957713Y-98804122D01*
X140938069Y-98823059D01*
X140911640Y-98848074D01*
X140888156Y-98870144D01*
X140809134Y-98944289D01*
X140872146Y-98876556D01*
X140905398Y-98841037D01*
X140931844Y-98813331D01*
X140952159Y-98792792D01*
X140967013Y-98778775D01*
X140977078Y-98770634D01*
X140983027Y-98767723D01*
X140984914Y-98768232D01*
G36*
X141605803Y-98768232D02*
X141606904Y-98770655D01*
X141605613Y-98774530D01*
X141601052Y-98780783D01*
X141592341Y-98790339D01*
X141578602Y-98804122D01*
X141558958Y-98823059D01*
X141532529Y-98848074D01*
X141509045Y-98870144D01*
X141430022Y-98944289D01*
X141493035Y-98876556D01*
X141526286Y-98841037D01*
X141552733Y-98813331D01*
X141573048Y-98792792D01*
X141587902Y-98778775D01*
X141597967Y-98770634D01*
X141603916Y-98767723D01*
X141605803Y-98768232D01*
X141605803Y-98768232D01*
G37*
X141605803Y-98768232D02*
X141606904Y-98770655D01*
X141605613Y-98774530D01*
X141601052Y-98780783D01*
X141592341Y-98790339D01*
X141578602Y-98804122D01*
X141558958Y-98823059D01*
X141532529Y-98848074D01*
X141509045Y-98870144D01*
X141430022Y-98944289D01*
X141493035Y-98876556D01*
X141526286Y-98841037D01*
X141552733Y-98813331D01*
X141573048Y-98792792D01*
X141587902Y-98778775D01*
X141597967Y-98770634D01*
X141603916Y-98767723D01*
X141605803Y-98768232D01*
G36*
X142226692Y-98768232D02*
X142227793Y-98770655D01*
X142226502Y-98774530D01*
X142221940Y-98780783D01*
X142213230Y-98790339D01*
X142199491Y-98804122D01*
X142179847Y-98823059D01*
X142153418Y-98848074D01*
X142129934Y-98870144D01*
X142050911Y-98944289D01*
X142113924Y-98876556D01*
X142147175Y-98841037D01*
X142173622Y-98813331D01*
X142193937Y-98792792D01*
X142208791Y-98778775D01*
X142218856Y-98770634D01*
X142224805Y-98767723D01*
X142226692Y-98768232D01*
X142226692Y-98768232D01*
G37*
X142226692Y-98768232D02*
X142227793Y-98770655D01*
X142226502Y-98774530D01*
X142221940Y-98780783D01*
X142213230Y-98790339D01*
X142199491Y-98804122D01*
X142179847Y-98823059D01*
X142153418Y-98848074D01*
X142129934Y-98870144D01*
X142050911Y-98944289D01*
X142113924Y-98876556D01*
X142147175Y-98841037D01*
X142173622Y-98813331D01*
X142193937Y-98792792D01*
X142208791Y-98778775D01*
X142218856Y-98770634D01*
X142224805Y-98767723D01*
X142226692Y-98768232D01*
G36*
X142847580Y-98768232D02*
X142848682Y-98770655D01*
X142847391Y-98774530D01*
X142842829Y-98780783D01*
X142834118Y-98790339D01*
X142820380Y-98804122D01*
X142800736Y-98823059D01*
X142774307Y-98848074D01*
X142750822Y-98870144D01*
X142671800Y-98944289D01*
X142734813Y-98876556D01*
X142768064Y-98841037D01*
X142794511Y-98813331D01*
X142814826Y-98792792D01*
X142829680Y-98778775D01*
X142839745Y-98770634D01*
X142845694Y-98767723D01*
X142847580Y-98768232D01*
X142847580Y-98768232D01*
G37*
X142847580Y-98768232D02*
X142848682Y-98770655D01*
X142847391Y-98774530D01*
X142842829Y-98780783D01*
X142834118Y-98790339D01*
X142820380Y-98804122D01*
X142800736Y-98823059D01*
X142774307Y-98848074D01*
X142750822Y-98870144D01*
X142671800Y-98944289D01*
X142734813Y-98876556D01*
X142768064Y-98841037D01*
X142794511Y-98813331D01*
X142814826Y-98792792D01*
X142829680Y-98778775D01*
X142839745Y-98770634D01*
X142845694Y-98767723D01*
X142847580Y-98768232D01*
G36*
X141400226Y-98669415D02*
X141386455Y-98687173D01*
X141376124Y-98702659D01*
X141371011Y-98713139D01*
X141370756Y-98714726D01*
X141372654Y-98723882D01*
X141379042Y-98736021D01*
X141390957Y-98752729D01*
X141409441Y-98775593D01*
X141414834Y-98782011D01*
X141429139Y-98799262D01*
X141435924Y-98808397D01*
X141435214Y-98809698D01*
X141427033Y-98803444D01*
X141415911Y-98793878D01*
X141389481Y-98771894D01*
X141367170Y-98755690D01*
X141350295Y-98746153D01*
X141342008Y-98743911D01*
X141333334Y-98747403D01*
X141318854Y-98756724D01*
X141301147Y-98770145D01*
X141293735Y-98776278D01*
X141255583Y-98808645D01*
X141282544Y-98775544D01*
X141301798Y-98750410D01*
X141313102Y-98730691D01*
X141316707Y-98714047D01*
X141312864Y-98698137D01*
X141301824Y-98680619D01*
X141293796Y-98670660D01*
X141277815Y-98651667D01*
X141304962Y-98672389D01*
X141320134Y-98683401D01*
X141331914Y-98690916D01*
X141336954Y-98693111D01*
X141352754Y-98689068D01*
X141373739Y-98677764D01*
X141397669Y-98660441D01*
X141401070Y-98657652D01*
X141429695Y-98633845D01*
X141400226Y-98669415D01*
X141400226Y-98669415D01*
G37*
X141400226Y-98669415D02*
X141386455Y-98687173D01*
X141376124Y-98702659D01*
X141371011Y-98713139D01*
X141370756Y-98714726D01*
X141372654Y-98723882D01*
X141379042Y-98736021D01*
X141390957Y-98752729D01*
X141409441Y-98775593D01*
X141414834Y-98782011D01*
X141429139Y-98799262D01*
X141435924Y-98808397D01*
X141435214Y-98809698D01*
X141427033Y-98803444D01*
X141415911Y-98793878D01*
X141389481Y-98771894D01*
X141367170Y-98755690D01*
X141350295Y-98746153D01*
X141342008Y-98743911D01*
X141333334Y-98747403D01*
X141318854Y-98756724D01*
X141301147Y-98770145D01*
X141293735Y-98776278D01*
X141255583Y-98808645D01*
X141282544Y-98775544D01*
X141301798Y-98750410D01*
X141313102Y-98730691D01*
X141316707Y-98714047D01*
X141312864Y-98698137D01*
X141301824Y-98680619D01*
X141293796Y-98670660D01*
X141277815Y-98651667D01*
X141304962Y-98672389D01*
X141320134Y-98683401D01*
X141331914Y-98690916D01*
X141336954Y-98693111D01*
X141352754Y-98689068D01*
X141373739Y-98677764D01*
X141397669Y-98660441D01*
X141401070Y-98657652D01*
X141429695Y-98633845D01*
X141400226Y-98669415D01*
G36*
X142021114Y-98669415D02*
X142007344Y-98687173D01*
X141997013Y-98702659D01*
X141991900Y-98713139D01*
X141991645Y-98714726D01*
X141993543Y-98723882D01*
X141999931Y-98736021D01*
X142011846Y-98752729D01*
X142030330Y-98775593D01*
X142035722Y-98782011D01*
X142050028Y-98799262D01*
X142056813Y-98808397D01*
X142056103Y-98809698D01*
X142047922Y-98803444D01*
X142036800Y-98793878D01*
X142010370Y-98771894D01*
X141988059Y-98755690D01*
X141971184Y-98746153D01*
X141962897Y-98743911D01*
X141954223Y-98747403D01*
X141939743Y-98756724D01*
X141922036Y-98770145D01*
X141914624Y-98776278D01*
X141876472Y-98808645D01*
X141903432Y-98775544D01*
X141922687Y-98750410D01*
X141933991Y-98730691D01*
X141937596Y-98714047D01*
X141933753Y-98698137D01*
X141922712Y-98680619D01*
X141914685Y-98670660D01*
X141898704Y-98651667D01*
X141925851Y-98672389D01*
X141941023Y-98683401D01*
X141952803Y-98690916D01*
X141957843Y-98693111D01*
X141973643Y-98689068D01*
X141994628Y-98677764D01*
X142018558Y-98660441D01*
X142021959Y-98657652D01*
X142050584Y-98633845D01*
X142021114Y-98669415D01*
X142021114Y-98669415D01*
G37*
X142021114Y-98669415D02*
X142007344Y-98687173D01*
X141997013Y-98702659D01*
X141991900Y-98713139D01*
X141991645Y-98714726D01*
X141993543Y-98723882D01*
X141999931Y-98736021D01*
X142011846Y-98752729D01*
X142030330Y-98775593D01*
X142035722Y-98782011D01*
X142050028Y-98799262D01*
X142056813Y-98808397D01*
X142056103Y-98809698D01*
X142047922Y-98803444D01*
X142036800Y-98793878D01*
X142010370Y-98771894D01*
X141988059Y-98755690D01*
X141971184Y-98746153D01*
X141962897Y-98743911D01*
X141954223Y-98747403D01*
X141939743Y-98756724D01*
X141922036Y-98770145D01*
X141914624Y-98776278D01*
X141876472Y-98808645D01*
X141903432Y-98775544D01*
X141922687Y-98750410D01*
X141933991Y-98730691D01*
X141937596Y-98714047D01*
X141933753Y-98698137D01*
X141922712Y-98680619D01*
X141914685Y-98670660D01*
X141898704Y-98651667D01*
X141925851Y-98672389D01*
X141941023Y-98683401D01*
X141952803Y-98690916D01*
X141957843Y-98693111D01*
X141973643Y-98689068D01*
X141994628Y-98677764D01*
X142018558Y-98660441D01*
X142021959Y-98657652D01*
X142050584Y-98633845D01*
X142021114Y-98669415D01*
G36*
X142642003Y-98669415D02*
X142628233Y-98687173D01*
X142617901Y-98702659D01*
X142612789Y-98713139D01*
X142612534Y-98714726D01*
X142614432Y-98723882D01*
X142620819Y-98736021D01*
X142632735Y-98752729D01*
X142651218Y-98775593D01*
X142656611Y-98782011D01*
X142670917Y-98799262D01*
X142677702Y-98808397D01*
X142676991Y-98809698D01*
X142668811Y-98803444D01*
X142657689Y-98793878D01*
X142631259Y-98771894D01*
X142608948Y-98755690D01*
X142592073Y-98746153D01*
X142583786Y-98743911D01*
X142575112Y-98747403D01*
X142560632Y-98756724D01*
X142542925Y-98770145D01*
X142535513Y-98776278D01*
X142497361Y-98808645D01*
X142524321Y-98775544D01*
X142543576Y-98750410D01*
X142554880Y-98730691D01*
X142558485Y-98714047D01*
X142554642Y-98698137D01*
X142543601Y-98680619D01*
X142535574Y-98670660D01*
X142519592Y-98651667D01*
X142546740Y-98672389D01*
X142561912Y-98683401D01*
X142573692Y-98690916D01*
X142578732Y-98693111D01*
X142594531Y-98689068D01*
X142615517Y-98677764D01*
X142639446Y-98660441D01*
X142642848Y-98657652D01*
X142671473Y-98633845D01*
X142642003Y-98669415D01*
X142642003Y-98669415D01*
G37*
X142642003Y-98669415D02*
X142628233Y-98687173D01*
X142617901Y-98702659D01*
X142612789Y-98713139D01*
X142612534Y-98714726D01*
X142614432Y-98723882D01*
X142620819Y-98736021D01*
X142632735Y-98752729D01*
X142651218Y-98775593D01*
X142656611Y-98782011D01*
X142670917Y-98799262D01*
X142677702Y-98808397D01*
X142676991Y-98809698D01*
X142668811Y-98803444D01*
X142657689Y-98793878D01*
X142631259Y-98771894D01*
X142608948Y-98755690D01*
X142592073Y-98746153D01*
X142583786Y-98743911D01*
X142575112Y-98747403D01*
X142560632Y-98756724D01*
X142542925Y-98770145D01*
X142535513Y-98776278D01*
X142497361Y-98808645D01*
X142524321Y-98775544D01*
X142543576Y-98750410D01*
X142554880Y-98730691D01*
X142558485Y-98714047D01*
X142554642Y-98698137D01*
X142543601Y-98680619D01*
X142535574Y-98670660D01*
X142519592Y-98651667D01*
X142546740Y-98672389D01*
X142561912Y-98683401D01*
X142573692Y-98690916D01*
X142578732Y-98693111D01*
X142594531Y-98689068D01*
X142615517Y-98677764D01*
X142639446Y-98660441D01*
X142642848Y-98657652D01*
X142671473Y-98633845D01*
X142642003Y-98669415D01*
G36*
X140665200Y-98780600D02*
X140662378Y-98783422D01*
X140659556Y-98780600D01*
X140662378Y-98777778D01*
X140665200Y-98780600D01*
X140665200Y-98780600D01*
G37*
X140665200Y-98780600D02*
X140662378Y-98783422D01*
X140659556Y-98780600D01*
X140662378Y-98777778D01*
X140665200Y-98780600D01*
G36*
X141408262Y-98465524D02*
X141419977Y-98476114D01*
X141436781Y-98492088D01*
X141457301Y-98512075D01*
X141480165Y-98534703D01*
X141503999Y-98558602D01*
X141527430Y-98582399D01*
X141549085Y-98604724D01*
X141567592Y-98624206D01*
X141581576Y-98639472D01*
X141585282Y-98643722D01*
X141596844Y-98657902D01*
X141600829Y-98664373D01*
X141597615Y-98663435D01*
X141587583Y-98655387D01*
X141571111Y-98640530D01*
X141548579Y-98619162D01*
X141524579Y-98595745D01*
X141492080Y-98563308D01*
X141463435Y-98533931D01*
X141439398Y-98508445D01*
X141420721Y-98487680D01*
X141408157Y-98472466D01*
X141402459Y-98463632D01*
X141403011Y-98461689D01*
X141408262Y-98465524D01*
X141408262Y-98465524D01*
G37*
X141408262Y-98465524D02*
X141419977Y-98476114D01*
X141436781Y-98492088D01*
X141457301Y-98512075D01*
X141480165Y-98534703D01*
X141503999Y-98558602D01*
X141527430Y-98582399D01*
X141549085Y-98604724D01*
X141567592Y-98624206D01*
X141581576Y-98639472D01*
X141585282Y-98643722D01*
X141596844Y-98657902D01*
X141600829Y-98664373D01*
X141597615Y-98663435D01*
X141587583Y-98655387D01*
X141571111Y-98640530D01*
X141548579Y-98619162D01*
X141524579Y-98595745D01*
X141492080Y-98563308D01*
X141463435Y-98533931D01*
X141439398Y-98508445D01*
X141420721Y-98487680D01*
X141408157Y-98472466D01*
X141402459Y-98463632D01*
X141403011Y-98461689D01*
X141408262Y-98465524D01*
G36*
X142029151Y-98465524D02*
X142040866Y-98476114D01*
X142057670Y-98492088D01*
X142078190Y-98512075D01*
X142101054Y-98534703D01*
X142124888Y-98558602D01*
X142148319Y-98582399D01*
X142169974Y-98604724D01*
X142188481Y-98624206D01*
X142202465Y-98639472D01*
X142206171Y-98643722D01*
X142217733Y-98657902D01*
X142221718Y-98664373D01*
X142218504Y-98663435D01*
X142208472Y-98655387D01*
X142192000Y-98640530D01*
X142169468Y-98619162D01*
X142145467Y-98595745D01*
X142112968Y-98563308D01*
X142084324Y-98533931D01*
X142060287Y-98508445D01*
X142041610Y-98487680D01*
X142029046Y-98472466D01*
X142023347Y-98463632D01*
X142023899Y-98461689D01*
X142029151Y-98465524D01*
X142029151Y-98465524D01*
G37*
X142029151Y-98465524D02*
X142040866Y-98476114D01*
X142057670Y-98492088D01*
X142078190Y-98512075D01*
X142101054Y-98534703D01*
X142124888Y-98558602D01*
X142148319Y-98582399D01*
X142169974Y-98604724D01*
X142188481Y-98624206D01*
X142202465Y-98639472D01*
X142206171Y-98643722D01*
X142217733Y-98657902D01*
X142221718Y-98664373D01*
X142218504Y-98663435D01*
X142208472Y-98655387D01*
X142192000Y-98640530D01*
X142169468Y-98619162D01*
X142145467Y-98595745D01*
X142112968Y-98563308D01*
X142084324Y-98533931D01*
X142060287Y-98508445D01*
X142041610Y-98487680D01*
X142029046Y-98472466D01*
X142023347Y-98463632D01*
X142023899Y-98461689D01*
X142029151Y-98465524D01*
G36*
X142650040Y-98465524D02*
X142661755Y-98476114D01*
X142678559Y-98492088D01*
X142699079Y-98512075D01*
X142721943Y-98534703D01*
X142745777Y-98558602D01*
X142769208Y-98582399D01*
X142790863Y-98604724D01*
X142809370Y-98624206D01*
X142823354Y-98639472D01*
X142827060Y-98643722D01*
X142838622Y-98657902D01*
X142842607Y-98664373D01*
X142839393Y-98663435D01*
X142829361Y-98655387D01*
X142812889Y-98640530D01*
X142790357Y-98619162D01*
X142766356Y-98595745D01*
X142733857Y-98563308D01*
X142705213Y-98533931D01*
X142681176Y-98508445D01*
X142662499Y-98487680D01*
X142649935Y-98472466D01*
X142644236Y-98463632D01*
X142644788Y-98461689D01*
X142650040Y-98465524D01*
X142650040Y-98465524D01*
G37*
X142650040Y-98465524D02*
X142661755Y-98476114D01*
X142678559Y-98492088D01*
X142699079Y-98512075D01*
X142721943Y-98534703D01*
X142745777Y-98558602D01*
X142769208Y-98582399D01*
X142790863Y-98604724D01*
X142809370Y-98624206D01*
X142823354Y-98639472D01*
X142827060Y-98643722D01*
X142838622Y-98657902D01*
X142842607Y-98664373D01*
X142839393Y-98663435D01*
X142829361Y-98655387D01*
X142812889Y-98640530D01*
X142790357Y-98619162D01*
X142766356Y-98595745D01*
X142733857Y-98563308D01*
X142705213Y-98533931D01*
X142681176Y-98508445D01*
X142662499Y-98487680D01*
X142649935Y-98472466D01*
X142644236Y-98463632D01*
X142644788Y-98461689D01*
X142650040Y-98465524D01*
G36*
X141295358Y-98457788D02*
X141296460Y-98460211D01*
X141295169Y-98464086D01*
X141290607Y-98470339D01*
X141281896Y-98479894D01*
X141268158Y-98493678D01*
X141248513Y-98512614D01*
X141222085Y-98537629D01*
X141198600Y-98559699D01*
X141119578Y-98633845D01*
X141182591Y-98566111D01*
X141215842Y-98530593D01*
X141242289Y-98502886D01*
X141262603Y-98482348D01*
X141277457Y-98468330D01*
X141287523Y-98460189D01*
X141293472Y-98457279D01*
X141295358Y-98457788D01*
X141295358Y-98457788D01*
G37*
X141295358Y-98457788D02*
X141296460Y-98460211D01*
X141295169Y-98464086D01*
X141290607Y-98470339D01*
X141281896Y-98479894D01*
X141268158Y-98493678D01*
X141248513Y-98512614D01*
X141222085Y-98537629D01*
X141198600Y-98559699D01*
X141119578Y-98633845D01*
X141182591Y-98566111D01*
X141215842Y-98530593D01*
X141242289Y-98502886D01*
X141262603Y-98482348D01*
X141277457Y-98468330D01*
X141287523Y-98460189D01*
X141293472Y-98457279D01*
X141295358Y-98457788D01*
G36*
X141916247Y-98457788D02*
X141917349Y-98460211D01*
X141916058Y-98464086D01*
X141911496Y-98470339D01*
X141902785Y-98479894D01*
X141889047Y-98493678D01*
X141869402Y-98512614D01*
X141842974Y-98537629D01*
X141819489Y-98559699D01*
X141740467Y-98633845D01*
X141803480Y-98566111D01*
X141836731Y-98530593D01*
X141863178Y-98502886D01*
X141883492Y-98482348D01*
X141898346Y-98468330D01*
X141908412Y-98460189D01*
X141914361Y-98457279D01*
X141916247Y-98457788D01*
X141916247Y-98457788D01*
G37*
X141916247Y-98457788D02*
X141917349Y-98460211D01*
X141916058Y-98464086D01*
X141911496Y-98470339D01*
X141902785Y-98479894D01*
X141889047Y-98493678D01*
X141869402Y-98512614D01*
X141842974Y-98537629D01*
X141819489Y-98559699D01*
X141740467Y-98633845D01*
X141803480Y-98566111D01*
X141836731Y-98530593D01*
X141863178Y-98502886D01*
X141883492Y-98482348D01*
X141898346Y-98468330D01*
X141908412Y-98460189D01*
X141914361Y-98457279D01*
X141916247Y-98457788D01*
G36*
X142537136Y-98457788D02*
X142538238Y-98460211D01*
X142536947Y-98464086D01*
X142532385Y-98470339D01*
X142523674Y-98479894D01*
X142509936Y-98493678D01*
X142490291Y-98512614D01*
X142463862Y-98537629D01*
X142440378Y-98559699D01*
X142361356Y-98633845D01*
X142424368Y-98566111D01*
X142457620Y-98530593D01*
X142484067Y-98502886D01*
X142504381Y-98482348D01*
X142519235Y-98468330D01*
X142529301Y-98460189D01*
X142535250Y-98457279D01*
X142537136Y-98457788D01*
X142537136Y-98457788D01*
G37*
X142537136Y-98457788D02*
X142538238Y-98460211D01*
X142536947Y-98464086D01*
X142532385Y-98470339D01*
X142523674Y-98479894D01*
X142509936Y-98493678D01*
X142490291Y-98512614D01*
X142463862Y-98537629D01*
X142440378Y-98559699D01*
X142361356Y-98633845D01*
X142424368Y-98566111D01*
X142457620Y-98530593D01*
X142484067Y-98502886D01*
X142504381Y-98482348D01*
X142519235Y-98468330D01*
X142529301Y-98460189D01*
X142535250Y-98457279D01*
X142537136Y-98457788D01*
G36*
X141089781Y-98358971D02*
X141076011Y-98376728D01*
X141065679Y-98392215D01*
X141060566Y-98402694D01*
X141060311Y-98404282D01*
X141062210Y-98413437D01*
X141068597Y-98425576D01*
X141080513Y-98442285D01*
X141098996Y-98465148D01*
X141104389Y-98471567D01*
X141118695Y-98488818D01*
X141125480Y-98497953D01*
X141124769Y-98499254D01*
X141116588Y-98493000D01*
X141105467Y-98483433D01*
X141079036Y-98461450D01*
X141056726Y-98445245D01*
X141039850Y-98435709D01*
X141031563Y-98433467D01*
X141022890Y-98436958D01*
X141008410Y-98446279D01*
X140990703Y-98459701D01*
X140983291Y-98465834D01*
X140945138Y-98498200D01*
X140972099Y-98465100D01*
X140991354Y-98439965D01*
X141002658Y-98420247D01*
X141006263Y-98403603D01*
X141002419Y-98387693D01*
X140991379Y-98370175D01*
X140983352Y-98360216D01*
X140967370Y-98341223D01*
X140994518Y-98361945D01*
X141009689Y-98372957D01*
X141021470Y-98380472D01*
X141026510Y-98382667D01*
X141042309Y-98378623D01*
X141063295Y-98367320D01*
X141087224Y-98349996D01*
X141090625Y-98347208D01*
X141119251Y-98323400D01*
X141089781Y-98358971D01*
X141089781Y-98358971D01*
G37*
X141089781Y-98358971D02*
X141076011Y-98376728D01*
X141065679Y-98392215D01*
X141060566Y-98402694D01*
X141060311Y-98404282D01*
X141062210Y-98413437D01*
X141068597Y-98425576D01*
X141080513Y-98442285D01*
X141098996Y-98465148D01*
X141104389Y-98471567D01*
X141118695Y-98488818D01*
X141125480Y-98497953D01*
X141124769Y-98499254D01*
X141116588Y-98493000D01*
X141105467Y-98483433D01*
X141079036Y-98461450D01*
X141056726Y-98445245D01*
X141039850Y-98435709D01*
X141031563Y-98433467D01*
X141022890Y-98436958D01*
X141008410Y-98446279D01*
X140990703Y-98459701D01*
X140983291Y-98465834D01*
X140945138Y-98498200D01*
X140972099Y-98465100D01*
X140991354Y-98439965D01*
X141002658Y-98420247D01*
X141006263Y-98403603D01*
X141002419Y-98387693D01*
X140991379Y-98370175D01*
X140983352Y-98360216D01*
X140967370Y-98341223D01*
X140994518Y-98361945D01*
X141009689Y-98372957D01*
X141021470Y-98380472D01*
X141026510Y-98382667D01*
X141042309Y-98378623D01*
X141063295Y-98367320D01*
X141087224Y-98349996D01*
X141090625Y-98347208D01*
X141119251Y-98323400D01*
X141089781Y-98358971D01*
G36*
X141710670Y-98358971D02*
X141696900Y-98376728D01*
X141686568Y-98392215D01*
X141681455Y-98402694D01*
X141681200Y-98404282D01*
X141683098Y-98413437D01*
X141689486Y-98425576D01*
X141701402Y-98442285D01*
X141719885Y-98465148D01*
X141725278Y-98471567D01*
X141739584Y-98488818D01*
X141746369Y-98497953D01*
X141745658Y-98499254D01*
X141737477Y-98493000D01*
X141726356Y-98483433D01*
X141699925Y-98461450D01*
X141677615Y-98445245D01*
X141660739Y-98435709D01*
X141652452Y-98433467D01*
X141643778Y-98436958D01*
X141629299Y-98446279D01*
X141611592Y-98459701D01*
X141604179Y-98465834D01*
X141566027Y-98498200D01*
X141592988Y-98465100D01*
X141612243Y-98439965D01*
X141623547Y-98420247D01*
X141627152Y-98403603D01*
X141623308Y-98387693D01*
X141612268Y-98370175D01*
X141604240Y-98360216D01*
X141588259Y-98341223D01*
X141615406Y-98361945D01*
X141630578Y-98372957D01*
X141642359Y-98380472D01*
X141647398Y-98382667D01*
X141663198Y-98378623D01*
X141684184Y-98367320D01*
X141708113Y-98349996D01*
X141711514Y-98347208D01*
X141740140Y-98323400D01*
X141710670Y-98358971D01*
X141710670Y-98358971D01*
G37*
X141710670Y-98358971D02*
X141696900Y-98376728D01*
X141686568Y-98392215D01*
X141681455Y-98402694D01*
X141681200Y-98404282D01*
X141683098Y-98413437D01*
X141689486Y-98425576D01*
X141701402Y-98442285D01*
X141719885Y-98465148D01*
X141725278Y-98471567D01*
X141739584Y-98488818D01*
X141746369Y-98497953D01*
X141745658Y-98499254D01*
X141737477Y-98493000D01*
X141726356Y-98483433D01*
X141699925Y-98461450D01*
X141677615Y-98445245D01*
X141660739Y-98435709D01*
X141652452Y-98433467D01*
X141643778Y-98436958D01*
X141629299Y-98446279D01*
X141611592Y-98459701D01*
X141604179Y-98465834D01*
X141566027Y-98498200D01*
X141592988Y-98465100D01*
X141612243Y-98439965D01*
X141623547Y-98420247D01*
X141627152Y-98403603D01*
X141623308Y-98387693D01*
X141612268Y-98370175D01*
X141604240Y-98360216D01*
X141588259Y-98341223D01*
X141615406Y-98361945D01*
X141630578Y-98372957D01*
X141642359Y-98380472D01*
X141647398Y-98382667D01*
X141663198Y-98378623D01*
X141684184Y-98367320D01*
X141708113Y-98349996D01*
X141711514Y-98347208D01*
X141740140Y-98323400D01*
X141710670Y-98358971D01*
G36*
X142331559Y-98358971D02*
X142317788Y-98376728D01*
X142307457Y-98392215D01*
X142302344Y-98402694D01*
X142302089Y-98404282D01*
X142303987Y-98413437D01*
X142310375Y-98425576D01*
X142322291Y-98442285D01*
X142340774Y-98465148D01*
X142346167Y-98471567D01*
X142360473Y-98488818D01*
X142367258Y-98497953D01*
X142366547Y-98499254D01*
X142358366Y-98493000D01*
X142347245Y-98483433D01*
X142320814Y-98461450D01*
X142298504Y-98445245D01*
X142281628Y-98435709D01*
X142273341Y-98433467D01*
X142264667Y-98436958D01*
X142250188Y-98446279D01*
X142232481Y-98459701D01*
X142225068Y-98465834D01*
X142186916Y-98498200D01*
X142213877Y-98465100D01*
X142233132Y-98439965D01*
X142244436Y-98420247D01*
X142248041Y-98403603D01*
X142244197Y-98387693D01*
X142233157Y-98370175D01*
X142225129Y-98360216D01*
X142209148Y-98341223D01*
X142236295Y-98361945D01*
X142251467Y-98372957D01*
X142263248Y-98380472D01*
X142268287Y-98382667D01*
X142284087Y-98378623D01*
X142305073Y-98367320D01*
X142329002Y-98349996D01*
X142332403Y-98347208D01*
X142361029Y-98323400D01*
X142331559Y-98358971D01*
X142331559Y-98358971D01*
G37*
X142331559Y-98358971D02*
X142317788Y-98376728D01*
X142307457Y-98392215D01*
X142302344Y-98402694D01*
X142302089Y-98404282D01*
X142303987Y-98413437D01*
X142310375Y-98425576D01*
X142322291Y-98442285D01*
X142340774Y-98465148D01*
X142346167Y-98471567D01*
X142360473Y-98488818D01*
X142367258Y-98497953D01*
X142366547Y-98499254D01*
X142358366Y-98493000D01*
X142347245Y-98483433D01*
X142320814Y-98461450D01*
X142298504Y-98445245D01*
X142281628Y-98435709D01*
X142273341Y-98433467D01*
X142264667Y-98436958D01*
X142250188Y-98446279D01*
X142232481Y-98459701D01*
X142225068Y-98465834D01*
X142186916Y-98498200D01*
X142213877Y-98465100D01*
X142233132Y-98439965D01*
X142244436Y-98420247D01*
X142248041Y-98403603D01*
X142244197Y-98387693D01*
X142233157Y-98370175D01*
X142225129Y-98360216D01*
X142209148Y-98341223D01*
X142236295Y-98361945D01*
X142251467Y-98372957D01*
X142263248Y-98380472D01*
X142268287Y-98382667D01*
X142284087Y-98378623D01*
X142305073Y-98367320D01*
X142329002Y-98349996D01*
X142332403Y-98347208D01*
X142361029Y-98323400D01*
X142331559Y-98358971D01*
G36*
X142952448Y-98358971D02*
X142938677Y-98376728D01*
X142928346Y-98392215D01*
X142923233Y-98402694D01*
X142922978Y-98404282D01*
X142924876Y-98413437D01*
X142931264Y-98425576D01*
X142943180Y-98442285D01*
X142961663Y-98465148D01*
X142967056Y-98471567D01*
X142981362Y-98488818D01*
X142988147Y-98497953D01*
X142987436Y-98499254D01*
X142979255Y-98493000D01*
X142968134Y-98483433D01*
X142941703Y-98461450D01*
X142919393Y-98445245D01*
X142902517Y-98435709D01*
X142894230Y-98433467D01*
X142885556Y-98436958D01*
X142871076Y-98446279D01*
X142853370Y-98459701D01*
X142845957Y-98465834D01*
X142807805Y-98498200D01*
X142834766Y-98465100D01*
X142854020Y-98439965D01*
X142865325Y-98420247D01*
X142868929Y-98403603D01*
X142865086Y-98387693D01*
X142854046Y-98370175D01*
X142846018Y-98360216D01*
X142830037Y-98341223D01*
X142857184Y-98361945D01*
X142872356Y-98372957D01*
X142884137Y-98380472D01*
X142889176Y-98382667D01*
X142904976Y-98378623D01*
X142925962Y-98367320D01*
X142949891Y-98349996D01*
X142953292Y-98347208D01*
X142981918Y-98323400D01*
X142952448Y-98358971D01*
X142952448Y-98358971D01*
G37*
X142952448Y-98358971D02*
X142938677Y-98376728D01*
X142928346Y-98392215D01*
X142923233Y-98402694D01*
X142922978Y-98404282D01*
X142924876Y-98413437D01*
X142931264Y-98425576D01*
X142943180Y-98442285D01*
X142961663Y-98465148D01*
X142967056Y-98471567D01*
X142981362Y-98488818D01*
X142988147Y-98497953D01*
X142987436Y-98499254D01*
X142979255Y-98493000D01*
X142968134Y-98483433D01*
X142941703Y-98461450D01*
X142919393Y-98445245D01*
X142902517Y-98435709D01*
X142894230Y-98433467D01*
X142885556Y-98436958D01*
X142871076Y-98446279D01*
X142853370Y-98459701D01*
X142845957Y-98465834D01*
X142807805Y-98498200D01*
X142834766Y-98465100D01*
X142854020Y-98439965D01*
X142865325Y-98420247D01*
X142868929Y-98403603D01*
X142865086Y-98387693D01*
X142854046Y-98370175D01*
X142846018Y-98360216D01*
X142830037Y-98341223D01*
X142857184Y-98361945D01*
X142872356Y-98372957D01*
X142884137Y-98380472D01*
X142889176Y-98382667D01*
X142904976Y-98378623D01*
X142925962Y-98367320D01*
X142949891Y-98349996D01*
X142953292Y-98347208D01*
X142981918Y-98323400D01*
X142952448Y-98358971D01*
G36*
X141097818Y-98155079D02*
X141109532Y-98165669D01*
X141126336Y-98181644D01*
X141146857Y-98201630D01*
X141169720Y-98224259D01*
X141193554Y-98248157D01*
X141216986Y-98271955D01*
X141238641Y-98294280D01*
X141257147Y-98313761D01*
X141271132Y-98329028D01*
X141274837Y-98333278D01*
X141286399Y-98347458D01*
X141290384Y-98353928D01*
X141287171Y-98352990D01*
X141277139Y-98344942D01*
X141260667Y-98330085D01*
X141238134Y-98308718D01*
X141214134Y-98285300D01*
X141181635Y-98252863D01*
X141152991Y-98223487D01*
X141128954Y-98198001D01*
X141110277Y-98177236D01*
X141097712Y-98162021D01*
X141092014Y-98153188D01*
X141092566Y-98151245D01*
X141097818Y-98155079D01*
X141097818Y-98155079D01*
G37*
X141097818Y-98155079D02*
X141109532Y-98165669D01*
X141126336Y-98181644D01*
X141146857Y-98201630D01*
X141169720Y-98224259D01*
X141193554Y-98248157D01*
X141216986Y-98271955D01*
X141238641Y-98294280D01*
X141257147Y-98313761D01*
X141271132Y-98329028D01*
X141274837Y-98333278D01*
X141286399Y-98347458D01*
X141290384Y-98353928D01*
X141287171Y-98352990D01*
X141277139Y-98344942D01*
X141260667Y-98330085D01*
X141238134Y-98308718D01*
X141214134Y-98285300D01*
X141181635Y-98252863D01*
X141152991Y-98223487D01*
X141128954Y-98198001D01*
X141110277Y-98177236D01*
X141097712Y-98162021D01*
X141092014Y-98153188D01*
X141092566Y-98151245D01*
X141097818Y-98155079D01*
G36*
X141718707Y-98155079D02*
X141730421Y-98165669D01*
X141747225Y-98181644D01*
X141767746Y-98201630D01*
X141790609Y-98224259D01*
X141814443Y-98248157D01*
X141837875Y-98271955D01*
X141859530Y-98294280D01*
X141878036Y-98313761D01*
X141892020Y-98329028D01*
X141895726Y-98333278D01*
X141907288Y-98347458D01*
X141911273Y-98353928D01*
X141908060Y-98352990D01*
X141898028Y-98344942D01*
X141881556Y-98330085D01*
X141859023Y-98308718D01*
X141835023Y-98285300D01*
X141802524Y-98252863D01*
X141773880Y-98223487D01*
X141749842Y-98198001D01*
X141731165Y-98177236D01*
X141718601Y-98162021D01*
X141712903Y-98153188D01*
X141713455Y-98151245D01*
X141718707Y-98155079D01*
X141718707Y-98155079D01*
G37*
X141718707Y-98155079D02*
X141730421Y-98165669D01*
X141747225Y-98181644D01*
X141767746Y-98201630D01*
X141790609Y-98224259D01*
X141814443Y-98248157D01*
X141837875Y-98271955D01*
X141859530Y-98294280D01*
X141878036Y-98313761D01*
X141892020Y-98329028D01*
X141895726Y-98333278D01*
X141907288Y-98347458D01*
X141911273Y-98353928D01*
X141908060Y-98352990D01*
X141898028Y-98344942D01*
X141881556Y-98330085D01*
X141859023Y-98308718D01*
X141835023Y-98285300D01*
X141802524Y-98252863D01*
X141773880Y-98223487D01*
X141749842Y-98198001D01*
X141731165Y-98177236D01*
X141718601Y-98162021D01*
X141712903Y-98153188D01*
X141713455Y-98151245D01*
X141718707Y-98155079D01*
G36*
X142339596Y-98155079D02*
X142351310Y-98165669D01*
X142368114Y-98181644D01*
X142388635Y-98201630D01*
X142411498Y-98224259D01*
X142435332Y-98248157D01*
X142458763Y-98271955D01*
X142480419Y-98294280D01*
X142498925Y-98313761D01*
X142512909Y-98329028D01*
X142516615Y-98333278D01*
X142528177Y-98347458D01*
X142532162Y-98353928D01*
X142528949Y-98352990D01*
X142518917Y-98344942D01*
X142502445Y-98330085D01*
X142479912Y-98308718D01*
X142455912Y-98285300D01*
X142423413Y-98252863D01*
X142394768Y-98223487D01*
X142370731Y-98198001D01*
X142352054Y-98177236D01*
X142339490Y-98162021D01*
X142333792Y-98153188D01*
X142334344Y-98151245D01*
X142339596Y-98155079D01*
X142339596Y-98155079D01*
G37*
X142339596Y-98155079D02*
X142351310Y-98165669D01*
X142368114Y-98181644D01*
X142388635Y-98201630D01*
X142411498Y-98224259D01*
X142435332Y-98248157D01*
X142458763Y-98271955D01*
X142480419Y-98294280D01*
X142498925Y-98313761D01*
X142512909Y-98329028D01*
X142516615Y-98333278D01*
X142528177Y-98347458D01*
X142532162Y-98353928D01*
X142528949Y-98352990D01*
X142518917Y-98344942D01*
X142502445Y-98330085D01*
X142479912Y-98308718D01*
X142455912Y-98285300D01*
X142423413Y-98252863D01*
X142394768Y-98223487D01*
X142370731Y-98198001D01*
X142352054Y-98177236D01*
X142339490Y-98162021D01*
X142333792Y-98153188D01*
X142334344Y-98151245D01*
X142339596Y-98155079D01*
G36*
X141605803Y-98147343D02*
X141606904Y-98149766D01*
X141605613Y-98153641D01*
X141601052Y-98159894D01*
X141592341Y-98169450D01*
X141578602Y-98183233D01*
X141558958Y-98202170D01*
X141532529Y-98227185D01*
X141509045Y-98249255D01*
X141430022Y-98323400D01*
X141493035Y-98255667D01*
X141526286Y-98220148D01*
X141552733Y-98192442D01*
X141573048Y-98171903D01*
X141587902Y-98157886D01*
X141597967Y-98149745D01*
X141603916Y-98146834D01*
X141605803Y-98147343D01*
X141605803Y-98147343D01*
G37*
X141605803Y-98147343D02*
X141606904Y-98149766D01*
X141605613Y-98153641D01*
X141601052Y-98159894D01*
X141592341Y-98169450D01*
X141578602Y-98183233D01*
X141558958Y-98202170D01*
X141532529Y-98227185D01*
X141509045Y-98249255D01*
X141430022Y-98323400D01*
X141493035Y-98255667D01*
X141526286Y-98220148D01*
X141552733Y-98192442D01*
X141573048Y-98171903D01*
X141587902Y-98157886D01*
X141597967Y-98149745D01*
X141603916Y-98146834D01*
X141605803Y-98147343D01*
G36*
X142226692Y-98147343D02*
X142227793Y-98149766D01*
X142226502Y-98153641D01*
X142221940Y-98159894D01*
X142213230Y-98169450D01*
X142199491Y-98183233D01*
X142179847Y-98202170D01*
X142153418Y-98227185D01*
X142129934Y-98249255D01*
X142050911Y-98323400D01*
X142113924Y-98255667D01*
X142147175Y-98220148D01*
X142173622Y-98192442D01*
X142193937Y-98171903D01*
X142208791Y-98157886D01*
X142218856Y-98149745D01*
X142224805Y-98146834D01*
X142226692Y-98147343D01*
X142226692Y-98147343D01*
G37*
X142226692Y-98147343D02*
X142227793Y-98149766D01*
X142226502Y-98153641D01*
X142221940Y-98159894D01*
X142213230Y-98169450D01*
X142199491Y-98183233D01*
X142179847Y-98202170D01*
X142153418Y-98227185D01*
X142129934Y-98249255D01*
X142050911Y-98323400D01*
X142113924Y-98255667D01*
X142147175Y-98220148D01*
X142173622Y-98192442D01*
X142193937Y-98171903D01*
X142208791Y-98157886D01*
X142218856Y-98149745D01*
X142224805Y-98146834D01*
X142226692Y-98147343D01*
G36*
X141400226Y-98048527D02*
X141386455Y-98066284D01*
X141376124Y-98081770D01*
X141371011Y-98092250D01*
X141370756Y-98093837D01*
X141372654Y-98102993D01*
X141379042Y-98115132D01*
X141390957Y-98131840D01*
X141409441Y-98154704D01*
X141414834Y-98161122D01*
X141429139Y-98178373D01*
X141435924Y-98187509D01*
X141435214Y-98188809D01*
X141427033Y-98182555D01*
X141415911Y-98172989D01*
X141389481Y-98151006D01*
X141367170Y-98134801D01*
X141350295Y-98125264D01*
X141342008Y-98123022D01*
X141333334Y-98126514D01*
X141318854Y-98135835D01*
X141301147Y-98149256D01*
X141293735Y-98155389D01*
X141255583Y-98187756D01*
X141282544Y-98154655D01*
X141301798Y-98129521D01*
X141313102Y-98109802D01*
X141316707Y-98093158D01*
X141312864Y-98077248D01*
X141301824Y-98059730D01*
X141293796Y-98049771D01*
X141277815Y-98030778D01*
X141304962Y-98051500D01*
X141320134Y-98062512D01*
X141331914Y-98070027D01*
X141336954Y-98072222D01*
X141352754Y-98068179D01*
X141373739Y-98056875D01*
X141397669Y-98039552D01*
X141401070Y-98036763D01*
X141429695Y-98012956D01*
X141400226Y-98048527D01*
X141400226Y-98048527D01*
G37*
X141400226Y-98048527D02*
X141386455Y-98066284D01*
X141376124Y-98081770D01*
X141371011Y-98092250D01*
X141370756Y-98093837D01*
X141372654Y-98102993D01*
X141379042Y-98115132D01*
X141390957Y-98131840D01*
X141409441Y-98154704D01*
X141414834Y-98161122D01*
X141429139Y-98178373D01*
X141435924Y-98187509D01*
X141435214Y-98188809D01*
X141427033Y-98182555D01*
X141415911Y-98172989D01*
X141389481Y-98151006D01*
X141367170Y-98134801D01*
X141350295Y-98125264D01*
X141342008Y-98123022D01*
X141333334Y-98126514D01*
X141318854Y-98135835D01*
X141301147Y-98149256D01*
X141293735Y-98155389D01*
X141255583Y-98187756D01*
X141282544Y-98154655D01*
X141301798Y-98129521D01*
X141313102Y-98109802D01*
X141316707Y-98093158D01*
X141312864Y-98077248D01*
X141301824Y-98059730D01*
X141293796Y-98049771D01*
X141277815Y-98030778D01*
X141304962Y-98051500D01*
X141320134Y-98062512D01*
X141331914Y-98070027D01*
X141336954Y-98072222D01*
X141352754Y-98068179D01*
X141373739Y-98056875D01*
X141397669Y-98039552D01*
X141401070Y-98036763D01*
X141429695Y-98012956D01*
X141400226Y-98048527D01*
G36*
X142021114Y-98048527D02*
X142007344Y-98066284D01*
X141997013Y-98081770D01*
X141991900Y-98092250D01*
X141991645Y-98093837D01*
X141993543Y-98102993D01*
X141999931Y-98115132D01*
X142011846Y-98131840D01*
X142030330Y-98154704D01*
X142035722Y-98161122D01*
X142050028Y-98178373D01*
X142056813Y-98187509D01*
X142056103Y-98188809D01*
X142047922Y-98182555D01*
X142036800Y-98172989D01*
X142010370Y-98151006D01*
X141988059Y-98134801D01*
X141971184Y-98125264D01*
X141962897Y-98123022D01*
X141954223Y-98126514D01*
X141939743Y-98135835D01*
X141922036Y-98149256D01*
X141914624Y-98155389D01*
X141876472Y-98187756D01*
X141903432Y-98154655D01*
X141922687Y-98129521D01*
X141933991Y-98109802D01*
X141937596Y-98093158D01*
X141933753Y-98077248D01*
X141922712Y-98059730D01*
X141914685Y-98049771D01*
X141898704Y-98030778D01*
X141925851Y-98051500D01*
X141941023Y-98062512D01*
X141952803Y-98070027D01*
X141957843Y-98072222D01*
X141973643Y-98068179D01*
X141994628Y-98056875D01*
X142018558Y-98039552D01*
X142021959Y-98036763D01*
X142050584Y-98012956D01*
X142021114Y-98048527D01*
X142021114Y-98048527D01*
G37*
X142021114Y-98048527D02*
X142007344Y-98066284D01*
X141997013Y-98081770D01*
X141991900Y-98092250D01*
X141991645Y-98093837D01*
X141993543Y-98102993D01*
X141999931Y-98115132D01*
X142011846Y-98131840D01*
X142030330Y-98154704D01*
X142035722Y-98161122D01*
X142050028Y-98178373D01*
X142056813Y-98187509D01*
X142056103Y-98188809D01*
X142047922Y-98182555D01*
X142036800Y-98172989D01*
X142010370Y-98151006D01*
X141988059Y-98134801D01*
X141971184Y-98125264D01*
X141962897Y-98123022D01*
X141954223Y-98126514D01*
X141939743Y-98135835D01*
X141922036Y-98149256D01*
X141914624Y-98155389D01*
X141876472Y-98187756D01*
X141903432Y-98154655D01*
X141922687Y-98129521D01*
X141933991Y-98109802D01*
X141937596Y-98093158D01*
X141933753Y-98077248D01*
X141922712Y-98059730D01*
X141914685Y-98049771D01*
X141898704Y-98030778D01*
X141925851Y-98051500D01*
X141941023Y-98062512D01*
X141952803Y-98070027D01*
X141957843Y-98072222D01*
X141973643Y-98068179D01*
X141994628Y-98056875D01*
X142018558Y-98039552D01*
X142021959Y-98036763D01*
X142050584Y-98012956D01*
X142021114Y-98048527D01*
G36*
X142029151Y-97844635D02*
X142040866Y-97855225D01*
X142057670Y-97871199D01*
X142078190Y-97891186D01*
X142101054Y-97913814D01*
X142124888Y-97937713D01*
X142148319Y-97961510D01*
X142169974Y-97983835D01*
X142188481Y-98003317D01*
X142202465Y-98018583D01*
X142206171Y-98022834D01*
X142217733Y-98037013D01*
X142221718Y-98043484D01*
X142218504Y-98042546D01*
X142208472Y-98034498D01*
X142192000Y-98019641D01*
X142169468Y-97998273D01*
X142145467Y-97974856D01*
X142112968Y-97942419D01*
X142084324Y-97913042D01*
X142060287Y-97887556D01*
X142041610Y-97866791D01*
X142029046Y-97851577D01*
X142023347Y-97842743D01*
X142023899Y-97840800D01*
X142029151Y-97844635D01*
X142029151Y-97844635D01*
G37*
X142029151Y-97844635D02*
X142040866Y-97855225D01*
X142057670Y-97871199D01*
X142078190Y-97891186D01*
X142101054Y-97913814D01*
X142124888Y-97937713D01*
X142148319Y-97961510D01*
X142169974Y-97983835D01*
X142188481Y-98003317D01*
X142202465Y-98018583D01*
X142206171Y-98022834D01*
X142217733Y-98037013D01*
X142221718Y-98043484D01*
X142218504Y-98042546D01*
X142208472Y-98034498D01*
X142192000Y-98019641D01*
X142169468Y-97998273D01*
X142145467Y-97974856D01*
X142112968Y-97942419D01*
X142084324Y-97913042D01*
X142060287Y-97887556D01*
X142041610Y-97866791D01*
X142029046Y-97851577D01*
X142023347Y-97842743D01*
X142023899Y-97840800D01*
X142029151Y-97844635D01*
G36*
X141916247Y-97836899D02*
X141917349Y-97839322D01*
X141916058Y-97843197D01*
X141911496Y-97849450D01*
X141902785Y-97859005D01*
X141889047Y-97872789D01*
X141869402Y-97891725D01*
X141842974Y-97916740D01*
X141819489Y-97938811D01*
X141740467Y-98012956D01*
X141803480Y-97945222D01*
X141836731Y-97909704D01*
X141863178Y-97881998D01*
X141883492Y-97861459D01*
X141898346Y-97847441D01*
X141908412Y-97839300D01*
X141914361Y-97836390D01*
X141916247Y-97836899D01*
X141916247Y-97836899D01*
G37*
X141916247Y-97836899D02*
X141917349Y-97839322D01*
X141916058Y-97843197D01*
X141911496Y-97849450D01*
X141902785Y-97859005D01*
X141889047Y-97872789D01*
X141869402Y-97891725D01*
X141842974Y-97916740D01*
X141819489Y-97938811D01*
X141740467Y-98012956D01*
X141803480Y-97945222D01*
X141836731Y-97909704D01*
X141863178Y-97881998D01*
X141883492Y-97861459D01*
X141898346Y-97847441D01*
X141908412Y-97839300D01*
X141914361Y-97836390D01*
X141916247Y-97836899D01*
D15*
X142880000Y-106042000D02*
X139990000Y-106042000D01*
X133980000Y-106042000D02*
X136870000Y-106042000D01*
X133220000Y-116462000D02*
X136870000Y-116462000D01*
X143640000Y-116462000D02*
X139990000Y-116462000D01*
X133220000Y-116462000D02*
X133220000Y-106802000D01*
X133220000Y-106802000D02*
X133980000Y-106042000D01*
X142880000Y-106042000D02*
X143640000Y-106802000D01*
X143640000Y-106802000D02*
X143640000Y-116462000D01*
X147916000Y-121912000D02*
X147916000Y-120912000D01*
X146216000Y-120912000D02*
X146216000Y-121912000D01*
X142740000Y-121324000D02*
X141740000Y-121324000D01*
X141740000Y-123024000D02*
X142740000Y-123024000D01*
X141470000Y-127166000D02*
X140470000Y-127166000D01*
X140470000Y-128866000D02*
X141470000Y-128866000D01*
X168274000Y-118998000D02*
X168274000Y-120918000D01*
X168274000Y-125858000D02*
X168274000Y-123938000D01*
X159894000Y-118238000D02*
X159894000Y-120918000D01*
X159894000Y-126618000D02*
X159894000Y-123938000D01*
X159894000Y-118238000D02*
X167514000Y-118238000D01*
X167514000Y-118238000D02*
X168274000Y-118998000D01*
X168274000Y-125858000D02*
X167514000Y-126618000D01*
X167514000Y-126618000D02*
X159894000Y-126618000D01*
X171692000Y-124730000D02*
X171692000Y-127930000D01*
X170192000Y-127930000D02*
X170192000Y-124730000D01*
X170192000Y-127930000D02*
X171692000Y-127930000D01*
D12*
X142127600Y-85409600D02*
X142127600Y-84909600D01*
X147127600Y-86909600D02*
X137127600Y-86909600D01*
X147127600Y-91809600D02*
X137127600Y-91809600D01*
X147127600Y-85409600D02*
X137127600Y-85409600D01*
X147127600Y-84909600D02*
X137127600Y-84909600D01*
X137127600Y-84909600D02*
X137127600Y-94709600D01*
X137127600Y-94709600D02*
X147127600Y-94709600D01*
X147127600Y-94709600D02*
X147127600Y-84909600D01*
X141627600Y-89409600D02*
G75*
G03X141627600Y-89409600I-2000000J0D01*
G01*
X146627600Y-89409600D02*
G75*
G03X146627600Y-89409600I-2000000J0D01*
G01*
D15*
X171908000Y-114552000D02*
X171908000Y-117552000D01*
X171908000Y-117552000D02*
X159308000Y-117552000D01*
X159308000Y-117552000D02*
X159308000Y-114552000D01*
X159308000Y-107952000D02*
X159308000Y-104952000D01*
X159308000Y-104952000D02*
X171908000Y-104952000D01*
X171908000Y-104952000D02*
X171908000Y-107952000D01*
X136534000Y-122012000D02*
X136534000Y-120812000D01*
X138294000Y-120812000D02*
X138294000Y-122012000D01*
X141640000Y-119262000D02*
X142840000Y-119262000D01*
X142840000Y-121022000D02*
X141640000Y-121022000D01*
X144430000Y-109000000D02*
X144430000Y-107000000D01*
X146570000Y-107000000D02*
X146570000Y-109000000D01*
X138294000Y-125892000D02*
X138294000Y-127092000D01*
X136534000Y-127092000D02*
X136534000Y-125892000D01*
X134502000Y-127092000D02*
X134502000Y-125892000D01*
X136262000Y-125892000D02*
X136262000Y-127092000D01*
X170062000Y-121250000D02*
X170062000Y-120050000D01*
X171822000Y-120050000D02*
X171822000Y-121250000D01*
X143240000Y-126588000D02*
X141240000Y-126588000D01*
X142240000Y-123348000D02*
X139240000Y-123348000D01*
D12*
X156233905Y-120086381D02*
X156233905Y-119086381D01*
X156472000Y-119086381D01*
X156614858Y-119134000D01*
X156710096Y-119229238D01*
X156757715Y-119324476D01*
X156805334Y-119514952D01*
X156805334Y-119657810D01*
X156757715Y-119848286D01*
X156710096Y-119943524D01*
X156614858Y-120038762D01*
X156472000Y-120086381D01*
X156233905Y-120086381D01*
X157757715Y-120086381D02*
X157186286Y-120086381D01*
X157472000Y-120086381D02*
X157472000Y-119086381D01*
X157376762Y-119229238D01*
X157281524Y-119324476D01*
X157186286Y-119372095D01*
X156876762Y-104433619D02*
X156781524Y-104386000D01*
X156686286Y-104290762D01*
X156543429Y-104147905D01*
X156448190Y-104100286D01*
X156352952Y-104100286D01*
X156400571Y-104338381D02*
X156305333Y-104290762D01*
X156210095Y-104195524D01*
X156162476Y-104005048D01*
X156162476Y-103671714D01*
X156210095Y-103481238D01*
X156305333Y-103386000D01*
X156400571Y-103338381D01*
X156591048Y-103338381D01*
X156686286Y-103386000D01*
X156781524Y-103481238D01*
X156829143Y-103671714D01*
X156829143Y-104005048D01*
X156781524Y-104195524D01*
X156686286Y-104290762D01*
X156591048Y-104338381D01*
X156400571Y-104338381D01*
X157781524Y-104338381D02*
X157210095Y-104338381D01*
X157495809Y-104338381D02*
X157495809Y-103338381D01*
X157400571Y-103481238D01*
X157305333Y-103576476D01*
X157210095Y-103624095D01*
X141311334Y-105513143D02*
X141263715Y-105560762D01*
X141120858Y-105608381D01*
X141025620Y-105608381D01*
X140882762Y-105560762D01*
X140787524Y-105465524D01*
X140739905Y-105370286D01*
X140692286Y-105179810D01*
X140692286Y-105036952D01*
X140739905Y-104846476D01*
X140787524Y-104751238D01*
X140882762Y-104656000D01*
X141025620Y-104608381D01*
X141120858Y-104608381D01*
X141263715Y-104656000D01*
X141311334Y-104703619D01*
X142263715Y-105608381D02*
X141692286Y-105608381D01*
X141978000Y-105608381D02*
X141978000Y-104608381D01*
X141882762Y-104751238D01*
X141787524Y-104846476D01*
X141692286Y-104894095D01*
X133531429Y-105852952D02*
X133531429Y-105091047D01*
X133912381Y-105471999D02*
X133150476Y-105471999D01*
X148931334Y-121769143D02*
X148883715Y-121816762D01*
X148740858Y-121864381D01*
X148645620Y-121864381D01*
X148502762Y-121816762D01*
X148407524Y-121721524D01*
X148359905Y-121626286D01*
X148312286Y-121435810D01*
X148312286Y-121292952D01*
X148359905Y-121102476D01*
X148407524Y-121007238D01*
X148502762Y-120912000D01*
X148645620Y-120864381D01*
X148740858Y-120864381D01*
X148883715Y-120912000D01*
X148931334Y-120959619D01*
X149312286Y-120959619D02*
X149359905Y-120912000D01*
X149455143Y-120864381D01*
X149693239Y-120864381D01*
X149788477Y-120912000D01*
X149836096Y-120959619D01*
X149883715Y-121054857D01*
X149883715Y-121150095D01*
X149836096Y-121292952D01*
X149264667Y-121864381D01*
X149883715Y-121864381D01*
X139025334Y-122531143D02*
X138977715Y-122578762D01*
X138834858Y-122626381D01*
X138739620Y-122626381D01*
X138596762Y-122578762D01*
X138501524Y-122483524D01*
X138453905Y-122388286D01*
X138406286Y-122197810D01*
X138406286Y-122054952D01*
X138453905Y-121864476D01*
X138501524Y-121769238D01*
X138596762Y-121674000D01*
X138739620Y-121626381D01*
X138834858Y-121626381D01*
X138977715Y-121674000D01*
X139025334Y-121721619D01*
X139358667Y-121626381D02*
X139977715Y-121626381D01*
X139644381Y-122007333D01*
X139787239Y-122007333D01*
X139882477Y-122054952D01*
X139930096Y-122102571D01*
X139977715Y-122197810D01*
X139977715Y-122435905D01*
X139930096Y-122531143D01*
X139882477Y-122578762D01*
X139787239Y-122626381D01*
X139501524Y-122626381D01*
X139406286Y-122578762D01*
X139358667Y-122531143D01*
X140803334Y-130151143D02*
X140755715Y-130198762D01*
X140612858Y-130246381D01*
X140517620Y-130246381D01*
X140374762Y-130198762D01*
X140279524Y-130103524D01*
X140231905Y-130008286D01*
X140184286Y-129817810D01*
X140184286Y-129674952D01*
X140231905Y-129484476D01*
X140279524Y-129389238D01*
X140374762Y-129294000D01*
X140517620Y-129246381D01*
X140612858Y-129246381D01*
X140755715Y-129294000D01*
X140803334Y-129341619D01*
X141660477Y-129579714D02*
X141660477Y-130246381D01*
X141422381Y-129198762D02*
X141184286Y-129913048D01*
X141803334Y-129913048D01*
X158329334Y-126341143D02*
X158281715Y-126388762D01*
X158138858Y-126436381D01*
X158043620Y-126436381D01*
X157900762Y-126388762D01*
X157805524Y-126293524D01*
X157757905Y-126198286D01*
X157710286Y-126007810D01*
X157710286Y-125864952D01*
X157757905Y-125674476D01*
X157805524Y-125579238D01*
X157900762Y-125484000D01*
X158043620Y-125436381D01*
X158138858Y-125436381D01*
X158281715Y-125484000D01*
X158329334Y-125531619D01*
X159234096Y-125436381D02*
X158757905Y-125436381D01*
X158710286Y-125912571D01*
X158757905Y-125864952D01*
X158853143Y-125817333D01*
X159091239Y-125817333D01*
X159186477Y-125864952D01*
X159234096Y-125912571D01*
X159281715Y-126007810D01*
X159281715Y-126245905D01*
X159234096Y-126341143D01*
X159186477Y-126388762D01*
X159091239Y-126436381D01*
X158853143Y-126436381D01*
X158757905Y-126388762D01*
X158710286Y-126341143D01*
X168483048Y-118589429D02*
X169244953Y-118589429D01*
X168864001Y-118970381D02*
X168864001Y-118208476D01*
X170203905Y-130500381D02*
X170203905Y-129500381D01*
X170442000Y-129500381D01*
X170584858Y-129548000D01*
X170680096Y-129643238D01*
X170727715Y-129738476D01*
X170775334Y-129928952D01*
X170775334Y-130071810D01*
X170727715Y-130262286D01*
X170680096Y-130357524D01*
X170584858Y-130452762D01*
X170442000Y-130500381D01*
X170203905Y-130500381D01*
X171156286Y-129595619D02*
X171203905Y-129548000D01*
X171299143Y-129500381D01*
X171537239Y-129500381D01*
X171632477Y-129548000D01*
X171680096Y-129595619D01*
X171727715Y-129690857D01*
X171727715Y-129786095D01*
X171680096Y-129928952D01*
X171108667Y-130500381D01*
X171727715Y-130500381D01*
X141794267Y-83061981D02*
X141794267Y-83776267D01*
X141746647Y-83919124D01*
X141651409Y-84014362D01*
X141508552Y-84061981D01*
X141413314Y-84061981D01*
X142794267Y-84061981D02*
X142222838Y-84061981D01*
X142508552Y-84061981D02*
X142508552Y-83061981D01*
X142413314Y-83204838D01*
X142318076Y-83300076D01*
X142222838Y-83347695D01*
X171029334Y-104604381D02*
X170553143Y-104604381D01*
X170553143Y-103604381D01*
X171886477Y-104604381D02*
X171315048Y-104604381D01*
X171600762Y-104604381D02*
X171600762Y-103604381D01*
X171505524Y-103747238D01*
X171410286Y-103842476D01*
X171315048Y-103890095D01*
X134961334Y-121864381D02*
X134628000Y-121388190D01*
X134389905Y-121864381D02*
X134389905Y-120864381D01*
X134770858Y-120864381D01*
X134866096Y-120912000D01*
X134913715Y-120959619D01*
X134961334Y-121054857D01*
X134961334Y-121197714D01*
X134913715Y-121292952D01*
X134866096Y-121340571D01*
X134770858Y-121388190D01*
X134389905Y-121388190D01*
X135913715Y-121864381D02*
X135342286Y-121864381D01*
X135628000Y-121864381D02*
X135628000Y-120864381D01*
X135532762Y-121007238D01*
X135437524Y-121102476D01*
X135342286Y-121150095D01*
X139025334Y-120594381D02*
X138692000Y-120118190D01*
X138453905Y-120594381D02*
X138453905Y-119594381D01*
X138834858Y-119594381D01*
X138930096Y-119642000D01*
X138977715Y-119689619D01*
X139025334Y-119784857D01*
X139025334Y-119927714D01*
X138977715Y-120022952D01*
X138930096Y-120070571D01*
X138834858Y-120118190D01*
X138453905Y-120118190D01*
X139406286Y-119689619D02*
X139453905Y-119642000D01*
X139549143Y-119594381D01*
X139787239Y-119594381D01*
X139882477Y-119642000D01*
X139930096Y-119689619D01*
X139977715Y-119784857D01*
X139977715Y-119880095D01*
X139930096Y-120022952D01*
X139358667Y-120594381D01*
X139977715Y-120594381D01*
X145375334Y-104338381D02*
X145042000Y-103862190D01*
X144803905Y-104338381D02*
X144803905Y-103338381D01*
X145184858Y-103338381D01*
X145280096Y-103386000D01*
X145327715Y-103433619D01*
X145375334Y-103528857D01*
X145375334Y-103671714D01*
X145327715Y-103766952D01*
X145280096Y-103814571D01*
X145184858Y-103862190D01*
X144803905Y-103862190D01*
X145708667Y-103338381D02*
X146327715Y-103338381D01*
X145994381Y-103719333D01*
X146137239Y-103719333D01*
X146232477Y-103766952D01*
X146280096Y-103814571D01*
X146327715Y-103909810D01*
X146327715Y-104147905D01*
X146280096Y-104243143D01*
X146232477Y-104290762D01*
X146137239Y-104338381D01*
X145851524Y-104338381D01*
X145756286Y-104290762D01*
X145708667Y-104243143D01*
X137247334Y-130246381D02*
X136914000Y-129770190D01*
X136675905Y-130246381D02*
X136675905Y-129246381D01*
X137056858Y-129246381D01*
X137152096Y-129294000D01*
X137199715Y-129341619D01*
X137247334Y-129436857D01*
X137247334Y-129579714D01*
X137199715Y-129674952D01*
X137152096Y-129722571D01*
X137056858Y-129770190D01*
X136675905Y-129770190D01*
X138104477Y-129579714D02*
X138104477Y-130246381D01*
X137866381Y-129198762D02*
X137628286Y-129913048D01*
X138247334Y-129913048D01*
X135215334Y-130246381D02*
X134882000Y-129770190D01*
X134643905Y-130246381D02*
X134643905Y-129246381D01*
X135024858Y-129246381D01*
X135120096Y-129294000D01*
X135167715Y-129341619D01*
X135215334Y-129436857D01*
X135215334Y-129579714D01*
X135167715Y-129674952D01*
X135120096Y-129722571D01*
X135024858Y-129770190D01*
X134643905Y-129770190D01*
X136120096Y-129246381D02*
X135643905Y-129246381D01*
X135596286Y-129722571D01*
X135643905Y-129674952D01*
X135739143Y-129627333D01*
X135977239Y-129627333D01*
X136072477Y-129674952D01*
X136120096Y-129722571D01*
X136167715Y-129817810D01*
X136167715Y-130055905D01*
X136120096Y-130151143D01*
X136072477Y-130198762D01*
X135977239Y-130246381D01*
X135739143Y-130246381D01*
X135643905Y-130198762D01*
X135596286Y-130151143D01*
X170775334Y-129230381D02*
X170442000Y-128754190D01*
X170203905Y-129230381D02*
X170203905Y-128230381D01*
X170584858Y-128230381D01*
X170680096Y-128278000D01*
X170727715Y-128325619D01*
X170775334Y-128420857D01*
X170775334Y-128563714D01*
X170727715Y-128658952D01*
X170680096Y-128706571D01*
X170584858Y-128754190D01*
X170203905Y-128754190D01*
X171632477Y-128230381D02*
X171442000Y-128230381D01*
X171346762Y-128278000D01*
X171299143Y-128325619D01*
X171203905Y-128468476D01*
X171156286Y-128658952D01*
X171156286Y-129039905D01*
X171203905Y-129135143D01*
X171251524Y-129182762D01*
X171346762Y-129230381D01*
X171537239Y-129230381D01*
X171632477Y-129182762D01*
X171680096Y-129135143D01*
X171727715Y-129039905D01*
X171727715Y-128801810D01*
X171680096Y-128706571D01*
X171632477Y-128658952D01*
X171537239Y-128611333D01*
X171346762Y-128611333D01*
X171251524Y-128658952D01*
X171203905Y-128706571D01*
X171156286Y-128801810D01*
X144018095Y-126960381D02*
X144018095Y-127769905D01*
X144065714Y-127865143D01*
X144113333Y-127912762D01*
X144208571Y-127960381D01*
X144399048Y-127960381D01*
X144494286Y-127912762D01*
X144541905Y-127865143D01*
X144589524Y-127769905D01*
X144589524Y-126960381D01*
X145589524Y-127960381D02*
X145018095Y-127960381D01*
X145303809Y-127960381D02*
X145303809Y-126960381D01*
X145208571Y-127103238D01*
X145113333Y-127198476D01*
X145018095Y-127246095D01*
%LPC*%
D17*
X148800000Y-113220000D03*
X148800000Y-117780000D03*
D18*
X155100000Y-115500000D03*
D19*
X156775000Y-117025000D03*
X153425000Y-113975000D03*
X156775000Y-113975000D03*
X153425000Y-117025000D03*
D17*
X148800000Y-105720000D03*
X148800000Y-110280000D03*
D18*
X155100000Y-108000000D03*
D19*
X156775000Y-109525000D03*
X153425000Y-106475000D03*
X156775000Y-106475000D03*
X153425000Y-109525000D03*
D20*
X128130800Y-84683600D03*
X128130800Y-94335600D03*
D21*
X165473000Y-84709000D03*
X165473000Y-94352000D03*
D22*
X151638000Y-100838000D03*
D23*
X138430000Y-107252000D03*
X138430000Y-115252000D03*
D24*
X147066000Y-120162000D03*
X147066000Y-122662000D03*
D25*
X140990000Y-122174000D03*
X143490000Y-122174000D03*
X139720000Y-128016000D03*
X142220000Y-128016000D03*
D26*
X167134000Y-122428000D03*
X161034000Y-122428000D03*
D27*
X170942000Y-127080000D03*
X170942000Y-124380000D03*
D28*
X144627600Y-89509600D03*
D29*
X139627600Y-89509600D03*
D30*
X160658000Y-111252000D03*
X170558000Y-111252000D03*
D27*
X137414000Y-120062000D03*
X137414000Y-122762000D03*
D31*
X143590000Y-120142000D03*
X140890000Y-120142000D03*
D32*
X145500000Y-106000000D03*
X145500000Y-110000000D03*
D27*
X137414000Y-127842000D03*
X137414000Y-125142000D03*
X135382000Y-125142000D03*
X135382000Y-127842000D03*
X170942000Y-119300000D03*
X170942000Y-122000000D03*
D33*
X140040000Y-123993000D03*
X140040000Y-124643000D03*
X140040000Y-125293000D03*
X140040000Y-125943000D03*
X144440000Y-125943000D03*
X144440000Y-125293000D03*
X144440000Y-124643000D03*
X144440000Y-123993000D03*
M02*
