M48
;DRILL file {KiCad 4.0.7-e2-6376~58~ubuntu16.04.1} date Mon Nov  6 15:13:23 2017
;FORMAT={-:-/ absolute / metric / decimal}
FMAT,2
METRIC,TZ
T1C0.406
T2C0.800
T3C0.813
T4C1.300
T5C3.200
%
G90
G05
M71
T1
X140.97Y-113.284
X140.97Y-114.3
X140.97Y-115.316
X140.97Y-116.332
X140.97Y-117.348
X141.986Y-113.284
X141.986Y-114.3
X141.986Y-115.316
X141.986Y-116.332
X141.986Y-117.348
X143.002Y-113.284
X143.002Y-114.3
X143.002Y-115.316
X143.002Y-116.332
X143.002Y-117.348
X144.018Y-113.284
X144.018Y-114.3
X144.018Y-115.316
X144.018Y-116.332
X144.018Y-117.348
X148.59Y-124.206
X149.606Y-107.442
X149.606Y-108.712
X149.606Y-124.968
T2
X153.425Y-106.475
X153.425Y-109.525
X153.425Y-113.975
X153.425Y-117.025
X155.1Y-108.
X155.1Y-115.5
X156.775Y-106.475
X156.775Y-109.525
X156.775Y-113.975
X156.775Y-117.025
T3
X132.131Y-84.684
X132.131Y-94.336
X165.473Y-84.709
X165.473Y-94.352
T4
X139.628Y-89.51
X144.628Y-89.51
T5
X151.638Y-100.838
T0
M30
