G04 #@! TF.FileFunction,Profile,NP*
%FSLAX46Y46*%
G04 Gerber Fmt 4.6, Leading zero omitted, Abs format (unit mm)*
G04 Created by KiCad (PCBNEW 4.0.7-e2-6376~58~ubuntu16.04.1) date Mon Nov  6 15:13:20 2017*
%MOMM*%
%LPD*%
G01*
G04 APERTURE LIST*
%ADD10C,0.100000*%
%ADD11C,0.150000*%
G04 APERTURE END LIST*
D10*
D11*
X162433000Y-96368000D02*
X166905000Y-96368000D01*
X162433000Y-98526000D02*
X162433000Y-96368000D01*
X162433000Y-92308000D02*
X166905000Y-92308000D01*
X162433000Y-86731000D02*
X162433000Y-92303000D01*
X166905000Y-86731000D02*
X162433000Y-86731000D01*
X162433000Y-82681000D02*
X166905000Y-82681000D01*
X162433000Y-81026000D02*
X162433000Y-82681000D01*
X166905000Y-86737000D02*
G75*
G03X166905000Y-82681000I0J2028000D01*
G01*
X166905000Y-96378000D02*
G75*
G03X166905000Y-92308000I0J2035000D01*
G01*
X122936000Y-96443000D02*
X126836000Y-96443000D01*
X122936000Y-98026000D02*
X122936000Y-96443000D01*
X122936000Y-92243000D02*
X126836000Y-92243000D01*
X122936000Y-90660000D02*
X122936000Y-92243000D01*
X122936000Y-86806000D02*
X126836000Y-86806000D01*
X122936000Y-88392000D02*
X122936000Y-86806000D01*
X122936000Y-82606000D02*
X126836000Y-82606000D01*
X122936000Y-81026000D02*
X122936000Y-82606000D01*
X126836000Y-86812000D02*
G75*
G03X126836000Y-82606000I0J2103000D01*
G01*
X126836000Y-96443000D02*
G75*
G03X126836000Y-92243000I0J2100000D01*
G01*
X162433000Y-98526000D02*
X172936000Y-98526000D01*
X122936000Y-81026000D02*
X162433000Y-81026000D01*
X172936000Y-131026000D02*
X172936000Y-98526000D01*
X132936000Y-131026000D02*
X172936000Y-131026000D01*
X132936000Y-98026000D02*
X132936000Y-131026000D01*
X122936000Y-98026000D02*
X132936000Y-98026000D01*
X132936000Y-90660000D02*
X122936000Y-90660000D01*
X132936000Y-88392000D02*
X132936000Y-90660000D01*
X122936000Y-88392000D02*
X132936000Y-88392000D01*
M02*
