G04 #@! TF.FileFunction,Copper,L1,Top,Signal*
%FSLAX46Y46*%
G04 Gerber Fmt 4.6, Leading zero omitted, Abs format (unit mm)*
G04 Created by KiCad (PCBNEW 4.0.6-e0-6349~53~ubuntu16.04.1) date Thu Apr 27 18:13:27 2017*
%MOMM*%
%LPD*%
G01*
G04 APERTURE LIST*
%ADD10C,0.100000*%
%ADD11R,10.000000X7.000000*%
%ADD12R,1.500000X1.250000*%
%ADD13R,1.250000X1.500000*%
%ADD14R,1.600000X3.500000*%
%ADD15R,1.200000X1.200000*%
%ADD16C,2.400000*%
%ADD17R,2.400000X2.400000*%
%ADD18C,1.500000*%
%ADD19C,3.000000*%
%ADD20O,5.000000X3.800000*%
%ADD21R,1.300000X1.500000*%
%ADD22R,1.500000X1.300000*%
%ADD23R,1.560000X0.650000*%
%ADD24C,1.270000*%
%ADD25C,0.254000*%
%ADD26C,5.080000*%
%ADD27C,3.810000*%
%ADD28C,1.270000*%
%ADD29C,2.540000*%
%ADD30C,0.635000*%
%ADD31C,0.203200*%
G04 APERTURE END LIST*
D10*
D11*
X128130800Y-84683600D03*
X128130800Y-94335600D03*
D12*
X149332000Y-110998000D03*
X146832000Y-110998000D03*
X169271000Y-110998000D03*
X166771000Y-110998000D03*
D13*
X142748000Y-115042000D03*
X142748000Y-112542000D03*
X162687000Y-115042000D03*
X162687000Y-112542000D03*
D14*
X136398000Y-114206000D03*
X136398000Y-108806000D03*
X156337000Y-114206000D03*
X156337000Y-108806000D03*
D15*
X151511000Y-123487000D03*
X151511000Y-125687000D03*
X171450000Y-123487000D03*
X171450000Y-125687000D03*
X151511000Y-127551000D03*
X151511000Y-129751000D03*
X171450000Y-127551000D03*
X171450000Y-129751000D03*
D16*
X141127600Y-89509600D03*
D17*
X144627600Y-89509600D03*
D18*
X145413000Y-117856000D03*
X142873000Y-117856000D03*
X140843000Y-117856000D03*
X138303000Y-117856000D03*
D19*
X148463000Y-120526000D03*
X134743000Y-120526000D03*
D18*
X165352000Y-117856000D03*
X162812000Y-117856000D03*
X160782000Y-117856000D03*
X158242000Y-117856000D03*
D19*
X168402000Y-120526000D03*
X154682000Y-120526000D03*
D20*
X164973000Y-84709000D03*
X164973000Y-94352000D03*
D21*
X151511000Y-113966000D03*
X151511000Y-116666000D03*
X171450000Y-113966000D03*
X171450000Y-116666000D03*
X151511000Y-109140000D03*
X151511000Y-111840000D03*
X171450000Y-109140000D03*
X171450000Y-111840000D03*
D22*
X149432000Y-109093000D03*
X146732000Y-109093000D03*
X169371000Y-109093000D03*
X166671000Y-109093000D03*
D21*
X144653000Y-112442000D03*
X144653000Y-115142000D03*
X164592000Y-112442000D03*
X164592000Y-115142000D03*
X140843000Y-115142000D03*
X140843000Y-112442000D03*
X160782000Y-115142000D03*
X160782000Y-112442000D03*
X151511000Y-118792000D03*
X151511000Y-121492000D03*
X171450000Y-118792000D03*
X171450000Y-121492000D03*
D23*
X149432000Y-114742000D03*
X149432000Y-113792000D03*
X149432000Y-112842000D03*
X146732000Y-112842000D03*
X146732000Y-114742000D03*
X146732000Y-113792000D03*
X169371000Y-114742000D03*
X169371000Y-113792000D03*
X169371000Y-112842000D03*
X166671000Y-112842000D03*
X166671000Y-114742000D03*
X166671000Y-113792000D03*
D24*
X149446521Y-115821217D03*
X149397778Y-127891267D03*
X169965944Y-124739764D03*
X169364208Y-116001836D03*
X171450000Y-107442000D03*
X164592000Y-110744000D03*
X151511000Y-107442000D03*
X144653000Y-110617000D03*
X163703000Y-125476000D03*
X161798000Y-125476000D03*
X159893000Y-125476000D03*
X143764000Y-125476000D03*
X141859000Y-125476000D03*
X139954000Y-125476000D03*
D25*
X201930000Y-128016000D02*
X201930000Y-127635000D01*
D26*
X132130800Y-84683600D02*
X144551400Y-84683600D01*
D27*
X164973000Y-84709000D02*
X160655000Y-84709000D01*
D26*
X144627600Y-84709000D02*
X160655000Y-84709000D01*
D25*
X149397778Y-127891267D02*
X150032777Y-128526266D01*
X156742273Y-119617093D02*
X152311398Y-115186218D01*
X152311398Y-115186218D02*
X150081520Y-115186218D01*
X150032777Y-128526266D02*
X152509006Y-128526266D01*
X152509006Y-128526266D02*
X156742273Y-124292999D01*
X156742273Y-124292999D02*
X156742273Y-119617093D01*
X150081520Y-115186218D02*
X149446521Y-115821217D01*
D28*
X149446521Y-115068034D02*
X149446521Y-115821217D01*
X149466517Y-115048038D02*
X149446521Y-115068034D01*
X149476758Y-115048038D02*
X149466517Y-115048038D01*
D25*
X149479000Y-115853696D02*
X149446521Y-115821217D01*
D29*
X144627600Y-89509600D02*
X144627600Y-84759800D01*
D28*
X164973000Y-84709000D02*
X164592000Y-85090000D01*
D25*
X149397778Y-126993242D02*
X149397778Y-127891267D01*
X149397778Y-124746222D02*
X149397778Y-126993242D01*
X150657000Y-123487000D02*
X149397778Y-124746222D01*
X151511000Y-123487000D02*
X150657000Y-123487000D01*
X169965944Y-124117056D02*
X169965944Y-124739764D01*
X170596000Y-123487000D02*
X169965944Y-124117056D01*
X171450000Y-123487000D02*
X170596000Y-123487000D01*
D28*
X169364208Y-115103811D02*
X169364208Y-116001836D01*
X169364208Y-115069255D02*
X169364208Y-115103811D01*
X169354905Y-115059952D02*
X169364208Y-115069255D01*
D25*
X169545000Y-114916000D02*
X169371000Y-114742000D01*
D30*
X169271000Y-110998000D02*
X169692000Y-110998000D01*
X169692000Y-110998000D02*
X171450000Y-109240000D01*
X171450000Y-109240000D02*
X171450000Y-109140000D01*
X149457000Y-110998000D02*
X150018607Y-110998000D01*
X150018607Y-110998000D02*
X151315000Y-109701607D01*
X151315000Y-109701607D02*
X151315000Y-109140000D01*
D28*
X171450000Y-109140000D02*
X171450000Y-107442000D01*
X164592000Y-112442000D02*
X164592000Y-110744000D01*
D30*
X151511000Y-109140000D02*
X151511000Y-107442000D01*
D28*
X144653000Y-112442000D02*
X144653000Y-110617000D01*
D25*
X149332000Y-110998000D02*
X149457000Y-110998000D01*
X151315000Y-109140000D02*
X151511000Y-109140000D01*
D26*
X132130800Y-94335600D02*
X133705600Y-94335600D01*
D27*
X164973000Y-94361000D02*
X161417000Y-94361000D01*
D28*
X161798000Y-125476000D02*
X163703000Y-125476000D01*
X159893000Y-125476000D02*
X161798000Y-125476000D01*
X141859000Y-125476000D02*
X143764000Y-125476000D01*
X139954000Y-125476000D02*
X141859000Y-125476000D01*
X146573000Y-115142000D02*
X145796000Y-115142000D01*
D25*
X146732000Y-114742000D02*
X146196000Y-114742000D01*
D28*
X145796000Y-115142000D02*
X144653000Y-115142000D01*
D25*
X146196000Y-114742000D02*
X145796000Y-115142000D01*
X151511000Y-118792000D02*
X150285993Y-118792000D01*
X150285993Y-118792000D02*
X149349993Y-117856000D01*
X149349993Y-117856000D02*
X147151414Y-117856000D01*
D28*
X147151414Y-118468124D02*
X147151414Y-117856000D01*
X147151414Y-117856000D02*
X147151414Y-115720414D01*
X138303000Y-117856000D02*
X140076512Y-119629512D01*
X140076512Y-119629512D02*
X145990026Y-119629512D01*
X145990026Y-119629512D02*
X147151414Y-118468124D01*
X147151414Y-115720414D02*
X146573000Y-115142000D01*
X136398000Y-114206000D02*
X136398000Y-115951000D01*
X136398000Y-115951000D02*
X138303000Y-117856000D01*
X142748000Y-115042000D02*
X144553000Y-115042000D01*
X144553000Y-115042000D02*
X144653000Y-115142000D01*
X166831000Y-115142000D02*
X165989000Y-115142000D01*
X165989000Y-115142000D02*
X164592000Y-115142000D01*
D25*
X166671000Y-114742000D02*
X166389000Y-114742000D01*
X166389000Y-114742000D02*
X165989000Y-115142000D01*
X171450000Y-118792000D02*
X170257323Y-118792000D01*
X170257323Y-118792000D02*
X169320615Y-117855292D01*
X167259000Y-117855292D02*
X167259000Y-117475000D01*
X169320615Y-117855292D02*
X167259000Y-117855292D01*
D28*
X167259000Y-118299538D02*
X167259000Y-117475000D01*
X167259000Y-117475000D02*
X167259000Y-115570000D01*
X162687000Y-115042000D02*
X164492000Y-115042000D01*
X164492000Y-115042000D02*
X164592000Y-115142000D01*
X167259000Y-115570000D02*
X166831000Y-115142000D01*
X160020000Y-119634000D02*
X165924538Y-119634000D01*
X165924538Y-119634000D02*
X167259000Y-118299538D01*
X158242000Y-117856000D02*
X160020000Y-119634000D01*
X156337000Y-114206000D02*
X156337000Y-115951000D01*
X156337000Y-115951000D02*
X158242000Y-117856000D01*
D25*
X151511000Y-125687000D02*
X152543383Y-125687000D01*
X152543383Y-125687000D02*
X153162000Y-125068383D01*
X153162000Y-125068383D02*
X153162000Y-121965297D01*
X153162000Y-121965297D02*
X152654000Y-121457297D01*
X152273000Y-116666000D02*
X151511000Y-116666000D01*
X152654000Y-121457297D02*
X152654000Y-117047000D01*
X152654000Y-117047000D02*
X152273000Y-116666000D01*
X171450000Y-125687000D02*
X172098240Y-125687000D01*
X172098240Y-125687000D02*
X172518025Y-125267215D01*
X172518025Y-125267215D02*
X172518025Y-116997294D01*
X172518025Y-116997294D02*
X172186731Y-116666000D01*
X172186731Y-116666000D02*
X171450000Y-116666000D01*
X151511000Y-127551000D02*
X150788023Y-127551000D01*
X150788023Y-127551000D02*
X150305470Y-127068447D01*
X150305470Y-127068447D02*
X150305470Y-124979075D01*
X150305470Y-124979075D02*
X150652441Y-124632104D01*
X150652441Y-124632104D02*
X152326954Y-124632104D01*
X152326954Y-124632104D02*
X152654000Y-124305058D01*
X152654000Y-124305058D02*
X152654000Y-122148235D01*
X152654000Y-122148235D02*
X151997765Y-121492000D01*
X151997765Y-121492000D02*
X151511000Y-121492000D01*
X170596000Y-127551000D02*
X169000734Y-125955734D01*
X171450000Y-127551000D02*
X170596000Y-127551000D01*
X169000734Y-125955734D02*
X169000734Y-123419809D01*
X169000734Y-123419809D02*
X170928543Y-121492000D01*
X170928543Y-121492000D02*
X171450000Y-121492000D01*
X149432000Y-113792000D02*
X151337000Y-113792000D01*
X151337000Y-113792000D02*
X151511000Y-113966000D01*
X151511000Y-111840000D02*
X151511000Y-113966000D01*
X171450000Y-111840000D02*
X171450000Y-113966000D01*
X169371000Y-113792000D02*
X171276000Y-113792000D01*
X171276000Y-113792000D02*
X171450000Y-113966000D01*
X149432000Y-112842000D02*
X148398000Y-112842000D01*
X148452113Y-109093000D02*
X149432000Y-109093000D01*
X148398000Y-112842000D02*
X148082000Y-112526000D01*
X148082000Y-112526000D02*
X148082000Y-109463113D01*
X148082000Y-109463113D02*
X148452113Y-109093000D01*
X169371000Y-109093000D02*
X168813875Y-109093000D01*
X168813875Y-109093000D02*
X168190799Y-109716076D01*
X168190799Y-109716076D02*
X168190799Y-112383414D01*
X168190799Y-112383414D02*
X168649385Y-112842000D01*
X168649385Y-112842000D02*
X169371000Y-112842000D01*
X141189000Y-113792000D02*
X146732000Y-113792000D01*
X140843000Y-115142000D02*
X140843000Y-114138000D01*
X140843000Y-114138000D02*
X141189000Y-113792000D01*
X160782000Y-115142000D02*
X160782000Y-114138000D01*
X160782000Y-114138000D02*
X161128000Y-113792000D01*
X161128000Y-113792000D02*
X165637000Y-113792000D01*
X165637000Y-113792000D02*
X166671000Y-113792000D01*
D31*
G36*
X162002400Y-92443000D02*
X162006348Y-92483268D01*
X162010027Y-92523686D01*
X162010454Y-92525136D01*
X162010601Y-92526637D01*
X162022320Y-92565454D01*
X162033755Y-92604306D01*
X162034453Y-92605641D01*
X162034890Y-92607089D01*
X162053919Y-92642878D01*
X162072689Y-92678781D01*
X162073637Y-92679960D01*
X162074344Y-92681290D01*
X162099911Y-92712638D01*
X162125348Y-92744275D01*
X162126506Y-92745247D01*
X162127459Y-92746415D01*
X162158643Y-92772213D01*
X162189725Y-92798294D01*
X162191049Y-92799022D01*
X162192212Y-92799984D01*
X162227828Y-92819241D01*
X162263369Y-92838780D01*
X162264810Y-92839237D01*
X162266136Y-92839954D01*
X162304821Y-92851929D01*
X162331400Y-92860360D01*
X162331400Y-92905250D01*
X162201676Y-93084457D01*
X161996112Y-93532417D01*
X161922713Y-93809613D01*
X162020732Y-94199600D01*
X162331400Y-94199600D01*
X162331400Y-94504400D01*
X162020732Y-94504400D01*
X161922713Y-94894387D01*
X161996112Y-95171583D01*
X162201676Y-95619543D01*
X162331400Y-95798751D01*
X162331400Y-95826024D01*
X162310546Y-95832320D01*
X162271694Y-95843755D01*
X162270359Y-95844453D01*
X162268911Y-95844890D01*
X162233122Y-95863919D01*
X162197219Y-95882689D01*
X162196040Y-95883637D01*
X162194710Y-95884344D01*
X162163362Y-95909911D01*
X162131725Y-95935348D01*
X162130753Y-95936506D01*
X162129585Y-95937459D01*
X162103852Y-95968565D01*
X162077706Y-95999725D01*
X162076978Y-96001049D01*
X162076016Y-96002212D01*
X162056759Y-96037828D01*
X162037220Y-96073369D01*
X162036763Y-96074810D01*
X162036046Y-96076136D01*
X162024089Y-96114764D01*
X162011810Y-96153473D01*
X162011642Y-96154973D01*
X162011195Y-96156416D01*
X162006954Y-96196767D01*
X162002442Y-96236988D01*
X162002422Y-96239882D01*
X162002410Y-96239994D01*
X162002420Y-96240106D01*
X162002400Y-96243000D01*
X162002400Y-98526000D01*
X162006348Y-98566268D01*
X162010027Y-98606686D01*
X162010454Y-98608136D01*
X162010601Y-98609637D01*
X162022320Y-98648454D01*
X162033755Y-98687306D01*
X162034453Y-98688641D01*
X162034890Y-98690089D01*
X162053919Y-98725878D01*
X162072689Y-98761781D01*
X162073637Y-98762960D01*
X162074344Y-98764290D01*
X162099911Y-98795638D01*
X162125348Y-98827275D01*
X162126506Y-98828247D01*
X162127459Y-98829415D01*
X162158643Y-98855213D01*
X162189725Y-98881294D01*
X162191049Y-98882022D01*
X162192212Y-98882984D01*
X162227828Y-98902241D01*
X162263369Y-98921780D01*
X162264810Y-98922237D01*
X162266136Y-98922954D01*
X162304821Y-98934929D01*
X162343473Y-98947190D01*
X162344973Y-98947358D01*
X162346416Y-98947805D01*
X162386767Y-98952046D01*
X162426988Y-98956558D01*
X162429882Y-98956578D01*
X162429994Y-98956590D01*
X162430106Y-98956580D01*
X162433000Y-98956600D01*
X172505400Y-98956600D01*
X172505400Y-116306202D01*
X172493534Y-116296455D01*
X172459384Y-116267800D01*
X172457320Y-116266665D01*
X172457320Y-115916000D01*
X172452804Y-115859372D01*
X172423060Y-115763325D01*
X172367736Y-115679367D01*
X172291212Y-115614146D01*
X172199547Y-115572827D01*
X172100000Y-115558680D01*
X170800000Y-115558680D01*
X170743372Y-115563196D01*
X170647325Y-115592940D01*
X170563367Y-115648264D01*
X170498146Y-115724788D01*
X170456827Y-115816453D01*
X170442680Y-115916000D01*
X170442680Y-117416000D01*
X170447196Y-117472628D01*
X170476940Y-117568675D01*
X170532264Y-117652633D01*
X170608788Y-117717854D01*
X170632650Y-117728610D01*
X170563367Y-117774264D01*
X170498146Y-117850788D01*
X170456827Y-117942453D01*
X170442680Y-118042000D01*
X170442680Y-118294857D01*
X169661865Y-117514042D01*
X169627418Y-117485747D01*
X169593268Y-117457092D01*
X169591045Y-117455870D01*
X169589084Y-117454259D01*
X169549767Y-117433177D01*
X169510731Y-117411717D01*
X169508315Y-117410951D01*
X169506076Y-117409750D01*
X169463413Y-117396707D01*
X169420953Y-117383238D01*
X169418432Y-117382955D01*
X169416004Y-117382213D01*
X169371649Y-117377708D01*
X169327353Y-117372739D01*
X169322393Y-117372704D01*
X169322300Y-117372695D01*
X169322214Y-117372703D01*
X169320615Y-117372692D01*
X168249600Y-117372692D01*
X168249600Y-115570000D01*
X168240669Y-115478916D01*
X168232695Y-115387778D01*
X168231243Y-115382779D01*
X168230734Y-115377591D01*
X168204281Y-115289975D01*
X168178758Y-115202123D01*
X168176360Y-115197497D01*
X168174855Y-115192512D01*
X168131903Y-115111731D01*
X168089787Y-115030480D01*
X168086538Y-115026410D01*
X168084092Y-115021810D01*
X168026233Y-114950868D01*
X167969171Y-114879388D01*
X167962026Y-114872142D01*
X167961901Y-114871989D01*
X167961760Y-114871872D01*
X167959460Y-114869540D01*
X167808320Y-114718400D01*
X167808320Y-114417000D01*
X167803804Y-114360372D01*
X167774060Y-114264325D01*
X167773215Y-114263042D01*
X167794173Y-114216547D01*
X167808320Y-114117000D01*
X167808320Y-113661406D01*
X167839597Y-113640507D01*
X167924507Y-113555598D01*
X167991220Y-113455754D01*
X168037173Y-113344814D01*
X168060600Y-113227041D01*
X168060600Y-113146800D01*
X167908202Y-112994402D01*
X168060600Y-112994402D01*
X168060600Y-112935714D01*
X168233680Y-113108794D01*
X168233680Y-113167000D01*
X168238196Y-113223628D01*
X168267940Y-113319675D01*
X168268785Y-113320958D01*
X168247827Y-113367453D01*
X168233680Y-113467000D01*
X168233680Y-114117000D01*
X168238196Y-114173628D01*
X168267940Y-114269675D01*
X168268785Y-114270958D01*
X168247827Y-114317453D01*
X168233680Y-114417000D01*
X168233680Y-115067000D01*
X168238196Y-115123628D01*
X168267940Y-115219675D01*
X168323264Y-115303633D01*
X168373608Y-115346541D01*
X168373608Y-115991872D01*
X168372306Y-116085128D01*
X168407375Y-116276203D01*
X168478889Y-116456828D01*
X168584125Y-116620122D01*
X168719074Y-116759866D01*
X168878596Y-116870737D01*
X169056615Y-116948511D01*
X169246350Y-116990227D01*
X169440574Y-116994295D01*
X169631889Y-116960561D01*
X169813008Y-116890310D01*
X169977033Y-116786216D01*
X170117716Y-116652246D01*
X170229697Y-116493502D01*
X170308713Y-116316031D01*
X170351752Y-116126592D01*
X170353100Y-116030028D01*
X170354711Y-116015667D01*
X170354808Y-116001836D01*
X170354808Y-115907711D01*
X170354850Y-115904703D01*
X170354808Y-115904491D01*
X170354808Y-115356366D01*
X170387633Y-115334736D01*
X170452854Y-115258212D01*
X170494173Y-115166547D01*
X170508320Y-115067000D01*
X170508320Y-114916296D01*
X170532264Y-114952633D01*
X170608788Y-115017854D01*
X170700453Y-115059173D01*
X170800000Y-115073320D01*
X172100000Y-115073320D01*
X172156628Y-115068804D01*
X172252675Y-115039060D01*
X172336633Y-114983736D01*
X172401854Y-114907212D01*
X172443173Y-114815547D01*
X172457320Y-114716000D01*
X172457320Y-113216000D01*
X172452804Y-113159372D01*
X172423060Y-113063325D01*
X172367736Y-112979367D01*
X172291212Y-112914146D01*
X172267350Y-112903390D01*
X172336633Y-112857736D01*
X172401854Y-112781212D01*
X172443173Y-112689547D01*
X172457320Y-112590000D01*
X172457320Y-111090000D01*
X172452804Y-111033372D01*
X172423060Y-110937325D01*
X172367736Y-110853367D01*
X172291212Y-110788146D01*
X172199547Y-110746827D01*
X172100000Y-110732680D01*
X170909228Y-110732680D01*
X171394587Y-110247320D01*
X172100000Y-110247320D01*
X172156628Y-110242804D01*
X172252675Y-110213060D01*
X172336633Y-110157736D01*
X172401854Y-110081212D01*
X172443173Y-109989547D01*
X172457320Y-109890000D01*
X172457320Y-108390000D01*
X172452804Y-108333372D01*
X172440600Y-108293964D01*
X172440600Y-107442000D01*
X172439450Y-107430268D01*
X172440642Y-107344867D01*
X172402909Y-107154300D01*
X172328880Y-106974691D01*
X172221374Y-106812882D01*
X172084487Y-106675037D01*
X171923433Y-106566404D01*
X171744346Y-106491123D01*
X171554047Y-106452060D01*
X171359785Y-106450704D01*
X171168959Y-106487106D01*
X170988838Y-106559879D01*
X170826283Y-106666252D01*
X170687485Y-106802174D01*
X170577730Y-106962466D01*
X170501201Y-107141023D01*
X170460810Y-107331045D01*
X170458098Y-107525292D01*
X170459400Y-107532386D01*
X170459400Y-108284745D01*
X170456827Y-108290453D01*
X170452824Y-108318624D01*
X170444060Y-108290325D01*
X170388736Y-108206367D01*
X170312212Y-108141146D01*
X170220547Y-108099827D01*
X170121000Y-108085680D01*
X168621000Y-108085680D01*
X168564372Y-108090196D01*
X168468325Y-108119940D01*
X168384367Y-108175264D01*
X168319146Y-108251788D01*
X168277827Y-108343453D01*
X168263680Y-108443000D01*
X168263680Y-108960696D01*
X167928588Y-109295788D01*
X167878200Y-109245400D01*
X166823400Y-109245400D01*
X166823400Y-110200200D01*
X166923400Y-110300200D01*
X166923400Y-110845600D01*
X166943400Y-110845600D01*
X166943400Y-111150400D01*
X166923400Y-111150400D01*
X166923400Y-111959800D01*
X166823400Y-112059800D01*
X166823400Y-112689600D01*
X166843400Y-112689600D01*
X166843400Y-112994400D01*
X166823400Y-112994400D01*
X166823400Y-113014400D01*
X166518600Y-113014400D01*
X166518600Y-112994400D01*
X166498600Y-112994400D01*
X166498600Y-112689600D01*
X166518600Y-112689600D01*
X166518600Y-112180200D01*
X166618600Y-112080200D01*
X166618600Y-111150400D01*
X166598600Y-111150400D01*
X166598600Y-110845600D01*
X166618600Y-110845600D01*
X166618600Y-109915800D01*
X166518600Y-109815800D01*
X166518600Y-109245400D01*
X165463800Y-109245400D01*
X165311400Y-109397800D01*
X165311400Y-109803041D01*
X165334827Y-109920814D01*
X165380780Y-110031754D01*
X165447493Y-110131598D01*
X165457161Y-110141266D01*
X165434827Y-110195186D01*
X165430657Y-110216150D01*
X165363374Y-110114882D01*
X165226487Y-109977037D01*
X165065433Y-109868404D01*
X164886346Y-109793123D01*
X164696047Y-109754060D01*
X164501785Y-109752704D01*
X164310959Y-109789106D01*
X164130838Y-109861879D01*
X163968283Y-109968252D01*
X163829485Y-110104174D01*
X163719730Y-110264466D01*
X163643201Y-110443023D01*
X163602810Y-110633045D01*
X163600098Y-110827292D01*
X163601400Y-110834386D01*
X163601400Y-111252212D01*
X163600754Y-111251780D01*
X163489814Y-111205827D01*
X163372041Y-111182400D01*
X162991800Y-111182400D01*
X162839400Y-111334800D01*
X162839400Y-112389600D01*
X162859400Y-112389600D01*
X162859400Y-112694400D01*
X162839400Y-112694400D01*
X162839400Y-112714400D01*
X162534600Y-112714400D01*
X162534600Y-112694400D01*
X161989200Y-112694400D01*
X161889200Y-112594400D01*
X160934400Y-112594400D01*
X160934400Y-112614400D01*
X160629600Y-112614400D01*
X160629600Y-112594400D01*
X159674800Y-112594400D01*
X159522400Y-112746800D01*
X159522400Y-113252040D01*
X159545827Y-113369813D01*
X159591779Y-113480754D01*
X159658493Y-113580597D01*
X159743402Y-113665507D01*
X159843246Y-113732220D01*
X159954186Y-113778173D01*
X160071959Y-113801600D01*
X160436766Y-113801600D01*
X160412455Y-113831197D01*
X160383800Y-113865347D01*
X160382578Y-113867570D01*
X160380967Y-113869531D01*
X160359885Y-113908848D01*
X160338425Y-113947884D01*
X160337659Y-113950300D01*
X160336458Y-113952539D01*
X160323415Y-113995202D01*
X160310892Y-114034680D01*
X160132000Y-114034680D01*
X160075372Y-114039196D01*
X159979325Y-114068940D01*
X159895367Y-114124264D01*
X159830146Y-114200788D01*
X159788827Y-114292453D01*
X159774680Y-114392000D01*
X159774680Y-115892000D01*
X159779196Y-115948628D01*
X159808940Y-116044675D01*
X159864264Y-116128633D01*
X159940788Y-116193854D01*
X160032453Y-116235173D01*
X160132000Y-116249320D01*
X161432000Y-116249320D01*
X161488628Y-116244804D01*
X161584675Y-116215060D01*
X161668633Y-116159736D01*
X161733854Y-116083212D01*
X161773001Y-115996365D01*
X161794264Y-116028633D01*
X161870788Y-116093854D01*
X161962453Y-116135173D01*
X162062000Y-116149320D01*
X163312000Y-116149320D01*
X163368628Y-116144804D01*
X163464675Y-116115060D01*
X163548633Y-116059736D01*
X163571761Y-116032600D01*
X163615201Y-116032600D01*
X163618940Y-116044675D01*
X163674264Y-116128633D01*
X163750788Y-116193854D01*
X163842453Y-116235173D01*
X163942000Y-116249320D01*
X165242000Y-116249320D01*
X165298628Y-116244804D01*
X165394675Y-116215060D01*
X165478633Y-116159736D01*
X165501761Y-116132600D01*
X166268400Y-116132600D01*
X166268400Y-116841027D01*
X166209922Y-116782549D01*
X166095715Y-116896756D01*
X166026714Y-116668058D01*
X165781993Y-116559254D01*
X165520748Y-116500283D01*
X165253018Y-116493412D01*
X164989092Y-116538904D01*
X164739113Y-116635011D01*
X164677286Y-116668058D01*
X164608284Y-116896758D01*
X165352000Y-117640474D01*
X165366143Y-117626332D01*
X165581669Y-117841858D01*
X165567526Y-117856000D01*
X165581669Y-117870143D01*
X165366143Y-118085669D01*
X165352000Y-118071526D01*
X165337858Y-118085669D01*
X165122332Y-117870143D01*
X165136474Y-117856000D01*
X164392758Y-117112284D01*
X164164058Y-117181286D01*
X164055254Y-117426007D01*
X163996283Y-117687252D01*
X163989412Y-117954982D01*
X164034904Y-118218908D01*
X164131011Y-118468887D01*
X164164058Y-118530714D01*
X164392756Y-118599715D01*
X164349071Y-118643400D01*
X163588421Y-118643400D01*
X163652984Y-118581918D01*
X163777965Y-118404745D01*
X163866154Y-118206670D01*
X163914190Y-117995239D01*
X163917648Y-117747590D01*
X163875534Y-117534900D01*
X163792911Y-117334441D01*
X163672925Y-117153847D01*
X163520146Y-116999998D01*
X163340395Y-116878754D01*
X163140517Y-116794734D01*
X162928126Y-116751136D01*
X162711312Y-116749622D01*
X162498333Y-116790250D01*
X162297301Y-116871472D01*
X162115874Y-116990194D01*
X161960963Y-117141895D01*
X161838467Y-117320796D01*
X161797084Y-117417350D01*
X161762911Y-117334441D01*
X161642925Y-117153847D01*
X161490146Y-116999998D01*
X161310395Y-116878754D01*
X161110517Y-116794734D01*
X160898126Y-116751136D01*
X160681312Y-116749622D01*
X160468333Y-116790250D01*
X160267301Y-116871472D01*
X160085874Y-116990194D01*
X159930963Y-117141895D01*
X159808467Y-117320796D01*
X159723053Y-117520082D01*
X159677974Y-117732164D01*
X159675785Y-117888865D01*
X159294115Y-117507195D01*
X159222911Y-117334441D01*
X159102925Y-117153847D01*
X158950146Y-116999998D01*
X158770395Y-116878754D01*
X158589731Y-116802811D01*
X157494320Y-115707400D01*
X157494320Y-112456000D01*
X157489804Y-112399372D01*
X157460060Y-112303325D01*
X157404736Y-112219367D01*
X157328212Y-112154146D01*
X157236547Y-112112827D01*
X157137000Y-112098680D01*
X155537000Y-112098680D01*
X155480372Y-112103196D01*
X155384325Y-112132940D01*
X155300367Y-112188264D01*
X155235146Y-112264788D01*
X155193827Y-112356453D01*
X155179680Y-112456000D01*
X155179680Y-115956000D01*
X155184196Y-116012628D01*
X155213940Y-116108675D01*
X155269264Y-116192633D01*
X155345788Y-116257854D01*
X155407609Y-116285721D01*
X155417242Y-116318877D01*
X155419640Y-116323503D01*
X155421145Y-116328488D01*
X155464097Y-116409269D01*
X155506213Y-116490520D01*
X155509462Y-116494590D01*
X155511908Y-116499190D01*
X155569787Y-116570156D01*
X155626829Y-116641611D01*
X155633973Y-116648857D01*
X155634099Y-116649011D01*
X155634242Y-116649129D01*
X155636540Y-116651460D01*
X157191643Y-118206563D01*
X157253903Y-118363813D01*
X157371356Y-118546064D01*
X157521971Y-118702031D01*
X157700012Y-118825773D01*
X157896848Y-118911768D01*
X159319540Y-120334460D01*
X159390260Y-120392550D01*
X159460344Y-120451357D01*
X159464905Y-120453864D01*
X159468934Y-120457174D01*
X159549633Y-120500444D01*
X159629761Y-120544495D01*
X159634724Y-120546070D01*
X159639317Y-120548532D01*
X159726855Y-120575295D01*
X159814043Y-120602953D01*
X159819218Y-120603533D01*
X159824201Y-120605057D01*
X159915323Y-120614313D01*
X160006169Y-120624503D01*
X160016338Y-120624574D01*
X160016542Y-120624595D01*
X160016732Y-120624577D01*
X160020000Y-120624600D01*
X165924538Y-120624600D01*
X166015622Y-120615669D01*
X166106760Y-120607695D01*
X166111759Y-120606243D01*
X166116947Y-120605734D01*
X166204563Y-120579281D01*
X166292415Y-120553758D01*
X166297041Y-120551360D01*
X166302026Y-120549855D01*
X166382807Y-120506903D01*
X166464058Y-120464787D01*
X166468128Y-120461538D01*
X166472728Y-120459092D01*
X166543694Y-120401213D01*
X166547929Y-120397832D01*
X166543961Y-120682024D01*
X166609653Y-121039947D01*
X166743614Y-121378295D01*
X166940742Y-121684178D01*
X167193530Y-121945948D01*
X167492348Y-122153631D01*
X167825814Y-122299319D01*
X168181227Y-122377462D01*
X168545049Y-122385083D01*
X168903422Y-122321892D01*
X169242696Y-122190296D01*
X169549949Y-121995308D01*
X169813476Y-121744354D01*
X170023241Y-121446993D01*
X170171253Y-121114552D01*
X170251875Y-120759694D01*
X170257679Y-120344049D01*
X170186997Y-119987078D01*
X170048325Y-119650634D01*
X169846944Y-119347532D01*
X169590527Y-119089318D01*
X169288838Y-118885827D01*
X168953371Y-118744809D01*
X168596901Y-118671636D01*
X168233008Y-118669096D01*
X168173399Y-118680467D01*
X168173531Y-118680221D01*
X168200281Y-118592729D01*
X168227953Y-118505495D01*
X168228533Y-118500320D01*
X168230057Y-118495337D01*
X168239308Y-118404259D01*
X168246752Y-118337892D01*
X169120715Y-118337892D01*
X169916073Y-119133250D01*
X169950520Y-119161545D01*
X169984670Y-119190200D01*
X169986893Y-119191422D01*
X169988854Y-119193033D01*
X170028171Y-119214115D01*
X170067207Y-119235575D01*
X170069623Y-119236341D01*
X170071862Y-119237542D01*
X170114538Y-119250589D01*
X170156985Y-119264054D01*
X170159505Y-119264337D01*
X170161933Y-119265079D01*
X170206294Y-119269585D01*
X170250585Y-119274553D01*
X170255545Y-119274588D01*
X170255638Y-119274597D01*
X170255724Y-119274589D01*
X170257323Y-119274600D01*
X170442680Y-119274600D01*
X170442680Y-119542000D01*
X170447196Y-119598628D01*
X170476940Y-119694675D01*
X170532264Y-119778633D01*
X170608788Y-119843854D01*
X170700453Y-119885173D01*
X170800000Y-119899320D01*
X172035425Y-119899320D01*
X172035425Y-120384680D01*
X170800000Y-120384680D01*
X170743372Y-120389196D01*
X170647325Y-120418940D01*
X170563367Y-120474264D01*
X170498146Y-120550788D01*
X170456827Y-120642453D01*
X170442680Y-120742000D01*
X170442680Y-121295364D01*
X168659484Y-123078559D01*
X168631189Y-123113006D01*
X168602534Y-123147156D01*
X168601312Y-123149379D01*
X168599701Y-123151340D01*
X168578619Y-123190657D01*
X168557159Y-123229693D01*
X168556393Y-123232109D01*
X168555192Y-123234348D01*
X168542149Y-123277011D01*
X168528680Y-123319471D01*
X168528397Y-123321992D01*
X168527655Y-123324420D01*
X168523150Y-123368775D01*
X168518181Y-123413071D01*
X168518146Y-123418031D01*
X168518137Y-123418124D01*
X168518145Y-123418210D01*
X168518134Y-123419809D01*
X168518134Y-125955734D01*
X168522480Y-126000060D01*
X168526369Y-126044509D01*
X168527078Y-126046948D01*
X168527325Y-126049471D01*
X168540206Y-126092134D01*
X168552647Y-126134957D01*
X168553814Y-126137209D01*
X168554548Y-126139639D01*
X168575492Y-126179029D01*
X168595992Y-126218577D01*
X168597573Y-126220558D01*
X168598766Y-126222801D01*
X168626951Y-126257359D01*
X168654753Y-126292186D01*
X168658239Y-126295722D01*
X168658295Y-126295790D01*
X168658358Y-126295842D01*
X168659484Y-126296984D01*
X170254750Y-127892250D01*
X170289197Y-127920545D01*
X170323347Y-127949200D01*
X170325570Y-127950422D01*
X170327531Y-127952033D01*
X170366848Y-127973115D01*
X170405884Y-127994575D01*
X170408300Y-127995341D01*
X170410539Y-127996542D01*
X170453202Y-128009585D01*
X170492680Y-128022108D01*
X170492680Y-128151000D01*
X170497196Y-128207628D01*
X170526940Y-128303675D01*
X170582264Y-128387633D01*
X170658788Y-128452854D01*
X170750453Y-128494173D01*
X170850000Y-128508320D01*
X172050000Y-128508320D01*
X172106628Y-128503804D01*
X172202675Y-128474060D01*
X172286633Y-128418736D01*
X172351854Y-128342212D01*
X172393173Y-128250547D01*
X172407320Y-128151000D01*
X172407320Y-126951000D01*
X172402804Y-126894372D01*
X172373060Y-126798325D01*
X172317736Y-126714367D01*
X172241212Y-126649146D01*
X172174119Y-126618903D01*
X172202675Y-126610060D01*
X172286633Y-126554736D01*
X172351854Y-126478212D01*
X172393173Y-126386547D01*
X172407320Y-126287000D01*
X172407320Y-126054832D01*
X172434692Y-126032981D01*
X172438228Y-126029495D01*
X172438296Y-126029439D01*
X172438348Y-126029376D01*
X172439490Y-126028250D01*
X172505400Y-125962340D01*
X172505400Y-128744296D01*
X172438598Y-128677493D01*
X172338754Y-128610780D01*
X172227814Y-128564827D01*
X172110041Y-128541400D01*
X171754800Y-128541400D01*
X171602400Y-128693800D01*
X171602400Y-129598600D01*
X171622400Y-129598600D01*
X171622400Y-129903400D01*
X171602400Y-129903400D01*
X171602400Y-129923400D01*
X171297600Y-129923400D01*
X171297600Y-129903400D01*
X170392800Y-129903400D01*
X170240400Y-130055800D01*
X170240400Y-130411040D01*
X170263827Y-130528813D01*
X170291407Y-130595400D01*
X152669593Y-130595400D01*
X152697173Y-130528813D01*
X152720600Y-130411040D01*
X152720600Y-130055800D01*
X152568200Y-129903400D01*
X151663400Y-129903400D01*
X151663400Y-129923400D01*
X151358600Y-129923400D01*
X151358600Y-129903400D01*
X150453800Y-129903400D01*
X150301400Y-130055800D01*
X150301400Y-130411040D01*
X150324827Y-130528813D01*
X150352407Y-130595400D01*
X133366600Y-130595400D01*
X133366600Y-121772051D01*
X133534530Y-121945948D01*
X133833348Y-122153631D01*
X134166814Y-122299319D01*
X134522227Y-122377462D01*
X134886049Y-122385083D01*
X135244422Y-122321892D01*
X135583696Y-122190296D01*
X135890949Y-121995308D01*
X136154476Y-121744354D01*
X136364241Y-121446993D01*
X136512253Y-121114552D01*
X136592875Y-120759694D01*
X136598679Y-120344049D01*
X136527997Y-119987078D01*
X136389325Y-119650634D01*
X136187944Y-119347532D01*
X135931527Y-119089318D01*
X135629838Y-118885827D01*
X135294371Y-118744809D01*
X134937901Y-118671636D01*
X134574008Y-118669096D01*
X134216552Y-118737284D01*
X133879148Y-118873604D01*
X133574648Y-119072864D01*
X133366600Y-119276599D01*
X133366600Y-112456000D01*
X135240680Y-112456000D01*
X135240680Y-115956000D01*
X135245196Y-116012628D01*
X135274940Y-116108675D01*
X135330264Y-116192633D01*
X135406788Y-116257854D01*
X135468609Y-116285721D01*
X135478242Y-116318877D01*
X135480640Y-116323503D01*
X135482145Y-116328488D01*
X135525097Y-116409269D01*
X135567213Y-116490520D01*
X135570462Y-116494590D01*
X135572908Y-116499190D01*
X135630787Y-116570156D01*
X135687829Y-116641611D01*
X135694973Y-116648857D01*
X135695099Y-116649011D01*
X135695242Y-116649129D01*
X135697540Y-116651460D01*
X137252643Y-118206563D01*
X137314903Y-118363813D01*
X137432356Y-118546064D01*
X137582971Y-118702031D01*
X137761012Y-118825773D01*
X137957848Y-118911768D01*
X139376052Y-120329972D01*
X139446772Y-120388062D01*
X139516856Y-120446869D01*
X139521417Y-120449376D01*
X139525446Y-120452686D01*
X139606145Y-120495956D01*
X139686273Y-120540007D01*
X139691236Y-120541582D01*
X139695829Y-120544044D01*
X139783367Y-120570807D01*
X139870555Y-120598465D01*
X139875730Y-120599045D01*
X139880713Y-120600569D01*
X139971835Y-120609825D01*
X140062681Y-120620015D01*
X140072850Y-120620086D01*
X140073054Y-120620107D01*
X140073244Y-120620089D01*
X140076512Y-120620112D01*
X145990026Y-120620112D01*
X146081110Y-120611181D01*
X146172248Y-120603207D01*
X146177247Y-120601755D01*
X146182435Y-120601246D01*
X146270051Y-120574793D01*
X146357903Y-120549270D01*
X146362529Y-120546872D01*
X146367514Y-120545367D01*
X146448295Y-120502415D01*
X146529546Y-120460299D01*
X146533616Y-120457050D01*
X146538216Y-120454604D01*
X146608942Y-120396921D01*
X146604961Y-120682024D01*
X146670653Y-121039947D01*
X146804614Y-121378295D01*
X147001742Y-121684178D01*
X147254530Y-121945948D01*
X147553348Y-122153631D01*
X147886814Y-122299319D01*
X148242227Y-122377462D01*
X148606049Y-122385083D01*
X148964422Y-122321892D01*
X149303696Y-122190296D01*
X149610949Y-121995308D01*
X149874476Y-121744354D01*
X150084241Y-121446993D01*
X150232253Y-121114552D01*
X150312875Y-120759694D01*
X150318679Y-120344049D01*
X150247997Y-119987078D01*
X150109325Y-119650634D01*
X149907944Y-119347532D01*
X149651527Y-119089318D01*
X149349838Y-118885827D01*
X149014371Y-118744809D01*
X148657901Y-118671636D01*
X148294008Y-118669096D01*
X148110866Y-118704032D01*
X148120367Y-118674081D01*
X148120947Y-118668906D01*
X148122471Y-118663923D01*
X148131727Y-118572801D01*
X148141917Y-118481955D01*
X148141988Y-118471786D01*
X148142009Y-118471582D01*
X148141991Y-118471392D01*
X148142014Y-118468124D01*
X148142014Y-118338600D01*
X149150093Y-118338600D01*
X149944743Y-119133250D01*
X149979190Y-119161545D01*
X150013340Y-119190200D01*
X150015563Y-119191422D01*
X150017524Y-119193033D01*
X150056841Y-119214115D01*
X150095877Y-119235575D01*
X150098293Y-119236341D01*
X150100532Y-119237542D01*
X150143195Y-119250585D01*
X150185655Y-119264054D01*
X150188176Y-119264337D01*
X150190604Y-119265079D01*
X150234959Y-119269584D01*
X150279255Y-119274553D01*
X150284215Y-119274588D01*
X150284308Y-119274597D01*
X150284394Y-119274589D01*
X150285993Y-119274600D01*
X150503680Y-119274600D01*
X150503680Y-119542000D01*
X150508196Y-119598628D01*
X150537940Y-119694675D01*
X150593264Y-119778633D01*
X150669788Y-119843854D01*
X150761453Y-119885173D01*
X150861000Y-119899320D01*
X152161000Y-119899320D01*
X152171400Y-119898491D01*
X152171400Y-120386158D01*
X152161000Y-120384680D01*
X150861000Y-120384680D01*
X150804372Y-120389196D01*
X150708325Y-120418940D01*
X150624367Y-120474264D01*
X150559146Y-120550788D01*
X150517827Y-120642453D01*
X150503680Y-120742000D01*
X150503680Y-122242000D01*
X150508196Y-122298628D01*
X150537940Y-122394675D01*
X150593264Y-122478633D01*
X150669788Y-122543854D01*
X150740462Y-122575711D01*
X150674367Y-122619264D01*
X150609146Y-122695788D01*
X150567827Y-122787453D01*
X150553680Y-122887000D01*
X150553680Y-123016484D01*
X150520587Y-123026476D01*
X150477778Y-123038913D01*
X150475527Y-123040080D01*
X150473095Y-123040814D01*
X150433687Y-123061768D01*
X150394157Y-123082258D01*
X150392176Y-123083839D01*
X150389933Y-123085032D01*
X150355375Y-123113217D01*
X150320548Y-123141019D01*
X150317012Y-123144505D01*
X150316944Y-123144561D01*
X150316892Y-123144624D01*
X150315750Y-123145750D01*
X149056528Y-124404972D01*
X149028233Y-124439419D01*
X148999578Y-124473569D01*
X148998356Y-124475792D01*
X148996745Y-124477753D01*
X148975663Y-124517070D01*
X148954203Y-124556106D01*
X148953437Y-124558522D01*
X148952236Y-124560761D01*
X148939193Y-124603424D01*
X148925724Y-124645884D01*
X148925441Y-124648405D01*
X148924699Y-124650833D01*
X148920194Y-124695188D01*
X148915225Y-124739484D01*
X148915190Y-124744444D01*
X148915181Y-124744537D01*
X148915189Y-124744623D01*
X148915178Y-124746222D01*
X148915178Y-127023175D01*
X148774061Y-127115519D01*
X148635263Y-127251441D01*
X148525508Y-127411733D01*
X148448979Y-127590290D01*
X148408588Y-127780312D01*
X148405876Y-127974559D01*
X148440945Y-128165634D01*
X148512459Y-128346259D01*
X148617695Y-128509553D01*
X148752644Y-128649297D01*
X148912166Y-128760168D01*
X149090185Y-128837942D01*
X149279920Y-128879658D01*
X149474144Y-128883726D01*
X149665459Y-128849992D01*
X149671615Y-128847604D01*
X149691527Y-128867516D01*
X149725974Y-128895811D01*
X149760124Y-128924466D01*
X149762347Y-128925688D01*
X149764308Y-128927299D01*
X149803590Y-128948362D01*
X149842661Y-128969841D01*
X149845081Y-128970609D01*
X149847316Y-128971807D01*
X149889946Y-128984841D01*
X149932439Y-128998320D01*
X149934959Y-128998603D01*
X149937387Y-128999345D01*
X149981748Y-129003851D01*
X150026039Y-129008819D01*
X150030999Y-129008854D01*
X150031092Y-129008863D01*
X150031178Y-129008855D01*
X150032777Y-129008866D01*
X150317730Y-129008866D01*
X150301400Y-129090960D01*
X150301400Y-129446200D01*
X150453800Y-129598600D01*
X151358600Y-129598600D01*
X151358600Y-129578600D01*
X151663400Y-129578600D01*
X151663400Y-129598600D01*
X152568200Y-129598600D01*
X152720600Y-129446200D01*
X152720600Y-129090960D01*
X170240400Y-129090960D01*
X170240400Y-129446200D01*
X170392800Y-129598600D01*
X171297600Y-129598600D01*
X171297600Y-128693800D01*
X171145200Y-128541400D01*
X170789959Y-128541400D01*
X170672186Y-128564827D01*
X170561246Y-128610780D01*
X170461402Y-128677493D01*
X170376493Y-128762403D01*
X170309779Y-128862246D01*
X170263827Y-128973187D01*
X170240400Y-129090960D01*
X152720600Y-129090960D01*
X152697173Y-128973187D01*
X152696154Y-128970728D01*
X152732301Y-128951508D01*
X152771849Y-128931008D01*
X152773830Y-128929427D01*
X152776073Y-128928234D01*
X152810631Y-128900049D01*
X152845458Y-128872247D01*
X152848994Y-128868761D01*
X152849062Y-128868705D01*
X152849114Y-128868642D01*
X152850256Y-128867516D01*
X157083523Y-124634248D01*
X157111779Y-124599848D01*
X157140473Y-124565652D01*
X157141697Y-124563426D01*
X157143306Y-124561467D01*
X157164366Y-124522190D01*
X157185848Y-124483115D01*
X157186615Y-124480697D01*
X157187815Y-124478459D01*
X157200854Y-124435811D01*
X157214327Y-124393337D01*
X157214610Y-124390816D01*
X157215352Y-124388388D01*
X157219857Y-124344033D01*
X157224826Y-124299737D01*
X157224861Y-124294777D01*
X157224870Y-124294684D01*
X157224862Y-124294598D01*
X157224873Y-124292999D01*
X157224873Y-119617093D01*
X157220531Y-119572812D01*
X157216638Y-119528318D01*
X157215929Y-119525879D01*
X157215682Y-119523356D01*
X157202811Y-119480726D01*
X157190361Y-119437871D01*
X157189192Y-119435616D01*
X157188459Y-119433188D01*
X157167545Y-119393855D01*
X157147016Y-119354250D01*
X157145432Y-119352265D01*
X157144241Y-119350026D01*
X157116078Y-119315496D01*
X157088254Y-119280641D01*
X157084771Y-119277110D01*
X157084712Y-119277037D01*
X157084645Y-119276981D01*
X157083523Y-119275844D01*
X152652648Y-114844968D01*
X152618201Y-114816673D01*
X152584051Y-114788018D01*
X152581828Y-114786796D01*
X152579867Y-114785185D01*
X152540550Y-114764103D01*
X152513590Y-114749282D01*
X152518320Y-114716000D01*
X152518320Y-113216000D01*
X152513804Y-113159372D01*
X152484060Y-113063325D01*
X152428736Y-112979367D01*
X152352212Y-112914146D01*
X152328350Y-112903390D01*
X152397633Y-112857736D01*
X152462854Y-112781212D01*
X152504173Y-112689547D01*
X152518320Y-112590000D01*
X152518320Y-111631960D01*
X159522400Y-111631960D01*
X159522400Y-112137200D01*
X159674800Y-112289600D01*
X160629600Y-112289600D01*
X160629600Y-111234800D01*
X160934400Y-111234800D01*
X160934400Y-112289600D01*
X161504800Y-112289600D01*
X161604800Y-112389600D01*
X162534600Y-112389600D01*
X162534600Y-111334800D01*
X162382200Y-111182400D01*
X162001959Y-111182400D01*
X161884186Y-111205827D01*
X161830266Y-111228161D01*
X161820598Y-111218493D01*
X161720754Y-111151780D01*
X161609814Y-111105827D01*
X161492041Y-111082400D01*
X161086800Y-111082400D01*
X160934400Y-111234800D01*
X160629600Y-111234800D01*
X160477200Y-111082400D01*
X160071959Y-111082400D01*
X159954186Y-111105827D01*
X159843246Y-111151780D01*
X159743402Y-111218493D01*
X159658493Y-111303403D01*
X159591779Y-111403246D01*
X159545827Y-111514187D01*
X159522400Y-111631960D01*
X152518320Y-111631960D01*
X152518320Y-111090000D01*
X152513804Y-111033372D01*
X152484060Y-110937325D01*
X152428736Y-110853367D01*
X152352212Y-110788146D01*
X152260547Y-110746827D01*
X152161000Y-110732680D01*
X151235834Y-110732680D01*
X151721194Y-110247320D01*
X152161000Y-110247320D01*
X152217628Y-110242804D01*
X152313675Y-110213060D01*
X152397633Y-110157736D01*
X152462854Y-110081212D01*
X152504173Y-109989547D01*
X152518320Y-109890000D01*
X152518320Y-109110800D01*
X154927400Y-109110800D01*
X154927400Y-110616040D01*
X154950827Y-110733813D01*
X154996779Y-110844754D01*
X155063493Y-110944597D01*
X155148402Y-111029507D01*
X155248246Y-111096220D01*
X155359186Y-111142173D01*
X155476959Y-111165600D01*
X156032200Y-111165600D01*
X156184600Y-111013200D01*
X156184600Y-108958400D01*
X156489400Y-108958400D01*
X156489400Y-111013200D01*
X156641800Y-111165600D01*
X157197041Y-111165600D01*
X157314814Y-111142173D01*
X157425754Y-111096220D01*
X157525598Y-111029507D01*
X157610507Y-110944597D01*
X157677221Y-110844754D01*
X157723173Y-110733813D01*
X157746600Y-110616040D01*
X157746600Y-109110800D01*
X157594200Y-108958400D01*
X156489400Y-108958400D01*
X156184600Y-108958400D01*
X155079800Y-108958400D01*
X154927400Y-109110800D01*
X152518320Y-109110800D01*
X152518320Y-108390000D01*
X152513804Y-108333372D01*
X152484060Y-108237325D01*
X152428736Y-108153367D01*
X152352212Y-108088146D01*
X152287950Y-108059179D01*
X152376489Y-107933666D01*
X152455505Y-107756195D01*
X152498544Y-107566756D01*
X152501642Y-107344867D01*
X152463909Y-107154300D01*
X152398647Y-106995960D01*
X154927400Y-106995960D01*
X154927400Y-108501200D01*
X155079800Y-108653600D01*
X156184600Y-108653600D01*
X156184600Y-106598800D01*
X156489400Y-106598800D01*
X156489400Y-108653600D01*
X157594200Y-108653600D01*
X157746600Y-108501200D01*
X157746600Y-108382959D01*
X165311400Y-108382959D01*
X165311400Y-108788200D01*
X165463800Y-108940600D01*
X166518600Y-108940600D01*
X166518600Y-107985800D01*
X166823400Y-107985800D01*
X166823400Y-108940600D01*
X167878200Y-108940600D01*
X168030600Y-108788200D01*
X168030600Y-108382959D01*
X168007173Y-108265186D01*
X167961220Y-108154246D01*
X167894507Y-108054402D01*
X167809597Y-107969493D01*
X167709754Y-107902779D01*
X167598813Y-107856827D01*
X167481040Y-107833400D01*
X166975800Y-107833400D01*
X166823400Y-107985800D01*
X166518600Y-107985800D01*
X166366200Y-107833400D01*
X165860960Y-107833400D01*
X165743187Y-107856827D01*
X165632246Y-107902779D01*
X165532403Y-107969493D01*
X165447493Y-108054402D01*
X165380780Y-108154246D01*
X165334827Y-108265186D01*
X165311400Y-108382959D01*
X157746600Y-108382959D01*
X157746600Y-106995960D01*
X157723173Y-106878187D01*
X157677221Y-106767246D01*
X157610507Y-106667403D01*
X157525598Y-106582493D01*
X157425754Y-106515780D01*
X157314814Y-106469827D01*
X157197041Y-106446400D01*
X156641800Y-106446400D01*
X156489400Y-106598800D01*
X156184600Y-106598800D01*
X156032200Y-106446400D01*
X155476959Y-106446400D01*
X155359186Y-106469827D01*
X155248246Y-106515780D01*
X155148402Y-106582493D01*
X155063493Y-106667403D01*
X154996779Y-106767246D01*
X154950827Y-106878187D01*
X154927400Y-106995960D01*
X152398647Y-106995960D01*
X152389880Y-106974691D01*
X152282374Y-106812882D01*
X152145487Y-106675037D01*
X151984433Y-106566404D01*
X151805346Y-106491123D01*
X151615047Y-106452060D01*
X151420785Y-106450704D01*
X151229959Y-106487106D01*
X151049838Y-106559879D01*
X150887283Y-106666252D01*
X150748485Y-106802174D01*
X150638730Y-106962466D01*
X150562201Y-107141023D01*
X150521810Y-107331045D01*
X150519098Y-107525292D01*
X150554167Y-107716367D01*
X150625681Y-107896992D01*
X150730733Y-108060001D01*
X150708325Y-108066940D01*
X150624367Y-108122264D01*
X150559146Y-108198788D01*
X150517827Y-108290453D01*
X150513824Y-108318624D01*
X150505060Y-108290325D01*
X150449736Y-108206367D01*
X150373212Y-108141146D01*
X150281547Y-108099827D01*
X150182000Y-108085680D01*
X148682000Y-108085680D01*
X148625372Y-108090196D01*
X148529325Y-108119940D01*
X148445367Y-108175264D01*
X148380146Y-108251788D01*
X148338827Y-108343453D01*
X148324680Y-108443000D01*
X148324680Y-108629764D01*
X148315700Y-108632476D01*
X148272891Y-108644913D01*
X148270640Y-108646080D01*
X148268208Y-108646814D01*
X148228800Y-108667768D01*
X148189270Y-108688258D01*
X148187289Y-108689839D01*
X148185046Y-108691032D01*
X148150488Y-108719217D01*
X148115661Y-108747019D01*
X148112125Y-108750505D01*
X148112057Y-108750561D01*
X148112005Y-108750624D01*
X148110863Y-108751750D01*
X148091600Y-108771013D01*
X148091600Y-108382959D01*
X148068173Y-108265186D01*
X148022220Y-108154246D01*
X147955507Y-108054402D01*
X147870597Y-107969493D01*
X147770754Y-107902779D01*
X147659813Y-107856827D01*
X147542040Y-107833400D01*
X147036800Y-107833400D01*
X146884400Y-107985800D01*
X146884400Y-108940600D01*
X146904400Y-108940600D01*
X146904400Y-109245400D01*
X146884400Y-109245400D01*
X146884400Y-110200200D01*
X146984400Y-110300200D01*
X146984400Y-110845600D01*
X147004400Y-110845600D01*
X147004400Y-111150400D01*
X146984400Y-111150400D01*
X146984400Y-111959800D01*
X146884400Y-112059800D01*
X146884400Y-112689600D01*
X146904400Y-112689600D01*
X146904400Y-112994400D01*
X146884400Y-112994400D01*
X146884400Y-113014400D01*
X146579600Y-113014400D01*
X146579600Y-112994400D01*
X146559600Y-112994400D01*
X146559600Y-112689600D01*
X146579600Y-112689600D01*
X146579600Y-112180200D01*
X146679600Y-112080200D01*
X146679600Y-111150400D01*
X146659600Y-111150400D01*
X146659600Y-110845600D01*
X146679600Y-110845600D01*
X146679600Y-109915800D01*
X146579600Y-109815800D01*
X146579600Y-109245400D01*
X145524800Y-109245400D01*
X145372400Y-109397800D01*
X145372400Y-109803041D01*
X145395827Y-109920814D01*
X145423059Y-109986558D01*
X145287487Y-109850037D01*
X145126433Y-109741404D01*
X144947346Y-109666123D01*
X144757047Y-109627060D01*
X144562785Y-109625704D01*
X144371959Y-109662106D01*
X144191838Y-109734879D01*
X144029283Y-109841252D01*
X143890485Y-109977174D01*
X143780730Y-110137466D01*
X143704201Y-110316023D01*
X143663810Y-110506045D01*
X143661098Y-110700292D01*
X143662400Y-110707386D01*
X143662400Y-111252212D01*
X143661754Y-111251780D01*
X143550814Y-111205827D01*
X143433041Y-111182400D01*
X143052800Y-111182400D01*
X142900400Y-111334800D01*
X142900400Y-112389600D01*
X142920400Y-112389600D01*
X142920400Y-112694400D01*
X142900400Y-112694400D01*
X142900400Y-112714400D01*
X142595600Y-112714400D01*
X142595600Y-112694400D01*
X142050200Y-112694400D01*
X141950200Y-112594400D01*
X140995400Y-112594400D01*
X140995400Y-112614400D01*
X140690600Y-112614400D01*
X140690600Y-112594400D01*
X139735800Y-112594400D01*
X139583400Y-112746800D01*
X139583400Y-113252040D01*
X139606827Y-113369813D01*
X139652779Y-113480754D01*
X139719493Y-113580597D01*
X139804402Y-113665507D01*
X139904246Y-113732220D01*
X140015186Y-113778173D01*
X140132959Y-113801600D01*
X140497766Y-113801600D01*
X140473455Y-113831197D01*
X140444800Y-113865347D01*
X140443578Y-113867570D01*
X140441967Y-113869531D01*
X140420885Y-113908848D01*
X140399425Y-113947884D01*
X140398659Y-113950300D01*
X140397458Y-113952539D01*
X140384415Y-113995202D01*
X140371892Y-114034680D01*
X140193000Y-114034680D01*
X140136372Y-114039196D01*
X140040325Y-114068940D01*
X139956367Y-114124264D01*
X139891146Y-114200788D01*
X139849827Y-114292453D01*
X139835680Y-114392000D01*
X139835680Y-115892000D01*
X139840196Y-115948628D01*
X139869940Y-116044675D01*
X139925264Y-116128633D01*
X140001788Y-116193854D01*
X140093453Y-116235173D01*
X140193000Y-116249320D01*
X141493000Y-116249320D01*
X141549628Y-116244804D01*
X141645675Y-116215060D01*
X141729633Y-116159736D01*
X141794854Y-116083212D01*
X141834001Y-115996365D01*
X141855264Y-116028633D01*
X141931788Y-116093854D01*
X142023453Y-116135173D01*
X142123000Y-116149320D01*
X143373000Y-116149320D01*
X143429628Y-116144804D01*
X143525675Y-116115060D01*
X143609633Y-116059736D01*
X143632761Y-116032600D01*
X143676201Y-116032600D01*
X143679940Y-116044675D01*
X143735264Y-116128633D01*
X143811788Y-116193854D01*
X143903453Y-116235173D01*
X144003000Y-116249320D01*
X145303000Y-116249320D01*
X145359628Y-116244804D01*
X145455675Y-116215060D01*
X145539633Y-116159736D01*
X145562761Y-116132600D01*
X146160814Y-116132600D01*
X146160814Y-116892657D01*
X146156715Y-116896756D01*
X146087714Y-116668058D01*
X145842993Y-116559254D01*
X145581748Y-116500283D01*
X145314018Y-116493412D01*
X145050092Y-116538904D01*
X144800113Y-116635011D01*
X144738286Y-116668058D01*
X144669284Y-116896758D01*
X145413000Y-117640474D01*
X145427143Y-117626332D01*
X145642669Y-117841858D01*
X145628526Y-117856000D01*
X145642669Y-117870143D01*
X145427143Y-118085669D01*
X145413000Y-118071526D01*
X145398858Y-118085669D01*
X145183332Y-117870143D01*
X145197474Y-117856000D01*
X144453758Y-117112284D01*
X144225058Y-117181286D01*
X144116254Y-117426007D01*
X144057283Y-117687252D01*
X144050412Y-117954982D01*
X144095904Y-118218908D01*
X144192011Y-118468887D01*
X144225058Y-118530714D01*
X144453756Y-118599715D01*
X144414559Y-118638912D01*
X143654134Y-118638912D01*
X143713984Y-118581918D01*
X143838965Y-118404745D01*
X143927154Y-118206670D01*
X143975190Y-117995239D01*
X143978648Y-117747590D01*
X143936534Y-117534900D01*
X143853911Y-117334441D01*
X143733925Y-117153847D01*
X143581146Y-116999998D01*
X143401395Y-116878754D01*
X143201517Y-116794734D01*
X142989126Y-116751136D01*
X142772312Y-116749622D01*
X142559333Y-116790250D01*
X142358301Y-116871472D01*
X142176874Y-116990194D01*
X142021963Y-117141895D01*
X141899467Y-117320796D01*
X141858084Y-117417350D01*
X141823911Y-117334441D01*
X141703925Y-117153847D01*
X141551146Y-116999998D01*
X141371395Y-116878754D01*
X141171517Y-116794734D01*
X140959126Y-116751136D01*
X140742312Y-116749622D01*
X140529333Y-116790250D01*
X140328301Y-116871472D01*
X140146874Y-116990194D01*
X139991963Y-117141895D01*
X139869467Y-117320796D01*
X139784053Y-117520082D01*
X139738974Y-117732164D01*
X139736785Y-117888865D01*
X139355115Y-117507195D01*
X139283911Y-117334441D01*
X139163925Y-117153847D01*
X139011146Y-116999998D01*
X138831395Y-116878754D01*
X138650731Y-116802811D01*
X137555320Y-115707400D01*
X137555320Y-112456000D01*
X137550804Y-112399372D01*
X137521060Y-112303325D01*
X137465736Y-112219367D01*
X137389212Y-112154146D01*
X137297547Y-112112827D01*
X137198000Y-112098680D01*
X135598000Y-112098680D01*
X135541372Y-112103196D01*
X135445325Y-112132940D01*
X135361367Y-112188264D01*
X135296146Y-112264788D01*
X135254827Y-112356453D01*
X135240680Y-112456000D01*
X133366600Y-112456000D01*
X133366600Y-111631960D01*
X139583400Y-111631960D01*
X139583400Y-112137200D01*
X139735800Y-112289600D01*
X140690600Y-112289600D01*
X140690600Y-111234800D01*
X140995400Y-111234800D01*
X140995400Y-112289600D01*
X141565800Y-112289600D01*
X141665800Y-112389600D01*
X142595600Y-112389600D01*
X142595600Y-111334800D01*
X142443200Y-111182400D01*
X142062959Y-111182400D01*
X141945186Y-111205827D01*
X141891266Y-111228161D01*
X141881598Y-111218493D01*
X141781754Y-111151780D01*
X141670814Y-111105827D01*
X141553041Y-111082400D01*
X141147800Y-111082400D01*
X140995400Y-111234800D01*
X140690600Y-111234800D01*
X140538200Y-111082400D01*
X140132959Y-111082400D01*
X140015186Y-111105827D01*
X139904246Y-111151780D01*
X139804402Y-111218493D01*
X139719493Y-111303403D01*
X139652779Y-111403246D01*
X139606827Y-111514187D01*
X139583400Y-111631960D01*
X133366600Y-111631960D01*
X133366600Y-109110800D01*
X134988400Y-109110800D01*
X134988400Y-110616040D01*
X135011827Y-110733813D01*
X135057779Y-110844754D01*
X135124493Y-110944597D01*
X135209402Y-111029507D01*
X135309246Y-111096220D01*
X135420186Y-111142173D01*
X135537959Y-111165600D01*
X136093200Y-111165600D01*
X136245600Y-111013200D01*
X136245600Y-108958400D01*
X136550400Y-108958400D01*
X136550400Y-111013200D01*
X136702800Y-111165600D01*
X137258041Y-111165600D01*
X137375814Y-111142173D01*
X137486754Y-111096220D01*
X137586598Y-111029507D01*
X137671507Y-110944597D01*
X137738221Y-110844754D01*
X137784173Y-110733813D01*
X137807600Y-110616040D01*
X137807600Y-109110800D01*
X137655200Y-108958400D01*
X136550400Y-108958400D01*
X136245600Y-108958400D01*
X135140800Y-108958400D01*
X134988400Y-109110800D01*
X133366600Y-109110800D01*
X133366600Y-106995960D01*
X134988400Y-106995960D01*
X134988400Y-108501200D01*
X135140800Y-108653600D01*
X136245600Y-108653600D01*
X136245600Y-106598800D01*
X136550400Y-106598800D01*
X136550400Y-108653600D01*
X137655200Y-108653600D01*
X137807600Y-108501200D01*
X137807600Y-108382959D01*
X145372400Y-108382959D01*
X145372400Y-108788200D01*
X145524800Y-108940600D01*
X146579600Y-108940600D01*
X146579600Y-107985800D01*
X146427200Y-107833400D01*
X145921960Y-107833400D01*
X145804187Y-107856827D01*
X145693246Y-107902779D01*
X145593403Y-107969493D01*
X145508493Y-108054402D01*
X145441780Y-108154246D01*
X145395827Y-108265186D01*
X145372400Y-108382959D01*
X137807600Y-108382959D01*
X137807600Y-106995960D01*
X137784173Y-106878187D01*
X137738221Y-106767246D01*
X137671507Y-106667403D01*
X137586598Y-106582493D01*
X137486754Y-106515780D01*
X137375814Y-106469827D01*
X137258041Y-106446400D01*
X136702800Y-106446400D01*
X136550400Y-106598800D01*
X136245600Y-106598800D01*
X136093200Y-106446400D01*
X135537959Y-106446400D01*
X135420186Y-106469827D01*
X135309246Y-106515780D01*
X135209402Y-106582493D01*
X135124493Y-106667403D01*
X135057779Y-106767246D01*
X135011827Y-106878187D01*
X134988400Y-106995960D01*
X133366600Y-106995960D01*
X133366600Y-101002432D01*
X149679830Y-101002432D01*
X149749061Y-101379644D01*
X149890242Y-101736226D01*
X150097994Y-102058594D01*
X150364404Y-102334470D01*
X150679326Y-102553346D01*
X151030762Y-102706885D01*
X151405329Y-102789239D01*
X151788758Y-102797270D01*
X152166444Y-102730674D01*
X152524002Y-102591986D01*
X152847813Y-102386490D01*
X153125542Y-102122012D01*
X153346611Y-101808626D01*
X153502600Y-101458270D01*
X153587567Y-101084288D01*
X153593684Y-100646244D01*
X153519192Y-100270035D01*
X153373047Y-99915459D01*
X153160814Y-99596023D01*
X152890578Y-99323894D01*
X152572631Y-99109436D01*
X152219085Y-98960819D01*
X151843405Y-98883703D01*
X151459901Y-98881025D01*
X151083182Y-98952889D01*
X150727595Y-99096555D01*
X150406685Y-99306553D01*
X150132675Y-99574882D01*
X149916003Y-99891324D01*
X149764921Y-100243824D01*
X149685184Y-100618957D01*
X149679830Y-101002432D01*
X133366600Y-101002432D01*
X133366600Y-98397754D01*
X133419554Y-98375820D01*
X133519398Y-98309107D01*
X133604307Y-98224197D01*
X133671021Y-98124354D01*
X133716973Y-98013413D01*
X133740400Y-97895640D01*
X133740400Y-94640400D01*
X133588000Y-94488000D01*
X129353798Y-94488000D01*
X129364777Y-94367366D01*
X129364504Y-94328339D01*
X129364777Y-94289312D01*
X129364190Y-94283329D01*
X129353666Y-94183200D01*
X133588000Y-94183200D01*
X133740400Y-94030800D01*
X133740400Y-90790433D01*
X140062293Y-90790433D01*
X140185852Y-91065083D01*
X140507407Y-91218921D01*
X140852796Y-91307070D01*
X141208745Y-91326144D01*
X141561576Y-91275409D01*
X141897730Y-91156815D01*
X142069348Y-91065083D01*
X142192907Y-90790433D01*
X141127600Y-89725126D01*
X140062293Y-90790433D01*
X133740400Y-90790433D01*
X133740400Y-90775560D01*
X133716973Y-90657787D01*
X133671021Y-90546846D01*
X133604307Y-90447003D01*
X133519398Y-90362093D01*
X133419554Y-90295380D01*
X133366600Y-90273446D01*
X133366600Y-89590745D01*
X139311056Y-89590745D01*
X139361791Y-89943576D01*
X139480385Y-90279730D01*
X139572117Y-90451348D01*
X139846767Y-90574907D01*
X140912074Y-89509600D01*
X141343126Y-89509600D01*
X142408433Y-90574907D01*
X142683083Y-90451348D01*
X142836921Y-90129793D01*
X142925070Y-89784404D01*
X142944144Y-89428455D01*
X142893409Y-89075624D01*
X142774815Y-88739470D01*
X142683083Y-88567852D01*
X142408433Y-88444293D01*
X141343126Y-89509600D01*
X140912074Y-89509600D01*
X139846767Y-88444293D01*
X139572117Y-88567852D01*
X139418279Y-88889407D01*
X139330130Y-89234796D01*
X139311056Y-89590745D01*
X133366600Y-89590745D01*
X133366600Y-88451885D01*
X133367433Y-88451336D01*
X133432654Y-88374812D01*
X133473973Y-88283147D01*
X133481701Y-88228767D01*
X140062293Y-88228767D01*
X141127600Y-89294074D01*
X142192907Y-88228767D01*
X142069348Y-87954117D01*
X141747793Y-87800279D01*
X141402404Y-87712130D01*
X141046455Y-87693056D01*
X140693624Y-87743791D01*
X140357470Y-87862385D01*
X140185852Y-87954117D01*
X140062293Y-88228767D01*
X133481701Y-88228767D01*
X133488120Y-88183600D01*
X133488120Y-87579200D01*
X143002000Y-87579200D01*
X143002000Y-89509600D01*
X143032959Y-89825347D01*
X143070280Y-89948960D01*
X143070280Y-90709600D01*
X143074796Y-90766228D01*
X143104540Y-90862275D01*
X143159864Y-90946233D01*
X143236388Y-91011454D01*
X143328053Y-91052773D01*
X143427600Y-91066920D01*
X144187410Y-91066920D01*
X144300728Y-91101998D01*
X144616251Y-91135160D01*
X144932207Y-91106406D01*
X145066369Y-91066920D01*
X145827600Y-91066920D01*
X145884228Y-91062404D01*
X145980275Y-91032660D01*
X146064233Y-90977336D01*
X146129454Y-90900812D01*
X146170773Y-90809147D01*
X146184920Y-90709600D01*
X146184920Y-89950844D01*
X146217677Y-89847581D01*
X146253042Y-89532297D01*
X146253200Y-89509600D01*
X146253200Y-87604600D01*
X160655000Y-87604600D01*
X161217425Y-87549454D01*
X161758427Y-87386115D01*
X162002400Y-87256393D01*
X162002400Y-92443000D01*
X162002400Y-92443000D01*
G37*
X162002400Y-92443000D02*
X162006348Y-92483268D01*
X162010027Y-92523686D01*
X162010454Y-92525136D01*
X162010601Y-92526637D01*
X162022320Y-92565454D01*
X162033755Y-92604306D01*
X162034453Y-92605641D01*
X162034890Y-92607089D01*
X162053919Y-92642878D01*
X162072689Y-92678781D01*
X162073637Y-92679960D01*
X162074344Y-92681290D01*
X162099911Y-92712638D01*
X162125348Y-92744275D01*
X162126506Y-92745247D01*
X162127459Y-92746415D01*
X162158643Y-92772213D01*
X162189725Y-92798294D01*
X162191049Y-92799022D01*
X162192212Y-92799984D01*
X162227828Y-92819241D01*
X162263369Y-92838780D01*
X162264810Y-92839237D01*
X162266136Y-92839954D01*
X162304821Y-92851929D01*
X162331400Y-92860360D01*
X162331400Y-92905250D01*
X162201676Y-93084457D01*
X161996112Y-93532417D01*
X161922713Y-93809613D01*
X162020732Y-94199600D01*
X162331400Y-94199600D01*
X162331400Y-94504400D01*
X162020732Y-94504400D01*
X161922713Y-94894387D01*
X161996112Y-95171583D01*
X162201676Y-95619543D01*
X162331400Y-95798751D01*
X162331400Y-95826024D01*
X162310546Y-95832320D01*
X162271694Y-95843755D01*
X162270359Y-95844453D01*
X162268911Y-95844890D01*
X162233122Y-95863919D01*
X162197219Y-95882689D01*
X162196040Y-95883637D01*
X162194710Y-95884344D01*
X162163362Y-95909911D01*
X162131725Y-95935348D01*
X162130753Y-95936506D01*
X162129585Y-95937459D01*
X162103852Y-95968565D01*
X162077706Y-95999725D01*
X162076978Y-96001049D01*
X162076016Y-96002212D01*
X162056759Y-96037828D01*
X162037220Y-96073369D01*
X162036763Y-96074810D01*
X162036046Y-96076136D01*
X162024089Y-96114764D01*
X162011810Y-96153473D01*
X162011642Y-96154973D01*
X162011195Y-96156416D01*
X162006954Y-96196767D01*
X162002442Y-96236988D01*
X162002422Y-96239882D01*
X162002410Y-96239994D01*
X162002420Y-96240106D01*
X162002400Y-96243000D01*
X162002400Y-98526000D01*
X162006348Y-98566268D01*
X162010027Y-98606686D01*
X162010454Y-98608136D01*
X162010601Y-98609637D01*
X162022320Y-98648454D01*
X162033755Y-98687306D01*
X162034453Y-98688641D01*
X162034890Y-98690089D01*
X162053919Y-98725878D01*
X162072689Y-98761781D01*
X162073637Y-98762960D01*
X162074344Y-98764290D01*
X162099911Y-98795638D01*
X162125348Y-98827275D01*
X162126506Y-98828247D01*
X162127459Y-98829415D01*
X162158643Y-98855213D01*
X162189725Y-98881294D01*
X162191049Y-98882022D01*
X162192212Y-98882984D01*
X162227828Y-98902241D01*
X162263369Y-98921780D01*
X162264810Y-98922237D01*
X162266136Y-98922954D01*
X162304821Y-98934929D01*
X162343473Y-98947190D01*
X162344973Y-98947358D01*
X162346416Y-98947805D01*
X162386767Y-98952046D01*
X162426988Y-98956558D01*
X162429882Y-98956578D01*
X162429994Y-98956590D01*
X162430106Y-98956580D01*
X162433000Y-98956600D01*
X172505400Y-98956600D01*
X172505400Y-116306202D01*
X172493534Y-116296455D01*
X172459384Y-116267800D01*
X172457320Y-116266665D01*
X172457320Y-115916000D01*
X172452804Y-115859372D01*
X172423060Y-115763325D01*
X172367736Y-115679367D01*
X172291212Y-115614146D01*
X172199547Y-115572827D01*
X172100000Y-115558680D01*
X170800000Y-115558680D01*
X170743372Y-115563196D01*
X170647325Y-115592940D01*
X170563367Y-115648264D01*
X170498146Y-115724788D01*
X170456827Y-115816453D01*
X170442680Y-115916000D01*
X170442680Y-117416000D01*
X170447196Y-117472628D01*
X170476940Y-117568675D01*
X170532264Y-117652633D01*
X170608788Y-117717854D01*
X170632650Y-117728610D01*
X170563367Y-117774264D01*
X170498146Y-117850788D01*
X170456827Y-117942453D01*
X170442680Y-118042000D01*
X170442680Y-118294857D01*
X169661865Y-117514042D01*
X169627418Y-117485747D01*
X169593268Y-117457092D01*
X169591045Y-117455870D01*
X169589084Y-117454259D01*
X169549767Y-117433177D01*
X169510731Y-117411717D01*
X169508315Y-117410951D01*
X169506076Y-117409750D01*
X169463413Y-117396707D01*
X169420953Y-117383238D01*
X169418432Y-117382955D01*
X169416004Y-117382213D01*
X169371649Y-117377708D01*
X169327353Y-117372739D01*
X169322393Y-117372704D01*
X169322300Y-117372695D01*
X169322214Y-117372703D01*
X169320615Y-117372692D01*
X168249600Y-117372692D01*
X168249600Y-115570000D01*
X168240669Y-115478916D01*
X168232695Y-115387778D01*
X168231243Y-115382779D01*
X168230734Y-115377591D01*
X168204281Y-115289975D01*
X168178758Y-115202123D01*
X168176360Y-115197497D01*
X168174855Y-115192512D01*
X168131903Y-115111731D01*
X168089787Y-115030480D01*
X168086538Y-115026410D01*
X168084092Y-115021810D01*
X168026233Y-114950868D01*
X167969171Y-114879388D01*
X167962026Y-114872142D01*
X167961901Y-114871989D01*
X167961760Y-114871872D01*
X167959460Y-114869540D01*
X167808320Y-114718400D01*
X167808320Y-114417000D01*
X167803804Y-114360372D01*
X167774060Y-114264325D01*
X167773215Y-114263042D01*
X167794173Y-114216547D01*
X167808320Y-114117000D01*
X167808320Y-113661406D01*
X167839597Y-113640507D01*
X167924507Y-113555598D01*
X167991220Y-113455754D01*
X168037173Y-113344814D01*
X168060600Y-113227041D01*
X168060600Y-113146800D01*
X167908202Y-112994402D01*
X168060600Y-112994402D01*
X168060600Y-112935714D01*
X168233680Y-113108794D01*
X168233680Y-113167000D01*
X168238196Y-113223628D01*
X168267940Y-113319675D01*
X168268785Y-113320958D01*
X168247827Y-113367453D01*
X168233680Y-113467000D01*
X168233680Y-114117000D01*
X168238196Y-114173628D01*
X168267940Y-114269675D01*
X168268785Y-114270958D01*
X168247827Y-114317453D01*
X168233680Y-114417000D01*
X168233680Y-115067000D01*
X168238196Y-115123628D01*
X168267940Y-115219675D01*
X168323264Y-115303633D01*
X168373608Y-115346541D01*
X168373608Y-115991872D01*
X168372306Y-116085128D01*
X168407375Y-116276203D01*
X168478889Y-116456828D01*
X168584125Y-116620122D01*
X168719074Y-116759866D01*
X168878596Y-116870737D01*
X169056615Y-116948511D01*
X169246350Y-116990227D01*
X169440574Y-116994295D01*
X169631889Y-116960561D01*
X169813008Y-116890310D01*
X169977033Y-116786216D01*
X170117716Y-116652246D01*
X170229697Y-116493502D01*
X170308713Y-116316031D01*
X170351752Y-116126592D01*
X170353100Y-116030028D01*
X170354711Y-116015667D01*
X170354808Y-116001836D01*
X170354808Y-115907711D01*
X170354850Y-115904703D01*
X170354808Y-115904491D01*
X170354808Y-115356366D01*
X170387633Y-115334736D01*
X170452854Y-115258212D01*
X170494173Y-115166547D01*
X170508320Y-115067000D01*
X170508320Y-114916296D01*
X170532264Y-114952633D01*
X170608788Y-115017854D01*
X170700453Y-115059173D01*
X170800000Y-115073320D01*
X172100000Y-115073320D01*
X172156628Y-115068804D01*
X172252675Y-115039060D01*
X172336633Y-114983736D01*
X172401854Y-114907212D01*
X172443173Y-114815547D01*
X172457320Y-114716000D01*
X172457320Y-113216000D01*
X172452804Y-113159372D01*
X172423060Y-113063325D01*
X172367736Y-112979367D01*
X172291212Y-112914146D01*
X172267350Y-112903390D01*
X172336633Y-112857736D01*
X172401854Y-112781212D01*
X172443173Y-112689547D01*
X172457320Y-112590000D01*
X172457320Y-111090000D01*
X172452804Y-111033372D01*
X172423060Y-110937325D01*
X172367736Y-110853367D01*
X172291212Y-110788146D01*
X172199547Y-110746827D01*
X172100000Y-110732680D01*
X170909228Y-110732680D01*
X171394587Y-110247320D01*
X172100000Y-110247320D01*
X172156628Y-110242804D01*
X172252675Y-110213060D01*
X172336633Y-110157736D01*
X172401854Y-110081212D01*
X172443173Y-109989547D01*
X172457320Y-109890000D01*
X172457320Y-108390000D01*
X172452804Y-108333372D01*
X172440600Y-108293964D01*
X172440600Y-107442000D01*
X172439450Y-107430268D01*
X172440642Y-107344867D01*
X172402909Y-107154300D01*
X172328880Y-106974691D01*
X172221374Y-106812882D01*
X172084487Y-106675037D01*
X171923433Y-106566404D01*
X171744346Y-106491123D01*
X171554047Y-106452060D01*
X171359785Y-106450704D01*
X171168959Y-106487106D01*
X170988838Y-106559879D01*
X170826283Y-106666252D01*
X170687485Y-106802174D01*
X170577730Y-106962466D01*
X170501201Y-107141023D01*
X170460810Y-107331045D01*
X170458098Y-107525292D01*
X170459400Y-107532386D01*
X170459400Y-108284745D01*
X170456827Y-108290453D01*
X170452824Y-108318624D01*
X170444060Y-108290325D01*
X170388736Y-108206367D01*
X170312212Y-108141146D01*
X170220547Y-108099827D01*
X170121000Y-108085680D01*
X168621000Y-108085680D01*
X168564372Y-108090196D01*
X168468325Y-108119940D01*
X168384367Y-108175264D01*
X168319146Y-108251788D01*
X168277827Y-108343453D01*
X168263680Y-108443000D01*
X168263680Y-108960696D01*
X167928588Y-109295788D01*
X167878200Y-109245400D01*
X166823400Y-109245400D01*
X166823400Y-110200200D01*
X166923400Y-110300200D01*
X166923400Y-110845600D01*
X166943400Y-110845600D01*
X166943400Y-111150400D01*
X166923400Y-111150400D01*
X166923400Y-111959800D01*
X166823400Y-112059800D01*
X166823400Y-112689600D01*
X166843400Y-112689600D01*
X166843400Y-112994400D01*
X166823400Y-112994400D01*
X166823400Y-113014400D01*
X166518600Y-113014400D01*
X166518600Y-112994400D01*
X166498600Y-112994400D01*
X166498600Y-112689600D01*
X166518600Y-112689600D01*
X166518600Y-112180200D01*
X166618600Y-112080200D01*
X166618600Y-111150400D01*
X166598600Y-111150400D01*
X166598600Y-110845600D01*
X166618600Y-110845600D01*
X166618600Y-109915800D01*
X166518600Y-109815800D01*
X166518600Y-109245400D01*
X165463800Y-109245400D01*
X165311400Y-109397800D01*
X165311400Y-109803041D01*
X165334827Y-109920814D01*
X165380780Y-110031754D01*
X165447493Y-110131598D01*
X165457161Y-110141266D01*
X165434827Y-110195186D01*
X165430657Y-110216150D01*
X165363374Y-110114882D01*
X165226487Y-109977037D01*
X165065433Y-109868404D01*
X164886346Y-109793123D01*
X164696047Y-109754060D01*
X164501785Y-109752704D01*
X164310959Y-109789106D01*
X164130838Y-109861879D01*
X163968283Y-109968252D01*
X163829485Y-110104174D01*
X163719730Y-110264466D01*
X163643201Y-110443023D01*
X163602810Y-110633045D01*
X163600098Y-110827292D01*
X163601400Y-110834386D01*
X163601400Y-111252212D01*
X163600754Y-111251780D01*
X163489814Y-111205827D01*
X163372041Y-111182400D01*
X162991800Y-111182400D01*
X162839400Y-111334800D01*
X162839400Y-112389600D01*
X162859400Y-112389600D01*
X162859400Y-112694400D01*
X162839400Y-112694400D01*
X162839400Y-112714400D01*
X162534600Y-112714400D01*
X162534600Y-112694400D01*
X161989200Y-112694400D01*
X161889200Y-112594400D01*
X160934400Y-112594400D01*
X160934400Y-112614400D01*
X160629600Y-112614400D01*
X160629600Y-112594400D01*
X159674800Y-112594400D01*
X159522400Y-112746800D01*
X159522400Y-113252040D01*
X159545827Y-113369813D01*
X159591779Y-113480754D01*
X159658493Y-113580597D01*
X159743402Y-113665507D01*
X159843246Y-113732220D01*
X159954186Y-113778173D01*
X160071959Y-113801600D01*
X160436766Y-113801600D01*
X160412455Y-113831197D01*
X160383800Y-113865347D01*
X160382578Y-113867570D01*
X160380967Y-113869531D01*
X160359885Y-113908848D01*
X160338425Y-113947884D01*
X160337659Y-113950300D01*
X160336458Y-113952539D01*
X160323415Y-113995202D01*
X160310892Y-114034680D01*
X160132000Y-114034680D01*
X160075372Y-114039196D01*
X159979325Y-114068940D01*
X159895367Y-114124264D01*
X159830146Y-114200788D01*
X159788827Y-114292453D01*
X159774680Y-114392000D01*
X159774680Y-115892000D01*
X159779196Y-115948628D01*
X159808940Y-116044675D01*
X159864264Y-116128633D01*
X159940788Y-116193854D01*
X160032453Y-116235173D01*
X160132000Y-116249320D01*
X161432000Y-116249320D01*
X161488628Y-116244804D01*
X161584675Y-116215060D01*
X161668633Y-116159736D01*
X161733854Y-116083212D01*
X161773001Y-115996365D01*
X161794264Y-116028633D01*
X161870788Y-116093854D01*
X161962453Y-116135173D01*
X162062000Y-116149320D01*
X163312000Y-116149320D01*
X163368628Y-116144804D01*
X163464675Y-116115060D01*
X163548633Y-116059736D01*
X163571761Y-116032600D01*
X163615201Y-116032600D01*
X163618940Y-116044675D01*
X163674264Y-116128633D01*
X163750788Y-116193854D01*
X163842453Y-116235173D01*
X163942000Y-116249320D01*
X165242000Y-116249320D01*
X165298628Y-116244804D01*
X165394675Y-116215060D01*
X165478633Y-116159736D01*
X165501761Y-116132600D01*
X166268400Y-116132600D01*
X166268400Y-116841027D01*
X166209922Y-116782549D01*
X166095715Y-116896756D01*
X166026714Y-116668058D01*
X165781993Y-116559254D01*
X165520748Y-116500283D01*
X165253018Y-116493412D01*
X164989092Y-116538904D01*
X164739113Y-116635011D01*
X164677286Y-116668058D01*
X164608284Y-116896758D01*
X165352000Y-117640474D01*
X165366143Y-117626332D01*
X165581669Y-117841858D01*
X165567526Y-117856000D01*
X165581669Y-117870143D01*
X165366143Y-118085669D01*
X165352000Y-118071526D01*
X165337858Y-118085669D01*
X165122332Y-117870143D01*
X165136474Y-117856000D01*
X164392758Y-117112284D01*
X164164058Y-117181286D01*
X164055254Y-117426007D01*
X163996283Y-117687252D01*
X163989412Y-117954982D01*
X164034904Y-118218908D01*
X164131011Y-118468887D01*
X164164058Y-118530714D01*
X164392756Y-118599715D01*
X164349071Y-118643400D01*
X163588421Y-118643400D01*
X163652984Y-118581918D01*
X163777965Y-118404745D01*
X163866154Y-118206670D01*
X163914190Y-117995239D01*
X163917648Y-117747590D01*
X163875534Y-117534900D01*
X163792911Y-117334441D01*
X163672925Y-117153847D01*
X163520146Y-116999998D01*
X163340395Y-116878754D01*
X163140517Y-116794734D01*
X162928126Y-116751136D01*
X162711312Y-116749622D01*
X162498333Y-116790250D01*
X162297301Y-116871472D01*
X162115874Y-116990194D01*
X161960963Y-117141895D01*
X161838467Y-117320796D01*
X161797084Y-117417350D01*
X161762911Y-117334441D01*
X161642925Y-117153847D01*
X161490146Y-116999998D01*
X161310395Y-116878754D01*
X161110517Y-116794734D01*
X160898126Y-116751136D01*
X160681312Y-116749622D01*
X160468333Y-116790250D01*
X160267301Y-116871472D01*
X160085874Y-116990194D01*
X159930963Y-117141895D01*
X159808467Y-117320796D01*
X159723053Y-117520082D01*
X159677974Y-117732164D01*
X159675785Y-117888865D01*
X159294115Y-117507195D01*
X159222911Y-117334441D01*
X159102925Y-117153847D01*
X158950146Y-116999998D01*
X158770395Y-116878754D01*
X158589731Y-116802811D01*
X157494320Y-115707400D01*
X157494320Y-112456000D01*
X157489804Y-112399372D01*
X157460060Y-112303325D01*
X157404736Y-112219367D01*
X157328212Y-112154146D01*
X157236547Y-112112827D01*
X157137000Y-112098680D01*
X155537000Y-112098680D01*
X155480372Y-112103196D01*
X155384325Y-112132940D01*
X155300367Y-112188264D01*
X155235146Y-112264788D01*
X155193827Y-112356453D01*
X155179680Y-112456000D01*
X155179680Y-115956000D01*
X155184196Y-116012628D01*
X155213940Y-116108675D01*
X155269264Y-116192633D01*
X155345788Y-116257854D01*
X155407609Y-116285721D01*
X155417242Y-116318877D01*
X155419640Y-116323503D01*
X155421145Y-116328488D01*
X155464097Y-116409269D01*
X155506213Y-116490520D01*
X155509462Y-116494590D01*
X155511908Y-116499190D01*
X155569787Y-116570156D01*
X155626829Y-116641611D01*
X155633973Y-116648857D01*
X155634099Y-116649011D01*
X155634242Y-116649129D01*
X155636540Y-116651460D01*
X157191643Y-118206563D01*
X157253903Y-118363813D01*
X157371356Y-118546064D01*
X157521971Y-118702031D01*
X157700012Y-118825773D01*
X157896848Y-118911768D01*
X159319540Y-120334460D01*
X159390260Y-120392550D01*
X159460344Y-120451357D01*
X159464905Y-120453864D01*
X159468934Y-120457174D01*
X159549633Y-120500444D01*
X159629761Y-120544495D01*
X159634724Y-120546070D01*
X159639317Y-120548532D01*
X159726855Y-120575295D01*
X159814043Y-120602953D01*
X159819218Y-120603533D01*
X159824201Y-120605057D01*
X159915323Y-120614313D01*
X160006169Y-120624503D01*
X160016338Y-120624574D01*
X160016542Y-120624595D01*
X160016732Y-120624577D01*
X160020000Y-120624600D01*
X165924538Y-120624600D01*
X166015622Y-120615669D01*
X166106760Y-120607695D01*
X166111759Y-120606243D01*
X166116947Y-120605734D01*
X166204563Y-120579281D01*
X166292415Y-120553758D01*
X166297041Y-120551360D01*
X166302026Y-120549855D01*
X166382807Y-120506903D01*
X166464058Y-120464787D01*
X166468128Y-120461538D01*
X166472728Y-120459092D01*
X166543694Y-120401213D01*
X166547929Y-120397832D01*
X166543961Y-120682024D01*
X166609653Y-121039947D01*
X166743614Y-121378295D01*
X166940742Y-121684178D01*
X167193530Y-121945948D01*
X167492348Y-122153631D01*
X167825814Y-122299319D01*
X168181227Y-122377462D01*
X168545049Y-122385083D01*
X168903422Y-122321892D01*
X169242696Y-122190296D01*
X169549949Y-121995308D01*
X169813476Y-121744354D01*
X170023241Y-121446993D01*
X170171253Y-121114552D01*
X170251875Y-120759694D01*
X170257679Y-120344049D01*
X170186997Y-119987078D01*
X170048325Y-119650634D01*
X169846944Y-119347532D01*
X169590527Y-119089318D01*
X169288838Y-118885827D01*
X168953371Y-118744809D01*
X168596901Y-118671636D01*
X168233008Y-118669096D01*
X168173399Y-118680467D01*
X168173531Y-118680221D01*
X168200281Y-118592729D01*
X168227953Y-118505495D01*
X168228533Y-118500320D01*
X168230057Y-118495337D01*
X168239308Y-118404259D01*
X168246752Y-118337892D01*
X169120715Y-118337892D01*
X169916073Y-119133250D01*
X169950520Y-119161545D01*
X169984670Y-119190200D01*
X169986893Y-119191422D01*
X169988854Y-119193033D01*
X170028171Y-119214115D01*
X170067207Y-119235575D01*
X170069623Y-119236341D01*
X170071862Y-119237542D01*
X170114538Y-119250589D01*
X170156985Y-119264054D01*
X170159505Y-119264337D01*
X170161933Y-119265079D01*
X170206294Y-119269585D01*
X170250585Y-119274553D01*
X170255545Y-119274588D01*
X170255638Y-119274597D01*
X170255724Y-119274589D01*
X170257323Y-119274600D01*
X170442680Y-119274600D01*
X170442680Y-119542000D01*
X170447196Y-119598628D01*
X170476940Y-119694675D01*
X170532264Y-119778633D01*
X170608788Y-119843854D01*
X170700453Y-119885173D01*
X170800000Y-119899320D01*
X172035425Y-119899320D01*
X172035425Y-120384680D01*
X170800000Y-120384680D01*
X170743372Y-120389196D01*
X170647325Y-120418940D01*
X170563367Y-120474264D01*
X170498146Y-120550788D01*
X170456827Y-120642453D01*
X170442680Y-120742000D01*
X170442680Y-121295364D01*
X168659484Y-123078559D01*
X168631189Y-123113006D01*
X168602534Y-123147156D01*
X168601312Y-123149379D01*
X168599701Y-123151340D01*
X168578619Y-123190657D01*
X168557159Y-123229693D01*
X168556393Y-123232109D01*
X168555192Y-123234348D01*
X168542149Y-123277011D01*
X168528680Y-123319471D01*
X168528397Y-123321992D01*
X168527655Y-123324420D01*
X168523150Y-123368775D01*
X168518181Y-123413071D01*
X168518146Y-123418031D01*
X168518137Y-123418124D01*
X168518145Y-123418210D01*
X168518134Y-123419809D01*
X168518134Y-125955734D01*
X168522480Y-126000060D01*
X168526369Y-126044509D01*
X168527078Y-126046948D01*
X168527325Y-126049471D01*
X168540206Y-126092134D01*
X168552647Y-126134957D01*
X168553814Y-126137209D01*
X168554548Y-126139639D01*
X168575492Y-126179029D01*
X168595992Y-126218577D01*
X168597573Y-126220558D01*
X168598766Y-126222801D01*
X168626951Y-126257359D01*
X168654753Y-126292186D01*
X168658239Y-126295722D01*
X168658295Y-126295790D01*
X168658358Y-126295842D01*
X168659484Y-126296984D01*
X170254750Y-127892250D01*
X170289197Y-127920545D01*
X170323347Y-127949200D01*
X170325570Y-127950422D01*
X170327531Y-127952033D01*
X170366848Y-127973115D01*
X170405884Y-127994575D01*
X170408300Y-127995341D01*
X170410539Y-127996542D01*
X170453202Y-128009585D01*
X170492680Y-128022108D01*
X170492680Y-128151000D01*
X170497196Y-128207628D01*
X170526940Y-128303675D01*
X170582264Y-128387633D01*
X170658788Y-128452854D01*
X170750453Y-128494173D01*
X170850000Y-128508320D01*
X172050000Y-128508320D01*
X172106628Y-128503804D01*
X172202675Y-128474060D01*
X172286633Y-128418736D01*
X172351854Y-128342212D01*
X172393173Y-128250547D01*
X172407320Y-128151000D01*
X172407320Y-126951000D01*
X172402804Y-126894372D01*
X172373060Y-126798325D01*
X172317736Y-126714367D01*
X172241212Y-126649146D01*
X172174119Y-126618903D01*
X172202675Y-126610060D01*
X172286633Y-126554736D01*
X172351854Y-126478212D01*
X172393173Y-126386547D01*
X172407320Y-126287000D01*
X172407320Y-126054832D01*
X172434692Y-126032981D01*
X172438228Y-126029495D01*
X172438296Y-126029439D01*
X172438348Y-126029376D01*
X172439490Y-126028250D01*
X172505400Y-125962340D01*
X172505400Y-128744296D01*
X172438598Y-128677493D01*
X172338754Y-128610780D01*
X172227814Y-128564827D01*
X172110041Y-128541400D01*
X171754800Y-128541400D01*
X171602400Y-128693800D01*
X171602400Y-129598600D01*
X171622400Y-129598600D01*
X171622400Y-129903400D01*
X171602400Y-129903400D01*
X171602400Y-129923400D01*
X171297600Y-129923400D01*
X171297600Y-129903400D01*
X170392800Y-129903400D01*
X170240400Y-130055800D01*
X170240400Y-130411040D01*
X170263827Y-130528813D01*
X170291407Y-130595400D01*
X152669593Y-130595400D01*
X152697173Y-130528813D01*
X152720600Y-130411040D01*
X152720600Y-130055800D01*
X152568200Y-129903400D01*
X151663400Y-129903400D01*
X151663400Y-129923400D01*
X151358600Y-129923400D01*
X151358600Y-129903400D01*
X150453800Y-129903400D01*
X150301400Y-130055800D01*
X150301400Y-130411040D01*
X150324827Y-130528813D01*
X150352407Y-130595400D01*
X133366600Y-130595400D01*
X133366600Y-121772051D01*
X133534530Y-121945948D01*
X133833348Y-122153631D01*
X134166814Y-122299319D01*
X134522227Y-122377462D01*
X134886049Y-122385083D01*
X135244422Y-122321892D01*
X135583696Y-122190296D01*
X135890949Y-121995308D01*
X136154476Y-121744354D01*
X136364241Y-121446993D01*
X136512253Y-121114552D01*
X136592875Y-120759694D01*
X136598679Y-120344049D01*
X136527997Y-119987078D01*
X136389325Y-119650634D01*
X136187944Y-119347532D01*
X135931527Y-119089318D01*
X135629838Y-118885827D01*
X135294371Y-118744809D01*
X134937901Y-118671636D01*
X134574008Y-118669096D01*
X134216552Y-118737284D01*
X133879148Y-118873604D01*
X133574648Y-119072864D01*
X133366600Y-119276599D01*
X133366600Y-112456000D01*
X135240680Y-112456000D01*
X135240680Y-115956000D01*
X135245196Y-116012628D01*
X135274940Y-116108675D01*
X135330264Y-116192633D01*
X135406788Y-116257854D01*
X135468609Y-116285721D01*
X135478242Y-116318877D01*
X135480640Y-116323503D01*
X135482145Y-116328488D01*
X135525097Y-116409269D01*
X135567213Y-116490520D01*
X135570462Y-116494590D01*
X135572908Y-116499190D01*
X135630787Y-116570156D01*
X135687829Y-116641611D01*
X135694973Y-116648857D01*
X135695099Y-116649011D01*
X135695242Y-116649129D01*
X135697540Y-116651460D01*
X137252643Y-118206563D01*
X137314903Y-118363813D01*
X137432356Y-118546064D01*
X137582971Y-118702031D01*
X137761012Y-118825773D01*
X137957848Y-118911768D01*
X139376052Y-120329972D01*
X139446772Y-120388062D01*
X139516856Y-120446869D01*
X139521417Y-120449376D01*
X139525446Y-120452686D01*
X139606145Y-120495956D01*
X139686273Y-120540007D01*
X139691236Y-120541582D01*
X139695829Y-120544044D01*
X139783367Y-120570807D01*
X139870555Y-120598465D01*
X139875730Y-120599045D01*
X139880713Y-120600569D01*
X139971835Y-120609825D01*
X140062681Y-120620015D01*
X140072850Y-120620086D01*
X140073054Y-120620107D01*
X140073244Y-120620089D01*
X140076512Y-120620112D01*
X145990026Y-120620112D01*
X146081110Y-120611181D01*
X146172248Y-120603207D01*
X146177247Y-120601755D01*
X146182435Y-120601246D01*
X146270051Y-120574793D01*
X146357903Y-120549270D01*
X146362529Y-120546872D01*
X146367514Y-120545367D01*
X146448295Y-120502415D01*
X146529546Y-120460299D01*
X146533616Y-120457050D01*
X146538216Y-120454604D01*
X146608942Y-120396921D01*
X146604961Y-120682024D01*
X146670653Y-121039947D01*
X146804614Y-121378295D01*
X147001742Y-121684178D01*
X147254530Y-121945948D01*
X147553348Y-122153631D01*
X147886814Y-122299319D01*
X148242227Y-122377462D01*
X148606049Y-122385083D01*
X148964422Y-122321892D01*
X149303696Y-122190296D01*
X149610949Y-121995308D01*
X149874476Y-121744354D01*
X150084241Y-121446993D01*
X150232253Y-121114552D01*
X150312875Y-120759694D01*
X150318679Y-120344049D01*
X150247997Y-119987078D01*
X150109325Y-119650634D01*
X149907944Y-119347532D01*
X149651527Y-119089318D01*
X149349838Y-118885827D01*
X149014371Y-118744809D01*
X148657901Y-118671636D01*
X148294008Y-118669096D01*
X148110866Y-118704032D01*
X148120367Y-118674081D01*
X148120947Y-118668906D01*
X148122471Y-118663923D01*
X148131727Y-118572801D01*
X148141917Y-118481955D01*
X148141988Y-118471786D01*
X148142009Y-118471582D01*
X148141991Y-118471392D01*
X148142014Y-118468124D01*
X148142014Y-118338600D01*
X149150093Y-118338600D01*
X149944743Y-119133250D01*
X149979190Y-119161545D01*
X150013340Y-119190200D01*
X150015563Y-119191422D01*
X150017524Y-119193033D01*
X150056841Y-119214115D01*
X150095877Y-119235575D01*
X150098293Y-119236341D01*
X150100532Y-119237542D01*
X150143195Y-119250585D01*
X150185655Y-119264054D01*
X150188176Y-119264337D01*
X150190604Y-119265079D01*
X150234959Y-119269584D01*
X150279255Y-119274553D01*
X150284215Y-119274588D01*
X150284308Y-119274597D01*
X150284394Y-119274589D01*
X150285993Y-119274600D01*
X150503680Y-119274600D01*
X150503680Y-119542000D01*
X150508196Y-119598628D01*
X150537940Y-119694675D01*
X150593264Y-119778633D01*
X150669788Y-119843854D01*
X150761453Y-119885173D01*
X150861000Y-119899320D01*
X152161000Y-119899320D01*
X152171400Y-119898491D01*
X152171400Y-120386158D01*
X152161000Y-120384680D01*
X150861000Y-120384680D01*
X150804372Y-120389196D01*
X150708325Y-120418940D01*
X150624367Y-120474264D01*
X150559146Y-120550788D01*
X150517827Y-120642453D01*
X150503680Y-120742000D01*
X150503680Y-122242000D01*
X150508196Y-122298628D01*
X150537940Y-122394675D01*
X150593264Y-122478633D01*
X150669788Y-122543854D01*
X150740462Y-122575711D01*
X150674367Y-122619264D01*
X150609146Y-122695788D01*
X150567827Y-122787453D01*
X150553680Y-122887000D01*
X150553680Y-123016484D01*
X150520587Y-123026476D01*
X150477778Y-123038913D01*
X150475527Y-123040080D01*
X150473095Y-123040814D01*
X150433687Y-123061768D01*
X150394157Y-123082258D01*
X150392176Y-123083839D01*
X150389933Y-123085032D01*
X150355375Y-123113217D01*
X150320548Y-123141019D01*
X150317012Y-123144505D01*
X150316944Y-123144561D01*
X150316892Y-123144624D01*
X150315750Y-123145750D01*
X149056528Y-124404972D01*
X149028233Y-124439419D01*
X148999578Y-124473569D01*
X148998356Y-124475792D01*
X148996745Y-124477753D01*
X148975663Y-124517070D01*
X148954203Y-124556106D01*
X148953437Y-124558522D01*
X148952236Y-124560761D01*
X148939193Y-124603424D01*
X148925724Y-124645884D01*
X148925441Y-124648405D01*
X148924699Y-124650833D01*
X148920194Y-124695188D01*
X148915225Y-124739484D01*
X148915190Y-124744444D01*
X148915181Y-124744537D01*
X148915189Y-124744623D01*
X148915178Y-124746222D01*
X148915178Y-127023175D01*
X148774061Y-127115519D01*
X148635263Y-127251441D01*
X148525508Y-127411733D01*
X148448979Y-127590290D01*
X148408588Y-127780312D01*
X148405876Y-127974559D01*
X148440945Y-128165634D01*
X148512459Y-128346259D01*
X148617695Y-128509553D01*
X148752644Y-128649297D01*
X148912166Y-128760168D01*
X149090185Y-128837942D01*
X149279920Y-128879658D01*
X149474144Y-128883726D01*
X149665459Y-128849992D01*
X149671615Y-128847604D01*
X149691527Y-128867516D01*
X149725974Y-128895811D01*
X149760124Y-128924466D01*
X149762347Y-128925688D01*
X149764308Y-128927299D01*
X149803590Y-128948362D01*
X149842661Y-128969841D01*
X149845081Y-128970609D01*
X149847316Y-128971807D01*
X149889946Y-128984841D01*
X149932439Y-128998320D01*
X149934959Y-128998603D01*
X149937387Y-128999345D01*
X149981748Y-129003851D01*
X150026039Y-129008819D01*
X150030999Y-129008854D01*
X150031092Y-129008863D01*
X150031178Y-129008855D01*
X150032777Y-129008866D01*
X150317730Y-129008866D01*
X150301400Y-129090960D01*
X150301400Y-129446200D01*
X150453800Y-129598600D01*
X151358600Y-129598600D01*
X151358600Y-129578600D01*
X151663400Y-129578600D01*
X151663400Y-129598600D01*
X152568200Y-129598600D01*
X152720600Y-129446200D01*
X152720600Y-129090960D01*
X170240400Y-129090960D01*
X170240400Y-129446200D01*
X170392800Y-129598600D01*
X171297600Y-129598600D01*
X171297600Y-128693800D01*
X171145200Y-128541400D01*
X170789959Y-128541400D01*
X170672186Y-128564827D01*
X170561246Y-128610780D01*
X170461402Y-128677493D01*
X170376493Y-128762403D01*
X170309779Y-128862246D01*
X170263827Y-128973187D01*
X170240400Y-129090960D01*
X152720600Y-129090960D01*
X152697173Y-128973187D01*
X152696154Y-128970728D01*
X152732301Y-128951508D01*
X152771849Y-128931008D01*
X152773830Y-128929427D01*
X152776073Y-128928234D01*
X152810631Y-128900049D01*
X152845458Y-128872247D01*
X152848994Y-128868761D01*
X152849062Y-128868705D01*
X152849114Y-128868642D01*
X152850256Y-128867516D01*
X157083523Y-124634248D01*
X157111779Y-124599848D01*
X157140473Y-124565652D01*
X157141697Y-124563426D01*
X157143306Y-124561467D01*
X157164366Y-124522190D01*
X157185848Y-124483115D01*
X157186615Y-124480697D01*
X157187815Y-124478459D01*
X157200854Y-124435811D01*
X157214327Y-124393337D01*
X157214610Y-124390816D01*
X157215352Y-124388388D01*
X157219857Y-124344033D01*
X157224826Y-124299737D01*
X157224861Y-124294777D01*
X157224870Y-124294684D01*
X157224862Y-124294598D01*
X157224873Y-124292999D01*
X157224873Y-119617093D01*
X157220531Y-119572812D01*
X157216638Y-119528318D01*
X157215929Y-119525879D01*
X157215682Y-119523356D01*
X157202811Y-119480726D01*
X157190361Y-119437871D01*
X157189192Y-119435616D01*
X157188459Y-119433188D01*
X157167545Y-119393855D01*
X157147016Y-119354250D01*
X157145432Y-119352265D01*
X157144241Y-119350026D01*
X157116078Y-119315496D01*
X157088254Y-119280641D01*
X157084771Y-119277110D01*
X157084712Y-119277037D01*
X157084645Y-119276981D01*
X157083523Y-119275844D01*
X152652648Y-114844968D01*
X152618201Y-114816673D01*
X152584051Y-114788018D01*
X152581828Y-114786796D01*
X152579867Y-114785185D01*
X152540550Y-114764103D01*
X152513590Y-114749282D01*
X152518320Y-114716000D01*
X152518320Y-113216000D01*
X152513804Y-113159372D01*
X152484060Y-113063325D01*
X152428736Y-112979367D01*
X152352212Y-112914146D01*
X152328350Y-112903390D01*
X152397633Y-112857736D01*
X152462854Y-112781212D01*
X152504173Y-112689547D01*
X152518320Y-112590000D01*
X152518320Y-111631960D01*
X159522400Y-111631960D01*
X159522400Y-112137200D01*
X159674800Y-112289600D01*
X160629600Y-112289600D01*
X160629600Y-111234800D01*
X160934400Y-111234800D01*
X160934400Y-112289600D01*
X161504800Y-112289600D01*
X161604800Y-112389600D01*
X162534600Y-112389600D01*
X162534600Y-111334800D01*
X162382200Y-111182400D01*
X162001959Y-111182400D01*
X161884186Y-111205827D01*
X161830266Y-111228161D01*
X161820598Y-111218493D01*
X161720754Y-111151780D01*
X161609814Y-111105827D01*
X161492041Y-111082400D01*
X161086800Y-111082400D01*
X160934400Y-111234800D01*
X160629600Y-111234800D01*
X160477200Y-111082400D01*
X160071959Y-111082400D01*
X159954186Y-111105827D01*
X159843246Y-111151780D01*
X159743402Y-111218493D01*
X159658493Y-111303403D01*
X159591779Y-111403246D01*
X159545827Y-111514187D01*
X159522400Y-111631960D01*
X152518320Y-111631960D01*
X152518320Y-111090000D01*
X152513804Y-111033372D01*
X152484060Y-110937325D01*
X152428736Y-110853367D01*
X152352212Y-110788146D01*
X152260547Y-110746827D01*
X152161000Y-110732680D01*
X151235834Y-110732680D01*
X151721194Y-110247320D01*
X152161000Y-110247320D01*
X152217628Y-110242804D01*
X152313675Y-110213060D01*
X152397633Y-110157736D01*
X152462854Y-110081212D01*
X152504173Y-109989547D01*
X152518320Y-109890000D01*
X152518320Y-109110800D01*
X154927400Y-109110800D01*
X154927400Y-110616040D01*
X154950827Y-110733813D01*
X154996779Y-110844754D01*
X155063493Y-110944597D01*
X155148402Y-111029507D01*
X155248246Y-111096220D01*
X155359186Y-111142173D01*
X155476959Y-111165600D01*
X156032200Y-111165600D01*
X156184600Y-111013200D01*
X156184600Y-108958400D01*
X156489400Y-108958400D01*
X156489400Y-111013200D01*
X156641800Y-111165600D01*
X157197041Y-111165600D01*
X157314814Y-111142173D01*
X157425754Y-111096220D01*
X157525598Y-111029507D01*
X157610507Y-110944597D01*
X157677221Y-110844754D01*
X157723173Y-110733813D01*
X157746600Y-110616040D01*
X157746600Y-109110800D01*
X157594200Y-108958400D01*
X156489400Y-108958400D01*
X156184600Y-108958400D01*
X155079800Y-108958400D01*
X154927400Y-109110800D01*
X152518320Y-109110800D01*
X152518320Y-108390000D01*
X152513804Y-108333372D01*
X152484060Y-108237325D01*
X152428736Y-108153367D01*
X152352212Y-108088146D01*
X152287950Y-108059179D01*
X152376489Y-107933666D01*
X152455505Y-107756195D01*
X152498544Y-107566756D01*
X152501642Y-107344867D01*
X152463909Y-107154300D01*
X152398647Y-106995960D01*
X154927400Y-106995960D01*
X154927400Y-108501200D01*
X155079800Y-108653600D01*
X156184600Y-108653600D01*
X156184600Y-106598800D01*
X156489400Y-106598800D01*
X156489400Y-108653600D01*
X157594200Y-108653600D01*
X157746600Y-108501200D01*
X157746600Y-108382959D01*
X165311400Y-108382959D01*
X165311400Y-108788200D01*
X165463800Y-108940600D01*
X166518600Y-108940600D01*
X166518600Y-107985800D01*
X166823400Y-107985800D01*
X166823400Y-108940600D01*
X167878200Y-108940600D01*
X168030600Y-108788200D01*
X168030600Y-108382959D01*
X168007173Y-108265186D01*
X167961220Y-108154246D01*
X167894507Y-108054402D01*
X167809597Y-107969493D01*
X167709754Y-107902779D01*
X167598813Y-107856827D01*
X167481040Y-107833400D01*
X166975800Y-107833400D01*
X166823400Y-107985800D01*
X166518600Y-107985800D01*
X166366200Y-107833400D01*
X165860960Y-107833400D01*
X165743187Y-107856827D01*
X165632246Y-107902779D01*
X165532403Y-107969493D01*
X165447493Y-108054402D01*
X165380780Y-108154246D01*
X165334827Y-108265186D01*
X165311400Y-108382959D01*
X157746600Y-108382959D01*
X157746600Y-106995960D01*
X157723173Y-106878187D01*
X157677221Y-106767246D01*
X157610507Y-106667403D01*
X157525598Y-106582493D01*
X157425754Y-106515780D01*
X157314814Y-106469827D01*
X157197041Y-106446400D01*
X156641800Y-106446400D01*
X156489400Y-106598800D01*
X156184600Y-106598800D01*
X156032200Y-106446400D01*
X155476959Y-106446400D01*
X155359186Y-106469827D01*
X155248246Y-106515780D01*
X155148402Y-106582493D01*
X155063493Y-106667403D01*
X154996779Y-106767246D01*
X154950827Y-106878187D01*
X154927400Y-106995960D01*
X152398647Y-106995960D01*
X152389880Y-106974691D01*
X152282374Y-106812882D01*
X152145487Y-106675037D01*
X151984433Y-106566404D01*
X151805346Y-106491123D01*
X151615047Y-106452060D01*
X151420785Y-106450704D01*
X151229959Y-106487106D01*
X151049838Y-106559879D01*
X150887283Y-106666252D01*
X150748485Y-106802174D01*
X150638730Y-106962466D01*
X150562201Y-107141023D01*
X150521810Y-107331045D01*
X150519098Y-107525292D01*
X150554167Y-107716367D01*
X150625681Y-107896992D01*
X150730733Y-108060001D01*
X150708325Y-108066940D01*
X150624367Y-108122264D01*
X150559146Y-108198788D01*
X150517827Y-108290453D01*
X150513824Y-108318624D01*
X150505060Y-108290325D01*
X150449736Y-108206367D01*
X150373212Y-108141146D01*
X150281547Y-108099827D01*
X150182000Y-108085680D01*
X148682000Y-108085680D01*
X148625372Y-108090196D01*
X148529325Y-108119940D01*
X148445367Y-108175264D01*
X148380146Y-108251788D01*
X148338827Y-108343453D01*
X148324680Y-108443000D01*
X148324680Y-108629764D01*
X148315700Y-108632476D01*
X148272891Y-108644913D01*
X148270640Y-108646080D01*
X148268208Y-108646814D01*
X148228800Y-108667768D01*
X148189270Y-108688258D01*
X148187289Y-108689839D01*
X148185046Y-108691032D01*
X148150488Y-108719217D01*
X148115661Y-108747019D01*
X148112125Y-108750505D01*
X148112057Y-108750561D01*
X148112005Y-108750624D01*
X148110863Y-108751750D01*
X148091600Y-108771013D01*
X148091600Y-108382959D01*
X148068173Y-108265186D01*
X148022220Y-108154246D01*
X147955507Y-108054402D01*
X147870597Y-107969493D01*
X147770754Y-107902779D01*
X147659813Y-107856827D01*
X147542040Y-107833400D01*
X147036800Y-107833400D01*
X146884400Y-107985800D01*
X146884400Y-108940600D01*
X146904400Y-108940600D01*
X146904400Y-109245400D01*
X146884400Y-109245400D01*
X146884400Y-110200200D01*
X146984400Y-110300200D01*
X146984400Y-110845600D01*
X147004400Y-110845600D01*
X147004400Y-111150400D01*
X146984400Y-111150400D01*
X146984400Y-111959800D01*
X146884400Y-112059800D01*
X146884400Y-112689600D01*
X146904400Y-112689600D01*
X146904400Y-112994400D01*
X146884400Y-112994400D01*
X146884400Y-113014400D01*
X146579600Y-113014400D01*
X146579600Y-112994400D01*
X146559600Y-112994400D01*
X146559600Y-112689600D01*
X146579600Y-112689600D01*
X146579600Y-112180200D01*
X146679600Y-112080200D01*
X146679600Y-111150400D01*
X146659600Y-111150400D01*
X146659600Y-110845600D01*
X146679600Y-110845600D01*
X146679600Y-109915800D01*
X146579600Y-109815800D01*
X146579600Y-109245400D01*
X145524800Y-109245400D01*
X145372400Y-109397800D01*
X145372400Y-109803041D01*
X145395827Y-109920814D01*
X145423059Y-109986558D01*
X145287487Y-109850037D01*
X145126433Y-109741404D01*
X144947346Y-109666123D01*
X144757047Y-109627060D01*
X144562785Y-109625704D01*
X144371959Y-109662106D01*
X144191838Y-109734879D01*
X144029283Y-109841252D01*
X143890485Y-109977174D01*
X143780730Y-110137466D01*
X143704201Y-110316023D01*
X143663810Y-110506045D01*
X143661098Y-110700292D01*
X143662400Y-110707386D01*
X143662400Y-111252212D01*
X143661754Y-111251780D01*
X143550814Y-111205827D01*
X143433041Y-111182400D01*
X143052800Y-111182400D01*
X142900400Y-111334800D01*
X142900400Y-112389600D01*
X142920400Y-112389600D01*
X142920400Y-112694400D01*
X142900400Y-112694400D01*
X142900400Y-112714400D01*
X142595600Y-112714400D01*
X142595600Y-112694400D01*
X142050200Y-112694400D01*
X141950200Y-112594400D01*
X140995400Y-112594400D01*
X140995400Y-112614400D01*
X140690600Y-112614400D01*
X140690600Y-112594400D01*
X139735800Y-112594400D01*
X139583400Y-112746800D01*
X139583400Y-113252040D01*
X139606827Y-113369813D01*
X139652779Y-113480754D01*
X139719493Y-113580597D01*
X139804402Y-113665507D01*
X139904246Y-113732220D01*
X140015186Y-113778173D01*
X140132959Y-113801600D01*
X140497766Y-113801600D01*
X140473455Y-113831197D01*
X140444800Y-113865347D01*
X140443578Y-113867570D01*
X140441967Y-113869531D01*
X140420885Y-113908848D01*
X140399425Y-113947884D01*
X140398659Y-113950300D01*
X140397458Y-113952539D01*
X140384415Y-113995202D01*
X140371892Y-114034680D01*
X140193000Y-114034680D01*
X140136372Y-114039196D01*
X140040325Y-114068940D01*
X139956367Y-114124264D01*
X139891146Y-114200788D01*
X139849827Y-114292453D01*
X139835680Y-114392000D01*
X139835680Y-115892000D01*
X139840196Y-115948628D01*
X139869940Y-116044675D01*
X139925264Y-116128633D01*
X140001788Y-116193854D01*
X140093453Y-116235173D01*
X140193000Y-116249320D01*
X141493000Y-116249320D01*
X141549628Y-116244804D01*
X141645675Y-116215060D01*
X141729633Y-116159736D01*
X141794854Y-116083212D01*
X141834001Y-115996365D01*
X141855264Y-116028633D01*
X141931788Y-116093854D01*
X142023453Y-116135173D01*
X142123000Y-116149320D01*
X143373000Y-116149320D01*
X143429628Y-116144804D01*
X143525675Y-116115060D01*
X143609633Y-116059736D01*
X143632761Y-116032600D01*
X143676201Y-116032600D01*
X143679940Y-116044675D01*
X143735264Y-116128633D01*
X143811788Y-116193854D01*
X143903453Y-116235173D01*
X144003000Y-116249320D01*
X145303000Y-116249320D01*
X145359628Y-116244804D01*
X145455675Y-116215060D01*
X145539633Y-116159736D01*
X145562761Y-116132600D01*
X146160814Y-116132600D01*
X146160814Y-116892657D01*
X146156715Y-116896756D01*
X146087714Y-116668058D01*
X145842993Y-116559254D01*
X145581748Y-116500283D01*
X145314018Y-116493412D01*
X145050092Y-116538904D01*
X144800113Y-116635011D01*
X144738286Y-116668058D01*
X144669284Y-116896758D01*
X145413000Y-117640474D01*
X145427143Y-117626332D01*
X145642669Y-117841858D01*
X145628526Y-117856000D01*
X145642669Y-117870143D01*
X145427143Y-118085669D01*
X145413000Y-118071526D01*
X145398858Y-118085669D01*
X145183332Y-117870143D01*
X145197474Y-117856000D01*
X144453758Y-117112284D01*
X144225058Y-117181286D01*
X144116254Y-117426007D01*
X144057283Y-117687252D01*
X144050412Y-117954982D01*
X144095904Y-118218908D01*
X144192011Y-118468887D01*
X144225058Y-118530714D01*
X144453756Y-118599715D01*
X144414559Y-118638912D01*
X143654134Y-118638912D01*
X143713984Y-118581918D01*
X143838965Y-118404745D01*
X143927154Y-118206670D01*
X143975190Y-117995239D01*
X143978648Y-117747590D01*
X143936534Y-117534900D01*
X143853911Y-117334441D01*
X143733925Y-117153847D01*
X143581146Y-116999998D01*
X143401395Y-116878754D01*
X143201517Y-116794734D01*
X142989126Y-116751136D01*
X142772312Y-116749622D01*
X142559333Y-116790250D01*
X142358301Y-116871472D01*
X142176874Y-116990194D01*
X142021963Y-117141895D01*
X141899467Y-117320796D01*
X141858084Y-117417350D01*
X141823911Y-117334441D01*
X141703925Y-117153847D01*
X141551146Y-116999998D01*
X141371395Y-116878754D01*
X141171517Y-116794734D01*
X140959126Y-116751136D01*
X140742312Y-116749622D01*
X140529333Y-116790250D01*
X140328301Y-116871472D01*
X140146874Y-116990194D01*
X139991963Y-117141895D01*
X139869467Y-117320796D01*
X139784053Y-117520082D01*
X139738974Y-117732164D01*
X139736785Y-117888865D01*
X139355115Y-117507195D01*
X139283911Y-117334441D01*
X139163925Y-117153847D01*
X139011146Y-116999998D01*
X138831395Y-116878754D01*
X138650731Y-116802811D01*
X137555320Y-115707400D01*
X137555320Y-112456000D01*
X137550804Y-112399372D01*
X137521060Y-112303325D01*
X137465736Y-112219367D01*
X137389212Y-112154146D01*
X137297547Y-112112827D01*
X137198000Y-112098680D01*
X135598000Y-112098680D01*
X135541372Y-112103196D01*
X135445325Y-112132940D01*
X135361367Y-112188264D01*
X135296146Y-112264788D01*
X135254827Y-112356453D01*
X135240680Y-112456000D01*
X133366600Y-112456000D01*
X133366600Y-111631960D01*
X139583400Y-111631960D01*
X139583400Y-112137200D01*
X139735800Y-112289600D01*
X140690600Y-112289600D01*
X140690600Y-111234800D01*
X140995400Y-111234800D01*
X140995400Y-112289600D01*
X141565800Y-112289600D01*
X141665800Y-112389600D01*
X142595600Y-112389600D01*
X142595600Y-111334800D01*
X142443200Y-111182400D01*
X142062959Y-111182400D01*
X141945186Y-111205827D01*
X141891266Y-111228161D01*
X141881598Y-111218493D01*
X141781754Y-111151780D01*
X141670814Y-111105827D01*
X141553041Y-111082400D01*
X141147800Y-111082400D01*
X140995400Y-111234800D01*
X140690600Y-111234800D01*
X140538200Y-111082400D01*
X140132959Y-111082400D01*
X140015186Y-111105827D01*
X139904246Y-111151780D01*
X139804402Y-111218493D01*
X139719493Y-111303403D01*
X139652779Y-111403246D01*
X139606827Y-111514187D01*
X139583400Y-111631960D01*
X133366600Y-111631960D01*
X133366600Y-109110800D01*
X134988400Y-109110800D01*
X134988400Y-110616040D01*
X135011827Y-110733813D01*
X135057779Y-110844754D01*
X135124493Y-110944597D01*
X135209402Y-111029507D01*
X135309246Y-111096220D01*
X135420186Y-111142173D01*
X135537959Y-111165600D01*
X136093200Y-111165600D01*
X136245600Y-111013200D01*
X136245600Y-108958400D01*
X136550400Y-108958400D01*
X136550400Y-111013200D01*
X136702800Y-111165600D01*
X137258041Y-111165600D01*
X137375814Y-111142173D01*
X137486754Y-111096220D01*
X137586598Y-111029507D01*
X137671507Y-110944597D01*
X137738221Y-110844754D01*
X137784173Y-110733813D01*
X137807600Y-110616040D01*
X137807600Y-109110800D01*
X137655200Y-108958400D01*
X136550400Y-108958400D01*
X136245600Y-108958400D01*
X135140800Y-108958400D01*
X134988400Y-109110800D01*
X133366600Y-109110800D01*
X133366600Y-106995960D01*
X134988400Y-106995960D01*
X134988400Y-108501200D01*
X135140800Y-108653600D01*
X136245600Y-108653600D01*
X136245600Y-106598800D01*
X136550400Y-106598800D01*
X136550400Y-108653600D01*
X137655200Y-108653600D01*
X137807600Y-108501200D01*
X137807600Y-108382959D01*
X145372400Y-108382959D01*
X145372400Y-108788200D01*
X145524800Y-108940600D01*
X146579600Y-108940600D01*
X146579600Y-107985800D01*
X146427200Y-107833400D01*
X145921960Y-107833400D01*
X145804187Y-107856827D01*
X145693246Y-107902779D01*
X145593403Y-107969493D01*
X145508493Y-108054402D01*
X145441780Y-108154246D01*
X145395827Y-108265186D01*
X145372400Y-108382959D01*
X137807600Y-108382959D01*
X137807600Y-106995960D01*
X137784173Y-106878187D01*
X137738221Y-106767246D01*
X137671507Y-106667403D01*
X137586598Y-106582493D01*
X137486754Y-106515780D01*
X137375814Y-106469827D01*
X137258041Y-106446400D01*
X136702800Y-106446400D01*
X136550400Y-106598800D01*
X136245600Y-106598800D01*
X136093200Y-106446400D01*
X135537959Y-106446400D01*
X135420186Y-106469827D01*
X135309246Y-106515780D01*
X135209402Y-106582493D01*
X135124493Y-106667403D01*
X135057779Y-106767246D01*
X135011827Y-106878187D01*
X134988400Y-106995960D01*
X133366600Y-106995960D01*
X133366600Y-101002432D01*
X149679830Y-101002432D01*
X149749061Y-101379644D01*
X149890242Y-101736226D01*
X150097994Y-102058594D01*
X150364404Y-102334470D01*
X150679326Y-102553346D01*
X151030762Y-102706885D01*
X151405329Y-102789239D01*
X151788758Y-102797270D01*
X152166444Y-102730674D01*
X152524002Y-102591986D01*
X152847813Y-102386490D01*
X153125542Y-102122012D01*
X153346611Y-101808626D01*
X153502600Y-101458270D01*
X153587567Y-101084288D01*
X153593684Y-100646244D01*
X153519192Y-100270035D01*
X153373047Y-99915459D01*
X153160814Y-99596023D01*
X152890578Y-99323894D01*
X152572631Y-99109436D01*
X152219085Y-98960819D01*
X151843405Y-98883703D01*
X151459901Y-98881025D01*
X151083182Y-98952889D01*
X150727595Y-99096555D01*
X150406685Y-99306553D01*
X150132675Y-99574882D01*
X149916003Y-99891324D01*
X149764921Y-100243824D01*
X149685184Y-100618957D01*
X149679830Y-101002432D01*
X133366600Y-101002432D01*
X133366600Y-98397754D01*
X133419554Y-98375820D01*
X133519398Y-98309107D01*
X133604307Y-98224197D01*
X133671021Y-98124354D01*
X133716973Y-98013413D01*
X133740400Y-97895640D01*
X133740400Y-94640400D01*
X133588000Y-94488000D01*
X129353798Y-94488000D01*
X129364777Y-94367366D01*
X129364504Y-94328339D01*
X129364777Y-94289312D01*
X129364190Y-94283329D01*
X129353666Y-94183200D01*
X133588000Y-94183200D01*
X133740400Y-94030800D01*
X133740400Y-90790433D01*
X140062293Y-90790433D01*
X140185852Y-91065083D01*
X140507407Y-91218921D01*
X140852796Y-91307070D01*
X141208745Y-91326144D01*
X141561576Y-91275409D01*
X141897730Y-91156815D01*
X142069348Y-91065083D01*
X142192907Y-90790433D01*
X141127600Y-89725126D01*
X140062293Y-90790433D01*
X133740400Y-90790433D01*
X133740400Y-90775560D01*
X133716973Y-90657787D01*
X133671021Y-90546846D01*
X133604307Y-90447003D01*
X133519398Y-90362093D01*
X133419554Y-90295380D01*
X133366600Y-90273446D01*
X133366600Y-89590745D01*
X139311056Y-89590745D01*
X139361791Y-89943576D01*
X139480385Y-90279730D01*
X139572117Y-90451348D01*
X139846767Y-90574907D01*
X140912074Y-89509600D01*
X141343126Y-89509600D01*
X142408433Y-90574907D01*
X142683083Y-90451348D01*
X142836921Y-90129793D01*
X142925070Y-89784404D01*
X142944144Y-89428455D01*
X142893409Y-89075624D01*
X142774815Y-88739470D01*
X142683083Y-88567852D01*
X142408433Y-88444293D01*
X141343126Y-89509600D01*
X140912074Y-89509600D01*
X139846767Y-88444293D01*
X139572117Y-88567852D01*
X139418279Y-88889407D01*
X139330130Y-89234796D01*
X139311056Y-89590745D01*
X133366600Y-89590745D01*
X133366600Y-88451885D01*
X133367433Y-88451336D01*
X133432654Y-88374812D01*
X133473973Y-88283147D01*
X133481701Y-88228767D01*
X140062293Y-88228767D01*
X141127600Y-89294074D01*
X142192907Y-88228767D01*
X142069348Y-87954117D01*
X141747793Y-87800279D01*
X141402404Y-87712130D01*
X141046455Y-87693056D01*
X140693624Y-87743791D01*
X140357470Y-87862385D01*
X140185852Y-87954117D01*
X140062293Y-88228767D01*
X133481701Y-88228767D01*
X133488120Y-88183600D01*
X133488120Y-87579200D01*
X143002000Y-87579200D01*
X143002000Y-89509600D01*
X143032959Y-89825347D01*
X143070280Y-89948960D01*
X143070280Y-90709600D01*
X143074796Y-90766228D01*
X143104540Y-90862275D01*
X143159864Y-90946233D01*
X143236388Y-91011454D01*
X143328053Y-91052773D01*
X143427600Y-91066920D01*
X144187410Y-91066920D01*
X144300728Y-91101998D01*
X144616251Y-91135160D01*
X144932207Y-91106406D01*
X145066369Y-91066920D01*
X145827600Y-91066920D01*
X145884228Y-91062404D01*
X145980275Y-91032660D01*
X146064233Y-90977336D01*
X146129454Y-90900812D01*
X146170773Y-90809147D01*
X146184920Y-90709600D01*
X146184920Y-89950844D01*
X146217677Y-89847581D01*
X146253042Y-89532297D01*
X146253200Y-89509600D01*
X146253200Y-87604600D01*
X160655000Y-87604600D01*
X161217425Y-87549454D01*
X161758427Y-87386115D01*
X162002400Y-87256393D01*
X162002400Y-92443000D01*
M02*
