G04 #@! TF.FileFunction,Soldermask,Top*
%FSLAX46Y46*%
G04 Gerber Fmt 4.6, Leading zero omitted, Abs format (unit mm)*
G04 Created by KiCad (PCBNEW 4.0.7-e2-6376~58~ubuntu16.04.1) date Fri Nov  3 20:46:07 2017*
%MOMM*%
%LPD*%
G01*
G04 APERTURE LIST*
%ADD10C,0.100000*%
%ADD11R,1.900000X1.700000*%
%ADD12R,1.650000X1.900000*%
%ADD13R,2.430000X2.050000*%
%ADD14R,1.050000X1.960000*%
%ADD15R,10.400000X7.400000*%
%ADD16O,7.250000X4.450000*%
%ADD17R,1.960000X1.050000*%
%ADD18R,1.900000X1.650000*%
%ADD19R,1.600000X1.600000*%
%ADD20C,2.178000*%
%ADD21C,1.900000*%
%ADD22C,3.400000*%
%ADD23R,1.700000X1.900000*%
%ADD24C,3.600000*%
%ADD25R,3.194000X3.194000*%
%ADD26C,3.194000*%
%ADD27R,2.000000X3.900000*%
G04 APERTURE END LIST*
D10*
D11*
X142414000Y-105918000D03*
X145114000Y-105918000D03*
D12*
X147320000Y-108946000D03*
X147320000Y-106446000D03*
D13*
X147320000Y-111704000D03*
X147320000Y-114864000D03*
D14*
X150434000Y-111586000D03*
X151384000Y-111586000D03*
X152334000Y-111586000D03*
X152334000Y-108886000D03*
X150434000Y-108886000D03*
X151384000Y-108886000D03*
D15*
X128130800Y-84683600D03*
X128130800Y-94335600D03*
D16*
X165473000Y-84709000D03*
X165473000Y-94352000D03*
D17*
X145114000Y-109662000D03*
X145114000Y-108712000D03*
X145114000Y-107762000D03*
X142414000Y-107762000D03*
X142414000Y-109662000D03*
X142414000Y-108712000D03*
D18*
X149880000Y-106680000D03*
X152380000Y-106680000D03*
D12*
X167132000Y-108946000D03*
X167132000Y-106446000D03*
X142748000Y-112542000D03*
X142748000Y-115042000D03*
X162560000Y-112542000D03*
X162560000Y-115042000D03*
X134620000Y-115042000D03*
X134620000Y-112542000D03*
X154432000Y-115042000D03*
X154432000Y-112542000D03*
X138684000Y-115042000D03*
X138684000Y-112542000D03*
X158496000Y-115042000D03*
X158496000Y-112542000D03*
D19*
X151511000Y-123487000D03*
X151511000Y-125687000D03*
X171450000Y-123487000D03*
X171450000Y-125687000D03*
X151511000Y-127551000D03*
X151511000Y-129751000D03*
X171450000Y-127551000D03*
X171450000Y-129751000D03*
D20*
X145413000Y-117856000D03*
D21*
X142873000Y-117856000D03*
X140843000Y-117856000D03*
D20*
X138303000Y-117856000D03*
D22*
X148463000Y-120526000D03*
X134743000Y-120526000D03*
D20*
X165352000Y-117856000D03*
D21*
X162812000Y-117856000D03*
X160782000Y-117856000D03*
D20*
X158242000Y-117856000D03*
D22*
X168402000Y-120526000D03*
X154682000Y-120526000D03*
D23*
X151511000Y-113966000D03*
X151511000Y-116666000D03*
X171450000Y-113966000D03*
X171450000Y-116666000D03*
D11*
X162226000Y-105918000D03*
X164926000Y-105918000D03*
D23*
X151511000Y-118792000D03*
X151511000Y-121492000D03*
X171450000Y-118792000D03*
X171450000Y-121492000D03*
X136652000Y-115142000D03*
X136652000Y-112442000D03*
X156464000Y-115142000D03*
X156464000Y-112442000D03*
D17*
X164926000Y-109662000D03*
X164926000Y-108712000D03*
X164926000Y-107762000D03*
X162226000Y-107762000D03*
X162226000Y-109662000D03*
X162226000Y-108712000D03*
D24*
X151638000Y-100838000D03*
D25*
X144627600Y-89509600D03*
D26*
X139627600Y-89509600D03*
D27*
X137668000Y-108872000D03*
X137668000Y-103472000D03*
X157480000Y-108872000D03*
X157480000Y-103472000D03*
D13*
X167132000Y-111704000D03*
X167132000Y-114864000D03*
D23*
X140716000Y-112442000D03*
X140716000Y-115142000D03*
X160528000Y-112442000D03*
X160528000Y-115142000D03*
M02*
