G04 #@! TF.FileFunction,Legend,Top*
%FSLAX46Y46*%
G04 Gerber Fmt 4.6, Leading zero omitted, Abs format (unit mm)*
G04 Created by KiCad (PCBNEW 4.0.7-e2-6376~58~ubuntu16.04.1) date Mon Sep  4 19:43:41 2017*
%MOMM*%
%LPD*%
G01*
G04 APERTURE LIST*
%ADD10C,0.100000*%
%ADD11C,0.150000*%
%ADD12C,0.200000*%
%ADD13C,0.300000*%
%ADD14C,0.250000*%
%ADD15C,0.120000*%
G04 APERTURE END LIST*
D10*
D11*
X163282858Y-99254571D02*
X163782858Y-100754571D01*
X164282858Y-99254571D01*
X165354286Y-100683143D02*
X165211429Y-100754571D01*
X164925715Y-100754571D01*
X164782858Y-100683143D01*
X164711429Y-100540286D01*
X164711429Y-99968857D01*
X164782858Y-99826000D01*
X164925715Y-99754571D01*
X165211429Y-99754571D01*
X165354286Y-99826000D01*
X165425715Y-99968857D01*
X165425715Y-100111714D01*
X164711429Y-100254571D01*
X166068572Y-100754571D02*
X166068572Y-99754571D01*
X166068572Y-100040286D02*
X166140000Y-99897429D01*
X166211429Y-99826000D01*
X166354286Y-99754571D01*
X166497143Y-99754571D01*
X166997143Y-100611714D02*
X167068571Y-100683143D01*
X166997143Y-100754571D01*
X166925714Y-100683143D01*
X166997143Y-100611714D01*
X166997143Y-100754571D01*
X168854286Y-100754571D02*
X168854286Y-99754571D01*
X168854286Y-100040286D02*
X168925714Y-99897429D01*
X168997143Y-99826000D01*
X169140000Y-99754571D01*
X169282857Y-99754571D01*
X170425714Y-100683143D02*
X170282857Y-100754571D01*
X169997143Y-100754571D01*
X169854285Y-100683143D01*
X169782857Y-100611714D01*
X169711428Y-100468857D01*
X169711428Y-100040286D01*
X169782857Y-99897429D01*
X169854285Y-99826000D01*
X169997143Y-99754571D01*
X170282857Y-99754571D01*
X170425714Y-99826000D01*
X170925714Y-99254571D02*
X171854285Y-99254571D01*
X171354285Y-99826000D01*
X171568571Y-99826000D01*
X171711428Y-99897429D01*
X171782857Y-99968857D01*
X171854285Y-100111714D01*
X171854285Y-100468857D01*
X171782857Y-100611714D01*
X171711428Y-100683143D01*
X171568571Y-100754571D01*
X171139999Y-100754571D01*
X170997142Y-100683143D01*
X170925714Y-100611714D01*
D12*
X165862000Y-107569000D02*
G75*
G03X165862000Y-107569000I-127000J0D01*
G01*
X145923000Y-107569000D02*
G75*
G03X145923000Y-107569000I-127000J0D01*
G01*
D13*
X136225428Y-103318571D02*
X136225428Y-104532857D01*
X136296856Y-104675714D01*
X136368285Y-104747143D01*
X136511142Y-104818571D01*
X136796856Y-104818571D01*
X136939714Y-104747143D01*
X137011142Y-104675714D01*
X137082571Y-104532857D01*
X137082571Y-103318571D01*
X137725428Y-104747143D02*
X137939714Y-104818571D01*
X138296857Y-104818571D01*
X138439714Y-104747143D01*
X138511143Y-104675714D01*
X138582571Y-104532857D01*
X138582571Y-104390000D01*
X138511143Y-104247143D01*
X138439714Y-104175714D01*
X138296857Y-104104286D01*
X138011143Y-104032857D01*
X137868285Y-103961429D01*
X137796857Y-103890000D01*
X137725428Y-103747143D01*
X137725428Y-103604286D01*
X137796857Y-103461429D01*
X137868285Y-103390000D01*
X138011143Y-103318571D01*
X138368285Y-103318571D01*
X138582571Y-103390000D01*
X139725428Y-104032857D02*
X139939714Y-104104286D01*
X140011142Y-104175714D01*
X140082571Y-104318571D01*
X140082571Y-104532857D01*
X140011142Y-104675714D01*
X139939714Y-104747143D01*
X139796856Y-104818571D01*
X139225428Y-104818571D01*
X139225428Y-103318571D01*
X139725428Y-103318571D01*
X139868285Y-103390000D01*
X139939714Y-103461429D01*
X140011142Y-103604286D01*
X140011142Y-103747143D01*
X139939714Y-103890000D01*
X139868285Y-103961429D01*
X139725428Y-104032857D01*
X139225428Y-104032857D01*
X141868285Y-103818571D02*
X141868285Y-105318571D01*
X141868285Y-103890000D02*
X142011142Y-103818571D01*
X142296856Y-103818571D01*
X142439713Y-103890000D01*
X142511142Y-103961429D01*
X142582571Y-104104286D01*
X142582571Y-104532857D01*
X142511142Y-104675714D01*
X142439713Y-104747143D01*
X142296856Y-104818571D01*
X142011142Y-104818571D01*
X141868285Y-104747143D01*
X143439714Y-104818571D02*
X143296856Y-104747143D01*
X143225428Y-104675714D01*
X143153999Y-104532857D01*
X143153999Y-104104286D01*
X143225428Y-103961429D01*
X143296856Y-103890000D01*
X143439714Y-103818571D01*
X143653999Y-103818571D01*
X143796856Y-103890000D01*
X143868285Y-103961429D01*
X143939714Y-104104286D01*
X143939714Y-104532857D01*
X143868285Y-104675714D01*
X143796856Y-104747143D01*
X143653999Y-104818571D01*
X143439714Y-104818571D01*
X144439714Y-103818571D02*
X144725428Y-104818571D01*
X145011142Y-104104286D01*
X145296857Y-104818571D01*
X145582571Y-103818571D01*
X146725428Y-104747143D02*
X146582571Y-104818571D01*
X146296857Y-104818571D01*
X146154000Y-104747143D01*
X146082571Y-104604286D01*
X146082571Y-104032857D01*
X146154000Y-103890000D01*
X146296857Y-103818571D01*
X146582571Y-103818571D01*
X146725428Y-103890000D01*
X146796857Y-104032857D01*
X146796857Y-104175714D01*
X146082571Y-104318571D01*
X147439714Y-104818571D02*
X147439714Y-103818571D01*
X147439714Y-104104286D02*
X147511142Y-103961429D01*
X147582571Y-103890000D01*
X147725428Y-103818571D01*
X147868285Y-103818571D01*
X150153999Y-104818571D02*
X150153999Y-103318571D01*
X150153999Y-104747143D02*
X150011142Y-104818571D01*
X149725428Y-104818571D01*
X149582570Y-104747143D01*
X149511142Y-104675714D01*
X149439713Y-104532857D01*
X149439713Y-104104286D01*
X149511142Y-103961429D01*
X149582570Y-103890000D01*
X149725428Y-103818571D01*
X150011142Y-103818571D01*
X150153999Y-103890000D01*
X150868285Y-104818571D02*
X150868285Y-103818571D01*
X150868285Y-103318571D02*
X150796856Y-103390000D01*
X150868285Y-103461429D01*
X150939713Y-103390000D01*
X150868285Y-103318571D01*
X150868285Y-103461429D01*
X151511142Y-104747143D02*
X151653999Y-104818571D01*
X151939714Y-104818571D01*
X152082571Y-104747143D01*
X152153999Y-104604286D01*
X152153999Y-104532857D01*
X152082571Y-104390000D01*
X151939714Y-104318571D01*
X151725428Y-104318571D01*
X151582571Y-104247143D01*
X151511142Y-104104286D01*
X151511142Y-104032857D01*
X151582571Y-103890000D01*
X151725428Y-103818571D01*
X151939714Y-103818571D01*
X152082571Y-103890000D01*
X152582571Y-103818571D02*
X153154000Y-103818571D01*
X152796857Y-103318571D02*
X152796857Y-104604286D01*
X152868285Y-104747143D01*
X153011143Y-104818571D01*
X153154000Y-104818571D01*
X153654000Y-104818571D02*
X153654000Y-103818571D01*
X153654000Y-104104286D02*
X153725428Y-103961429D01*
X153796857Y-103890000D01*
X153939714Y-103818571D01*
X154082571Y-103818571D01*
X154582571Y-104818571D02*
X154582571Y-103818571D01*
X154582571Y-103318571D02*
X154511142Y-103390000D01*
X154582571Y-103461429D01*
X154653999Y-103390000D01*
X154582571Y-103318571D01*
X154582571Y-103461429D01*
X155296857Y-104818571D02*
X155296857Y-103318571D01*
X155296857Y-103890000D02*
X155439714Y-103818571D01*
X155725428Y-103818571D01*
X155868285Y-103890000D01*
X155939714Y-103961429D01*
X156011143Y-104104286D01*
X156011143Y-104532857D01*
X155939714Y-104675714D01*
X155868285Y-104747143D01*
X155725428Y-104818571D01*
X155439714Y-104818571D01*
X155296857Y-104747143D01*
X157296857Y-103818571D02*
X157296857Y-104818571D01*
X156654000Y-103818571D02*
X156654000Y-104604286D01*
X156725428Y-104747143D01*
X156868286Y-104818571D01*
X157082571Y-104818571D01*
X157225428Y-104747143D01*
X157296857Y-104675714D01*
X157796857Y-103818571D02*
X158368286Y-103818571D01*
X158011143Y-103318571D02*
X158011143Y-104604286D01*
X158082571Y-104747143D01*
X158225429Y-104818571D01*
X158368286Y-104818571D01*
X158868286Y-104818571D02*
X158868286Y-103818571D01*
X158868286Y-103318571D02*
X158796857Y-103390000D01*
X158868286Y-103461429D01*
X158939714Y-103390000D01*
X158868286Y-103318571D01*
X158868286Y-103461429D01*
X159796858Y-104818571D02*
X159654000Y-104747143D01*
X159582572Y-104675714D01*
X159511143Y-104532857D01*
X159511143Y-104104286D01*
X159582572Y-103961429D01*
X159654000Y-103890000D01*
X159796858Y-103818571D01*
X160011143Y-103818571D01*
X160154000Y-103890000D01*
X160225429Y-103961429D01*
X160296858Y-104104286D01*
X160296858Y-104532857D01*
X160225429Y-104675714D01*
X160154000Y-104747143D01*
X160011143Y-104818571D01*
X159796858Y-104818571D01*
X160939715Y-103818571D02*
X160939715Y-104818571D01*
X160939715Y-103961429D02*
X161011143Y-103890000D01*
X161154001Y-103818571D01*
X161368286Y-103818571D01*
X161511143Y-103890000D01*
X161582572Y-104032857D01*
X161582572Y-104818571D01*
X163439715Y-104818571D02*
X163439715Y-103318571D01*
X163439715Y-103890000D02*
X163582572Y-103818571D01*
X163868286Y-103818571D01*
X164011143Y-103890000D01*
X164082572Y-103961429D01*
X164154001Y-104104286D01*
X164154001Y-104532857D01*
X164082572Y-104675714D01*
X164011143Y-104747143D01*
X163868286Y-104818571D01*
X163582572Y-104818571D01*
X163439715Y-104747143D01*
X165011144Y-104818571D02*
X164868286Y-104747143D01*
X164796858Y-104675714D01*
X164725429Y-104532857D01*
X164725429Y-104104286D01*
X164796858Y-103961429D01*
X164868286Y-103890000D01*
X165011144Y-103818571D01*
X165225429Y-103818571D01*
X165368286Y-103890000D01*
X165439715Y-103961429D01*
X165511144Y-104104286D01*
X165511144Y-104532857D01*
X165439715Y-104675714D01*
X165368286Y-104747143D01*
X165225429Y-104818571D01*
X165011144Y-104818571D01*
X166796858Y-104818571D02*
X166796858Y-104032857D01*
X166725429Y-103890000D01*
X166582572Y-103818571D01*
X166296858Y-103818571D01*
X166154001Y-103890000D01*
X166796858Y-104747143D02*
X166654001Y-104818571D01*
X166296858Y-104818571D01*
X166154001Y-104747143D01*
X166082572Y-104604286D01*
X166082572Y-104461429D01*
X166154001Y-104318571D01*
X166296858Y-104247143D01*
X166654001Y-104247143D01*
X166796858Y-104175714D01*
X167511144Y-104818571D02*
X167511144Y-103818571D01*
X167511144Y-104104286D02*
X167582572Y-103961429D01*
X167654001Y-103890000D01*
X167796858Y-103818571D01*
X167939715Y-103818571D01*
X169082572Y-104818571D02*
X169082572Y-103318571D01*
X169082572Y-104747143D02*
X168939715Y-104818571D01*
X168654001Y-104818571D01*
X168511143Y-104747143D01*
X168439715Y-104675714D01*
X168368286Y-104532857D01*
X168368286Y-104104286D01*
X168439715Y-103961429D01*
X168511143Y-103890000D01*
X168654001Y-103818571D01*
X168939715Y-103818571D01*
X169082572Y-103890000D01*
X138874572Y-83165143D02*
X140017429Y-83165143D01*
X143954572Y-83165143D02*
X145097429Y-83165143D01*
X144526000Y-83736571D02*
X144526000Y-82593714D01*
D11*
X134603964Y-92138499D02*
X134658393Y-92192928D01*
X134712821Y-92356214D01*
X134712821Y-92465071D01*
X134658393Y-92628356D01*
X134549536Y-92737214D01*
X134440679Y-92791642D01*
X134222964Y-92846071D01*
X134059679Y-92846071D01*
X133841964Y-92791642D01*
X133733107Y-92737214D01*
X133624250Y-92628356D01*
X133569821Y-92465071D01*
X133569821Y-92356214D01*
X133624250Y-92192928D01*
X133678679Y-92138499D01*
X134712821Y-91485356D02*
X134658393Y-91594214D01*
X134603964Y-91648642D01*
X134495107Y-91703071D01*
X134168536Y-91703071D01*
X134059679Y-91648642D01*
X134005250Y-91594214D01*
X133950821Y-91485356D01*
X133950821Y-91322071D01*
X134005250Y-91213214D01*
X134059679Y-91158785D01*
X134168536Y-91104356D01*
X134495107Y-91104356D01*
X134603964Y-91158785D01*
X134658393Y-91213214D01*
X134712821Y-91322071D01*
X134712821Y-91485356D01*
X133950821Y-90723356D02*
X134712821Y-90451213D01*
X133950821Y-90179071D01*
X134658393Y-89308214D02*
X134712821Y-89417071D01*
X134712821Y-89634785D01*
X134658393Y-89743642D01*
X134549536Y-89798071D01*
X134114107Y-89798071D01*
X134005250Y-89743642D01*
X133950821Y-89634785D01*
X133950821Y-89417071D01*
X134005250Y-89308214D01*
X134114107Y-89253785D01*
X134222964Y-89253785D01*
X134331821Y-89798071D01*
X134712821Y-88763928D02*
X133950821Y-88763928D01*
X134168536Y-88763928D02*
X134059679Y-88709500D01*
X134005250Y-88655071D01*
X133950821Y-88546214D01*
X133950821Y-88437357D01*
X134712821Y-87185500D02*
X133950821Y-87185500D01*
X133569821Y-87185500D02*
X133624250Y-87239929D01*
X133678679Y-87185500D01*
X133624250Y-87131072D01*
X133569821Y-87185500D01*
X133678679Y-87185500D01*
X133950821Y-86804500D02*
X133950821Y-86369071D01*
X134712821Y-86641214D02*
X133733107Y-86641214D01*
X133624250Y-86586786D01*
X133569821Y-86477928D01*
X133569821Y-86369071D01*
X135815321Y-91920786D02*
X136577321Y-91920786D01*
X135815321Y-92410643D02*
X136414036Y-92410643D01*
X136522893Y-92356215D01*
X136577321Y-92247357D01*
X136577321Y-92084072D01*
X136522893Y-91975215D01*
X136468464Y-91920786D01*
X135815321Y-91376500D02*
X136577321Y-91376500D01*
X135924179Y-91376500D02*
X135869750Y-91322072D01*
X135815321Y-91213214D01*
X135815321Y-91049929D01*
X135869750Y-90941072D01*
X135978607Y-90886643D01*
X136577321Y-90886643D01*
X135815321Y-89852500D02*
X136577321Y-89852500D01*
X135815321Y-90342357D02*
X136414036Y-90342357D01*
X136522893Y-90287929D01*
X136577321Y-90179071D01*
X136577321Y-90015786D01*
X136522893Y-89906929D01*
X136468464Y-89852500D01*
X136522893Y-89362643D02*
X136577321Y-89253786D01*
X136577321Y-89036071D01*
X136522893Y-88927214D01*
X136414036Y-88872786D01*
X136359607Y-88872786D01*
X136250750Y-88927214D01*
X136196321Y-89036071D01*
X136196321Y-89199357D01*
X136141893Y-89308214D01*
X136033036Y-89362643D01*
X135978607Y-89362643D01*
X135869750Y-89308214D01*
X135815321Y-89199357D01*
X135815321Y-89036071D01*
X135869750Y-88927214D01*
X136522893Y-87947500D02*
X136577321Y-88056357D01*
X136577321Y-88274071D01*
X136522893Y-88382928D01*
X136414036Y-88437357D01*
X135978607Y-88437357D01*
X135869750Y-88382928D01*
X135815321Y-88274071D01*
X135815321Y-88056357D01*
X135869750Y-87947500D01*
X135978607Y-87893071D01*
X136087464Y-87893071D01*
X136196321Y-88437357D01*
X136577321Y-86913357D02*
X135434321Y-86913357D01*
X136522893Y-86913357D02*
X136577321Y-87022214D01*
X136577321Y-87239928D01*
X136522893Y-87348786D01*
X136468464Y-87403214D01*
X136359607Y-87457643D01*
X136033036Y-87457643D01*
X135924179Y-87403214D01*
X135869750Y-87348786D01*
X135815321Y-87239928D01*
X135815321Y-87022214D01*
X135869750Y-86913357D01*
D14*
X148407429Y-95011905D02*
X148407429Y-94250000D01*
X148788381Y-94630952D02*
X148026476Y-94630952D01*
X147788381Y-93297619D02*
X147788381Y-93773810D01*
X148264571Y-93821429D01*
X148216952Y-93773810D01*
X148169333Y-93678572D01*
X148169333Y-93440476D01*
X148216952Y-93345238D01*
X148264571Y-93297619D01*
X148359810Y-93250000D01*
X148597905Y-93250000D01*
X148693143Y-93297619D01*
X148740762Y-93345238D01*
X148788381Y-93440476D01*
X148788381Y-93678572D01*
X148740762Y-93773810D01*
X148693143Y-93821429D01*
X147788381Y-92964286D02*
X148788381Y-92630953D01*
X147788381Y-92297619D01*
X148216952Y-91202381D02*
X148216952Y-90440476D01*
X148597905Y-90821428D02*
X147836000Y-90821428D01*
X148788381Y-90440476D02*
X148788381Y-91202381D01*
X147788381Y-89488095D02*
X147788381Y-89964286D01*
X148264571Y-90011905D01*
X148216952Y-89964286D01*
X148169333Y-89869048D01*
X148169333Y-89630952D01*
X148216952Y-89535714D01*
X148264571Y-89488095D01*
X148359810Y-89440476D01*
X148597905Y-89440476D01*
X148693143Y-89488095D01*
X148740762Y-89535714D01*
X148788381Y-89630952D01*
X148788381Y-89869048D01*
X148740762Y-89964286D01*
X148693143Y-90011905D01*
X148788381Y-89059524D02*
X147788381Y-88297619D01*
X147788381Y-88916667D02*
X147836000Y-88821429D01*
X147931238Y-88773810D01*
X148026476Y-88821429D01*
X148074095Y-88916667D01*
X148026476Y-89011905D01*
X147931238Y-89059524D01*
X147836000Y-89011905D01*
X147788381Y-88916667D01*
X148740762Y-88345238D02*
X148645524Y-88297619D01*
X148550286Y-88345238D01*
X148502667Y-88440476D01*
X148550286Y-88535714D01*
X148645524Y-88583333D01*
X148740762Y-88535714D01*
X148788381Y-88440476D01*
X148740762Y-88345238D01*
X147788381Y-86916667D02*
X147788381Y-86726190D01*
X147836000Y-86630952D01*
X147931238Y-86535714D01*
X148121714Y-86488095D01*
X148455048Y-86488095D01*
X148645524Y-86535714D01*
X148740762Y-86630952D01*
X148788381Y-86726190D01*
X148788381Y-86916667D01*
X148740762Y-87011905D01*
X148645524Y-87107143D01*
X148455048Y-87154762D01*
X148121714Y-87154762D01*
X147931238Y-87107143D01*
X147836000Y-87011905D01*
X147788381Y-86916667D01*
X148121714Y-86059524D02*
X148788381Y-86059524D01*
X148216952Y-86059524D02*
X148169333Y-86011905D01*
X148121714Y-85916667D01*
X148121714Y-85773809D01*
X148169333Y-85678571D01*
X148264571Y-85630952D01*
X148788381Y-85630952D01*
X148788381Y-85011905D02*
X148740762Y-85107143D01*
X148645524Y-85154762D01*
X147788381Y-85154762D01*
X148121714Y-84726190D02*
X148788381Y-84488095D01*
X148121714Y-84249999D02*
X148788381Y-84488095D01*
X149026476Y-84583333D01*
X149074095Y-84630952D01*
X149121714Y-84726190D01*
D11*
X160003964Y-91884499D02*
X160058393Y-91938928D01*
X160112821Y-92102214D01*
X160112821Y-92211071D01*
X160058393Y-92374356D01*
X159949536Y-92483214D01*
X159840679Y-92537642D01*
X159622964Y-92592071D01*
X159459679Y-92592071D01*
X159241964Y-92537642D01*
X159133107Y-92483214D01*
X159024250Y-92374356D01*
X158969821Y-92211071D01*
X158969821Y-92102214D01*
X159024250Y-91938928D01*
X159078679Y-91884499D01*
X160112821Y-91231356D02*
X160058393Y-91340214D01*
X160003964Y-91394642D01*
X159895107Y-91449071D01*
X159568536Y-91449071D01*
X159459679Y-91394642D01*
X159405250Y-91340214D01*
X159350821Y-91231356D01*
X159350821Y-91068071D01*
X159405250Y-90959214D01*
X159459679Y-90904785D01*
X159568536Y-90850356D01*
X159895107Y-90850356D01*
X160003964Y-90904785D01*
X160058393Y-90959214D01*
X160112821Y-91068071D01*
X160112821Y-91231356D01*
X159350821Y-90469356D02*
X160112821Y-90197213D01*
X159350821Y-89925071D01*
X160058393Y-89054214D02*
X160112821Y-89163071D01*
X160112821Y-89380785D01*
X160058393Y-89489642D01*
X159949536Y-89544071D01*
X159514107Y-89544071D01*
X159405250Y-89489642D01*
X159350821Y-89380785D01*
X159350821Y-89163071D01*
X159405250Y-89054214D01*
X159514107Y-88999785D01*
X159622964Y-88999785D01*
X159731821Y-89544071D01*
X160112821Y-88509928D02*
X159350821Y-88509928D01*
X159568536Y-88509928D02*
X159459679Y-88455500D01*
X159405250Y-88401071D01*
X159350821Y-88292214D01*
X159350821Y-88183357D01*
X160112821Y-86931500D02*
X159350821Y-86931500D01*
X158969821Y-86931500D02*
X159024250Y-86985929D01*
X159078679Y-86931500D01*
X159024250Y-86877072D01*
X158969821Y-86931500D01*
X159078679Y-86931500D01*
X159350821Y-86550500D02*
X159350821Y-86115071D01*
X160112821Y-86387214D02*
X159133107Y-86387214D01*
X159024250Y-86332786D01*
X158969821Y-86223928D01*
X158969821Y-86115071D01*
X161215321Y-91666786D02*
X161977321Y-91666786D01*
X161215321Y-92156643D02*
X161814036Y-92156643D01*
X161922893Y-92102215D01*
X161977321Y-91993357D01*
X161977321Y-91830072D01*
X161922893Y-91721215D01*
X161868464Y-91666786D01*
X161215321Y-91122500D02*
X161977321Y-91122500D01*
X161324179Y-91122500D02*
X161269750Y-91068072D01*
X161215321Y-90959214D01*
X161215321Y-90795929D01*
X161269750Y-90687072D01*
X161378607Y-90632643D01*
X161977321Y-90632643D01*
X161215321Y-89598500D02*
X161977321Y-89598500D01*
X161215321Y-90088357D02*
X161814036Y-90088357D01*
X161922893Y-90033929D01*
X161977321Y-89925071D01*
X161977321Y-89761786D01*
X161922893Y-89652929D01*
X161868464Y-89598500D01*
X161922893Y-89108643D02*
X161977321Y-88999786D01*
X161977321Y-88782071D01*
X161922893Y-88673214D01*
X161814036Y-88618786D01*
X161759607Y-88618786D01*
X161650750Y-88673214D01*
X161596321Y-88782071D01*
X161596321Y-88945357D01*
X161541893Y-89054214D01*
X161433036Y-89108643D01*
X161378607Y-89108643D01*
X161269750Y-89054214D01*
X161215321Y-88945357D01*
X161215321Y-88782071D01*
X161269750Y-88673214D01*
X161922893Y-87693500D02*
X161977321Y-87802357D01*
X161977321Y-88020071D01*
X161922893Y-88128928D01*
X161814036Y-88183357D01*
X161378607Y-88183357D01*
X161269750Y-88128928D01*
X161215321Y-88020071D01*
X161215321Y-87802357D01*
X161269750Y-87693500D01*
X161378607Y-87639071D01*
X161487464Y-87639071D01*
X161596321Y-88183357D01*
X161977321Y-86659357D02*
X160834321Y-86659357D01*
X161922893Y-86659357D02*
X161977321Y-86768214D01*
X161977321Y-86985928D01*
X161922893Y-87094786D01*
X161868464Y-87149214D01*
X161759607Y-87203643D01*
X161433036Y-87203643D01*
X161324179Y-87149214D01*
X161269750Y-87094786D01*
X161215321Y-86985928D01*
X161215321Y-86768214D01*
X161269750Y-86659357D01*
D13*
X134302572Y-94341143D02*
X135445429Y-94341143D01*
X134302572Y-84689143D02*
X135445429Y-84689143D01*
X134874000Y-85260571D02*
X134874000Y-84117714D01*
X159956572Y-94341143D02*
X161099429Y-94341143D01*
X159956572Y-84689143D02*
X161099429Y-84689143D01*
X160528000Y-85260571D02*
X160528000Y-84117714D01*
D15*
X142916000Y-109590000D02*
X142916000Y-111390000D01*
X146136000Y-111390000D02*
X146136000Y-108440000D01*
X150329000Y-110990000D02*
X150329000Y-109990000D01*
X148629000Y-109990000D02*
X148629000Y-110990000D01*
X170268000Y-110990000D02*
X170268000Y-109990000D01*
X168568000Y-109990000D02*
X168568000Y-110990000D01*
X148582000Y-113196000D02*
X147582000Y-113196000D01*
X147582000Y-114896000D02*
X148582000Y-114896000D01*
X168521000Y-113196000D02*
X167521000Y-113196000D01*
X167521000Y-114896000D02*
X168521000Y-114896000D01*
X139698000Y-108206000D02*
X137518000Y-108206000D01*
X133098000Y-108206000D02*
X135278000Y-108206000D01*
X138938000Y-114806000D02*
X137518000Y-114806000D01*
X133858000Y-114806000D02*
X135278000Y-114806000D01*
X139698000Y-108206000D02*
X139698000Y-114046000D01*
X139698000Y-114046000D02*
X138938000Y-114806000D01*
X133858000Y-114806000D02*
X133098000Y-114046000D01*
X133098000Y-114046000D02*
X133098000Y-108206000D01*
X159637000Y-108206000D02*
X157457000Y-108206000D01*
X153037000Y-108206000D02*
X155217000Y-108206000D01*
X158877000Y-114806000D02*
X157457000Y-114806000D01*
X153797000Y-114806000D02*
X155217000Y-114806000D01*
X159637000Y-108206000D02*
X159637000Y-114046000D01*
X159637000Y-114046000D02*
X158877000Y-114806000D01*
X153797000Y-114806000D02*
X153037000Y-114046000D01*
X153037000Y-114046000D02*
X153037000Y-108206000D01*
X150811000Y-126387000D02*
X152211000Y-126387000D01*
X152211000Y-126387000D02*
X152211000Y-123587000D01*
X150811000Y-126387000D02*
X150811000Y-123587000D01*
X170750000Y-126387000D02*
X172150000Y-126387000D01*
X172150000Y-126387000D02*
X172150000Y-123587000D01*
X170750000Y-126387000D02*
X170750000Y-123587000D01*
X150811000Y-130451000D02*
X152211000Y-130451000D01*
X152211000Y-130451000D02*
X152211000Y-127651000D01*
X150811000Y-130451000D02*
X150811000Y-127651000D01*
X170750000Y-130451000D02*
X172150000Y-130451000D01*
X172150000Y-130451000D02*
X172150000Y-127651000D01*
X170750000Y-130451000D02*
X170750000Y-127651000D01*
X149353000Y-116716000D02*
X149353000Y-119046000D01*
X134363000Y-116716000D02*
X134363000Y-118836000D01*
X149353000Y-116716000D02*
X134363000Y-116716000D01*
X149353000Y-130806000D02*
X134363000Y-130806000D01*
X149353000Y-122006000D02*
X149353000Y-130806000D01*
X134363000Y-122206000D02*
X134363000Y-130806000D01*
X169292000Y-116716000D02*
X169292000Y-119046000D01*
X154302000Y-116716000D02*
X154302000Y-118836000D01*
X169292000Y-116716000D02*
X154302000Y-116716000D01*
X169292000Y-130806000D02*
X154302000Y-130806000D01*
X169292000Y-122006000D02*
X169292000Y-130806000D01*
X154302000Y-122206000D02*
X154302000Y-130806000D01*
X150631000Y-115916000D02*
X150631000Y-114716000D01*
X152391000Y-114716000D02*
X152391000Y-115916000D01*
X170570000Y-115916000D02*
X170570000Y-114716000D01*
X172330000Y-114716000D02*
X172330000Y-115916000D01*
X150631000Y-111090000D02*
X150631000Y-109890000D01*
X152391000Y-109890000D02*
X152391000Y-111090000D01*
X170570000Y-111090000D02*
X170570000Y-109890000D01*
X172330000Y-109890000D02*
X172330000Y-111090000D01*
X140725000Y-111090000D02*
X140725000Y-109890000D01*
X142485000Y-109890000D02*
X142485000Y-111090000D01*
X160664000Y-111090000D02*
X160664000Y-109890000D01*
X162424000Y-109890000D02*
X162424000Y-111090000D01*
X146567000Y-111090000D02*
X146567000Y-109890000D01*
X148327000Y-109890000D02*
X148327000Y-111090000D01*
X166506000Y-111090000D02*
X166506000Y-109890000D01*
X168266000Y-109890000D02*
X168266000Y-111090000D01*
X142529000Y-113166000D02*
X143729000Y-113166000D01*
X143729000Y-114926000D02*
X142529000Y-114926000D01*
X162468000Y-113166000D02*
X163668000Y-113166000D01*
X163668000Y-114926000D02*
X162468000Y-114926000D01*
X150631000Y-120742000D02*
X150631000Y-119542000D01*
X152391000Y-119542000D02*
X152391000Y-120742000D01*
X170570000Y-120742000D02*
X170570000Y-119542000D01*
X172330000Y-119542000D02*
X172330000Y-120742000D01*
X162855000Y-109590000D02*
X162855000Y-111390000D01*
X166075000Y-111390000D02*
X166075000Y-108440000D01*
D11*
X142127600Y-85409600D02*
X142127600Y-84909600D01*
X141627600Y-89409600D02*
G75*
G03X141627600Y-89409600I-2000000J0D01*
G01*
X146627600Y-89409600D02*
G75*
G03X146627600Y-89409600I-2000000J0D01*
G01*
X147127600Y-86909600D02*
X137127600Y-86909600D01*
X147127600Y-91809600D02*
X137127600Y-91809600D01*
X147127600Y-85409600D02*
X137127600Y-85409600D01*
X147127600Y-84909600D02*
X137127600Y-84909600D01*
X137127600Y-84909600D02*
X137127600Y-94709600D01*
X137127600Y-94709600D02*
X147127600Y-94709600D01*
X147127600Y-94709600D02*
X147127600Y-84909600D01*
X134032667Y-81494381D02*
X134032667Y-82208667D01*
X133985047Y-82351524D01*
X133889809Y-82446762D01*
X133746952Y-82494381D01*
X133651714Y-82494381D01*
X134937429Y-81827714D02*
X134937429Y-82494381D01*
X134699333Y-81446762D02*
X134461238Y-82161048D01*
X135080286Y-82161048D01*
X160956667Y-81494381D02*
X160956667Y-82208667D01*
X160909047Y-82351524D01*
X160813809Y-82446762D01*
X160670952Y-82494381D01*
X160575714Y-82494381D01*
X161909048Y-81494381D02*
X161432857Y-81494381D01*
X161385238Y-81970571D01*
X161432857Y-81922952D01*
X161528095Y-81875333D01*
X161766191Y-81875333D01*
X161861429Y-81922952D01*
X161909048Y-81970571D01*
X161956667Y-82065810D01*
X161956667Y-82303905D01*
X161909048Y-82399143D01*
X161861429Y-82446762D01*
X161766191Y-82494381D01*
X161528095Y-82494381D01*
X161432857Y-82446762D01*
X161385238Y-82399143D01*
X143978381Y-107695905D02*
X144787905Y-107695905D01*
X144883143Y-107648286D01*
X144930762Y-107600667D01*
X144978381Y-107505429D01*
X144978381Y-107314952D01*
X144930762Y-107219714D01*
X144883143Y-107172095D01*
X144787905Y-107124476D01*
X143978381Y-107124476D01*
X144978381Y-106124476D02*
X144978381Y-106695905D01*
X144978381Y-106410191D02*
X143978381Y-106410191D01*
X144121238Y-106505429D01*
X144216476Y-106600667D01*
X144264095Y-106695905D01*
X149836143Y-107100666D02*
X149883762Y-107148285D01*
X149931381Y-107291142D01*
X149931381Y-107386380D01*
X149883762Y-107529238D01*
X149788524Y-107624476D01*
X149693286Y-107672095D01*
X149502810Y-107719714D01*
X149359952Y-107719714D01*
X149169476Y-107672095D01*
X149074238Y-107624476D01*
X148979000Y-107529238D01*
X148931381Y-107386380D01*
X148931381Y-107291142D01*
X148979000Y-107148285D01*
X149026619Y-107100666D01*
X149026619Y-106719714D02*
X148979000Y-106672095D01*
X148931381Y-106576857D01*
X148931381Y-106338761D01*
X148979000Y-106243523D01*
X149026619Y-106195904D01*
X149121857Y-106148285D01*
X149217095Y-106148285D01*
X149359952Y-106195904D01*
X149931381Y-106767333D01*
X149931381Y-106148285D01*
X169775143Y-107100666D02*
X169822762Y-107148285D01*
X169870381Y-107291142D01*
X169870381Y-107386380D01*
X169822762Y-107529238D01*
X169727524Y-107624476D01*
X169632286Y-107672095D01*
X169441810Y-107719714D01*
X169298952Y-107719714D01*
X169108476Y-107672095D01*
X169013238Y-107624476D01*
X168918000Y-107529238D01*
X168870381Y-107386380D01*
X168870381Y-107291142D01*
X168918000Y-107148285D01*
X168965619Y-107100666D01*
X168870381Y-106767333D02*
X168870381Y-106148285D01*
X169251333Y-106481619D01*
X169251333Y-106338761D01*
X169298952Y-106243523D01*
X169346571Y-106195904D01*
X169441810Y-106148285D01*
X169679905Y-106148285D01*
X169775143Y-106195904D01*
X169822762Y-106243523D01*
X169870381Y-106338761D01*
X169870381Y-106624476D01*
X169822762Y-106719714D01*
X169775143Y-106767333D01*
X147915334Y-116181143D02*
X147867715Y-116228762D01*
X147724858Y-116276381D01*
X147629620Y-116276381D01*
X147486762Y-116228762D01*
X147391524Y-116133524D01*
X147343905Y-116038286D01*
X147296286Y-115847810D01*
X147296286Y-115704952D01*
X147343905Y-115514476D01*
X147391524Y-115419238D01*
X147486762Y-115324000D01*
X147629620Y-115276381D01*
X147724858Y-115276381D01*
X147867715Y-115324000D01*
X147915334Y-115371619D01*
X148772477Y-115609714D02*
X148772477Y-116276381D01*
X148534381Y-115228762D02*
X148296286Y-115943048D01*
X148915334Y-115943048D01*
X167854334Y-116181143D02*
X167806715Y-116228762D01*
X167663858Y-116276381D01*
X167568620Y-116276381D01*
X167425762Y-116228762D01*
X167330524Y-116133524D01*
X167282905Y-116038286D01*
X167235286Y-115847810D01*
X167235286Y-115704952D01*
X167282905Y-115514476D01*
X167330524Y-115419238D01*
X167425762Y-115324000D01*
X167568620Y-115276381D01*
X167663858Y-115276381D01*
X167806715Y-115324000D01*
X167854334Y-115371619D01*
X168759096Y-115276381D02*
X168282905Y-115276381D01*
X168235286Y-115752571D01*
X168282905Y-115704952D01*
X168378143Y-115657333D01*
X168616239Y-115657333D01*
X168711477Y-115704952D01*
X168759096Y-115752571D01*
X168806715Y-115847810D01*
X168806715Y-116085905D01*
X168759096Y-116181143D01*
X168711477Y-116228762D01*
X168616239Y-116276381D01*
X168378143Y-116276381D01*
X168282905Y-116228762D01*
X168235286Y-116181143D01*
X138771334Y-107545143D02*
X138723715Y-107592762D01*
X138580858Y-107640381D01*
X138485620Y-107640381D01*
X138342762Y-107592762D01*
X138247524Y-107497524D01*
X138199905Y-107402286D01*
X138152286Y-107211810D01*
X138152286Y-107068952D01*
X138199905Y-106878476D01*
X138247524Y-106783238D01*
X138342762Y-106688000D01*
X138485620Y-106640381D01*
X138580858Y-106640381D01*
X138723715Y-106688000D01*
X138771334Y-106735619D01*
X139628477Y-106640381D02*
X139438000Y-106640381D01*
X139342762Y-106688000D01*
X139295143Y-106735619D01*
X139199905Y-106878476D01*
X139152286Y-107068952D01*
X139152286Y-107449905D01*
X139199905Y-107545143D01*
X139247524Y-107592762D01*
X139342762Y-107640381D01*
X139533239Y-107640381D01*
X139628477Y-107592762D01*
X139676096Y-107545143D01*
X139723715Y-107449905D01*
X139723715Y-107211810D01*
X139676096Y-107116571D01*
X139628477Y-107068952D01*
X139533239Y-107021333D01*
X139342762Y-107021333D01*
X139247524Y-107068952D01*
X139199905Y-107116571D01*
X139152286Y-107211810D01*
X139479429Y-116166952D02*
X139479429Y-115405047D01*
X139860381Y-115785999D02*
X139098476Y-115785999D01*
X158583334Y-107545143D02*
X158535715Y-107592762D01*
X158392858Y-107640381D01*
X158297620Y-107640381D01*
X158154762Y-107592762D01*
X158059524Y-107497524D01*
X158011905Y-107402286D01*
X157964286Y-107211810D01*
X157964286Y-107068952D01*
X158011905Y-106878476D01*
X158059524Y-106783238D01*
X158154762Y-106688000D01*
X158297620Y-106640381D01*
X158392858Y-106640381D01*
X158535715Y-106688000D01*
X158583334Y-106735619D01*
X158916667Y-106640381D02*
X159583334Y-106640381D01*
X159154762Y-107640381D01*
X159418429Y-116166952D02*
X159418429Y-115405047D01*
X159799381Y-115785999D02*
X159037476Y-115785999D01*
X150513381Y-127230095D02*
X149513381Y-127230095D01*
X149513381Y-126992000D01*
X149561000Y-126849142D01*
X149656238Y-126753904D01*
X149751476Y-126706285D01*
X149941952Y-126658666D01*
X150084810Y-126658666D01*
X150275286Y-126706285D01*
X150370524Y-126753904D01*
X150465762Y-126849142D01*
X150513381Y-126992000D01*
X150513381Y-127230095D01*
X150513381Y-125706285D02*
X150513381Y-126277714D01*
X150513381Y-125992000D02*
X149513381Y-125992000D01*
X149656238Y-126087238D01*
X149751476Y-126182476D01*
X149799095Y-126277714D01*
X170452381Y-127230095D02*
X169452381Y-127230095D01*
X169452381Y-126992000D01*
X169500000Y-126849142D01*
X169595238Y-126753904D01*
X169690476Y-126706285D01*
X169880952Y-126658666D01*
X170023810Y-126658666D01*
X170214286Y-126706285D01*
X170309524Y-126753904D01*
X170404762Y-126849142D01*
X170452381Y-126992000D01*
X170452381Y-127230095D01*
X169547619Y-126277714D02*
X169500000Y-126230095D01*
X169452381Y-126134857D01*
X169452381Y-125896761D01*
X169500000Y-125801523D01*
X169547619Y-125753904D01*
X169642857Y-125706285D01*
X169738095Y-125706285D01*
X169880952Y-125753904D01*
X170452381Y-126325333D01*
X170452381Y-125706285D01*
X150513381Y-130278095D02*
X149513381Y-130278095D01*
X149513381Y-130040000D01*
X149561000Y-129897142D01*
X149656238Y-129801904D01*
X149751476Y-129754285D01*
X149941952Y-129706666D01*
X150084810Y-129706666D01*
X150275286Y-129754285D01*
X150370524Y-129801904D01*
X150465762Y-129897142D01*
X150513381Y-130040000D01*
X150513381Y-130278095D01*
X149513381Y-129373333D02*
X149513381Y-128754285D01*
X149894333Y-129087619D01*
X149894333Y-128944761D01*
X149941952Y-128849523D01*
X149989571Y-128801904D01*
X150084810Y-128754285D01*
X150322905Y-128754285D01*
X150418143Y-128801904D01*
X150465762Y-128849523D01*
X150513381Y-128944761D01*
X150513381Y-129230476D01*
X150465762Y-129325714D01*
X150418143Y-129373333D01*
X170452381Y-130278095D02*
X169452381Y-130278095D01*
X169452381Y-130040000D01*
X169500000Y-129897142D01*
X169595238Y-129801904D01*
X169690476Y-129754285D01*
X169880952Y-129706666D01*
X170023810Y-129706666D01*
X170214286Y-129754285D01*
X170309524Y-129801904D01*
X170404762Y-129897142D01*
X170452381Y-130040000D01*
X170452381Y-130278095D01*
X169785714Y-128849523D02*
X170452381Y-128849523D01*
X169404762Y-129087619D02*
X170119048Y-129325714D01*
X170119048Y-128706666D01*
X134032667Y-115276381D02*
X134032667Y-115990667D01*
X133985047Y-116133524D01*
X133889809Y-116228762D01*
X133746952Y-116276381D01*
X133651714Y-116276381D01*
X134461238Y-115371619D02*
X134508857Y-115324000D01*
X134604095Y-115276381D01*
X134842191Y-115276381D01*
X134937429Y-115324000D01*
X134985048Y-115371619D01*
X135032667Y-115466857D01*
X135032667Y-115562095D01*
X134985048Y-115704952D01*
X134413619Y-116276381D01*
X135032667Y-116276381D01*
X153590667Y-115276381D02*
X153590667Y-115990667D01*
X153543047Y-116133524D01*
X153447809Y-116228762D01*
X153304952Y-116276381D01*
X153209714Y-116276381D01*
X153971619Y-115276381D02*
X154590667Y-115276381D01*
X154257333Y-115657333D01*
X154400191Y-115657333D01*
X154495429Y-115704952D01*
X154543048Y-115752571D01*
X154590667Y-115847810D01*
X154590667Y-116085905D01*
X154543048Y-116181143D01*
X154495429Y-116228762D01*
X154400191Y-116276381D01*
X154114476Y-116276381D01*
X154019238Y-116228762D01*
X153971619Y-116181143D01*
X150566381Y-118022666D02*
X150090190Y-118356000D01*
X150566381Y-118594095D02*
X149566381Y-118594095D01*
X149566381Y-118213142D01*
X149614000Y-118117904D01*
X149661619Y-118070285D01*
X149756857Y-118022666D01*
X149899714Y-118022666D01*
X149994952Y-118070285D01*
X150042571Y-118117904D01*
X150090190Y-118213142D01*
X150090190Y-118594095D01*
X150566381Y-117070285D02*
X150566381Y-117641714D01*
X150566381Y-117356000D02*
X149566381Y-117356000D01*
X149709238Y-117451238D01*
X149804476Y-117546476D01*
X149852095Y-117641714D01*
X170378381Y-118022666D02*
X169902190Y-118356000D01*
X170378381Y-118594095D02*
X169378381Y-118594095D01*
X169378381Y-118213142D01*
X169426000Y-118117904D01*
X169473619Y-118070285D01*
X169568857Y-118022666D01*
X169711714Y-118022666D01*
X169806952Y-118070285D01*
X169854571Y-118117904D01*
X169902190Y-118213142D01*
X169902190Y-118594095D01*
X169473619Y-117641714D02*
X169426000Y-117594095D01*
X169378381Y-117498857D01*
X169378381Y-117260761D01*
X169426000Y-117165523D01*
X169473619Y-117117904D01*
X169568857Y-117070285D01*
X169664095Y-117070285D01*
X169806952Y-117117904D01*
X170378381Y-117689333D01*
X170378381Y-117070285D01*
X151963381Y-107100666D02*
X151487190Y-107434000D01*
X151963381Y-107672095D02*
X150963381Y-107672095D01*
X150963381Y-107291142D01*
X151011000Y-107195904D01*
X151058619Y-107148285D01*
X151153857Y-107100666D01*
X151296714Y-107100666D01*
X151391952Y-107148285D01*
X151439571Y-107195904D01*
X151487190Y-107291142D01*
X151487190Y-107672095D01*
X150963381Y-106767333D02*
X150963381Y-106148285D01*
X151344333Y-106481619D01*
X151344333Y-106338761D01*
X151391952Y-106243523D01*
X151439571Y-106195904D01*
X151534810Y-106148285D01*
X151772905Y-106148285D01*
X151868143Y-106195904D01*
X151915762Y-106243523D01*
X151963381Y-106338761D01*
X151963381Y-106624476D01*
X151915762Y-106719714D01*
X151868143Y-106767333D01*
X171902381Y-107100666D02*
X171426190Y-107434000D01*
X171902381Y-107672095D02*
X170902381Y-107672095D01*
X170902381Y-107291142D01*
X170950000Y-107195904D01*
X170997619Y-107148285D01*
X171092857Y-107100666D01*
X171235714Y-107100666D01*
X171330952Y-107148285D01*
X171378571Y-107195904D01*
X171426190Y-107291142D01*
X171426190Y-107672095D01*
X171235714Y-106243523D02*
X171902381Y-106243523D01*
X170854762Y-106481619D02*
X171569048Y-106719714D01*
X171569048Y-106100666D01*
X142057381Y-107100666D02*
X141581190Y-107434000D01*
X142057381Y-107672095D02*
X141057381Y-107672095D01*
X141057381Y-107291142D01*
X141105000Y-107195904D01*
X141152619Y-107148285D01*
X141247857Y-107100666D01*
X141390714Y-107100666D01*
X141485952Y-107148285D01*
X141533571Y-107195904D01*
X141581190Y-107291142D01*
X141581190Y-107672095D01*
X141057381Y-106195904D02*
X141057381Y-106672095D01*
X141533571Y-106719714D01*
X141485952Y-106672095D01*
X141438333Y-106576857D01*
X141438333Y-106338761D01*
X141485952Y-106243523D01*
X141533571Y-106195904D01*
X141628810Y-106148285D01*
X141866905Y-106148285D01*
X141962143Y-106195904D01*
X142009762Y-106243523D01*
X142057381Y-106338761D01*
X142057381Y-106576857D01*
X142009762Y-106672095D01*
X141962143Y-106719714D01*
X161996381Y-107100666D02*
X161520190Y-107434000D01*
X161996381Y-107672095D02*
X160996381Y-107672095D01*
X160996381Y-107291142D01*
X161044000Y-107195904D01*
X161091619Y-107148285D01*
X161186857Y-107100666D01*
X161329714Y-107100666D01*
X161424952Y-107148285D01*
X161472571Y-107195904D01*
X161520190Y-107291142D01*
X161520190Y-107672095D01*
X160996381Y-106243523D02*
X160996381Y-106434000D01*
X161044000Y-106529238D01*
X161091619Y-106576857D01*
X161234476Y-106672095D01*
X161424952Y-106719714D01*
X161805905Y-106719714D01*
X161901143Y-106672095D01*
X161948762Y-106624476D01*
X161996381Y-106529238D01*
X161996381Y-106338761D01*
X161948762Y-106243523D01*
X161901143Y-106195904D01*
X161805905Y-106148285D01*
X161567810Y-106148285D01*
X161472571Y-106195904D01*
X161424952Y-106243523D01*
X161377333Y-106338761D01*
X161377333Y-106529238D01*
X161424952Y-106624476D01*
X161472571Y-106672095D01*
X161567810Y-106719714D01*
X147899381Y-107100666D02*
X147423190Y-107434000D01*
X147899381Y-107672095D02*
X146899381Y-107672095D01*
X146899381Y-107291142D01*
X146947000Y-107195904D01*
X146994619Y-107148285D01*
X147089857Y-107100666D01*
X147232714Y-107100666D01*
X147327952Y-107148285D01*
X147375571Y-107195904D01*
X147423190Y-107291142D01*
X147423190Y-107672095D01*
X146899381Y-106767333D02*
X146899381Y-106100666D01*
X147899381Y-106529238D01*
X167838381Y-107100666D02*
X167362190Y-107434000D01*
X167838381Y-107672095D02*
X166838381Y-107672095D01*
X166838381Y-107291142D01*
X166886000Y-107195904D01*
X166933619Y-107148285D01*
X167028857Y-107100666D01*
X167171714Y-107100666D01*
X167266952Y-107148285D01*
X167314571Y-107195904D01*
X167362190Y-107291142D01*
X167362190Y-107672095D01*
X167266952Y-106529238D02*
X167219333Y-106624476D01*
X167171714Y-106672095D01*
X167076476Y-106719714D01*
X167028857Y-106719714D01*
X166933619Y-106672095D01*
X166886000Y-106624476D01*
X166838381Y-106529238D01*
X166838381Y-106338761D01*
X166886000Y-106243523D01*
X166933619Y-106195904D01*
X167028857Y-106148285D01*
X167076476Y-106148285D01*
X167171714Y-106195904D01*
X167219333Y-106243523D01*
X167266952Y-106338761D01*
X167266952Y-106529238D01*
X167314571Y-106624476D01*
X167362190Y-106672095D01*
X167457429Y-106719714D01*
X167647905Y-106719714D01*
X167743143Y-106672095D01*
X167790762Y-106624476D01*
X167838381Y-106529238D01*
X167838381Y-106338761D01*
X167790762Y-106243523D01*
X167743143Y-106195904D01*
X167647905Y-106148285D01*
X167457429Y-106148285D01*
X167362190Y-106195904D01*
X167314571Y-106243523D01*
X167266952Y-106338761D01*
X142962334Y-116276381D02*
X142629000Y-115800190D01*
X142390905Y-116276381D02*
X142390905Y-115276381D01*
X142771858Y-115276381D01*
X142867096Y-115324000D01*
X142914715Y-115371619D01*
X142962334Y-115466857D01*
X142962334Y-115609714D01*
X142914715Y-115704952D01*
X142867096Y-115752571D01*
X142771858Y-115800190D01*
X142390905Y-115800190D01*
X143438524Y-116276381D02*
X143629000Y-116276381D01*
X143724239Y-116228762D01*
X143771858Y-116181143D01*
X143867096Y-116038286D01*
X143914715Y-115847810D01*
X143914715Y-115466857D01*
X143867096Y-115371619D01*
X143819477Y-115324000D01*
X143724239Y-115276381D01*
X143533762Y-115276381D01*
X143438524Y-115324000D01*
X143390905Y-115371619D01*
X143343286Y-115466857D01*
X143343286Y-115704952D01*
X143390905Y-115800190D01*
X143438524Y-115847810D01*
X143533762Y-115895429D01*
X143724239Y-115895429D01*
X143819477Y-115847810D01*
X143867096Y-115800190D01*
X143914715Y-115704952D01*
X162425143Y-116276381D02*
X162091809Y-115800190D01*
X161853714Y-116276381D02*
X161853714Y-115276381D01*
X162234667Y-115276381D01*
X162329905Y-115324000D01*
X162377524Y-115371619D01*
X162425143Y-115466857D01*
X162425143Y-115609714D01*
X162377524Y-115704952D01*
X162329905Y-115752571D01*
X162234667Y-115800190D01*
X161853714Y-115800190D01*
X163377524Y-116276381D02*
X162806095Y-116276381D01*
X163091809Y-116276381D02*
X163091809Y-115276381D01*
X162996571Y-115419238D01*
X162901333Y-115514476D01*
X162806095Y-115562095D01*
X163996571Y-115276381D02*
X164091810Y-115276381D01*
X164187048Y-115324000D01*
X164234667Y-115371619D01*
X164282286Y-115466857D01*
X164329905Y-115657333D01*
X164329905Y-115895429D01*
X164282286Y-116085905D01*
X164234667Y-116181143D01*
X164187048Y-116228762D01*
X164091810Y-116276381D01*
X163996571Y-116276381D01*
X163901333Y-116228762D01*
X163853714Y-116181143D01*
X163806095Y-116085905D01*
X163758476Y-115895429D01*
X163758476Y-115657333D01*
X163806095Y-115466857D01*
X163853714Y-115371619D01*
X163901333Y-115324000D01*
X163996571Y-115276381D01*
X150566381Y-123578857D02*
X150090190Y-123912191D01*
X150566381Y-124150286D02*
X149566381Y-124150286D01*
X149566381Y-123769333D01*
X149614000Y-123674095D01*
X149661619Y-123626476D01*
X149756857Y-123578857D01*
X149899714Y-123578857D01*
X149994952Y-123626476D01*
X150042571Y-123674095D01*
X150090190Y-123769333D01*
X150090190Y-124150286D01*
X150566381Y-122626476D02*
X150566381Y-123197905D01*
X150566381Y-122912191D02*
X149566381Y-122912191D01*
X149709238Y-123007429D01*
X149804476Y-123102667D01*
X149852095Y-123197905D01*
X150566381Y-121674095D02*
X150566381Y-122245524D01*
X150566381Y-121959810D02*
X149566381Y-121959810D01*
X149709238Y-122055048D01*
X149804476Y-122150286D01*
X149852095Y-122245524D01*
X170378381Y-123578857D02*
X169902190Y-123912191D01*
X170378381Y-124150286D02*
X169378381Y-124150286D01*
X169378381Y-123769333D01*
X169426000Y-123674095D01*
X169473619Y-123626476D01*
X169568857Y-123578857D01*
X169711714Y-123578857D01*
X169806952Y-123626476D01*
X169854571Y-123674095D01*
X169902190Y-123769333D01*
X169902190Y-124150286D01*
X170378381Y-122626476D02*
X170378381Y-123197905D01*
X170378381Y-122912191D02*
X169378381Y-122912191D01*
X169521238Y-123007429D01*
X169616476Y-123102667D01*
X169664095Y-123197905D01*
X169473619Y-122245524D02*
X169426000Y-122197905D01*
X169378381Y-122102667D01*
X169378381Y-121864571D01*
X169426000Y-121769333D01*
X169473619Y-121721714D01*
X169568857Y-121674095D01*
X169664095Y-121674095D01*
X169806952Y-121721714D01*
X170378381Y-122293143D01*
X170378381Y-121674095D01*
X163917381Y-107695905D02*
X164726905Y-107695905D01*
X164822143Y-107648286D01*
X164869762Y-107600667D01*
X164917381Y-107505429D01*
X164917381Y-107314952D01*
X164869762Y-107219714D01*
X164822143Y-107172095D01*
X164726905Y-107124476D01*
X163917381Y-107124476D01*
X164012619Y-106695905D02*
X163965000Y-106648286D01*
X163917381Y-106553048D01*
X163917381Y-106314952D01*
X163965000Y-106219714D01*
X164012619Y-106172095D01*
X164107857Y-106124476D01*
X164203095Y-106124476D01*
X164345952Y-106172095D01*
X164917381Y-106743524D01*
X164917381Y-106124476D01*
X141794267Y-83061981D02*
X141794267Y-83776267D01*
X141746647Y-83919124D01*
X141651409Y-84014362D01*
X141508552Y-84061981D01*
X141413314Y-84061981D01*
X142794267Y-84061981D02*
X142222838Y-84061981D01*
X142508552Y-84061981D02*
X142508552Y-83061981D01*
X142413314Y-83204838D01*
X142318076Y-83300076D01*
X142222838Y-83347695D01*
X138675219Y-96561981D02*
X138675219Y-95561981D01*
X139056172Y-95561981D01*
X139151410Y-95609600D01*
X139199029Y-95657219D01*
X139246648Y-95752457D01*
X139246648Y-95895314D01*
X139199029Y-95990552D01*
X139151410Y-96038171D01*
X139056172Y-96085790D01*
X138675219Y-96085790D01*
X139865695Y-95561981D02*
X140056172Y-95561981D01*
X140151410Y-95609600D01*
X140246648Y-95704838D01*
X140294267Y-95895314D01*
X140294267Y-96228648D01*
X140246648Y-96419124D01*
X140151410Y-96514362D01*
X140056172Y-96561981D01*
X139865695Y-96561981D01*
X139770457Y-96514362D01*
X139675219Y-96419124D01*
X139627600Y-96228648D01*
X139627600Y-95895314D01*
X139675219Y-95704838D01*
X139770457Y-95609600D01*
X139865695Y-95561981D01*
X140627600Y-95561981D02*
X140865695Y-96561981D01*
X141056172Y-95847695D01*
X141246648Y-96561981D01*
X141484743Y-95561981D01*
X141865695Y-96038171D02*
X142199029Y-96038171D01*
X142341886Y-96561981D02*
X141865695Y-96561981D01*
X141865695Y-95561981D01*
X142341886Y-95561981D01*
X143341886Y-96561981D02*
X143008552Y-96085790D01*
X142770457Y-96561981D02*
X142770457Y-95561981D01*
X143151410Y-95561981D01*
X143246648Y-95609600D01*
X143294267Y-95657219D01*
X143341886Y-95752457D01*
X143341886Y-95895314D01*
X143294267Y-95990552D01*
X143246648Y-96038171D01*
X143151410Y-96085790D01*
X142770457Y-96085790D01*
X144532362Y-96561981D02*
X144532362Y-95561981D01*
X145008552Y-96561981D02*
X145008552Y-95561981D01*
X145579981Y-96561981D01*
X145579981Y-95561981D01*
M02*
