M48
;DRILL file {KiCad 4.0.7-e2-6376~58~ubuntu16.04.1} date Mon Sep  4 19:43:25 2017
;FORMAT={-:-/ absolute / metric / decimal}
FMAT,2
METRIC,TZ
T1C0.762
T2C0.813
T3C1.000
T4C1.300
T5C2.300
T6C3.200
%
G90
G05
M71
T1
X139.954Y-125.476
X141.859Y-125.476
X143.764Y-125.476
X145.796Y-106.68
X149.331Y-116.202
X149.398Y-127.891
X159.893Y-125.476
X161.798Y-125.476
X163.703Y-125.476
X165.608Y-106.68
X169.966Y-124.74
T2
X132.131Y-84.684
X132.131Y-94.336
X165.473Y-84.709
X165.473Y-94.352
T3
X138.303Y-117.856
X140.843Y-117.856
X142.873Y-117.856
X145.413Y-117.856
X158.242Y-117.856
X160.782Y-117.856
X162.812Y-117.856
X165.352Y-117.856
T4
X139.628Y-89.51
X144.628Y-89.51
T5
X134.743Y-120.526
X148.463Y-120.526
X154.682Y-120.526
X168.402Y-120.526
T6
X151.638Y-100.838
T0
M30
