G04 #@! TF.FileFunction,Legend,Bot*
%FSLAX46Y46*%
G04 Gerber Fmt 4.6, Leading zero omitted, Abs format (unit mm)*
G04 Created by KiCad (PCBNEW 4.0.6-e0-6349~53~ubuntu16.04.1) date Thu Apr 27 18:13:27 2017*
%MOMM*%
%LPD*%
G01*
G04 APERTURE LIST*
%ADD10C,0.100000*%
%ADD11C,0.250000*%
%ADD12C,0.150000*%
%ADD13C,0.120000*%
%ADD14C,0.010000*%
G04 APERTURE END LIST*
D10*
D11*
X155209428Y-105915952D02*
X155030856Y-105975476D01*
X154733237Y-105975476D01*
X154614190Y-105915952D01*
X154554666Y-105856429D01*
X154495142Y-105737381D01*
X154495142Y-105618333D01*
X154554666Y-105499286D01*
X154614190Y-105439762D01*
X154733237Y-105380238D01*
X154971333Y-105320714D01*
X155090380Y-105261190D01*
X155149904Y-105201667D01*
X155209428Y-105082619D01*
X155209428Y-104963571D01*
X155149904Y-104844524D01*
X155090380Y-104785000D01*
X154971333Y-104725476D01*
X154673713Y-104725476D01*
X154495142Y-104785000D01*
X153959428Y-105975476D02*
X153959428Y-104725476D01*
X153483237Y-104725476D01*
X153364190Y-104785000D01*
X153304666Y-104844524D01*
X153245142Y-104963571D01*
X153245142Y-105142143D01*
X153304666Y-105261190D01*
X153364190Y-105320714D01*
X153483237Y-105380238D01*
X153959428Y-105380238D01*
X152709428Y-105975476D02*
X152709428Y-104725476D01*
X152292761Y-105618333D01*
X151876095Y-104725476D01*
X151876095Y-105975476D01*
X151280857Y-105975476D02*
X151280857Y-104725476D01*
X150983238Y-104725476D01*
X150804666Y-104785000D01*
X150685619Y-104904048D01*
X150626095Y-105023095D01*
X150566571Y-105261190D01*
X150566571Y-105439762D01*
X150626095Y-105677857D01*
X150685619Y-105796905D01*
X150804666Y-105915952D01*
X150983238Y-105975476D01*
X151280857Y-105975476D01*
X149614190Y-105320714D02*
X149435619Y-105380238D01*
X149376095Y-105439762D01*
X149316571Y-105558810D01*
X149316571Y-105737381D01*
X149376095Y-105856429D01*
X149435619Y-105915952D01*
X149554666Y-105975476D01*
X150030857Y-105975476D01*
X150030857Y-104725476D01*
X149614190Y-104725476D01*
X149495143Y-104785000D01*
X149435619Y-104844524D01*
X149376095Y-104963571D01*
X149376095Y-105082619D01*
X149435619Y-105201667D01*
X149495143Y-105261190D01*
X149614190Y-105320714D01*
X150030857Y-105320714D01*
X148066571Y-105856429D02*
X148126095Y-105915952D01*
X148304666Y-105975476D01*
X148423714Y-105975476D01*
X148602286Y-105915952D01*
X148721333Y-105796905D01*
X148780857Y-105677857D01*
X148840381Y-105439762D01*
X148840381Y-105261190D01*
X148780857Y-105023095D01*
X148721333Y-104904048D01*
X148602286Y-104785000D01*
X148423714Y-104725476D01*
X148304666Y-104725476D01*
X148126095Y-104785000D01*
X148066571Y-104844524D01*
X164550858Y-113020143D02*
X164598477Y-113067762D01*
X164741334Y-113115381D01*
X164836572Y-113115381D01*
X164979430Y-113067762D01*
X165074668Y-112972524D01*
X165122287Y-112877286D01*
X165169906Y-112686810D01*
X165169906Y-112543952D01*
X165122287Y-112353476D01*
X165074668Y-112258238D01*
X164979430Y-112163000D01*
X164836572Y-112115381D01*
X164741334Y-112115381D01*
X164598477Y-112163000D01*
X164550858Y-112210619D01*
X163979430Y-113115381D02*
X164074668Y-113067762D01*
X164122287Y-113020143D01*
X164169906Y-112924905D01*
X164169906Y-112639190D01*
X164122287Y-112543952D01*
X164074668Y-112496333D01*
X163979430Y-112448714D01*
X163836572Y-112448714D01*
X163741334Y-112496333D01*
X163693715Y-112543952D01*
X163646096Y-112639190D01*
X163646096Y-112924905D01*
X163693715Y-113020143D01*
X163741334Y-113067762D01*
X163836572Y-113115381D01*
X163979430Y-113115381D01*
X163217525Y-112448714D02*
X163217525Y-113448714D01*
X163217525Y-112496333D02*
X163122287Y-112448714D01*
X162931810Y-112448714D01*
X162836572Y-112496333D01*
X162788953Y-112543952D01*
X162741334Y-112639190D01*
X162741334Y-112924905D01*
X162788953Y-113020143D01*
X162836572Y-113067762D01*
X162931810Y-113115381D01*
X163122287Y-113115381D01*
X163217525Y-113067762D01*
X162408001Y-112448714D02*
X162169906Y-113115381D01*
X161931810Y-112448714D02*
X162169906Y-113115381D01*
X162265144Y-113353476D01*
X162312763Y-113401095D01*
X162408001Y-113448714D01*
X161550858Y-113115381D02*
X161550858Y-112448714D01*
X161550858Y-112639190D02*
X161503239Y-112543952D01*
X161455620Y-112496333D01*
X161360382Y-112448714D01*
X161265143Y-112448714D01*
X160931810Y-113115381D02*
X160931810Y-112448714D01*
X160931810Y-112115381D02*
X160979429Y-112163000D01*
X160931810Y-112210619D01*
X160884191Y-112163000D01*
X160931810Y-112115381D01*
X160931810Y-112210619D01*
X160027048Y-112448714D02*
X160027048Y-113258238D01*
X160074667Y-113353476D01*
X160122286Y-113401095D01*
X160217525Y-113448714D01*
X160360382Y-113448714D01*
X160455620Y-113401095D01*
X160027048Y-113067762D02*
X160122286Y-113115381D01*
X160312763Y-113115381D01*
X160408001Y-113067762D01*
X160455620Y-113020143D01*
X160503239Y-112924905D01*
X160503239Y-112639190D01*
X160455620Y-112543952D01*
X160408001Y-112496333D01*
X160312763Y-112448714D01*
X160122286Y-112448714D01*
X160027048Y-112496333D01*
X159550858Y-113115381D02*
X159550858Y-112115381D01*
X159122286Y-113115381D02*
X159122286Y-112591571D01*
X159169905Y-112496333D01*
X159265143Y-112448714D01*
X159408001Y-112448714D01*
X159503239Y-112496333D01*
X159550858Y-112543952D01*
X158788953Y-112448714D02*
X158408001Y-112448714D01*
X158646096Y-112115381D02*
X158646096Y-112972524D01*
X158598477Y-113067762D01*
X158503239Y-113115381D01*
X158408001Y-113115381D01*
X156503238Y-112353476D02*
X156598476Y-112305857D01*
X156788952Y-112305857D01*
X156884190Y-112353476D01*
X156979428Y-112448714D01*
X157027047Y-112543952D01*
X157027047Y-112734429D01*
X156979428Y-112829667D01*
X156884190Y-112924905D01*
X156788952Y-112972524D01*
X156598476Y-112972524D01*
X156503238Y-112924905D01*
X156693714Y-111972524D02*
X156931809Y-112020143D01*
X157169905Y-112163000D01*
X157312762Y-112401095D01*
X157360381Y-112639190D01*
X157312762Y-112877286D01*
X157169905Y-113115381D01*
X156931809Y-113258238D01*
X156693714Y-113305857D01*
X156455619Y-113258238D01*
X156217524Y-113115381D01*
X156074667Y-112877286D01*
X156027047Y-112639190D01*
X156074667Y-112401095D01*
X156217524Y-112163000D01*
X156455619Y-112020143D01*
X156693714Y-111972524D01*
X154884190Y-112210619D02*
X154836571Y-112163000D01*
X154741333Y-112115381D01*
X154503237Y-112115381D01*
X154407999Y-112163000D01*
X154360380Y-112210619D01*
X154312761Y-112305857D01*
X154312761Y-112401095D01*
X154360380Y-112543952D01*
X154931809Y-113115381D01*
X154312761Y-113115381D01*
X153693714Y-112115381D02*
X153598475Y-112115381D01*
X153503237Y-112163000D01*
X153455618Y-112210619D01*
X153407999Y-112305857D01*
X153360380Y-112496333D01*
X153360380Y-112734429D01*
X153407999Y-112924905D01*
X153455618Y-113020143D01*
X153503237Y-113067762D01*
X153598475Y-113115381D01*
X153693714Y-113115381D01*
X153788952Y-113067762D01*
X153836571Y-113020143D01*
X153884190Y-112924905D01*
X153931809Y-112734429D01*
X153931809Y-112496333D01*
X153884190Y-112305857D01*
X153836571Y-112210619D01*
X153788952Y-112163000D01*
X153693714Y-112115381D01*
X152407999Y-113115381D02*
X152979428Y-113115381D01*
X152693714Y-113115381D02*
X152693714Y-112115381D01*
X152788952Y-112258238D01*
X152884190Y-112353476D01*
X152979428Y-112401095D01*
X152074666Y-112115381D02*
X151407999Y-112115381D01*
X151836571Y-113115381D01*
X150265142Y-113115381D02*
X150265142Y-112115381D01*
X150169904Y-112734429D02*
X149884189Y-113115381D01*
X149884189Y-112448714D02*
X150265142Y-112829667D01*
X149550856Y-112448714D02*
X149360380Y-113115381D01*
X149169903Y-112639190D01*
X148979427Y-113115381D01*
X148788951Y-112448714D01*
X148027046Y-113067762D02*
X148122284Y-113115381D01*
X148312761Y-113115381D01*
X148407999Y-113067762D01*
X148455618Y-112972524D01*
X148455618Y-112591571D01*
X148407999Y-112496333D01*
X148312761Y-112448714D01*
X148122284Y-112448714D01*
X148027046Y-112496333D01*
X147979427Y-112591571D01*
X147979427Y-112686810D01*
X148455618Y-112782048D01*
X147550856Y-112448714D02*
X147550856Y-113115381D01*
X147550856Y-112543952D02*
X147503237Y-112496333D01*
X147407999Y-112448714D01*
X147265141Y-112448714D01*
X147169903Y-112496333D01*
X147122284Y-112591571D01*
X147122284Y-113115381D01*
X146217522Y-113115381D02*
X146217522Y-112115381D01*
X146217522Y-113067762D02*
X146312760Y-113115381D01*
X146503237Y-113115381D01*
X146598475Y-113067762D01*
X146646094Y-113020143D01*
X146693713Y-112924905D01*
X146693713Y-112639190D01*
X146646094Y-112543952D01*
X146598475Y-112496333D01*
X146503237Y-112448714D01*
X146312760Y-112448714D01*
X146217522Y-112496333D01*
X145360379Y-113067762D02*
X145455617Y-113115381D01*
X145646094Y-113115381D01*
X145741332Y-113067762D01*
X145788951Y-112972524D01*
X145788951Y-112591571D01*
X145741332Y-112496333D01*
X145646094Y-112448714D01*
X145455617Y-112448714D01*
X145360379Y-112496333D01*
X145312760Y-112591571D01*
X145312760Y-112686810D01*
X145788951Y-112782048D01*
X144884189Y-112448714D02*
X144884189Y-113115381D01*
X144884189Y-112543952D02*
X144836570Y-112496333D01*
X144741332Y-112448714D01*
X144598474Y-112448714D01*
X144503236Y-112496333D01*
X144455617Y-112591571D01*
X144455617Y-113115381D01*
X143550855Y-113115381D02*
X143550855Y-112591571D01*
X143598474Y-112496333D01*
X143693712Y-112448714D01*
X143884189Y-112448714D01*
X143979427Y-112496333D01*
X143550855Y-113067762D02*
X143646093Y-113115381D01*
X143884189Y-113115381D01*
X143979427Y-113067762D01*
X144027046Y-112972524D01*
X144027046Y-112877286D01*
X143979427Y-112782048D01*
X143884189Y-112734429D01*
X143646093Y-112734429D01*
X143550855Y-112686810D01*
X143074665Y-113115381D02*
X143074665Y-112448714D01*
X143074665Y-112639190D02*
X143027046Y-112543952D01*
X142979427Y-112496333D01*
X142884189Y-112448714D01*
X142788950Y-112448714D01*
X142455617Y-113115381D02*
X142455617Y-112448714D01*
X142455617Y-112543952D02*
X142407998Y-112496333D01*
X142312760Y-112448714D01*
X142169902Y-112448714D01*
X142074664Y-112496333D01*
X142027045Y-112591571D01*
X142027045Y-113115381D01*
X142027045Y-112591571D02*
X141979426Y-112496333D01*
X141884188Y-112448714D01*
X141741331Y-112448714D01*
X141646093Y-112496333D01*
X141598474Y-112591571D01*
X141598474Y-113115381D01*
X140979427Y-113115381D02*
X141074665Y-113067762D01*
X141122284Y-113020143D01*
X141169903Y-112924905D01*
X141169903Y-112639190D01*
X141122284Y-112543952D01*
X141074665Y-112496333D01*
X140979427Y-112448714D01*
X140836569Y-112448714D01*
X140741331Y-112496333D01*
X140693712Y-112543952D01*
X140646093Y-112639190D01*
X140646093Y-112924905D01*
X140693712Y-113020143D01*
X140741331Y-113067762D01*
X140836569Y-113115381D01*
X140979427Y-113115381D01*
X172169906Y-114865381D02*
X172169906Y-113865381D01*
X171741334Y-114865381D02*
X171741334Y-114341571D01*
X171788953Y-114246333D01*
X171884191Y-114198714D01*
X172027049Y-114198714D01*
X172122287Y-114246333D01*
X172169906Y-114293952D01*
X171408001Y-114198714D02*
X171027049Y-114198714D01*
X171265144Y-113865381D02*
X171265144Y-114722524D01*
X171217525Y-114817762D01*
X171122287Y-114865381D01*
X171027049Y-114865381D01*
X170836572Y-114198714D02*
X170455620Y-114198714D01*
X170693715Y-113865381D02*
X170693715Y-114722524D01*
X170646096Y-114817762D01*
X170550858Y-114865381D01*
X170455620Y-114865381D01*
X170122286Y-114198714D02*
X170122286Y-115198714D01*
X170122286Y-114246333D02*
X170027048Y-114198714D01*
X169836571Y-114198714D01*
X169741333Y-114246333D01*
X169693714Y-114293952D01*
X169646095Y-114389190D01*
X169646095Y-114674905D01*
X169693714Y-114770143D01*
X169741333Y-114817762D01*
X169836571Y-114865381D01*
X170027048Y-114865381D01*
X170122286Y-114817762D01*
X169265143Y-114817762D02*
X169169905Y-114865381D01*
X168979429Y-114865381D01*
X168884190Y-114817762D01*
X168836571Y-114722524D01*
X168836571Y-114674905D01*
X168884190Y-114579667D01*
X168979429Y-114532048D01*
X169122286Y-114532048D01*
X169217524Y-114484429D01*
X169265143Y-114389190D01*
X169265143Y-114341571D01*
X169217524Y-114246333D01*
X169122286Y-114198714D01*
X168979429Y-114198714D01*
X168884190Y-114246333D01*
X168408000Y-114770143D02*
X168360381Y-114817762D01*
X168408000Y-114865381D01*
X168455619Y-114817762D01*
X168408000Y-114770143D01*
X168408000Y-114865381D01*
X168408000Y-114246333D02*
X168360381Y-114293952D01*
X168408000Y-114341571D01*
X168455619Y-114293952D01*
X168408000Y-114246333D01*
X168408000Y-114341571D01*
X167217524Y-113817762D02*
X168074667Y-115103476D01*
X166169905Y-113817762D02*
X167027048Y-115103476D01*
X165408000Y-114198714D02*
X165408000Y-115008238D01*
X165455619Y-115103476D01*
X165503238Y-115151095D01*
X165598477Y-115198714D01*
X165741334Y-115198714D01*
X165836572Y-115151095D01*
X165408000Y-114817762D02*
X165503238Y-114865381D01*
X165693715Y-114865381D01*
X165788953Y-114817762D01*
X165836572Y-114770143D01*
X165884191Y-114674905D01*
X165884191Y-114389190D01*
X165836572Y-114293952D01*
X165788953Y-114246333D01*
X165693715Y-114198714D01*
X165503238Y-114198714D01*
X165408000Y-114246333D01*
X164931810Y-114865381D02*
X164931810Y-114198714D01*
X164931810Y-113865381D02*
X164979429Y-113913000D01*
X164931810Y-113960619D01*
X164884191Y-113913000D01*
X164931810Y-113865381D01*
X164931810Y-113960619D01*
X164598477Y-114198714D02*
X164217525Y-114198714D01*
X164455620Y-113865381D02*
X164455620Y-114722524D01*
X164408001Y-114817762D01*
X164312763Y-114865381D01*
X164217525Y-114865381D01*
X163884191Y-114865381D02*
X163884191Y-113865381D01*
X163455619Y-114865381D02*
X163455619Y-114341571D01*
X163503238Y-114246333D01*
X163598476Y-114198714D01*
X163741334Y-114198714D01*
X163836572Y-114246333D01*
X163884191Y-114293952D01*
X162550857Y-114198714D02*
X162550857Y-114865381D01*
X162979429Y-114198714D02*
X162979429Y-114722524D01*
X162931810Y-114817762D01*
X162836572Y-114865381D01*
X162693714Y-114865381D01*
X162598476Y-114817762D01*
X162550857Y-114770143D01*
X162074667Y-114865381D02*
X162074667Y-113865381D01*
X162074667Y-114246333D02*
X161979429Y-114198714D01*
X161788952Y-114198714D01*
X161693714Y-114246333D01*
X161646095Y-114293952D01*
X161598476Y-114389190D01*
X161598476Y-114674905D01*
X161646095Y-114770143D01*
X161693714Y-114817762D01*
X161788952Y-114865381D01*
X161979429Y-114865381D01*
X162074667Y-114817762D01*
X161169905Y-114770143D02*
X161122286Y-114817762D01*
X161169905Y-114865381D01*
X161217524Y-114817762D01*
X161169905Y-114770143D01*
X161169905Y-114865381D01*
X160265143Y-114817762D02*
X160360381Y-114865381D01*
X160550858Y-114865381D01*
X160646096Y-114817762D01*
X160693715Y-114770143D01*
X160741334Y-114674905D01*
X160741334Y-114389190D01*
X160693715Y-114293952D01*
X160646096Y-114246333D01*
X160550858Y-114198714D01*
X160360381Y-114198714D01*
X160265143Y-114246333D01*
X159693715Y-114865381D02*
X159788953Y-114817762D01*
X159836572Y-114770143D01*
X159884191Y-114674905D01*
X159884191Y-114389190D01*
X159836572Y-114293952D01*
X159788953Y-114246333D01*
X159693715Y-114198714D01*
X159550857Y-114198714D01*
X159455619Y-114246333D01*
X159408000Y-114293952D01*
X159360381Y-114389190D01*
X159360381Y-114674905D01*
X159408000Y-114770143D01*
X159455619Y-114817762D01*
X159550857Y-114865381D01*
X159693715Y-114865381D01*
X158931810Y-114865381D02*
X158931810Y-114198714D01*
X158931810Y-114293952D02*
X158884191Y-114246333D01*
X158788953Y-114198714D01*
X158646095Y-114198714D01*
X158550857Y-114246333D01*
X158503238Y-114341571D01*
X158503238Y-114865381D01*
X158503238Y-114341571D02*
X158455619Y-114246333D01*
X158360381Y-114198714D01*
X158217524Y-114198714D01*
X158122286Y-114246333D01*
X158074667Y-114341571D01*
X158074667Y-114865381D01*
X156884191Y-113817762D02*
X157741334Y-115103476D01*
X156122286Y-114865381D02*
X156122286Y-114341571D01*
X156169905Y-114246333D01*
X156265143Y-114198714D01*
X156455620Y-114198714D01*
X156550858Y-114246333D01*
X156122286Y-114817762D02*
X156217524Y-114865381D01*
X156455620Y-114865381D01*
X156550858Y-114817762D01*
X156598477Y-114722524D01*
X156598477Y-114627286D01*
X156550858Y-114532048D01*
X156455620Y-114484429D01*
X156217524Y-114484429D01*
X156122286Y-114436810D01*
X155646096Y-114865381D02*
X155646096Y-113865381D01*
X155550858Y-114484429D02*
X155265143Y-114865381D01*
X155265143Y-114198714D02*
X155646096Y-114579667D01*
X154693715Y-114865381D02*
X154788953Y-114817762D01*
X154836572Y-114770143D01*
X154884191Y-114674905D01*
X154884191Y-114389190D01*
X154836572Y-114293952D01*
X154788953Y-114246333D01*
X154693715Y-114198714D01*
X154550857Y-114198714D01*
X154455619Y-114246333D01*
X154408000Y-114293952D01*
X154360381Y-114389190D01*
X154360381Y-114674905D01*
X154408000Y-114770143D01*
X154455619Y-114817762D01*
X154550857Y-114865381D01*
X154693715Y-114865381D01*
X153931810Y-114865381D02*
X153931810Y-114198714D01*
X153931810Y-114389190D02*
X153884191Y-114293952D01*
X153836572Y-114246333D01*
X153741334Y-114198714D01*
X153646095Y-114198714D01*
X153312762Y-114198714D02*
X153312762Y-114865381D01*
X153312762Y-114293952D02*
X153265143Y-114246333D01*
X153169905Y-114198714D01*
X153027047Y-114198714D01*
X152931809Y-114246333D01*
X152884190Y-114341571D01*
X152884190Y-114865381D01*
X152455619Y-114817762D02*
X152360381Y-114865381D01*
X152169905Y-114865381D01*
X152074666Y-114817762D01*
X152027047Y-114722524D01*
X152027047Y-114674905D01*
X152074666Y-114579667D01*
X152169905Y-114532048D01*
X152312762Y-114532048D01*
X152408000Y-114484429D01*
X152455619Y-114389190D01*
X152455619Y-114341571D01*
X152408000Y-114246333D01*
X152312762Y-114198714D01*
X152169905Y-114198714D01*
X152074666Y-114246333D01*
X151693714Y-114198714D02*
X151455619Y-114865381D01*
X151217523Y-114198714D02*
X151455619Y-114865381D01*
X151550857Y-115103476D01*
X151598476Y-115151095D01*
X151693714Y-115198714D01*
X150884190Y-114817762D02*
X150788952Y-114865381D01*
X150598476Y-114865381D01*
X150503237Y-114817762D01*
X150455618Y-114722524D01*
X150455618Y-114674905D01*
X150503237Y-114579667D01*
X150598476Y-114532048D01*
X150741333Y-114532048D01*
X150836571Y-114484429D01*
X150884190Y-114389190D01*
X150884190Y-114341571D01*
X150836571Y-114246333D01*
X150741333Y-114198714D01*
X150598476Y-114198714D01*
X150503237Y-114246333D01*
X150027047Y-114484429D02*
X149265142Y-114484429D01*
X148788952Y-114865381D02*
X148788952Y-114198714D01*
X148788952Y-114389190D02*
X148741333Y-114293952D01*
X148693714Y-114246333D01*
X148598476Y-114198714D01*
X148503237Y-114198714D01*
X147741332Y-114865381D02*
X147741332Y-113865381D01*
X147741332Y-114817762D02*
X147836570Y-114865381D01*
X148027047Y-114865381D01*
X148122285Y-114817762D01*
X148169904Y-114770143D01*
X148217523Y-114674905D01*
X148217523Y-114389190D01*
X148169904Y-114293952D01*
X148122285Y-114246333D01*
X148027047Y-114198714D01*
X147836570Y-114198714D01*
X147741332Y-114246333D01*
X147265142Y-114865381D02*
X147265142Y-114198714D01*
X147265142Y-113865381D02*
X147312761Y-113913000D01*
X147265142Y-113960619D01*
X147217523Y-113913000D01*
X147265142Y-113865381D01*
X147265142Y-113960619D01*
X146074666Y-113817762D02*
X146931809Y-115103476D01*
X145741333Y-113865381D02*
X145741333Y-114674905D01*
X145693714Y-114770143D01*
X145646095Y-114817762D01*
X145550857Y-114865381D01*
X145360380Y-114865381D01*
X145265142Y-114817762D01*
X145217523Y-114770143D01*
X145169904Y-114674905D01*
X145169904Y-113865381D01*
X144741333Y-114817762D02*
X144598476Y-114865381D01*
X144360380Y-114865381D01*
X144265142Y-114817762D01*
X144217523Y-114770143D01*
X144169904Y-114674905D01*
X144169904Y-114579667D01*
X144217523Y-114484429D01*
X144265142Y-114436810D01*
X144360380Y-114389190D01*
X144550857Y-114341571D01*
X144646095Y-114293952D01*
X144693714Y-114246333D01*
X144741333Y-114151095D01*
X144741333Y-114055857D01*
X144693714Y-113960619D01*
X144646095Y-113913000D01*
X144550857Y-113865381D01*
X144312761Y-113865381D01*
X144169904Y-113913000D01*
X143407999Y-114341571D02*
X143265142Y-114389190D01*
X143217523Y-114436810D01*
X143169904Y-114532048D01*
X143169904Y-114674905D01*
X143217523Y-114770143D01*
X143265142Y-114817762D01*
X143360380Y-114865381D01*
X143741333Y-114865381D01*
X143741333Y-113865381D01*
X143407999Y-113865381D01*
X143312761Y-113913000D01*
X143265142Y-113960619D01*
X143217523Y-114055857D01*
X143217523Y-114151095D01*
X143265142Y-114246333D01*
X143312761Y-114293952D01*
X143407999Y-114341571D01*
X143741333Y-114341571D01*
X142741333Y-114484429D02*
X141979428Y-114484429D01*
X141503238Y-114198714D02*
X141503238Y-115198714D01*
X141503238Y-114246333D02*
X141408000Y-114198714D01*
X141217523Y-114198714D01*
X141122285Y-114246333D01*
X141074666Y-114293952D01*
X141027047Y-114389190D01*
X141027047Y-114674905D01*
X141074666Y-114770143D01*
X141122285Y-114817762D01*
X141217523Y-114865381D01*
X141408000Y-114865381D01*
X141503238Y-114817762D01*
X140455619Y-114865381D02*
X140550857Y-114817762D01*
X140598476Y-114770143D01*
X140646095Y-114674905D01*
X140646095Y-114389190D01*
X140598476Y-114293952D01*
X140550857Y-114246333D01*
X140455619Y-114198714D01*
X140312761Y-114198714D01*
X140217523Y-114246333D01*
X140169904Y-114293952D01*
X140122285Y-114389190D01*
X140122285Y-114674905D01*
X140169904Y-114770143D01*
X140217523Y-114817762D01*
X140312761Y-114865381D01*
X140455619Y-114865381D01*
X139788952Y-114198714D02*
X139598476Y-114865381D01*
X139407999Y-114389190D01*
X139217523Y-114865381D01*
X139027047Y-114198714D01*
X138265142Y-114817762D02*
X138360380Y-114865381D01*
X138550857Y-114865381D01*
X138646095Y-114817762D01*
X138693714Y-114722524D01*
X138693714Y-114341571D01*
X138646095Y-114246333D01*
X138550857Y-114198714D01*
X138360380Y-114198714D01*
X138265142Y-114246333D01*
X138217523Y-114341571D01*
X138217523Y-114436810D01*
X138693714Y-114532048D01*
X137788952Y-114865381D02*
X137788952Y-114198714D01*
X137788952Y-114389190D02*
X137741333Y-114293952D01*
X137693714Y-114246333D01*
X137598476Y-114198714D01*
X137503237Y-114198714D01*
X137169904Y-114484429D02*
X136407999Y-114484429D01*
X135503237Y-114865381D02*
X135503237Y-113865381D01*
X135503237Y-114817762D02*
X135598475Y-114865381D01*
X135788952Y-114865381D01*
X135884190Y-114817762D01*
X135931809Y-114770143D01*
X135979428Y-114674905D01*
X135979428Y-114389190D01*
X135931809Y-114293952D01*
X135884190Y-114246333D01*
X135788952Y-114198714D01*
X135598475Y-114198714D01*
X135503237Y-114246333D01*
X135027047Y-114865381D02*
X135027047Y-114198714D01*
X135027047Y-113865381D02*
X135074666Y-113913000D01*
X135027047Y-113960619D01*
X134979428Y-113913000D01*
X135027047Y-113865381D01*
X135027047Y-113960619D01*
X134598476Y-114817762D02*
X134503238Y-114865381D01*
X134312762Y-114865381D01*
X134217523Y-114817762D01*
X134169904Y-114722524D01*
X134169904Y-114674905D01*
X134217523Y-114579667D01*
X134312762Y-114532048D01*
X134455619Y-114532048D01*
X134550857Y-114484429D01*
X134598476Y-114389190D01*
X134598476Y-114341571D01*
X134550857Y-114246333D01*
X134455619Y-114198714D01*
X134312762Y-114198714D01*
X134217523Y-114246333D01*
X133884190Y-114198714D02*
X133503238Y-114198714D01*
X133741333Y-113865381D02*
X133741333Y-114722524D01*
X133693714Y-114817762D01*
X133598476Y-114865381D01*
X133503238Y-114865381D01*
D12*
X158423429Y-85042214D02*
X158677429Y-84679357D01*
X158858857Y-85042214D02*
X158858857Y-84280214D01*
X158568572Y-84280214D01*
X158496000Y-84316500D01*
X158459715Y-84352786D01*
X158423429Y-84425357D01*
X158423429Y-84534214D01*
X158459715Y-84606786D01*
X158496000Y-84643071D01*
X158568572Y-84679357D01*
X158858857Y-84679357D01*
X157806572Y-85005929D02*
X157879143Y-85042214D01*
X158024286Y-85042214D01*
X158096857Y-85005929D01*
X158133143Y-84933357D01*
X158133143Y-84643071D01*
X158096857Y-84570500D01*
X158024286Y-84534214D01*
X157879143Y-84534214D01*
X157806572Y-84570500D01*
X157770286Y-84643071D01*
X157770286Y-84715643D01*
X158133143Y-84788214D01*
X157334857Y-85042214D02*
X157407429Y-85005929D01*
X157443714Y-84933357D01*
X157443714Y-84280214D01*
X156754286Y-85005929D02*
X156826857Y-85042214D01*
X156972000Y-85042214D01*
X157044571Y-85005929D01*
X157080857Y-84933357D01*
X157080857Y-84643071D01*
X157044571Y-84570500D01*
X156972000Y-84534214D01*
X156826857Y-84534214D01*
X156754286Y-84570500D01*
X156718000Y-84643071D01*
X156718000Y-84715643D01*
X157080857Y-84788214D01*
X156064857Y-85042214D02*
X156064857Y-84643071D01*
X156101143Y-84570500D01*
X156173714Y-84534214D01*
X156318857Y-84534214D01*
X156391428Y-84570500D01*
X156064857Y-85005929D02*
X156137428Y-85042214D01*
X156318857Y-85042214D01*
X156391428Y-85005929D01*
X156427714Y-84933357D01*
X156427714Y-84860786D01*
X156391428Y-84788214D01*
X156318857Y-84751929D01*
X156137428Y-84751929D01*
X156064857Y-84715643D01*
X155738285Y-85005929D02*
X155665714Y-85042214D01*
X155520571Y-85042214D01*
X155447999Y-85005929D01*
X155411714Y-84933357D01*
X155411714Y-84897071D01*
X155447999Y-84824500D01*
X155520571Y-84788214D01*
X155629428Y-84788214D01*
X155701999Y-84751929D01*
X155738285Y-84679357D01*
X155738285Y-84643071D01*
X155701999Y-84570500D01*
X155629428Y-84534214D01*
X155520571Y-84534214D01*
X155447999Y-84570500D01*
X154794857Y-85005929D02*
X154867428Y-85042214D01*
X155012571Y-85042214D01*
X155085142Y-85005929D01*
X155121428Y-84933357D01*
X155121428Y-84643071D01*
X155085142Y-84570500D01*
X155012571Y-84534214D01*
X154867428Y-84534214D01*
X154794857Y-84570500D01*
X154758571Y-84643071D01*
X154758571Y-84715643D01*
X155121428Y-84788214D01*
X154105428Y-85042214D02*
X154105428Y-84280214D01*
X154105428Y-85005929D02*
X154177999Y-85042214D01*
X154323142Y-85042214D01*
X154395714Y-85005929D01*
X154431999Y-84969643D01*
X154468285Y-84897071D01*
X154468285Y-84679357D01*
X154431999Y-84606786D01*
X154395714Y-84570500D01*
X154323142Y-84534214D01*
X154177999Y-84534214D01*
X154105428Y-84570500D01*
X152835428Y-84534214D02*
X152835428Y-85042214D01*
X153161999Y-84534214D02*
X153161999Y-84933357D01*
X153125714Y-85005929D01*
X153053142Y-85042214D01*
X152944285Y-85042214D01*
X152871714Y-85005929D01*
X152835428Y-84969643D01*
X152472570Y-84534214D02*
X152472570Y-85042214D01*
X152472570Y-84606786D02*
X152436285Y-84570500D01*
X152363713Y-84534214D01*
X152254856Y-84534214D01*
X152182285Y-84570500D01*
X152145999Y-84643071D01*
X152145999Y-85042214D01*
X151456570Y-85042214D02*
X151456570Y-84280214D01*
X151456570Y-85005929D02*
X151529141Y-85042214D01*
X151674284Y-85042214D01*
X151746856Y-85005929D01*
X151783141Y-84969643D01*
X151819427Y-84897071D01*
X151819427Y-84679357D01*
X151783141Y-84606786D01*
X151746856Y-84570500D01*
X151674284Y-84534214D01*
X151529141Y-84534214D01*
X151456570Y-84570500D01*
X150803427Y-85005929D02*
X150875998Y-85042214D01*
X151021141Y-85042214D01*
X151093712Y-85005929D01*
X151129998Y-84933357D01*
X151129998Y-84643071D01*
X151093712Y-84570500D01*
X151021141Y-84534214D01*
X150875998Y-84534214D01*
X150803427Y-84570500D01*
X150767141Y-84643071D01*
X150767141Y-84715643D01*
X151129998Y-84788214D01*
X150440569Y-85042214D02*
X150440569Y-84534214D01*
X150440569Y-84679357D02*
X150404284Y-84606786D01*
X150367998Y-84570500D01*
X150295427Y-84534214D01*
X150222855Y-84534214D01*
X148989142Y-84316500D02*
X149061713Y-84280214D01*
X149170570Y-84280214D01*
X149279427Y-84316500D01*
X149351999Y-84389071D01*
X149388284Y-84461643D01*
X149424570Y-84606786D01*
X149424570Y-84715643D01*
X149388284Y-84860786D01*
X149351999Y-84933357D01*
X149279427Y-85005929D01*
X149170570Y-85042214D01*
X149097999Y-85042214D01*
X148989142Y-85005929D01*
X148952856Y-84969643D01*
X148952856Y-84715643D01*
X149097999Y-84715643D01*
X148626284Y-85042214D02*
X148626284Y-84280214D01*
X148190856Y-85042214D01*
X148190856Y-84280214D01*
X147827998Y-84280214D02*
X147827998Y-84897071D01*
X147791713Y-84969643D01*
X147755427Y-85005929D01*
X147682856Y-85042214D01*
X147537713Y-85042214D01*
X147465141Y-85005929D01*
X147428856Y-84969643D01*
X147392570Y-84897071D01*
X147392570Y-84280214D01*
X146485427Y-84243929D02*
X147138570Y-85223643D01*
X145832284Y-84316500D02*
X145904855Y-84280214D01*
X146013712Y-84280214D01*
X146122569Y-84316500D01*
X146195141Y-84389071D01*
X146231426Y-84461643D01*
X146267712Y-84606786D01*
X146267712Y-84715643D01*
X146231426Y-84860786D01*
X146195141Y-84933357D01*
X146122569Y-85005929D01*
X146013712Y-85042214D01*
X145941141Y-85042214D01*
X145832284Y-85005929D01*
X145795998Y-84969643D01*
X145795998Y-84715643D01*
X145941141Y-84715643D01*
X145469426Y-85042214D02*
X145469426Y-84280214D01*
X145179141Y-84280214D01*
X145106569Y-84316500D01*
X145070284Y-84352786D01*
X145033998Y-84425357D01*
X145033998Y-84534214D01*
X145070284Y-84606786D01*
X145106569Y-84643071D01*
X145179141Y-84679357D01*
X145469426Y-84679357D01*
X144344569Y-85042214D02*
X144707426Y-85042214D01*
X144707426Y-84280214D01*
X143582570Y-84280214D02*
X143110856Y-84280214D01*
X143364856Y-84570500D01*
X143255998Y-84570500D01*
X143183427Y-84606786D01*
X143147141Y-84643071D01*
X143110856Y-84715643D01*
X143110856Y-84897071D01*
X143147141Y-84969643D01*
X143183427Y-85005929D01*
X143255998Y-85042214D01*
X143473713Y-85042214D01*
X143546284Y-85005929D01*
X143582570Y-84969643D01*
X141840856Y-85042214D02*
X142203713Y-85042214D01*
X142203713Y-84280214D01*
X141586856Y-85042214D02*
X141586856Y-84534214D01*
X141586856Y-84280214D02*
X141623142Y-84316500D01*
X141586856Y-84352786D01*
X141550571Y-84316500D01*
X141586856Y-84280214D01*
X141586856Y-84352786D01*
X140897428Y-85005929D02*
X140969999Y-85042214D01*
X141115142Y-85042214D01*
X141187714Y-85005929D01*
X141223999Y-84969643D01*
X141260285Y-84897071D01*
X141260285Y-84679357D01*
X141223999Y-84606786D01*
X141187714Y-84570500D01*
X141115142Y-84534214D01*
X140969999Y-84534214D01*
X140897428Y-84570500D01*
X140280571Y-85005929D02*
X140353142Y-85042214D01*
X140498285Y-85042214D01*
X140570856Y-85005929D01*
X140607142Y-84933357D01*
X140607142Y-84643071D01*
X140570856Y-84570500D01*
X140498285Y-84534214D01*
X140353142Y-84534214D01*
X140280571Y-84570500D01*
X140244285Y-84643071D01*
X140244285Y-84715643D01*
X140607142Y-84788214D01*
X139917713Y-84534214D02*
X139917713Y-85042214D01*
X139917713Y-84606786D02*
X139881428Y-84570500D01*
X139808856Y-84534214D01*
X139699999Y-84534214D01*
X139627428Y-84570500D01*
X139591142Y-84643071D01*
X139591142Y-85042214D01*
X139264570Y-85005929D02*
X139191999Y-85042214D01*
X139046856Y-85042214D01*
X138974284Y-85005929D01*
X138937999Y-84933357D01*
X138937999Y-84897071D01*
X138974284Y-84824500D01*
X139046856Y-84788214D01*
X139155713Y-84788214D01*
X139228284Y-84751929D01*
X139264570Y-84679357D01*
X139264570Y-84643071D01*
X139228284Y-84570500D01*
X139155713Y-84534214D01*
X139046856Y-84534214D01*
X138974284Y-84570500D01*
X138321142Y-85005929D02*
X138393713Y-85042214D01*
X138538856Y-85042214D01*
X138611427Y-85005929D01*
X138647713Y-84933357D01*
X138647713Y-84643071D01*
X138611427Y-84570500D01*
X138538856Y-84534214D01*
X138393713Y-84534214D01*
X138321142Y-84570500D01*
X138284856Y-84643071D01*
X138284856Y-84715643D01*
X138647713Y-84788214D01*
X159802289Y-86335214D02*
X159802289Y-85573214D01*
X159475718Y-86335214D02*
X159475718Y-85936071D01*
X159512004Y-85863500D01*
X159584575Y-85827214D01*
X159693432Y-85827214D01*
X159766004Y-85863500D01*
X159802289Y-85899786D01*
X159221718Y-85827214D02*
X158931432Y-85827214D01*
X159112860Y-85573214D02*
X159112860Y-86226357D01*
X159076575Y-86298929D01*
X159004003Y-86335214D01*
X158931432Y-86335214D01*
X158786289Y-85827214D02*
X158496003Y-85827214D01*
X158677431Y-85573214D02*
X158677431Y-86226357D01*
X158641146Y-86298929D01*
X158568574Y-86335214D01*
X158496003Y-86335214D01*
X158242002Y-85827214D02*
X158242002Y-86589214D01*
X158242002Y-85863500D02*
X158169431Y-85827214D01*
X158024288Y-85827214D01*
X157951717Y-85863500D01*
X157915431Y-85899786D01*
X157879145Y-85972357D01*
X157879145Y-86190071D01*
X157915431Y-86262643D01*
X157951717Y-86298929D01*
X158024288Y-86335214D01*
X158169431Y-86335214D01*
X158242002Y-86298929D01*
X157588859Y-86298929D02*
X157516288Y-86335214D01*
X157371145Y-86335214D01*
X157298573Y-86298929D01*
X157262288Y-86226357D01*
X157262288Y-86190071D01*
X157298573Y-86117500D01*
X157371145Y-86081214D01*
X157480002Y-86081214D01*
X157552573Y-86044929D01*
X157588859Y-85972357D01*
X157588859Y-85936071D01*
X157552573Y-85863500D01*
X157480002Y-85827214D01*
X157371145Y-85827214D01*
X157298573Y-85863500D01*
X156935716Y-86262643D02*
X156899431Y-86298929D01*
X156935716Y-86335214D01*
X156972002Y-86298929D01*
X156935716Y-86262643D01*
X156935716Y-86335214D01*
X156935716Y-85863500D02*
X156899431Y-85899786D01*
X156935716Y-85936071D01*
X156972002Y-85899786D01*
X156935716Y-85863500D01*
X156935716Y-85936071D01*
X156028574Y-85536929D02*
X156681717Y-86516643D01*
X155230288Y-85536929D02*
X155883431Y-86516643D01*
X155048859Y-85827214D02*
X154903716Y-86335214D01*
X154758573Y-85972357D01*
X154613430Y-86335214D01*
X154468287Y-85827214D01*
X154250573Y-85827214D02*
X154105430Y-86335214D01*
X153960287Y-85972357D01*
X153815144Y-86335214D01*
X153670001Y-85827214D01*
X153452287Y-85827214D02*
X153307144Y-86335214D01*
X153162001Y-85972357D01*
X153016858Y-86335214D01*
X152871715Y-85827214D01*
X152581429Y-86262643D02*
X152545144Y-86298929D01*
X152581429Y-86335214D01*
X152617715Y-86298929D01*
X152581429Y-86262643D01*
X152581429Y-86335214D01*
X151892001Y-85827214D02*
X151892001Y-86444071D01*
X151928287Y-86516643D01*
X151964572Y-86552929D01*
X152037144Y-86589214D01*
X152146001Y-86589214D01*
X152218572Y-86552929D01*
X151892001Y-86298929D02*
X151964572Y-86335214D01*
X152109715Y-86335214D01*
X152182287Y-86298929D01*
X152218572Y-86262643D01*
X152254858Y-86190071D01*
X152254858Y-85972357D01*
X152218572Y-85899786D01*
X152182287Y-85863500D01*
X152109715Y-85827214D01*
X151964572Y-85827214D01*
X151892001Y-85863500D01*
X151529143Y-85827214D02*
X151529143Y-86335214D01*
X151529143Y-85899786D02*
X151492858Y-85863500D01*
X151420286Y-85827214D01*
X151311429Y-85827214D01*
X151238858Y-85863500D01*
X151202572Y-85936071D01*
X151202572Y-86335214D01*
X150513143Y-85827214D02*
X150513143Y-86335214D01*
X150839714Y-85827214D02*
X150839714Y-86226357D01*
X150803429Y-86298929D01*
X150730857Y-86335214D01*
X150622000Y-86335214D01*
X150549429Y-86298929D01*
X150513143Y-86262643D01*
X150150285Y-86262643D02*
X150114000Y-86298929D01*
X150150285Y-86335214D01*
X150186571Y-86298929D01*
X150150285Y-86262643D01*
X150150285Y-86335214D01*
X149678571Y-86335214D02*
X149751143Y-86298929D01*
X149787428Y-86262643D01*
X149823714Y-86190071D01*
X149823714Y-85972357D01*
X149787428Y-85899786D01*
X149751143Y-85863500D01*
X149678571Y-85827214D01*
X149569714Y-85827214D01*
X149497143Y-85863500D01*
X149460857Y-85899786D01*
X149424571Y-85972357D01*
X149424571Y-86190071D01*
X149460857Y-86262643D01*
X149497143Y-86298929D01*
X149569714Y-86335214D01*
X149678571Y-86335214D01*
X149097999Y-86335214D02*
X149097999Y-85827214D01*
X149097999Y-85972357D02*
X149061714Y-85899786D01*
X149025428Y-85863500D01*
X148952857Y-85827214D01*
X148880285Y-85827214D01*
X148299714Y-85827214D02*
X148299714Y-86444071D01*
X148336000Y-86516643D01*
X148372285Y-86552929D01*
X148444857Y-86589214D01*
X148553714Y-86589214D01*
X148626285Y-86552929D01*
X148299714Y-86298929D02*
X148372285Y-86335214D01*
X148517428Y-86335214D01*
X148590000Y-86298929D01*
X148626285Y-86262643D01*
X148662571Y-86190071D01*
X148662571Y-85972357D01*
X148626285Y-85899786D01*
X148590000Y-85863500D01*
X148517428Y-85827214D01*
X148372285Y-85827214D01*
X148299714Y-85863500D01*
X147392571Y-85536929D02*
X148045714Y-86516643D01*
X147029713Y-86335214D02*
X147102285Y-86298929D01*
X147138570Y-86226357D01*
X147138570Y-85573214D01*
X146739427Y-86335214D02*
X146739427Y-85827214D01*
X146739427Y-85573214D02*
X146775713Y-85609500D01*
X146739427Y-85645786D01*
X146703142Y-85609500D01*
X146739427Y-85573214D01*
X146739427Y-85645786D01*
X146049999Y-86298929D02*
X146122570Y-86335214D01*
X146267713Y-86335214D01*
X146340285Y-86298929D01*
X146376570Y-86262643D01*
X146412856Y-86190071D01*
X146412856Y-85972357D01*
X146376570Y-85899786D01*
X146340285Y-85863500D01*
X146267713Y-85827214D01*
X146122570Y-85827214D01*
X146049999Y-85863500D01*
X145433142Y-86298929D02*
X145505713Y-86335214D01*
X145650856Y-86335214D01*
X145723427Y-86298929D01*
X145759713Y-86226357D01*
X145759713Y-85936071D01*
X145723427Y-85863500D01*
X145650856Y-85827214D01*
X145505713Y-85827214D01*
X145433142Y-85863500D01*
X145396856Y-85936071D01*
X145396856Y-86008643D01*
X145759713Y-86081214D01*
X145070284Y-85827214D02*
X145070284Y-86335214D01*
X145070284Y-85899786D02*
X145033999Y-85863500D01*
X144961427Y-85827214D01*
X144852570Y-85827214D01*
X144779999Y-85863500D01*
X144743713Y-85936071D01*
X144743713Y-86335214D01*
X144417141Y-86298929D02*
X144344570Y-86335214D01*
X144199427Y-86335214D01*
X144126855Y-86298929D01*
X144090570Y-86226357D01*
X144090570Y-86190071D01*
X144126855Y-86117500D01*
X144199427Y-86081214D01*
X144308284Y-86081214D01*
X144380855Y-86044929D01*
X144417141Y-85972357D01*
X144417141Y-85936071D01*
X144380855Y-85863500D01*
X144308284Y-85827214D01*
X144199427Y-85827214D01*
X144126855Y-85863500D01*
X143473713Y-86298929D02*
X143546284Y-86335214D01*
X143691427Y-86335214D01*
X143763998Y-86298929D01*
X143800284Y-86226357D01*
X143800284Y-85936071D01*
X143763998Y-85863500D01*
X143691427Y-85827214D01*
X143546284Y-85827214D01*
X143473713Y-85863500D01*
X143437427Y-85936071D01*
X143437427Y-86008643D01*
X143800284Y-86081214D01*
X143147141Y-86298929D02*
X143074570Y-86335214D01*
X142929427Y-86335214D01*
X142856855Y-86298929D01*
X142820570Y-86226357D01*
X142820570Y-86190071D01*
X142856855Y-86117500D01*
X142929427Y-86081214D01*
X143038284Y-86081214D01*
X143110855Y-86044929D01*
X143147141Y-85972357D01*
X143147141Y-85936071D01*
X143110855Y-85863500D01*
X143038284Y-85827214D01*
X142929427Y-85827214D01*
X142856855Y-85863500D01*
X141949713Y-85536929D02*
X142602856Y-86516643D01*
X141369141Y-85827214D02*
X141369141Y-86444071D01*
X141405427Y-86516643D01*
X141441712Y-86552929D01*
X141514284Y-86589214D01*
X141623141Y-86589214D01*
X141695712Y-86552929D01*
X141369141Y-86298929D02*
X141441712Y-86335214D01*
X141586855Y-86335214D01*
X141659427Y-86298929D01*
X141695712Y-86262643D01*
X141731998Y-86190071D01*
X141731998Y-85972357D01*
X141695712Y-85899786D01*
X141659427Y-85863500D01*
X141586855Y-85827214D01*
X141441712Y-85827214D01*
X141369141Y-85863500D01*
X141006283Y-85827214D02*
X141006283Y-86589214D01*
X141006283Y-85863500D02*
X140933712Y-85827214D01*
X140788569Y-85827214D01*
X140715998Y-85863500D01*
X140679712Y-85899786D01*
X140643426Y-85972357D01*
X140643426Y-86190071D01*
X140679712Y-86262643D01*
X140715998Y-86298929D01*
X140788569Y-86335214D01*
X140933712Y-86335214D01*
X141006283Y-86298929D01*
X140207997Y-86335214D02*
X140280569Y-86298929D01*
X140316854Y-86226357D01*
X140316854Y-85573214D01*
X139917711Y-86262643D02*
X139881426Y-86298929D01*
X139917711Y-86335214D01*
X139953997Y-86298929D01*
X139917711Y-86262643D01*
X139917711Y-86335214D01*
X139554854Y-86335214D02*
X139554854Y-85573214D01*
X139228283Y-86335214D02*
X139228283Y-85936071D01*
X139264569Y-85863500D01*
X139337140Y-85827214D01*
X139445997Y-85827214D01*
X139518569Y-85863500D01*
X139554854Y-85899786D01*
X138974283Y-85827214D02*
X138683997Y-85827214D01*
X138865425Y-85573214D02*
X138865425Y-86226357D01*
X138829140Y-86298929D01*
X138756568Y-86335214D01*
X138683997Y-86335214D01*
X138429996Y-86335214D02*
X138429996Y-85827214D01*
X138429996Y-85899786D02*
X138393711Y-85863500D01*
X138321139Y-85827214D01*
X138212282Y-85827214D01*
X138139711Y-85863500D01*
X138103425Y-85936071D01*
X138103425Y-86335214D01*
X138103425Y-85936071D02*
X138067139Y-85863500D01*
X137994568Y-85827214D01*
X137885711Y-85827214D01*
X137813139Y-85863500D01*
X137776854Y-85936071D01*
X137776854Y-86335214D01*
X137305139Y-86335214D02*
X137377711Y-86298929D01*
X137413996Y-86226357D01*
X137413996Y-85573214D01*
D13*
X151991000Y-130644000D02*
X150991000Y-130644000D01*
X150991000Y-128944000D02*
X151991000Y-128944000D01*
X142914000Y-122420000D02*
X142914000Y-121420000D01*
X144614000Y-121420000D02*
X144614000Y-122420000D01*
X162853000Y-122420000D02*
X162853000Y-121420000D01*
X164553000Y-121420000D02*
X164553000Y-122420000D01*
X139104000Y-122420000D02*
X139104000Y-121420000D01*
X140804000Y-121420000D02*
X140804000Y-122420000D01*
X159043000Y-122420000D02*
X159043000Y-121420000D01*
X160743000Y-121420000D02*
X160743000Y-122420000D01*
X142739000Y-122520000D02*
X142739000Y-121320000D01*
X140979000Y-121320000D02*
X140979000Y-122520000D01*
X162678000Y-122520000D02*
X162678000Y-121320000D01*
X160918000Y-121320000D02*
X160918000Y-122520000D01*
X153121000Y-125465000D02*
X153121000Y-127265000D01*
X149901000Y-127265000D02*
X149901000Y-124315000D01*
D14*
G36*
X150891464Y-96930427D02*
X150778882Y-97527618D01*
X150363469Y-97698865D01*
X149948055Y-97870112D01*
X149449698Y-97531233D01*
X149310131Y-97436877D01*
X149183971Y-97352630D01*
X149077104Y-97282338D01*
X148995417Y-97229847D01*
X148944798Y-97199004D01*
X148931013Y-97192353D01*
X148906179Y-97209458D01*
X148853111Y-97256744D01*
X148777759Y-97328172D01*
X148686070Y-97417700D01*
X148583992Y-97519289D01*
X148477473Y-97626898D01*
X148372463Y-97734487D01*
X148274908Y-97836015D01*
X148190757Y-97925441D01*
X148125959Y-97996726D01*
X148086462Y-98043828D01*
X148077019Y-98059592D01*
X148090608Y-98088653D01*
X148128706Y-98152321D01*
X148187306Y-98244367D01*
X148262402Y-98358564D01*
X148349991Y-98488684D01*
X148400745Y-98562901D01*
X148493254Y-98698422D01*
X148575459Y-98820716D01*
X148643369Y-98923695D01*
X148692999Y-99001273D01*
X148720359Y-99047361D01*
X148724470Y-99057047D01*
X148715150Y-99084574D01*
X148689745Y-99148728D01*
X148652088Y-99240490D01*
X148606013Y-99350839D01*
X148555353Y-99470755D01*
X148503940Y-99591219D01*
X148455610Y-99703209D01*
X148414193Y-99797707D01*
X148383525Y-99865692D01*
X148367438Y-99898143D01*
X148366488Y-99899420D01*
X148341227Y-99905617D01*
X148273954Y-99919440D01*
X148171639Y-99939532D01*
X148041258Y-99964534D01*
X147889783Y-99993086D01*
X147801406Y-100009551D01*
X147639547Y-100040369D01*
X147493350Y-100069694D01*
X147370212Y-100095921D01*
X147277530Y-100117446D01*
X147222698Y-100132665D01*
X147211676Y-100137493D01*
X147200881Y-100170174D01*
X147192170Y-100243985D01*
X147185539Y-100350292D01*
X147180981Y-100480467D01*
X147178490Y-100625876D01*
X147178061Y-100777890D01*
X147179688Y-100927877D01*
X147183364Y-101067206D01*
X147189084Y-101187245D01*
X147196842Y-101279365D01*
X147206631Y-101334932D01*
X147212503Y-101346500D01*
X147247600Y-101360365D01*
X147321971Y-101380188D01*
X147425776Y-101403639D01*
X147549180Y-101428391D01*
X147592258Y-101436398D01*
X147799952Y-101474441D01*
X147964015Y-101505079D01*
X148089869Y-101529529D01*
X148182934Y-101549009D01*
X148248632Y-101564736D01*
X148292382Y-101577928D01*
X148319607Y-101589804D01*
X148335727Y-101601580D01*
X148337982Y-101603908D01*
X148360496Y-101641400D01*
X148394841Y-101714365D01*
X148437588Y-101813867D01*
X148485307Y-101930973D01*
X148534569Y-102056748D01*
X148581944Y-102182257D01*
X148624004Y-102298565D01*
X148657319Y-102396739D01*
X148678458Y-102467843D01*
X148683994Y-102502942D01*
X148683533Y-102504172D01*
X148664776Y-102532861D01*
X148622223Y-102595985D01*
X148560346Y-102686973D01*
X148483617Y-102799255D01*
X148396508Y-102926260D01*
X148371701Y-102962353D01*
X148283247Y-103093203D01*
X148205411Y-103212591D01*
X148142433Y-103313662D01*
X148098554Y-103389559D01*
X148078014Y-103433427D01*
X148077019Y-103438817D01*
X148094277Y-103467144D01*
X148141964Y-103523261D01*
X148213949Y-103601137D01*
X148304102Y-103694740D01*
X148406294Y-103798041D01*
X148514394Y-103905006D01*
X148622271Y-104009606D01*
X148723795Y-104105809D01*
X148812837Y-104187584D01*
X148883266Y-104248900D01*
X148928952Y-104283726D01*
X148941590Y-104289412D01*
X148971008Y-104276020D01*
X149031238Y-104239899D01*
X149112470Y-104187136D01*
X149174969Y-104144667D01*
X149288214Y-104066740D01*
X149422325Y-103974984D01*
X149556844Y-103883375D01*
X149629166Y-103834346D01*
X149873961Y-103668770D01*
X150079449Y-103779875D01*
X150173063Y-103828548D01*
X150252669Y-103866381D01*
X150306532Y-103887958D01*
X150320242Y-103890961D01*
X150336729Y-103868793D01*
X150369254Y-103806149D01*
X150415391Y-103708809D01*
X150472709Y-103582549D01*
X150538783Y-103433150D01*
X150611184Y-103266388D01*
X150687483Y-103088042D01*
X150765253Y-102903891D01*
X150842065Y-102719712D01*
X150915493Y-102541285D01*
X150983107Y-102374387D01*
X151042479Y-102224797D01*
X151091183Y-102098293D01*
X151126789Y-102000654D01*
X151146869Y-101937657D01*
X151150099Y-101916021D01*
X151124503Y-101888424D01*
X151068461Y-101843625D01*
X150993688Y-101790934D01*
X150987412Y-101786765D01*
X150794154Y-101632069D01*
X150638325Y-101451591D01*
X150521275Y-101251102D01*
X150444354Y-101036374D01*
X150408913Y-100813177D01*
X150416302Y-100587281D01*
X150467872Y-100364459D01*
X150564973Y-100150479D01*
X150593541Y-100103664D01*
X150742131Y-99914618D01*
X150917672Y-99762812D01*
X151114089Y-99649034D01*
X151325306Y-99574075D01*
X151545246Y-99538722D01*
X151767836Y-99543767D01*
X151986998Y-99589999D01*
X152196657Y-99678206D01*
X152390738Y-99809179D01*
X152450773Y-99862337D01*
X152603564Y-100028739D01*
X152714902Y-100203912D01*
X152791276Y-100400266D01*
X152833812Y-100594717D01*
X152844313Y-100813342D01*
X152809299Y-101033052D01*
X152732326Y-101246420D01*
X152616952Y-101446022D01*
X152466734Y-101624429D01*
X152285226Y-101774217D01*
X152261372Y-101790006D01*
X152185798Y-101841712D01*
X152128348Y-101886512D01*
X152100882Y-101915117D01*
X152100482Y-101916021D01*
X152106379Y-101946964D01*
X152129754Y-102017191D01*
X152168178Y-102120925D01*
X152219222Y-102252390D01*
X152280457Y-102405807D01*
X152349455Y-102575401D01*
X152423786Y-102755393D01*
X152501021Y-102940008D01*
X152578731Y-103123468D01*
X152654488Y-103299996D01*
X152725862Y-103463814D01*
X152790425Y-103609147D01*
X152845747Y-103730217D01*
X152889399Y-103821247D01*
X152918953Y-103876460D01*
X152930855Y-103890961D01*
X152967222Y-103879669D01*
X153035269Y-103849385D01*
X153123263Y-103805520D01*
X153171649Y-103779875D01*
X153377136Y-103668770D01*
X153621931Y-103834346D01*
X153746893Y-103919170D01*
X153883704Y-104012516D01*
X154011911Y-104100408D01*
X154076128Y-104144667D01*
X154166448Y-104205318D01*
X154242928Y-104253381D01*
X154295592Y-104282770D01*
X154312697Y-104288982D01*
X154337594Y-104272223D01*
X154392694Y-104225436D01*
X154472656Y-104153480D01*
X154572139Y-104061212D01*
X154685799Y-103953490D01*
X154757684Y-103884326D01*
X154883448Y-103760757D01*
X154992136Y-103650234D01*
X155079354Y-103557485D01*
X155140710Y-103487237D01*
X155171808Y-103444220D01*
X155174791Y-103435490D01*
X155160946Y-103402284D01*
X155122687Y-103335142D01*
X155064258Y-103240863D01*
X154989902Y-103126245D01*
X154903864Y-102998083D01*
X154879397Y-102962353D01*
X154790245Y-102832489D01*
X154710261Y-102715569D01*
X154643919Y-102618162D01*
X154595688Y-102546839D01*
X154570042Y-102508170D01*
X154567564Y-102504172D01*
X154571270Y-102473355D01*
X154590938Y-102405599D01*
X154623139Y-102309839D01*
X154664444Y-102195009D01*
X154711424Y-102070044D01*
X154760650Y-101943879D01*
X154808691Y-101825448D01*
X154852118Y-101723685D01*
X154887503Y-101647526D01*
X154911415Y-101605904D01*
X154913115Y-101603908D01*
X154927737Y-101592013D01*
X154952434Y-101580250D01*
X154992627Y-101567401D01*
X155053736Y-101552249D01*
X155141182Y-101533576D01*
X155260387Y-101510165D01*
X155416772Y-101480797D01*
X155615756Y-101444255D01*
X155658839Y-101436398D01*
X155786529Y-101411727D01*
X155897846Y-101387593D01*
X155982954Y-101366324D01*
X156032016Y-101350248D01*
X156038594Y-101346500D01*
X156049435Y-101313273D01*
X156058246Y-101239021D01*
X156065023Y-101132376D01*
X156069759Y-101001967D01*
X156072449Y-100856427D01*
X156073086Y-100704386D01*
X156071665Y-100554476D01*
X156068179Y-100415328D01*
X156062623Y-100295572D01*
X156054991Y-100203841D01*
X156045277Y-100148766D01*
X156039421Y-100137493D01*
X156006819Y-100126123D01*
X155932581Y-100107624D01*
X155824103Y-100083602D01*
X155688782Y-100055662D01*
X155534014Y-100025408D01*
X155449692Y-100009551D01*
X155289703Y-99979644D01*
X155147032Y-99952550D01*
X155028651Y-99929631D01*
X154941534Y-99912243D01*
X154892654Y-99901747D01*
X154884609Y-99899420D01*
X154871012Y-99873186D01*
X154842270Y-99809995D01*
X154802214Y-99718877D01*
X154754675Y-99608857D01*
X154703484Y-99488965D01*
X154652473Y-99368227D01*
X154605473Y-99255671D01*
X154566315Y-99160326D01*
X154538830Y-99091217D01*
X154526850Y-99057374D01*
X154526627Y-99055895D01*
X154540208Y-99029197D01*
X154578284Y-98967760D01*
X154636852Y-98877689D01*
X154711911Y-98765090D01*
X154799459Y-98636070D01*
X154850352Y-98561961D01*
X154943090Y-98426077D01*
X155025458Y-98302709D01*
X155093438Y-98198097D01*
X155143011Y-98118483D01*
X155170157Y-98070107D01*
X155174078Y-98059262D01*
X155157224Y-98034020D01*
X155110631Y-97980124D01*
X155040251Y-97903613D01*
X154952034Y-97810523D01*
X154851934Y-97706895D01*
X154745901Y-97598764D01*
X154639888Y-97492170D01*
X154539847Y-97393150D01*
X154451729Y-97307742D01*
X154381486Y-97241985D01*
X154335071Y-97201916D01*
X154319543Y-97192353D01*
X154294260Y-97205800D01*
X154233788Y-97243575D01*
X154144007Y-97301835D01*
X154030796Y-97376734D01*
X153900036Y-97464425D01*
X153801400Y-97531233D01*
X153303042Y-97870112D01*
X152887629Y-97698865D01*
X152472215Y-97527618D01*
X152359633Y-96930427D01*
X152247050Y-96333235D01*
X151004047Y-96333235D01*
X150891464Y-96930427D01*
X150891464Y-96930427D01*
G37*
X150891464Y-96930427D02*
X150778882Y-97527618D01*
X150363469Y-97698865D01*
X149948055Y-97870112D01*
X149449698Y-97531233D01*
X149310131Y-97436877D01*
X149183971Y-97352630D01*
X149077104Y-97282338D01*
X148995417Y-97229847D01*
X148944798Y-97199004D01*
X148931013Y-97192353D01*
X148906179Y-97209458D01*
X148853111Y-97256744D01*
X148777759Y-97328172D01*
X148686070Y-97417700D01*
X148583992Y-97519289D01*
X148477473Y-97626898D01*
X148372463Y-97734487D01*
X148274908Y-97836015D01*
X148190757Y-97925441D01*
X148125959Y-97996726D01*
X148086462Y-98043828D01*
X148077019Y-98059592D01*
X148090608Y-98088653D01*
X148128706Y-98152321D01*
X148187306Y-98244367D01*
X148262402Y-98358564D01*
X148349991Y-98488684D01*
X148400745Y-98562901D01*
X148493254Y-98698422D01*
X148575459Y-98820716D01*
X148643369Y-98923695D01*
X148692999Y-99001273D01*
X148720359Y-99047361D01*
X148724470Y-99057047D01*
X148715150Y-99084574D01*
X148689745Y-99148728D01*
X148652088Y-99240490D01*
X148606013Y-99350839D01*
X148555353Y-99470755D01*
X148503940Y-99591219D01*
X148455610Y-99703209D01*
X148414193Y-99797707D01*
X148383525Y-99865692D01*
X148367438Y-99898143D01*
X148366488Y-99899420D01*
X148341227Y-99905617D01*
X148273954Y-99919440D01*
X148171639Y-99939532D01*
X148041258Y-99964534D01*
X147889783Y-99993086D01*
X147801406Y-100009551D01*
X147639547Y-100040369D01*
X147493350Y-100069694D01*
X147370212Y-100095921D01*
X147277530Y-100117446D01*
X147222698Y-100132665D01*
X147211676Y-100137493D01*
X147200881Y-100170174D01*
X147192170Y-100243985D01*
X147185539Y-100350292D01*
X147180981Y-100480467D01*
X147178490Y-100625876D01*
X147178061Y-100777890D01*
X147179688Y-100927877D01*
X147183364Y-101067206D01*
X147189084Y-101187245D01*
X147196842Y-101279365D01*
X147206631Y-101334932D01*
X147212503Y-101346500D01*
X147247600Y-101360365D01*
X147321971Y-101380188D01*
X147425776Y-101403639D01*
X147549180Y-101428391D01*
X147592258Y-101436398D01*
X147799952Y-101474441D01*
X147964015Y-101505079D01*
X148089869Y-101529529D01*
X148182934Y-101549009D01*
X148248632Y-101564736D01*
X148292382Y-101577928D01*
X148319607Y-101589804D01*
X148335727Y-101601580D01*
X148337982Y-101603908D01*
X148360496Y-101641400D01*
X148394841Y-101714365D01*
X148437588Y-101813867D01*
X148485307Y-101930973D01*
X148534569Y-102056748D01*
X148581944Y-102182257D01*
X148624004Y-102298565D01*
X148657319Y-102396739D01*
X148678458Y-102467843D01*
X148683994Y-102502942D01*
X148683533Y-102504172D01*
X148664776Y-102532861D01*
X148622223Y-102595985D01*
X148560346Y-102686973D01*
X148483617Y-102799255D01*
X148396508Y-102926260D01*
X148371701Y-102962353D01*
X148283247Y-103093203D01*
X148205411Y-103212591D01*
X148142433Y-103313662D01*
X148098554Y-103389559D01*
X148078014Y-103433427D01*
X148077019Y-103438817D01*
X148094277Y-103467144D01*
X148141964Y-103523261D01*
X148213949Y-103601137D01*
X148304102Y-103694740D01*
X148406294Y-103798041D01*
X148514394Y-103905006D01*
X148622271Y-104009606D01*
X148723795Y-104105809D01*
X148812837Y-104187584D01*
X148883266Y-104248900D01*
X148928952Y-104283726D01*
X148941590Y-104289412D01*
X148971008Y-104276020D01*
X149031238Y-104239899D01*
X149112470Y-104187136D01*
X149174969Y-104144667D01*
X149288214Y-104066740D01*
X149422325Y-103974984D01*
X149556844Y-103883375D01*
X149629166Y-103834346D01*
X149873961Y-103668770D01*
X150079449Y-103779875D01*
X150173063Y-103828548D01*
X150252669Y-103866381D01*
X150306532Y-103887958D01*
X150320242Y-103890961D01*
X150336729Y-103868793D01*
X150369254Y-103806149D01*
X150415391Y-103708809D01*
X150472709Y-103582549D01*
X150538783Y-103433150D01*
X150611184Y-103266388D01*
X150687483Y-103088042D01*
X150765253Y-102903891D01*
X150842065Y-102719712D01*
X150915493Y-102541285D01*
X150983107Y-102374387D01*
X151042479Y-102224797D01*
X151091183Y-102098293D01*
X151126789Y-102000654D01*
X151146869Y-101937657D01*
X151150099Y-101916021D01*
X151124503Y-101888424D01*
X151068461Y-101843625D01*
X150993688Y-101790934D01*
X150987412Y-101786765D01*
X150794154Y-101632069D01*
X150638325Y-101451591D01*
X150521275Y-101251102D01*
X150444354Y-101036374D01*
X150408913Y-100813177D01*
X150416302Y-100587281D01*
X150467872Y-100364459D01*
X150564973Y-100150479D01*
X150593541Y-100103664D01*
X150742131Y-99914618D01*
X150917672Y-99762812D01*
X151114089Y-99649034D01*
X151325306Y-99574075D01*
X151545246Y-99538722D01*
X151767836Y-99543767D01*
X151986998Y-99589999D01*
X152196657Y-99678206D01*
X152390738Y-99809179D01*
X152450773Y-99862337D01*
X152603564Y-100028739D01*
X152714902Y-100203912D01*
X152791276Y-100400266D01*
X152833812Y-100594717D01*
X152844313Y-100813342D01*
X152809299Y-101033052D01*
X152732326Y-101246420D01*
X152616952Y-101446022D01*
X152466734Y-101624429D01*
X152285226Y-101774217D01*
X152261372Y-101790006D01*
X152185798Y-101841712D01*
X152128348Y-101886512D01*
X152100882Y-101915117D01*
X152100482Y-101916021D01*
X152106379Y-101946964D01*
X152129754Y-102017191D01*
X152168178Y-102120925D01*
X152219222Y-102252390D01*
X152280457Y-102405807D01*
X152349455Y-102575401D01*
X152423786Y-102755393D01*
X152501021Y-102940008D01*
X152578731Y-103123468D01*
X152654488Y-103299996D01*
X152725862Y-103463814D01*
X152790425Y-103609147D01*
X152845747Y-103730217D01*
X152889399Y-103821247D01*
X152918953Y-103876460D01*
X152930855Y-103890961D01*
X152967222Y-103879669D01*
X153035269Y-103849385D01*
X153123263Y-103805520D01*
X153171649Y-103779875D01*
X153377136Y-103668770D01*
X153621931Y-103834346D01*
X153746893Y-103919170D01*
X153883704Y-104012516D01*
X154011911Y-104100408D01*
X154076128Y-104144667D01*
X154166448Y-104205318D01*
X154242928Y-104253381D01*
X154295592Y-104282770D01*
X154312697Y-104288982D01*
X154337594Y-104272223D01*
X154392694Y-104225436D01*
X154472656Y-104153480D01*
X154572139Y-104061212D01*
X154685799Y-103953490D01*
X154757684Y-103884326D01*
X154883448Y-103760757D01*
X154992136Y-103650234D01*
X155079354Y-103557485D01*
X155140710Y-103487237D01*
X155171808Y-103444220D01*
X155174791Y-103435490D01*
X155160946Y-103402284D01*
X155122687Y-103335142D01*
X155064258Y-103240863D01*
X154989902Y-103126245D01*
X154903864Y-102998083D01*
X154879397Y-102962353D01*
X154790245Y-102832489D01*
X154710261Y-102715569D01*
X154643919Y-102618162D01*
X154595688Y-102546839D01*
X154570042Y-102508170D01*
X154567564Y-102504172D01*
X154571270Y-102473355D01*
X154590938Y-102405599D01*
X154623139Y-102309839D01*
X154664444Y-102195009D01*
X154711424Y-102070044D01*
X154760650Y-101943879D01*
X154808691Y-101825448D01*
X154852118Y-101723685D01*
X154887503Y-101647526D01*
X154911415Y-101605904D01*
X154913115Y-101603908D01*
X154927737Y-101592013D01*
X154952434Y-101580250D01*
X154992627Y-101567401D01*
X155053736Y-101552249D01*
X155141182Y-101533576D01*
X155260387Y-101510165D01*
X155416772Y-101480797D01*
X155615756Y-101444255D01*
X155658839Y-101436398D01*
X155786529Y-101411727D01*
X155897846Y-101387593D01*
X155982954Y-101366324D01*
X156032016Y-101350248D01*
X156038594Y-101346500D01*
X156049435Y-101313273D01*
X156058246Y-101239021D01*
X156065023Y-101132376D01*
X156069759Y-101001967D01*
X156072449Y-100856427D01*
X156073086Y-100704386D01*
X156071665Y-100554476D01*
X156068179Y-100415328D01*
X156062623Y-100295572D01*
X156054991Y-100203841D01*
X156045277Y-100148766D01*
X156039421Y-100137493D01*
X156006819Y-100126123D01*
X155932581Y-100107624D01*
X155824103Y-100083602D01*
X155688782Y-100055662D01*
X155534014Y-100025408D01*
X155449692Y-100009551D01*
X155289703Y-99979644D01*
X155147032Y-99952550D01*
X155028651Y-99929631D01*
X154941534Y-99912243D01*
X154892654Y-99901747D01*
X154884609Y-99899420D01*
X154871012Y-99873186D01*
X154842270Y-99809995D01*
X154802214Y-99718877D01*
X154754675Y-99608857D01*
X154703484Y-99488965D01*
X154652473Y-99368227D01*
X154605473Y-99255671D01*
X154566315Y-99160326D01*
X154538830Y-99091217D01*
X154526850Y-99057374D01*
X154526627Y-99055895D01*
X154540208Y-99029197D01*
X154578284Y-98967760D01*
X154636852Y-98877689D01*
X154711911Y-98765090D01*
X154799459Y-98636070D01*
X154850352Y-98561961D01*
X154943090Y-98426077D01*
X155025458Y-98302709D01*
X155093438Y-98198097D01*
X155143011Y-98118483D01*
X155170157Y-98070107D01*
X155174078Y-98059262D01*
X155157224Y-98034020D01*
X155110631Y-97980124D01*
X155040251Y-97903613D01*
X154952034Y-97810523D01*
X154851934Y-97706895D01*
X154745901Y-97598764D01*
X154639888Y-97492170D01*
X154539847Y-97393150D01*
X154451729Y-97307742D01*
X154381486Y-97241985D01*
X154335071Y-97201916D01*
X154319543Y-97192353D01*
X154294260Y-97205800D01*
X154233788Y-97243575D01*
X154144007Y-97301835D01*
X154030796Y-97376734D01*
X153900036Y-97464425D01*
X153801400Y-97531233D01*
X153303042Y-97870112D01*
X152887629Y-97698865D01*
X152472215Y-97527618D01*
X152359633Y-96930427D01*
X152247050Y-96333235D01*
X151004047Y-96333235D01*
X150891464Y-96930427D01*
D12*
X148693143Y-129373334D02*
X148740762Y-129325715D01*
X148788381Y-129182858D01*
X148788381Y-129087620D01*
X148740762Y-128944762D01*
X148645524Y-128849524D01*
X148550286Y-128801905D01*
X148359810Y-128754286D01*
X148216952Y-128754286D01*
X148026476Y-128801905D01*
X147931238Y-128849524D01*
X147836000Y-128944762D01*
X147788381Y-129087620D01*
X147788381Y-129182858D01*
X147836000Y-129325715D01*
X147883619Y-129373334D01*
X148788381Y-130325715D02*
X148788381Y-129754286D01*
X148788381Y-130040000D02*
X147788381Y-130040000D01*
X147931238Y-129944762D01*
X148026476Y-129849524D01*
X148074095Y-129754286D01*
X144121143Y-127087334D02*
X144168762Y-127039715D01*
X144216381Y-126896858D01*
X144216381Y-126801620D01*
X144168762Y-126658762D01*
X144073524Y-126563524D01*
X143978286Y-126515905D01*
X143787810Y-126468286D01*
X143644952Y-126468286D01*
X143454476Y-126515905D01*
X143359238Y-126563524D01*
X143264000Y-126658762D01*
X143216381Y-126801620D01*
X143216381Y-126896858D01*
X143264000Y-127039715D01*
X143311619Y-127087334D01*
X143644952Y-127658762D02*
X143597333Y-127563524D01*
X143549714Y-127515905D01*
X143454476Y-127468286D01*
X143406857Y-127468286D01*
X143311619Y-127515905D01*
X143264000Y-127563524D01*
X143216381Y-127658762D01*
X143216381Y-127849239D01*
X143264000Y-127944477D01*
X143311619Y-127992096D01*
X143406857Y-128039715D01*
X143454476Y-128039715D01*
X143549714Y-127992096D01*
X143597333Y-127944477D01*
X143644952Y-127849239D01*
X143644952Y-127658762D01*
X143692571Y-127563524D01*
X143740190Y-127515905D01*
X143835429Y-127468286D01*
X144025905Y-127468286D01*
X144121143Y-127515905D01*
X144168762Y-127563524D01*
X144216381Y-127658762D01*
X144216381Y-127849239D01*
X144168762Y-127944477D01*
X144121143Y-127992096D01*
X144025905Y-128039715D01*
X143835429Y-128039715D01*
X143740190Y-127992096D01*
X143692571Y-127944477D01*
X143644952Y-127849239D01*
X164187143Y-127087334D02*
X164234762Y-127039715D01*
X164282381Y-126896858D01*
X164282381Y-126801620D01*
X164234762Y-126658762D01*
X164139524Y-126563524D01*
X164044286Y-126515905D01*
X163853810Y-126468286D01*
X163710952Y-126468286D01*
X163520476Y-126515905D01*
X163425238Y-126563524D01*
X163330000Y-126658762D01*
X163282381Y-126801620D01*
X163282381Y-126896858D01*
X163330000Y-127039715D01*
X163377619Y-127087334D01*
X164282381Y-127563524D02*
X164282381Y-127754000D01*
X164234762Y-127849239D01*
X164187143Y-127896858D01*
X164044286Y-127992096D01*
X163853810Y-128039715D01*
X163472857Y-128039715D01*
X163377619Y-127992096D01*
X163330000Y-127944477D01*
X163282381Y-127849239D01*
X163282381Y-127658762D01*
X163330000Y-127563524D01*
X163377619Y-127515905D01*
X163472857Y-127468286D01*
X163710952Y-127468286D01*
X163806190Y-127515905D01*
X163853810Y-127563524D01*
X163901429Y-127658762D01*
X163901429Y-127849239D01*
X163853810Y-127944477D01*
X163806190Y-127992096D01*
X163710952Y-128039715D01*
X140311143Y-127119143D02*
X140358762Y-127071524D01*
X140406381Y-126928667D01*
X140406381Y-126833429D01*
X140358762Y-126690571D01*
X140263524Y-126595333D01*
X140168286Y-126547714D01*
X139977810Y-126500095D01*
X139834952Y-126500095D01*
X139644476Y-126547714D01*
X139549238Y-126595333D01*
X139454000Y-126690571D01*
X139406381Y-126833429D01*
X139406381Y-126928667D01*
X139454000Y-127071524D01*
X139501619Y-127119143D01*
X140406381Y-128071524D02*
X140406381Y-127500095D01*
X140406381Y-127785809D02*
X139406381Y-127785809D01*
X139549238Y-127690571D01*
X139644476Y-127595333D01*
X139692095Y-127500095D01*
X139406381Y-128690571D02*
X139406381Y-128785810D01*
X139454000Y-128881048D01*
X139501619Y-128928667D01*
X139596857Y-128976286D01*
X139787333Y-129023905D01*
X140025429Y-129023905D01*
X140215905Y-128976286D01*
X140311143Y-128928667D01*
X140358762Y-128881048D01*
X140406381Y-128785810D01*
X140406381Y-128690571D01*
X140358762Y-128595333D01*
X140311143Y-128547714D01*
X140215905Y-128500095D01*
X140025429Y-128452476D01*
X139787333Y-128452476D01*
X139596857Y-128500095D01*
X139501619Y-128547714D01*
X139454000Y-128595333D01*
X139406381Y-128690571D01*
X160377143Y-127119143D02*
X160424762Y-127071524D01*
X160472381Y-126928667D01*
X160472381Y-126833429D01*
X160424762Y-126690571D01*
X160329524Y-126595333D01*
X160234286Y-126547714D01*
X160043810Y-126500095D01*
X159900952Y-126500095D01*
X159710476Y-126547714D01*
X159615238Y-126595333D01*
X159520000Y-126690571D01*
X159472381Y-126833429D01*
X159472381Y-126928667D01*
X159520000Y-127071524D01*
X159567619Y-127119143D01*
X160472381Y-128071524D02*
X160472381Y-127500095D01*
X160472381Y-127785809D02*
X159472381Y-127785809D01*
X159615238Y-127690571D01*
X159710476Y-127595333D01*
X159758095Y-127500095D01*
X160472381Y-129023905D02*
X160472381Y-128452476D01*
X160472381Y-128738190D02*
X159472381Y-128738190D01*
X159615238Y-128642952D01*
X159710476Y-128547714D01*
X159758095Y-128452476D01*
X142438381Y-127119143D02*
X141962190Y-126785809D01*
X142438381Y-126547714D02*
X141438381Y-126547714D01*
X141438381Y-126928667D01*
X141486000Y-127023905D01*
X141533619Y-127071524D01*
X141628857Y-127119143D01*
X141771714Y-127119143D01*
X141866952Y-127071524D01*
X141914571Y-127023905D01*
X141962190Y-126928667D01*
X141962190Y-126547714D01*
X142438381Y-128071524D02*
X142438381Y-127500095D01*
X142438381Y-127785809D02*
X141438381Y-127785809D01*
X141581238Y-127690571D01*
X141676476Y-127595333D01*
X141724095Y-127500095D01*
X141438381Y-128404857D02*
X141438381Y-129023905D01*
X141819333Y-128690571D01*
X141819333Y-128833429D01*
X141866952Y-128928667D01*
X141914571Y-128976286D01*
X142009810Y-129023905D01*
X142247905Y-129023905D01*
X142343143Y-128976286D01*
X142390762Y-128928667D01*
X142438381Y-128833429D01*
X142438381Y-128547714D01*
X142390762Y-128452476D01*
X142343143Y-128404857D01*
X162250381Y-127119143D02*
X161774190Y-126785809D01*
X162250381Y-126547714D02*
X161250381Y-126547714D01*
X161250381Y-126928667D01*
X161298000Y-127023905D01*
X161345619Y-127071524D01*
X161440857Y-127119143D01*
X161583714Y-127119143D01*
X161678952Y-127071524D01*
X161726571Y-127023905D01*
X161774190Y-126928667D01*
X161774190Y-126547714D01*
X162250381Y-128071524D02*
X162250381Y-127500095D01*
X162250381Y-127785809D02*
X161250381Y-127785809D01*
X161393238Y-127690571D01*
X161488476Y-127595333D01*
X161536095Y-127500095D01*
X161583714Y-128928667D02*
X162250381Y-128928667D01*
X161202762Y-128690571D02*
X161917048Y-128452476D01*
X161917048Y-129071524D01*
X148296381Y-124206095D02*
X149105905Y-124206095D01*
X149201143Y-124253714D01*
X149248762Y-124301333D01*
X149296381Y-124396571D01*
X149296381Y-124587048D01*
X149248762Y-124682286D01*
X149201143Y-124729905D01*
X149105905Y-124777524D01*
X148296381Y-124777524D01*
X148296381Y-125158476D02*
X148296381Y-125777524D01*
X148677333Y-125444190D01*
X148677333Y-125587048D01*
X148724952Y-125682286D01*
X148772571Y-125729905D01*
X148867810Y-125777524D01*
X149105905Y-125777524D01*
X149201143Y-125729905D01*
X149248762Y-125682286D01*
X149296381Y-125587048D01*
X149296381Y-125301333D01*
X149248762Y-125206095D01*
X149201143Y-125158476D01*
M02*
