G04 #@! TF.FileFunction,Soldermask,Top*
%FSLAX46Y46*%
G04 Gerber Fmt 4.6, Leading zero omitted, Abs format (unit mm)*
G04 Created by KiCad (PCBNEW 4.0.6-e0-6349~53~ubuntu16.04.1) date Sat May 27 22:55:55 2017*
%MOMM*%
%LPD*%
G01*
G04 APERTURE LIST*
%ADD10C,0.100000*%
%ADD11R,1.650000X1.900000*%
%ADD12R,1.050000X1.960000*%
%ADD13R,10.400000X7.400000*%
%ADD14R,1.900000X1.650000*%
%ADD15R,2.000000X3.900000*%
%ADD16R,1.600000X1.600000*%
%ADD17C,1.900000*%
%ADD18C,3.400000*%
%ADD19O,6.400000X4.200000*%
%ADD20R,1.700000X1.900000*%
%ADD21R,1.900000X1.700000*%
%ADD22C,3.600000*%
%ADD23R,2.900000X2.900000*%
%ADD24C,2.900000*%
G04 APERTURE END LIST*
D10*
D11*
X149479000Y-109240000D03*
X149479000Y-111740000D03*
D12*
X145476000Y-109140000D03*
X144526000Y-109140000D03*
X143576000Y-109140000D03*
X143576000Y-111840000D03*
X145476000Y-111840000D03*
X144526000Y-111840000D03*
D13*
X128130800Y-84683600D03*
X128130800Y-94335600D03*
D11*
X169418000Y-109240000D03*
X169418000Y-111740000D03*
D14*
X146832000Y-114046000D03*
X149332000Y-114046000D03*
X166771000Y-114046000D03*
X169271000Y-114046000D03*
D15*
X136398000Y-114206000D03*
X136398000Y-108806000D03*
X156337000Y-114206000D03*
X156337000Y-108806000D03*
D16*
X151511000Y-123487000D03*
X151511000Y-125687000D03*
X171450000Y-123487000D03*
X171450000Y-125687000D03*
X151511000Y-127551000D03*
X151511000Y-129751000D03*
X171450000Y-127551000D03*
X171450000Y-129751000D03*
D17*
X145413000Y-117856000D03*
X142873000Y-117856000D03*
X140843000Y-117856000D03*
X138303000Y-117856000D03*
D18*
X148463000Y-120526000D03*
X134743000Y-120526000D03*
D17*
X165352000Y-117856000D03*
X162812000Y-117856000D03*
X160782000Y-117856000D03*
X158242000Y-117856000D03*
D18*
X168402000Y-120526000D03*
X154682000Y-120526000D03*
D19*
X165473000Y-84709000D03*
X165473000Y-94352000D03*
D20*
X151511000Y-113966000D03*
X151511000Y-116666000D03*
X171450000Y-113966000D03*
X171450000Y-116666000D03*
X151511000Y-109140000D03*
X151511000Y-111840000D03*
X171450000Y-109140000D03*
X171450000Y-111840000D03*
X141605000Y-109140000D03*
X141605000Y-111840000D03*
X161544000Y-109140000D03*
X161544000Y-111840000D03*
X147447000Y-109140000D03*
X147447000Y-111840000D03*
X167386000Y-109140000D03*
X167386000Y-111840000D03*
D21*
X144479000Y-114046000D03*
X141779000Y-114046000D03*
X164418000Y-114046000D03*
X161718000Y-114046000D03*
D20*
X151511000Y-118792000D03*
X151511000Y-121492000D03*
X171450000Y-118792000D03*
X171450000Y-121492000D03*
D12*
X165415000Y-109140000D03*
X164465000Y-109140000D03*
X163515000Y-109140000D03*
X163515000Y-111840000D03*
X165415000Y-111840000D03*
X164465000Y-111840000D03*
D22*
X151638000Y-100838000D03*
D23*
X144627600Y-89509600D03*
D24*
X139627600Y-89509600D03*
M02*
