G04 #@! TF.FileFunction,Copper,L2,Bot,Signal*
%FSLAX46Y46*%
G04 Gerber Fmt 4.6, Leading zero omitted, Abs format (unit mm)*
G04 Created by KiCad (PCBNEW 4.0.6-e0-6349~53~ubuntu16.04.1) date Thu Apr 27 18:13:27 2017*
%MOMM*%
%LPD*%
G01*
G04 APERTURE LIST*
%ADD10C,0.100000*%
%ADD11C,0.381000*%
%ADD12R,10.000000X7.000000*%
%ADD13R,1.500000X1.250000*%
%ADD14R,1.250000X1.500000*%
%ADD15C,2.400000*%
%ADD16R,2.400000X2.400000*%
%ADD17C,1.500000*%
%ADD18C,3.000000*%
%ADD19O,5.000000X3.800000*%
%ADD20R,1.300000X1.500000*%
%ADD21R,0.650000X1.560000*%
%ADD22C,1.270000*%
%ADD23C,5.080000*%
%ADD24C,3.810000*%
%ADD25C,2.540000*%
%ADD26C,0.635000*%
%ADD27C,1.270000*%
%ADD28C,0.254000*%
%ADD29C,0.203200*%
G04 APERTURE END LIST*
D10*
D11*
X148521420Y-91231720D02*
X148521420Y-92831920D01*
X148521420Y-92831920D02*
X147322540Y-92831920D01*
X151020780Y-92831920D02*
X151020780Y-91330780D01*
X151020780Y-91330780D02*
X150121620Y-91330780D01*
X150121620Y-91330780D02*
X149920960Y-91330780D01*
X149920960Y-91330780D02*
X149722840Y-91432380D01*
X149722840Y-91432380D02*
X149621240Y-91633040D01*
X149621240Y-91633040D02*
X149621240Y-91831160D01*
X149621240Y-91831160D02*
X149821900Y-92031820D01*
X149821900Y-92031820D02*
X150121620Y-92130880D01*
X150121620Y-92130880D02*
X151020780Y-92130880D01*
X152222200Y-91432380D02*
X152422860Y-91330780D01*
X152422860Y-91330780D02*
X152923240Y-91330780D01*
X152923240Y-91330780D02*
X153222960Y-91432380D01*
X153222960Y-91432380D02*
X153421080Y-91531440D01*
X153421080Y-91531440D02*
X153621740Y-91831160D01*
X153621740Y-91831160D02*
X153621740Y-92130880D01*
X153621740Y-92130880D02*
X153522680Y-92532200D01*
X153522680Y-92532200D02*
X153222960Y-92732860D01*
X153222960Y-92732860D02*
X152923240Y-92831920D01*
X152923240Y-92831920D02*
X152620980Y-92831920D01*
X152620980Y-92831920D02*
X152123140Y-92732860D01*
X152123140Y-92732860D02*
X152123140Y-92232480D01*
X152123140Y-92232480D02*
X152620980Y-92232480D01*
X148821140Y-88732360D02*
X148821140Y-90032840D01*
X148821140Y-90032840D02*
X148521420Y-90230960D01*
X148521420Y-90230960D02*
X148221700Y-90230960D01*
X148221700Y-90230960D02*
X147822920Y-90230960D01*
X147822920Y-90230960D02*
X147523200Y-90131900D01*
X147523200Y-90131900D02*
X147322540Y-90032840D01*
X147322540Y-90032840D02*
X147322540Y-88732360D01*
X151422100Y-90230960D02*
X151422100Y-88732360D01*
X151422100Y-88732360D02*
X149920960Y-90230960D01*
X149920960Y-90230960D02*
X149920960Y-88732360D01*
X152620980Y-88831420D02*
X152923240Y-88732360D01*
X152923240Y-88732360D02*
X153421080Y-88831420D01*
X153421080Y-88831420D02*
X153822400Y-89032080D01*
X153822400Y-89032080D02*
X154023060Y-89430860D01*
X154023060Y-89430860D02*
X153921460Y-89832180D01*
X153921460Y-89832180D02*
X153621740Y-90131900D01*
X153621740Y-90131900D02*
X153121360Y-90332560D01*
X153121360Y-90332560D02*
X152422860Y-90131900D01*
X152422860Y-90131900D02*
X152422860Y-89631520D01*
X152422860Y-89631520D02*
X152923240Y-89631520D01*
X154686000Y-87884000D02*
X146558000Y-87884000D01*
X146558000Y-87884000D02*
X146558000Y-93472000D01*
X146558000Y-93472000D02*
X154686000Y-93472000D01*
X154686000Y-93472000D02*
X154686000Y-87884000D01*
D12*
X128130800Y-84683600D03*
X128130800Y-94335600D03*
D13*
X150241000Y-129794000D03*
X152741000Y-129794000D03*
D14*
X143764000Y-120670000D03*
X143764000Y-123170000D03*
X163703000Y-120670000D03*
X163703000Y-123170000D03*
X139954000Y-120670000D03*
X139954000Y-123170000D03*
X159893000Y-120670000D03*
X159893000Y-123170000D03*
D15*
X141127600Y-89509600D03*
D16*
X144627600Y-89509600D03*
D17*
X145413000Y-117856000D03*
X142873000Y-117856000D03*
X140843000Y-117856000D03*
X138303000Y-117856000D03*
D18*
X148463000Y-120526000D03*
X134743000Y-120526000D03*
D17*
X165352000Y-117856000D03*
X162812000Y-117856000D03*
X160782000Y-117856000D03*
X158242000Y-117856000D03*
D18*
X168402000Y-120526000D03*
X154682000Y-120526000D03*
D19*
X164973000Y-84709000D03*
X164973000Y-94352000D03*
D20*
X141859000Y-120570000D03*
X141859000Y-123270000D03*
X161798000Y-120570000D03*
X161798000Y-123270000D03*
D21*
X150561000Y-125015000D03*
X151511000Y-125015000D03*
X152461000Y-125015000D03*
X152461000Y-127715000D03*
X150561000Y-127715000D03*
X151511000Y-127715000D03*
D22*
X149446521Y-115821217D03*
X149397778Y-127891267D03*
X169965944Y-124739764D03*
X169364208Y-116001836D03*
X171450000Y-107442000D03*
X164592000Y-110744000D03*
X151511000Y-107442000D03*
X144653000Y-110617000D03*
X163703000Y-125476000D03*
X161798000Y-125476000D03*
X159893000Y-125476000D03*
X143764000Y-125476000D03*
X141859000Y-125476000D03*
X139954000Y-125476000D03*
D23*
X132130800Y-84683600D02*
X145770600Y-84683600D01*
D24*
X164973000Y-84709000D02*
X160655000Y-84709000D01*
D23*
X145796000Y-84709000D02*
X160655000Y-84709000D01*
D25*
X149446521Y-113870209D02*
X149446521Y-114923192D01*
D26*
X149570169Y-116078000D02*
X149446521Y-115954352D01*
D25*
X149479000Y-113837730D02*
X149446521Y-113870209D01*
D26*
X149446521Y-115954352D02*
X149446521Y-115821217D01*
D25*
X149446521Y-114923192D02*
X149446521Y-115821217D01*
X144627600Y-89509600D02*
X144627600Y-110591600D01*
D27*
X144627600Y-110591600D02*
X144653000Y-110617000D01*
D25*
X144627600Y-89509600D02*
X144627600Y-85877400D01*
D27*
X164592000Y-113837730D02*
X151511000Y-113837730D01*
X151511000Y-113837730D02*
X149479000Y-113837730D01*
D26*
X151511000Y-107442000D02*
X151511000Y-108340025D01*
X151511000Y-108340025D02*
X151511000Y-113837730D01*
D25*
X149479000Y-113837730D02*
X147238730Y-113837730D01*
X147238730Y-113837730D02*
X144653000Y-111252000D01*
D27*
X164592000Y-113837730D02*
X167200102Y-113837730D01*
X164592000Y-111642025D02*
X164592000Y-113837730D01*
X167200102Y-113837730D02*
X167722940Y-114360568D01*
X167722940Y-114360568D02*
X169364208Y-116001836D01*
X144653000Y-110617000D02*
X144653000Y-111252000D01*
X164592000Y-110744000D02*
X164592000Y-111642025D01*
D26*
X171450000Y-107442000D02*
X171450000Y-113916044D01*
X171450000Y-113916044D02*
X169364208Y-116001836D01*
D28*
X150241000Y-129794000D02*
X150241000Y-129655852D01*
X150241000Y-129655852D02*
X149397778Y-128812630D01*
X149397778Y-128812630D02*
X149397778Y-128789292D01*
X149397778Y-128789292D02*
X149397778Y-127891267D01*
X169364208Y-116001836D02*
X170600943Y-117238571D01*
X170600943Y-117238571D02*
X170600943Y-124104765D01*
X170600943Y-124104765D02*
X169965944Y-124739764D01*
X150241000Y-129794000D02*
X151245000Y-129794000D01*
X151511000Y-128749000D02*
X151511000Y-127715000D01*
X151245000Y-129794000D02*
X151511000Y-129528000D01*
X151511000Y-129528000D02*
X151511000Y-128749000D01*
D23*
X132130800Y-94335600D02*
X133705600Y-94335600D01*
D24*
X164973000Y-94361000D02*
X161417000Y-94361000D01*
D27*
X145413000Y-117856000D02*
X145413000Y-116461000D01*
X161798000Y-125476000D02*
X161798000Y-123270000D01*
X163703000Y-125476000D02*
X163703000Y-123170000D01*
X159893000Y-123170000D02*
X159893000Y-125476000D01*
X141859000Y-125476000D02*
X141859000Y-123270000D01*
X143764000Y-125476000D02*
X143764000Y-123170000D01*
X139954000Y-123170000D02*
X139954000Y-125476000D01*
D28*
X143764000Y-120670000D02*
X141959000Y-120670000D01*
X141959000Y-120670000D02*
X141859000Y-120570000D01*
X139954000Y-120670000D02*
X141759000Y-120670000D01*
X141759000Y-120670000D02*
X141859000Y-120570000D01*
X148463000Y-120526000D02*
X143908000Y-120526000D01*
X143908000Y-120526000D02*
X143764000Y-120670000D01*
X134743000Y-120526000D02*
X139810000Y-120526000D01*
X139810000Y-120526000D02*
X139954000Y-120670000D01*
X163703000Y-120670000D02*
X161898000Y-120670000D01*
X161898000Y-120670000D02*
X161798000Y-120570000D01*
X159893000Y-120670000D02*
X161698000Y-120670000D01*
X161698000Y-120670000D02*
X161798000Y-120570000D01*
X168402000Y-120526000D02*
X163847000Y-120526000D01*
X163847000Y-120526000D02*
X163703000Y-120670000D01*
X154682000Y-120526000D02*
X159749000Y-120526000D01*
X159749000Y-120526000D02*
X159893000Y-120670000D01*
X150561000Y-123981000D02*
X150561000Y-125015000D01*
X150903302Y-123638698D02*
X150561000Y-123981000D01*
X150903302Y-119394061D02*
X150903302Y-123638698D01*
X146443830Y-119021098D02*
X147391354Y-118073573D01*
X147391354Y-118073573D02*
X149582814Y-118073573D01*
X144038098Y-119021098D02*
X146443830Y-119021098D01*
X142873000Y-117856000D02*
X144038098Y-119021098D01*
X149582814Y-118073573D02*
X150903302Y-119394061D01*
X147580736Y-118530784D02*
X149393432Y-118530784D01*
X142465309Y-119478309D02*
X146633211Y-119478309D01*
X140843000Y-117856000D02*
X142465309Y-119478309D01*
X150561000Y-126673775D02*
X150561000Y-126681000D01*
X146633211Y-119478309D02*
X147580736Y-118530784D01*
X149837207Y-123091454D02*
X149837207Y-125949982D01*
X150446091Y-119583443D02*
X150446091Y-122482570D01*
X149393432Y-118530784D02*
X150446091Y-119583443D01*
X150446091Y-122482570D02*
X149837207Y-123091454D01*
X149837207Y-125949982D02*
X150561000Y-126673775D01*
X150561000Y-126681000D02*
X150561000Y-127715000D01*
X152221587Y-123741587D02*
X152461000Y-123981000D01*
X162812000Y-117856000D02*
X161151611Y-116195611D01*
X161151611Y-116195611D02*
X155417152Y-116195611D01*
X155417152Y-116195611D02*
X152221587Y-119391176D01*
X152221587Y-119391176D02*
X152221587Y-123741587D01*
X152461000Y-123981000D02*
X152461000Y-125015000D01*
X160782000Y-117856000D02*
X159578822Y-116652822D01*
X159578822Y-116652822D02*
X155606533Y-116652822D01*
X155606533Y-116652822D02*
X152678798Y-119580557D01*
X152678798Y-119580557D02*
X152678798Y-122495619D01*
X152678798Y-122495619D02*
X153173018Y-122989839D01*
X153173018Y-122989839D02*
X153173018Y-125968982D01*
X153173018Y-125968982D02*
X152461000Y-126681000D01*
X152461000Y-126681000D02*
X152461000Y-127715000D01*
D29*
G36*
X162002400Y-92443000D02*
X162035177Y-92607783D01*
X162128520Y-92747480D01*
X162268217Y-92840823D01*
X162331400Y-92853391D01*
X162331400Y-92958059D01*
X161996110Y-93532417D01*
X161922713Y-93809613D01*
X162020732Y-94199600D01*
X162331400Y-94199600D01*
X162331400Y-94504400D01*
X162020732Y-94504400D01*
X161922713Y-94894387D01*
X161996110Y-95171583D01*
X162331400Y-95745942D01*
X162331400Y-95832609D01*
X162268217Y-95845177D01*
X162128520Y-95938520D01*
X162035177Y-96078217D01*
X162002400Y-96243000D01*
X162002400Y-98526000D01*
X162035177Y-98690783D01*
X162128520Y-98830480D01*
X162268217Y-98923823D01*
X162433000Y-98956600D01*
X172505400Y-98956600D01*
X172505400Y-130595400D01*
X154077759Y-130595400D01*
X154100600Y-130540257D01*
X154100600Y-130098800D01*
X153948200Y-129946400D01*
X152893400Y-129946400D01*
X152893400Y-129966400D01*
X152588600Y-129966400D01*
X152588600Y-129946400D01*
X152568600Y-129946400D01*
X152568600Y-129641600D01*
X152588600Y-129641600D01*
X152588600Y-129621600D01*
X152893400Y-129621600D01*
X152893400Y-129641600D01*
X153948200Y-129641600D01*
X154100600Y-129489200D01*
X154100600Y-129047743D01*
X154007794Y-128823689D01*
X153836311Y-128652206D01*
X153612257Y-128559400D01*
X153135525Y-128559400D01*
X153148566Y-128495000D01*
X153148566Y-126935000D01*
X153123770Y-126803223D01*
X153083640Y-126740859D01*
X153514265Y-126310234D01*
X153514268Y-126310232D01*
X153618882Y-126153665D01*
X153639939Y-126047807D01*
X153655619Y-125968982D01*
X153655618Y-125968977D01*
X153655618Y-123474800D01*
X158658400Y-123474800D01*
X158658400Y-124041257D01*
X158751206Y-124265311D01*
X158922689Y-124436794D01*
X159146743Y-124529600D01*
X159588200Y-124529600D01*
X159740600Y-124377200D01*
X159740600Y-123322400D01*
X160045400Y-123322400D01*
X160045400Y-124377200D01*
X160197800Y-124529600D01*
X160639257Y-124529600D01*
X160749734Y-124483839D01*
X160802689Y-124536794D01*
X161026743Y-124629600D01*
X161493200Y-124629600D01*
X161645600Y-124477200D01*
X161645600Y-123422400D01*
X161950400Y-123422400D01*
X161950400Y-124477200D01*
X162102800Y-124629600D01*
X162569257Y-124629600D01*
X162793311Y-124536794D01*
X162846266Y-124483839D01*
X162956743Y-124529600D01*
X163398200Y-124529600D01*
X163550600Y-124377200D01*
X163550600Y-123322400D01*
X163855400Y-123322400D01*
X163855400Y-124377200D01*
X164007800Y-124529600D01*
X164449257Y-124529600D01*
X164673311Y-124436794D01*
X164844794Y-124265311D01*
X164937600Y-124041257D01*
X164937600Y-123474800D01*
X164785200Y-123322400D01*
X163855400Y-123322400D01*
X163550600Y-123322400D01*
X162620800Y-123322400D01*
X162520800Y-123422400D01*
X161950400Y-123422400D01*
X161645600Y-123422400D01*
X161075200Y-123422400D01*
X160975200Y-123322400D01*
X160045400Y-123322400D01*
X159740600Y-123322400D01*
X158810800Y-123322400D01*
X158658400Y-123474800D01*
X153655618Y-123474800D01*
X153655618Y-122989844D01*
X153655619Y-122989839D01*
X153618882Y-122805156D01*
X153514268Y-122648589D01*
X153514265Y-122648587D01*
X153161398Y-122295719D01*
X153161398Y-121629249D01*
X153629515Y-122098184D01*
X154311279Y-122381277D01*
X155049482Y-122381921D01*
X155250788Y-122298743D01*
X158658400Y-122298743D01*
X158658400Y-122865200D01*
X158810800Y-123017600D01*
X159740600Y-123017600D01*
X159740600Y-121962800D01*
X160045400Y-121962800D01*
X160045400Y-123017600D01*
X160590800Y-123017600D01*
X160690800Y-123117600D01*
X161645600Y-123117600D01*
X161645600Y-122062800D01*
X161950400Y-122062800D01*
X161950400Y-123117600D01*
X162905200Y-123117600D01*
X163005200Y-123017600D01*
X163550600Y-123017600D01*
X163550600Y-121962800D01*
X163855400Y-121962800D01*
X163855400Y-123017600D01*
X164785200Y-123017600D01*
X164937600Y-122865200D01*
X164937600Y-122298743D01*
X164844794Y-122074689D01*
X164673311Y-121903206D01*
X164449257Y-121810400D01*
X164007800Y-121810400D01*
X163855400Y-121962800D01*
X163550600Y-121962800D01*
X163398200Y-121810400D01*
X162956743Y-121810400D01*
X162732689Y-121903206D01*
X162679734Y-121956161D01*
X162569257Y-121910400D01*
X162102800Y-121910400D01*
X161950400Y-122062800D01*
X161645600Y-122062800D01*
X161493200Y-121910400D01*
X161026743Y-121910400D01*
X160916266Y-121956161D01*
X160863311Y-121903206D01*
X160639257Y-121810400D01*
X160197800Y-121810400D01*
X160045400Y-121962800D01*
X159740600Y-121962800D01*
X159588200Y-121810400D01*
X159146743Y-121810400D01*
X158922689Y-121903206D01*
X158751206Y-122074689D01*
X158658400Y-122298743D01*
X155250788Y-122298743D01*
X155731740Y-122100018D01*
X156254184Y-121578485D01*
X156490821Y-121008600D01*
X158905434Y-121008600D01*
X158905434Y-121420000D01*
X158930230Y-121551777D01*
X159008110Y-121672807D01*
X159126942Y-121754001D01*
X159268000Y-121782566D01*
X160518000Y-121782566D01*
X160649777Y-121757770D01*
X160770807Y-121679890D01*
X160852001Y-121561058D01*
X160858835Y-121527312D01*
X160888110Y-121572807D01*
X161006942Y-121654001D01*
X161148000Y-121682566D01*
X162448000Y-121682566D01*
X162579777Y-121657770D01*
X162700807Y-121579890D01*
X162735865Y-121528580D01*
X162740230Y-121551777D01*
X162818110Y-121672807D01*
X162936942Y-121754001D01*
X163078000Y-121782566D01*
X164328000Y-121782566D01*
X164459777Y-121757770D01*
X164580807Y-121679890D01*
X164662001Y-121561058D01*
X164690566Y-121420000D01*
X164690566Y-121008600D01*
X166593645Y-121008600D01*
X166827982Y-121575740D01*
X167349515Y-122098184D01*
X168031279Y-122381277D01*
X168769482Y-122381921D01*
X169451740Y-122100018D01*
X169974184Y-121578485D01*
X170118343Y-121231311D01*
X170118343Y-123749296D01*
X169769766Y-123748992D01*
X169405547Y-123899485D01*
X169126644Y-124177902D01*
X168975516Y-124541857D01*
X168975172Y-124935942D01*
X169125665Y-125300161D01*
X169404082Y-125579064D01*
X169768037Y-125730192D01*
X170162122Y-125730536D01*
X170526341Y-125580043D01*
X170805244Y-125301626D01*
X170956372Y-124937671D01*
X170956716Y-124543586D01*
X170923942Y-124464266D01*
X170942193Y-124446015D01*
X171046807Y-124289448D01*
X171083543Y-124104765D01*
X171083543Y-117238571D01*
X171046807Y-117053888D01*
X170942193Y-116897321D01*
X170942190Y-116897319D01*
X170322355Y-116277484D01*
X170354636Y-116199743D01*
X170354843Y-115963109D01*
X171925951Y-114392000D01*
X171925954Y-114391998D01*
X172071863Y-114173628D01*
X172123100Y-113916044D01*
X172123100Y-108169772D01*
X172289300Y-108003862D01*
X172440428Y-107639907D01*
X172440772Y-107245822D01*
X172290279Y-106881603D01*
X172011862Y-106602700D01*
X171647907Y-106451572D01*
X171253822Y-106451228D01*
X170889603Y-106601721D01*
X170610700Y-106880138D01*
X170459572Y-107244093D01*
X170459228Y-107638178D01*
X170609721Y-108002397D01*
X170776900Y-108169868D01*
X170776900Y-113637237D01*
X169588714Y-114825422D01*
X167900562Y-113137270D01*
X167579188Y-112922535D01*
X167200102Y-112847130D01*
X165582600Y-112847130D01*
X165582600Y-110744865D01*
X165582772Y-110547822D01*
X165432279Y-110183603D01*
X165153862Y-109904700D01*
X164789907Y-109753572D01*
X164395822Y-109753228D01*
X164031603Y-109903721D01*
X163752700Y-110182138D01*
X163601572Y-110546093D01*
X163601228Y-110940178D01*
X163601400Y-110940594D01*
X163601400Y-112847130D01*
X152184100Y-112847130D01*
X152184100Y-108169772D01*
X152350300Y-108003862D01*
X152501428Y-107639907D01*
X152501772Y-107245822D01*
X152351279Y-106881603D01*
X152072862Y-106602700D01*
X151708907Y-106451572D01*
X151314822Y-106451228D01*
X150950603Y-106601721D01*
X150671700Y-106880138D01*
X150520572Y-107244093D01*
X150520228Y-107638178D01*
X150670721Y-108002397D01*
X150837900Y-108169868D01*
X150837900Y-112847130D01*
X150734629Y-112847130D01*
X150628473Y-112688257D01*
X150101090Y-112335871D01*
X149479000Y-112212130D01*
X147912075Y-112212130D01*
X146253200Y-110553254D01*
X146253200Y-101225286D01*
X149682062Y-101225286D01*
X149979157Y-101944311D01*
X150528795Y-102494910D01*
X151247301Y-102793259D01*
X152025286Y-102793938D01*
X152744311Y-102496843D01*
X153294910Y-101947205D01*
X153593259Y-101228699D01*
X153593938Y-100450714D01*
X153296843Y-99731689D01*
X152747205Y-99181090D01*
X152028699Y-98882741D01*
X151250714Y-98882062D01*
X150531689Y-99179157D01*
X149981090Y-99728795D01*
X149682741Y-100447301D01*
X149682062Y-101225286D01*
X146253200Y-101225286D01*
X146253200Y-93912508D01*
X146349017Y-93976531D01*
X146558000Y-94018100D01*
X154686000Y-94018100D01*
X154894983Y-93976531D01*
X155072151Y-93858151D01*
X155190531Y-93680983D01*
X155232100Y-93472000D01*
X155232100Y-87884000D01*
X155190531Y-87675017D01*
X155143480Y-87604600D01*
X160655000Y-87604600D01*
X161763098Y-87384186D01*
X162002400Y-87224289D01*
X162002400Y-92443000D01*
X162002400Y-92443000D01*
G37*
X162002400Y-92443000D02*
X162035177Y-92607783D01*
X162128520Y-92747480D01*
X162268217Y-92840823D01*
X162331400Y-92853391D01*
X162331400Y-92958059D01*
X161996110Y-93532417D01*
X161922713Y-93809613D01*
X162020732Y-94199600D01*
X162331400Y-94199600D01*
X162331400Y-94504400D01*
X162020732Y-94504400D01*
X161922713Y-94894387D01*
X161996110Y-95171583D01*
X162331400Y-95745942D01*
X162331400Y-95832609D01*
X162268217Y-95845177D01*
X162128520Y-95938520D01*
X162035177Y-96078217D01*
X162002400Y-96243000D01*
X162002400Y-98526000D01*
X162035177Y-98690783D01*
X162128520Y-98830480D01*
X162268217Y-98923823D01*
X162433000Y-98956600D01*
X172505400Y-98956600D01*
X172505400Y-130595400D01*
X154077759Y-130595400D01*
X154100600Y-130540257D01*
X154100600Y-130098800D01*
X153948200Y-129946400D01*
X152893400Y-129946400D01*
X152893400Y-129966400D01*
X152588600Y-129966400D01*
X152588600Y-129946400D01*
X152568600Y-129946400D01*
X152568600Y-129641600D01*
X152588600Y-129641600D01*
X152588600Y-129621600D01*
X152893400Y-129621600D01*
X152893400Y-129641600D01*
X153948200Y-129641600D01*
X154100600Y-129489200D01*
X154100600Y-129047743D01*
X154007794Y-128823689D01*
X153836311Y-128652206D01*
X153612257Y-128559400D01*
X153135525Y-128559400D01*
X153148566Y-128495000D01*
X153148566Y-126935000D01*
X153123770Y-126803223D01*
X153083640Y-126740859D01*
X153514265Y-126310234D01*
X153514268Y-126310232D01*
X153618882Y-126153665D01*
X153639939Y-126047807D01*
X153655619Y-125968982D01*
X153655618Y-125968977D01*
X153655618Y-123474800D01*
X158658400Y-123474800D01*
X158658400Y-124041257D01*
X158751206Y-124265311D01*
X158922689Y-124436794D01*
X159146743Y-124529600D01*
X159588200Y-124529600D01*
X159740600Y-124377200D01*
X159740600Y-123322400D01*
X160045400Y-123322400D01*
X160045400Y-124377200D01*
X160197800Y-124529600D01*
X160639257Y-124529600D01*
X160749734Y-124483839D01*
X160802689Y-124536794D01*
X161026743Y-124629600D01*
X161493200Y-124629600D01*
X161645600Y-124477200D01*
X161645600Y-123422400D01*
X161950400Y-123422400D01*
X161950400Y-124477200D01*
X162102800Y-124629600D01*
X162569257Y-124629600D01*
X162793311Y-124536794D01*
X162846266Y-124483839D01*
X162956743Y-124529600D01*
X163398200Y-124529600D01*
X163550600Y-124377200D01*
X163550600Y-123322400D01*
X163855400Y-123322400D01*
X163855400Y-124377200D01*
X164007800Y-124529600D01*
X164449257Y-124529600D01*
X164673311Y-124436794D01*
X164844794Y-124265311D01*
X164937600Y-124041257D01*
X164937600Y-123474800D01*
X164785200Y-123322400D01*
X163855400Y-123322400D01*
X163550600Y-123322400D01*
X162620800Y-123322400D01*
X162520800Y-123422400D01*
X161950400Y-123422400D01*
X161645600Y-123422400D01*
X161075200Y-123422400D01*
X160975200Y-123322400D01*
X160045400Y-123322400D01*
X159740600Y-123322400D01*
X158810800Y-123322400D01*
X158658400Y-123474800D01*
X153655618Y-123474800D01*
X153655618Y-122989844D01*
X153655619Y-122989839D01*
X153618882Y-122805156D01*
X153514268Y-122648589D01*
X153514265Y-122648587D01*
X153161398Y-122295719D01*
X153161398Y-121629249D01*
X153629515Y-122098184D01*
X154311279Y-122381277D01*
X155049482Y-122381921D01*
X155250788Y-122298743D01*
X158658400Y-122298743D01*
X158658400Y-122865200D01*
X158810800Y-123017600D01*
X159740600Y-123017600D01*
X159740600Y-121962800D01*
X160045400Y-121962800D01*
X160045400Y-123017600D01*
X160590800Y-123017600D01*
X160690800Y-123117600D01*
X161645600Y-123117600D01*
X161645600Y-122062800D01*
X161950400Y-122062800D01*
X161950400Y-123117600D01*
X162905200Y-123117600D01*
X163005200Y-123017600D01*
X163550600Y-123017600D01*
X163550600Y-121962800D01*
X163855400Y-121962800D01*
X163855400Y-123017600D01*
X164785200Y-123017600D01*
X164937600Y-122865200D01*
X164937600Y-122298743D01*
X164844794Y-122074689D01*
X164673311Y-121903206D01*
X164449257Y-121810400D01*
X164007800Y-121810400D01*
X163855400Y-121962800D01*
X163550600Y-121962800D01*
X163398200Y-121810400D01*
X162956743Y-121810400D01*
X162732689Y-121903206D01*
X162679734Y-121956161D01*
X162569257Y-121910400D01*
X162102800Y-121910400D01*
X161950400Y-122062800D01*
X161645600Y-122062800D01*
X161493200Y-121910400D01*
X161026743Y-121910400D01*
X160916266Y-121956161D01*
X160863311Y-121903206D01*
X160639257Y-121810400D01*
X160197800Y-121810400D01*
X160045400Y-121962800D01*
X159740600Y-121962800D01*
X159588200Y-121810400D01*
X159146743Y-121810400D01*
X158922689Y-121903206D01*
X158751206Y-122074689D01*
X158658400Y-122298743D01*
X155250788Y-122298743D01*
X155731740Y-122100018D01*
X156254184Y-121578485D01*
X156490821Y-121008600D01*
X158905434Y-121008600D01*
X158905434Y-121420000D01*
X158930230Y-121551777D01*
X159008110Y-121672807D01*
X159126942Y-121754001D01*
X159268000Y-121782566D01*
X160518000Y-121782566D01*
X160649777Y-121757770D01*
X160770807Y-121679890D01*
X160852001Y-121561058D01*
X160858835Y-121527312D01*
X160888110Y-121572807D01*
X161006942Y-121654001D01*
X161148000Y-121682566D01*
X162448000Y-121682566D01*
X162579777Y-121657770D01*
X162700807Y-121579890D01*
X162735865Y-121528580D01*
X162740230Y-121551777D01*
X162818110Y-121672807D01*
X162936942Y-121754001D01*
X163078000Y-121782566D01*
X164328000Y-121782566D01*
X164459777Y-121757770D01*
X164580807Y-121679890D01*
X164662001Y-121561058D01*
X164690566Y-121420000D01*
X164690566Y-121008600D01*
X166593645Y-121008600D01*
X166827982Y-121575740D01*
X167349515Y-122098184D01*
X168031279Y-122381277D01*
X168769482Y-122381921D01*
X169451740Y-122100018D01*
X169974184Y-121578485D01*
X170118343Y-121231311D01*
X170118343Y-123749296D01*
X169769766Y-123748992D01*
X169405547Y-123899485D01*
X169126644Y-124177902D01*
X168975516Y-124541857D01*
X168975172Y-124935942D01*
X169125665Y-125300161D01*
X169404082Y-125579064D01*
X169768037Y-125730192D01*
X170162122Y-125730536D01*
X170526341Y-125580043D01*
X170805244Y-125301626D01*
X170956372Y-124937671D01*
X170956716Y-124543586D01*
X170923942Y-124464266D01*
X170942193Y-124446015D01*
X171046807Y-124289448D01*
X171083543Y-124104765D01*
X171083543Y-117238571D01*
X171046807Y-117053888D01*
X170942193Y-116897321D01*
X170942190Y-116897319D01*
X170322355Y-116277484D01*
X170354636Y-116199743D01*
X170354843Y-115963109D01*
X171925951Y-114392000D01*
X171925954Y-114391998D01*
X172071863Y-114173628D01*
X172123100Y-113916044D01*
X172123100Y-108169772D01*
X172289300Y-108003862D01*
X172440428Y-107639907D01*
X172440772Y-107245822D01*
X172290279Y-106881603D01*
X172011862Y-106602700D01*
X171647907Y-106451572D01*
X171253822Y-106451228D01*
X170889603Y-106601721D01*
X170610700Y-106880138D01*
X170459572Y-107244093D01*
X170459228Y-107638178D01*
X170609721Y-108002397D01*
X170776900Y-108169868D01*
X170776900Y-113637237D01*
X169588714Y-114825422D01*
X167900562Y-113137270D01*
X167579188Y-112922535D01*
X167200102Y-112847130D01*
X165582600Y-112847130D01*
X165582600Y-110744865D01*
X165582772Y-110547822D01*
X165432279Y-110183603D01*
X165153862Y-109904700D01*
X164789907Y-109753572D01*
X164395822Y-109753228D01*
X164031603Y-109903721D01*
X163752700Y-110182138D01*
X163601572Y-110546093D01*
X163601228Y-110940178D01*
X163601400Y-110940594D01*
X163601400Y-112847130D01*
X152184100Y-112847130D01*
X152184100Y-108169772D01*
X152350300Y-108003862D01*
X152501428Y-107639907D01*
X152501772Y-107245822D01*
X152351279Y-106881603D01*
X152072862Y-106602700D01*
X151708907Y-106451572D01*
X151314822Y-106451228D01*
X150950603Y-106601721D01*
X150671700Y-106880138D01*
X150520572Y-107244093D01*
X150520228Y-107638178D01*
X150670721Y-108002397D01*
X150837900Y-108169868D01*
X150837900Y-112847130D01*
X150734629Y-112847130D01*
X150628473Y-112688257D01*
X150101090Y-112335871D01*
X149479000Y-112212130D01*
X147912075Y-112212130D01*
X146253200Y-110553254D01*
X146253200Y-101225286D01*
X149682062Y-101225286D01*
X149979157Y-101944311D01*
X150528795Y-102494910D01*
X151247301Y-102793259D01*
X152025286Y-102793938D01*
X152744311Y-102496843D01*
X153294910Y-101947205D01*
X153593259Y-101228699D01*
X153593938Y-100450714D01*
X153296843Y-99731689D01*
X152747205Y-99181090D01*
X152028699Y-98882741D01*
X151250714Y-98882062D01*
X150531689Y-99179157D01*
X149981090Y-99728795D01*
X149682741Y-100447301D01*
X149682062Y-101225286D01*
X146253200Y-101225286D01*
X146253200Y-93912508D01*
X146349017Y-93976531D01*
X146558000Y-94018100D01*
X154686000Y-94018100D01*
X154894983Y-93976531D01*
X155072151Y-93858151D01*
X155190531Y-93680983D01*
X155232100Y-93472000D01*
X155232100Y-87884000D01*
X155190531Y-87675017D01*
X155143480Y-87604600D01*
X160655000Y-87604600D01*
X161763098Y-87384186D01*
X162002400Y-87224289D01*
X162002400Y-92443000D01*
G36*
X138966434Y-121420000D02*
X138991230Y-121551777D01*
X139069110Y-121672807D01*
X139187942Y-121754001D01*
X139329000Y-121782566D01*
X140579000Y-121782566D01*
X140710777Y-121757770D01*
X140831807Y-121679890D01*
X140913001Y-121561058D01*
X140919835Y-121527312D01*
X140949110Y-121572807D01*
X141067942Y-121654001D01*
X141209000Y-121682566D01*
X142509000Y-121682566D01*
X142640777Y-121657770D01*
X142761807Y-121579890D01*
X142796865Y-121528580D01*
X142801230Y-121551777D01*
X142879110Y-121672807D01*
X142997942Y-121754001D01*
X143139000Y-121782566D01*
X144389000Y-121782566D01*
X144520777Y-121757770D01*
X144641807Y-121679890D01*
X144723001Y-121561058D01*
X144751566Y-121420000D01*
X144751566Y-121008600D01*
X146654645Y-121008600D01*
X146888982Y-121575740D01*
X147410515Y-122098184D01*
X148092279Y-122381277D01*
X148830482Y-122381921D01*
X149512740Y-122100018D01*
X149963491Y-121650053D01*
X149963491Y-122282670D01*
X149495957Y-122750204D01*
X149391343Y-122906771D01*
X149354607Y-123091454D01*
X149354607Y-125949982D01*
X149391343Y-126134665D01*
X149495957Y-126291232D01*
X149941238Y-126736513D01*
X149901999Y-126793942D01*
X149873434Y-126935000D01*
X149873434Y-127016171D01*
X149595685Y-126900839D01*
X149201600Y-126900495D01*
X148837381Y-127050988D01*
X148558478Y-127329405D01*
X148407350Y-127693360D01*
X148407006Y-128087445D01*
X148557499Y-128451664D01*
X148835916Y-128730567D01*
X148915178Y-128763480D01*
X148915178Y-128812630D01*
X148951914Y-128997313D01*
X149056528Y-129153880D01*
X149128434Y-129225786D01*
X149128434Y-130419000D01*
X149153230Y-130550777D01*
X149181944Y-130595400D01*
X133366600Y-130595400D01*
X133366600Y-123474800D01*
X138719400Y-123474800D01*
X138719400Y-124041257D01*
X138812206Y-124265311D01*
X138983689Y-124436794D01*
X139207743Y-124529600D01*
X139649200Y-124529600D01*
X139801600Y-124377200D01*
X139801600Y-123322400D01*
X140106400Y-123322400D01*
X140106400Y-124377200D01*
X140258800Y-124529600D01*
X140700257Y-124529600D01*
X140810734Y-124483839D01*
X140863689Y-124536794D01*
X141087743Y-124629600D01*
X141554200Y-124629600D01*
X141706600Y-124477200D01*
X141706600Y-123422400D01*
X142011400Y-123422400D01*
X142011400Y-124477200D01*
X142163800Y-124629600D01*
X142630257Y-124629600D01*
X142854311Y-124536794D01*
X142907266Y-124483839D01*
X143017743Y-124529600D01*
X143459200Y-124529600D01*
X143611600Y-124377200D01*
X143611600Y-123322400D01*
X143916400Y-123322400D01*
X143916400Y-124377200D01*
X144068800Y-124529600D01*
X144510257Y-124529600D01*
X144734311Y-124436794D01*
X144905794Y-124265311D01*
X144998600Y-124041257D01*
X144998600Y-123474800D01*
X144846200Y-123322400D01*
X143916400Y-123322400D01*
X143611600Y-123322400D01*
X142681800Y-123322400D01*
X142581800Y-123422400D01*
X142011400Y-123422400D01*
X141706600Y-123422400D01*
X141136200Y-123422400D01*
X141036200Y-123322400D01*
X140106400Y-123322400D01*
X139801600Y-123322400D01*
X138871800Y-123322400D01*
X138719400Y-123474800D01*
X133366600Y-123474800D01*
X133366600Y-121773703D01*
X133690515Y-122098184D01*
X134372279Y-122381277D01*
X135110482Y-122381921D01*
X135311788Y-122298743D01*
X138719400Y-122298743D01*
X138719400Y-122865200D01*
X138871800Y-123017600D01*
X139801600Y-123017600D01*
X139801600Y-121962800D01*
X140106400Y-121962800D01*
X140106400Y-123017600D01*
X140651800Y-123017600D01*
X140751800Y-123117600D01*
X141706600Y-123117600D01*
X141706600Y-122062800D01*
X142011400Y-122062800D01*
X142011400Y-123117600D01*
X142966200Y-123117600D01*
X143066200Y-123017600D01*
X143611600Y-123017600D01*
X143611600Y-121962800D01*
X143916400Y-121962800D01*
X143916400Y-123017600D01*
X144846200Y-123017600D01*
X144998600Y-122865200D01*
X144998600Y-122298743D01*
X144905794Y-122074689D01*
X144734311Y-121903206D01*
X144510257Y-121810400D01*
X144068800Y-121810400D01*
X143916400Y-121962800D01*
X143611600Y-121962800D01*
X143459200Y-121810400D01*
X143017743Y-121810400D01*
X142793689Y-121903206D01*
X142740734Y-121956161D01*
X142630257Y-121910400D01*
X142163800Y-121910400D01*
X142011400Y-122062800D01*
X141706600Y-122062800D01*
X141554200Y-121910400D01*
X141087743Y-121910400D01*
X140977266Y-121956161D01*
X140924311Y-121903206D01*
X140700257Y-121810400D01*
X140258800Y-121810400D01*
X140106400Y-121962800D01*
X139801600Y-121962800D01*
X139649200Y-121810400D01*
X139207743Y-121810400D01*
X138983689Y-121903206D01*
X138812206Y-122074689D01*
X138719400Y-122298743D01*
X135311788Y-122298743D01*
X135792740Y-122100018D01*
X136315184Y-121578485D01*
X136551821Y-121008600D01*
X138966434Y-121008600D01*
X138966434Y-121420000D01*
X138966434Y-121420000D01*
G37*
X138966434Y-121420000D02*
X138991230Y-121551777D01*
X139069110Y-121672807D01*
X139187942Y-121754001D01*
X139329000Y-121782566D01*
X140579000Y-121782566D01*
X140710777Y-121757770D01*
X140831807Y-121679890D01*
X140913001Y-121561058D01*
X140919835Y-121527312D01*
X140949110Y-121572807D01*
X141067942Y-121654001D01*
X141209000Y-121682566D01*
X142509000Y-121682566D01*
X142640777Y-121657770D01*
X142761807Y-121579890D01*
X142796865Y-121528580D01*
X142801230Y-121551777D01*
X142879110Y-121672807D01*
X142997942Y-121754001D01*
X143139000Y-121782566D01*
X144389000Y-121782566D01*
X144520777Y-121757770D01*
X144641807Y-121679890D01*
X144723001Y-121561058D01*
X144751566Y-121420000D01*
X144751566Y-121008600D01*
X146654645Y-121008600D01*
X146888982Y-121575740D01*
X147410515Y-122098184D01*
X148092279Y-122381277D01*
X148830482Y-122381921D01*
X149512740Y-122100018D01*
X149963491Y-121650053D01*
X149963491Y-122282670D01*
X149495957Y-122750204D01*
X149391343Y-122906771D01*
X149354607Y-123091454D01*
X149354607Y-125949982D01*
X149391343Y-126134665D01*
X149495957Y-126291232D01*
X149941238Y-126736513D01*
X149901999Y-126793942D01*
X149873434Y-126935000D01*
X149873434Y-127016171D01*
X149595685Y-126900839D01*
X149201600Y-126900495D01*
X148837381Y-127050988D01*
X148558478Y-127329405D01*
X148407350Y-127693360D01*
X148407006Y-128087445D01*
X148557499Y-128451664D01*
X148835916Y-128730567D01*
X148915178Y-128763480D01*
X148915178Y-128812630D01*
X148951914Y-128997313D01*
X149056528Y-129153880D01*
X149128434Y-129225786D01*
X149128434Y-130419000D01*
X149153230Y-130550777D01*
X149181944Y-130595400D01*
X133366600Y-130595400D01*
X133366600Y-123474800D01*
X138719400Y-123474800D01*
X138719400Y-124041257D01*
X138812206Y-124265311D01*
X138983689Y-124436794D01*
X139207743Y-124529600D01*
X139649200Y-124529600D01*
X139801600Y-124377200D01*
X139801600Y-123322400D01*
X140106400Y-123322400D01*
X140106400Y-124377200D01*
X140258800Y-124529600D01*
X140700257Y-124529600D01*
X140810734Y-124483839D01*
X140863689Y-124536794D01*
X141087743Y-124629600D01*
X141554200Y-124629600D01*
X141706600Y-124477200D01*
X141706600Y-123422400D01*
X142011400Y-123422400D01*
X142011400Y-124477200D01*
X142163800Y-124629600D01*
X142630257Y-124629600D01*
X142854311Y-124536794D01*
X142907266Y-124483839D01*
X143017743Y-124529600D01*
X143459200Y-124529600D01*
X143611600Y-124377200D01*
X143611600Y-123322400D01*
X143916400Y-123322400D01*
X143916400Y-124377200D01*
X144068800Y-124529600D01*
X144510257Y-124529600D01*
X144734311Y-124436794D01*
X144905794Y-124265311D01*
X144998600Y-124041257D01*
X144998600Y-123474800D01*
X144846200Y-123322400D01*
X143916400Y-123322400D01*
X143611600Y-123322400D01*
X142681800Y-123322400D01*
X142581800Y-123422400D01*
X142011400Y-123422400D01*
X141706600Y-123422400D01*
X141136200Y-123422400D01*
X141036200Y-123322400D01*
X140106400Y-123322400D01*
X139801600Y-123322400D01*
X138871800Y-123322400D01*
X138719400Y-123474800D01*
X133366600Y-123474800D01*
X133366600Y-121773703D01*
X133690515Y-122098184D01*
X134372279Y-122381277D01*
X135110482Y-122381921D01*
X135311788Y-122298743D01*
X138719400Y-122298743D01*
X138719400Y-122865200D01*
X138871800Y-123017600D01*
X139801600Y-123017600D01*
X139801600Y-121962800D01*
X140106400Y-121962800D01*
X140106400Y-123017600D01*
X140651800Y-123017600D01*
X140751800Y-123117600D01*
X141706600Y-123117600D01*
X141706600Y-122062800D01*
X142011400Y-122062800D01*
X142011400Y-123117600D01*
X142966200Y-123117600D01*
X143066200Y-123017600D01*
X143611600Y-123017600D01*
X143611600Y-121962800D01*
X143916400Y-121962800D01*
X143916400Y-123017600D01*
X144846200Y-123017600D01*
X144998600Y-122865200D01*
X144998600Y-122298743D01*
X144905794Y-122074689D01*
X144734311Y-121903206D01*
X144510257Y-121810400D01*
X144068800Y-121810400D01*
X143916400Y-121962800D01*
X143611600Y-121962800D01*
X143459200Y-121810400D01*
X143017743Y-121810400D01*
X142793689Y-121903206D01*
X142740734Y-121956161D01*
X142630257Y-121910400D01*
X142163800Y-121910400D01*
X142011400Y-122062800D01*
X141706600Y-122062800D01*
X141554200Y-121910400D01*
X141087743Y-121910400D01*
X140977266Y-121956161D01*
X140924311Y-121903206D01*
X140700257Y-121810400D01*
X140258800Y-121810400D01*
X140106400Y-121962800D01*
X139801600Y-121962800D01*
X139649200Y-121810400D01*
X139207743Y-121810400D01*
X138983689Y-121903206D01*
X138812206Y-122074689D01*
X138719400Y-122298743D01*
X135311788Y-122298743D01*
X135792740Y-122100018D01*
X136315184Y-121578485D01*
X136551821Y-121008600D01*
X138966434Y-121008600D01*
X138966434Y-121420000D01*
G36*
X143002000Y-110591600D02*
X143080381Y-110985647D01*
X143027400Y-111252000D01*
X143151141Y-111874091D01*
X143503527Y-112401473D01*
X146089255Y-114987200D01*
X146089257Y-114987203D01*
X146616640Y-115339589D01*
X147238730Y-115463330D01*
X147820921Y-115463330D01*
X147820921Y-115821217D01*
X147944662Y-116443307D01*
X148297048Y-116970690D01*
X148824431Y-117323076D01*
X149446521Y-117446817D01*
X150068611Y-117323076D01*
X150595994Y-116970690D01*
X150948380Y-116443307D01*
X151072121Y-115821217D01*
X151072121Y-114828330D01*
X166789782Y-114828330D01*
X168663710Y-116702258D01*
X168802346Y-116841136D01*
X169166301Y-116992264D01*
X169560386Y-116992608D01*
X169639706Y-116959833D01*
X170118343Y-117438470D01*
X170118343Y-119820713D01*
X169976018Y-119476260D01*
X169454485Y-118953816D01*
X168772721Y-118670723D01*
X168034518Y-118670079D01*
X167352260Y-118951982D01*
X166829816Y-119473515D01*
X166593179Y-120043400D01*
X164690566Y-120043400D01*
X164690566Y-119920000D01*
X164665770Y-119788223D01*
X164587890Y-119667193D01*
X164469058Y-119585999D01*
X164328000Y-119557434D01*
X163078000Y-119557434D01*
X162946223Y-119582230D01*
X162825193Y-119660110D01*
X162790135Y-119711420D01*
X162785770Y-119688223D01*
X162707890Y-119567193D01*
X162589058Y-119485999D01*
X162448000Y-119457434D01*
X161148000Y-119457434D01*
X161016223Y-119482230D01*
X160895193Y-119560110D01*
X160813999Y-119678942D01*
X160807165Y-119712688D01*
X160777890Y-119667193D01*
X160659058Y-119585999D01*
X160518000Y-119557434D01*
X159268000Y-119557434D01*
X159136223Y-119582230D01*
X159015193Y-119660110D01*
X158933999Y-119778942D01*
X158905434Y-119920000D01*
X158905434Y-120043400D01*
X156490355Y-120043400D01*
X156256018Y-119476260D01*
X155734485Y-118953816D01*
X155052721Y-118670723D01*
X154314518Y-118670079D01*
X154241679Y-118700175D01*
X155806432Y-117135422D01*
X157398915Y-117135422D01*
X157305264Y-117228910D01*
X157136592Y-117635118D01*
X157136208Y-118074953D01*
X157304171Y-118481454D01*
X157614910Y-118792736D01*
X158021118Y-118961408D01*
X158460953Y-118961792D01*
X158867454Y-118793829D01*
X159178736Y-118483090D01*
X159347408Y-118076882D01*
X159347792Y-117637047D01*
X159179829Y-117230546D01*
X159084871Y-117135422D01*
X159378922Y-117135422D01*
X159735867Y-117492367D01*
X159676592Y-117635118D01*
X159676208Y-118074953D01*
X159844171Y-118481454D01*
X160154910Y-118792736D01*
X160561118Y-118961408D01*
X161000953Y-118961792D01*
X161407454Y-118793829D01*
X161718736Y-118483090D01*
X161796984Y-118294647D01*
X161874171Y-118481454D01*
X162184910Y-118792736D01*
X162591118Y-118961408D01*
X163030953Y-118961792D01*
X163351036Y-118829536D01*
X164593990Y-118829536D01*
X164665424Y-119060269D01*
X165178540Y-119231340D01*
X165718064Y-119193029D01*
X166038576Y-119060269D01*
X166110010Y-118829536D01*
X165352000Y-118071526D01*
X164593990Y-118829536D01*
X163351036Y-118829536D01*
X163437454Y-118793829D01*
X163748736Y-118483090D01*
X163917408Y-118076882D01*
X163917752Y-117682540D01*
X163976660Y-117682540D01*
X164014971Y-118222064D01*
X164147731Y-118542576D01*
X164378464Y-118614010D01*
X165136474Y-117856000D01*
X165567526Y-117856000D01*
X166325536Y-118614010D01*
X166556269Y-118542576D01*
X166727340Y-118029460D01*
X166689029Y-117489936D01*
X166556269Y-117169424D01*
X166325536Y-117097990D01*
X165567526Y-117856000D01*
X165136474Y-117856000D01*
X164378464Y-117097990D01*
X164147731Y-117169424D01*
X163976660Y-117682540D01*
X163917752Y-117682540D01*
X163917792Y-117637047D01*
X163749829Y-117230546D01*
X163439090Y-116919264D01*
X163350466Y-116882464D01*
X164593990Y-116882464D01*
X165352000Y-117640474D01*
X166110010Y-116882464D01*
X166038576Y-116651731D01*
X165525460Y-116480660D01*
X164985936Y-116518971D01*
X164665424Y-116651731D01*
X164593990Y-116882464D01*
X163350466Y-116882464D01*
X163032882Y-116750592D01*
X162593047Y-116750208D01*
X162448453Y-116809953D01*
X161492861Y-115854361D01*
X161336294Y-115749747D01*
X161151611Y-115713011D01*
X155417152Y-115713011D01*
X155232469Y-115749747D01*
X155075902Y-115854361D01*
X155075900Y-115854364D01*
X151880337Y-119049926D01*
X151775723Y-119206493D01*
X151738987Y-119391176D01*
X151738987Y-123702213D01*
X151663400Y-123777800D01*
X151663400Y-124862600D01*
X151683400Y-124862600D01*
X151683400Y-125167400D01*
X151663400Y-125167400D01*
X151663400Y-126252200D01*
X151815800Y-126404600D01*
X151957257Y-126404600D01*
X152123944Y-126335556D01*
X152119750Y-126339750D01*
X152015136Y-126496317D01*
X151993718Y-126603989D01*
X151987392Y-126608060D01*
X151977058Y-126600999D01*
X151836000Y-126572434D01*
X151186000Y-126572434D01*
X151054223Y-126597230D01*
X151037392Y-126608060D01*
X151029449Y-126602633D01*
X151006864Y-126489092D01*
X150906655Y-126339118D01*
X151064743Y-126404600D01*
X151206200Y-126404600D01*
X151358600Y-126252200D01*
X151358600Y-125167400D01*
X151338600Y-125167400D01*
X151338600Y-124862600D01*
X151358600Y-124862600D01*
X151358600Y-123777800D01*
X151358294Y-123777494D01*
X151385902Y-123638698D01*
X151385902Y-119394061D01*
X151349166Y-119209378D01*
X151244552Y-119052811D01*
X149924064Y-117732323D01*
X149767497Y-117627709D01*
X149582814Y-117590973D01*
X147391354Y-117590973D01*
X147206671Y-117627709D01*
X147050104Y-117732323D01*
X146785995Y-117996433D01*
X146750029Y-117489936D01*
X146617269Y-117169424D01*
X146386536Y-117097990D01*
X145628526Y-117856000D01*
X145642669Y-117870143D01*
X145427143Y-118085669D01*
X145413000Y-118071526D01*
X145398858Y-118085669D01*
X145183332Y-117870143D01*
X145197474Y-117856000D01*
X144439464Y-117097990D01*
X144208731Y-117169424D01*
X144037660Y-117682540D01*
X144075971Y-118222064D01*
X144185153Y-118485654D01*
X143919133Y-118219633D01*
X143978408Y-118076882D01*
X143978792Y-117637047D01*
X143810829Y-117230546D01*
X143500090Y-116919264D01*
X143411466Y-116882464D01*
X144654990Y-116882464D01*
X145413000Y-117640474D01*
X146171010Y-116882464D01*
X146099576Y-116651731D01*
X145586460Y-116480660D01*
X145046936Y-116518971D01*
X144726424Y-116651731D01*
X144654990Y-116882464D01*
X143411466Y-116882464D01*
X143093882Y-116750592D01*
X142654047Y-116750208D01*
X142247546Y-116918171D01*
X141936264Y-117228910D01*
X141858016Y-117417353D01*
X141780829Y-117230546D01*
X141470090Y-116919264D01*
X141063882Y-116750592D01*
X140624047Y-116750208D01*
X140217546Y-116918171D01*
X139906264Y-117228910D01*
X139737592Y-117635118D01*
X139737208Y-118074953D01*
X139905171Y-118481454D01*
X140215910Y-118792736D01*
X140622118Y-118961408D01*
X141061953Y-118961792D01*
X141206547Y-118902047D01*
X141761935Y-119457434D01*
X141209000Y-119457434D01*
X141077223Y-119482230D01*
X140956193Y-119560110D01*
X140874999Y-119678942D01*
X140868165Y-119712688D01*
X140838890Y-119667193D01*
X140720058Y-119585999D01*
X140579000Y-119557434D01*
X139329000Y-119557434D01*
X139197223Y-119582230D01*
X139076193Y-119660110D01*
X138994999Y-119778942D01*
X138966434Y-119920000D01*
X138966434Y-120043400D01*
X136551355Y-120043400D01*
X136317018Y-119476260D01*
X135795485Y-118953816D01*
X135113721Y-118670723D01*
X134375518Y-118670079D01*
X133693260Y-118951982D01*
X133366600Y-119278072D01*
X133366600Y-118074953D01*
X137197208Y-118074953D01*
X137365171Y-118481454D01*
X137675910Y-118792736D01*
X138082118Y-118961408D01*
X138521953Y-118961792D01*
X138928454Y-118793829D01*
X139239736Y-118483090D01*
X139408408Y-118076882D01*
X139408792Y-117637047D01*
X139240829Y-117230546D01*
X138930090Y-116919264D01*
X138523882Y-116750592D01*
X138084047Y-116750208D01*
X137677546Y-116918171D01*
X137366264Y-117228910D01*
X137197592Y-117635118D01*
X137197208Y-118074953D01*
X133366600Y-118074953D01*
X133366600Y-98397755D01*
X133476111Y-98352394D01*
X133647594Y-98180911D01*
X133740400Y-97956857D01*
X133740400Y-94640400D01*
X133588000Y-94488000D01*
X129346194Y-94488000D01*
X129358326Y-94427006D01*
X129358326Y-94258994D01*
X129343250Y-94183200D01*
X133588000Y-94183200D01*
X133740400Y-94030800D01*
X133740400Y-90809387D01*
X140043339Y-90809387D01*
X140170106Y-91086756D01*
X140846543Y-91333119D01*
X141565768Y-91301867D01*
X142085094Y-91086756D01*
X142211861Y-90809387D01*
X141127600Y-89725126D01*
X140043339Y-90809387D01*
X133740400Y-90809387D01*
X133740400Y-90714343D01*
X133647594Y-90490289D01*
X133476111Y-90318806D01*
X133366600Y-90273445D01*
X133366600Y-89228543D01*
X139304081Y-89228543D01*
X139335333Y-89947768D01*
X139550444Y-90467094D01*
X139827813Y-90593861D01*
X140912074Y-89509600D01*
X141343126Y-89509600D01*
X142427387Y-90593861D01*
X142704756Y-90467094D01*
X142951119Y-89790657D01*
X142919867Y-89071432D01*
X142704756Y-88552106D01*
X142427387Y-88425339D01*
X141343126Y-89509600D01*
X140912074Y-89509600D01*
X139827813Y-88425339D01*
X139550444Y-88552106D01*
X139304081Y-89228543D01*
X133366600Y-89228543D01*
X133366600Y-88454434D01*
X133383607Y-88443490D01*
X133464801Y-88324658D01*
X133488057Y-88209813D01*
X140043339Y-88209813D01*
X141127600Y-89294074D01*
X142211861Y-88209813D01*
X142085094Y-87932444D01*
X141408657Y-87686081D01*
X140689432Y-87717333D01*
X140170106Y-87932444D01*
X140043339Y-88209813D01*
X133488057Y-88209813D01*
X133493366Y-88183600D01*
X133493366Y-87579200D01*
X143002000Y-87579200D01*
X143002000Y-110591600D01*
X143002000Y-110591600D01*
G37*
X143002000Y-110591600D02*
X143080381Y-110985647D01*
X143027400Y-111252000D01*
X143151141Y-111874091D01*
X143503527Y-112401473D01*
X146089255Y-114987200D01*
X146089257Y-114987203D01*
X146616640Y-115339589D01*
X147238730Y-115463330D01*
X147820921Y-115463330D01*
X147820921Y-115821217D01*
X147944662Y-116443307D01*
X148297048Y-116970690D01*
X148824431Y-117323076D01*
X149446521Y-117446817D01*
X150068611Y-117323076D01*
X150595994Y-116970690D01*
X150948380Y-116443307D01*
X151072121Y-115821217D01*
X151072121Y-114828330D01*
X166789782Y-114828330D01*
X168663710Y-116702258D01*
X168802346Y-116841136D01*
X169166301Y-116992264D01*
X169560386Y-116992608D01*
X169639706Y-116959833D01*
X170118343Y-117438470D01*
X170118343Y-119820713D01*
X169976018Y-119476260D01*
X169454485Y-118953816D01*
X168772721Y-118670723D01*
X168034518Y-118670079D01*
X167352260Y-118951982D01*
X166829816Y-119473515D01*
X166593179Y-120043400D01*
X164690566Y-120043400D01*
X164690566Y-119920000D01*
X164665770Y-119788223D01*
X164587890Y-119667193D01*
X164469058Y-119585999D01*
X164328000Y-119557434D01*
X163078000Y-119557434D01*
X162946223Y-119582230D01*
X162825193Y-119660110D01*
X162790135Y-119711420D01*
X162785770Y-119688223D01*
X162707890Y-119567193D01*
X162589058Y-119485999D01*
X162448000Y-119457434D01*
X161148000Y-119457434D01*
X161016223Y-119482230D01*
X160895193Y-119560110D01*
X160813999Y-119678942D01*
X160807165Y-119712688D01*
X160777890Y-119667193D01*
X160659058Y-119585999D01*
X160518000Y-119557434D01*
X159268000Y-119557434D01*
X159136223Y-119582230D01*
X159015193Y-119660110D01*
X158933999Y-119778942D01*
X158905434Y-119920000D01*
X158905434Y-120043400D01*
X156490355Y-120043400D01*
X156256018Y-119476260D01*
X155734485Y-118953816D01*
X155052721Y-118670723D01*
X154314518Y-118670079D01*
X154241679Y-118700175D01*
X155806432Y-117135422D01*
X157398915Y-117135422D01*
X157305264Y-117228910D01*
X157136592Y-117635118D01*
X157136208Y-118074953D01*
X157304171Y-118481454D01*
X157614910Y-118792736D01*
X158021118Y-118961408D01*
X158460953Y-118961792D01*
X158867454Y-118793829D01*
X159178736Y-118483090D01*
X159347408Y-118076882D01*
X159347792Y-117637047D01*
X159179829Y-117230546D01*
X159084871Y-117135422D01*
X159378922Y-117135422D01*
X159735867Y-117492367D01*
X159676592Y-117635118D01*
X159676208Y-118074953D01*
X159844171Y-118481454D01*
X160154910Y-118792736D01*
X160561118Y-118961408D01*
X161000953Y-118961792D01*
X161407454Y-118793829D01*
X161718736Y-118483090D01*
X161796984Y-118294647D01*
X161874171Y-118481454D01*
X162184910Y-118792736D01*
X162591118Y-118961408D01*
X163030953Y-118961792D01*
X163351036Y-118829536D01*
X164593990Y-118829536D01*
X164665424Y-119060269D01*
X165178540Y-119231340D01*
X165718064Y-119193029D01*
X166038576Y-119060269D01*
X166110010Y-118829536D01*
X165352000Y-118071526D01*
X164593990Y-118829536D01*
X163351036Y-118829536D01*
X163437454Y-118793829D01*
X163748736Y-118483090D01*
X163917408Y-118076882D01*
X163917752Y-117682540D01*
X163976660Y-117682540D01*
X164014971Y-118222064D01*
X164147731Y-118542576D01*
X164378464Y-118614010D01*
X165136474Y-117856000D01*
X165567526Y-117856000D01*
X166325536Y-118614010D01*
X166556269Y-118542576D01*
X166727340Y-118029460D01*
X166689029Y-117489936D01*
X166556269Y-117169424D01*
X166325536Y-117097990D01*
X165567526Y-117856000D01*
X165136474Y-117856000D01*
X164378464Y-117097990D01*
X164147731Y-117169424D01*
X163976660Y-117682540D01*
X163917752Y-117682540D01*
X163917792Y-117637047D01*
X163749829Y-117230546D01*
X163439090Y-116919264D01*
X163350466Y-116882464D01*
X164593990Y-116882464D01*
X165352000Y-117640474D01*
X166110010Y-116882464D01*
X166038576Y-116651731D01*
X165525460Y-116480660D01*
X164985936Y-116518971D01*
X164665424Y-116651731D01*
X164593990Y-116882464D01*
X163350466Y-116882464D01*
X163032882Y-116750592D01*
X162593047Y-116750208D01*
X162448453Y-116809953D01*
X161492861Y-115854361D01*
X161336294Y-115749747D01*
X161151611Y-115713011D01*
X155417152Y-115713011D01*
X155232469Y-115749747D01*
X155075902Y-115854361D01*
X155075900Y-115854364D01*
X151880337Y-119049926D01*
X151775723Y-119206493D01*
X151738987Y-119391176D01*
X151738987Y-123702213D01*
X151663400Y-123777800D01*
X151663400Y-124862600D01*
X151683400Y-124862600D01*
X151683400Y-125167400D01*
X151663400Y-125167400D01*
X151663400Y-126252200D01*
X151815800Y-126404600D01*
X151957257Y-126404600D01*
X152123944Y-126335556D01*
X152119750Y-126339750D01*
X152015136Y-126496317D01*
X151993718Y-126603989D01*
X151987392Y-126608060D01*
X151977058Y-126600999D01*
X151836000Y-126572434D01*
X151186000Y-126572434D01*
X151054223Y-126597230D01*
X151037392Y-126608060D01*
X151029449Y-126602633D01*
X151006864Y-126489092D01*
X150906655Y-126339118D01*
X151064743Y-126404600D01*
X151206200Y-126404600D01*
X151358600Y-126252200D01*
X151358600Y-125167400D01*
X151338600Y-125167400D01*
X151338600Y-124862600D01*
X151358600Y-124862600D01*
X151358600Y-123777800D01*
X151358294Y-123777494D01*
X151385902Y-123638698D01*
X151385902Y-119394061D01*
X151349166Y-119209378D01*
X151244552Y-119052811D01*
X149924064Y-117732323D01*
X149767497Y-117627709D01*
X149582814Y-117590973D01*
X147391354Y-117590973D01*
X147206671Y-117627709D01*
X147050104Y-117732323D01*
X146785995Y-117996433D01*
X146750029Y-117489936D01*
X146617269Y-117169424D01*
X146386536Y-117097990D01*
X145628526Y-117856000D01*
X145642669Y-117870143D01*
X145427143Y-118085669D01*
X145413000Y-118071526D01*
X145398858Y-118085669D01*
X145183332Y-117870143D01*
X145197474Y-117856000D01*
X144439464Y-117097990D01*
X144208731Y-117169424D01*
X144037660Y-117682540D01*
X144075971Y-118222064D01*
X144185153Y-118485654D01*
X143919133Y-118219633D01*
X143978408Y-118076882D01*
X143978792Y-117637047D01*
X143810829Y-117230546D01*
X143500090Y-116919264D01*
X143411466Y-116882464D01*
X144654990Y-116882464D01*
X145413000Y-117640474D01*
X146171010Y-116882464D01*
X146099576Y-116651731D01*
X145586460Y-116480660D01*
X145046936Y-116518971D01*
X144726424Y-116651731D01*
X144654990Y-116882464D01*
X143411466Y-116882464D01*
X143093882Y-116750592D01*
X142654047Y-116750208D01*
X142247546Y-116918171D01*
X141936264Y-117228910D01*
X141858016Y-117417353D01*
X141780829Y-117230546D01*
X141470090Y-116919264D01*
X141063882Y-116750592D01*
X140624047Y-116750208D01*
X140217546Y-116918171D01*
X139906264Y-117228910D01*
X139737592Y-117635118D01*
X139737208Y-118074953D01*
X139905171Y-118481454D01*
X140215910Y-118792736D01*
X140622118Y-118961408D01*
X141061953Y-118961792D01*
X141206547Y-118902047D01*
X141761935Y-119457434D01*
X141209000Y-119457434D01*
X141077223Y-119482230D01*
X140956193Y-119560110D01*
X140874999Y-119678942D01*
X140868165Y-119712688D01*
X140838890Y-119667193D01*
X140720058Y-119585999D01*
X140579000Y-119557434D01*
X139329000Y-119557434D01*
X139197223Y-119582230D01*
X139076193Y-119660110D01*
X138994999Y-119778942D01*
X138966434Y-119920000D01*
X138966434Y-120043400D01*
X136551355Y-120043400D01*
X136317018Y-119476260D01*
X135795485Y-118953816D01*
X135113721Y-118670723D01*
X134375518Y-118670079D01*
X133693260Y-118951982D01*
X133366600Y-119278072D01*
X133366600Y-118074953D01*
X137197208Y-118074953D01*
X137365171Y-118481454D01*
X137675910Y-118792736D01*
X138082118Y-118961408D01*
X138521953Y-118961792D01*
X138928454Y-118793829D01*
X139239736Y-118483090D01*
X139408408Y-118076882D01*
X139408792Y-117637047D01*
X139240829Y-117230546D01*
X138930090Y-116919264D01*
X138523882Y-116750592D01*
X138084047Y-116750208D01*
X137677546Y-116918171D01*
X137366264Y-117228910D01*
X137197592Y-117635118D01*
X137197208Y-118074953D01*
X133366600Y-118074953D01*
X133366600Y-98397755D01*
X133476111Y-98352394D01*
X133647594Y-98180911D01*
X133740400Y-97956857D01*
X133740400Y-94640400D01*
X133588000Y-94488000D01*
X129346194Y-94488000D01*
X129358326Y-94427006D01*
X129358326Y-94258994D01*
X129343250Y-94183200D01*
X133588000Y-94183200D01*
X133740400Y-94030800D01*
X133740400Y-90809387D01*
X140043339Y-90809387D01*
X140170106Y-91086756D01*
X140846543Y-91333119D01*
X141565768Y-91301867D01*
X142085094Y-91086756D01*
X142211861Y-90809387D01*
X141127600Y-89725126D01*
X140043339Y-90809387D01*
X133740400Y-90809387D01*
X133740400Y-90714343D01*
X133647594Y-90490289D01*
X133476111Y-90318806D01*
X133366600Y-90273445D01*
X133366600Y-89228543D01*
X139304081Y-89228543D01*
X139335333Y-89947768D01*
X139550444Y-90467094D01*
X139827813Y-90593861D01*
X140912074Y-89509600D01*
X141343126Y-89509600D01*
X142427387Y-90593861D01*
X142704756Y-90467094D01*
X142951119Y-89790657D01*
X142919867Y-89071432D01*
X142704756Y-88552106D01*
X142427387Y-88425339D01*
X141343126Y-89509600D01*
X140912074Y-89509600D01*
X139827813Y-88425339D01*
X139550444Y-88552106D01*
X139304081Y-89228543D01*
X133366600Y-89228543D01*
X133366600Y-88454434D01*
X133383607Y-88443490D01*
X133464801Y-88324658D01*
X133488057Y-88209813D01*
X140043339Y-88209813D01*
X141127600Y-89294074D01*
X142211861Y-88209813D01*
X142085094Y-87932444D01*
X141408657Y-87686081D01*
X140689432Y-87717333D01*
X140170106Y-87932444D01*
X140043339Y-88209813D01*
X133488057Y-88209813D01*
X133493366Y-88183600D01*
X133493366Y-87579200D01*
X143002000Y-87579200D01*
X143002000Y-110591600D01*
M02*
