G04 #@! TF.FileFunction,Copper,L2,Bot,Signal*
%FSLAX46Y46*%
G04 Gerber Fmt 4.6, Leading zero omitted, Abs format (unit mm)*
G04 Created by KiCad (PCBNEW 4.0.7-e2-6376~58~ubuntu16.04.1) date Fri Nov  3 20:46:07 2017*
%MOMM*%
%LPD*%
G01*
G04 APERTURE LIST*
%ADD10C,0.100000*%
%ADD11C,0.381000*%
%ADD12R,10.000000X7.000000*%
%ADD13O,6.850000X4.050000*%
%ADD14C,1.778000*%
%ADD15C,1.500000*%
%ADD16C,3.000000*%
%ADD17R,2.794000X2.794000*%
%ADD18C,2.794000*%
%ADD19C,0.812800*%
%ADD20C,1.524000*%
%ADD21C,0.635000*%
%ADD22C,0.254000*%
%ADD23C,2.540000*%
%ADD24C,5.080000*%
%ADD25C,3.810000*%
%ADD26C,0.635000*%
%ADD27C,0.203200*%
G04 APERTURE END LIST*
D10*
D11*
X148394420Y-91104720D02*
X148394420Y-92704920D01*
X148394420Y-92704920D02*
X147195540Y-92704920D01*
X150893780Y-92704920D02*
X150893780Y-91203780D01*
X150893780Y-91203780D02*
X149994620Y-91203780D01*
X149994620Y-91203780D02*
X149793960Y-91203780D01*
X149793960Y-91203780D02*
X149595840Y-91305380D01*
X149595840Y-91305380D02*
X149494240Y-91506040D01*
X149494240Y-91506040D02*
X149494240Y-91704160D01*
X149494240Y-91704160D02*
X149694900Y-91904820D01*
X149694900Y-91904820D02*
X149994620Y-92003880D01*
X149994620Y-92003880D02*
X150893780Y-92003880D01*
X152095200Y-91305380D02*
X152295860Y-91203780D01*
X152295860Y-91203780D02*
X152796240Y-91203780D01*
X152796240Y-91203780D02*
X153095960Y-91305380D01*
X153095960Y-91305380D02*
X153294080Y-91404440D01*
X153294080Y-91404440D02*
X153494740Y-91704160D01*
X153494740Y-91704160D02*
X153494740Y-92003880D01*
X153494740Y-92003880D02*
X153395680Y-92405200D01*
X153395680Y-92405200D02*
X153095960Y-92605860D01*
X153095960Y-92605860D02*
X152796240Y-92704920D01*
X152796240Y-92704920D02*
X152493980Y-92704920D01*
X152493980Y-92704920D02*
X151996140Y-92605860D01*
X151996140Y-92605860D02*
X151996140Y-92105480D01*
X151996140Y-92105480D02*
X152493980Y-92105480D01*
X148694140Y-88605360D02*
X148694140Y-89905840D01*
X148694140Y-89905840D02*
X148394420Y-90103960D01*
X148394420Y-90103960D02*
X148094700Y-90103960D01*
X148094700Y-90103960D02*
X147695920Y-90103960D01*
X147695920Y-90103960D02*
X147396200Y-90004900D01*
X147396200Y-90004900D02*
X147195540Y-89905840D01*
X147195540Y-89905840D02*
X147195540Y-88605360D01*
X151295100Y-90103960D02*
X151295100Y-88605360D01*
X151295100Y-88605360D02*
X149793960Y-90103960D01*
X149793960Y-90103960D02*
X149793960Y-88605360D01*
X152493980Y-88704420D02*
X152796240Y-88605360D01*
X152796240Y-88605360D02*
X153294080Y-88704420D01*
X153294080Y-88704420D02*
X153695400Y-88905080D01*
X153695400Y-88905080D02*
X153896060Y-89303860D01*
X153896060Y-89303860D02*
X153794460Y-89705180D01*
X153794460Y-89705180D02*
X153494740Y-90004900D01*
X153494740Y-90004900D02*
X152994360Y-90205560D01*
X152994360Y-90205560D02*
X152295860Y-90004900D01*
X152295860Y-90004900D02*
X152295860Y-89504520D01*
X152295860Y-89504520D02*
X152796240Y-89504520D01*
X154559000Y-87757000D02*
X146431000Y-87757000D01*
X146431000Y-87757000D02*
X146431000Y-93345000D01*
X146431000Y-93345000D02*
X154559000Y-93345000D01*
X154559000Y-93345000D02*
X154559000Y-87757000D01*
D12*
X128130800Y-84683600D03*
X128130800Y-94335600D03*
D13*
X165473000Y-84709000D03*
X165473000Y-94352000D03*
D14*
X145413000Y-117856000D03*
D15*
X142873000Y-117856000D03*
X140843000Y-117856000D03*
D14*
X138303000Y-117856000D03*
D16*
X148463000Y-120526000D03*
X134743000Y-120526000D03*
D14*
X165352000Y-117856000D03*
D15*
X162812000Y-117856000D03*
X160782000Y-117856000D03*
D14*
X158242000Y-117856000D03*
D16*
X168402000Y-120526000D03*
X154682000Y-120526000D03*
D17*
X144627600Y-89509600D03*
D18*
X139627600Y-89509600D03*
D19*
X169161569Y-111726351D03*
D20*
X148844000Y-104140000D03*
X168669006Y-104153006D03*
D21*
X149860000Y-123952000D03*
X169672000Y-124460000D03*
X149161151Y-111055619D03*
X149161151Y-110196945D03*
X153566887Y-111085273D03*
X153648116Y-109264409D03*
D22*
X169567968Y-112132750D02*
X169161569Y-111726351D01*
X170232201Y-112796983D02*
X169567968Y-112132750D01*
X170232201Y-123899799D02*
X170232201Y-112796983D01*
X169672000Y-124460000D02*
X170232201Y-123899799D01*
D23*
X148844000Y-104140000D02*
X168656000Y-104140000D01*
X168656000Y-104140000D02*
X168669006Y-104153006D01*
X146812000Y-104140000D02*
X148844000Y-104140000D01*
X144627600Y-101955600D02*
X146812000Y-104140000D01*
X144627600Y-89509600D02*
X144627600Y-101955600D01*
D22*
X169672000Y-124460000D02*
X150368000Y-124460000D01*
X150368000Y-124460000D02*
X149860000Y-123952000D01*
D24*
X132130800Y-84683600D02*
X145770600Y-84683600D01*
D25*
X165973000Y-84709000D02*
X160655000Y-84709000D01*
D24*
X145796000Y-84709000D02*
X160655000Y-84709000D01*
D23*
X144627600Y-89509600D02*
X144627600Y-85877400D01*
D25*
X165973000Y-94361000D02*
X161417000Y-94361000D01*
D24*
X132130800Y-94335600D02*
X133705600Y-94335600D01*
D26*
X136864320Y-120526000D02*
X148463000Y-120526000D01*
X134743000Y-120526000D02*
X136864320Y-120526000D01*
X154682000Y-120526000D02*
X168402000Y-120526000D01*
D22*
X142873000Y-116964974D02*
X145537974Y-114300000D01*
X146127176Y-113576380D02*
X146132034Y-113566292D01*
X146511410Y-113192146D02*
X146522325Y-113189656D01*
X146594371Y-114323788D02*
X146609320Y-114258294D01*
X145849189Y-114228967D02*
X145909715Y-114258114D01*
X146563279Y-113203986D02*
X146947602Y-113588310D01*
X142873000Y-117856000D02*
X142873000Y-116964974D01*
X146132034Y-113566292D02*
X146139014Y-113557539D01*
X146099075Y-114436837D02*
X146151597Y-114478722D01*
X146139014Y-113557539D02*
X146492569Y-113203985D01*
X145537974Y-114300000D02*
X145590496Y-114258114D01*
X145590496Y-114258114D02*
X145651022Y-114228967D01*
X146501322Y-113197005D02*
X146511410Y-113192146D01*
X146523339Y-114012572D02*
X146139015Y-113628249D01*
X145962238Y-114300000D02*
X146099075Y-114436837D01*
X147371866Y-113164045D02*
X147235028Y-113027207D01*
X147413751Y-113216568D02*
X147371866Y-113164045D01*
X146609320Y-114258294D02*
X146609320Y-114191115D01*
X146124684Y-113598493D02*
X146124684Y-113587297D01*
X145783695Y-114214018D02*
X145849189Y-114228967D01*
X147413751Y-113535787D02*
X147442898Y-113475261D01*
X145651022Y-114228967D02*
X145716516Y-114214018D01*
X145716516Y-114214018D02*
X145783695Y-114214018D01*
X145909715Y-114258114D02*
X145962238Y-114300000D01*
X146565224Y-114065095D02*
X146523339Y-114012572D01*
X146151597Y-114478722D02*
X146212123Y-114507870D01*
X146565224Y-114384314D02*
X146594371Y-114323788D01*
X146212123Y-114507870D02*
X146277617Y-114522818D01*
X146277617Y-114522818D02*
X146344796Y-114522818D01*
X147126144Y-113674291D02*
X147193323Y-113674291D01*
X146344796Y-114522818D02*
X146410290Y-114507870D01*
X146410290Y-114507870D02*
X146470816Y-114478722D01*
X147442898Y-113475261D02*
X147457847Y-113409767D01*
X146554526Y-113197004D02*
X146563279Y-113203986D01*
X146470816Y-114478722D02*
X146523339Y-114436837D01*
X146523339Y-114436837D02*
X146565224Y-114384314D01*
X146609320Y-114191115D02*
X146594371Y-114125621D01*
X147193143Y-112974685D02*
X147163995Y-112914159D01*
X146594371Y-114125621D02*
X146565224Y-114065095D01*
X146139015Y-113628249D02*
X146132033Y-113619496D01*
X146544438Y-113192146D02*
X146554526Y-113197004D01*
X146132033Y-113619496D02*
X146127176Y-113609408D01*
X146127176Y-113609408D02*
X146124684Y-113598493D01*
X146124684Y-113587297D02*
X146127176Y-113576380D01*
X147163995Y-112715992D02*
X147193143Y-112655466D01*
X147371866Y-113588310D02*
X147413751Y-113535787D01*
X146492569Y-113203985D02*
X146501322Y-113197005D01*
X147163995Y-112914159D02*
X147149047Y-112848665D01*
X147193143Y-112655466D02*
X147235028Y-112602943D01*
X146522325Y-113189656D02*
X146533521Y-113189656D01*
X146533521Y-113189656D02*
X146544438Y-113192146D01*
X146947602Y-113588310D02*
X147000124Y-113630195D01*
X147000124Y-113630195D02*
X147060650Y-113659343D01*
X147258817Y-113659343D02*
X147319343Y-113630195D01*
X147457847Y-113409767D02*
X147457847Y-113342588D01*
X147060650Y-113659343D02*
X147126144Y-113674291D01*
X147235028Y-112602943D02*
X148782355Y-111055619D01*
X147193323Y-113674291D02*
X147258817Y-113659343D01*
X147319343Y-113630195D02*
X147371866Y-113588310D01*
X147457847Y-113342588D02*
X147442898Y-113277094D01*
X147442898Y-113277094D02*
X147413751Y-113216568D01*
X147149047Y-112848665D02*
X147149047Y-112781486D01*
X147235028Y-113027207D02*
X147193143Y-112974685D01*
X147149047Y-112781486D02*
X147163995Y-112715992D01*
X148782355Y-111055619D02*
X149161151Y-111055619D01*
X148712139Y-110196945D02*
X149161151Y-110196945D01*
X148502055Y-110196945D02*
X148712139Y-110196945D01*
X140843000Y-117856000D02*
X148502055Y-110196945D01*
X153884386Y-111402772D02*
X153566887Y-111085273D01*
X159512000Y-118594516D02*
X159512000Y-117030386D01*
X160044472Y-119126988D02*
X159512000Y-118594516D01*
X159512000Y-117030386D02*
X153884386Y-111402772D01*
X161541012Y-119126988D02*
X160044472Y-119126988D01*
X162812000Y-117856000D02*
X161541012Y-119126988D01*
X153648116Y-109264409D02*
X154111707Y-109728000D01*
X154182739Y-109841048D02*
X154197688Y-109906542D01*
X155384497Y-111000790D02*
X160782000Y-116398293D01*
X154500615Y-110611883D02*
X154535970Y-110576527D01*
X154111707Y-109728000D02*
X154153592Y-109780522D01*
X154153592Y-109780522D02*
X154182739Y-109841048D01*
X155356124Y-109798386D02*
X155421619Y-109783438D01*
X155709225Y-109921942D02*
X155738371Y-109982467D01*
X154197688Y-109906542D02*
X154197688Y-109973721D01*
X154076351Y-110611883D02*
X154128873Y-110653768D01*
X154197688Y-109973721D02*
X154182739Y-110039215D01*
X155738371Y-109982467D02*
X155753321Y-110047962D01*
X155313463Y-110887741D02*
X155342611Y-110948267D01*
X155421619Y-109783438D02*
X155488797Y-109783437D01*
X154111707Y-110152264D02*
X154076351Y-110187619D01*
X154535970Y-110576527D02*
X155243077Y-109869421D01*
X154182739Y-110039215D02*
X154153592Y-110099741D01*
X154153592Y-110099741D02*
X154111707Y-110152264D01*
X154076351Y-110187619D02*
X154034466Y-110240141D01*
X154034466Y-110240141D02*
X154005318Y-110300667D01*
X153990370Y-110433340D02*
X154005318Y-110498835D01*
X155313464Y-110689575D02*
X155298514Y-110755068D01*
X154254893Y-110697864D02*
X154322072Y-110697864D01*
X154189399Y-110682915D02*
X154254893Y-110697864D01*
X154005318Y-110300667D02*
X153990370Y-110366162D01*
X153990370Y-110366162D02*
X153990370Y-110433340D01*
X154128873Y-110653768D02*
X154189399Y-110682915D01*
X154005318Y-110498835D02*
X154034466Y-110559360D01*
X154034466Y-110559360D02*
X154076351Y-110611883D01*
X154322072Y-110697864D02*
X154387566Y-110682915D01*
X155667339Y-109869419D02*
X155709225Y-109921942D01*
X154387566Y-110682915D02*
X154448092Y-110653768D01*
X155753321Y-110047962D02*
X155753320Y-110115140D01*
X155554292Y-109798387D02*
X155614818Y-109827535D01*
X155488797Y-109783437D02*
X155554292Y-109798387D01*
X155295598Y-109827534D02*
X155356124Y-109798386D01*
X154448092Y-110653768D02*
X154500615Y-110611883D01*
X155243077Y-109869421D02*
X155295598Y-109827534D01*
X155614818Y-109827535D02*
X155667339Y-109869419D01*
X155753320Y-110115140D02*
X155738372Y-110180635D01*
X155738372Y-110180635D02*
X155709224Y-110241160D01*
X155709224Y-110241160D02*
X155667339Y-110293683D01*
X155667339Y-110293683D02*
X155384497Y-110576526D01*
X155384497Y-110576526D02*
X155342612Y-110629049D01*
X155342612Y-110629049D02*
X155313464Y-110689575D01*
X155298514Y-110755068D02*
X155298515Y-110822248D01*
X155298515Y-110822248D02*
X155313463Y-110887741D01*
X155342611Y-110948267D02*
X155384497Y-111000790D01*
X160782000Y-116398293D02*
X160782000Y-117856000D01*
D27*
G36*
X162002400Y-92303000D02*
X162002506Y-92304081D01*
X162002410Y-92304994D01*
X162010027Y-92388686D01*
X162033755Y-92469306D01*
X162072689Y-92543781D01*
X162109781Y-92589914D01*
X162102294Y-92596819D01*
X161797742Y-93015010D01*
X161580627Y-93484581D01*
X161499035Y-93790024D01*
X161595483Y-94199600D01*
X162331400Y-94199600D01*
X162331400Y-94504400D01*
X161595483Y-94504400D01*
X161499035Y-94913976D01*
X161580627Y-95219419D01*
X161797742Y-95688990D01*
X162097710Y-96100886D01*
X162077706Y-96124725D01*
X162076978Y-96126049D01*
X162076016Y-96127212D01*
X162056759Y-96162828D01*
X162037220Y-96198369D01*
X162036763Y-96199810D01*
X162036046Y-96201136D01*
X162024071Y-96239821D01*
X162011810Y-96278473D01*
X162011642Y-96279973D01*
X162011195Y-96281416D01*
X162006954Y-96321767D01*
X162002442Y-96361988D01*
X162002422Y-96364882D01*
X162002410Y-96364994D01*
X162002420Y-96365106D01*
X162002400Y-96368000D01*
X162002400Y-98526000D01*
X162006348Y-98566268D01*
X162010027Y-98606686D01*
X162010454Y-98608136D01*
X162010601Y-98609637D01*
X162022320Y-98648454D01*
X162033755Y-98687306D01*
X162034453Y-98688641D01*
X162034890Y-98690089D01*
X162053919Y-98725878D01*
X162072689Y-98761781D01*
X162073637Y-98762960D01*
X162074344Y-98764290D01*
X162099911Y-98795638D01*
X162125348Y-98827275D01*
X162126506Y-98828247D01*
X162127459Y-98829415D01*
X162158643Y-98855213D01*
X162189725Y-98881294D01*
X162191049Y-98882022D01*
X162192212Y-98882984D01*
X162227828Y-98902241D01*
X162263369Y-98921780D01*
X162264810Y-98922237D01*
X162266136Y-98922954D01*
X162304821Y-98934929D01*
X162343473Y-98947190D01*
X162344973Y-98947358D01*
X162346416Y-98947805D01*
X162386767Y-98952046D01*
X162426988Y-98956558D01*
X162429882Y-98956578D01*
X162429994Y-98956590D01*
X162430106Y-98956580D01*
X162433000Y-98956600D01*
X172505400Y-98956600D01*
X172505400Y-130595400D01*
X133366600Y-130595400D01*
X133366600Y-124008596D01*
X149186015Y-124008596D01*
X149209844Y-124138429D01*
X149258437Y-124261161D01*
X149329943Y-124372118D01*
X149421640Y-124467072D01*
X149530033Y-124542407D01*
X149650994Y-124595254D01*
X149779917Y-124623599D01*
X149850580Y-124625079D01*
X150026750Y-124801249D01*
X150061141Y-124829498D01*
X150095347Y-124858200D01*
X150097573Y-124859424D01*
X150099531Y-124861032D01*
X150138774Y-124882074D01*
X150177884Y-124903575D01*
X150180304Y-124904343D01*
X150182539Y-124905541D01*
X150225169Y-124918575D01*
X150267662Y-124932054D01*
X150270182Y-124932337D01*
X150272610Y-124933079D01*
X150316926Y-124937580D01*
X150361262Y-124942553D01*
X150366233Y-124942588D01*
X150366315Y-124942596D01*
X150366391Y-124942589D01*
X150368000Y-124942600D01*
X169202282Y-124942600D01*
X169233640Y-124975072D01*
X169342033Y-125050407D01*
X169462994Y-125103254D01*
X169591917Y-125131599D01*
X169723889Y-125134364D01*
X169853886Y-125111442D01*
X169976954Y-125063707D01*
X170088407Y-124992977D01*
X170183999Y-124901946D01*
X170260089Y-124794081D01*
X170313779Y-124673491D01*
X170343024Y-124544770D01*
X170344062Y-124470438D01*
X170573451Y-124241049D01*
X170601746Y-124206602D01*
X170630401Y-124172452D01*
X170631623Y-124170229D01*
X170633234Y-124168268D01*
X170654316Y-124128951D01*
X170675776Y-124089915D01*
X170676542Y-124087499D01*
X170677743Y-124085260D01*
X170690786Y-124042597D01*
X170704255Y-124000137D01*
X170704538Y-123997616D01*
X170705280Y-123995188D01*
X170709785Y-123950833D01*
X170714754Y-123906537D01*
X170714789Y-123901577D01*
X170714798Y-123901484D01*
X170714790Y-123901398D01*
X170714801Y-123899799D01*
X170714801Y-112796983D01*
X170710450Y-112752611D01*
X170706565Y-112708208D01*
X170705858Y-112705774D01*
X170705610Y-112703246D01*
X170692717Y-112660541D01*
X170680288Y-112617760D01*
X170679121Y-112615508D01*
X170678387Y-112613078D01*
X170657443Y-112573688D01*
X170636943Y-112534140D01*
X170635362Y-112532159D01*
X170634169Y-112529916D01*
X170605946Y-112495311D01*
X170578182Y-112460531D01*
X170574696Y-112456995D01*
X170574640Y-112456927D01*
X170574577Y-112456875D01*
X170573451Y-112455733D01*
X169921477Y-111803759D01*
X169923602Y-111651633D01*
X169894576Y-111505043D01*
X169837630Y-111366883D01*
X169754934Y-111242414D01*
X169649636Y-111136379D01*
X169525748Y-111052816D01*
X169387989Y-110994907D01*
X169241605Y-110964859D01*
X169092173Y-110963815D01*
X168945384Y-110991817D01*
X168806829Y-111047796D01*
X168681787Y-111129622D01*
X168575019Y-111234177D01*
X168490592Y-111357478D01*
X168431723Y-111494830D01*
X168400654Y-111641001D01*
X168398567Y-111790422D01*
X168425543Y-111937403D01*
X168480554Y-112076345D01*
X168561505Y-112201956D01*
X168665312Y-112309451D01*
X168788021Y-112394736D01*
X168924959Y-112454563D01*
X169070909Y-112486652D01*
X169220312Y-112489781D01*
X169239173Y-112486455D01*
X169749601Y-112996883D01*
X169749601Y-119249507D01*
X169590527Y-119089318D01*
X169288838Y-118885827D01*
X168953371Y-118744809D01*
X168596901Y-118671636D01*
X168233008Y-118669096D01*
X167875552Y-118737284D01*
X167538148Y-118873604D01*
X167233648Y-119072864D01*
X166973650Y-119327472D01*
X166768058Y-119627733D01*
X166671551Y-119852900D01*
X156411693Y-119852900D01*
X156328325Y-119650634D01*
X156126944Y-119347532D01*
X155870527Y-119089318D01*
X155568838Y-118885827D01*
X155233371Y-118744809D01*
X154876901Y-118671636D01*
X154513008Y-118669096D01*
X154155552Y-118737284D01*
X153818148Y-118873604D01*
X153513648Y-119072864D01*
X153253650Y-119327472D01*
X153048058Y-119627733D01*
X152904702Y-119962208D01*
X152829042Y-120318157D01*
X152823961Y-120682024D01*
X152889653Y-121039947D01*
X153023614Y-121378295D01*
X153220742Y-121684178D01*
X153473530Y-121945948D01*
X153772348Y-122153631D01*
X154105814Y-122299319D01*
X154461227Y-122377462D01*
X154825049Y-122385083D01*
X155183422Y-122321892D01*
X155522696Y-122190296D01*
X155829949Y-121995308D01*
X156093476Y-121744354D01*
X156303241Y-121446993D01*
X156413610Y-121199100D01*
X166672666Y-121199100D01*
X166743614Y-121378295D01*
X166940742Y-121684178D01*
X167193530Y-121945948D01*
X167492348Y-122153631D01*
X167825814Y-122299319D01*
X168181227Y-122377462D01*
X168545049Y-122385083D01*
X168903422Y-122321892D01*
X169242696Y-122190296D01*
X169549949Y-121995308D01*
X169749601Y-121805181D01*
X169749601Y-123699899D01*
X169662710Y-123786790D01*
X169610700Y-123786427D01*
X169481036Y-123811161D01*
X169358646Y-123860610D01*
X169248192Y-123932889D01*
X169202739Y-123977400D01*
X150567899Y-123977400D01*
X150532349Y-123941850D01*
X150533129Y-123885999D01*
X150507490Y-123756511D01*
X150457188Y-123634470D01*
X150384139Y-123524523D01*
X150291126Y-123430858D01*
X150181692Y-123357044D01*
X150060004Y-123305891D01*
X149930699Y-123279348D01*
X149798700Y-123278427D01*
X149669036Y-123303161D01*
X149546646Y-123352610D01*
X149436192Y-123424889D01*
X149341880Y-123517246D01*
X149267304Y-123626163D01*
X149215303Y-123747490D01*
X149187858Y-123876607D01*
X149186015Y-124008596D01*
X133366600Y-124008596D01*
X133366600Y-121772051D01*
X133534530Y-121945948D01*
X133833348Y-122153631D01*
X134166814Y-122299319D01*
X134522227Y-122377462D01*
X134886049Y-122385083D01*
X135244422Y-122321892D01*
X135583696Y-122190296D01*
X135890949Y-121995308D01*
X136154476Y-121744354D01*
X136364241Y-121446993D01*
X136474610Y-121199100D01*
X146733666Y-121199100D01*
X146804614Y-121378295D01*
X147001742Y-121684178D01*
X147254530Y-121945948D01*
X147553348Y-122153631D01*
X147886814Y-122299319D01*
X148242227Y-122377462D01*
X148606049Y-122385083D01*
X148964422Y-122321892D01*
X149303696Y-122190296D01*
X149610949Y-121995308D01*
X149874476Y-121744354D01*
X150084241Y-121446993D01*
X150232253Y-121114552D01*
X150312875Y-120759694D01*
X150318679Y-120344049D01*
X150247997Y-119987078D01*
X150109325Y-119650634D01*
X149907944Y-119347532D01*
X149651527Y-119089318D01*
X149349838Y-118885827D01*
X149014371Y-118744809D01*
X148657901Y-118671636D01*
X148294008Y-118669096D01*
X147936552Y-118737284D01*
X147599148Y-118873604D01*
X147294648Y-119072864D01*
X147034650Y-119327472D01*
X146829058Y-119627733D01*
X146732551Y-119852900D01*
X136472693Y-119852900D01*
X136389325Y-119650634D01*
X136187944Y-119347532D01*
X135931527Y-119089318D01*
X135629838Y-118885827D01*
X135294371Y-118744809D01*
X134937901Y-118671636D01*
X134574008Y-118669096D01*
X134216552Y-118737284D01*
X133879148Y-118873604D01*
X133574648Y-119072864D01*
X133366600Y-119276599D01*
X133366600Y-117960649D01*
X137056764Y-117960649D01*
X137100825Y-118200718D01*
X137190676Y-118427657D01*
X137322896Y-118632821D01*
X137492447Y-118808397D01*
X137692872Y-118947696D01*
X137916537Y-119045412D01*
X138154921Y-119097825D01*
X138398947Y-119102936D01*
X138639317Y-119060552D01*
X138821246Y-118989986D01*
X144674146Y-118989986D01*
X144769291Y-119217333D01*
X145047243Y-119316757D01*
X145339251Y-119360045D01*
X145634092Y-119345533D01*
X145920438Y-119273780D01*
X146056709Y-119217333D01*
X146151854Y-118989986D01*
X145413000Y-118251131D01*
X144674146Y-118989986D01*
X138821246Y-118989986D01*
X138866877Y-118972287D01*
X139072960Y-118841504D01*
X139249715Y-118673182D01*
X139390409Y-118473735D01*
X139489685Y-118250758D01*
X139543760Y-118012744D01*
X139544650Y-117948962D01*
X139735946Y-117948962D01*
X139775086Y-118162219D01*
X139854903Y-118363813D01*
X139972356Y-118546064D01*
X140122971Y-118702031D01*
X140301012Y-118825773D01*
X140499698Y-118912576D01*
X140711459Y-118959135D01*
X140928231Y-118963676D01*
X141141756Y-118926025D01*
X141343902Y-118847618D01*
X141526969Y-118731441D01*
X141683984Y-118581918D01*
X141808965Y-118404745D01*
X141857737Y-118295201D01*
X141884903Y-118363813D01*
X142002356Y-118546064D01*
X142152971Y-118702031D01*
X142331012Y-118825773D01*
X142529698Y-118912576D01*
X142741459Y-118959135D01*
X142958231Y-118963676D01*
X143171756Y-118926025D01*
X143373902Y-118847618D01*
X143556969Y-118731441D01*
X143713984Y-118581918D01*
X143838965Y-118404745D01*
X143927154Y-118206670D01*
X143940841Y-118146427D01*
X143995220Y-118363438D01*
X144051667Y-118499709D01*
X144279014Y-118594854D01*
X145017869Y-117856000D01*
X145808131Y-117856000D01*
X146546986Y-118594854D01*
X146774333Y-118499709D01*
X146873757Y-118221757D01*
X146917045Y-117929749D01*
X146902533Y-117634908D01*
X146830780Y-117348562D01*
X146774333Y-117212291D01*
X146546986Y-117117146D01*
X145808131Y-117856000D01*
X145017869Y-117856000D01*
X144279014Y-117117146D01*
X144051667Y-117212291D01*
X143952243Y-117490243D01*
X143941732Y-117561150D01*
X143936534Y-117534900D01*
X143853911Y-117334441D01*
X143733925Y-117153847D01*
X143581146Y-116999998D01*
X143544914Y-116975559D01*
X143798459Y-116722014D01*
X144674146Y-116722014D01*
X145413000Y-117460869D01*
X146151854Y-116722014D01*
X146056709Y-116494667D01*
X145778757Y-116395243D01*
X145486749Y-116351955D01*
X145191908Y-116366467D01*
X144905562Y-116438220D01*
X144769291Y-116494667D01*
X144674146Y-116722014D01*
X143798459Y-116722014D01*
X145750106Y-114770368D01*
X145757825Y-114778087D01*
X145776157Y-114793145D01*
X145792940Y-114809911D01*
X145798178Y-114814149D01*
X145850700Y-114856033D01*
X145853741Y-114858006D01*
X145856378Y-114860492D01*
X145893215Y-114883613D01*
X145929717Y-114907292D01*
X145933084Y-114908637D01*
X145936153Y-114910563D01*
X145942203Y-114913529D01*
X146002730Y-114942677D01*
X146006134Y-114943924D01*
X146009262Y-114945763D01*
X146050341Y-114960114D01*
X146091171Y-114975067D01*
X146094753Y-114975629D01*
X146098180Y-114976826D01*
X146104738Y-114978371D01*
X146170232Y-114993319D01*
X146173826Y-114993777D01*
X146177279Y-114994872D01*
X146220517Y-114999722D01*
X146263664Y-115005216D01*
X146267277Y-115004967D01*
X146270879Y-115005371D01*
X146277617Y-115005418D01*
X146344796Y-115005418D01*
X146348402Y-115005064D01*
X146352012Y-115005364D01*
X146395252Y-115000471D01*
X146438533Y-114996227D01*
X146441999Y-114995181D01*
X146445601Y-114994773D01*
X146452181Y-114993319D01*
X146517674Y-114978371D01*
X146521113Y-114977223D01*
X146524706Y-114976711D01*
X146565763Y-114962321D01*
X146607016Y-114948553D01*
X146610169Y-114946758D01*
X146613592Y-114945558D01*
X146619684Y-114942677D01*
X146680210Y-114913529D01*
X146683306Y-114911645D01*
X146686686Y-114910350D01*
X146723506Y-114887190D01*
X146760676Y-114864577D01*
X146763345Y-114862130D01*
X146766412Y-114860201D01*
X146771709Y-114856036D01*
X146824232Y-114814151D01*
X146826833Y-114811624D01*
X146829849Y-114809603D01*
X146860605Y-114778816D01*
X146891789Y-114748522D01*
X146893850Y-114745537D01*
X146896416Y-114742969D01*
X146900653Y-114737730D01*
X146942538Y-114685207D01*
X146944510Y-114682167D01*
X146946998Y-114679528D01*
X146970122Y-114642684D01*
X146993796Y-114606190D01*
X146995141Y-114602822D01*
X146997068Y-114599752D01*
X147000034Y-114593702D01*
X147029181Y-114533176D01*
X147030427Y-114529774D01*
X147032261Y-114526655D01*
X147046600Y-114485612D01*
X147061570Y-114444734D01*
X147062131Y-114441155D01*
X147063325Y-114437738D01*
X147064871Y-114431179D01*
X147079819Y-114365686D01*
X147080277Y-114362091D01*
X147081374Y-114358632D01*
X147086224Y-114315392D01*
X147091718Y-114272254D01*
X147091469Y-114268637D01*
X147091873Y-114265032D01*
X147091920Y-114258294D01*
X147091920Y-114191115D01*
X147091566Y-114187506D01*
X147091866Y-114183892D01*
X147088445Y-114153665D01*
X147112191Y-114156689D01*
X147115804Y-114156440D01*
X147119406Y-114156844D01*
X147126144Y-114156891D01*
X147193323Y-114156891D01*
X147196929Y-114156537D01*
X147200539Y-114156837D01*
X147243779Y-114151944D01*
X147287060Y-114147700D01*
X147290526Y-114146654D01*
X147294128Y-114146246D01*
X147300708Y-114144792D01*
X147366201Y-114129844D01*
X147369640Y-114128696D01*
X147373233Y-114128184D01*
X147414290Y-114113794D01*
X147455543Y-114100026D01*
X147458696Y-114098231D01*
X147462119Y-114097031D01*
X147468211Y-114094150D01*
X147528737Y-114065002D01*
X147531833Y-114063118D01*
X147535213Y-114061823D01*
X147572033Y-114038663D01*
X147609203Y-114016050D01*
X147611872Y-114013603D01*
X147614939Y-114011674D01*
X147620236Y-114007509D01*
X147672759Y-113965624D01*
X147675360Y-113963097D01*
X147678376Y-113961076D01*
X147709132Y-113930289D01*
X147740316Y-113899995D01*
X147742377Y-113897010D01*
X147744943Y-113894442D01*
X147749180Y-113889203D01*
X147791065Y-113836680D01*
X147793037Y-113833640D01*
X147795525Y-113831001D01*
X147818649Y-113794157D01*
X147842323Y-113757663D01*
X147843668Y-113754295D01*
X147845595Y-113751225D01*
X147848561Y-113745175D01*
X147877708Y-113684649D01*
X147878954Y-113681247D01*
X147880788Y-113678128D01*
X147895127Y-113637085D01*
X147910097Y-113596207D01*
X147910658Y-113592628D01*
X147911852Y-113589211D01*
X147913398Y-113582652D01*
X147928346Y-113517159D01*
X147928804Y-113513564D01*
X147929901Y-113510105D01*
X147934751Y-113466865D01*
X147940245Y-113423727D01*
X147939996Y-113420110D01*
X147940400Y-113416505D01*
X147940447Y-113409767D01*
X147940447Y-113342588D01*
X147940093Y-113338979D01*
X147940393Y-113335365D01*
X147935501Y-113292141D01*
X147931256Y-113248851D01*
X147930208Y-113245379D01*
X147929800Y-113241776D01*
X147928346Y-113235196D01*
X147913398Y-113169703D01*
X147912251Y-113166266D01*
X147911740Y-113162683D01*
X147897351Y-113121627D01*
X147883578Y-113080361D01*
X147881787Y-113077216D01*
X147880589Y-113073797D01*
X147877708Y-113067706D01*
X147848561Y-113007180D01*
X147846675Y-113004080D01*
X147845379Y-113000698D01*
X147822225Y-112963889D01*
X147799610Y-112926713D01*
X147797161Y-112924041D01*
X147795230Y-112920972D01*
X147791065Y-112915675D01*
X147749180Y-112863152D01*
X147732650Y-112846136D01*
X147717847Y-112827593D01*
X147713116Y-112822795D01*
X147705396Y-112815075D01*
X148861293Y-111659180D01*
X148952145Y-111698873D01*
X149081068Y-111727218D01*
X149213040Y-111729983D01*
X149343037Y-111707061D01*
X149466105Y-111659326D01*
X149577558Y-111588596D01*
X149673150Y-111497565D01*
X149749240Y-111389700D01*
X149802930Y-111269110D01*
X149831838Y-111141869D01*
X152892902Y-111141869D01*
X152916731Y-111271702D01*
X152965324Y-111394434D01*
X153036830Y-111505391D01*
X153128527Y-111600345D01*
X153236920Y-111675680D01*
X153357881Y-111728527D01*
X153486804Y-111756872D01*
X153557466Y-111758352D01*
X158421317Y-116622203D01*
X158372726Y-116612229D01*
X158128653Y-116610525D01*
X157888898Y-116656261D01*
X157662592Y-116747694D01*
X157458355Y-116881343D01*
X157283968Y-117052116D01*
X157146072Y-117253508D01*
X157049919Y-117477850D01*
X156999172Y-117716595D01*
X156995764Y-117960649D01*
X157039825Y-118200718D01*
X157129676Y-118427657D01*
X157261896Y-118632821D01*
X157431447Y-118808397D01*
X157631872Y-118947696D01*
X157855537Y-119045412D01*
X158093921Y-119097825D01*
X158337947Y-119102936D01*
X158578317Y-119060552D01*
X158805877Y-118972287D01*
X159011960Y-118841504D01*
X159069979Y-118786253D01*
X159086758Y-118817811D01*
X159107258Y-118857359D01*
X159108839Y-118859340D01*
X159110032Y-118861583D01*
X159138217Y-118896141D01*
X159166019Y-118930968D01*
X159169505Y-118934504D01*
X159169561Y-118934572D01*
X159169624Y-118934624D01*
X159170750Y-118935766D01*
X159703222Y-119468238D01*
X159737669Y-119496533D01*
X159771819Y-119525188D01*
X159774042Y-119526410D01*
X159776003Y-119528021D01*
X159815320Y-119549103D01*
X159854356Y-119570563D01*
X159856772Y-119571329D01*
X159859011Y-119572530D01*
X159901674Y-119585573D01*
X159944134Y-119599042D01*
X159946655Y-119599325D01*
X159949083Y-119600067D01*
X159993438Y-119604572D01*
X160037734Y-119609541D01*
X160042694Y-119609576D01*
X160042787Y-119609585D01*
X160042873Y-119609577D01*
X160044472Y-119609588D01*
X161541012Y-119609588D01*
X161585338Y-119605242D01*
X161629787Y-119601353D01*
X161632226Y-119600644D01*
X161634749Y-119600397D01*
X161677412Y-119587516D01*
X161720235Y-119575075D01*
X161722487Y-119573908D01*
X161724917Y-119573174D01*
X161764307Y-119552230D01*
X161803855Y-119531730D01*
X161805836Y-119530149D01*
X161808079Y-119528956D01*
X161842637Y-119500771D01*
X161877464Y-119472969D01*
X161881000Y-119469483D01*
X161881068Y-119469427D01*
X161881120Y-119469364D01*
X161882262Y-119468238D01*
X162360514Y-118989986D01*
X164613146Y-118989986D01*
X164708291Y-119217333D01*
X164986243Y-119316757D01*
X165278251Y-119360045D01*
X165573092Y-119345533D01*
X165859438Y-119273780D01*
X165995709Y-119217333D01*
X166090854Y-118989986D01*
X165352000Y-118251131D01*
X164613146Y-118989986D01*
X162360514Y-118989986D01*
X162447281Y-118903219D01*
X162468698Y-118912576D01*
X162680459Y-118959135D01*
X162897231Y-118963676D01*
X163110756Y-118926025D01*
X163312902Y-118847618D01*
X163495969Y-118731441D01*
X163652984Y-118581918D01*
X163777965Y-118404745D01*
X163866154Y-118206670D01*
X163879841Y-118146427D01*
X163934220Y-118363438D01*
X163990667Y-118499709D01*
X164218014Y-118594854D01*
X164956869Y-117856000D01*
X165747131Y-117856000D01*
X166485986Y-118594854D01*
X166713333Y-118499709D01*
X166812757Y-118221757D01*
X166856045Y-117929749D01*
X166841533Y-117634908D01*
X166769780Y-117348562D01*
X166713333Y-117212291D01*
X166485986Y-117117146D01*
X165747131Y-117856000D01*
X164956869Y-117856000D01*
X164218014Y-117117146D01*
X163990667Y-117212291D01*
X163891243Y-117490243D01*
X163880732Y-117561150D01*
X163875534Y-117534900D01*
X163792911Y-117334441D01*
X163672925Y-117153847D01*
X163520146Y-116999998D01*
X163340395Y-116878754D01*
X163140517Y-116794734D01*
X162928126Y-116751136D01*
X162711312Y-116749622D01*
X162498333Y-116790250D01*
X162297301Y-116871472D01*
X162115874Y-116990194D01*
X161960963Y-117141895D01*
X161838467Y-117320796D01*
X161797084Y-117417350D01*
X161762911Y-117334441D01*
X161642925Y-117153847D01*
X161490146Y-116999998D01*
X161310395Y-116878754D01*
X161264600Y-116859504D01*
X161264600Y-116722014D01*
X164613146Y-116722014D01*
X165352000Y-117460869D01*
X166090854Y-116722014D01*
X165995709Y-116494667D01*
X165717757Y-116395243D01*
X165425749Y-116351955D01*
X165130908Y-116366467D01*
X164844562Y-116438220D01*
X164708291Y-116494667D01*
X164613146Y-116722014D01*
X161264600Y-116722014D01*
X161264600Y-116398293D01*
X161260254Y-116353967D01*
X161256365Y-116309518D01*
X161255656Y-116307079D01*
X161255409Y-116304556D01*
X161242528Y-116261893D01*
X161230087Y-116219070D01*
X161228920Y-116216818D01*
X161228186Y-116214388D01*
X161207242Y-116174998D01*
X161186742Y-116135450D01*
X161185161Y-116133469D01*
X161183968Y-116131226D01*
X161155783Y-116096668D01*
X161127981Y-116061841D01*
X161124495Y-116058305D01*
X161124439Y-116058237D01*
X161124376Y-116058185D01*
X161123250Y-116057043D01*
X155854865Y-110788658D01*
X156008590Y-110634932D01*
X156023648Y-110616600D01*
X156040416Y-110599815D01*
X156044653Y-110594576D01*
X156086538Y-110542053D01*
X156088507Y-110539018D01*
X156090992Y-110536382D01*
X156114130Y-110499519D01*
X156137796Y-110463036D01*
X156139138Y-110459675D01*
X156141064Y-110456607D01*
X156144030Y-110450556D01*
X156173178Y-110390031D01*
X156174426Y-110386623D01*
X156176266Y-110383494D01*
X156190603Y-110342454D01*
X156205569Y-110301590D01*
X156206132Y-110298000D01*
X156207328Y-110294577D01*
X156208873Y-110288018D01*
X156223821Y-110222523D01*
X156224277Y-110218938D01*
X156225373Y-110215485D01*
X156230228Y-110172207D01*
X156235718Y-110129091D01*
X156235469Y-110125483D01*
X156235873Y-110121885D01*
X156235920Y-110115147D01*
X156235921Y-110047969D01*
X156235567Y-110044355D01*
X156235867Y-110040734D01*
X156230973Y-109997498D01*
X156226731Y-109954232D01*
X156225682Y-109950757D01*
X156225273Y-109947145D01*
X156223819Y-109940566D01*
X156208869Y-109875070D01*
X156207725Y-109871641D01*
X156207214Y-109868060D01*
X156192825Y-109827003D01*
X156179049Y-109785729D01*
X156177259Y-109782585D01*
X156176063Y-109779173D01*
X156173182Y-109773082D01*
X156144036Y-109712557D01*
X156142151Y-109709458D01*
X156140851Y-109706067D01*
X156117693Y-109669252D01*
X156095086Y-109632090D01*
X156092632Y-109629413D01*
X156090700Y-109626342D01*
X156086536Y-109621045D01*
X156044650Y-109568521D01*
X156042122Y-109565919D01*
X156040107Y-109562912D01*
X156009345Y-109532181D01*
X155979020Y-109500966D01*
X155976039Y-109498907D01*
X155973474Y-109496345D01*
X155968235Y-109492107D01*
X155915714Y-109450223D01*
X155912673Y-109448250D01*
X155910037Y-109445765D01*
X155873191Y-109422638D01*
X155836697Y-109398965D01*
X155833333Y-109397621D01*
X155830262Y-109395694D01*
X155824212Y-109392728D01*
X155763686Y-109363580D01*
X155760286Y-109362335D01*
X155757164Y-109360499D01*
X155716078Y-109346145D01*
X155675244Y-109331190D01*
X155671669Y-109330629D01*
X155668248Y-109329434D01*
X155661689Y-109327889D01*
X155596194Y-109312939D01*
X155592589Y-109312480D01*
X155589128Y-109311382D01*
X155545922Y-109306536D01*
X155502762Y-109301039D01*
X155499137Y-109301289D01*
X155495528Y-109300884D01*
X155488790Y-109300837D01*
X155421612Y-109300838D01*
X155418010Y-109301191D01*
X155414405Y-109300892D01*
X155371184Y-109305783D01*
X155327875Y-109310030D01*
X155324410Y-109311076D01*
X155320815Y-109311483D01*
X155314236Y-109312937D01*
X155248741Y-109327885D01*
X155245303Y-109329032D01*
X155241708Y-109329545D01*
X155200663Y-109343930D01*
X155159399Y-109357702D01*
X155156243Y-109359499D01*
X155152822Y-109360698D01*
X155146731Y-109363579D01*
X155086204Y-109392727D01*
X155083099Y-109394616D01*
X155079710Y-109395915D01*
X155042913Y-109419063D01*
X155005738Y-109441679D01*
X155003060Y-109444134D01*
X154999986Y-109446068D01*
X154994689Y-109450232D01*
X154942168Y-109492119D01*
X154925157Y-109508646D01*
X154906626Y-109523439D01*
X154901828Y-109528171D01*
X154661249Y-109768750D01*
X154653239Y-109733657D01*
X154652092Y-109730220D01*
X154651581Y-109726637D01*
X154637192Y-109685581D01*
X154623419Y-109644315D01*
X154621628Y-109641170D01*
X154620430Y-109637751D01*
X154617549Y-109631660D01*
X154588402Y-109571134D01*
X154586515Y-109568033D01*
X154585218Y-109564648D01*
X154562065Y-109527840D01*
X154539451Y-109490667D01*
X154537000Y-109487994D01*
X154535068Y-109484922D01*
X154530903Y-109479625D01*
X154489019Y-109427103D01*
X154472484Y-109410083D01*
X154457688Y-109391548D01*
X154452957Y-109386750D01*
X154320465Y-109254258D01*
X154321245Y-109198408D01*
X154295606Y-109068920D01*
X154245304Y-108946879D01*
X154172255Y-108836932D01*
X154079242Y-108743267D01*
X153969808Y-108669453D01*
X153848120Y-108618300D01*
X153718815Y-108591757D01*
X153586816Y-108590836D01*
X153457152Y-108615570D01*
X153334762Y-108665019D01*
X153224308Y-108737298D01*
X153129996Y-108829655D01*
X153055420Y-108938572D01*
X153003419Y-109059899D01*
X152975974Y-109189016D01*
X152974131Y-109321005D01*
X152997960Y-109450838D01*
X153046553Y-109573570D01*
X153118059Y-109684527D01*
X153209756Y-109779481D01*
X153318149Y-109854816D01*
X153439110Y-109907663D01*
X153568033Y-109936008D01*
X153638695Y-109937488D01*
X153650164Y-109948957D01*
X153629589Y-109981737D01*
X153605896Y-110018261D01*
X153604551Y-110021628D01*
X153602625Y-110024697D01*
X153599659Y-110030747D01*
X153570511Y-110091273D01*
X153569263Y-110094680D01*
X153567424Y-110097808D01*
X153553078Y-110138875D01*
X153538121Y-110179715D01*
X153537559Y-110183299D01*
X153536362Y-110186725D01*
X153534817Y-110193284D01*
X153519869Y-110258779D01*
X153519412Y-110262370D01*
X153518316Y-110265824D01*
X153513464Y-110309079D01*
X153507972Y-110352211D01*
X153508221Y-110355823D01*
X153507817Y-110359424D01*
X153507770Y-110366162D01*
X153507770Y-110411715D01*
X153505587Y-110411700D01*
X153375923Y-110436434D01*
X153253533Y-110485883D01*
X153143079Y-110558162D01*
X153048767Y-110650519D01*
X152974191Y-110759436D01*
X152922190Y-110880763D01*
X152894745Y-111009880D01*
X152892902Y-111141869D01*
X149831838Y-111141869D01*
X149832175Y-111140389D01*
X149834280Y-110989618D01*
X149808641Y-110860130D01*
X149758339Y-110738089D01*
X149685290Y-110628142D01*
X149682625Y-110625459D01*
X149749240Y-110531026D01*
X149802930Y-110410436D01*
X149832175Y-110281715D01*
X149834280Y-110130944D01*
X149808641Y-110001456D01*
X149758339Y-109879415D01*
X149685290Y-109769468D01*
X149592277Y-109675803D01*
X149482843Y-109601989D01*
X149361155Y-109550836D01*
X149231850Y-109524293D01*
X149099851Y-109523372D01*
X148970187Y-109548106D01*
X148847797Y-109597555D01*
X148737343Y-109669834D01*
X148691890Y-109714345D01*
X148502055Y-109714345D01*
X148457683Y-109718696D01*
X148413280Y-109722581D01*
X148410846Y-109723288D01*
X148408318Y-109723536D01*
X148365613Y-109736429D01*
X148322832Y-109748858D01*
X148320580Y-109750025D01*
X148318150Y-109750759D01*
X148278760Y-109771703D01*
X148239212Y-109792203D01*
X148237231Y-109793784D01*
X148234988Y-109794977D01*
X148200430Y-109823162D01*
X148165603Y-109850964D01*
X148162072Y-109854447D01*
X148161999Y-109854506D01*
X148161943Y-109854573D01*
X148160805Y-109855696D01*
X141206895Y-116809605D01*
X141171517Y-116794734D01*
X140959126Y-116751136D01*
X140742312Y-116749622D01*
X140529333Y-116790250D01*
X140328301Y-116871472D01*
X140146874Y-116990194D01*
X139991963Y-117141895D01*
X139869467Y-117320796D01*
X139784053Y-117520082D01*
X139738974Y-117732164D01*
X139735946Y-117948962D01*
X139544650Y-117948962D01*
X139547653Y-117733961D01*
X139500245Y-117494530D01*
X139407234Y-117268869D01*
X139272163Y-117065570D01*
X139100176Y-116892379D01*
X138897826Y-116755892D01*
X138672819Y-116661308D01*
X138433726Y-116612229D01*
X138189653Y-116610525D01*
X137949898Y-116656261D01*
X137723592Y-116747694D01*
X137519355Y-116881343D01*
X137344968Y-117052116D01*
X137207072Y-117253508D01*
X137110919Y-117477850D01*
X137060172Y-117716595D01*
X137056764Y-117960649D01*
X133366600Y-117960649D01*
X133366600Y-98397754D01*
X133419554Y-98375820D01*
X133519398Y-98309107D01*
X133604307Y-98224197D01*
X133671021Y-98124354D01*
X133716973Y-98013413D01*
X133740400Y-97895640D01*
X133740400Y-94640400D01*
X133588000Y-94488000D01*
X129353798Y-94488000D01*
X129364777Y-94367366D01*
X129364504Y-94328339D01*
X129364777Y-94289312D01*
X129364190Y-94283329D01*
X129353666Y-94183200D01*
X133588000Y-94183200D01*
X133740400Y-94030800D01*
X133740400Y-91083241D01*
X138628695Y-91083241D01*
X138795551Y-91346226D01*
X139169847Y-91473260D01*
X139561734Y-91524832D01*
X139956152Y-91498960D01*
X140337943Y-91396638D01*
X140459649Y-91346226D01*
X140626505Y-91083241D01*
X139627600Y-90084336D01*
X138628695Y-91083241D01*
X133740400Y-91083241D01*
X133740400Y-90775560D01*
X133716973Y-90657787D01*
X133671021Y-90546846D01*
X133604307Y-90447003D01*
X133519398Y-90362093D01*
X133419554Y-90295380D01*
X133366600Y-90273446D01*
X133366600Y-89443734D01*
X137612368Y-89443734D01*
X137638240Y-89838152D01*
X137740562Y-90219943D01*
X137790974Y-90341649D01*
X138053959Y-90508505D01*
X139052864Y-89509600D01*
X140202336Y-89509600D01*
X141201241Y-90508505D01*
X141464226Y-90341649D01*
X141591260Y-89967353D01*
X141642832Y-89575466D01*
X141616960Y-89181048D01*
X141514638Y-88799257D01*
X141464226Y-88677551D01*
X141201241Y-88510695D01*
X140202336Y-89509600D01*
X139052864Y-89509600D01*
X138053959Y-88510695D01*
X137790974Y-88677551D01*
X137663940Y-89051847D01*
X137612368Y-89443734D01*
X133366600Y-89443734D01*
X133366600Y-88451885D01*
X133367433Y-88451336D01*
X133432654Y-88374812D01*
X133473973Y-88283147D01*
X133488120Y-88183600D01*
X133488120Y-87579200D01*
X139079052Y-87579200D01*
X138917257Y-87622562D01*
X138795551Y-87672974D01*
X138628695Y-87935959D01*
X139627600Y-88934864D01*
X140626505Y-87935959D01*
X140459649Y-87672974D01*
X140183351Y-87579200D01*
X143002000Y-87579200D01*
X143002000Y-87839571D01*
X142993967Y-87844864D01*
X142928746Y-87921388D01*
X142887427Y-88013053D01*
X142873280Y-88112600D01*
X142873280Y-90906600D01*
X142877796Y-90963228D01*
X142907540Y-91059275D01*
X142962864Y-91143233D01*
X143002000Y-91176588D01*
X143002000Y-101955600D01*
X143016652Y-102105031D01*
X143029740Y-102254632D01*
X143032125Y-102262841D01*
X143032959Y-102271347D01*
X143076366Y-102415118D01*
X143118254Y-102559295D01*
X143122186Y-102566881D01*
X143124658Y-102575068D01*
X143195159Y-102707661D01*
X143264257Y-102840966D01*
X143269591Y-102847648D01*
X143273603Y-102855193D01*
X143368470Y-102971511D01*
X143462190Y-103088912D01*
X143473927Y-103100814D01*
X143474122Y-103101053D01*
X143474343Y-103101236D01*
X143478127Y-103105073D01*
X145662527Y-105289473D01*
X145778564Y-105384787D01*
X145893590Y-105481305D01*
X145901080Y-105485423D01*
X145907685Y-105490848D01*
X146040022Y-105561806D01*
X146171608Y-105634146D01*
X146179755Y-105636731D01*
X146187289Y-105640770D01*
X146330889Y-105684673D01*
X146474019Y-105730077D01*
X146482514Y-105731030D01*
X146490688Y-105733529D01*
X146640054Y-105748701D01*
X146789303Y-105765442D01*
X146806013Y-105765558D01*
X146806325Y-105765590D01*
X146806616Y-105765563D01*
X146812000Y-105765600D01*
X168535387Y-105765600D01*
X168663331Y-105778596D01*
X168979185Y-105748739D01*
X169283224Y-105658101D01*
X169563868Y-105510135D01*
X169810425Y-105310475D01*
X170013508Y-105066728D01*
X170165378Y-104788179D01*
X170260253Y-104485434D01*
X170294517Y-104170029D01*
X170266866Y-103853974D01*
X170178352Y-103549311D01*
X170032349Y-103267640D01*
X169834416Y-103019694D01*
X169818479Y-103003533D01*
X169805473Y-102990527D01*
X169689436Y-102895213D01*
X169574410Y-102798695D01*
X169566920Y-102794577D01*
X169560315Y-102789152D01*
X169427962Y-102718185D01*
X169296392Y-102645854D01*
X169288247Y-102643270D01*
X169280710Y-102639229D01*
X169137079Y-102595317D01*
X168993981Y-102549923D01*
X168985486Y-102548970D01*
X168977312Y-102546471D01*
X168827946Y-102531299D01*
X168678697Y-102514558D01*
X168661987Y-102514442D01*
X168661675Y-102514410D01*
X168661384Y-102514437D01*
X168656000Y-102514400D01*
X152646258Y-102514400D01*
X152847813Y-102386490D01*
X153125542Y-102122012D01*
X153346611Y-101808626D01*
X153502600Y-101458270D01*
X153587567Y-101084288D01*
X153593684Y-100646244D01*
X153519192Y-100270035D01*
X153373047Y-99915459D01*
X153160814Y-99596023D01*
X152890578Y-99323894D01*
X152572631Y-99109436D01*
X152219085Y-98960819D01*
X151843405Y-98883703D01*
X151459901Y-98881025D01*
X151083182Y-98952889D01*
X150727595Y-99096555D01*
X150406685Y-99306553D01*
X150132675Y-99574882D01*
X149916003Y-99891324D01*
X149764921Y-100243824D01*
X149685184Y-100618957D01*
X149679830Y-101002432D01*
X149749061Y-101379644D01*
X149890242Y-101736226D01*
X150097994Y-102058594D01*
X150364404Y-102334470D01*
X150623290Y-102514400D01*
X147485346Y-102514400D01*
X146253200Y-101282254D01*
X146253200Y-93858899D01*
X146268439Y-93863616D01*
X146317459Y-93879166D01*
X146319360Y-93879379D01*
X146321191Y-93879946D01*
X146372325Y-93885321D01*
X146423375Y-93891047D01*
X146427050Y-93891073D01*
X146427188Y-93891087D01*
X146427326Y-93891074D01*
X146431000Y-93891100D01*
X154559000Y-93891100D01*
X154610152Y-93886085D01*
X154661329Y-93881427D01*
X154663164Y-93880887D01*
X154665071Y-93880700D01*
X154714328Y-93865829D01*
X154763573Y-93851335D01*
X154765267Y-93850449D01*
X154767103Y-93849895D01*
X154812503Y-93825755D01*
X154858024Y-93801957D01*
X154859517Y-93800757D01*
X154861207Y-93799858D01*
X154901036Y-93767375D01*
X154941086Y-93735174D01*
X154942316Y-93733708D01*
X154943801Y-93732497D01*
X154976585Y-93692868D01*
X155009594Y-93653528D01*
X155010516Y-93651851D01*
X155011737Y-93650375D01*
X155036156Y-93605213D01*
X155060940Y-93560132D01*
X155061520Y-93558303D01*
X155062429Y-93556622D01*
X155077616Y-93507561D01*
X155093166Y-93458541D01*
X155093379Y-93456640D01*
X155093946Y-93454809D01*
X155099321Y-93403675D01*
X155105047Y-93352625D01*
X155105073Y-93348950D01*
X155105087Y-93348812D01*
X155105074Y-93348674D01*
X155105100Y-93345000D01*
X155105100Y-87757000D01*
X155100085Y-87705848D01*
X155095427Y-87654671D01*
X155094887Y-87652836D01*
X155094700Y-87650929D01*
X155080713Y-87604600D01*
X160655000Y-87604600D01*
X161217425Y-87549454D01*
X161758427Y-87386115D01*
X162002400Y-87256393D01*
X162002400Y-92303000D01*
X162002400Y-92303000D01*
G37*
X162002400Y-92303000D02*
X162002506Y-92304081D01*
X162002410Y-92304994D01*
X162010027Y-92388686D01*
X162033755Y-92469306D01*
X162072689Y-92543781D01*
X162109781Y-92589914D01*
X162102294Y-92596819D01*
X161797742Y-93015010D01*
X161580627Y-93484581D01*
X161499035Y-93790024D01*
X161595483Y-94199600D01*
X162331400Y-94199600D01*
X162331400Y-94504400D01*
X161595483Y-94504400D01*
X161499035Y-94913976D01*
X161580627Y-95219419D01*
X161797742Y-95688990D01*
X162097710Y-96100886D01*
X162077706Y-96124725D01*
X162076978Y-96126049D01*
X162076016Y-96127212D01*
X162056759Y-96162828D01*
X162037220Y-96198369D01*
X162036763Y-96199810D01*
X162036046Y-96201136D01*
X162024071Y-96239821D01*
X162011810Y-96278473D01*
X162011642Y-96279973D01*
X162011195Y-96281416D01*
X162006954Y-96321767D01*
X162002442Y-96361988D01*
X162002422Y-96364882D01*
X162002410Y-96364994D01*
X162002420Y-96365106D01*
X162002400Y-96368000D01*
X162002400Y-98526000D01*
X162006348Y-98566268D01*
X162010027Y-98606686D01*
X162010454Y-98608136D01*
X162010601Y-98609637D01*
X162022320Y-98648454D01*
X162033755Y-98687306D01*
X162034453Y-98688641D01*
X162034890Y-98690089D01*
X162053919Y-98725878D01*
X162072689Y-98761781D01*
X162073637Y-98762960D01*
X162074344Y-98764290D01*
X162099911Y-98795638D01*
X162125348Y-98827275D01*
X162126506Y-98828247D01*
X162127459Y-98829415D01*
X162158643Y-98855213D01*
X162189725Y-98881294D01*
X162191049Y-98882022D01*
X162192212Y-98882984D01*
X162227828Y-98902241D01*
X162263369Y-98921780D01*
X162264810Y-98922237D01*
X162266136Y-98922954D01*
X162304821Y-98934929D01*
X162343473Y-98947190D01*
X162344973Y-98947358D01*
X162346416Y-98947805D01*
X162386767Y-98952046D01*
X162426988Y-98956558D01*
X162429882Y-98956578D01*
X162429994Y-98956590D01*
X162430106Y-98956580D01*
X162433000Y-98956600D01*
X172505400Y-98956600D01*
X172505400Y-130595400D01*
X133366600Y-130595400D01*
X133366600Y-124008596D01*
X149186015Y-124008596D01*
X149209844Y-124138429D01*
X149258437Y-124261161D01*
X149329943Y-124372118D01*
X149421640Y-124467072D01*
X149530033Y-124542407D01*
X149650994Y-124595254D01*
X149779917Y-124623599D01*
X149850580Y-124625079D01*
X150026750Y-124801249D01*
X150061141Y-124829498D01*
X150095347Y-124858200D01*
X150097573Y-124859424D01*
X150099531Y-124861032D01*
X150138774Y-124882074D01*
X150177884Y-124903575D01*
X150180304Y-124904343D01*
X150182539Y-124905541D01*
X150225169Y-124918575D01*
X150267662Y-124932054D01*
X150270182Y-124932337D01*
X150272610Y-124933079D01*
X150316926Y-124937580D01*
X150361262Y-124942553D01*
X150366233Y-124942588D01*
X150366315Y-124942596D01*
X150366391Y-124942589D01*
X150368000Y-124942600D01*
X169202282Y-124942600D01*
X169233640Y-124975072D01*
X169342033Y-125050407D01*
X169462994Y-125103254D01*
X169591917Y-125131599D01*
X169723889Y-125134364D01*
X169853886Y-125111442D01*
X169976954Y-125063707D01*
X170088407Y-124992977D01*
X170183999Y-124901946D01*
X170260089Y-124794081D01*
X170313779Y-124673491D01*
X170343024Y-124544770D01*
X170344062Y-124470438D01*
X170573451Y-124241049D01*
X170601746Y-124206602D01*
X170630401Y-124172452D01*
X170631623Y-124170229D01*
X170633234Y-124168268D01*
X170654316Y-124128951D01*
X170675776Y-124089915D01*
X170676542Y-124087499D01*
X170677743Y-124085260D01*
X170690786Y-124042597D01*
X170704255Y-124000137D01*
X170704538Y-123997616D01*
X170705280Y-123995188D01*
X170709785Y-123950833D01*
X170714754Y-123906537D01*
X170714789Y-123901577D01*
X170714798Y-123901484D01*
X170714790Y-123901398D01*
X170714801Y-123899799D01*
X170714801Y-112796983D01*
X170710450Y-112752611D01*
X170706565Y-112708208D01*
X170705858Y-112705774D01*
X170705610Y-112703246D01*
X170692717Y-112660541D01*
X170680288Y-112617760D01*
X170679121Y-112615508D01*
X170678387Y-112613078D01*
X170657443Y-112573688D01*
X170636943Y-112534140D01*
X170635362Y-112532159D01*
X170634169Y-112529916D01*
X170605946Y-112495311D01*
X170578182Y-112460531D01*
X170574696Y-112456995D01*
X170574640Y-112456927D01*
X170574577Y-112456875D01*
X170573451Y-112455733D01*
X169921477Y-111803759D01*
X169923602Y-111651633D01*
X169894576Y-111505043D01*
X169837630Y-111366883D01*
X169754934Y-111242414D01*
X169649636Y-111136379D01*
X169525748Y-111052816D01*
X169387989Y-110994907D01*
X169241605Y-110964859D01*
X169092173Y-110963815D01*
X168945384Y-110991817D01*
X168806829Y-111047796D01*
X168681787Y-111129622D01*
X168575019Y-111234177D01*
X168490592Y-111357478D01*
X168431723Y-111494830D01*
X168400654Y-111641001D01*
X168398567Y-111790422D01*
X168425543Y-111937403D01*
X168480554Y-112076345D01*
X168561505Y-112201956D01*
X168665312Y-112309451D01*
X168788021Y-112394736D01*
X168924959Y-112454563D01*
X169070909Y-112486652D01*
X169220312Y-112489781D01*
X169239173Y-112486455D01*
X169749601Y-112996883D01*
X169749601Y-119249507D01*
X169590527Y-119089318D01*
X169288838Y-118885827D01*
X168953371Y-118744809D01*
X168596901Y-118671636D01*
X168233008Y-118669096D01*
X167875552Y-118737284D01*
X167538148Y-118873604D01*
X167233648Y-119072864D01*
X166973650Y-119327472D01*
X166768058Y-119627733D01*
X166671551Y-119852900D01*
X156411693Y-119852900D01*
X156328325Y-119650634D01*
X156126944Y-119347532D01*
X155870527Y-119089318D01*
X155568838Y-118885827D01*
X155233371Y-118744809D01*
X154876901Y-118671636D01*
X154513008Y-118669096D01*
X154155552Y-118737284D01*
X153818148Y-118873604D01*
X153513648Y-119072864D01*
X153253650Y-119327472D01*
X153048058Y-119627733D01*
X152904702Y-119962208D01*
X152829042Y-120318157D01*
X152823961Y-120682024D01*
X152889653Y-121039947D01*
X153023614Y-121378295D01*
X153220742Y-121684178D01*
X153473530Y-121945948D01*
X153772348Y-122153631D01*
X154105814Y-122299319D01*
X154461227Y-122377462D01*
X154825049Y-122385083D01*
X155183422Y-122321892D01*
X155522696Y-122190296D01*
X155829949Y-121995308D01*
X156093476Y-121744354D01*
X156303241Y-121446993D01*
X156413610Y-121199100D01*
X166672666Y-121199100D01*
X166743614Y-121378295D01*
X166940742Y-121684178D01*
X167193530Y-121945948D01*
X167492348Y-122153631D01*
X167825814Y-122299319D01*
X168181227Y-122377462D01*
X168545049Y-122385083D01*
X168903422Y-122321892D01*
X169242696Y-122190296D01*
X169549949Y-121995308D01*
X169749601Y-121805181D01*
X169749601Y-123699899D01*
X169662710Y-123786790D01*
X169610700Y-123786427D01*
X169481036Y-123811161D01*
X169358646Y-123860610D01*
X169248192Y-123932889D01*
X169202739Y-123977400D01*
X150567899Y-123977400D01*
X150532349Y-123941850D01*
X150533129Y-123885999D01*
X150507490Y-123756511D01*
X150457188Y-123634470D01*
X150384139Y-123524523D01*
X150291126Y-123430858D01*
X150181692Y-123357044D01*
X150060004Y-123305891D01*
X149930699Y-123279348D01*
X149798700Y-123278427D01*
X149669036Y-123303161D01*
X149546646Y-123352610D01*
X149436192Y-123424889D01*
X149341880Y-123517246D01*
X149267304Y-123626163D01*
X149215303Y-123747490D01*
X149187858Y-123876607D01*
X149186015Y-124008596D01*
X133366600Y-124008596D01*
X133366600Y-121772051D01*
X133534530Y-121945948D01*
X133833348Y-122153631D01*
X134166814Y-122299319D01*
X134522227Y-122377462D01*
X134886049Y-122385083D01*
X135244422Y-122321892D01*
X135583696Y-122190296D01*
X135890949Y-121995308D01*
X136154476Y-121744354D01*
X136364241Y-121446993D01*
X136474610Y-121199100D01*
X146733666Y-121199100D01*
X146804614Y-121378295D01*
X147001742Y-121684178D01*
X147254530Y-121945948D01*
X147553348Y-122153631D01*
X147886814Y-122299319D01*
X148242227Y-122377462D01*
X148606049Y-122385083D01*
X148964422Y-122321892D01*
X149303696Y-122190296D01*
X149610949Y-121995308D01*
X149874476Y-121744354D01*
X150084241Y-121446993D01*
X150232253Y-121114552D01*
X150312875Y-120759694D01*
X150318679Y-120344049D01*
X150247997Y-119987078D01*
X150109325Y-119650634D01*
X149907944Y-119347532D01*
X149651527Y-119089318D01*
X149349838Y-118885827D01*
X149014371Y-118744809D01*
X148657901Y-118671636D01*
X148294008Y-118669096D01*
X147936552Y-118737284D01*
X147599148Y-118873604D01*
X147294648Y-119072864D01*
X147034650Y-119327472D01*
X146829058Y-119627733D01*
X146732551Y-119852900D01*
X136472693Y-119852900D01*
X136389325Y-119650634D01*
X136187944Y-119347532D01*
X135931527Y-119089318D01*
X135629838Y-118885827D01*
X135294371Y-118744809D01*
X134937901Y-118671636D01*
X134574008Y-118669096D01*
X134216552Y-118737284D01*
X133879148Y-118873604D01*
X133574648Y-119072864D01*
X133366600Y-119276599D01*
X133366600Y-117960649D01*
X137056764Y-117960649D01*
X137100825Y-118200718D01*
X137190676Y-118427657D01*
X137322896Y-118632821D01*
X137492447Y-118808397D01*
X137692872Y-118947696D01*
X137916537Y-119045412D01*
X138154921Y-119097825D01*
X138398947Y-119102936D01*
X138639317Y-119060552D01*
X138821246Y-118989986D01*
X144674146Y-118989986D01*
X144769291Y-119217333D01*
X145047243Y-119316757D01*
X145339251Y-119360045D01*
X145634092Y-119345533D01*
X145920438Y-119273780D01*
X146056709Y-119217333D01*
X146151854Y-118989986D01*
X145413000Y-118251131D01*
X144674146Y-118989986D01*
X138821246Y-118989986D01*
X138866877Y-118972287D01*
X139072960Y-118841504D01*
X139249715Y-118673182D01*
X139390409Y-118473735D01*
X139489685Y-118250758D01*
X139543760Y-118012744D01*
X139544650Y-117948962D01*
X139735946Y-117948962D01*
X139775086Y-118162219D01*
X139854903Y-118363813D01*
X139972356Y-118546064D01*
X140122971Y-118702031D01*
X140301012Y-118825773D01*
X140499698Y-118912576D01*
X140711459Y-118959135D01*
X140928231Y-118963676D01*
X141141756Y-118926025D01*
X141343902Y-118847618D01*
X141526969Y-118731441D01*
X141683984Y-118581918D01*
X141808965Y-118404745D01*
X141857737Y-118295201D01*
X141884903Y-118363813D01*
X142002356Y-118546064D01*
X142152971Y-118702031D01*
X142331012Y-118825773D01*
X142529698Y-118912576D01*
X142741459Y-118959135D01*
X142958231Y-118963676D01*
X143171756Y-118926025D01*
X143373902Y-118847618D01*
X143556969Y-118731441D01*
X143713984Y-118581918D01*
X143838965Y-118404745D01*
X143927154Y-118206670D01*
X143940841Y-118146427D01*
X143995220Y-118363438D01*
X144051667Y-118499709D01*
X144279014Y-118594854D01*
X145017869Y-117856000D01*
X145808131Y-117856000D01*
X146546986Y-118594854D01*
X146774333Y-118499709D01*
X146873757Y-118221757D01*
X146917045Y-117929749D01*
X146902533Y-117634908D01*
X146830780Y-117348562D01*
X146774333Y-117212291D01*
X146546986Y-117117146D01*
X145808131Y-117856000D01*
X145017869Y-117856000D01*
X144279014Y-117117146D01*
X144051667Y-117212291D01*
X143952243Y-117490243D01*
X143941732Y-117561150D01*
X143936534Y-117534900D01*
X143853911Y-117334441D01*
X143733925Y-117153847D01*
X143581146Y-116999998D01*
X143544914Y-116975559D01*
X143798459Y-116722014D01*
X144674146Y-116722014D01*
X145413000Y-117460869D01*
X146151854Y-116722014D01*
X146056709Y-116494667D01*
X145778757Y-116395243D01*
X145486749Y-116351955D01*
X145191908Y-116366467D01*
X144905562Y-116438220D01*
X144769291Y-116494667D01*
X144674146Y-116722014D01*
X143798459Y-116722014D01*
X145750106Y-114770368D01*
X145757825Y-114778087D01*
X145776157Y-114793145D01*
X145792940Y-114809911D01*
X145798178Y-114814149D01*
X145850700Y-114856033D01*
X145853741Y-114858006D01*
X145856378Y-114860492D01*
X145893215Y-114883613D01*
X145929717Y-114907292D01*
X145933084Y-114908637D01*
X145936153Y-114910563D01*
X145942203Y-114913529D01*
X146002730Y-114942677D01*
X146006134Y-114943924D01*
X146009262Y-114945763D01*
X146050341Y-114960114D01*
X146091171Y-114975067D01*
X146094753Y-114975629D01*
X146098180Y-114976826D01*
X146104738Y-114978371D01*
X146170232Y-114993319D01*
X146173826Y-114993777D01*
X146177279Y-114994872D01*
X146220517Y-114999722D01*
X146263664Y-115005216D01*
X146267277Y-115004967D01*
X146270879Y-115005371D01*
X146277617Y-115005418D01*
X146344796Y-115005418D01*
X146348402Y-115005064D01*
X146352012Y-115005364D01*
X146395252Y-115000471D01*
X146438533Y-114996227D01*
X146441999Y-114995181D01*
X146445601Y-114994773D01*
X146452181Y-114993319D01*
X146517674Y-114978371D01*
X146521113Y-114977223D01*
X146524706Y-114976711D01*
X146565763Y-114962321D01*
X146607016Y-114948553D01*
X146610169Y-114946758D01*
X146613592Y-114945558D01*
X146619684Y-114942677D01*
X146680210Y-114913529D01*
X146683306Y-114911645D01*
X146686686Y-114910350D01*
X146723506Y-114887190D01*
X146760676Y-114864577D01*
X146763345Y-114862130D01*
X146766412Y-114860201D01*
X146771709Y-114856036D01*
X146824232Y-114814151D01*
X146826833Y-114811624D01*
X146829849Y-114809603D01*
X146860605Y-114778816D01*
X146891789Y-114748522D01*
X146893850Y-114745537D01*
X146896416Y-114742969D01*
X146900653Y-114737730D01*
X146942538Y-114685207D01*
X146944510Y-114682167D01*
X146946998Y-114679528D01*
X146970122Y-114642684D01*
X146993796Y-114606190D01*
X146995141Y-114602822D01*
X146997068Y-114599752D01*
X147000034Y-114593702D01*
X147029181Y-114533176D01*
X147030427Y-114529774D01*
X147032261Y-114526655D01*
X147046600Y-114485612D01*
X147061570Y-114444734D01*
X147062131Y-114441155D01*
X147063325Y-114437738D01*
X147064871Y-114431179D01*
X147079819Y-114365686D01*
X147080277Y-114362091D01*
X147081374Y-114358632D01*
X147086224Y-114315392D01*
X147091718Y-114272254D01*
X147091469Y-114268637D01*
X147091873Y-114265032D01*
X147091920Y-114258294D01*
X147091920Y-114191115D01*
X147091566Y-114187506D01*
X147091866Y-114183892D01*
X147088445Y-114153665D01*
X147112191Y-114156689D01*
X147115804Y-114156440D01*
X147119406Y-114156844D01*
X147126144Y-114156891D01*
X147193323Y-114156891D01*
X147196929Y-114156537D01*
X147200539Y-114156837D01*
X147243779Y-114151944D01*
X147287060Y-114147700D01*
X147290526Y-114146654D01*
X147294128Y-114146246D01*
X147300708Y-114144792D01*
X147366201Y-114129844D01*
X147369640Y-114128696D01*
X147373233Y-114128184D01*
X147414290Y-114113794D01*
X147455543Y-114100026D01*
X147458696Y-114098231D01*
X147462119Y-114097031D01*
X147468211Y-114094150D01*
X147528737Y-114065002D01*
X147531833Y-114063118D01*
X147535213Y-114061823D01*
X147572033Y-114038663D01*
X147609203Y-114016050D01*
X147611872Y-114013603D01*
X147614939Y-114011674D01*
X147620236Y-114007509D01*
X147672759Y-113965624D01*
X147675360Y-113963097D01*
X147678376Y-113961076D01*
X147709132Y-113930289D01*
X147740316Y-113899995D01*
X147742377Y-113897010D01*
X147744943Y-113894442D01*
X147749180Y-113889203D01*
X147791065Y-113836680D01*
X147793037Y-113833640D01*
X147795525Y-113831001D01*
X147818649Y-113794157D01*
X147842323Y-113757663D01*
X147843668Y-113754295D01*
X147845595Y-113751225D01*
X147848561Y-113745175D01*
X147877708Y-113684649D01*
X147878954Y-113681247D01*
X147880788Y-113678128D01*
X147895127Y-113637085D01*
X147910097Y-113596207D01*
X147910658Y-113592628D01*
X147911852Y-113589211D01*
X147913398Y-113582652D01*
X147928346Y-113517159D01*
X147928804Y-113513564D01*
X147929901Y-113510105D01*
X147934751Y-113466865D01*
X147940245Y-113423727D01*
X147939996Y-113420110D01*
X147940400Y-113416505D01*
X147940447Y-113409767D01*
X147940447Y-113342588D01*
X147940093Y-113338979D01*
X147940393Y-113335365D01*
X147935501Y-113292141D01*
X147931256Y-113248851D01*
X147930208Y-113245379D01*
X147929800Y-113241776D01*
X147928346Y-113235196D01*
X147913398Y-113169703D01*
X147912251Y-113166266D01*
X147911740Y-113162683D01*
X147897351Y-113121627D01*
X147883578Y-113080361D01*
X147881787Y-113077216D01*
X147880589Y-113073797D01*
X147877708Y-113067706D01*
X147848561Y-113007180D01*
X147846675Y-113004080D01*
X147845379Y-113000698D01*
X147822225Y-112963889D01*
X147799610Y-112926713D01*
X147797161Y-112924041D01*
X147795230Y-112920972D01*
X147791065Y-112915675D01*
X147749180Y-112863152D01*
X147732650Y-112846136D01*
X147717847Y-112827593D01*
X147713116Y-112822795D01*
X147705396Y-112815075D01*
X148861293Y-111659180D01*
X148952145Y-111698873D01*
X149081068Y-111727218D01*
X149213040Y-111729983D01*
X149343037Y-111707061D01*
X149466105Y-111659326D01*
X149577558Y-111588596D01*
X149673150Y-111497565D01*
X149749240Y-111389700D01*
X149802930Y-111269110D01*
X149831838Y-111141869D01*
X152892902Y-111141869D01*
X152916731Y-111271702D01*
X152965324Y-111394434D01*
X153036830Y-111505391D01*
X153128527Y-111600345D01*
X153236920Y-111675680D01*
X153357881Y-111728527D01*
X153486804Y-111756872D01*
X153557466Y-111758352D01*
X158421317Y-116622203D01*
X158372726Y-116612229D01*
X158128653Y-116610525D01*
X157888898Y-116656261D01*
X157662592Y-116747694D01*
X157458355Y-116881343D01*
X157283968Y-117052116D01*
X157146072Y-117253508D01*
X157049919Y-117477850D01*
X156999172Y-117716595D01*
X156995764Y-117960649D01*
X157039825Y-118200718D01*
X157129676Y-118427657D01*
X157261896Y-118632821D01*
X157431447Y-118808397D01*
X157631872Y-118947696D01*
X157855537Y-119045412D01*
X158093921Y-119097825D01*
X158337947Y-119102936D01*
X158578317Y-119060552D01*
X158805877Y-118972287D01*
X159011960Y-118841504D01*
X159069979Y-118786253D01*
X159086758Y-118817811D01*
X159107258Y-118857359D01*
X159108839Y-118859340D01*
X159110032Y-118861583D01*
X159138217Y-118896141D01*
X159166019Y-118930968D01*
X159169505Y-118934504D01*
X159169561Y-118934572D01*
X159169624Y-118934624D01*
X159170750Y-118935766D01*
X159703222Y-119468238D01*
X159737669Y-119496533D01*
X159771819Y-119525188D01*
X159774042Y-119526410D01*
X159776003Y-119528021D01*
X159815320Y-119549103D01*
X159854356Y-119570563D01*
X159856772Y-119571329D01*
X159859011Y-119572530D01*
X159901674Y-119585573D01*
X159944134Y-119599042D01*
X159946655Y-119599325D01*
X159949083Y-119600067D01*
X159993438Y-119604572D01*
X160037734Y-119609541D01*
X160042694Y-119609576D01*
X160042787Y-119609585D01*
X160042873Y-119609577D01*
X160044472Y-119609588D01*
X161541012Y-119609588D01*
X161585338Y-119605242D01*
X161629787Y-119601353D01*
X161632226Y-119600644D01*
X161634749Y-119600397D01*
X161677412Y-119587516D01*
X161720235Y-119575075D01*
X161722487Y-119573908D01*
X161724917Y-119573174D01*
X161764307Y-119552230D01*
X161803855Y-119531730D01*
X161805836Y-119530149D01*
X161808079Y-119528956D01*
X161842637Y-119500771D01*
X161877464Y-119472969D01*
X161881000Y-119469483D01*
X161881068Y-119469427D01*
X161881120Y-119469364D01*
X161882262Y-119468238D01*
X162360514Y-118989986D01*
X164613146Y-118989986D01*
X164708291Y-119217333D01*
X164986243Y-119316757D01*
X165278251Y-119360045D01*
X165573092Y-119345533D01*
X165859438Y-119273780D01*
X165995709Y-119217333D01*
X166090854Y-118989986D01*
X165352000Y-118251131D01*
X164613146Y-118989986D01*
X162360514Y-118989986D01*
X162447281Y-118903219D01*
X162468698Y-118912576D01*
X162680459Y-118959135D01*
X162897231Y-118963676D01*
X163110756Y-118926025D01*
X163312902Y-118847618D01*
X163495969Y-118731441D01*
X163652984Y-118581918D01*
X163777965Y-118404745D01*
X163866154Y-118206670D01*
X163879841Y-118146427D01*
X163934220Y-118363438D01*
X163990667Y-118499709D01*
X164218014Y-118594854D01*
X164956869Y-117856000D01*
X165747131Y-117856000D01*
X166485986Y-118594854D01*
X166713333Y-118499709D01*
X166812757Y-118221757D01*
X166856045Y-117929749D01*
X166841533Y-117634908D01*
X166769780Y-117348562D01*
X166713333Y-117212291D01*
X166485986Y-117117146D01*
X165747131Y-117856000D01*
X164956869Y-117856000D01*
X164218014Y-117117146D01*
X163990667Y-117212291D01*
X163891243Y-117490243D01*
X163880732Y-117561150D01*
X163875534Y-117534900D01*
X163792911Y-117334441D01*
X163672925Y-117153847D01*
X163520146Y-116999998D01*
X163340395Y-116878754D01*
X163140517Y-116794734D01*
X162928126Y-116751136D01*
X162711312Y-116749622D01*
X162498333Y-116790250D01*
X162297301Y-116871472D01*
X162115874Y-116990194D01*
X161960963Y-117141895D01*
X161838467Y-117320796D01*
X161797084Y-117417350D01*
X161762911Y-117334441D01*
X161642925Y-117153847D01*
X161490146Y-116999998D01*
X161310395Y-116878754D01*
X161264600Y-116859504D01*
X161264600Y-116722014D01*
X164613146Y-116722014D01*
X165352000Y-117460869D01*
X166090854Y-116722014D01*
X165995709Y-116494667D01*
X165717757Y-116395243D01*
X165425749Y-116351955D01*
X165130908Y-116366467D01*
X164844562Y-116438220D01*
X164708291Y-116494667D01*
X164613146Y-116722014D01*
X161264600Y-116722014D01*
X161264600Y-116398293D01*
X161260254Y-116353967D01*
X161256365Y-116309518D01*
X161255656Y-116307079D01*
X161255409Y-116304556D01*
X161242528Y-116261893D01*
X161230087Y-116219070D01*
X161228920Y-116216818D01*
X161228186Y-116214388D01*
X161207242Y-116174998D01*
X161186742Y-116135450D01*
X161185161Y-116133469D01*
X161183968Y-116131226D01*
X161155783Y-116096668D01*
X161127981Y-116061841D01*
X161124495Y-116058305D01*
X161124439Y-116058237D01*
X161124376Y-116058185D01*
X161123250Y-116057043D01*
X155854865Y-110788658D01*
X156008590Y-110634932D01*
X156023648Y-110616600D01*
X156040416Y-110599815D01*
X156044653Y-110594576D01*
X156086538Y-110542053D01*
X156088507Y-110539018D01*
X156090992Y-110536382D01*
X156114130Y-110499519D01*
X156137796Y-110463036D01*
X156139138Y-110459675D01*
X156141064Y-110456607D01*
X156144030Y-110450556D01*
X156173178Y-110390031D01*
X156174426Y-110386623D01*
X156176266Y-110383494D01*
X156190603Y-110342454D01*
X156205569Y-110301590D01*
X156206132Y-110298000D01*
X156207328Y-110294577D01*
X156208873Y-110288018D01*
X156223821Y-110222523D01*
X156224277Y-110218938D01*
X156225373Y-110215485D01*
X156230228Y-110172207D01*
X156235718Y-110129091D01*
X156235469Y-110125483D01*
X156235873Y-110121885D01*
X156235920Y-110115147D01*
X156235921Y-110047969D01*
X156235567Y-110044355D01*
X156235867Y-110040734D01*
X156230973Y-109997498D01*
X156226731Y-109954232D01*
X156225682Y-109950757D01*
X156225273Y-109947145D01*
X156223819Y-109940566D01*
X156208869Y-109875070D01*
X156207725Y-109871641D01*
X156207214Y-109868060D01*
X156192825Y-109827003D01*
X156179049Y-109785729D01*
X156177259Y-109782585D01*
X156176063Y-109779173D01*
X156173182Y-109773082D01*
X156144036Y-109712557D01*
X156142151Y-109709458D01*
X156140851Y-109706067D01*
X156117693Y-109669252D01*
X156095086Y-109632090D01*
X156092632Y-109629413D01*
X156090700Y-109626342D01*
X156086536Y-109621045D01*
X156044650Y-109568521D01*
X156042122Y-109565919D01*
X156040107Y-109562912D01*
X156009345Y-109532181D01*
X155979020Y-109500966D01*
X155976039Y-109498907D01*
X155973474Y-109496345D01*
X155968235Y-109492107D01*
X155915714Y-109450223D01*
X155912673Y-109448250D01*
X155910037Y-109445765D01*
X155873191Y-109422638D01*
X155836697Y-109398965D01*
X155833333Y-109397621D01*
X155830262Y-109395694D01*
X155824212Y-109392728D01*
X155763686Y-109363580D01*
X155760286Y-109362335D01*
X155757164Y-109360499D01*
X155716078Y-109346145D01*
X155675244Y-109331190D01*
X155671669Y-109330629D01*
X155668248Y-109329434D01*
X155661689Y-109327889D01*
X155596194Y-109312939D01*
X155592589Y-109312480D01*
X155589128Y-109311382D01*
X155545922Y-109306536D01*
X155502762Y-109301039D01*
X155499137Y-109301289D01*
X155495528Y-109300884D01*
X155488790Y-109300837D01*
X155421612Y-109300838D01*
X155418010Y-109301191D01*
X155414405Y-109300892D01*
X155371184Y-109305783D01*
X155327875Y-109310030D01*
X155324410Y-109311076D01*
X155320815Y-109311483D01*
X155314236Y-109312937D01*
X155248741Y-109327885D01*
X155245303Y-109329032D01*
X155241708Y-109329545D01*
X155200663Y-109343930D01*
X155159399Y-109357702D01*
X155156243Y-109359499D01*
X155152822Y-109360698D01*
X155146731Y-109363579D01*
X155086204Y-109392727D01*
X155083099Y-109394616D01*
X155079710Y-109395915D01*
X155042913Y-109419063D01*
X155005738Y-109441679D01*
X155003060Y-109444134D01*
X154999986Y-109446068D01*
X154994689Y-109450232D01*
X154942168Y-109492119D01*
X154925157Y-109508646D01*
X154906626Y-109523439D01*
X154901828Y-109528171D01*
X154661249Y-109768750D01*
X154653239Y-109733657D01*
X154652092Y-109730220D01*
X154651581Y-109726637D01*
X154637192Y-109685581D01*
X154623419Y-109644315D01*
X154621628Y-109641170D01*
X154620430Y-109637751D01*
X154617549Y-109631660D01*
X154588402Y-109571134D01*
X154586515Y-109568033D01*
X154585218Y-109564648D01*
X154562065Y-109527840D01*
X154539451Y-109490667D01*
X154537000Y-109487994D01*
X154535068Y-109484922D01*
X154530903Y-109479625D01*
X154489019Y-109427103D01*
X154472484Y-109410083D01*
X154457688Y-109391548D01*
X154452957Y-109386750D01*
X154320465Y-109254258D01*
X154321245Y-109198408D01*
X154295606Y-109068920D01*
X154245304Y-108946879D01*
X154172255Y-108836932D01*
X154079242Y-108743267D01*
X153969808Y-108669453D01*
X153848120Y-108618300D01*
X153718815Y-108591757D01*
X153586816Y-108590836D01*
X153457152Y-108615570D01*
X153334762Y-108665019D01*
X153224308Y-108737298D01*
X153129996Y-108829655D01*
X153055420Y-108938572D01*
X153003419Y-109059899D01*
X152975974Y-109189016D01*
X152974131Y-109321005D01*
X152997960Y-109450838D01*
X153046553Y-109573570D01*
X153118059Y-109684527D01*
X153209756Y-109779481D01*
X153318149Y-109854816D01*
X153439110Y-109907663D01*
X153568033Y-109936008D01*
X153638695Y-109937488D01*
X153650164Y-109948957D01*
X153629589Y-109981737D01*
X153605896Y-110018261D01*
X153604551Y-110021628D01*
X153602625Y-110024697D01*
X153599659Y-110030747D01*
X153570511Y-110091273D01*
X153569263Y-110094680D01*
X153567424Y-110097808D01*
X153553078Y-110138875D01*
X153538121Y-110179715D01*
X153537559Y-110183299D01*
X153536362Y-110186725D01*
X153534817Y-110193284D01*
X153519869Y-110258779D01*
X153519412Y-110262370D01*
X153518316Y-110265824D01*
X153513464Y-110309079D01*
X153507972Y-110352211D01*
X153508221Y-110355823D01*
X153507817Y-110359424D01*
X153507770Y-110366162D01*
X153507770Y-110411715D01*
X153505587Y-110411700D01*
X153375923Y-110436434D01*
X153253533Y-110485883D01*
X153143079Y-110558162D01*
X153048767Y-110650519D01*
X152974191Y-110759436D01*
X152922190Y-110880763D01*
X152894745Y-111009880D01*
X152892902Y-111141869D01*
X149831838Y-111141869D01*
X149832175Y-111140389D01*
X149834280Y-110989618D01*
X149808641Y-110860130D01*
X149758339Y-110738089D01*
X149685290Y-110628142D01*
X149682625Y-110625459D01*
X149749240Y-110531026D01*
X149802930Y-110410436D01*
X149832175Y-110281715D01*
X149834280Y-110130944D01*
X149808641Y-110001456D01*
X149758339Y-109879415D01*
X149685290Y-109769468D01*
X149592277Y-109675803D01*
X149482843Y-109601989D01*
X149361155Y-109550836D01*
X149231850Y-109524293D01*
X149099851Y-109523372D01*
X148970187Y-109548106D01*
X148847797Y-109597555D01*
X148737343Y-109669834D01*
X148691890Y-109714345D01*
X148502055Y-109714345D01*
X148457683Y-109718696D01*
X148413280Y-109722581D01*
X148410846Y-109723288D01*
X148408318Y-109723536D01*
X148365613Y-109736429D01*
X148322832Y-109748858D01*
X148320580Y-109750025D01*
X148318150Y-109750759D01*
X148278760Y-109771703D01*
X148239212Y-109792203D01*
X148237231Y-109793784D01*
X148234988Y-109794977D01*
X148200430Y-109823162D01*
X148165603Y-109850964D01*
X148162072Y-109854447D01*
X148161999Y-109854506D01*
X148161943Y-109854573D01*
X148160805Y-109855696D01*
X141206895Y-116809605D01*
X141171517Y-116794734D01*
X140959126Y-116751136D01*
X140742312Y-116749622D01*
X140529333Y-116790250D01*
X140328301Y-116871472D01*
X140146874Y-116990194D01*
X139991963Y-117141895D01*
X139869467Y-117320796D01*
X139784053Y-117520082D01*
X139738974Y-117732164D01*
X139735946Y-117948962D01*
X139544650Y-117948962D01*
X139547653Y-117733961D01*
X139500245Y-117494530D01*
X139407234Y-117268869D01*
X139272163Y-117065570D01*
X139100176Y-116892379D01*
X138897826Y-116755892D01*
X138672819Y-116661308D01*
X138433726Y-116612229D01*
X138189653Y-116610525D01*
X137949898Y-116656261D01*
X137723592Y-116747694D01*
X137519355Y-116881343D01*
X137344968Y-117052116D01*
X137207072Y-117253508D01*
X137110919Y-117477850D01*
X137060172Y-117716595D01*
X137056764Y-117960649D01*
X133366600Y-117960649D01*
X133366600Y-98397754D01*
X133419554Y-98375820D01*
X133519398Y-98309107D01*
X133604307Y-98224197D01*
X133671021Y-98124354D01*
X133716973Y-98013413D01*
X133740400Y-97895640D01*
X133740400Y-94640400D01*
X133588000Y-94488000D01*
X129353798Y-94488000D01*
X129364777Y-94367366D01*
X129364504Y-94328339D01*
X129364777Y-94289312D01*
X129364190Y-94283329D01*
X129353666Y-94183200D01*
X133588000Y-94183200D01*
X133740400Y-94030800D01*
X133740400Y-91083241D01*
X138628695Y-91083241D01*
X138795551Y-91346226D01*
X139169847Y-91473260D01*
X139561734Y-91524832D01*
X139956152Y-91498960D01*
X140337943Y-91396638D01*
X140459649Y-91346226D01*
X140626505Y-91083241D01*
X139627600Y-90084336D01*
X138628695Y-91083241D01*
X133740400Y-91083241D01*
X133740400Y-90775560D01*
X133716973Y-90657787D01*
X133671021Y-90546846D01*
X133604307Y-90447003D01*
X133519398Y-90362093D01*
X133419554Y-90295380D01*
X133366600Y-90273446D01*
X133366600Y-89443734D01*
X137612368Y-89443734D01*
X137638240Y-89838152D01*
X137740562Y-90219943D01*
X137790974Y-90341649D01*
X138053959Y-90508505D01*
X139052864Y-89509600D01*
X140202336Y-89509600D01*
X141201241Y-90508505D01*
X141464226Y-90341649D01*
X141591260Y-89967353D01*
X141642832Y-89575466D01*
X141616960Y-89181048D01*
X141514638Y-88799257D01*
X141464226Y-88677551D01*
X141201241Y-88510695D01*
X140202336Y-89509600D01*
X139052864Y-89509600D01*
X138053959Y-88510695D01*
X137790974Y-88677551D01*
X137663940Y-89051847D01*
X137612368Y-89443734D01*
X133366600Y-89443734D01*
X133366600Y-88451885D01*
X133367433Y-88451336D01*
X133432654Y-88374812D01*
X133473973Y-88283147D01*
X133488120Y-88183600D01*
X133488120Y-87579200D01*
X139079052Y-87579200D01*
X138917257Y-87622562D01*
X138795551Y-87672974D01*
X138628695Y-87935959D01*
X139627600Y-88934864D01*
X140626505Y-87935959D01*
X140459649Y-87672974D01*
X140183351Y-87579200D01*
X143002000Y-87579200D01*
X143002000Y-87839571D01*
X142993967Y-87844864D01*
X142928746Y-87921388D01*
X142887427Y-88013053D01*
X142873280Y-88112600D01*
X142873280Y-90906600D01*
X142877796Y-90963228D01*
X142907540Y-91059275D01*
X142962864Y-91143233D01*
X143002000Y-91176588D01*
X143002000Y-101955600D01*
X143016652Y-102105031D01*
X143029740Y-102254632D01*
X143032125Y-102262841D01*
X143032959Y-102271347D01*
X143076366Y-102415118D01*
X143118254Y-102559295D01*
X143122186Y-102566881D01*
X143124658Y-102575068D01*
X143195159Y-102707661D01*
X143264257Y-102840966D01*
X143269591Y-102847648D01*
X143273603Y-102855193D01*
X143368470Y-102971511D01*
X143462190Y-103088912D01*
X143473927Y-103100814D01*
X143474122Y-103101053D01*
X143474343Y-103101236D01*
X143478127Y-103105073D01*
X145662527Y-105289473D01*
X145778564Y-105384787D01*
X145893590Y-105481305D01*
X145901080Y-105485423D01*
X145907685Y-105490848D01*
X146040022Y-105561806D01*
X146171608Y-105634146D01*
X146179755Y-105636731D01*
X146187289Y-105640770D01*
X146330889Y-105684673D01*
X146474019Y-105730077D01*
X146482514Y-105731030D01*
X146490688Y-105733529D01*
X146640054Y-105748701D01*
X146789303Y-105765442D01*
X146806013Y-105765558D01*
X146806325Y-105765590D01*
X146806616Y-105765563D01*
X146812000Y-105765600D01*
X168535387Y-105765600D01*
X168663331Y-105778596D01*
X168979185Y-105748739D01*
X169283224Y-105658101D01*
X169563868Y-105510135D01*
X169810425Y-105310475D01*
X170013508Y-105066728D01*
X170165378Y-104788179D01*
X170260253Y-104485434D01*
X170294517Y-104170029D01*
X170266866Y-103853974D01*
X170178352Y-103549311D01*
X170032349Y-103267640D01*
X169834416Y-103019694D01*
X169818479Y-103003533D01*
X169805473Y-102990527D01*
X169689436Y-102895213D01*
X169574410Y-102798695D01*
X169566920Y-102794577D01*
X169560315Y-102789152D01*
X169427962Y-102718185D01*
X169296392Y-102645854D01*
X169288247Y-102643270D01*
X169280710Y-102639229D01*
X169137079Y-102595317D01*
X168993981Y-102549923D01*
X168985486Y-102548970D01*
X168977312Y-102546471D01*
X168827946Y-102531299D01*
X168678697Y-102514558D01*
X168661987Y-102514442D01*
X168661675Y-102514410D01*
X168661384Y-102514437D01*
X168656000Y-102514400D01*
X152646258Y-102514400D01*
X152847813Y-102386490D01*
X153125542Y-102122012D01*
X153346611Y-101808626D01*
X153502600Y-101458270D01*
X153587567Y-101084288D01*
X153593684Y-100646244D01*
X153519192Y-100270035D01*
X153373047Y-99915459D01*
X153160814Y-99596023D01*
X152890578Y-99323894D01*
X152572631Y-99109436D01*
X152219085Y-98960819D01*
X151843405Y-98883703D01*
X151459901Y-98881025D01*
X151083182Y-98952889D01*
X150727595Y-99096555D01*
X150406685Y-99306553D01*
X150132675Y-99574882D01*
X149916003Y-99891324D01*
X149764921Y-100243824D01*
X149685184Y-100618957D01*
X149679830Y-101002432D01*
X149749061Y-101379644D01*
X149890242Y-101736226D01*
X150097994Y-102058594D01*
X150364404Y-102334470D01*
X150623290Y-102514400D01*
X147485346Y-102514400D01*
X146253200Y-101282254D01*
X146253200Y-93858899D01*
X146268439Y-93863616D01*
X146317459Y-93879166D01*
X146319360Y-93879379D01*
X146321191Y-93879946D01*
X146372325Y-93885321D01*
X146423375Y-93891047D01*
X146427050Y-93891073D01*
X146427188Y-93891087D01*
X146427326Y-93891074D01*
X146431000Y-93891100D01*
X154559000Y-93891100D01*
X154610152Y-93886085D01*
X154661329Y-93881427D01*
X154663164Y-93880887D01*
X154665071Y-93880700D01*
X154714328Y-93865829D01*
X154763573Y-93851335D01*
X154765267Y-93850449D01*
X154767103Y-93849895D01*
X154812503Y-93825755D01*
X154858024Y-93801957D01*
X154859517Y-93800757D01*
X154861207Y-93799858D01*
X154901036Y-93767375D01*
X154941086Y-93735174D01*
X154942316Y-93733708D01*
X154943801Y-93732497D01*
X154976585Y-93692868D01*
X155009594Y-93653528D01*
X155010516Y-93651851D01*
X155011737Y-93650375D01*
X155036156Y-93605213D01*
X155060940Y-93560132D01*
X155061520Y-93558303D01*
X155062429Y-93556622D01*
X155077616Y-93507561D01*
X155093166Y-93458541D01*
X155093379Y-93456640D01*
X155093946Y-93454809D01*
X155099321Y-93403675D01*
X155105047Y-93352625D01*
X155105073Y-93348950D01*
X155105087Y-93348812D01*
X155105074Y-93348674D01*
X155105100Y-93345000D01*
X155105100Y-87757000D01*
X155100085Y-87705848D01*
X155095427Y-87654671D01*
X155094887Y-87652836D01*
X155094700Y-87650929D01*
X155080713Y-87604600D01*
X160655000Y-87604600D01*
X161217425Y-87549454D01*
X161758427Y-87386115D01*
X162002400Y-87256393D01*
X162002400Y-92303000D01*
M02*
