G04 #@! TF.FileFunction,Legend,Bot*
%FSLAX46Y46*%
G04 Gerber Fmt 4.6, Leading zero omitted, Abs format (unit mm)*
G04 Created by KiCad (PCBNEW 4.0.7-e2-6376~58~ubuntu16.04.1) date Mon Sep  4 19:43:41 2017*
%MOMM*%
%LPD*%
G01*
G04 APERTURE LIST*
%ADD10C,0.100000*%
%ADD11C,0.203200*%
%ADD12C,0.200000*%
%ADD13C,0.250000*%
%ADD14C,0.150000*%
%ADD15C,0.120000*%
%ADD16C,0.010000*%
G04 APERTURE END LIST*
D10*
D11*
X133650448Y-112973055D02*
X133609324Y-112854823D01*
X133609324Y-112649204D01*
X133650448Y-112561817D01*
X133691571Y-112515553D01*
X133773819Y-112464148D01*
X133856067Y-112453867D01*
X133938314Y-112484710D01*
X133979438Y-112520693D01*
X134020562Y-112597800D01*
X134061686Y-112757155D01*
X134102810Y-112834262D01*
X134143933Y-112870245D01*
X134226181Y-112901088D01*
X134308429Y-112890807D01*
X134390676Y-112839402D01*
X134431800Y-112793138D01*
X134472924Y-112705750D01*
X134472924Y-112500130D01*
X134431800Y-112381900D01*
X133609324Y-112114595D02*
X134472924Y-112006645D01*
X133609324Y-111621109D01*
X134472924Y-111513159D01*
X133691571Y-111199591D02*
X133650448Y-111163607D01*
X133609324Y-111209871D01*
X133650448Y-111245855D01*
X133691571Y-111199591D01*
X133609324Y-111209871D01*
X134143933Y-111143045D02*
X134102810Y-111107062D01*
X134061686Y-111153326D01*
X134102810Y-111189310D01*
X134143933Y-111143045D01*
X134061686Y-111153326D01*
X133609324Y-110798633D02*
X134472924Y-110690683D01*
X133938314Y-110675262D02*
X133609324Y-110469642D01*
X134185057Y-110397676D02*
X133856067Y-110767791D01*
X134472924Y-109827083D02*
X134472924Y-109744835D01*
X134431800Y-109667728D01*
X134390676Y-109631745D01*
X134308429Y-109600902D01*
X134143933Y-109580340D01*
X133938314Y-109606043D01*
X133773819Y-109667729D01*
X133691571Y-109719134D01*
X133650448Y-109765397D01*
X133609324Y-109852785D01*
X133609324Y-109935033D01*
X133650448Y-110012140D01*
X133691571Y-110048124D01*
X133773819Y-110078967D01*
X133938314Y-110099529D01*
X134143933Y-110073826D01*
X134308429Y-110012140D01*
X134390676Y-109960735D01*
X134431800Y-109914471D01*
X134472924Y-109827083D01*
X133609324Y-109235928D02*
X133609324Y-109071433D01*
X133650448Y-108984045D01*
X133691571Y-108937781D01*
X133814943Y-108840112D01*
X133979438Y-108778426D01*
X134308429Y-108737302D01*
X134390676Y-108768145D01*
X134431800Y-108804129D01*
X134472924Y-108881235D01*
X134472924Y-109045731D01*
X134431800Y-109133119D01*
X134390676Y-109179383D01*
X134308429Y-109230788D01*
X134102810Y-109256491D01*
X134020562Y-109225648D01*
X133979438Y-109189664D01*
X133938314Y-109112558D01*
X133938314Y-108948062D01*
X133979438Y-108860674D01*
X134020562Y-108814410D01*
X134102810Y-108763005D01*
X133609324Y-108413452D02*
X133609324Y-108248957D01*
X133650448Y-108161569D01*
X133691571Y-108115305D01*
X133814943Y-108017636D01*
X133979438Y-107955950D01*
X134308429Y-107914826D01*
X134390676Y-107945669D01*
X134431800Y-107981653D01*
X134472924Y-108058759D01*
X134472924Y-108223255D01*
X134431800Y-108310643D01*
X134390676Y-108356907D01*
X134308429Y-108408312D01*
X134102810Y-108434015D01*
X134020562Y-108403172D01*
X133979438Y-108367188D01*
X133938314Y-108290082D01*
X133938314Y-108125586D01*
X133979438Y-108038198D01*
X134020562Y-107991934D01*
X134102810Y-107940529D01*
X133691571Y-107128334D02*
X133650448Y-107174598D01*
X133609324Y-107303109D01*
X133609324Y-107385357D01*
X133650448Y-107503589D01*
X133732695Y-107575555D01*
X133814943Y-107606398D01*
X133979438Y-107626960D01*
X134102810Y-107611539D01*
X134267305Y-107549853D01*
X134349552Y-107498448D01*
X134431800Y-107405920D01*
X134472924Y-107277407D01*
X134472924Y-107195159D01*
X134431800Y-107076929D01*
X134390676Y-107040945D01*
X134102810Y-106583444D02*
X134143933Y-106660550D01*
X134185057Y-106696534D01*
X134267305Y-106727377D01*
X134308429Y-106722236D01*
X134390676Y-106670831D01*
X134431800Y-106624567D01*
X134472924Y-106537179D01*
X134472924Y-106372683D01*
X134431800Y-106295577D01*
X134390676Y-106259593D01*
X134308429Y-106228750D01*
X134267305Y-106233891D01*
X134185057Y-106285296D01*
X134143933Y-106331560D01*
X134102810Y-106418948D01*
X134102810Y-106583444D01*
X134061686Y-106670831D01*
X134020562Y-106717096D01*
X133938314Y-106768501D01*
X133773819Y-106789063D01*
X133691571Y-106758220D01*
X133650448Y-106722236D01*
X133609324Y-106645129D01*
X133609324Y-106480633D01*
X133650448Y-106393246D01*
X133691571Y-106346982D01*
X133773819Y-106295577D01*
X133938314Y-106275015D01*
X134020562Y-106305858D01*
X134061686Y-106341841D01*
X134102810Y-106418948D01*
X133609324Y-105493662D02*
X133609324Y-105987148D01*
X133609324Y-105740405D02*
X134472924Y-105632455D01*
X134349552Y-105730125D01*
X134267305Y-105822653D01*
X134226181Y-105910041D01*
X134472924Y-105097846D02*
X134472924Y-104563236D01*
X134143933Y-104892227D01*
X134143933Y-104768855D01*
X134102810Y-104691749D01*
X134061686Y-104655765D01*
X133979438Y-104624922D01*
X133773819Y-104650625D01*
X133691571Y-104702030D01*
X133650448Y-104748294D01*
X133609324Y-104835681D01*
X133609324Y-105082424D01*
X133650448Y-105159532D01*
X133691571Y-105195516D01*
X134185057Y-103858992D02*
X133609324Y-103930958D01*
X134514048Y-104023487D02*
X133897190Y-104306213D01*
X133897190Y-103771603D01*
X133609324Y-103108482D02*
X134472924Y-103000532D01*
X133650448Y-103103342D02*
X133609324Y-103190729D01*
X133609324Y-103355225D01*
X133650448Y-103432332D01*
X133691571Y-103468316D01*
X133773819Y-103499159D01*
X134020562Y-103468316D01*
X134102810Y-103416911D01*
X134143933Y-103370646D01*
X134185057Y-103283259D01*
X134185057Y-103118763D01*
X134143933Y-103041656D01*
X133527076Y-102913145D02*
X133527076Y-102255164D01*
X134472924Y-102013561D02*
X134472924Y-101478951D01*
X134143933Y-101807942D01*
X134143933Y-101684570D01*
X134102810Y-101607464D01*
X134061686Y-101571480D01*
X133979438Y-101540637D01*
X133773819Y-101566340D01*
X133691571Y-101617745D01*
X133650448Y-101664009D01*
X133609324Y-101751396D01*
X133609324Y-101998139D01*
X133650448Y-102075247D01*
X133691571Y-102111231D01*
X134472924Y-100738723D02*
X134472924Y-100903218D01*
X134431800Y-100990607D01*
X134390676Y-101036870D01*
X134267305Y-101134540D01*
X134102810Y-101196226D01*
X133773819Y-101237350D01*
X133691571Y-101206507D01*
X133650448Y-101170523D01*
X133609324Y-101093416D01*
X133609324Y-100928920D01*
X133650448Y-100841533D01*
X133691571Y-100795269D01*
X133773819Y-100743864D01*
X133979438Y-100718161D01*
X134061686Y-100749004D01*
X134102810Y-100784988D01*
X134143933Y-100862094D01*
X134143933Y-101026590D01*
X134102810Y-101113978D01*
X134061686Y-101160242D01*
X133979438Y-101211647D01*
X133609324Y-99941949D02*
X133609324Y-100435435D01*
X133609324Y-100188692D02*
X134472924Y-100080742D01*
X134349552Y-100178412D01*
X134267305Y-100270940D01*
X134226181Y-100358328D01*
X134472924Y-99546133D02*
X134472924Y-98970399D01*
X133609324Y-99448464D01*
D12*
X165608000Y-98806000D02*
X165608000Y-109220000D01*
X172212000Y-100584000D02*
X159258000Y-100584000D01*
X150368000Y-123444000D02*
G75*
G03X150368000Y-123444000I-127000J0D01*
G01*
D13*
X171402476Y-100122143D02*
X171450095Y-100169762D01*
X171592952Y-100217381D01*
X171688190Y-100217381D01*
X171831048Y-100169762D01*
X171926286Y-100074524D01*
X171973905Y-99979286D01*
X172021524Y-99788810D01*
X172021524Y-99645952D01*
X171973905Y-99455476D01*
X171926286Y-99360238D01*
X171831048Y-99265000D01*
X171688190Y-99217381D01*
X171592952Y-99217381D01*
X171450095Y-99265000D01*
X171402476Y-99312619D01*
X170545333Y-99550714D02*
X170545333Y-100217381D01*
X170973905Y-99550714D02*
X170973905Y-100074524D01*
X170926286Y-100169762D01*
X170831048Y-100217381D01*
X170688190Y-100217381D01*
X170592952Y-100169762D01*
X170545333Y-100122143D01*
X170069143Y-100217381D02*
X170069143Y-99550714D01*
X170069143Y-99741190D02*
X170021524Y-99645952D01*
X169973905Y-99598333D01*
X169878667Y-99550714D01*
X169783428Y-99550714D01*
X169450095Y-100217381D02*
X169450095Y-99550714D01*
X169450095Y-99741190D02*
X169402476Y-99645952D01*
X169354857Y-99598333D01*
X169259619Y-99550714D01*
X169164380Y-99550714D01*
X168450094Y-100169762D02*
X168545332Y-100217381D01*
X168735809Y-100217381D01*
X168831047Y-100169762D01*
X168878666Y-100074524D01*
X168878666Y-99693571D01*
X168831047Y-99598333D01*
X168735809Y-99550714D01*
X168545332Y-99550714D01*
X168450094Y-99598333D01*
X168402475Y-99693571D01*
X168402475Y-99788810D01*
X168878666Y-99884048D01*
X167973904Y-99550714D02*
X167973904Y-100217381D01*
X167973904Y-99645952D02*
X167926285Y-99598333D01*
X167831047Y-99550714D01*
X167688189Y-99550714D01*
X167592951Y-99598333D01*
X167545332Y-99693571D01*
X167545332Y-100217381D01*
X167211999Y-99550714D02*
X166831047Y-99550714D01*
X167069142Y-99217381D02*
X167069142Y-100074524D01*
X167021523Y-100169762D01*
X166926285Y-100217381D01*
X166831047Y-100217381D01*
X164402474Y-100217381D02*
X164735808Y-99741190D01*
X164973903Y-100217381D02*
X164973903Y-99217381D01*
X164592950Y-99217381D01*
X164497712Y-99265000D01*
X164450093Y-99312619D01*
X164402474Y-99407857D01*
X164402474Y-99550714D01*
X164450093Y-99645952D01*
X164497712Y-99693571D01*
X164592950Y-99741190D01*
X164973903Y-99741190D01*
X163926284Y-100217381D02*
X163735808Y-100217381D01*
X163640569Y-100169762D01*
X163592950Y-100122143D01*
X163497712Y-99979286D01*
X163450093Y-99788810D01*
X163450093Y-99407857D01*
X163497712Y-99312619D01*
X163545331Y-99265000D01*
X163640569Y-99217381D01*
X163831046Y-99217381D01*
X163926284Y-99265000D01*
X163973903Y-99312619D01*
X164021522Y-99407857D01*
X164021522Y-99645952D01*
X163973903Y-99741190D01*
X163926284Y-99788810D01*
X163831046Y-99836429D01*
X163640569Y-99836429D01*
X163545331Y-99788810D01*
X163497712Y-99741190D01*
X163450093Y-99645952D01*
X162307236Y-99169762D02*
X163164379Y-100455476D01*
X161402474Y-100217381D02*
X161735808Y-99741190D01*
X161973903Y-100217381D02*
X161973903Y-99217381D01*
X161592950Y-99217381D01*
X161497712Y-99265000D01*
X161450093Y-99312619D01*
X161402474Y-99407857D01*
X161402474Y-99550714D01*
X161450093Y-99645952D01*
X161497712Y-99693571D01*
X161592950Y-99741190D01*
X161973903Y-99741190D01*
X160450093Y-100217381D02*
X161021522Y-100217381D01*
X160735808Y-100217381D02*
X160735808Y-99217381D01*
X160831046Y-99360238D01*
X160926284Y-99455476D01*
X161021522Y-99503095D01*
X159831046Y-99217381D02*
X159735807Y-99217381D01*
X159640569Y-99265000D01*
X159592950Y-99312619D01*
X159545331Y-99407857D01*
X159497712Y-99598333D01*
X159497712Y-99836429D01*
X159545331Y-100026905D01*
X159592950Y-100122143D01*
X159640569Y-100169762D01*
X159735807Y-100217381D01*
X159831046Y-100217381D01*
X159926284Y-100169762D01*
X159973903Y-100122143D01*
X160021522Y-100026905D01*
X160069141Y-99836429D01*
X160069141Y-99598333D01*
X160021522Y-99407857D01*
X159973903Y-99312619D01*
X159926284Y-99265000D01*
X159831046Y-99217381D01*
X171450095Y-101967381D02*
X172021524Y-101967381D01*
X171735810Y-101967381D02*
X171735810Y-100967381D01*
X171831048Y-101110238D01*
X171926286Y-101205476D01*
X172021524Y-101253095D01*
X170831048Y-100967381D02*
X170735809Y-100967381D01*
X170640571Y-101015000D01*
X170592952Y-101062619D01*
X170545333Y-101157857D01*
X170497714Y-101348333D01*
X170497714Y-101586429D01*
X170545333Y-101776905D01*
X170592952Y-101872143D01*
X170640571Y-101919762D01*
X170735809Y-101967381D01*
X170831048Y-101967381D01*
X170926286Y-101919762D01*
X170973905Y-101872143D01*
X171021524Y-101776905D01*
X171069143Y-101586429D01*
X171069143Y-101348333D01*
X171021524Y-101157857D01*
X170973905Y-101062619D01*
X170926286Y-101015000D01*
X170831048Y-100967381D01*
X169878667Y-100967381D02*
X169783428Y-100967381D01*
X169688190Y-101015000D01*
X169640571Y-101062619D01*
X169592952Y-101157857D01*
X169545333Y-101348333D01*
X169545333Y-101586429D01*
X169592952Y-101776905D01*
X169640571Y-101872143D01*
X169688190Y-101919762D01*
X169783428Y-101967381D01*
X169878667Y-101967381D01*
X169973905Y-101919762D01*
X170021524Y-101872143D01*
X170069143Y-101776905D01*
X170116762Y-101586429D01*
X170116762Y-101348333D01*
X170069143Y-101157857D01*
X170021524Y-101062619D01*
X169973905Y-101015000D01*
X169878667Y-100967381D01*
X169116762Y-101967381D02*
X169116762Y-101300714D01*
X169116762Y-101395952D02*
X169069143Y-101348333D01*
X168973905Y-101300714D01*
X168831047Y-101300714D01*
X168735809Y-101348333D01*
X168688190Y-101443571D01*
X168688190Y-101967381D01*
X168688190Y-101443571D02*
X168640571Y-101348333D01*
X168545333Y-101300714D01*
X168402476Y-101300714D01*
X168307238Y-101348333D01*
X168259619Y-101443571D01*
X168259619Y-101967381D01*
X167831048Y-101681667D02*
X167354857Y-101681667D01*
X167926286Y-101967381D02*
X167592953Y-100967381D01*
X167259619Y-101967381D01*
X164688190Y-101062619D02*
X164640571Y-101015000D01*
X164545333Y-100967381D01*
X164307237Y-100967381D01*
X164211999Y-101015000D01*
X164164380Y-101062619D01*
X164116761Y-101157857D01*
X164116761Y-101253095D01*
X164164380Y-101395952D01*
X164735809Y-101967381D01*
X164116761Y-101967381D01*
X163735809Y-101062619D02*
X163688190Y-101015000D01*
X163592952Y-100967381D01*
X163354856Y-100967381D01*
X163259618Y-101015000D01*
X163211999Y-101062619D01*
X163164380Y-101157857D01*
X163164380Y-101253095D01*
X163211999Y-101395952D01*
X163783428Y-101967381D01*
X163164380Y-101967381D01*
X162307237Y-100967381D02*
X162497714Y-100967381D01*
X162592952Y-101015000D01*
X162640571Y-101062619D01*
X162735809Y-101205476D01*
X162783428Y-101395952D01*
X162783428Y-101776905D01*
X162735809Y-101872143D01*
X162688190Y-101919762D01*
X162592952Y-101967381D01*
X162402475Y-101967381D01*
X162307237Y-101919762D01*
X162259618Y-101872143D01*
X162211999Y-101776905D01*
X162211999Y-101538810D01*
X162259618Y-101443571D01*
X162307237Y-101395952D01*
X162402475Y-101348333D01*
X162592952Y-101348333D01*
X162688190Y-101395952D01*
X162735809Y-101443571D01*
X162783428Y-101538810D01*
X161783428Y-101967381D02*
X161783428Y-100967381D01*
X161688190Y-101586429D02*
X161402475Y-101967381D01*
X161402475Y-101300714D02*
X161783428Y-101681667D01*
X171497714Y-102717381D02*
X171973905Y-102717381D01*
X172021524Y-103193571D01*
X171973905Y-103145952D01*
X171878667Y-103098333D01*
X171640571Y-103098333D01*
X171545333Y-103145952D01*
X171497714Y-103193571D01*
X171450095Y-103288810D01*
X171450095Y-103526905D01*
X171497714Y-103622143D01*
X171545333Y-103669762D01*
X171640571Y-103717381D01*
X171878667Y-103717381D01*
X171973905Y-103669762D01*
X172021524Y-103622143D01*
X170831048Y-102717381D02*
X170735809Y-102717381D01*
X170640571Y-102765000D01*
X170592952Y-102812619D01*
X170545333Y-102907857D01*
X170497714Y-103098333D01*
X170497714Y-103336429D01*
X170545333Y-103526905D01*
X170592952Y-103622143D01*
X170640571Y-103669762D01*
X170735809Y-103717381D01*
X170831048Y-103717381D01*
X170926286Y-103669762D01*
X170973905Y-103622143D01*
X171021524Y-103526905D01*
X171069143Y-103336429D01*
X171069143Y-103098333D01*
X171021524Y-102907857D01*
X170973905Y-102812619D01*
X170926286Y-102765000D01*
X170831048Y-102717381D01*
X169878667Y-102717381D02*
X169783428Y-102717381D01*
X169688190Y-102765000D01*
X169640571Y-102812619D01*
X169592952Y-102907857D01*
X169545333Y-103098333D01*
X169545333Y-103336429D01*
X169592952Y-103526905D01*
X169640571Y-103622143D01*
X169688190Y-103669762D01*
X169783428Y-103717381D01*
X169878667Y-103717381D01*
X169973905Y-103669762D01*
X170021524Y-103622143D01*
X170069143Y-103526905D01*
X170116762Y-103336429D01*
X170116762Y-103098333D01*
X170069143Y-102907857D01*
X170021524Y-102812619D01*
X169973905Y-102765000D01*
X169878667Y-102717381D01*
X169116762Y-103717381D02*
X169116762Y-103050714D01*
X169116762Y-103145952D02*
X169069143Y-103098333D01*
X168973905Y-103050714D01*
X168831047Y-103050714D01*
X168735809Y-103098333D01*
X168688190Y-103193571D01*
X168688190Y-103717381D01*
X168688190Y-103193571D02*
X168640571Y-103098333D01*
X168545333Y-103050714D01*
X168402476Y-103050714D01*
X168307238Y-103098333D01*
X168259619Y-103193571D01*
X168259619Y-103717381D01*
X167831048Y-103431667D02*
X167354857Y-103431667D01*
X167926286Y-103717381D02*
X167592953Y-102717381D01*
X167259619Y-103717381D01*
X164164380Y-102717381D02*
X164640571Y-102717381D01*
X164688190Y-103193571D01*
X164640571Y-103145952D01*
X164545333Y-103098333D01*
X164307237Y-103098333D01*
X164211999Y-103145952D01*
X164164380Y-103193571D01*
X164116761Y-103288810D01*
X164116761Y-103526905D01*
X164164380Y-103622143D01*
X164211999Y-103669762D01*
X164307237Y-103717381D01*
X164545333Y-103717381D01*
X164640571Y-103669762D01*
X164688190Y-103622143D01*
X163735809Y-102812619D02*
X163688190Y-102765000D01*
X163592952Y-102717381D01*
X163354856Y-102717381D01*
X163259618Y-102765000D01*
X163211999Y-102812619D01*
X163164380Y-102907857D01*
X163164380Y-103003095D01*
X163211999Y-103145952D01*
X163783428Y-103717381D01*
X163164380Y-103717381D01*
X162735809Y-103717381D02*
X162735809Y-102717381D01*
X162640571Y-103336429D02*
X162354856Y-103717381D01*
X162354856Y-103050714D02*
X162735809Y-103431667D01*
X162021523Y-102717381D02*
X161402475Y-102717381D01*
X161735809Y-103098333D01*
X161592951Y-103098333D01*
X161497713Y-103145952D01*
X161450094Y-103193571D01*
X161402475Y-103288810D01*
X161402475Y-103526905D01*
X161450094Y-103622143D01*
X161497713Y-103669762D01*
X161592951Y-103717381D01*
X161878666Y-103717381D01*
X161973904Y-103669762D01*
X162021523Y-103622143D01*
X171926286Y-105467381D02*
X171735810Y-105467381D01*
X171640571Y-105419762D01*
X171592952Y-105372143D01*
X171497714Y-105229286D01*
X171450095Y-105038810D01*
X171450095Y-104657857D01*
X171497714Y-104562619D01*
X171545333Y-104515000D01*
X171640571Y-104467381D01*
X171831048Y-104467381D01*
X171926286Y-104515000D01*
X171973905Y-104562619D01*
X172021524Y-104657857D01*
X172021524Y-104895952D01*
X171973905Y-104991190D01*
X171926286Y-105038810D01*
X171831048Y-105086429D01*
X171640571Y-105086429D01*
X171545333Y-105038810D01*
X171497714Y-104991190D01*
X171450095Y-104895952D01*
X170831048Y-104467381D02*
X170735809Y-104467381D01*
X170640571Y-104515000D01*
X170592952Y-104562619D01*
X170545333Y-104657857D01*
X170497714Y-104848333D01*
X170497714Y-105086429D01*
X170545333Y-105276905D01*
X170592952Y-105372143D01*
X170640571Y-105419762D01*
X170735809Y-105467381D01*
X170831048Y-105467381D01*
X170926286Y-105419762D01*
X170973905Y-105372143D01*
X171021524Y-105276905D01*
X171069143Y-105086429D01*
X171069143Y-104848333D01*
X171021524Y-104657857D01*
X170973905Y-104562619D01*
X170926286Y-104515000D01*
X170831048Y-104467381D01*
X169878667Y-104467381D02*
X169783428Y-104467381D01*
X169688190Y-104515000D01*
X169640571Y-104562619D01*
X169592952Y-104657857D01*
X169545333Y-104848333D01*
X169545333Y-105086429D01*
X169592952Y-105276905D01*
X169640571Y-105372143D01*
X169688190Y-105419762D01*
X169783428Y-105467381D01*
X169878667Y-105467381D01*
X169973905Y-105419762D01*
X170021524Y-105372143D01*
X170069143Y-105276905D01*
X170116762Y-105086429D01*
X170116762Y-104848333D01*
X170069143Y-104657857D01*
X170021524Y-104562619D01*
X169973905Y-104515000D01*
X169878667Y-104467381D01*
X169116762Y-105467381D02*
X169116762Y-104800714D01*
X169116762Y-104895952D02*
X169069143Y-104848333D01*
X168973905Y-104800714D01*
X168831047Y-104800714D01*
X168735809Y-104848333D01*
X168688190Y-104943571D01*
X168688190Y-105467381D01*
X168688190Y-104943571D02*
X168640571Y-104848333D01*
X168545333Y-104800714D01*
X168402476Y-104800714D01*
X168307238Y-104848333D01*
X168259619Y-104943571D01*
X168259619Y-105467381D01*
X167831048Y-105181667D02*
X167354857Y-105181667D01*
X167926286Y-105467381D02*
X167592953Y-104467381D01*
X167259619Y-105467381D01*
X164688190Y-104562619D02*
X164640571Y-104515000D01*
X164545333Y-104467381D01*
X164307237Y-104467381D01*
X164211999Y-104515000D01*
X164164380Y-104562619D01*
X164116761Y-104657857D01*
X164116761Y-104753095D01*
X164164380Y-104895952D01*
X164735809Y-105467381D01*
X164116761Y-105467381D01*
X163545333Y-104895952D02*
X163640571Y-104848333D01*
X163688190Y-104800714D01*
X163735809Y-104705476D01*
X163735809Y-104657857D01*
X163688190Y-104562619D01*
X163640571Y-104515000D01*
X163545333Y-104467381D01*
X163354856Y-104467381D01*
X163259618Y-104515000D01*
X163211999Y-104562619D01*
X163164380Y-104657857D01*
X163164380Y-104705476D01*
X163211999Y-104800714D01*
X163259618Y-104848333D01*
X163354856Y-104895952D01*
X163545333Y-104895952D01*
X163640571Y-104943571D01*
X163688190Y-104991190D01*
X163735809Y-105086429D01*
X163735809Y-105276905D01*
X163688190Y-105372143D01*
X163640571Y-105419762D01*
X163545333Y-105467381D01*
X163354856Y-105467381D01*
X163259618Y-105419762D01*
X163211999Y-105372143D01*
X163164380Y-105276905D01*
X163164380Y-105086429D01*
X163211999Y-104991190D01*
X163259618Y-104943571D01*
X163354856Y-104895952D01*
X162735809Y-105467381D02*
X162735809Y-104467381D01*
X162640571Y-105086429D02*
X162354856Y-105467381D01*
X162354856Y-104800714D02*
X162735809Y-105181667D01*
X162021523Y-104467381D02*
X161354856Y-104467381D01*
X161783428Y-105467381D01*
X171450095Y-107217381D02*
X172021524Y-107217381D01*
X171735810Y-107217381D02*
X171735810Y-106217381D01*
X171831048Y-106360238D01*
X171926286Y-106455476D01*
X172021524Y-106503095D01*
X170545333Y-106217381D02*
X171021524Y-106217381D01*
X171069143Y-106693571D01*
X171021524Y-106645952D01*
X170926286Y-106598333D01*
X170688190Y-106598333D01*
X170592952Y-106645952D01*
X170545333Y-106693571D01*
X170497714Y-106788810D01*
X170497714Y-107026905D01*
X170545333Y-107122143D01*
X170592952Y-107169762D01*
X170688190Y-107217381D01*
X170926286Y-107217381D01*
X171021524Y-107169762D01*
X171069143Y-107122143D01*
X169878667Y-106217381D02*
X169783428Y-106217381D01*
X169688190Y-106265000D01*
X169640571Y-106312619D01*
X169592952Y-106407857D01*
X169545333Y-106598333D01*
X169545333Y-106836429D01*
X169592952Y-107026905D01*
X169640571Y-107122143D01*
X169688190Y-107169762D01*
X169783428Y-107217381D01*
X169878667Y-107217381D01*
X169973905Y-107169762D01*
X170021524Y-107122143D01*
X170069143Y-107026905D01*
X170116762Y-106836429D01*
X170116762Y-106598333D01*
X170069143Y-106407857D01*
X170021524Y-106312619D01*
X169973905Y-106265000D01*
X169878667Y-106217381D01*
X168926286Y-106217381D02*
X168831047Y-106217381D01*
X168735809Y-106265000D01*
X168688190Y-106312619D01*
X168640571Y-106407857D01*
X168592952Y-106598333D01*
X168592952Y-106836429D01*
X168640571Y-107026905D01*
X168688190Y-107122143D01*
X168735809Y-107169762D01*
X168831047Y-107217381D01*
X168926286Y-107217381D01*
X169021524Y-107169762D01*
X169069143Y-107122143D01*
X169116762Y-107026905D01*
X169164381Y-106836429D01*
X169164381Y-106598333D01*
X169116762Y-106407857D01*
X169069143Y-106312619D01*
X169021524Y-106265000D01*
X168926286Y-106217381D01*
X168164381Y-107217381D02*
X168164381Y-106550714D01*
X168164381Y-106645952D02*
X168116762Y-106598333D01*
X168021524Y-106550714D01*
X167878666Y-106550714D01*
X167783428Y-106598333D01*
X167735809Y-106693571D01*
X167735809Y-107217381D01*
X167735809Y-106693571D02*
X167688190Y-106598333D01*
X167592952Y-106550714D01*
X167450095Y-106550714D01*
X167354857Y-106598333D01*
X167307238Y-106693571D01*
X167307238Y-107217381D01*
X166878667Y-106931667D02*
X166402476Y-106931667D01*
X166973905Y-107217381D02*
X166640572Y-106217381D01*
X166307238Y-107217381D01*
X163926285Y-107217381D02*
X164497714Y-107217381D01*
X164212000Y-107217381D02*
X164212000Y-106217381D01*
X164307238Y-106360238D01*
X164402476Y-106455476D01*
X164497714Y-106503095D01*
X163069142Y-106217381D02*
X163259619Y-106217381D01*
X163354857Y-106265000D01*
X163402476Y-106312619D01*
X163497714Y-106455476D01*
X163545333Y-106645952D01*
X163545333Y-107026905D01*
X163497714Y-107122143D01*
X163450095Y-107169762D01*
X163354857Y-107217381D01*
X163164380Y-107217381D01*
X163069142Y-107169762D01*
X163021523Y-107122143D01*
X162973904Y-107026905D01*
X162973904Y-106788810D01*
X163021523Y-106693571D01*
X163069142Y-106645952D01*
X163164380Y-106598333D01*
X163354857Y-106598333D01*
X163450095Y-106645952D01*
X163497714Y-106693571D01*
X163545333Y-106788810D01*
X162545333Y-107217381D02*
X162545333Y-106217381D01*
X162450095Y-106836429D02*
X162164380Y-107217381D01*
X162164380Y-106550714D02*
X162545333Y-106931667D01*
X161688190Y-107217381D02*
X161497714Y-107217381D01*
X161402475Y-107169762D01*
X161354856Y-107122143D01*
X161259618Y-106979286D01*
X161211999Y-106788810D01*
X161211999Y-106407857D01*
X161259618Y-106312619D01*
X161307237Y-106265000D01*
X161402475Y-106217381D01*
X161592952Y-106217381D01*
X161688190Y-106265000D01*
X161735809Y-106312619D01*
X161783428Y-106407857D01*
X161783428Y-106645952D01*
X161735809Y-106741190D01*
X161688190Y-106788810D01*
X161592952Y-106836429D01*
X161402475Y-106836429D01*
X161307237Y-106788810D01*
X161259618Y-106741190D01*
X161211999Y-106645952D01*
X171973905Y-108967381D02*
X171973905Y-107967381D01*
X171402476Y-108967381D01*
X171402476Y-107967381D01*
X170783429Y-108967381D02*
X170878667Y-108919762D01*
X170926286Y-108872143D01*
X170973905Y-108776905D01*
X170973905Y-108491190D01*
X170926286Y-108395952D01*
X170878667Y-108348333D01*
X170783429Y-108300714D01*
X170640571Y-108300714D01*
X170545333Y-108348333D01*
X170497714Y-108395952D01*
X170450095Y-108491190D01*
X170450095Y-108776905D01*
X170497714Y-108872143D01*
X170545333Y-108919762D01*
X170640571Y-108967381D01*
X170783429Y-108967381D01*
X169116762Y-108967381D02*
X169212000Y-108919762D01*
X169259619Y-108824524D01*
X169259619Y-107967381D01*
X168735809Y-108967381D02*
X168735809Y-108300714D01*
X168735809Y-107967381D02*
X168783428Y-108015000D01*
X168735809Y-108062619D01*
X168688190Y-108015000D01*
X168735809Y-107967381D01*
X168735809Y-108062619D01*
X168259619Y-108967381D02*
X168259619Y-108300714D01*
X168259619Y-108395952D02*
X168212000Y-108348333D01*
X168116762Y-108300714D01*
X167973904Y-108300714D01*
X167878666Y-108348333D01*
X167831047Y-108443571D01*
X167831047Y-108967381D01*
X167831047Y-108443571D02*
X167783428Y-108348333D01*
X167688190Y-108300714D01*
X167545333Y-108300714D01*
X167450095Y-108348333D01*
X167402476Y-108443571D01*
X167402476Y-108967381D01*
X164688190Y-108919762D02*
X164545333Y-108967381D01*
X164307237Y-108967381D01*
X164211999Y-108919762D01*
X164164380Y-108872143D01*
X164116761Y-108776905D01*
X164116761Y-108681667D01*
X164164380Y-108586429D01*
X164211999Y-108538810D01*
X164307237Y-108491190D01*
X164497714Y-108443571D01*
X164592952Y-108395952D01*
X164640571Y-108348333D01*
X164688190Y-108253095D01*
X164688190Y-108157857D01*
X164640571Y-108062619D01*
X164592952Y-108015000D01*
X164497714Y-107967381D01*
X164259618Y-107967381D01*
X164116761Y-108015000D01*
X163307237Y-108919762D02*
X163402475Y-108967381D01*
X163592952Y-108967381D01*
X163688190Y-108919762D01*
X163735809Y-108824524D01*
X163735809Y-108443571D01*
X163688190Y-108348333D01*
X163592952Y-108300714D01*
X163402475Y-108300714D01*
X163307237Y-108348333D01*
X163259618Y-108443571D01*
X163259618Y-108538810D01*
X163735809Y-108634048D01*
X162450094Y-108919762D02*
X162545332Y-108967381D01*
X162735809Y-108967381D01*
X162831047Y-108919762D01*
X162878666Y-108824524D01*
X162878666Y-108443571D01*
X162831047Y-108348333D01*
X162735809Y-108300714D01*
X162545332Y-108300714D01*
X162450094Y-108348333D01*
X162402475Y-108443571D01*
X162402475Y-108538810D01*
X162878666Y-108634048D01*
X160783427Y-108967381D02*
X160783427Y-107967381D01*
X160783427Y-108919762D02*
X160878665Y-108967381D01*
X161069142Y-108967381D01*
X161164380Y-108919762D01*
X161211999Y-108872143D01*
X161259618Y-108776905D01*
X161259618Y-108491190D01*
X161211999Y-108395952D01*
X161164380Y-108348333D01*
X161069142Y-108300714D01*
X160878665Y-108300714D01*
X160783427Y-108348333D01*
X160164380Y-108967381D02*
X160259618Y-108919762D01*
X160307237Y-108872143D01*
X160354856Y-108776905D01*
X160354856Y-108491190D01*
X160307237Y-108395952D01*
X160259618Y-108348333D01*
X160164380Y-108300714D01*
X160021522Y-108300714D01*
X159926284Y-108348333D01*
X159878665Y-108395952D01*
X159831046Y-108491190D01*
X159831046Y-108776905D01*
X159878665Y-108872143D01*
X159926284Y-108919762D01*
X160021522Y-108967381D01*
X160164380Y-108967381D01*
X158973903Y-108919762D02*
X159069141Y-108967381D01*
X159259618Y-108967381D01*
X159354856Y-108919762D01*
X159402475Y-108872143D01*
X159450094Y-108776905D01*
X159450094Y-108491190D01*
X159402475Y-108395952D01*
X159354856Y-108348333D01*
X159259618Y-108300714D01*
X159069141Y-108300714D01*
X158973903Y-108348333D01*
X155209428Y-105915952D02*
X155030856Y-105975476D01*
X154733237Y-105975476D01*
X154614190Y-105915952D01*
X154554666Y-105856429D01*
X154495142Y-105737381D01*
X154495142Y-105618333D01*
X154554666Y-105499286D01*
X154614190Y-105439762D01*
X154733237Y-105380238D01*
X154971333Y-105320714D01*
X155090380Y-105261190D01*
X155149904Y-105201667D01*
X155209428Y-105082619D01*
X155209428Y-104963571D01*
X155149904Y-104844524D01*
X155090380Y-104785000D01*
X154971333Y-104725476D01*
X154673713Y-104725476D01*
X154495142Y-104785000D01*
X153959428Y-105975476D02*
X153959428Y-104725476D01*
X153483237Y-104725476D01*
X153364190Y-104785000D01*
X153304666Y-104844524D01*
X153245142Y-104963571D01*
X153245142Y-105142143D01*
X153304666Y-105261190D01*
X153364190Y-105320714D01*
X153483237Y-105380238D01*
X153959428Y-105380238D01*
X152709428Y-105975476D02*
X152709428Y-104725476D01*
X152292761Y-105618333D01*
X151876095Y-104725476D01*
X151876095Y-105975476D01*
X151280857Y-105975476D02*
X151280857Y-104725476D01*
X150983238Y-104725476D01*
X150804666Y-104785000D01*
X150685619Y-104904048D01*
X150626095Y-105023095D01*
X150566571Y-105261190D01*
X150566571Y-105439762D01*
X150626095Y-105677857D01*
X150685619Y-105796905D01*
X150804666Y-105915952D01*
X150983238Y-105975476D01*
X151280857Y-105975476D01*
X149614190Y-105320714D02*
X149435619Y-105380238D01*
X149376095Y-105439762D01*
X149316571Y-105558810D01*
X149316571Y-105737381D01*
X149376095Y-105856429D01*
X149435619Y-105915952D01*
X149554666Y-105975476D01*
X150030857Y-105975476D01*
X150030857Y-104725476D01*
X149614190Y-104725476D01*
X149495143Y-104785000D01*
X149435619Y-104844524D01*
X149376095Y-104963571D01*
X149376095Y-105082619D01*
X149435619Y-105201667D01*
X149495143Y-105261190D01*
X149614190Y-105320714D01*
X150030857Y-105320714D01*
X148066571Y-105856429D02*
X148126095Y-105915952D01*
X148304666Y-105975476D01*
X148423714Y-105975476D01*
X148602286Y-105915952D01*
X148721333Y-105796905D01*
X148780857Y-105677857D01*
X148840381Y-105439762D01*
X148840381Y-105261190D01*
X148780857Y-105023095D01*
X148721333Y-104904048D01*
X148602286Y-104785000D01*
X148423714Y-104725476D01*
X148304666Y-104725476D01*
X148126095Y-104785000D01*
X148066571Y-104844524D01*
X164677858Y-113528143D02*
X164725477Y-113575762D01*
X164868334Y-113623381D01*
X164963572Y-113623381D01*
X165106430Y-113575762D01*
X165201668Y-113480524D01*
X165249287Y-113385286D01*
X165296906Y-113194810D01*
X165296906Y-113051952D01*
X165249287Y-112861476D01*
X165201668Y-112766238D01*
X165106430Y-112671000D01*
X164963572Y-112623381D01*
X164868334Y-112623381D01*
X164725477Y-112671000D01*
X164677858Y-112718619D01*
X164106430Y-113623381D02*
X164201668Y-113575762D01*
X164249287Y-113528143D01*
X164296906Y-113432905D01*
X164296906Y-113147190D01*
X164249287Y-113051952D01*
X164201668Y-113004333D01*
X164106430Y-112956714D01*
X163963572Y-112956714D01*
X163868334Y-113004333D01*
X163820715Y-113051952D01*
X163773096Y-113147190D01*
X163773096Y-113432905D01*
X163820715Y-113528143D01*
X163868334Y-113575762D01*
X163963572Y-113623381D01*
X164106430Y-113623381D01*
X163344525Y-112956714D02*
X163344525Y-113956714D01*
X163344525Y-113004333D02*
X163249287Y-112956714D01*
X163058810Y-112956714D01*
X162963572Y-113004333D01*
X162915953Y-113051952D01*
X162868334Y-113147190D01*
X162868334Y-113432905D01*
X162915953Y-113528143D01*
X162963572Y-113575762D01*
X163058810Y-113623381D01*
X163249287Y-113623381D01*
X163344525Y-113575762D01*
X162535001Y-112956714D02*
X162296906Y-113623381D01*
X162058810Y-112956714D02*
X162296906Y-113623381D01*
X162392144Y-113861476D01*
X162439763Y-113909095D01*
X162535001Y-113956714D01*
X161677858Y-113623381D02*
X161677858Y-112956714D01*
X161677858Y-113147190D02*
X161630239Y-113051952D01*
X161582620Y-113004333D01*
X161487382Y-112956714D01*
X161392143Y-112956714D01*
X161058810Y-113623381D02*
X161058810Y-112956714D01*
X161058810Y-112623381D02*
X161106429Y-112671000D01*
X161058810Y-112718619D01*
X161011191Y-112671000D01*
X161058810Y-112623381D01*
X161058810Y-112718619D01*
X160154048Y-112956714D02*
X160154048Y-113766238D01*
X160201667Y-113861476D01*
X160249286Y-113909095D01*
X160344525Y-113956714D01*
X160487382Y-113956714D01*
X160582620Y-113909095D01*
X160154048Y-113575762D02*
X160249286Y-113623381D01*
X160439763Y-113623381D01*
X160535001Y-113575762D01*
X160582620Y-113528143D01*
X160630239Y-113432905D01*
X160630239Y-113147190D01*
X160582620Y-113051952D01*
X160535001Y-113004333D01*
X160439763Y-112956714D01*
X160249286Y-112956714D01*
X160154048Y-113004333D01*
X159677858Y-113623381D02*
X159677858Y-112623381D01*
X159249286Y-113623381D02*
X159249286Y-113099571D01*
X159296905Y-113004333D01*
X159392143Y-112956714D01*
X159535001Y-112956714D01*
X159630239Y-113004333D01*
X159677858Y-113051952D01*
X158915953Y-112956714D02*
X158535001Y-112956714D01*
X158773096Y-112623381D02*
X158773096Y-113480524D01*
X158725477Y-113575762D01*
X158630239Y-113623381D01*
X158535001Y-113623381D01*
X156630238Y-112861476D02*
X156725476Y-112813857D01*
X156915952Y-112813857D01*
X157011190Y-112861476D01*
X157106428Y-112956714D01*
X157154047Y-113051952D01*
X157154047Y-113242429D01*
X157106428Y-113337667D01*
X157011190Y-113432905D01*
X156915952Y-113480524D01*
X156725476Y-113480524D01*
X156630238Y-113432905D01*
X156820714Y-112480524D02*
X157058809Y-112528143D01*
X157296905Y-112671000D01*
X157439762Y-112909095D01*
X157487381Y-113147190D01*
X157439762Y-113385286D01*
X157296905Y-113623381D01*
X157058809Y-113766238D01*
X156820714Y-113813857D01*
X156582619Y-113766238D01*
X156344524Y-113623381D01*
X156201667Y-113385286D01*
X156154047Y-113147190D01*
X156201667Y-112909095D01*
X156344524Y-112671000D01*
X156582619Y-112528143D01*
X156820714Y-112480524D01*
X155011190Y-112718619D02*
X154963571Y-112671000D01*
X154868333Y-112623381D01*
X154630237Y-112623381D01*
X154534999Y-112671000D01*
X154487380Y-112718619D01*
X154439761Y-112813857D01*
X154439761Y-112909095D01*
X154487380Y-113051952D01*
X155058809Y-113623381D01*
X154439761Y-113623381D01*
X153820714Y-112623381D02*
X153725475Y-112623381D01*
X153630237Y-112671000D01*
X153582618Y-112718619D01*
X153534999Y-112813857D01*
X153487380Y-113004333D01*
X153487380Y-113242429D01*
X153534999Y-113432905D01*
X153582618Y-113528143D01*
X153630237Y-113575762D01*
X153725475Y-113623381D01*
X153820714Y-113623381D01*
X153915952Y-113575762D01*
X153963571Y-113528143D01*
X154011190Y-113432905D01*
X154058809Y-113242429D01*
X154058809Y-113004333D01*
X154011190Y-112813857D01*
X153963571Y-112718619D01*
X153915952Y-112671000D01*
X153820714Y-112623381D01*
X152534999Y-113623381D02*
X153106428Y-113623381D01*
X152820714Y-113623381D02*
X152820714Y-112623381D01*
X152915952Y-112766238D01*
X153011190Y-112861476D01*
X153106428Y-112909095D01*
X152201666Y-112623381D02*
X151534999Y-112623381D01*
X151963571Y-113623381D01*
X150392142Y-113623381D02*
X150392142Y-112623381D01*
X150296904Y-113242429D02*
X150011189Y-113623381D01*
X150011189Y-112956714D02*
X150392142Y-113337667D01*
X149677856Y-112956714D02*
X149487380Y-113623381D01*
X149296903Y-113147190D01*
X149106427Y-113623381D01*
X148915951Y-112956714D01*
X148154046Y-113575762D02*
X148249284Y-113623381D01*
X148439761Y-113623381D01*
X148534999Y-113575762D01*
X148582618Y-113480524D01*
X148582618Y-113099571D01*
X148534999Y-113004333D01*
X148439761Y-112956714D01*
X148249284Y-112956714D01*
X148154046Y-113004333D01*
X148106427Y-113099571D01*
X148106427Y-113194810D01*
X148582618Y-113290048D01*
X147677856Y-112956714D02*
X147677856Y-113623381D01*
X147677856Y-113051952D02*
X147630237Y-113004333D01*
X147534999Y-112956714D01*
X147392141Y-112956714D01*
X147296903Y-113004333D01*
X147249284Y-113099571D01*
X147249284Y-113623381D01*
X146344522Y-113623381D02*
X146344522Y-112623381D01*
X146344522Y-113575762D02*
X146439760Y-113623381D01*
X146630237Y-113623381D01*
X146725475Y-113575762D01*
X146773094Y-113528143D01*
X146820713Y-113432905D01*
X146820713Y-113147190D01*
X146773094Y-113051952D01*
X146725475Y-113004333D01*
X146630237Y-112956714D01*
X146439760Y-112956714D01*
X146344522Y-113004333D01*
X145487379Y-113575762D02*
X145582617Y-113623381D01*
X145773094Y-113623381D01*
X145868332Y-113575762D01*
X145915951Y-113480524D01*
X145915951Y-113099571D01*
X145868332Y-113004333D01*
X145773094Y-112956714D01*
X145582617Y-112956714D01*
X145487379Y-113004333D01*
X145439760Y-113099571D01*
X145439760Y-113194810D01*
X145915951Y-113290048D01*
X145011189Y-112956714D02*
X145011189Y-113623381D01*
X145011189Y-113051952D02*
X144963570Y-113004333D01*
X144868332Y-112956714D01*
X144725474Y-112956714D01*
X144630236Y-113004333D01*
X144582617Y-113099571D01*
X144582617Y-113623381D01*
X143677855Y-113623381D02*
X143677855Y-113099571D01*
X143725474Y-113004333D01*
X143820712Y-112956714D01*
X144011189Y-112956714D01*
X144106427Y-113004333D01*
X143677855Y-113575762D02*
X143773093Y-113623381D01*
X144011189Y-113623381D01*
X144106427Y-113575762D01*
X144154046Y-113480524D01*
X144154046Y-113385286D01*
X144106427Y-113290048D01*
X144011189Y-113242429D01*
X143773093Y-113242429D01*
X143677855Y-113194810D01*
X143201665Y-113623381D02*
X143201665Y-112956714D01*
X143201665Y-113147190D02*
X143154046Y-113051952D01*
X143106427Y-113004333D01*
X143011189Y-112956714D01*
X142915950Y-112956714D01*
X142582617Y-113623381D02*
X142582617Y-112956714D01*
X142582617Y-113051952D02*
X142534998Y-113004333D01*
X142439760Y-112956714D01*
X142296902Y-112956714D01*
X142201664Y-113004333D01*
X142154045Y-113099571D01*
X142154045Y-113623381D01*
X142154045Y-113099571D02*
X142106426Y-113004333D01*
X142011188Y-112956714D01*
X141868331Y-112956714D01*
X141773093Y-113004333D01*
X141725474Y-113099571D01*
X141725474Y-113623381D01*
X141106427Y-113623381D02*
X141201665Y-113575762D01*
X141249284Y-113528143D01*
X141296903Y-113432905D01*
X141296903Y-113147190D01*
X141249284Y-113051952D01*
X141201665Y-113004333D01*
X141106427Y-112956714D01*
X140963569Y-112956714D01*
X140868331Y-113004333D01*
X140820712Y-113051952D01*
X140773093Y-113147190D01*
X140773093Y-113432905D01*
X140820712Y-113528143D01*
X140868331Y-113575762D01*
X140963569Y-113623381D01*
X141106427Y-113623381D01*
X172296906Y-115373381D02*
X172296906Y-114373381D01*
X171868334Y-115373381D02*
X171868334Y-114849571D01*
X171915953Y-114754333D01*
X172011191Y-114706714D01*
X172154049Y-114706714D01*
X172249287Y-114754333D01*
X172296906Y-114801952D01*
X171535001Y-114706714D02*
X171154049Y-114706714D01*
X171392144Y-114373381D02*
X171392144Y-115230524D01*
X171344525Y-115325762D01*
X171249287Y-115373381D01*
X171154049Y-115373381D01*
X170963572Y-114706714D02*
X170582620Y-114706714D01*
X170820715Y-114373381D02*
X170820715Y-115230524D01*
X170773096Y-115325762D01*
X170677858Y-115373381D01*
X170582620Y-115373381D01*
X170249286Y-114706714D02*
X170249286Y-115706714D01*
X170249286Y-114754333D02*
X170154048Y-114706714D01*
X169963571Y-114706714D01*
X169868333Y-114754333D01*
X169820714Y-114801952D01*
X169773095Y-114897190D01*
X169773095Y-115182905D01*
X169820714Y-115278143D01*
X169868333Y-115325762D01*
X169963571Y-115373381D01*
X170154048Y-115373381D01*
X170249286Y-115325762D01*
X169392143Y-115325762D02*
X169296905Y-115373381D01*
X169106429Y-115373381D01*
X169011190Y-115325762D01*
X168963571Y-115230524D01*
X168963571Y-115182905D01*
X169011190Y-115087667D01*
X169106429Y-115040048D01*
X169249286Y-115040048D01*
X169344524Y-114992429D01*
X169392143Y-114897190D01*
X169392143Y-114849571D01*
X169344524Y-114754333D01*
X169249286Y-114706714D01*
X169106429Y-114706714D01*
X169011190Y-114754333D01*
X168535000Y-115278143D02*
X168487381Y-115325762D01*
X168535000Y-115373381D01*
X168582619Y-115325762D01*
X168535000Y-115278143D01*
X168535000Y-115373381D01*
X168535000Y-114754333D02*
X168487381Y-114801952D01*
X168535000Y-114849571D01*
X168582619Y-114801952D01*
X168535000Y-114754333D01*
X168535000Y-114849571D01*
X167344524Y-114325762D02*
X168201667Y-115611476D01*
X166296905Y-114325762D02*
X167154048Y-115611476D01*
X165535000Y-114706714D02*
X165535000Y-115516238D01*
X165582619Y-115611476D01*
X165630238Y-115659095D01*
X165725477Y-115706714D01*
X165868334Y-115706714D01*
X165963572Y-115659095D01*
X165535000Y-115325762D02*
X165630238Y-115373381D01*
X165820715Y-115373381D01*
X165915953Y-115325762D01*
X165963572Y-115278143D01*
X166011191Y-115182905D01*
X166011191Y-114897190D01*
X165963572Y-114801952D01*
X165915953Y-114754333D01*
X165820715Y-114706714D01*
X165630238Y-114706714D01*
X165535000Y-114754333D01*
X165058810Y-115373381D02*
X165058810Y-114706714D01*
X165058810Y-114373381D02*
X165106429Y-114421000D01*
X165058810Y-114468619D01*
X165011191Y-114421000D01*
X165058810Y-114373381D01*
X165058810Y-114468619D01*
X164725477Y-114706714D02*
X164344525Y-114706714D01*
X164582620Y-114373381D02*
X164582620Y-115230524D01*
X164535001Y-115325762D01*
X164439763Y-115373381D01*
X164344525Y-115373381D01*
X164011191Y-115373381D02*
X164011191Y-114373381D01*
X163582619Y-115373381D02*
X163582619Y-114849571D01*
X163630238Y-114754333D01*
X163725476Y-114706714D01*
X163868334Y-114706714D01*
X163963572Y-114754333D01*
X164011191Y-114801952D01*
X162677857Y-114706714D02*
X162677857Y-115373381D01*
X163106429Y-114706714D02*
X163106429Y-115230524D01*
X163058810Y-115325762D01*
X162963572Y-115373381D01*
X162820714Y-115373381D01*
X162725476Y-115325762D01*
X162677857Y-115278143D01*
X162201667Y-115373381D02*
X162201667Y-114373381D01*
X162201667Y-114754333D02*
X162106429Y-114706714D01*
X161915952Y-114706714D01*
X161820714Y-114754333D01*
X161773095Y-114801952D01*
X161725476Y-114897190D01*
X161725476Y-115182905D01*
X161773095Y-115278143D01*
X161820714Y-115325762D01*
X161915952Y-115373381D01*
X162106429Y-115373381D01*
X162201667Y-115325762D01*
X161296905Y-115278143D02*
X161249286Y-115325762D01*
X161296905Y-115373381D01*
X161344524Y-115325762D01*
X161296905Y-115278143D01*
X161296905Y-115373381D01*
X160392143Y-115325762D02*
X160487381Y-115373381D01*
X160677858Y-115373381D01*
X160773096Y-115325762D01*
X160820715Y-115278143D01*
X160868334Y-115182905D01*
X160868334Y-114897190D01*
X160820715Y-114801952D01*
X160773096Y-114754333D01*
X160677858Y-114706714D01*
X160487381Y-114706714D01*
X160392143Y-114754333D01*
X159820715Y-115373381D02*
X159915953Y-115325762D01*
X159963572Y-115278143D01*
X160011191Y-115182905D01*
X160011191Y-114897190D01*
X159963572Y-114801952D01*
X159915953Y-114754333D01*
X159820715Y-114706714D01*
X159677857Y-114706714D01*
X159582619Y-114754333D01*
X159535000Y-114801952D01*
X159487381Y-114897190D01*
X159487381Y-115182905D01*
X159535000Y-115278143D01*
X159582619Y-115325762D01*
X159677857Y-115373381D01*
X159820715Y-115373381D01*
X159058810Y-115373381D02*
X159058810Y-114706714D01*
X159058810Y-114801952D02*
X159011191Y-114754333D01*
X158915953Y-114706714D01*
X158773095Y-114706714D01*
X158677857Y-114754333D01*
X158630238Y-114849571D01*
X158630238Y-115373381D01*
X158630238Y-114849571D02*
X158582619Y-114754333D01*
X158487381Y-114706714D01*
X158344524Y-114706714D01*
X158249286Y-114754333D01*
X158201667Y-114849571D01*
X158201667Y-115373381D01*
X157011191Y-114325762D02*
X157868334Y-115611476D01*
X156249286Y-115373381D02*
X156249286Y-114849571D01*
X156296905Y-114754333D01*
X156392143Y-114706714D01*
X156582620Y-114706714D01*
X156677858Y-114754333D01*
X156249286Y-115325762D02*
X156344524Y-115373381D01*
X156582620Y-115373381D01*
X156677858Y-115325762D01*
X156725477Y-115230524D01*
X156725477Y-115135286D01*
X156677858Y-115040048D01*
X156582620Y-114992429D01*
X156344524Y-114992429D01*
X156249286Y-114944810D01*
X155773096Y-115373381D02*
X155773096Y-114373381D01*
X155677858Y-114992429D02*
X155392143Y-115373381D01*
X155392143Y-114706714D02*
X155773096Y-115087667D01*
X154820715Y-115373381D02*
X154915953Y-115325762D01*
X154963572Y-115278143D01*
X155011191Y-115182905D01*
X155011191Y-114897190D01*
X154963572Y-114801952D01*
X154915953Y-114754333D01*
X154820715Y-114706714D01*
X154677857Y-114706714D01*
X154582619Y-114754333D01*
X154535000Y-114801952D01*
X154487381Y-114897190D01*
X154487381Y-115182905D01*
X154535000Y-115278143D01*
X154582619Y-115325762D01*
X154677857Y-115373381D01*
X154820715Y-115373381D01*
X154058810Y-115373381D02*
X154058810Y-114706714D01*
X154058810Y-114897190D02*
X154011191Y-114801952D01*
X153963572Y-114754333D01*
X153868334Y-114706714D01*
X153773095Y-114706714D01*
X153439762Y-114706714D02*
X153439762Y-115373381D01*
X153439762Y-114801952D02*
X153392143Y-114754333D01*
X153296905Y-114706714D01*
X153154047Y-114706714D01*
X153058809Y-114754333D01*
X153011190Y-114849571D01*
X153011190Y-115373381D01*
X152582619Y-115325762D02*
X152487381Y-115373381D01*
X152296905Y-115373381D01*
X152201666Y-115325762D01*
X152154047Y-115230524D01*
X152154047Y-115182905D01*
X152201666Y-115087667D01*
X152296905Y-115040048D01*
X152439762Y-115040048D01*
X152535000Y-114992429D01*
X152582619Y-114897190D01*
X152582619Y-114849571D01*
X152535000Y-114754333D01*
X152439762Y-114706714D01*
X152296905Y-114706714D01*
X152201666Y-114754333D01*
X151820714Y-114706714D02*
X151582619Y-115373381D01*
X151344523Y-114706714D02*
X151582619Y-115373381D01*
X151677857Y-115611476D01*
X151725476Y-115659095D01*
X151820714Y-115706714D01*
X151011190Y-115325762D02*
X150915952Y-115373381D01*
X150725476Y-115373381D01*
X150630237Y-115325762D01*
X150582618Y-115230524D01*
X150582618Y-115182905D01*
X150630237Y-115087667D01*
X150725476Y-115040048D01*
X150868333Y-115040048D01*
X150963571Y-114992429D01*
X151011190Y-114897190D01*
X151011190Y-114849571D01*
X150963571Y-114754333D01*
X150868333Y-114706714D01*
X150725476Y-114706714D01*
X150630237Y-114754333D01*
X150154047Y-114992429D02*
X149392142Y-114992429D01*
X148915952Y-115373381D02*
X148915952Y-114706714D01*
X148915952Y-114897190D02*
X148868333Y-114801952D01*
X148820714Y-114754333D01*
X148725476Y-114706714D01*
X148630237Y-114706714D01*
X147868332Y-115373381D02*
X147868332Y-114373381D01*
X147868332Y-115325762D02*
X147963570Y-115373381D01*
X148154047Y-115373381D01*
X148249285Y-115325762D01*
X148296904Y-115278143D01*
X148344523Y-115182905D01*
X148344523Y-114897190D01*
X148296904Y-114801952D01*
X148249285Y-114754333D01*
X148154047Y-114706714D01*
X147963570Y-114706714D01*
X147868332Y-114754333D01*
X147392142Y-115373381D02*
X147392142Y-114706714D01*
X147392142Y-114373381D02*
X147439761Y-114421000D01*
X147392142Y-114468619D01*
X147344523Y-114421000D01*
X147392142Y-114373381D01*
X147392142Y-114468619D01*
X146201666Y-114325762D02*
X147058809Y-115611476D01*
X145868333Y-114373381D02*
X145868333Y-115182905D01*
X145820714Y-115278143D01*
X145773095Y-115325762D01*
X145677857Y-115373381D01*
X145487380Y-115373381D01*
X145392142Y-115325762D01*
X145344523Y-115278143D01*
X145296904Y-115182905D01*
X145296904Y-114373381D01*
X144868333Y-115325762D02*
X144725476Y-115373381D01*
X144487380Y-115373381D01*
X144392142Y-115325762D01*
X144344523Y-115278143D01*
X144296904Y-115182905D01*
X144296904Y-115087667D01*
X144344523Y-114992429D01*
X144392142Y-114944810D01*
X144487380Y-114897190D01*
X144677857Y-114849571D01*
X144773095Y-114801952D01*
X144820714Y-114754333D01*
X144868333Y-114659095D01*
X144868333Y-114563857D01*
X144820714Y-114468619D01*
X144773095Y-114421000D01*
X144677857Y-114373381D01*
X144439761Y-114373381D01*
X144296904Y-114421000D01*
X143534999Y-114849571D02*
X143392142Y-114897190D01*
X143344523Y-114944810D01*
X143296904Y-115040048D01*
X143296904Y-115182905D01*
X143344523Y-115278143D01*
X143392142Y-115325762D01*
X143487380Y-115373381D01*
X143868333Y-115373381D01*
X143868333Y-114373381D01*
X143534999Y-114373381D01*
X143439761Y-114421000D01*
X143392142Y-114468619D01*
X143344523Y-114563857D01*
X143344523Y-114659095D01*
X143392142Y-114754333D01*
X143439761Y-114801952D01*
X143534999Y-114849571D01*
X143868333Y-114849571D01*
X142868333Y-114992429D02*
X142106428Y-114992429D01*
X141630238Y-114706714D02*
X141630238Y-115706714D01*
X141630238Y-114754333D02*
X141535000Y-114706714D01*
X141344523Y-114706714D01*
X141249285Y-114754333D01*
X141201666Y-114801952D01*
X141154047Y-114897190D01*
X141154047Y-115182905D01*
X141201666Y-115278143D01*
X141249285Y-115325762D01*
X141344523Y-115373381D01*
X141535000Y-115373381D01*
X141630238Y-115325762D01*
X140582619Y-115373381D02*
X140677857Y-115325762D01*
X140725476Y-115278143D01*
X140773095Y-115182905D01*
X140773095Y-114897190D01*
X140725476Y-114801952D01*
X140677857Y-114754333D01*
X140582619Y-114706714D01*
X140439761Y-114706714D01*
X140344523Y-114754333D01*
X140296904Y-114801952D01*
X140249285Y-114897190D01*
X140249285Y-115182905D01*
X140296904Y-115278143D01*
X140344523Y-115325762D01*
X140439761Y-115373381D01*
X140582619Y-115373381D01*
X139915952Y-114706714D02*
X139725476Y-115373381D01*
X139534999Y-114897190D01*
X139344523Y-115373381D01*
X139154047Y-114706714D01*
X138392142Y-115325762D02*
X138487380Y-115373381D01*
X138677857Y-115373381D01*
X138773095Y-115325762D01*
X138820714Y-115230524D01*
X138820714Y-114849571D01*
X138773095Y-114754333D01*
X138677857Y-114706714D01*
X138487380Y-114706714D01*
X138392142Y-114754333D01*
X138344523Y-114849571D01*
X138344523Y-114944810D01*
X138820714Y-115040048D01*
X137915952Y-115373381D02*
X137915952Y-114706714D01*
X137915952Y-114897190D02*
X137868333Y-114801952D01*
X137820714Y-114754333D01*
X137725476Y-114706714D01*
X137630237Y-114706714D01*
X137296904Y-114992429D02*
X136534999Y-114992429D01*
X135630237Y-115373381D02*
X135630237Y-114373381D01*
X135630237Y-115325762D02*
X135725475Y-115373381D01*
X135915952Y-115373381D01*
X136011190Y-115325762D01*
X136058809Y-115278143D01*
X136106428Y-115182905D01*
X136106428Y-114897190D01*
X136058809Y-114801952D01*
X136011190Y-114754333D01*
X135915952Y-114706714D01*
X135725475Y-114706714D01*
X135630237Y-114754333D01*
X135154047Y-115373381D02*
X135154047Y-114706714D01*
X135154047Y-114373381D02*
X135201666Y-114421000D01*
X135154047Y-114468619D01*
X135106428Y-114421000D01*
X135154047Y-114373381D01*
X135154047Y-114468619D01*
X134725476Y-115325762D02*
X134630238Y-115373381D01*
X134439762Y-115373381D01*
X134344523Y-115325762D01*
X134296904Y-115230524D01*
X134296904Y-115182905D01*
X134344523Y-115087667D01*
X134439762Y-115040048D01*
X134582619Y-115040048D01*
X134677857Y-114992429D01*
X134725476Y-114897190D01*
X134725476Y-114849571D01*
X134677857Y-114754333D01*
X134582619Y-114706714D01*
X134439762Y-114706714D01*
X134344523Y-114754333D01*
X134011190Y-114706714D02*
X133630238Y-114706714D01*
X133868333Y-114373381D02*
X133868333Y-115230524D01*
X133820714Y-115325762D01*
X133725476Y-115373381D01*
X133630238Y-115373381D01*
D14*
X158042429Y-84407214D02*
X158296429Y-84044357D01*
X158477857Y-84407214D02*
X158477857Y-83645214D01*
X158187572Y-83645214D01*
X158115000Y-83681500D01*
X158078715Y-83717786D01*
X158042429Y-83790357D01*
X158042429Y-83899214D01*
X158078715Y-83971786D01*
X158115000Y-84008071D01*
X158187572Y-84044357D01*
X158477857Y-84044357D01*
X157425572Y-84370929D02*
X157498143Y-84407214D01*
X157643286Y-84407214D01*
X157715857Y-84370929D01*
X157752143Y-84298357D01*
X157752143Y-84008071D01*
X157715857Y-83935500D01*
X157643286Y-83899214D01*
X157498143Y-83899214D01*
X157425572Y-83935500D01*
X157389286Y-84008071D01*
X157389286Y-84080643D01*
X157752143Y-84153214D01*
X156953857Y-84407214D02*
X157026429Y-84370929D01*
X157062714Y-84298357D01*
X157062714Y-83645214D01*
X156373286Y-84370929D02*
X156445857Y-84407214D01*
X156591000Y-84407214D01*
X156663571Y-84370929D01*
X156699857Y-84298357D01*
X156699857Y-84008071D01*
X156663571Y-83935500D01*
X156591000Y-83899214D01*
X156445857Y-83899214D01*
X156373286Y-83935500D01*
X156337000Y-84008071D01*
X156337000Y-84080643D01*
X156699857Y-84153214D01*
X155683857Y-84407214D02*
X155683857Y-84008071D01*
X155720143Y-83935500D01*
X155792714Y-83899214D01*
X155937857Y-83899214D01*
X156010428Y-83935500D01*
X155683857Y-84370929D02*
X155756428Y-84407214D01*
X155937857Y-84407214D01*
X156010428Y-84370929D01*
X156046714Y-84298357D01*
X156046714Y-84225786D01*
X156010428Y-84153214D01*
X155937857Y-84116929D01*
X155756428Y-84116929D01*
X155683857Y-84080643D01*
X155357285Y-84370929D02*
X155284714Y-84407214D01*
X155139571Y-84407214D01*
X155066999Y-84370929D01*
X155030714Y-84298357D01*
X155030714Y-84262071D01*
X155066999Y-84189500D01*
X155139571Y-84153214D01*
X155248428Y-84153214D01*
X155320999Y-84116929D01*
X155357285Y-84044357D01*
X155357285Y-84008071D01*
X155320999Y-83935500D01*
X155248428Y-83899214D01*
X155139571Y-83899214D01*
X155066999Y-83935500D01*
X154413857Y-84370929D02*
X154486428Y-84407214D01*
X154631571Y-84407214D01*
X154704142Y-84370929D01*
X154740428Y-84298357D01*
X154740428Y-84008071D01*
X154704142Y-83935500D01*
X154631571Y-83899214D01*
X154486428Y-83899214D01*
X154413857Y-83935500D01*
X154377571Y-84008071D01*
X154377571Y-84080643D01*
X154740428Y-84153214D01*
X153724428Y-84407214D02*
X153724428Y-83645214D01*
X153724428Y-84370929D02*
X153796999Y-84407214D01*
X153942142Y-84407214D01*
X154014714Y-84370929D01*
X154050999Y-84334643D01*
X154087285Y-84262071D01*
X154087285Y-84044357D01*
X154050999Y-83971786D01*
X154014714Y-83935500D01*
X153942142Y-83899214D01*
X153796999Y-83899214D01*
X153724428Y-83935500D01*
X152454428Y-83899214D02*
X152454428Y-84407214D01*
X152780999Y-83899214D02*
X152780999Y-84298357D01*
X152744714Y-84370929D01*
X152672142Y-84407214D01*
X152563285Y-84407214D01*
X152490714Y-84370929D01*
X152454428Y-84334643D01*
X152091570Y-83899214D02*
X152091570Y-84407214D01*
X152091570Y-83971786D02*
X152055285Y-83935500D01*
X151982713Y-83899214D01*
X151873856Y-83899214D01*
X151801285Y-83935500D01*
X151764999Y-84008071D01*
X151764999Y-84407214D01*
X151075570Y-84407214D02*
X151075570Y-83645214D01*
X151075570Y-84370929D02*
X151148141Y-84407214D01*
X151293284Y-84407214D01*
X151365856Y-84370929D01*
X151402141Y-84334643D01*
X151438427Y-84262071D01*
X151438427Y-84044357D01*
X151402141Y-83971786D01*
X151365856Y-83935500D01*
X151293284Y-83899214D01*
X151148141Y-83899214D01*
X151075570Y-83935500D01*
X150422427Y-84370929D02*
X150494998Y-84407214D01*
X150640141Y-84407214D01*
X150712712Y-84370929D01*
X150748998Y-84298357D01*
X150748998Y-84008071D01*
X150712712Y-83935500D01*
X150640141Y-83899214D01*
X150494998Y-83899214D01*
X150422427Y-83935500D01*
X150386141Y-84008071D01*
X150386141Y-84080643D01*
X150748998Y-84153214D01*
X150059569Y-84407214D02*
X150059569Y-83899214D01*
X150059569Y-84044357D02*
X150023284Y-83971786D01*
X149986998Y-83935500D01*
X149914427Y-83899214D01*
X149841855Y-83899214D01*
X148608142Y-83681500D02*
X148680713Y-83645214D01*
X148789570Y-83645214D01*
X148898427Y-83681500D01*
X148970999Y-83754071D01*
X149007284Y-83826643D01*
X149043570Y-83971786D01*
X149043570Y-84080643D01*
X149007284Y-84225786D01*
X148970999Y-84298357D01*
X148898427Y-84370929D01*
X148789570Y-84407214D01*
X148716999Y-84407214D01*
X148608142Y-84370929D01*
X148571856Y-84334643D01*
X148571856Y-84080643D01*
X148716999Y-84080643D01*
X148245284Y-84407214D02*
X148245284Y-83645214D01*
X147809856Y-84407214D01*
X147809856Y-83645214D01*
X147446998Y-83645214D02*
X147446998Y-84262071D01*
X147410713Y-84334643D01*
X147374427Y-84370929D01*
X147301856Y-84407214D01*
X147156713Y-84407214D01*
X147084141Y-84370929D01*
X147047856Y-84334643D01*
X147011570Y-84262071D01*
X147011570Y-83645214D01*
X146104427Y-83608929D02*
X146757570Y-84588643D01*
X145451284Y-83681500D02*
X145523855Y-83645214D01*
X145632712Y-83645214D01*
X145741569Y-83681500D01*
X145814141Y-83754071D01*
X145850426Y-83826643D01*
X145886712Y-83971786D01*
X145886712Y-84080643D01*
X145850426Y-84225786D01*
X145814141Y-84298357D01*
X145741569Y-84370929D01*
X145632712Y-84407214D01*
X145560141Y-84407214D01*
X145451284Y-84370929D01*
X145414998Y-84334643D01*
X145414998Y-84080643D01*
X145560141Y-84080643D01*
X145088426Y-84407214D02*
X145088426Y-83645214D01*
X144798141Y-83645214D01*
X144725569Y-83681500D01*
X144689284Y-83717786D01*
X144652998Y-83790357D01*
X144652998Y-83899214D01*
X144689284Y-83971786D01*
X144725569Y-84008071D01*
X144798141Y-84044357D01*
X145088426Y-84044357D01*
X143963569Y-84407214D02*
X144326426Y-84407214D01*
X144326426Y-83645214D01*
X143201570Y-83645214D02*
X142729856Y-83645214D01*
X142983856Y-83935500D01*
X142874998Y-83935500D01*
X142802427Y-83971786D01*
X142766141Y-84008071D01*
X142729856Y-84080643D01*
X142729856Y-84262071D01*
X142766141Y-84334643D01*
X142802427Y-84370929D01*
X142874998Y-84407214D01*
X143092713Y-84407214D01*
X143165284Y-84370929D01*
X143201570Y-84334643D01*
X141459856Y-84407214D02*
X141822713Y-84407214D01*
X141822713Y-83645214D01*
X141205856Y-84407214D02*
X141205856Y-83899214D01*
X141205856Y-83645214D02*
X141242142Y-83681500D01*
X141205856Y-83717786D01*
X141169571Y-83681500D01*
X141205856Y-83645214D01*
X141205856Y-83717786D01*
X140516428Y-84370929D02*
X140588999Y-84407214D01*
X140734142Y-84407214D01*
X140806714Y-84370929D01*
X140842999Y-84334643D01*
X140879285Y-84262071D01*
X140879285Y-84044357D01*
X140842999Y-83971786D01*
X140806714Y-83935500D01*
X140734142Y-83899214D01*
X140588999Y-83899214D01*
X140516428Y-83935500D01*
X139899571Y-84370929D02*
X139972142Y-84407214D01*
X140117285Y-84407214D01*
X140189856Y-84370929D01*
X140226142Y-84298357D01*
X140226142Y-84008071D01*
X140189856Y-83935500D01*
X140117285Y-83899214D01*
X139972142Y-83899214D01*
X139899571Y-83935500D01*
X139863285Y-84008071D01*
X139863285Y-84080643D01*
X140226142Y-84153214D01*
X139536713Y-83899214D02*
X139536713Y-84407214D01*
X139536713Y-83971786D02*
X139500428Y-83935500D01*
X139427856Y-83899214D01*
X139318999Y-83899214D01*
X139246428Y-83935500D01*
X139210142Y-84008071D01*
X139210142Y-84407214D01*
X138883570Y-84370929D02*
X138810999Y-84407214D01*
X138665856Y-84407214D01*
X138593284Y-84370929D01*
X138556999Y-84298357D01*
X138556999Y-84262071D01*
X138593284Y-84189500D01*
X138665856Y-84153214D01*
X138774713Y-84153214D01*
X138847284Y-84116929D01*
X138883570Y-84044357D01*
X138883570Y-84008071D01*
X138847284Y-83935500D01*
X138774713Y-83899214D01*
X138665856Y-83899214D01*
X138593284Y-83935500D01*
X137940142Y-84370929D02*
X138012713Y-84407214D01*
X138157856Y-84407214D01*
X138230427Y-84370929D01*
X138266713Y-84298357D01*
X138266713Y-84008071D01*
X138230427Y-83935500D01*
X138157856Y-83899214D01*
X138012713Y-83899214D01*
X137940142Y-83935500D01*
X137903856Y-84008071D01*
X137903856Y-84080643D01*
X138266713Y-84153214D01*
X159421289Y-85700214D02*
X159421289Y-84938214D01*
X159094718Y-85700214D02*
X159094718Y-85301071D01*
X159131004Y-85228500D01*
X159203575Y-85192214D01*
X159312432Y-85192214D01*
X159385004Y-85228500D01*
X159421289Y-85264786D01*
X158840718Y-85192214D02*
X158550432Y-85192214D01*
X158731860Y-84938214D02*
X158731860Y-85591357D01*
X158695575Y-85663929D01*
X158623003Y-85700214D01*
X158550432Y-85700214D01*
X158405289Y-85192214D02*
X158115003Y-85192214D01*
X158296431Y-84938214D02*
X158296431Y-85591357D01*
X158260146Y-85663929D01*
X158187574Y-85700214D01*
X158115003Y-85700214D01*
X157861002Y-85192214D02*
X157861002Y-85954214D01*
X157861002Y-85228500D02*
X157788431Y-85192214D01*
X157643288Y-85192214D01*
X157570717Y-85228500D01*
X157534431Y-85264786D01*
X157498145Y-85337357D01*
X157498145Y-85555071D01*
X157534431Y-85627643D01*
X157570717Y-85663929D01*
X157643288Y-85700214D01*
X157788431Y-85700214D01*
X157861002Y-85663929D01*
X157207859Y-85663929D02*
X157135288Y-85700214D01*
X156990145Y-85700214D01*
X156917573Y-85663929D01*
X156881288Y-85591357D01*
X156881288Y-85555071D01*
X156917573Y-85482500D01*
X156990145Y-85446214D01*
X157099002Y-85446214D01*
X157171573Y-85409929D01*
X157207859Y-85337357D01*
X157207859Y-85301071D01*
X157171573Y-85228500D01*
X157099002Y-85192214D01*
X156990145Y-85192214D01*
X156917573Y-85228500D01*
X156554716Y-85627643D02*
X156518431Y-85663929D01*
X156554716Y-85700214D01*
X156591002Y-85663929D01*
X156554716Y-85627643D01*
X156554716Y-85700214D01*
X156554716Y-85228500D02*
X156518431Y-85264786D01*
X156554716Y-85301071D01*
X156591002Y-85264786D01*
X156554716Y-85228500D01*
X156554716Y-85301071D01*
X155647574Y-84901929D02*
X156300717Y-85881643D01*
X154849288Y-84901929D02*
X155502431Y-85881643D01*
X154667859Y-85192214D02*
X154522716Y-85700214D01*
X154377573Y-85337357D01*
X154232430Y-85700214D01*
X154087287Y-85192214D01*
X153869573Y-85192214D02*
X153724430Y-85700214D01*
X153579287Y-85337357D01*
X153434144Y-85700214D01*
X153289001Y-85192214D01*
X153071287Y-85192214D02*
X152926144Y-85700214D01*
X152781001Y-85337357D01*
X152635858Y-85700214D01*
X152490715Y-85192214D01*
X152200429Y-85627643D02*
X152164144Y-85663929D01*
X152200429Y-85700214D01*
X152236715Y-85663929D01*
X152200429Y-85627643D01*
X152200429Y-85700214D01*
X151511001Y-85192214D02*
X151511001Y-85809071D01*
X151547287Y-85881643D01*
X151583572Y-85917929D01*
X151656144Y-85954214D01*
X151765001Y-85954214D01*
X151837572Y-85917929D01*
X151511001Y-85663929D02*
X151583572Y-85700214D01*
X151728715Y-85700214D01*
X151801287Y-85663929D01*
X151837572Y-85627643D01*
X151873858Y-85555071D01*
X151873858Y-85337357D01*
X151837572Y-85264786D01*
X151801287Y-85228500D01*
X151728715Y-85192214D01*
X151583572Y-85192214D01*
X151511001Y-85228500D01*
X151148143Y-85192214D02*
X151148143Y-85700214D01*
X151148143Y-85264786D02*
X151111858Y-85228500D01*
X151039286Y-85192214D01*
X150930429Y-85192214D01*
X150857858Y-85228500D01*
X150821572Y-85301071D01*
X150821572Y-85700214D01*
X150132143Y-85192214D02*
X150132143Y-85700214D01*
X150458714Y-85192214D02*
X150458714Y-85591357D01*
X150422429Y-85663929D01*
X150349857Y-85700214D01*
X150241000Y-85700214D01*
X150168429Y-85663929D01*
X150132143Y-85627643D01*
X149769285Y-85627643D02*
X149733000Y-85663929D01*
X149769285Y-85700214D01*
X149805571Y-85663929D01*
X149769285Y-85627643D01*
X149769285Y-85700214D01*
X149297571Y-85700214D02*
X149370143Y-85663929D01*
X149406428Y-85627643D01*
X149442714Y-85555071D01*
X149442714Y-85337357D01*
X149406428Y-85264786D01*
X149370143Y-85228500D01*
X149297571Y-85192214D01*
X149188714Y-85192214D01*
X149116143Y-85228500D01*
X149079857Y-85264786D01*
X149043571Y-85337357D01*
X149043571Y-85555071D01*
X149079857Y-85627643D01*
X149116143Y-85663929D01*
X149188714Y-85700214D01*
X149297571Y-85700214D01*
X148716999Y-85700214D02*
X148716999Y-85192214D01*
X148716999Y-85337357D02*
X148680714Y-85264786D01*
X148644428Y-85228500D01*
X148571857Y-85192214D01*
X148499285Y-85192214D01*
X147918714Y-85192214D02*
X147918714Y-85809071D01*
X147955000Y-85881643D01*
X147991285Y-85917929D01*
X148063857Y-85954214D01*
X148172714Y-85954214D01*
X148245285Y-85917929D01*
X147918714Y-85663929D02*
X147991285Y-85700214D01*
X148136428Y-85700214D01*
X148209000Y-85663929D01*
X148245285Y-85627643D01*
X148281571Y-85555071D01*
X148281571Y-85337357D01*
X148245285Y-85264786D01*
X148209000Y-85228500D01*
X148136428Y-85192214D01*
X147991285Y-85192214D01*
X147918714Y-85228500D01*
X147011571Y-84901929D02*
X147664714Y-85881643D01*
X146648713Y-85700214D02*
X146721285Y-85663929D01*
X146757570Y-85591357D01*
X146757570Y-84938214D01*
X146358427Y-85700214D02*
X146358427Y-85192214D01*
X146358427Y-84938214D02*
X146394713Y-84974500D01*
X146358427Y-85010786D01*
X146322142Y-84974500D01*
X146358427Y-84938214D01*
X146358427Y-85010786D01*
X145668999Y-85663929D02*
X145741570Y-85700214D01*
X145886713Y-85700214D01*
X145959285Y-85663929D01*
X145995570Y-85627643D01*
X146031856Y-85555071D01*
X146031856Y-85337357D01*
X145995570Y-85264786D01*
X145959285Y-85228500D01*
X145886713Y-85192214D01*
X145741570Y-85192214D01*
X145668999Y-85228500D01*
X145052142Y-85663929D02*
X145124713Y-85700214D01*
X145269856Y-85700214D01*
X145342427Y-85663929D01*
X145378713Y-85591357D01*
X145378713Y-85301071D01*
X145342427Y-85228500D01*
X145269856Y-85192214D01*
X145124713Y-85192214D01*
X145052142Y-85228500D01*
X145015856Y-85301071D01*
X145015856Y-85373643D01*
X145378713Y-85446214D01*
X144689284Y-85192214D02*
X144689284Y-85700214D01*
X144689284Y-85264786D02*
X144652999Y-85228500D01*
X144580427Y-85192214D01*
X144471570Y-85192214D01*
X144398999Y-85228500D01*
X144362713Y-85301071D01*
X144362713Y-85700214D01*
X144036141Y-85663929D02*
X143963570Y-85700214D01*
X143818427Y-85700214D01*
X143745855Y-85663929D01*
X143709570Y-85591357D01*
X143709570Y-85555071D01*
X143745855Y-85482500D01*
X143818427Y-85446214D01*
X143927284Y-85446214D01*
X143999855Y-85409929D01*
X144036141Y-85337357D01*
X144036141Y-85301071D01*
X143999855Y-85228500D01*
X143927284Y-85192214D01*
X143818427Y-85192214D01*
X143745855Y-85228500D01*
X143092713Y-85663929D02*
X143165284Y-85700214D01*
X143310427Y-85700214D01*
X143382998Y-85663929D01*
X143419284Y-85591357D01*
X143419284Y-85301071D01*
X143382998Y-85228500D01*
X143310427Y-85192214D01*
X143165284Y-85192214D01*
X143092713Y-85228500D01*
X143056427Y-85301071D01*
X143056427Y-85373643D01*
X143419284Y-85446214D01*
X142766141Y-85663929D02*
X142693570Y-85700214D01*
X142548427Y-85700214D01*
X142475855Y-85663929D01*
X142439570Y-85591357D01*
X142439570Y-85555071D01*
X142475855Y-85482500D01*
X142548427Y-85446214D01*
X142657284Y-85446214D01*
X142729855Y-85409929D01*
X142766141Y-85337357D01*
X142766141Y-85301071D01*
X142729855Y-85228500D01*
X142657284Y-85192214D01*
X142548427Y-85192214D01*
X142475855Y-85228500D01*
X141568713Y-84901929D02*
X142221856Y-85881643D01*
X140988141Y-85192214D02*
X140988141Y-85809071D01*
X141024427Y-85881643D01*
X141060712Y-85917929D01*
X141133284Y-85954214D01*
X141242141Y-85954214D01*
X141314712Y-85917929D01*
X140988141Y-85663929D02*
X141060712Y-85700214D01*
X141205855Y-85700214D01*
X141278427Y-85663929D01*
X141314712Y-85627643D01*
X141350998Y-85555071D01*
X141350998Y-85337357D01*
X141314712Y-85264786D01*
X141278427Y-85228500D01*
X141205855Y-85192214D01*
X141060712Y-85192214D01*
X140988141Y-85228500D01*
X140625283Y-85192214D02*
X140625283Y-85954214D01*
X140625283Y-85228500D02*
X140552712Y-85192214D01*
X140407569Y-85192214D01*
X140334998Y-85228500D01*
X140298712Y-85264786D01*
X140262426Y-85337357D01*
X140262426Y-85555071D01*
X140298712Y-85627643D01*
X140334998Y-85663929D01*
X140407569Y-85700214D01*
X140552712Y-85700214D01*
X140625283Y-85663929D01*
X139826997Y-85700214D02*
X139899569Y-85663929D01*
X139935854Y-85591357D01*
X139935854Y-84938214D01*
X139536711Y-85627643D02*
X139500426Y-85663929D01*
X139536711Y-85700214D01*
X139572997Y-85663929D01*
X139536711Y-85627643D01*
X139536711Y-85700214D01*
X139173854Y-85700214D02*
X139173854Y-84938214D01*
X138847283Y-85700214D02*
X138847283Y-85301071D01*
X138883569Y-85228500D01*
X138956140Y-85192214D01*
X139064997Y-85192214D01*
X139137569Y-85228500D01*
X139173854Y-85264786D01*
X138593283Y-85192214D02*
X138302997Y-85192214D01*
X138484425Y-84938214D02*
X138484425Y-85591357D01*
X138448140Y-85663929D01*
X138375568Y-85700214D01*
X138302997Y-85700214D01*
X138048996Y-85700214D02*
X138048996Y-85192214D01*
X138048996Y-85264786D02*
X138012711Y-85228500D01*
X137940139Y-85192214D01*
X137831282Y-85192214D01*
X137758711Y-85228500D01*
X137722425Y-85301071D01*
X137722425Y-85700214D01*
X137722425Y-85301071D02*
X137686139Y-85228500D01*
X137613568Y-85192214D01*
X137504711Y-85192214D01*
X137432139Y-85228500D01*
X137395854Y-85301071D01*
X137395854Y-85700214D01*
X136924139Y-85700214D02*
X136996711Y-85663929D01*
X137032996Y-85591357D01*
X137032996Y-84938214D01*
D15*
X151991000Y-130644000D02*
X150991000Y-130644000D01*
X150991000Y-128944000D02*
X151991000Y-128944000D01*
X142914000Y-122420000D02*
X142914000Y-121420000D01*
X144614000Y-121420000D02*
X144614000Y-122420000D01*
X162853000Y-122420000D02*
X162853000Y-121420000D01*
X164553000Y-121420000D02*
X164553000Y-122420000D01*
X139104000Y-122420000D02*
X139104000Y-121420000D01*
X140804000Y-121420000D02*
X140804000Y-122420000D01*
X159043000Y-122420000D02*
X159043000Y-121420000D01*
X160743000Y-121420000D02*
X160743000Y-122420000D01*
X142739000Y-122520000D02*
X142739000Y-121320000D01*
X140979000Y-121320000D02*
X140979000Y-122520000D01*
X162678000Y-122520000D02*
X162678000Y-121320000D01*
X160918000Y-121320000D02*
X160918000Y-122520000D01*
X153121000Y-125465000D02*
X153121000Y-127265000D01*
X149901000Y-127265000D02*
X149901000Y-124315000D01*
D16*
G36*
X150891464Y-96930427D02*
X150778882Y-97527618D01*
X150363469Y-97698865D01*
X149948055Y-97870112D01*
X149449698Y-97531233D01*
X149310131Y-97436877D01*
X149183971Y-97352630D01*
X149077104Y-97282338D01*
X148995417Y-97229847D01*
X148944798Y-97199004D01*
X148931013Y-97192353D01*
X148906179Y-97209458D01*
X148853111Y-97256744D01*
X148777759Y-97328172D01*
X148686070Y-97417700D01*
X148583992Y-97519289D01*
X148477473Y-97626898D01*
X148372463Y-97734487D01*
X148274908Y-97836015D01*
X148190757Y-97925441D01*
X148125959Y-97996726D01*
X148086462Y-98043828D01*
X148077019Y-98059592D01*
X148090608Y-98088653D01*
X148128706Y-98152321D01*
X148187306Y-98244367D01*
X148262402Y-98358564D01*
X148349991Y-98488684D01*
X148400745Y-98562901D01*
X148493254Y-98698422D01*
X148575459Y-98820716D01*
X148643369Y-98923695D01*
X148692999Y-99001273D01*
X148720359Y-99047361D01*
X148724470Y-99057047D01*
X148715150Y-99084574D01*
X148689745Y-99148728D01*
X148652088Y-99240490D01*
X148606013Y-99350839D01*
X148555353Y-99470755D01*
X148503940Y-99591219D01*
X148455610Y-99703209D01*
X148414193Y-99797707D01*
X148383525Y-99865692D01*
X148367438Y-99898143D01*
X148366488Y-99899420D01*
X148341227Y-99905617D01*
X148273954Y-99919440D01*
X148171639Y-99939532D01*
X148041258Y-99964534D01*
X147889783Y-99993086D01*
X147801406Y-100009551D01*
X147639547Y-100040369D01*
X147493350Y-100069694D01*
X147370212Y-100095921D01*
X147277530Y-100117446D01*
X147222698Y-100132665D01*
X147211676Y-100137493D01*
X147200881Y-100170174D01*
X147192170Y-100243985D01*
X147185539Y-100350292D01*
X147180981Y-100480467D01*
X147178490Y-100625876D01*
X147178061Y-100777890D01*
X147179688Y-100927877D01*
X147183364Y-101067206D01*
X147189084Y-101187245D01*
X147196842Y-101279365D01*
X147206631Y-101334932D01*
X147212503Y-101346500D01*
X147247600Y-101360365D01*
X147321971Y-101380188D01*
X147425776Y-101403639D01*
X147549180Y-101428391D01*
X147592258Y-101436398D01*
X147799952Y-101474441D01*
X147964015Y-101505079D01*
X148089869Y-101529529D01*
X148182934Y-101549009D01*
X148248632Y-101564736D01*
X148292382Y-101577928D01*
X148319607Y-101589804D01*
X148335727Y-101601580D01*
X148337982Y-101603908D01*
X148360496Y-101641400D01*
X148394841Y-101714365D01*
X148437588Y-101813867D01*
X148485307Y-101930973D01*
X148534569Y-102056748D01*
X148581944Y-102182257D01*
X148624004Y-102298565D01*
X148657319Y-102396739D01*
X148678458Y-102467843D01*
X148683994Y-102502942D01*
X148683533Y-102504172D01*
X148664776Y-102532861D01*
X148622223Y-102595985D01*
X148560346Y-102686973D01*
X148483617Y-102799255D01*
X148396508Y-102926260D01*
X148371701Y-102962353D01*
X148283247Y-103093203D01*
X148205411Y-103212591D01*
X148142433Y-103313662D01*
X148098554Y-103389559D01*
X148078014Y-103433427D01*
X148077019Y-103438817D01*
X148094277Y-103467144D01*
X148141964Y-103523261D01*
X148213949Y-103601137D01*
X148304102Y-103694740D01*
X148406294Y-103798041D01*
X148514394Y-103905006D01*
X148622271Y-104009606D01*
X148723795Y-104105809D01*
X148812837Y-104187584D01*
X148883266Y-104248900D01*
X148928952Y-104283726D01*
X148941590Y-104289412D01*
X148971008Y-104276020D01*
X149031238Y-104239899D01*
X149112470Y-104187136D01*
X149174969Y-104144667D01*
X149288214Y-104066740D01*
X149422325Y-103974984D01*
X149556844Y-103883375D01*
X149629166Y-103834346D01*
X149873961Y-103668770D01*
X150079449Y-103779875D01*
X150173063Y-103828548D01*
X150252669Y-103866381D01*
X150306532Y-103887958D01*
X150320242Y-103890961D01*
X150336729Y-103868793D01*
X150369254Y-103806149D01*
X150415391Y-103708809D01*
X150472709Y-103582549D01*
X150538783Y-103433150D01*
X150611184Y-103266388D01*
X150687483Y-103088042D01*
X150765253Y-102903891D01*
X150842065Y-102719712D01*
X150915493Y-102541285D01*
X150983107Y-102374387D01*
X151042479Y-102224797D01*
X151091183Y-102098293D01*
X151126789Y-102000654D01*
X151146869Y-101937657D01*
X151150099Y-101916021D01*
X151124503Y-101888424D01*
X151068461Y-101843625D01*
X150993688Y-101790934D01*
X150987412Y-101786765D01*
X150794154Y-101632069D01*
X150638325Y-101451591D01*
X150521275Y-101251102D01*
X150444354Y-101036374D01*
X150408913Y-100813177D01*
X150416302Y-100587281D01*
X150467872Y-100364459D01*
X150564973Y-100150479D01*
X150593541Y-100103664D01*
X150742131Y-99914618D01*
X150917672Y-99762812D01*
X151114089Y-99649034D01*
X151325306Y-99574075D01*
X151545246Y-99538722D01*
X151767836Y-99543767D01*
X151986998Y-99589999D01*
X152196657Y-99678206D01*
X152390738Y-99809179D01*
X152450773Y-99862337D01*
X152603564Y-100028739D01*
X152714902Y-100203912D01*
X152791276Y-100400266D01*
X152833812Y-100594717D01*
X152844313Y-100813342D01*
X152809299Y-101033052D01*
X152732326Y-101246420D01*
X152616952Y-101446022D01*
X152466734Y-101624429D01*
X152285226Y-101774217D01*
X152261372Y-101790006D01*
X152185798Y-101841712D01*
X152128348Y-101886512D01*
X152100882Y-101915117D01*
X152100482Y-101916021D01*
X152106379Y-101946964D01*
X152129754Y-102017191D01*
X152168178Y-102120925D01*
X152219222Y-102252390D01*
X152280457Y-102405807D01*
X152349455Y-102575401D01*
X152423786Y-102755393D01*
X152501021Y-102940008D01*
X152578731Y-103123468D01*
X152654488Y-103299996D01*
X152725862Y-103463814D01*
X152790425Y-103609147D01*
X152845747Y-103730217D01*
X152889399Y-103821247D01*
X152918953Y-103876460D01*
X152930855Y-103890961D01*
X152967222Y-103879669D01*
X153035269Y-103849385D01*
X153123263Y-103805520D01*
X153171649Y-103779875D01*
X153377136Y-103668770D01*
X153621931Y-103834346D01*
X153746893Y-103919170D01*
X153883704Y-104012516D01*
X154011911Y-104100408D01*
X154076128Y-104144667D01*
X154166448Y-104205318D01*
X154242928Y-104253381D01*
X154295592Y-104282770D01*
X154312697Y-104288982D01*
X154337594Y-104272223D01*
X154392694Y-104225436D01*
X154472656Y-104153480D01*
X154572139Y-104061212D01*
X154685799Y-103953490D01*
X154757684Y-103884326D01*
X154883448Y-103760757D01*
X154992136Y-103650234D01*
X155079354Y-103557485D01*
X155140710Y-103487237D01*
X155171808Y-103444220D01*
X155174791Y-103435490D01*
X155160946Y-103402284D01*
X155122687Y-103335142D01*
X155064258Y-103240863D01*
X154989902Y-103126245D01*
X154903864Y-102998083D01*
X154879397Y-102962353D01*
X154790245Y-102832489D01*
X154710261Y-102715569D01*
X154643919Y-102618162D01*
X154595688Y-102546839D01*
X154570042Y-102508170D01*
X154567564Y-102504172D01*
X154571270Y-102473355D01*
X154590938Y-102405599D01*
X154623139Y-102309839D01*
X154664444Y-102195009D01*
X154711424Y-102070044D01*
X154760650Y-101943879D01*
X154808691Y-101825448D01*
X154852118Y-101723685D01*
X154887503Y-101647526D01*
X154911415Y-101605904D01*
X154913115Y-101603908D01*
X154927737Y-101592013D01*
X154952434Y-101580250D01*
X154992627Y-101567401D01*
X155053736Y-101552249D01*
X155141182Y-101533576D01*
X155260387Y-101510165D01*
X155416772Y-101480797D01*
X155615756Y-101444255D01*
X155658839Y-101436398D01*
X155786529Y-101411727D01*
X155897846Y-101387593D01*
X155982954Y-101366324D01*
X156032016Y-101350248D01*
X156038594Y-101346500D01*
X156049435Y-101313273D01*
X156058246Y-101239021D01*
X156065023Y-101132376D01*
X156069759Y-101001967D01*
X156072449Y-100856427D01*
X156073086Y-100704386D01*
X156071665Y-100554476D01*
X156068179Y-100415328D01*
X156062623Y-100295572D01*
X156054991Y-100203841D01*
X156045277Y-100148766D01*
X156039421Y-100137493D01*
X156006819Y-100126123D01*
X155932581Y-100107624D01*
X155824103Y-100083602D01*
X155688782Y-100055662D01*
X155534014Y-100025408D01*
X155449692Y-100009551D01*
X155289703Y-99979644D01*
X155147032Y-99952550D01*
X155028651Y-99929631D01*
X154941534Y-99912243D01*
X154892654Y-99901747D01*
X154884609Y-99899420D01*
X154871012Y-99873186D01*
X154842270Y-99809995D01*
X154802214Y-99718877D01*
X154754675Y-99608857D01*
X154703484Y-99488965D01*
X154652473Y-99368227D01*
X154605473Y-99255671D01*
X154566315Y-99160326D01*
X154538830Y-99091217D01*
X154526850Y-99057374D01*
X154526627Y-99055895D01*
X154540208Y-99029197D01*
X154578284Y-98967760D01*
X154636852Y-98877689D01*
X154711911Y-98765090D01*
X154799459Y-98636070D01*
X154850352Y-98561961D01*
X154943090Y-98426077D01*
X155025458Y-98302709D01*
X155093438Y-98198097D01*
X155143011Y-98118483D01*
X155170157Y-98070107D01*
X155174078Y-98059262D01*
X155157224Y-98034020D01*
X155110631Y-97980124D01*
X155040251Y-97903613D01*
X154952034Y-97810523D01*
X154851934Y-97706895D01*
X154745901Y-97598764D01*
X154639888Y-97492170D01*
X154539847Y-97393150D01*
X154451729Y-97307742D01*
X154381486Y-97241985D01*
X154335071Y-97201916D01*
X154319543Y-97192353D01*
X154294260Y-97205800D01*
X154233788Y-97243575D01*
X154144007Y-97301835D01*
X154030796Y-97376734D01*
X153900036Y-97464425D01*
X153801400Y-97531233D01*
X153303042Y-97870112D01*
X152887629Y-97698865D01*
X152472215Y-97527618D01*
X152359633Y-96930427D01*
X152247050Y-96333235D01*
X151004047Y-96333235D01*
X150891464Y-96930427D01*
X150891464Y-96930427D01*
G37*
X150891464Y-96930427D02*
X150778882Y-97527618D01*
X150363469Y-97698865D01*
X149948055Y-97870112D01*
X149449698Y-97531233D01*
X149310131Y-97436877D01*
X149183971Y-97352630D01*
X149077104Y-97282338D01*
X148995417Y-97229847D01*
X148944798Y-97199004D01*
X148931013Y-97192353D01*
X148906179Y-97209458D01*
X148853111Y-97256744D01*
X148777759Y-97328172D01*
X148686070Y-97417700D01*
X148583992Y-97519289D01*
X148477473Y-97626898D01*
X148372463Y-97734487D01*
X148274908Y-97836015D01*
X148190757Y-97925441D01*
X148125959Y-97996726D01*
X148086462Y-98043828D01*
X148077019Y-98059592D01*
X148090608Y-98088653D01*
X148128706Y-98152321D01*
X148187306Y-98244367D01*
X148262402Y-98358564D01*
X148349991Y-98488684D01*
X148400745Y-98562901D01*
X148493254Y-98698422D01*
X148575459Y-98820716D01*
X148643369Y-98923695D01*
X148692999Y-99001273D01*
X148720359Y-99047361D01*
X148724470Y-99057047D01*
X148715150Y-99084574D01*
X148689745Y-99148728D01*
X148652088Y-99240490D01*
X148606013Y-99350839D01*
X148555353Y-99470755D01*
X148503940Y-99591219D01*
X148455610Y-99703209D01*
X148414193Y-99797707D01*
X148383525Y-99865692D01*
X148367438Y-99898143D01*
X148366488Y-99899420D01*
X148341227Y-99905617D01*
X148273954Y-99919440D01*
X148171639Y-99939532D01*
X148041258Y-99964534D01*
X147889783Y-99993086D01*
X147801406Y-100009551D01*
X147639547Y-100040369D01*
X147493350Y-100069694D01*
X147370212Y-100095921D01*
X147277530Y-100117446D01*
X147222698Y-100132665D01*
X147211676Y-100137493D01*
X147200881Y-100170174D01*
X147192170Y-100243985D01*
X147185539Y-100350292D01*
X147180981Y-100480467D01*
X147178490Y-100625876D01*
X147178061Y-100777890D01*
X147179688Y-100927877D01*
X147183364Y-101067206D01*
X147189084Y-101187245D01*
X147196842Y-101279365D01*
X147206631Y-101334932D01*
X147212503Y-101346500D01*
X147247600Y-101360365D01*
X147321971Y-101380188D01*
X147425776Y-101403639D01*
X147549180Y-101428391D01*
X147592258Y-101436398D01*
X147799952Y-101474441D01*
X147964015Y-101505079D01*
X148089869Y-101529529D01*
X148182934Y-101549009D01*
X148248632Y-101564736D01*
X148292382Y-101577928D01*
X148319607Y-101589804D01*
X148335727Y-101601580D01*
X148337982Y-101603908D01*
X148360496Y-101641400D01*
X148394841Y-101714365D01*
X148437588Y-101813867D01*
X148485307Y-101930973D01*
X148534569Y-102056748D01*
X148581944Y-102182257D01*
X148624004Y-102298565D01*
X148657319Y-102396739D01*
X148678458Y-102467843D01*
X148683994Y-102502942D01*
X148683533Y-102504172D01*
X148664776Y-102532861D01*
X148622223Y-102595985D01*
X148560346Y-102686973D01*
X148483617Y-102799255D01*
X148396508Y-102926260D01*
X148371701Y-102962353D01*
X148283247Y-103093203D01*
X148205411Y-103212591D01*
X148142433Y-103313662D01*
X148098554Y-103389559D01*
X148078014Y-103433427D01*
X148077019Y-103438817D01*
X148094277Y-103467144D01*
X148141964Y-103523261D01*
X148213949Y-103601137D01*
X148304102Y-103694740D01*
X148406294Y-103798041D01*
X148514394Y-103905006D01*
X148622271Y-104009606D01*
X148723795Y-104105809D01*
X148812837Y-104187584D01*
X148883266Y-104248900D01*
X148928952Y-104283726D01*
X148941590Y-104289412D01*
X148971008Y-104276020D01*
X149031238Y-104239899D01*
X149112470Y-104187136D01*
X149174969Y-104144667D01*
X149288214Y-104066740D01*
X149422325Y-103974984D01*
X149556844Y-103883375D01*
X149629166Y-103834346D01*
X149873961Y-103668770D01*
X150079449Y-103779875D01*
X150173063Y-103828548D01*
X150252669Y-103866381D01*
X150306532Y-103887958D01*
X150320242Y-103890961D01*
X150336729Y-103868793D01*
X150369254Y-103806149D01*
X150415391Y-103708809D01*
X150472709Y-103582549D01*
X150538783Y-103433150D01*
X150611184Y-103266388D01*
X150687483Y-103088042D01*
X150765253Y-102903891D01*
X150842065Y-102719712D01*
X150915493Y-102541285D01*
X150983107Y-102374387D01*
X151042479Y-102224797D01*
X151091183Y-102098293D01*
X151126789Y-102000654D01*
X151146869Y-101937657D01*
X151150099Y-101916021D01*
X151124503Y-101888424D01*
X151068461Y-101843625D01*
X150993688Y-101790934D01*
X150987412Y-101786765D01*
X150794154Y-101632069D01*
X150638325Y-101451591D01*
X150521275Y-101251102D01*
X150444354Y-101036374D01*
X150408913Y-100813177D01*
X150416302Y-100587281D01*
X150467872Y-100364459D01*
X150564973Y-100150479D01*
X150593541Y-100103664D01*
X150742131Y-99914618D01*
X150917672Y-99762812D01*
X151114089Y-99649034D01*
X151325306Y-99574075D01*
X151545246Y-99538722D01*
X151767836Y-99543767D01*
X151986998Y-99589999D01*
X152196657Y-99678206D01*
X152390738Y-99809179D01*
X152450773Y-99862337D01*
X152603564Y-100028739D01*
X152714902Y-100203912D01*
X152791276Y-100400266D01*
X152833812Y-100594717D01*
X152844313Y-100813342D01*
X152809299Y-101033052D01*
X152732326Y-101246420D01*
X152616952Y-101446022D01*
X152466734Y-101624429D01*
X152285226Y-101774217D01*
X152261372Y-101790006D01*
X152185798Y-101841712D01*
X152128348Y-101886512D01*
X152100882Y-101915117D01*
X152100482Y-101916021D01*
X152106379Y-101946964D01*
X152129754Y-102017191D01*
X152168178Y-102120925D01*
X152219222Y-102252390D01*
X152280457Y-102405807D01*
X152349455Y-102575401D01*
X152423786Y-102755393D01*
X152501021Y-102940008D01*
X152578731Y-103123468D01*
X152654488Y-103299996D01*
X152725862Y-103463814D01*
X152790425Y-103609147D01*
X152845747Y-103730217D01*
X152889399Y-103821247D01*
X152918953Y-103876460D01*
X152930855Y-103890961D01*
X152967222Y-103879669D01*
X153035269Y-103849385D01*
X153123263Y-103805520D01*
X153171649Y-103779875D01*
X153377136Y-103668770D01*
X153621931Y-103834346D01*
X153746893Y-103919170D01*
X153883704Y-104012516D01*
X154011911Y-104100408D01*
X154076128Y-104144667D01*
X154166448Y-104205318D01*
X154242928Y-104253381D01*
X154295592Y-104282770D01*
X154312697Y-104288982D01*
X154337594Y-104272223D01*
X154392694Y-104225436D01*
X154472656Y-104153480D01*
X154572139Y-104061212D01*
X154685799Y-103953490D01*
X154757684Y-103884326D01*
X154883448Y-103760757D01*
X154992136Y-103650234D01*
X155079354Y-103557485D01*
X155140710Y-103487237D01*
X155171808Y-103444220D01*
X155174791Y-103435490D01*
X155160946Y-103402284D01*
X155122687Y-103335142D01*
X155064258Y-103240863D01*
X154989902Y-103126245D01*
X154903864Y-102998083D01*
X154879397Y-102962353D01*
X154790245Y-102832489D01*
X154710261Y-102715569D01*
X154643919Y-102618162D01*
X154595688Y-102546839D01*
X154570042Y-102508170D01*
X154567564Y-102504172D01*
X154571270Y-102473355D01*
X154590938Y-102405599D01*
X154623139Y-102309839D01*
X154664444Y-102195009D01*
X154711424Y-102070044D01*
X154760650Y-101943879D01*
X154808691Y-101825448D01*
X154852118Y-101723685D01*
X154887503Y-101647526D01*
X154911415Y-101605904D01*
X154913115Y-101603908D01*
X154927737Y-101592013D01*
X154952434Y-101580250D01*
X154992627Y-101567401D01*
X155053736Y-101552249D01*
X155141182Y-101533576D01*
X155260387Y-101510165D01*
X155416772Y-101480797D01*
X155615756Y-101444255D01*
X155658839Y-101436398D01*
X155786529Y-101411727D01*
X155897846Y-101387593D01*
X155982954Y-101366324D01*
X156032016Y-101350248D01*
X156038594Y-101346500D01*
X156049435Y-101313273D01*
X156058246Y-101239021D01*
X156065023Y-101132376D01*
X156069759Y-101001967D01*
X156072449Y-100856427D01*
X156073086Y-100704386D01*
X156071665Y-100554476D01*
X156068179Y-100415328D01*
X156062623Y-100295572D01*
X156054991Y-100203841D01*
X156045277Y-100148766D01*
X156039421Y-100137493D01*
X156006819Y-100126123D01*
X155932581Y-100107624D01*
X155824103Y-100083602D01*
X155688782Y-100055662D01*
X155534014Y-100025408D01*
X155449692Y-100009551D01*
X155289703Y-99979644D01*
X155147032Y-99952550D01*
X155028651Y-99929631D01*
X154941534Y-99912243D01*
X154892654Y-99901747D01*
X154884609Y-99899420D01*
X154871012Y-99873186D01*
X154842270Y-99809995D01*
X154802214Y-99718877D01*
X154754675Y-99608857D01*
X154703484Y-99488965D01*
X154652473Y-99368227D01*
X154605473Y-99255671D01*
X154566315Y-99160326D01*
X154538830Y-99091217D01*
X154526850Y-99057374D01*
X154526627Y-99055895D01*
X154540208Y-99029197D01*
X154578284Y-98967760D01*
X154636852Y-98877689D01*
X154711911Y-98765090D01*
X154799459Y-98636070D01*
X154850352Y-98561961D01*
X154943090Y-98426077D01*
X155025458Y-98302709D01*
X155093438Y-98198097D01*
X155143011Y-98118483D01*
X155170157Y-98070107D01*
X155174078Y-98059262D01*
X155157224Y-98034020D01*
X155110631Y-97980124D01*
X155040251Y-97903613D01*
X154952034Y-97810523D01*
X154851934Y-97706895D01*
X154745901Y-97598764D01*
X154639888Y-97492170D01*
X154539847Y-97393150D01*
X154451729Y-97307742D01*
X154381486Y-97241985D01*
X154335071Y-97201916D01*
X154319543Y-97192353D01*
X154294260Y-97205800D01*
X154233788Y-97243575D01*
X154144007Y-97301835D01*
X154030796Y-97376734D01*
X153900036Y-97464425D01*
X153801400Y-97531233D01*
X153303042Y-97870112D01*
X152887629Y-97698865D01*
X152472215Y-97527618D01*
X152359633Y-96930427D01*
X152247050Y-96333235D01*
X151004047Y-96333235D01*
X150891464Y-96930427D01*
D14*
X148693143Y-129373334D02*
X148740762Y-129325715D01*
X148788381Y-129182858D01*
X148788381Y-129087620D01*
X148740762Y-128944762D01*
X148645524Y-128849524D01*
X148550286Y-128801905D01*
X148359810Y-128754286D01*
X148216952Y-128754286D01*
X148026476Y-128801905D01*
X147931238Y-128849524D01*
X147836000Y-128944762D01*
X147788381Y-129087620D01*
X147788381Y-129182858D01*
X147836000Y-129325715D01*
X147883619Y-129373334D01*
X148788381Y-130325715D02*
X148788381Y-129754286D01*
X148788381Y-130040000D02*
X147788381Y-130040000D01*
X147931238Y-129944762D01*
X148026476Y-129849524D01*
X148074095Y-129754286D01*
X144121143Y-127087334D02*
X144168762Y-127039715D01*
X144216381Y-126896858D01*
X144216381Y-126801620D01*
X144168762Y-126658762D01*
X144073524Y-126563524D01*
X143978286Y-126515905D01*
X143787810Y-126468286D01*
X143644952Y-126468286D01*
X143454476Y-126515905D01*
X143359238Y-126563524D01*
X143264000Y-126658762D01*
X143216381Y-126801620D01*
X143216381Y-126896858D01*
X143264000Y-127039715D01*
X143311619Y-127087334D01*
X143644952Y-127658762D02*
X143597333Y-127563524D01*
X143549714Y-127515905D01*
X143454476Y-127468286D01*
X143406857Y-127468286D01*
X143311619Y-127515905D01*
X143264000Y-127563524D01*
X143216381Y-127658762D01*
X143216381Y-127849239D01*
X143264000Y-127944477D01*
X143311619Y-127992096D01*
X143406857Y-128039715D01*
X143454476Y-128039715D01*
X143549714Y-127992096D01*
X143597333Y-127944477D01*
X143644952Y-127849239D01*
X143644952Y-127658762D01*
X143692571Y-127563524D01*
X143740190Y-127515905D01*
X143835429Y-127468286D01*
X144025905Y-127468286D01*
X144121143Y-127515905D01*
X144168762Y-127563524D01*
X144216381Y-127658762D01*
X144216381Y-127849239D01*
X144168762Y-127944477D01*
X144121143Y-127992096D01*
X144025905Y-128039715D01*
X143835429Y-128039715D01*
X143740190Y-127992096D01*
X143692571Y-127944477D01*
X143644952Y-127849239D01*
X164187143Y-127087334D02*
X164234762Y-127039715D01*
X164282381Y-126896858D01*
X164282381Y-126801620D01*
X164234762Y-126658762D01*
X164139524Y-126563524D01*
X164044286Y-126515905D01*
X163853810Y-126468286D01*
X163710952Y-126468286D01*
X163520476Y-126515905D01*
X163425238Y-126563524D01*
X163330000Y-126658762D01*
X163282381Y-126801620D01*
X163282381Y-126896858D01*
X163330000Y-127039715D01*
X163377619Y-127087334D01*
X164282381Y-127563524D02*
X164282381Y-127754000D01*
X164234762Y-127849239D01*
X164187143Y-127896858D01*
X164044286Y-127992096D01*
X163853810Y-128039715D01*
X163472857Y-128039715D01*
X163377619Y-127992096D01*
X163330000Y-127944477D01*
X163282381Y-127849239D01*
X163282381Y-127658762D01*
X163330000Y-127563524D01*
X163377619Y-127515905D01*
X163472857Y-127468286D01*
X163710952Y-127468286D01*
X163806190Y-127515905D01*
X163853810Y-127563524D01*
X163901429Y-127658762D01*
X163901429Y-127849239D01*
X163853810Y-127944477D01*
X163806190Y-127992096D01*
X163710952Y-128039715D01*
X140311143Y-127119143D02*
X140358762Y-127071524D01*
X140406381Y-126928667D01*
X140406381Y-126833429D01*
X140358762Y-126690571D01*
X140263524Y-126595333D01*
X140168286Y-126547714D01*
X139977810Y-126500095D01*
X139834952Y-126500095D01*
X139644476Y-126547714D01*
X139549238Y-126595333D01*
X139454000Y-126690571D01*
X139406381Y-126833429D01*
X139406381Y-126928667D01*
X139454000Y-127071524D01*
X139501619Y-127119143D01*
X140406381Y-128071524D02*
X140406381Y-127500095D01*
X140406381Y-127785809D02*
X139406381Y-127785809D01*
X139549238Y-127690571D01*
X139644476Y-127595333D01*
X139692095Y-127500095D01*
X139406381Y-128690571D02*
X139406381Y-128785810D01*
X139454000Y-128881048D01*
X139501619Y-128928667D01*
X139596857Y-128976286D01*
X139787333Y-129023905D01*
X140025429Y-129023905D01*
X140215905Y-128976286D01*
X140311143Y-128928667D01*
X140358762Y-128881048D01*
X140406381Y-128785810D01*
X140406381Y-128690571D01*
X140358762Y-128595333D01*
X140311143Y-128547714D01*
X140215905Y-128500095D01*
X140025429Y-128452476D01*
X139787333Y-128452476D01*
X139596857Y-128500095D01*
X139501619Y-128547714D01*
X139454000Y-128595333D01*
X139406381Y-128690571D01*
X160377143Y-127119143D02*
X160424762Y-127071524D01*
X160472381Y-126928667D01*
X160472381Y-126833429D01*
X160424762Y-126690571D01*
X160329524Y-126595333D01*
X160234286Y-126547714D01*
X160043810Y-126500095D01*
X159900952Y-126500095D01*
X159710476Y-126547714D01*
X159615238Y-126595333D01*
X159520000Y-126690571D01*
X159472381Y-126833429D01*
X159472381Y-126928667D01*
X159520000Y-127071524D01*
X159567619Y-127119143D01*
X160472381Y-128071524D02*
X160472381Y-127500095D01*
X160472381Y-127785809D02*
X159472381Y-127785809D01*
X159615238Y-127690571D01*
X159710476Y-127595333D01*
X159758095Y-127500095D01*
X160472381Y-129023905D02*
X160472381Y-128452476D01*
X160472381Y-128738190D02*
X159472381Y-128738190D01*
X159615238Y-128642952D01*
X159710476Y-128547714D01*
X159758095Y-128452476D01*
X142438381Y-127119143D02*
X141962190Y-126785809D01*
X142438381Y-126547714D02*
X141438381Y-126547714D01*
X141438381Y-126928667D01*
X141486000Y-127023905D01*
X141533619Y-127071524D01*
X141628857Y-127119143D01*
X141771714Y-127119143D01*
X141866952Y-127071524D01*
X141914571Y-127023905D01*
X141962190Y-126928667D01*
X141962190Y-126547714D01*
X142438381Y-128071524D02*
X142438381Y-127500095D01*
X142438381Y-127785809D02*
X141438381Y-127785809D01*
X141581238Y-127690571D01*
X141676476Y-127595333D01*
X141724095Y-127500095D01*
X141438381Y-128404857D02*
X141438381Y-129023905D01*
X141819333Y-128690571D01*
X141819333Y-128833429D01*
X141866952Y-128928667D01*
X141914571Y-128976286D01*
X142009810Y-129023905D01*
X142247905Y-129023905D01*
X142343143Y-128976286D01*
X142390762Y-128928667D01*
X142438381Y-128833429D01*
X142438381Y-128547714D01*
X142390762Y-128452476D01*
X142343143Y-128404857D01*
X162250381Y-127119143D02*
X161774190Y-126785809D01*
X162250381Y-126547714D02*
X161250381Y-126547714D01*
X161250381Y-126928667D01*
X161298000Y-127023905D01*
X161345619Y-127071524D01*
X161440857Y-127119143D01*
X161583714Y-127119143D01*
X161678952Y-127071524D01*
X161726571Y-127023905D01*
X161774190Y-126928667D01*
X161774190Y-126547714D01*
X162250381Y-128071524D02*
X162250381Y-127500095D01*
X162250381Y-127785809D02*
X161250381Y-127785809D01*
X161393238Y-127690571D01*
X161488476Y-127595333D01*
X161536095Y-127500095D01*
X161583714Y-128928667D02*
X162250381Y-128928667D01*
X161202762Y-128690571D02*
X161917048Y-128452476D01*
X161917048Y-129071524D01*
X148296381Y-124206095D02*
X149105905Y-124206095D01*
X149201143Y-124253714D01*
X149248762Y-124301333D01*
X149296381Y-124396571D01*
X149296381Y-124587048D01*
X149248762Y-124682286D01*
X149201143Y-124729905D01*
X149105905Y-124777524D01*
X148296381Y-124777524D01*
X148296381Y-125158476D02*
X148296381Y-125777524D01*
X148677333Y-125444190D01*
X148677333Y-125587048D01*
X148724952Y-125682286D01*
X148772571Y-125729905D01*
X148867810Y-125777524D01*
X149105905Y-125777524D01*
X149201143Y-125729905D01*
X149248762Y-125682286D01*
X149296381Y-125587048D01*
X149296381Y-125301333D01*
X149248762Y-125206095D01*
X149201143Y-125158476D01*
M02*
