G04 #@! TF.FileFunction,Soldermask,Top*
%FSLAX46Y46*%
G04 Gerber Fmt 4.6, Leading zero omitted, Abs format (unit mm)*
G04 Created by KiCad (PCBNEW 4.0.6-e0-6349~53~ubuntu16.04.1) date Thu Apr 27 18:13:27 2017*
%MOMM*%
%LPD*%
G01*
G04 APERTURE LIST*
%ADD10C,0.100000*%
%ADD11R,10.400000X7.400000*%
%ADD12R,1.900000X1.650000*%
%ADD13R,1.650000X1.900000*%
%ADD14R,2.000000X3.900000*%
%ADD15R,1.600000X1.600000*%
%ADD16C,2.800000*%
%ADD17R,2.800000X2.800000*%
%ADD18C,1.900000*%
%ADD19C,3.400000*%
%ADD20O,5.400000X4.200000*%
%ADD21R,1.700000X1.900000*%
%ADD22R,1.900000X1.700000*%
%ADD23R,1.960000X1.050000*%
%ADD24C,3.600000*%
G04 APERTURE END LIST*
D10*
D11*
X128130800Y-84683600D03*
X128130800Y-94335600D03*
D12*
X149332000Y-110998000D03*
X146832000Y-110998000D03*
X169271000Y-110998000D03*
X166771000Y-110998000D03*
D13*
X142748000Y-115042000D03*
X142748000Y-112542000D03*
X162687000Y-115042000D03*
X162687000Y-112542000D03*
D14*
X136398000Y-114206000D03*
X136398000Y-108806000D03*
X156337000Y-114206000D03*
X156337000Y-108806000D03*
D15*
X151511000Y-123487000D03*
X151511000Y-125687000D03*
X171450000Y-123487000D03*
X171450000Y-125687000D03*
X151511000Y-127551000D03*
X151511000Y-129751000D03*
X171450000Y-127551000D03*
X171450000Y-129751000D03*
D16*
X141127600Y-89509600D03*
D17*
X144627600Y-89509600D03*
D18*
X145413000Y-117856000D03*
X142873000Y-117856000D03*
X140843000Y-117856000D03*
X138303000Y-117856000D03*
D19*
X148463000Y-120526000D03*
X134743000Y-120526000D03*
D18*
X165352000Y-117856000D03*
X162812000Y-117856000D03*
X160782000Y-117856000D03*
X158242000Y-117856000D03*
D19*
X168402000Y-120526000D03*
X154682000Y-120526000D03*
D20*
X164973000Y-84709000D03*
X164973000Y-94352000D03*
D21*
X151511000Y-113966000D03*
X151511000Y-116666000D03*
X171450000Y-113966000D03*
X171450000Y-116666000D03*
X151511000Y-109140000D03*
X151511000Y-111840000D03*
X171450000Y-109140000D03*
X171450000Y-111840000D03*
D22*
X149432000Y-109093000D03*
X146732000Y-109093000D03*
X169371000Y-109093000D03*
X166671000Y-109093000D03*
D21*
X144653000Y-112442000D03*
X144653000Y-115142000D03*
X164592000Y-112442000D03*
X164592000Y-115142000D03*
X140843000Y-115142000D03*
X140843000Y-112442000D03*
X160782000Y-115142000D03*
X160782000Y-112442000D03*
X151511000Y-118792000D03*
X151511000Y-121492000D03*
X171450000Y-118792000D03*
X171450000Y-121492000D03*
D23*
X149432000Y-114742000D03*
X149432000Y-113792000D03*
X149432000Y-112842000D03*
X146732000Y-112842000D03*
X146732000Y-114742000D03*
X146732000Y-113792000D03*
X169371000Y-114742000D03*
X169371000Y-113792000D03*
X169371000Y-112842000D03*
X166671000Y-112842000D03*
X166671000Y-114742000D03*
X166671000Y-113792000D03*
D24*
X151638000Y-100838000D03*
M02*
